/* XPM */
static char *magick[] = {
/* columns rows colors chars-per-pixel */
"16 16 37 1",
"  c #6b0808",
". c #7b0808",
"X c #731919",
"o c None",
"O c #8c1010",
"+ c #8c1919",
"@ c #941010",
"# c #9c1919",
"$ c #842121",
"% c #a51010",
"& c #a51919",
"* c #ad1010",
"= c #b51919",
"- c #bd1919",
"; c #b52121",
": c #b52929",
"> c #bd2929",
", c #b53a3a",
"< c #bd4242",
"1 c #c51919",
"2 c #ce1919",
"3 c #d61919",
"4 c #de1919",
"5 c #c52121",
"6 c #d62929",
"7 c #e61919",
"8 c #ef3a3a",
"9 c #c54242",
"0 c #c54a4a",
"q c #c55252",
"w c #d65a5a",
"e c #ce6b6b",
"r c #ef4242",
"t c #e65252",
"y c #ef5252",
"u c #e66363",
"i c #f78c8c",
/* pixels */
"ooooooooo+  oooo",
"oooo=o:q,=+OXooo",
"o=ooo<==-=%%-Xoo",
"ooooo;==242--@Xo",
"ooq<==---34333.o",
"oo<====--#173%%o",
"&--1-===+X#33-5o",
"<&51=**=#++-35oo",
"o<5>=*===+===-oo",
"owee00==12=99;oo",
"oooe009427599qoo",
"oooooorr77yooooo",
"oo=oooor77too=oo",
"oooooi887-4ooooo",
"ooooooou6&$ooooo",
"oooooooo&@@$oooo"
};
