/* XPM */
static char *icon[] = {
/* width height num_colors chars_per_pixel */
"    64    64       57            1",
/* colors */
". c None",
"# c #060204",
"a c #867234",
"b c #bea24c",
"c c #9e8a44",
"d c #463a1c",
"e c #c4bfbc",
"f c #c9ac52",
"g c #5a5756",
"h c #8e7c3f",
"i c #26220c",
"j c #bab4b1",
"k c #867e6c",
"l c #76663c",
"m c #a9a4a1",
"n c #dec05e",
"o c #363214",
"p c #736f6d",
"q c #514a34",
"r c #7e7767",
"s c #d5ba5b",
"t c #b1aca9",
"u c #b69d4d",
"v c #6a5e3c",
"w c #e9ca60",
"x c #96928e",
"y c #161314",
"z c #90867e",
"A c #c7b269",
"B c #666464",
"C c #d6d2d4",
"D c #282723",
"E c #97833d",
"F c #464444",
"G c #4e4a44",
"H c #0e0c0c",
"I c #5e5224",
"J c #363634",
"K c #868684",
"L c #9e9e9c",
"M c #beaa6c",
"N c #bebab5",
"O c #e6c65e",
"P c #1e1a1c",
"Q c #6e6a69",
"R c #565254",
"S c #5e5e5c",
"T c #ae9644",
"U c #3e3b3c",
"V c #323030",
"W c #ae9b65",
"X c #e6ce7c",
"Y c #242122",
"Z c #84807e",
"0 c #9c9895",
"1 c #918c89",
"2 c #7b7776",
/* pixels */
"................................................................",
"................................................................",
"................................................................",
"...............................VVVS.............................",
"...........................SS#######VV..........................",
"..........................S############.........................",
"..........................########H####V........................",
".........................J######yR2V####........................",
".........................#######yS0F####V.......................",
"........................V#######HVgD#####.......................",
"........................#########yDy#####S......................",
".......................S###########H#####V......................",
".......................V#######Y####KKtR#V......................",
".......................V#####PZtxF#DCCtt#V......................",
".......................V#####SLK10#2ZZ#tD#......................",
".......................V#####2Z##xYmDD#D##......................",
".......................V###PPxU##0Y2######......................",
".......................V###PPxU##0Y2######......................",
".......................######pS##xYZYY#ZD#......................",
".......................######S2##pDqZZGm##......................",
".......................#######SzTnXwOOnF##......................",
".......................#######obsnOOwwOa##......................",
".......................######yacAsnwwwnsi#......................",
".......................#######dhcbAOXXOsi##F....................",
"......................U########JahTuAAco####yQQ.................",
"....................pyy#########IvllSSJ#####HyyP................",
".................QUUyy########HJgRggxxe0Y####HHHHQ..............",
"................FyyyHH#######YSSRRpLNNNN2####HHHHHP.............",
"..............QYyyyyHH#####PPxxpBpttNNNeeF#####HHH#yp...........",
".............UYyHyHHH######BBLmLtmtjjjNNeeF##HHH#HHHHF..........",
"............PyyyHyHH######JLLLLmmmttjjNeeeeY###HHHHHHHPP........",
".........QQyyyyHyHHH######200LLmmmttNNNNeee2####HHHHHHyyp.......",
"........QyyyyHHyHH#######JxLLLLLmLttttNNeeNeD###HH#H#HHHy.......",
"........QyyyyHHyHH#######JxLLLLLmLttttNNeeNeD###HH#H#HHHy.......",
".......QHHHHHyyyH2#######20xxLLLLtmtjjjNNeeN2####HH#H#HHHy......",
".......yHyyHyHHH..######yxxxxLLLLLttjjtNNeeNL###JHHHHH##HyQ.....",
"......HHyyyHHHQ..V######g1x00x0LmLmtttjNNNeeeYY#LBHH#HHHHHy.....",
".....QHHHHHHHQ...J######p1xxx00LLLttjjtNNNNNN22#D.BHHH##H#Hp....",
".....JHHHHHy.....V#####yKK1xxxx0LLLtttjjNNNee00#J...#HHHHHHH....",
".....HHyyBB......J#####y111xxxx0LmLtttjNNNNNNNNYD....H##HHHHQ...",
"....UHHHB........V#####PZ1K11xxx0mLmttttjNNNNNNYJ.....JJHH#HU...",
"....HHy..........J#####GKKK11x1xLLmmtttjjNNNejjYV.......BHHHH...",
"...JHQ...........V#####BZK1KKKxxxLLmttttjjNNjNNYV........BH##U..",
"...HB............J#####BZZKKK11x0LLtmmttjtNNjjjYD..........HHH..",
"..Q..............V#####S2ZKKK1Kx0LLLmmttjjtjtttYJ...........J#U.",
".................S#####D22ZZZKK1xLLmmmmtttjjtxx#.............BH.",
"..................####HHpp222ZK1xxLLLLmtttttAnnW...X............",
"....................###y2Bp22ZKK110LLLmLmttLfffu..Ms............",
"....................V##dnWQQQ2ZKKxxxLLLmmmLTuuububbuA...........",
"....................V##dnWQQQ2ZKKxxxLLLmmmLTuuububbuA...........",
".....................#IbssWppp2ZKKxx0000nMLTuuuuuucu............",
".................fOO.SEcETsKKp1s1KK1xx0puubuuuubTuub............",
".................cTTnhEEEEcuucbs1KK1xxKQTuuuuuuuuuT.............",
".................WEEcEEEEEEEEaEE22KKKKKQTubuuuububA.............",
".................WEEEEhEEEEhhhEErp2ZZZpQEuubuuuWuu..............",
"..................EEEEEEEEEEEEhhBQpp22pDquuuubbub...............",
"....................EEEEEEEEEEEoDgggFFF..Tuuuuuuu...............",
"....................EEhhEEEEEEW...........uuuuub................",
".....................EEEEEhhhE............bubuu.................",
".....................WEEEEEcc..............uWAA.................",
"......................EEEkhEE...............A...................",
".......................EEEE.....................................",
"........................Eh......................................",
"................................................................"
};
