/* XPM */
static char * hand_xpm[] = {
"48 34 37 1",
" 	c None",
".	c #00FF33",
"+	c #00FE33",
"@	c #01FE32",
"#	c #01FE33",
"$	c #02FE32",
"%	c #02FC32",
"&	c #03FC32",
"*	c #00FD33",
"=	c #00FC35",
"-	c #08FE31",
";	c #2AFE2A",
">	c #649A1E",
",	c #16E92E",
"'	c #00FD34",
")	c #37FD27",
"!	c #A7FB11",
"~	c #FF0000",
"{	c #E31C05",
"]	c #77881B",
"^	c #2AD52A",
"/	c #0CF230",
"(	c #00F937",
"_	c #00F53B",
":	c #06F539",
"<	c #42FD25",
"[	c #A9FB11",
"}	c #FFFA00",
"|	c #F20D02",
"1	c #A45A12",
"2	c #14EA2E",
"3	c #00C16B",
"4	c #00C369",
"5	c #00B07B",
"6	c #00AE7D",
"7	c #ACFB10",
"8	c #0022FF",
"                                                ",
"                                                ",
"                                                ",
"                                                ",
"                   ......                       ",
"                  .........                     ",
"                 ...........                    ",
"                ............                    ",
"                .............                   ",
"                .....+@#.....                   ",
"                .....@$@+....                   ",
"                ....%@$$@@...                   ",
"                ...%&*@$$$@$                    ",
"                 %%&&=*@$$-;                    ",
"                 >,%&'''@-)!                    ",
"                ~{]^/(=_:<[}}                   ",
"               ~~~|1234567}}}}                  ",
"              ~~~~~  888   }}}}                 ",
"            ~~~~~~   888    }}}}                ",
"           ~~~~~     888    }}}}}               ",
"          ~~~~~      888      }}}}              ",
"         ~~~~~       888       }}}}             ",
"        ~~~~~        888       }}}}}            ",
"       ~~~~~         888        }}}}}           ",
"      ~~~~~          888         }}}}}          ",
"     ~~~~~           888          }}}}}         ",
"     ~~~~            888           }}}}         ",
"      ~              888            }}}         ",
"                     888                        ",
"                     888                        ",
"                     888                        ",
"                                                ",
"                                                ",
"                                                "};
