/* XPM */
static char * dodgy_door_xpm[] = {
"192 64 10 1",
" 	c None",
".	c #000000",
"+	c #5E7A9E",
"@	c #040608",
"#	c #12171E",
"$	c #040507",
"%	c #07090C",
"&	c #050709",
"*	c #546C8C",
"=	c #232D3B",
"......................................................................................                    ................................                                            ..........",
"+++++++++++++++++++++++++++++++..++++++++++++++++++++++++++++++++++++++++++++++++++++.                    .++++++++++++++++++++++++++++++.                                            .+++++++++",
"+++++++++++++++++++++++++++++++..++++++++++++++++++++++++++++++++++++++++++++++++++++.                    .++++++++++++++++++++++++++++++.                                            .+++++++++",
"+++++++++++++++++++++++++++++++..++++++++++++++++++++++++++++++++++++++++++++++++++++.                    .++++++++++++++++++++++++++++++.                                            .+++++++++",
"+++++++++++++++++++++++++++++++..++++++++++++++++++++++++++++++++++++++++++++++++++++.                    .++++++++++++++++++++++++++++++.                                            .+++++++++",
"+++++++++++++++++++++++++++++++..++++++++++++++++++++++++++++++++++++++++++++++++++++.                    .++++++++++++++++++++++++++++++.                                            .+++++++++",
"+++++++++++++++++++++++++++++++..++++++++++++++++++++++++++++++++++++++++++++++++++++.                    .++++++++++++++++++++++++++++++.                                            .+++++++++",
"+++++++++++++++++++++++++++++++..++++++++++++++++++++++++++++++++++++++++++++++++++++.                    .++++++++++++++++++++++++++++++.                                            .+++++++++",
"+++++++++++++++++++++++++++++++..++++++++++++++++++++++++++++++++++++++++++++++++++++.                    .++++++++++++++++++++++++++++++.                                            .+++++++++",
"+++++++++++++++++++++++++++++++..++++++++++++++++++++++++++++++++++++++++++++++++++++.                    .++++++++++++++++++++++++++++++.                                            .+++++++++",
"+++++++++++++++++++++++++++++++..++++++++++++++++++++++++++++++++++++++++++++++++++++.                    .++++++++++++++++++++++++++++++.                                            .+++++++++",
"+++++++++++++++++++++++++++++++..++++++++++++++++++++++++++++++++++++++++++++++++++++.                    .++++++++++++++++++++++++++++++.                                            .+++++++++",
"+++++++++++++++++++++++++++++++..++++++++++++++++++++++++++++++++++++++++++++++++++++.                    .++++++++++++++++++++++++++++++.                                            .+++++++++",
"@##......................................$.......%%%&%%...............................                    ................................                                            ..........",
"*******************************..****************************************************.                    .******************************.                                            .*********",
"*******************************..****************************************************.                    .******************************.                                            .*********",
"*******************************..****************************************************.                    .******************************.                                            .*********",
"*******************************..****************************************************.                    .******************************.                                            .*********",
"*******************************..****************************************************.                    .******************************.                                            .*********",
"*******************************..****************************************************.                    .******************************.                                            .*********",
"*******************************..****************************************************.                    .******************************.                                            .*********",
"*******************************..****************************************************.                    .******************************.                                            .*********",
"*******************************..****************************************************.                    .******************************.                                            .*********",
"*******************************..****************************************************.                    .******************************.                                            .*********",
"*******************************..****************************************************.                    .******************************.                                            .*********",
"*******************************..****************************************************.                    .******************************.                                            .*********",
"*******************************..****************************************************.                    .******************************.                                            .*********",
"*******************************..****************************************************.                    .******************************.                                            .*********",
"*******************************..****************************************************.                    .******************************.                                            .*********",
"*******************************..****************************************************.                    .******************************.                                            .*********",
"*******************************..****************************************************.                    .******************************.                                            .*********",
"*******************************..****************************************************.                    .******************************.                                            .*********",
"*******************************..****************************************************.                    .******************************.                                            .*********",
"*******************************..****************************************************.                    .******************************.                                            .*********",
"*******************************..****************************************************.                    .******************************.                                            .*********",
"*******************************..****************************************************.                    .******************************.                                            .*********",
"*******************************..****************************************************.                    .******************************.                                            .*********",
"*******************************..****************************************************.                    .******************************.                                            .*********",
"*******************************..****************************************************.                    .******************************.                                            .*********",
"*******************************..****************************************************.                    .******************************.                                            .*********",
"*******************************..****************************************************.                    .******************************.                                            .*********",
"*******************************..****************************************************.                    .******************************.                                            .*********",
"*******************************..****************************************************.                    .******************************.                                            .*********",
"*******************************..****************************************************.                    .******************************.                                            .*********",
"*******************************..****************************************************.                    .******************************.                                            .*********",
"*******************************..****************************************************.                    .******************************.                                            .*********",
"*******************************..****************************************************.                    .******************************.                                            .*********",
"*******************************..****************************************************.                    .******************************.                                            .*********",
"*******************************..****************************************************.                    .******************************.                                            .*********",
"*******************************..****************************************************.                    .******************************.                                            .*********",
"*******************************..****************************************************.                    .******************************.                                            .*********",
"*******************************..****************************************************.                    .******************************.                                            .*********",
"*******************************..****************************************************.                    .******************************.                                            .*********",
"*******************************..****************************************************.                    .******************************.                                            .*********",
"*******************************..****************************************************.                    .******************************.                                            .*********",
"*******************************..****************************************************.                    .******************************.                                            .*********",
"*******************************..****************************************************.                    .******************************.                                            .*********",
"*******************************..****************************************************.                    .******************************.                                            .*********",
"*******************************..****************************************************.                    .******************************.                                            .*********",
"*******************************..****************************************************.                    .******************************.                                            .*********",
"*******************************..****************************************************.                    .******************************.                                            .*********",
"*******************************..****************************************************.                    .******************************.                                            .*********",
"*******************************..****************************************************.                    .******************************.                                            .*********",
"*******************************.=****************************************************.                    =******************************.                                            =*********"};
