/* XPM */
static char * email_xpm[] = {
"32 16 5 1",
" 	c None",
".	c #000000",
"+	c #FCFC00",
"@	c #B3B3B3",
"#	c #00FCFC",
"................................",
".+@+@+@+@+@+@+@+@+@+@+@+@+@+@+@.",
".@.....@+@+@+@+@+@+@+@+@+@+#.#+.",
".+@+@+@+@+@+@+@+@+@+@+@+@+@.#.@.",
".@...@.@+@+@+@+@+@+@+@+@+@+#.#+.",
".+@+@+@+@+@+@+@+@+@+@+@+@+@.#.@.",
".@+@+@+@+@+@+@+@+@+@+@+@+@+@+@+.",
".+@+@+@+@+............@+@+@+@+@.",
".@+@+@+@+@+@+@+@+@+@+@+@+@+@+@+.",
".+@+@+@+@+............@+@+@+@+@.",
".@+@+@+@+@+@+@+@+@+@+@+@+@+@+@+.",
".+@+@+@+@+.......+..@.@+@+@+@+@.",
".@+@+@+@+@+@+@+@+@+@+@+@+@+@+@+.",
".+@+@+@+@+@+@+@+@+@+@+@+@+@+@+@.",
".@+@+@+@+@+@+@+@+@+@+@+@+@+@+@+.",
"................................"};
