/* XPM */
static char * newspaper_xpm[] = {
"64 64 8 1",
" 	c None",
".	c #7F7F7F",
"+	c #D9D9D9",
"@	c #B3B3B3",
"#	c #4D4D4D",
"$	c #FFFFFF",
"%	c #8C8C8C",
"&	c #999999",
"                                                                ",
"                                                                ",
"                                                                ",
"                                                                ",
"                                                                ",
"                                                                ",
"                                                                ",
"                                                                ",
"                                                                ",
"                                                                ",
"                                                                ",
"                                                                ",
"                                                                ",
"                                                                ",
"                                                                ",
"                                                                ",
"                  ....                                          ",
"                ..+++.                                   @++    ",
"            #. .#@$$.                                 ++++$+    ",
"          ..$$..#%#$.                            @+++++$$$$+    ",
"         ...$$$.#@$.                          @@++++$$$$&&$+    ",
"         ...$##@$$.##@@@                 @@+++++$$$$$@....$$+   ",
"          #.$$###$.@@@+++++@        @@+++++++++$$$...#+++.@$+   ",
"   @@++%@@#.$###$.@@@@++$$++++++++++++$$$$$$$$$$$$..$.#.$.@$+   ",
"  #@$$$.$$..$$#@$.@@.++++$$$$$$$$$$$$$$$$$$$$$$$$$.+#.##@@.$++  ",
"  %.$%#%.##.$#@$.#@@#.++$$$$$$$$$$$$$$$$$$$$$###.$@.+@@@##.@$+  ",
"  #@$$%$$#.$##@..@@###++$#..###.$$$$$$$$.##$.$$$$$@.+.#.#+.@$+  ",
"  %&$%####..$.@.@@@###.+##$#$.##.##.$$$$$#.$#$$.$$$..$++...$$+  ",
"  %&$&$&+#@..@.@@@#####+#$##$$$.$#.$$$$$##$.#####$$.&...@$$$$+  ",
"  #%+%.###...@.@@.##..#$#$###.$$$$#$$.#$##$$.$$##$$@..@$$&#&$+  ",
"  #%+&&+@##.##.@.###+$###$#$$#$$$$#$##.###$$$$$#.$$$$$$###$$$+  ",
"  .%+%#&#.#.#.@@@.#.+$.#$##.$$$#$$###$$##$$.####$$$$&##$$$$$$+  ",
"  #.@+$@###...@##++++$$.$.#####.$$.#.$$$#$$$#$$$$$###$$$@@.$$+  ",
"  #%@#.##....@@@##+##$$$$$$$$##$$$$.$$$$$$$$$$####&$$$$@.$$$+@  ",
"  .%@$.@@@.#.@++++#########@$$$$$$$$$$$$$$+###&$$$$$$..$$..$+@  ",
"  ..@...#.#.@@...+$$$$$$$$+&##############&$$$$$$.@..$$@..$$+@  ",
"  ...#.@##..@+++....@@$$$$$$$$$$$$$$$$$$$$$$$@...@$$@...$$$++   ",
"   ..+#.##.@+..++$$.....@$$.#$.$.$##$.#.$#$$.$$$$$.@.$$$..++&   ",
"   #..++...+++..@.@@$$$$$$$.##.#@##.###.#.$$$$....$$$$+.+++&@   ",
"   #...#...@..+++$.....@@$#$.$.#.@#.#.$..$$$..$$$$$@..+...&     ",
"   #....#..++...++.$$@$$$$$$$$$$$$$$$$$$$$$$$$.$@...+...++.     ",
"    #..#.+@..++.......@$$$#.##.......@.@..$$..@$$$$+..+....     ",
"     ##..@.##..@+.+..+.++.@@+##....++..+&.++++$.....+...##      ",
"      ...@@..##..@.+.@++$.@+.@@++@@@..@@&++....++..+..##        ",
"        ..####@.#..+.@@+.&&&.#&&&&.+&&&&&++.+++..+####          ",
"           ######@#...@....&&+.+.+&&&.+..&&....#..##            ",
"               ######@@...##&......@+...&&&####.##              ",
"                  #.##########################                  ",
"                                                                ",
"                                                                ",
"                                                                ",
"                                                                ",
"                                                                ",
"                                                                ",
"                                                                ",
"                                                                ",
"                                                                ",
"                                                                ",
"                                                                ",
"                                                                ",
"                                                                ",
"                                                                ",
"                                                                ",
"                                                                "};
