/* XPM */
static char * steam_xpm[] = {
"256 64 80 1",
" 	c None",
".	c #C4C4C4",
"+	c #FCFCFC",
"@	c #F6F6F6",
"#	c #DEDEDE",
"$	c #DADADA",
"%	c #FAFAFA",
"&	c #F0F0F0",
"*	c #E9E9E9",
"=	c #D4D4D4",
"-	c #EFEFEF",
";	c #E7E7E7",
">	c #E2E2E2",
",	c #CECECE",
"'	c #D3D3D3",
")	c #CACACA",
"!	c #C0C0C0",
"~	c #DF5858",
"{	c #FDDADA",
"]	c #FEE7E9",
"^	c #FEFAF9",
"/	c #D94E4E",
"(	c #FBBCBC",
"_	c #FDC8CB",
":	c #DCDCDB",
"<	c #F28585",
"[	c #F89F9F",
"}	c #F59494",
"|	c #FDCDCC",
"1	c #F9ACAD",
"2	c #F49193",
"3	c #B80000",
"4	c #D81D22",
"5	c #D64141",
"6	c #EE7979",
"7	c #E36060",
"8	c #D82F2F",
"9	c #C40000",
"0	c #E96E6E",
"a	c #E56464",
"b	c #FCFCFB",
"c	c #D0D0CF",
"d	c #D31414",
"e	c #C8C8C7",
"f	c #E4E4E3",
"g	c #CC0B0B",
"h	c #CCCCCB",
"i	c #ECECEC",
"j	c #F9A4A2",
"k	c #E66565",
"l	c #ED7878",
"m	c #C80000",
"n	c #A80000",
"o	c #C5C5C3",
"p	c #E46363",
"q	c #5A0000",
"r	c #980000",
"s	c #D4D4D2",
"t	c #E8E7E7",
"u	c #F59696",
"v	c #860000",
"w	c #EC7777",
"x	c #280000",
"y	c #FAB7BA",
"z	c #6A0000",
"A	c #FBB8B8",
"B	c #FAAFAF",
"C	c #7A0000",
"D	c #C5C4BF",
"E	c #D8D8D7",
"F	c #F9F9F4",
"G	c #E0E0DF",
"H	c #4A0000",
"I	c #C6C5BB",
"J	c #760000",
"K	c #D7D7D8",
"L	c #060000",
"M	c #DBDBDC",
"N	c #7A7A7B",
"O	c #660000",
"       ....                        ..              .... .....   ++++++++++++ ++@#$   ++%@%++++  +++       &**&    @%+++++++++++        ....                        ..              .... .....   ++++++++++++ ++@#=   ++%@%++++  +++       &**&    @%+++++++++++ ",
"    ..  ....                ..   .....             ..........   ++++++++++++++++-#;%+ %&*&  +   +++       ;;&+   >;-%+  ++++++++    ..  ....                ..   .....             ..........   ++++++++++++++++-$;++ %&*&  +   +++       *;&+   >;-%+  ++++++++",
"   ...  ....,        ..'   ..... ..       ..       ..........   ++++++++++++++++@>;@   ->>      ++       &*-%   #$>*@    +++++++   ...  ....,        ..'   ..... ..       ..       ..........   ++++++++++++++++@;;@   ->>      ++       &*-%   #$>*@    +++++++",
"   .... .... '$     ..),  ......))        )..     ...........   ++++++++++++++++%->-+   #=;              @@%     -@+     +++++++   .... .... '$     ...,  ......))        )..     ...........   ++++++++++++++++%->-+   #=;              @@%     -@%     +++++++",
"....... ...) .'**   ).).. .....),',       ,)).    ............  +++++++++++++   +@;*@  *#=#              ++++    +++     % ++++ ....... ...) .'**   ).... .....)',,       ,,..    ............  +++++++++++++   +@**@  *#=#              ++++    +++     @ ++++ ",
".........)'$=))$>>#,$=)... ..  ),'$#      ,)..    ..... ........ ++++++++++%+   +%--@;$>#$$   @&*$$      @@@++++++++    >-+++++ .........)'$=))$>>#,$=)... ..  ),'$#      ,)..    ..... ........ ++++++++++%+   +%-*@;$>#$$   @&;$$      @@@++++++++    >-+++++ ",
".........,'==$=),>>';-$',      ).'*-     ))..     ...   ........++++++++++%-&    +%@%*==# = **;>#$;@@   =-**@@@@&&&%    >;%+++  .........,'==$=),#>';-$',      ).'*-     ))..     ...   ........++++++++++@-&    +%@%*==# = **;>#$;@@   =-*;@@@@&&&%    >*%+++  ",
".........)).)>-=.'''-& '''     $,        )).      .      .......++++++++++@;;    +++  ''  $#>>#$=>@%;$  $*;$;;;;;>;&    ;;&+++  .........)).)>-=)'''*& '''     $,        )..      .      .......++++++++++@;;    +++  ''  $#>>#$=>@%;#  $*;#;*;;;>;&    ;;@+++  ",
".......)).)'$&%>,$$,=  ),$#> $$$        -$',     ..         ....++++++++++%;$    +++   )   ---#=$-%@#,' ;&&$$;*-&&&@    **@+++++.......)).)'$&%>,$$,=  ),$$> $$$        -$',     ..         ....++++++++++%;$    ++%   )   ---#=#-%@#,' ;&&$$;*--&&@    *;@+++++",
" ......))..'*%%#$*#))$ .,',$')))>@* $  &*=,,'',)....    ......  ++++++++++  '    +%        + ;=$*%+-$,,#-+%>$-+++++@    @&%+++++ ......))..'*%%#$*#))$ .,''$')))>@* $  &*=,,'',)....    ......  ++++++++++  '    +%        + *=$*%+-$,,#-+%>$-+++++@    @&%+++++",
"...........)=;  )=,..,,,  ',)),';&;'#;  '..)'==,....    ......  ++   ++++++ =,, ++@$,     %%&#$*%++&>$$*%  *=;%+++@*-+++  ++++  ...........)=;  )=,..,,,  ',)),';&;'#;  '..)'==,)...    ......  ++   ++++++ =,, ++@$'     %%&#$*%++&>$$*%  *$>%+++@*&+++  ++++  ",
"..........)))   ,)').'*&-;#$,.,>&-$=*-  =,.),),))..     ......  +    ++++++%;'=&++@>'$   >**#=#&++%&>$$>&  &#$*%+%-;@+++  ++++  ...........))   ,)').'*&-;#$,.,>&-$=*-  =).),),)...     ......  +    +++++++;'=&++@>'$   >**#=#&++%&>$$>&  &#$*%++-;@+++  ++++  ",
"........),'=$   $'=' ;@%%-#>'.)=##')$   ,,,))))....     ........+++  +++++++*$#@++&>$$$  =$',,' %&*;#==$;&%-$=;%%*>-+++%@&%+++  ........),'=$   $'=' ;@%%-#>'.)=#$')$   ,,,))))....     ........+++  ++++++%*$#@++&>$$$  =$',,' +&*;#==$;&%-$=;%+*>-+++%@@%+++  ",
".........)'     $>= ,#;-%*),.)),,),,,=  '>**>$$'.),=$   ).......      +++++%**-%+@*;;#$  '=','   *#>#$#$#;-*$$-@-=#@++@*;;&++   .........)'     $>= ,#;-%*),.)),,,,,,=  '>*;>$$,).,=$   ).......      +++++%**-%+@**;#$  '=','   *#>#$$$#;-*$$-@-=#@++@-;;&++   ",
"..  ......      *-$ ).);&>,,'=$$=,'''=')#&%%->>=,,'$=..)',....             +@@++%*;-*>  ,=##$>    ,===#;*>>#$>**#, ;&%&>#>&++   ..  ......      *-$ ).);&>,''=$$=,'''=')#&%%->>$,,'$=..)',....             %@@++%*;-*>  ,=##$>    '===#;*>>#$>**#, ;&%&>#>&++   ",
".    ......)== $*-'),,.=#$$==$$#$,.,$=,)$>*@;''=$=,,)..)  ....              ++++%-*;#*  '$*-*       $;-@->$=$#>#=),$-%@&&       .    ......)== $--'),,.=$$$==$$#$,!,==,)$;*@;''=$=,,)..)  ....              ++++@-*;#*  '$*-*       $;-@->$=$#>#=),=*%@&&       ",
"..   .......)..)$>=',)..)=$=#;$$$,,#*$)).)#->,,=;>').)..  ....         %      &@%@;$#&   #*          %@*$=$>>#$$   &%++         ..   .......)..)$>=',)..)=$=#;$$$,,>*$...)#->,)=;>').)).  ....         +      &@+@;$#&   #*          %&*$=$#>#$$   &%++         ",
" .    .........)=#'=',, ),,,>& $=,';-$)),,=#$===# >=,''))....         #-&;    ;*%@#=#-%+&>>   ;#$   =;>='$>-@>''   ++++          .    .........)=#'=',,~{]]^^^{{]{/;-$)),)=#$===# >=,''))....         #-&>    ;*%@#=#-%~{]]^^^{{]{/ =;>$'$>-@>''   ++++         ",
"         ...)....)...,= =',,'# ;''$>*#'',),'=##$  *#'##'',).    +     =#;;-  @;;&&#==$*&@;$> ->=',..,$>==;;*@*,,   @@@& ==     ,         ....)...)...,(]^^^]]^^^^^^^_:'',),'=##$  *#'$#'',).    +     =#;;&  @*;&&#==$(]^^^]]^^^^^^^_$>==;;*@*,,   @@@& ==     ,",
"           ...)).,,).., ',=$',>;=$;>;$$$=,).)';->  ='$=,' =''   ++    ==#;  ++&;-&>  )'#>>$=>&*#',) #--#$;*-%&$=* >>;;>#',     '           ...)).),).]^^^^^^]^]{]^(<[[}$=,..)';->  ='$=,' =''   ++    ==#;  ++&;-->  ]^^^^^^]^]{]^(<[[}#$;*-%&$=* >>;;>#',     '",
"            )...),=,.)) ))$->,=$=>;=','=$=)),$-&  -#,,)    #    ++    >=$-  ++@--&   .,$#>>=$*&-=,  %+&*;;-&&;#$#$=$>***>=     $            ....),=,{^^^^^^^^^^^^^^|12~3$=)),$-&  -#,,)    #    ++    >=$-  ++@--&  {^^^^^^^^^^^^^^|12~3;;-@&;#$#$=$>*-*>=     $",
"       ..   ',))'=')),)),=;&;'$#'   ),'==,).';&&  -$.)'         +++   -$$&++++&*-@    #***;$$;*-#=>*@+@&@-@%->##>;;-@+++@$             ..   ',))'='<^]^^^^^^^^]^1^}[2145=,).';&&  -$.)'         +++   -$$&+++%&*-@ <^]^^^^^^^^]^1^}[2145&-&%->##>;;-@+++@$      ",
"       ... ''''''',..,).,#**$'##,   )'',,)..)'#   $,..'   '     +++    >$;%++@>#       &-*>= -**;;;>&+++++++@&@+++++  ++               ... ''''''',^^^^^]^^^{_{({[~26785,)..)'#   $,..'   '     +++    #$;+++@>#   ^^^^^]^^^{_{({[~26785++++@&@+++++  ++        ",
"..      .  ),=$')))..)...,'=,),,) ,'''',)))))).)  ',.)$&@&*      ++     #>@+%;#        @->=,=;&&*-;;@+++++++&-@+++++   ++       ..      .  ),=$'))9^^^^^|{{]]{{(0a0<0/584))))).,  ',.)$&@&*      ++     #>%+@;#   9^^^^^|{{]]{{(0a0<0/584++%&-@b++++   ++       ",
"..     .)' ,,=$='))))).))).)',)',.,>*;#='','',))'=='),>&%@        ++       %*>>;      @+&#,)';@%&-;;@+@&@+++&;;&%+++     ++     ..     .)' ,,=$=c)a{{^^^^1[[[<<0[[600/0dd',c'ce)'=='),>&%@        ++       %*>>;  a{{^^^^1[[[<<0[[600/0dd++%&;f&%+++     ++     ",
"...   .),==''''=$''$$'',,','$''=')=*&@>==')),',.,$#'),=>-@        ++       &*;*;#$=',$&&;$==#*%%-*;;%+&;*@++%&;;&%+++@          ...   .),==='''=$'01{^^^^2[1[16<<a7<~859g')),ch.,$#'.,=>-@        ++       &*;*;#$01{^^^^2[1[16<<a7<~859g@%+%i;;&%+++@          ",
"...     ,,,=#$'=#$#;>$=''=$>#=#=,,'=>->,)...)',)=;;' ))'*&       ++        @&--*#=$; ---******-@*;-&+++&*;-@++@;;*@+%;;         ...     ,,,=#$'=#$a[({jkl50[([}5mgng488g~..oe',)=;;' ))'*&       ++        @&--*#=a[({jkl50[([}5mgng488g~;-@b+@;>*@+%;;         ",
" ..      ),$*;$ ;$$$','=#>;#$>;=,)))=;#,)...),,)=;;=  ,)'$$$      +@   +@&@+%&;**==;@-#;-*;*@&&&;*%+++++@*>;&%&#$>*@@##          ..      ),$*;$ ;$/([[p5$>;0_<0mq)))r3/44..oe,,es;;'  ,)'$$=      +@   +@&@+%&;**=/([[p5-*;0_<0mq*%+r3/44t>;-@&#$;;&@##         ",
"  ..     ,$;-;$;-$,').,$;*;',#;=,),.)''',)...)..)=#=   ..)=$      %*>&++&;-%+&##>#=$;;=$>##*%+%@;-++      ;>#>#,=*;*-$            ..     ,$;-;=;-#,}{u5$;*;'/[~v)),.)g/4,)...e.o)$#=   ..)=$      %*>&++&;-%+&##>#=}{u5$>##*/[~v;-++ g/4  ;>#>:cs*;*-$          ",
" ...      $>;$,$>=,==,,'#>>',$#=',)...)',....)..)'''==    ),      &;*%++@*;&&;=,=>$$>#'$;;#;%++@*-%+      #>#=''$   *=    +++    ...      $;;$,$>=,[[w5'#>>=x<~n',)..84m,.o.oe.oe'''==    ),      &;*%++@*;&@;=,=>$[[w5$;;#;x<~n*-%+ 84m  :>:s'c$   *=    +++   ",
" ..       ,'',),',,$>;>$=#>#'#>==',)...)).............,           **@+++%->>>$','=='$#=#->$>@++%-*@     ))$#>>>#;    $    +++    ..       ,'',),c,,4_y5$=#>#n05/z',)30d)..............,           -*&+++%->>>$','==4_y5#*>$>n05/z*@ 30d ))$#>>>:;    $    +++   ",
"  .    ),',).),,'',=*&@&#$#$=>#',),,)..........)..))..           &;-%+++%-;;;;#='$$=#>$#>##>&++%-;*&#===   -@%&>*    *&   +++     .    ),',).,,,c',={AB7dCd/7g~m2/5760.......D.)..))..           &;-%+++%-;>;;$''E$={AB7dCd/7g~m2/5760==   -@F&>*    *@   +++   ",
"  .  ..),'',))'=$=,$*@%@>=#$==',),''')............),)            @-@++++%*;&&&@->;  -;###; *&@&--;*&>$;    +++@*-    +        ++  .  ..),'',))'=Es,$*5^^]]]<6zav06/05)....o.....o.),)            @-%++++%*;&&&@->;  -5^^]]]<6zav06/05$;    +++@**    +        ++",
" ........),',,#;>')=;&%@#$>$,,,,,''' ,.............,      ..     +++++++%*#-**@@*   -#$$>   *;>>;*;-&;*    ++++      +        ++ ........),',,#;G')=;&<{{{(1<H[H483g3,...6[|2[.Ioo.,      ..     +++++++%*#-**@@*   *><{{{(1<H[H483g3;*  6[|2[+      +        ++",
" .......)),''$*->,,,';-*='$=)),'==,  ,............       ....    ++++++%&;=#;#*%    ;>     =#>;-&&;*@*>-  &%++%      ++    +++++ .......)),''$*->,,,';-^^}{65g[J/n948,..7[|{[0.D..       ....    ++++++%&;=#;#*%    ;# ^^}{65g[J/n948*>-7[|{[0%      ++    +++++",
" ......),,'==#;*#'=','======',$>;>$$=,)...........   .    ...      ++++@>=,) =$*   ;>*@%    >-@++%*;-->*&**%+@&     +++++ ++++++ ......),,'==#;t#'==,''=(]620//4dndm=,).{(]](/.!!!   .    ...      ++++@>=,) =$t   ;;*@%(]620//4dndm-->*{(]](/&     +++++ ++++++",
" ......))'#$,,=#$$##='),$==$$#;&&-$$$,..........     .       ...    ++++  ..  ,=  $#>*@++     ++++&;**>>**&%&;*@++++++++++++++++ ......)),#$,,=#$$##='),86<<gdd93n84$,.8{<_(6..!     .       ...    ++++  ..  ,=  ##>*@+86<<gdd93n84**>8{<_(6;*@%+++++++++++++++",
" ....),).'>#=,)===#$$$,)'$$'=>**--$,,).  ......     ..        ..    +++    )..),=,=;>#*%+     &@%@--*;>#;-%@;>;*-% ++++++  +++++ ....),..'>>=,)==~<$$$,)3_[~d52~4n~4,)a({[14...     ..        ..    +++    )..),=~<;>#*%3_[~d52~4n~4*;a({[14;>;*-@ %+++++  +++++",
" ...,'=','$#>#,$#  ,'$$'#**=,=$>-*#')).  ...)))     ...     ....    +++   *'..),,)=->=>&-;#$$$$#-&*-&;#>*@%*#$$#>* *@%+++  +++++ ...,'=','$#>#,$#}}1'$$'#dd7ama5xa~<<2_(a6..!).     ...     ....    +++   *'..),,}}1#=>&-dd7ama5xa~<<2_(a6%*K$$$>* *@++++  +++++",
"  ..,,''>*  **=;-; ,,'',#-*#=,'#;>;>=,'')..,,).     ....  ...... ++ ++   -#',),',,$;$'$#=',,'$$=>-;;&*>*@%&;;;;;>$=$*  +++  ++++  ..,'''>*  **=;-511<=''#4(#<,a~;rL6{]</).!),)o     ....  ...... ++ ++   -#',),',511<'$#$4(,<$a~>rL6{]</@%->>;;;>$=$*  +++  ++++",
"    )).,&+     **>=''=')'>;**$,==$;#''===''$$)..,,)............. ++    *#=''  >#=$#$$='=',,'$-*$>-*>*&-&++&-@%%%&;;-@@ +++   +++    ).),&+     **g51|{/)'>;**$,==6[(17==')'==)!.,,)............. ++    *#=''  >#=g51|{/=',,'$-*$>6[(17-&+@&*@%%%&;;-@% +++   +++",
"    .)'>%+        )'===,'>-&&#$>$,''.,=$##'''...))....... ......      #$$#$   @->;># ;>;#='$;@*$#-*#>-@@&%%%+++++%%%@-&+%%          .)'>%+       3216]]{|1[a&5/<1]<<g,=$##'''!..))....... ......      #$$#$   @->3216]]{|1[a;5/<1]<<g-@@&%%%++++%%%%@-&++%      ",
"    ..'-@&$ %   $,),,''))#-&;=#;$.),,),=;>'))....   .....  .....     @;>*@-  ;%@*-*; %%%@   @-###;*>>*&*$;%%%%%%++++&;;  >          ..'-@&$ %   $,),,'0{]<(}a11](}9',),=;>'!!)...   .....  .....     &;>*@-  ;%@--*; %0{]<(}a11](}9>>*&;$;%&&%@@%+++&;;  >      ",
" .  ..)=##,     '==''',))'#$=),=,.)=#$''$##$,='))   .  ..  ..... +  ++&;-%&; =-&*-&;;&%%+   &#=>>$#**;*>'$>;;;>>-@%%&##  '       .  ..)=##,     '==''',)36}(^]|]6/4~dmd0<d$$,='))   .  ..  ..... +  ++&;-%&; =-&*-&;;&%%36}(^]|]6/4~dmd0<dM;;;>>-@%%&##  '      ",
" ..    , )=    .=*&-;#=','',,,,,,)'#--->$#;;'>*==  ..  ...   ..  ++ +@;>@@;> ,#;=#;;##;*- +%-=';#'$-&*;>='$##$=$#>>*  =  ,#      ..    , )=    .=*&-;<061<11(}~ng9aa2]^]{[;;'>*==  ..  ...   ..  ++ +%;>@@*> ,#;=#;;#<061<11(}~ng9aa2]^]{[$##==$#>>*  =  ,#     ",
"      $=,    >,)#&@%*$#''=$','==','>&@@@;##='>;=',',).....   .   ++  -#*%->   $*$'===='=#*-*>$'>>'$&%*>**>*->''=#>>*      #@          $=,    #,)#&@%*|{{|0$','==',5a9d[_1N=='>;=,'',))....   .   ++  -#*%->   $*$'===|{{|0-*>$'>G'5a9d[_1N;->''=#>>*      #@    ",
"      ,='.  -$.)=#*@;))),  '.,#>'),=>-@@>=>#,')..,===,.              ;#&@>    *@;'',,''''=###;#;*=#@@;;@%@@*#==;@@@        %          ,='.  -$.)=#*@f))),  '.,#>'),$>dmO)=>#,')..,===,.              ;#&@>    *@;'',,''c'=###;#;*=#@@dmOM@&*#==;@@@        %    ",
"    ..)''.=&@#.)))>-$))..  =)$**=)))=-%&#>&;))=).,,,=,.               -       ++@;# ,'==''#>>-&&@;>--*  ++%&**-%++                  ..)''.=&@#))))>-$))..  =)$**s))e=-%&##->))=..,,,=,.               -       ++@*# ,'==='#>>-&&@;f--*  ++%-**-%++              ",
"... ..)',.'&% ,',.'==',).)',)$**'),))#;;#=$'..,,')))                  +       ++%&>=''$>#$;;>-%++&****  %++++++++          +    ... ..)',.'&% ,',.'==',).,c,)$*t')h)h#>;$=$'!.,',)))                  +       ++%&>=''=>>$f;>-%++&****  @++%+++++          +    ",
" .. .  )..)*@ $',..)==,...)..'>>==',)))=#',')  --*>#      ..          +       @&->==#;**>>*;#*@++@***>  ;@+++++++          +     .. .  )..)*@ $=,..)==,...)..'>>==',)))=#',')  --*>#      ..          +       @@->==#;**>>*f#*@++@***>  ;@+++++++          +    ",
"       )..    $',,   ,)......,=$'$$$$=,,==,=' *%%%;>*                 ++   &>>##$##*&%%&>;->$;%++&;;->  =;--*&++%%-#*%+++              )..    $',,   ,)......)=$'$$$$=,,$=,=' *%%%;>*                 ++   &>>##$$#*&%%&>;->$;%++&;;->  =;&--&%+%+-#;%+++       ",
"              ..),    ....)....)..,'$# .)'$') >;*@*                   +++  +&>='$;&%@%+@**&>$;%   >$   )'$$='= --%&;;@++++                    ..),    ....)....)..,'$# ..'$'. >;*@*                   +++  +&>='$;&%@%+@**&>$;%   >$   )'$$='= *-@@;;%++++      ",
"             '....   .  ....)..))...)#  '>*'.).)>&                    +++++++@>$$#*->*+@&@&#           )'==,), #>@%*>&++++                   '....   .  ....)..))...)#  '>*'.).)>&                    +++++++&>$$>*->*+@&@&#           ),==,), #>@%*#&++++      ",
"      .      ',........ .......),)...$  =**'.,,)=         ..           ++++++%&;>##$'#%--%@             #>>$'= #;%%-;  ++++           .      ',........ .......),)...$  =**'.,,)=         ..           ++++++%&*>##$'#%--%@             #>>$'= #>%+&;  ++++     ",
"      .      ,).................))...   ,$>''',..)##,...  .              +%@&-*-&;>=)'&;*%%        '=  $#>;>#;-#;%++   +++++  +       .      ,).................))...   ,$>''',..)##,...  .              +%@&**-&;>=)'&;*%%        '=  $#>;>#;-#;%++   +++++  + ",
"      ..  .................  ...         =$'#   ..),).....       +       @-;>>;*-;;#),*;*%+        *->$#;-&**&-$>++++  +++++          ..  .................  ...         =$=#   ..),).....       +       @*;>#;--;;$),*>*%+        *->$#;-&**@-$>%+++  +++++    ",
"      .....................              .).     .........       ++ ++   *#>;;;;;;;   -;-%+  ++    -&**&@  @@   *+++++                .....................              .).     .........       ++ ++   -#>;;;;;;;   -;-++  ++    -&**&@  @@   *+++++          ",
"       ............  ......             ).),   ....   .....      ++++++  --@&;>;*     &;-++  ++    #-@%+   ++    +++++                 ............  ......             ).),   ....   .....      ++++++  --@&;>;-     &;-++  ++    #-&%+   ++    +++++          ",
"        ...........   .....             ..)''  ....    ..... .. ++++++++   +@&@%      @&@+          >;-%+ *@++   +++++        +         ...........   .....             ..)''  ....    ..... .. ++++++++   +@&@%      @&@+          >;-%+ *@++   +++++        + ",
" .       ..........   .....         .   ...,,.   ...   .....    +++++++     ++++      ++++   ++      $#-@;#&+++++++++         +  .       ..........   .....         .   ...,,.   ...   .....    +++++++     ++++      ++++   ++      $#-@;#&+++++++++         + ",
" .....   .........    ..... ...    ...... ...    ....  ..       +++++++     ++++      +++++ +++       ;*-;>-   ++++++            .....   .........    ..... ...    ...... ...    ....  ..       +++++++     ++++      +++++ +++       ;*-;#-   ++++++           ",
".. ...   ........     .....  ..     ....   ..    .....          +  +++++   +++       ++++++++++%-  '   &&;$    +++++++++        .. ...   ........     .....  ..     ....   ..    .....          +  +++++   +++       ++++++++++%-  '   &&;$    +++++++++        ",
"........  .....       ....          ....   ..   ......              +++++  ++        +++++++++@*#$       $     +++ ++++++       ........  .....       ....          ....   ..   ......              +++++  ++        +++++++++@*#$       #     +++ ++++++       ",
".......    ....       ....   .         .. ...........        ..         ++               +++   ;>*             +++ ++++++       .......    ....       ....   .         .. ...........        ..         ++               +++   ;>*             +++ ++++++       "};
