/* XPM */
static char * switch_off_xpm[] = {
"32 32 54 1",
" 	c None",
".	c #464644",
"+	c #5E727C",
"@	c #66828C",
"#	c #6E8E9C",
"$	c #828294",
"%	c #B2525C",
"&	c #FA0604",
"*	c #7296AC",
"=	c #A26674",
"-	c #D62E34",
";	c #82869C",
">	c #6A8A94",
",	c #7E8E9C",
"'	c #927684",
")	c #C2424C",
"!	c #EA161C",
"~	c #7A96A4",
"{	c #767E84",
"]	c #927A8C",
"^	c #AA5E6C",
"/	c #9A6E7C",
"(	c #828A9C",
"_	c #828E9C",
":	c #BA4A54",
"<	c #767674",
"[	c #6A828C",
"}	c #76929C",
"|	c #769AAC",
"1	c #728A9C",
"2	c #7A92A4",
"3	c #9A727C",
"4	c #C6424C",
"5	c #E21E24",
"6	c #F20E14",
"7	c #CE363C",
"8	c #8E828C",
"9	c #9E6A7C",
"0	c #BE4654",
"a	c #62767C",
"b	c #6E92A4",
"c	c #8A8294",
"d	c #AA626C",
"e	c #E22224",
"f	c #868694",
"g	c #B6525C",
"h	c #7696AC",
"i	c #967684",
"j	c #9E6E7C",
"k	c #868A9C",
"l	c #7E92A4",
"m	c #6A8A9C",
"n	c #7A96AC",
"o	c #6A8294",
"                                ",
"                                ",
"                                ",
"                                ",
"                                ",
"                                ",
"        .+.+.+.+.+.+.+.+        ",
"        <|ln|~~l~~|n||b.        ",
"        .|;|~_kff_~||<|<        ",
"        {||n(cijj]fln|*.        ",
"        .||lc9:40^i(n||<        ",
"        {|~(ig-!e4=flh*.        ",
"        .||(3:e&67^82||<        ",
"        {|~_'%-!54=$lh*.        ",
"        .|nlf9g)0^i(h||<        ",
"        {||}(c39/]klh|*.        ",
"        .|||22($f(}||||<        ",
"        {||||~1..h||||*.        ",
"        .||||*[..||||||<        ",
"        {|||||@.>|||||*.        ",
"        .|||||@+m*|||||<        ",
"        {||||*@+>|||||*.        ",
"        .|||||@+m||||||<        ",
"        {||||*@+#|||||*.        ",
"        .||||*bm*||||||<        ",
"        {|[||||*|*|||<*.        ",
"        .|~|||||||*||||<        ",
"        {{<<{<<<{<{<{<<.        ",
"                                ",
"                                ",
"                                ",
"                                "};
