/* XPM */
static char *magick[] = {
/* columns rows colors chars-per-pixel */
"192 64 32 1",
"  c Gray0",
". c Gray3",
"X c #101010",
"o c #191919",
"O c Gray13",
"+ c Gray16",
"@ c Gray22",
"# c Gray26",
"$ c Gray29",
"% c Gray32",
"& c #5a5a5a",
"* c Gray39",
"= c Gray42",
"- c Gray45",
"; c #7b7b7b",
": c #848484",
"> c Gray55",
", c Gray58",
"< c Gray61",
"1 c #a5a5a5",
"2 c Gray68",
"3 c Gray71",
"4 c Gray74",
"5 c #c5c5c5",
"6 c #cecece",
"7 c Gray84",
"8 c Gray87",
"9 c #e6e6e6",
"0 c #efefef",
"q c Gray97",
"w c Gray100",
"e c None",
/* pixels */
"eeeeeeeeeeeeeeeeeeee-,<>:;eeeeeeeeee$*-;21>eeeeeeeeeeeeeeeeeeeeeeeeeeeeeeeeeeeeeeeeeeeeeeeeeeeeeeeeeeeeeeeeeeeeeeeeeeeeeeeeeeeeeeeeeeeeeeeeeeeeeeeeeeeeeeeeeeeeeeeeeeeeeeeeeeeeeeeeeeeeeeeeeeeee",
"eeeeeeeeeeeeeeeeeeee>;=*;<232eeeee,2342&=-1eeeeeeeeeeeeeeeeeeeeeeeeeeeeeeeeeeeeeeeeeeeeeeeeeeeeeeeeeeeeeeeeeeeeeeeeeeeeeeeeeeeeeeeeeeeeeeeeeeeeeeeeeeeeeeeeeeeeeeeeeeeeeeeeeeeeeeeeeeeeeeeeeeeee",
"eeeeeeeeeeeeeeeeeeee%ee,1   75eee<2   76eeeeeeeeeeeeeeeeeeeeeeeeeeeeeeeeeeeeeeeeeeeeeeeeeeeeeeeeeeeeeeeeeeeeeeeeeeeeeeeeeeeeeeeeeeeeeeeeeeeeeeeeeeeeeeeeeeeeeeeeeeeeeeeeeeeeeeeeeeeeeeeeeeeeeeee",
"eeeeeeeeeeeeeeeeeeeeee,1     86e<1     97eeeeeeeeeeeeeeeeeeeeeeeeeeeeeeeeeeeeeeee:<1%ee=::eeeeeeeeeeeeeeeeeeeeeeeeeeeeeeeeeeeeeeeeeeeeeeeeeeeeeeeeeeeeeeeeeeeeeeeeeeeeeeeeeeeeeeeeeeeeeeeeeeeeee",
"eeeeeeeeeeeeeeeeeeeee=<2    + 8-12    Xq9eeeeeeeeeeeeeeeeeeeeeeeeeeeeeeeeeeee&,111<<>ee;::>>,eeeeeeeeeeeeeeeeeeeeeeeeeeeeeeeeeeeeeeeeeeeeeeeeeeeeeeeeeeeeeeeeeeeeeeeeeeeeeeeeeeeeeeeeeeeeeeeeeee",
"eeeeeeeeeeeeeeeeeee=;:12  o X 8;13  + .w00eeeeeeeeeeeeeeeeeeeeeeeeeeeeeeeee><1<<   >&ee=-;  :>,<eeeeeeeeeeeeeeeeeeeeeeeeeeeeeeeeeeeeeeeeeeeeeeeeeeeeeeeeeeeeeeeeeeeeeeeeeeeeeeeeeeeeeeeeeeeeeeee",
"eeeeeeeeeeeeeeeee-;:>;123    07;23    .qw0eeeeeeeeeeeeeeeeeeeeeeeeeeeeeeee*:;;,     4eee,     :>12eeeeeeeeeeeeeeeeeeeeeeeeeeeeeeeeeeeeeeeeeeeeeeeeeeeeeeeeeeeeeeeeeeeeeeeeeeeeeeeeeeeeeeeeeeeeee",
"eeeeeeeeeeeeeeee;::;=&<23467876;12357889weeeeeeeeeeeeeeeeeeeeeeeeeeeeeeeee*=*,1    o7-e<    . 8;;1eeeeeeeeeeeeeeeeeeeeeeeeeeeeeeeeeeeeeeeeeeeeeeeeeeeeeeeeeeeeeeeeeeeeeeeeeeeeeeeeeeeeeeeeeeeeee",
"eeeeeeeeeeeeeee;::-=ee,12356654e<23456789<eeeeeeeeeeeeeeeeeeeeeeeeeeeeeeeeeee123 + .96,12 .o.998*eeeeeeeeeeeeeeeeeeeeeeeeeeeeeeeeeeeeeeeeeeeeeeeeeeeeeeeeeeeeeeeeeeeeeeeeeeeeeeeeeeeeeeeeeeeeeee",
"eeeeeeeeeeeeee;:;;-eeee,112332;e;<112356><<eeeeeeeeeeeeeeeeeeeeeeeeeeeeeeeee,134699qw7<235790wq9eeeeeeeeeeeeeeeeeeeeeeeeeeeeeeeeeeeeeeeeeeeeeeeeeeeeeeeeeeeeeeeeeeeeeeeeeeeeeeeeeeeeeeeeeeeeeeee",
"eeeeeeeeeeeee-::;-eeeeee:>>,,<eee=:>><2=;>1<eeeeeeeeeeeeeeeeeeeeeeeeeeeeeeee,1347w99q7<235qw9wwqeeeeeeeeeeeeeeeeeeeeeeeeeeeeeeeeeeeeeeeeeeeeeeeeeeeeeeeeeeeeeeeeeeeeeeeeeeeeeeeeeeeeeeeeeeeeeeee",
"eeeeeeeeeeee&;1->eeeeeeeeeeeeeeeeeeeeeee=;,1<eeeeeeeeeeeeeeeeeeeeeeeeeeeeeee>13357887:<23478890weeeeeeeeeeeeeeeeeeeeeeeeeeeeeeeeeeeeeeeeeeeeeeeeeeeeeeeeeeeeeeeeeeeeeeeeeeeeeeeeeeeeeeeeeeeeeeee",
"eeeeeeeeeeee->12eeeeeeeeeeeeeeeeeeeeeeeee-:<1eeeeeeeeeeeeeeeeeeeeeeeeeeeeeeee<2345665:,123567899eeeeeeeeeeeeeeeeeeeeeeeeeeeeeeeeeeeeeeeeeeeeeeeeeeeeeeeeeeeeeeeeeeeeeeeeeeeeeeeeeeeeeeeeeeeeeeee",
"eeeeeeeeeeee;<62eeeeeeeeeeeeeeeeeeeeeeeee*;<1eeeeeeeeeeeeeeeeeeeeeeeeeeeeeeee:<123443;e<1234567eeeeeeeeeeeeeeeeeeeeeeeeeeeeeeeeeeeeeeeeeeeeeeeeeeeeeeeeeeeeeeeeeeeeeeeeeeeeeeeeeeeeeeeeeeeeeeeee",
"eeeeeeeeeee&;<0eeeeeeeeeeeeeeeeeeeeeeeeeee;>11eeeeeeeeeeeeeeeeeeeeeeeeeeeeeeee;>,<12<ee=><<1235eeeeeeeeeeeeeeeeeeeeeeeeeeeeeeeeeeeeeeeeeeeeeeeeeeeeeeeeeeeeeeeeeeeeeeeeeeeeeeeeeeeeeeeeeeeeeeeee",
"eeeeeeeeeee&;<5eeeeeeeeeeeeeeeeeeeeeeeeeee->11eeeeeeeeeeeeeeeeeeeeeeeeeeeeeeeeee=;:eeeeee-;:,eeeeeeeeeeeeeeeeeeeeeeeeeeeeeeeeeeeeeeeeeeeeeeeeeeeeeeeeeeeeeeeeeeeeeeeeeeeeeeeeeeeeeeeeeeeeeeeeeee",
"eeeeeeeeeee*:12eeeeeeeeeeeeeeeeeeeeeeeeeee=:12eeeeeeeeeeeeeeeeeeeeeeeeeeeeeeeee,<<<<<,,eeeeeeeeeeeeeeeeeeeeeeeeeeeeeeeeeeeeeeeeeeeeeeeeeeeeeeeeeeeeeeeeeeeeeeeeeeeeeeeeeeeeeeeeeeeeeeeeeeeeeeeee",
"eeeeeeeeeee=:12eeeeeeeeeeeeeeeeeeeeeeeeeee*;<2eeeeeeeeeeeeeeeeeeeeeeeeeeee<1<<<,,>>>>>>>>>,,,eeeeeeeeeeeeeeeeeeeeeeeeeeeeeeeeeeeeeeeeeeeeeeeeeeeeeeeeeeeeeeeeeeeeeeeeeeeeeeeeeeeeeeeeeeeeeeeeeee",
"eeeeeeeeeee*:<2eeeeeeeeeeeeeeeeeeeeeeeeeee&;<3eeeeeeeeeeeeeeeeeeeeeeeeee<3<,,>>>>::::::;;:::::>>eeeeeeeeeeeeeeeeeeeeeeeeeeeeeeeeeeeeeeeeeeeeeeeeeeeeeeeeeeeeeeeeeeeeeeeeeeeeeeeeeeeeeeeeeeeeeeee",
"eeeeeeeeeee*;<2eeeeeeeeeeeeeeeeeeeeeeeeeeee;<3&eeeeeeeeeeeeeeeeeeeeeeee>2,,>>>>:::::;;;;;;;;;;;:::>eeeeeeeeeeeeeeeeeeeeeeeeeeeeeeeeeeeeeeeeeeeeeeeeeeeeeeeeeeeeeeeeeeeeeeeeeeeeeeeeeeeeeeeeeeeee",
"eeeeeeeeeee&;<2eeeeeeeeeeeeeeeeeeeeeeeeeeee;,11eeeeeeeeeeeeeeeeeeeeeee*137<,:::;;;;;;-----;;;;;;;;;:$eeeeeeeeeeeeeeeeeeeeeeeeeeeeeeeeeeeeeeeeeeeeeeeeeeeeeeeeeeeeeeeeeeeeeeeeeeeeeeeeeeeeeeeeeee",
"eeeeeeeeeeee;<2&eeeeeeeeeeeeeeeeeeeeeeeeeee;>11eeeeeeeeeeeeeeeeeeeeeee=<23<,::;----====-------;;;;;;;>eeeeeeeeeeeeeeeeeeeeeeeeeeeeeeeeeeeeeeeeeeeeeeeeeeeeeeeeeeeeeeeeeeeeeeeeeeeeeeeeeeeeeeeeee",
"eeeeeeeeeeee;,11eeeeeeeeeeeeeeeeeeeeeeeeeee->11eeeeeeeeeeeeeeeeeeeeeee=<2<,:;;--=****=======-----;---->eeeeeeeeeeeeeeeeeeeeeeeeeeeeeeeeeeeeeeeeeeeeeeeeeeeeeeeeeeeeeeeeeeeeeeeeeeeeeeeeeeeeeeeee",
"eeeeeeeeeeee;,11eeeeeeeeeeeeeeeeeeeeeeeeeee=:<<eeeeeeeeeeeeeeeeeeeeeee=,1<>:-=eeeeeeeee&&*=====--------eeeeeeeeeeeeeeeeeeeeeeeeeeeeeeeeeeeeeee:,,,<<<<,,,>>>:;eeeeeeeeeeeeeeeeeeeeeeeeeeeeeeeeee",
"eeeeeeeeeeee->11eeeeeeeeeeeeeeeeeeeeeeeeeee&;,1<eeeeeeeeeeeeeeeeeeeeee=>1,eeeeeeeeeeeeeeeeeee*====---==<eeeeeeeeeeeeeeeeeeeeeeeeeeeeeeeee,1111122332<,,,>>>:::::;;;eeeeeeeeeeeeeeeeeeeeeeeeeeeee",
"eeeeeeeeeeee-:11eeeeeeeeeeeeeeeeeeeeeeeeeeee-:<1eeeeeeeeeeeeeeeeeeeeee*;1eeeeeeeeeeeeeeeeeeeeeee**=====<eeeeeeeeeeeeeeeeeeeeeeeeeeeeee&<5w11<<<<<<<,,,>>>>::::::;;;;-eeeeeeeeeeeeeeeeeeeeeeeeeee",
"eeeeeeeeeeee=:<1eeeeeeeeeeeeeeeeeeeeeeeeeeee*;,1%eeeeeeeeeeeeeeeeeeeee*-<eeeeeeeeeeeeeeeeeeeeeeeee****=<eeeeeeeeeeeeeeeeeeeeeeeeeeeee*<,<1<<<<<<<,,,,,>>:::::::;;;;-==eeeeeeeeeeeeeeeeeeeeeeeeee",
"eeeeeeeeeeee&;<1eeeeeeeeeeeeeeeeeee-:,,>:eeee;><<eeeeeeeeeeeeeeeeeeeee*-,eeeeeeeeeeeeeeeeeeeeeeeeeee*&=<eeeeeeeeeeeeeeeeeeeeeeeeeeeee=:1<<<<<<<,,,,,>>:::::::;;;;;--=*:eeeeeeeeeeeeeeeeeeeeeeeee",
"eeeeeeeeeeeee;,11eeeeeeeeeeeeeeeee-><<0<<<eee=:,1<eeeeeeeeeeeeeeeeeeee*=>eeeeeeeeeeeeeeeeeeeeeeeeeeee&=,eeeeeeeeeeeeeeeeeeeeeeeeeeeee*;161<<,,,,,>>>;;;::::;;;;;;;--=*;eeeeeeeeeeeeeeeeeeeeeeeee",
"eeeeeeeeeeeee;>11eeeeeeeeeeeeeeeee;<1<>:><<,ee-:<1$eeeeeeeeeeeeeeeeeee*=-<eeeeeeeeeeeeeeeeeeeeeeeeeeee=>eeee;eeeeeeeeeeeeeeeeeeeeeeee*=2q2<,,,,>>;;*,<1;;;;;;;;;;---=*=eeee--eeeeeeeeeeeeeeeeeee",
"eeeeeeeeeeeee=:<1eeeeeeeeeeeeeeee*:13>%&=;><<ee;><<eeeeeeeeeeeeeeeeeee&=-,eeeeeeeeeeeeeeeeeeeeeeeeeeee*;eeee-:eeeeeeeeeeeeeeeeeeeeeee*=-91<,,>>-><11<<=;;;;:::;-;---**=-eee----eeeeeeeeeeeeeeeee",
"eeeeeeeeeeeee*;<1eeeeeeeeeeeeeeee-,12eeeee-:,<$*;><<eeeeeeeeeeeeeeeeeee*=;eeeeeeeeeeeeeeeeeeeeeeeeeeee*-:ee--->eeeeeeeeeeeeeeeeeeeeee*==;<,,-*,11<    =&*=-;   ::;#=**=-;ee------eeeeeeeeeeeeeee",
"eeeeeeeeeeeeee;,1<eeeeeeeeeeeeee&:<91eeeeee=;,<>=:,<<eeeeeeeeeeeeeeeeee*=-,eeeeeeeeeeeeeeeeeeeeeeeeeee*->ee=--->eeeeeeeeeeeeeeeeeeeee**==-=ee;;->      eee>     -:<=*&=-->e--------eeeeeeeeeeeee",
"eeeeeeeeeeeeee-:11eeeeeeeeeeeeee-,12eeeeeeee=;,1>=:,<<eeeeeeeeeeeeeeeee&=->eeeeeeeeeeeeeeeeeeeeeeeeeee*=;;e==--;>eeeeeeeeeeeeeeeeeeee&*===eee-==<    O :e>1      =;&e&*=->e---------eeeeeeeeeeee",
"eeeeeeeeeeeeee=:<1eeeeeeeeeeeee&:171eeeeeeeee=;,1$=:,<<>eeeeeeeeeeeeeee%*=-<eeeeeeeeeeeeeeeeeeeeeeeeee*=->e*==--;>eeeeeeeeeeeeeeeeeee%*====eeee<13 ...0,-<23 @  <:*&ee*=-&e===-------;eeeeeeeeee",
"eeeeeeeeeeeeeee;,11eeeeeeeeeeee-,12eeeeeeeeeee=:,<e=:><<,eeeeeeeeeeeeeee*=-,eeeeeeeeeeeeeeeeeeeeeeeeee&=->ee*==--;eeeeeeeeeeeeeeeeeeee**====eee<2358932,;123444321<eee*=-*e======------eeeeeeeee",
"eeeeeeeeeeeeeee;>11eeeeeeeeeee*>151eeeeeeeeeeee-:<<e*;:<<<:eeeeeeeeeeeee&==-eeeeeeeeeeeeeeeeeeeeeeeeeee=-&ee&*==-->eeeeeeeeeeeeeeeeeee&*====;ee1235w732,;1334q43221eee&=-&e**=======-=--eeeeeeee",
"eeeeeeeeeeeeeee=:<1eeeeeeeeeee;<28eeeeeeeeeeeeee-:<,ee-:,<<,eeeeeeeeeeee%*=-,eeeeeeeeeeeeeeeeeeeeeeeeee*=&eee&*==--,eeeeeeeeeeeeeeeeeee&**=*=ee<2344421,:1234532251-:>>>,,,,,>;;=========eeeeeee",
"eeeeeeeeeeeeeee*;,1%eeeeeeeee=>131eeeeeeeeeeeeee&;,1%ee=;>1<<,%eeeeeeeeee&==,eeeeeeeeeeeeeeeeeeeeeeeeee&=-eeee&*==-;>eeeeeeeeeeeeeeeeee&*****-e,123321<:;<23332<11468qqqq00996:;;;;;=====*eeeeee",
"eeeeeeeeeeeeeeee;>11eeeeeeeee;<30eeeeeeeeeeeeeeee=:<<eee&-:>1<<1eeeeeeeee%*=:eeeeeeeeeeeeeeeeeeeeeeeeeee*-eeeee&==--;eeeeeeeeeeeeeeeeeee&****-;;,1111<>:e>1222,><<<<<<<<<<<1,,:;;;;;;;::><<eeeee",
"eeeeeeeeeeeeeeee-:<1eeeeeeee-,12eeeeeeeeeeeeeeeeee;,1<eeee*-:>2eeeeeeeeeee**-1eeeeeeeeeeeeeeeeeeeeeeeeeeeeeeeeee*==-->eeeeeeeeeeeeeeeeeee&*&*-;;;::>>>>>,,<11w<><<<,,,,,,,::::%;;;;;;;:>1w1eeeee",
"eeeeeeeeeeeeeeee*;<1eeeeeee&:<53eeeeeeeeeeeeeeeeee-:11eeeeee*-:eeeeeeeeeee&*=<eeeeeeeeeeeeeeeeeeeeeeeeeeeeeeeeee$*==-->eeeeeeeeeeeeeeeeeee&&*-;;;::::>><572112<><,,,,,,,::::::&;;;;;;;::422eeeee",
"eeeeeeeeeeeeeeeee;,1<eeeeee-,11eeeeeeeeeeeeeeeeeee*;<2eeeeeeeeeeeeeeeeeeeee*=>eeeeeeeeeeeeeeeeeeeeeeeeeeeeeeeeeee&*==-;eeeeeeeeeeeeeeeeeeee&*--;;;:::>>,,<<<<122>,,,>>;;;;;;;;&;--;;;;;:,<6eeeee",
"eeeeeeeeeeeeeeeee-:<<eeeee*:151eeeeeeeeeeeeeeeeeee;<13eeeeeeeeeeeeeeeeeeeee&=;>eeeeeeeeeeeeeeeee>,,,,,,,>:;-eeeeee&*==->eeeeeeeeeeeeeeeeeeee&--;;;::::>>,,<<<117>,>>;;;;;;;;;;&;---;;;;:,<0eeeee",
"eeeeeeeeeeeeeeeee*;<1eeeee;,12eeeeeeeeeeeeeeeeeee:<11eeeeeeeeeeeeeeeeeeeeee&=-;>eeeeeeeeeeeeee,<<,,,,,,,<148w>>eeee*===-,eeeeeeeeeeeeeeeeeee%=-;;;;::::>>,,,,<14>>;-----------*------;;;><9eeeee",
"eeeeeeeeeeeeeeeeee;,1>eee=>141eeeeeeeeeeeeeeeeee:<1<eeeeeeeeeeeeeeeeeeeeeee%=-;;:,eeeeeeeeeee*,>>>>>>>>>>>>>>=;;>eee*==->eeeeeeeeeeeeeeeeeeee=--;;;;;::>>>,,,<11,=====******&**==-----;;:,2eeeee",
"eeeeeeeeeeeeeeeeee-:11eee&&28eeeeeeeeeeeeeeeee&><1<eeeeeeeeeeeeeeeeeeeeeeeee=--;;;:>,eeeeeee>1,>:::::::::::;;-;;;:ee&*==-eeeeeeeeeeeeeeeeeeee%=--;;;;;:::>>>>,<1eeeeeeeeeeeeeeeeee**=---;><eeeee",
"eeeeeeeeeeeeeeeeee=;<1eeeee&1eeeeeeeeeeeeeeee*>11<eeeeeeeeeeeeeeeeeeeeeeeeee*=-;;;;;:>>,25<<<,>:;;;;;;;;---;;-;--;;>e&*==,eeeeeeeeeeeeeeeeeeeee*=--;;;;;::::>>,eeeeeeeeeeeeeeeeeeeeeee**=;eeeeee",
"eeeeeeeeeeeeeeeeeee;,11eeeeeeeeeeeeeeeeeeeee=>11<eeeeeeeeeeeeeeeeeeeeeeeeeee&=--;;;;;;::>>>,<<7:;----====---------;;::***<eeeeeeeeeeeeeeeeeeeeeeeee$=====---&eeeeeeeeeeeeeeeeeeeeeeeeeeeeeeeeeee",
"eeeeeeeeeeeeeeeeeee->11eeeeeeeeeeeeeeeeeeee&:<1<eeeeeeeeeeeeeeeeeeeeeeeeeeeee*=---;;;;;:::>>,<1<-=*********==&-----;;:><12eeeeeeeeeeeeeeeeeeeeeeeeeeeeeeeeeeeeeeeeeeeeeeeeeeeeeeeeeeeeeeeeeeeeee",
"eeeeeeeeeeeeeeeeeee=:<1eeeeeeeeeeeeeeeeeee&:<1<eeeeeeeeeeeeeeeeeeeeeeeeeeeeeee*==------;;::>>,<=eeeeee%%%%&&&*===---;;:,<7eeeeeeeeeeeeeeeeeeeeeeeeeeeeeeeeeeeeeeeeeeeeeeeeeeeeeeeeeeeeeeeeeeeeee",
"eeeeeeeeeeeeeeeeeee*;<1eeeeeeeeeeeeeeeeeee;<11eeeeeeeeeeeeeeeeeeeeeeeeeeeeeeeee&*===-----;;::,<eeeeeeeeeeeeeee&*==--;;;><8eeeeeeeeeeeeeeeeeeeeeeeeeeeeeeeeeeeeeeeeeeeeeeeeeeeeeeeeeeeeeeeeeeeeee",
"eeeeeeeeeeeeeeeeeeee;,11eeeeeeeeeeeeeeeee;<11eeeeeeeeeeeeeeeeeeeeeeeeeeeeeeeeeeee%*======--;:,eeeeeeeeeeeeeeeeee&*=--;;:,3eeeeeeeeeeeeeeeeeeeeeeeeeeeeeeeeeeeeeeeeeeeeeeeeeeeeeeeeeeeeeeeeeeeeee",
"eeeeeeeeeeeeeeeeeeee;,11eeeeeeeeeeeeeeee-,11<eeeeeeeeeeeeeeeeeeeeeeeeeeeeeeeeeeeeeeee&***===eeeeeeeeeeeeeeeeeeeeee*==--;><eeeeeeeeeeeeeeeeeeeeeeeeeeeeeeeeeeeeeeeeeeeeeeeeeeeeeeeeeeeeeeeeeeeeee",
"eeeeeeeeeeeeeeeeeeee->11eeeeeeeeeeeeeee*:12<eeeeeeeeeeeeeeeeeeeeeeeeeeeeeeeeeeeeeeeeeeeeeeeeeeeeeeeeeeeeeeeeeeeeeee&*===:<eeeeeeeeeeeeeeeeeeeeeeeeeeeeeeeeeeeeeeeeeeeeeeeeeeeeeeeeeeeeeeeeeeeeee",
"eeeeeeeeeeeeeeeeeeee-:12eeeeeeeeeeeeeee;,10eeeeeeeeeeeeeeeeeeeeeeeeeeeeeeeeeeeeeeeeeeeeeeeeeeeeeeeeeeeeeeeeeeeeeeeeee***;eeeeeeeeeeeeeeeeeeeeeeeeeeeeeeeeeeeeeeeeeeeeeeeeeeeeeeeeeeeeeeeeeeeeeee",
"eeeeeeeeeeeeeeeeeeee=:12eeeeeeeeeeeeeee;<52eeeeeeeeeeeeeeeeeeeeeeeeeeeeeeeeeeeeeeeeeeeeeeeeeeeeeeeeeeeeeeeeeeeeeeeeeeeeeeeeeeeeeeeeeeeeeeeeeeeeeeeeeeeeeeeeeeeeeeeeeeeeeeeeeeeeeeeeeeeeeeeeeeeee",
"eeeeeeeeeeeeeeeeeeee*;<3eeeeeeeeeeeeee*:12eeeeeeeeeeeeeeeeeeeeeeeeeeeeeeeeeeeeeeeeeeeeeeeeeeeeeeeeeeeeeeeeeeeeeeeeeeeeeeeeeeeeeeeeeeeeeeeeeeeeeeeeeeeeeeeeeeeeeeeeeeeeeeeeeeeeeeeeeeeeeeeeeeeeee",
"eeeeeeeeeeeeeeeeeeeee;,1&eeeeeeeeeeeee=>12eeeeeeeeeeeeeeeeeeeeeeeeeeeeeeeeeeeeeeeeeeeeeeeeeeeeeeeeeeeeeeeeeeeeeeeeeeeeeeeeeeeeeeeeeeeeeeeeeeeeeeeeeeeeeeeeeeeeeeeeeeeeeeeeeeeeeeeeeeeeeeeeeeeeee",
"eeeeeeeeeeeeeeeeeeeee;>1<eeeeeeeeeeeee-,13eeeeeeeeeeeeeeeeeeeeeeeeeeeeeeeeeeeeeeeeeeeeeeeeeeeeeeeeeeeeeeeeeeeeeeeeeeeeeeeeeeeeeeeeeeeeeeeeeeeeeeeeeeeeeeeeeeeeeeeeeeeeeeeeeeeeeeeeeeeeeeeeeeeeee",
"eeeeeeeeeeeeeeeeeeeee-:<<eeeeeeeeeeeee:<81eeeeeeeeeeeeeeeeeeeeeeeeeeeeeeeeeeeeeeeeeeeeeeeeeeeeeeeeeeeeeeeeeeeeeeeeeeeeeeeeeeeeeeeeeeeeeeeeeeeeeeeeeeeeeeeeeeeeeeeeeeeeeeeeeeeeeeeeeeeeeeeeeeeeee",
"eeeeeeeeeeeeeeeeeeeee&;><<eeeeeeeeeee-<23eeeeeeeeeeeeeeeeeeeeeeeeeeeeeeeeeeeeeeeeeeeeeeeeeeeeeeeeeeeeeeeeeeeeeeeeeeeeeeeeeeeeeeeeeeeeeeeeeeeeeeeeeeeeeeeeeeeeeeeeeeeeeeeeeeeeeeeeeeeeeeeeeeeeeee",
"eeeeeeeeeeeeeeeeeeeeee*;,<<eeeeeeeee;,11eeeeeeeeeeeeeeeeeeeeeeeeeeeeeeeeeeeeeeeeeeeeeeeeeeeeeeeeeeeeeeeeeeeeeeeeeeeeeeeeeeeeeeeeeeeeeeeeeeeeeeeeeeeeeeeeeeeeeeeeeeeeeeeeeeeeeeeeeeeeeeeeeeeeeeee",
"eeeeeeeeeeeeeeeeeeeeeee*;><<>;eee-;,11<,eeeeeeeeeeeeeeeeeeeeeeeeeeeeeeeeeeeeeeeeeeeeeeeeeeeeeeeeeeeeeeeeeeeeeeeeeeeeeeeeeeeeeeeeeeeeeeeeeeeeeeeeeeeeeeeeeeeeeeeeeeeeeeeeeeeeeeeeeeeeeeeeeeeeeeee"
};
