/* XPM */
static char *magick[] = {
/* columns rows colors chars-per-pixel */
"64 32 80 1",
"  c Gray0",
". c #6b593e",
"X c #685e3e",
"o c #765c36",
"O c #715b3a",
"+ c #71643c",
"@ c #71643d",
"# c #74653b",
"$ c #776838",
"% c #4f4f4e",
"& c Gray31",
"* c #57544a",
"= c #5f5445",
"- c #595248",
"; c #585448",
": c #675740",
"> c #635b43",
", c #615a45",
"< c #675d40",
"1 c #6a6040",
"2 c #1e18db",
"3 c #816e34",
"4 c #8f7529",
"5 c #877030",
"6 c #887230",
"7 c #92782b",
"8 c #9d7f25",
"9 c #a76e1a",
"0 c #a86f1a",
"q c #a08500",
"w c #a98a00",
"e c #ac8b00",
"r c #af8d00",
"t c #ab881e",
"y c #b38f00",
"u c #b98f12",
"i c #b49000",
"p c #b59100",
"a c #b69100",
"s c #b79200",
"d c #ba9300",
"f c #bf9600",
"g c #b79017",
"h c #c09700",
"j c #c19800",
"k c #ca9c00",
"l c #cb9d00",
"z c #cc9d00",
"x c #cd9e00",
"c c #c09511",
"v c #c49610",
"b c #d09e04",
"n c #d2a100",
"m c #d3a200",
"M c #d5a200",
"N c #d5a300",
"B c #d8a400",
"V c #dca700",
"C c #dca603",
"Z c #dfa700",
"A c #dca604",
"S c #e0a800",
"D c #e0a900",
"F c #e3aa00",
"G c #e5ac00",
"H c #e6b41a",
"J c #e8ba2d",
"K c #eeca5e",
"L c #eecd67",
"P c #f3da8f",
"I c #f3db91",
"U c #f3dc96",
"Y c #f6e4ad",
"T c #f6e5b2",
"R c #f9efce",
"E c #faefd0",
"W c #fbf3dc",
"Q c #fefefe",
"! c Gray100",
"~ c None",
/* pixels */
"~~~~~~~~~~~~~~~~~~~~~~~~~~~~~~~~~~~~~~~~~~~~~~~~~~~~~~~~~~~~~~~~",
"~~~~~~~~~~~~~~~~~~~~~~~~~~~~~~~~~~~~~~~~~~~~~~~~~~~~~~~~~~~~~~~~",
"~~~~~~~~~~~~~~~~~~~~~~~~~~~~~~~~~~~~~~~~~~~~~~~~~~~~~~~~~~~~~~~~",
"~~~~~~~~~~~~~~~~~~~~~~~~~~~~~~~~~~~~~~~~~~~~~~~~~~~~~~~~~~~~~~~~",
"~~~~~~~~~~~~~~~~~~~~~~~~~~~~~~~~~~~~~~~~~~~~~~~~~~~~&&&&&~~~~~~~",
"~~~~~~~~~~~~~~~~~~~~~&&&&&~~~~~~~~~~~~~~~~~~~~~~~~&,+GGGG&~~~~~~",
"~~~~~~~~~~~~~~~~~~~&,+GGGG&~~~~~~~~~~~~~~~~~~~~~~~#GGHUTK&~~~~~~",
"~~~~~~~~~~~~~~~~~~~#GGHUTK&~~~~~~~~~~~~~~~~~~~~~~&GGGLQ2R&&~~~~~",
"~~~~~~~~~~~~~~~~~~&GGGLQ2R&&~~~~~~~~~~~~~~~~~~~~~,GGGPQ2WG&~~~~~",
"~~~~~~~~~~~~~~~~~~,GGGPQ2WG&~~~~~~~~~~~~~~~~~~~~~7GGGJYEIG0=:.~~",
"~~&#&~~~~~~~~~~~~~7GGGJYEIG0=:.~~~&#&~~~~~~~~~~~~~AGGGGGGG00090~",
"~&GGG,~~~~~~~~~~~~~AGGGGGGG00090~&GGG,~~~~~~~~~~~&GGGGGGGG0000O~",
"~&GGGG6&~~~~~~~~~~&GGGGGGGG0000O~&GGGG6&~~~~~~~~&4DGGGGGGbo&--&~",
"~&,GGGGg&~~~~~~~~&8GGGGGGGG0&--&~&,GGGGg&~~~~~~~~5DGGGGGGc&&~~~~",
"~~&tGGGGG,&&&&&&&&GGGGGGGGG$~~~~~~&tGGGGG,&&&&&&&;VGGGGGGu>X~~~~",
"~~~&GGGGGGGGGGGGGGGGGGGGGGG1~~~~~~~&GGGGGGGGGGGGGGGGGGGGGVv<~~~~",
"~~~~,GGGGGGGGGGGGGGGGGGGGGG&~~~~~~~~,GGGGGGGGGGGGGGGGGGGGGG&~~~~",
"~~~~~8GGGGGjhGGGGGGGGmmGGG,~~~~~~~~~~8GGGGGjhGGGGGGGGmmGGG,~~~~~",
"~~~~~1GGGGGmrVGGGGGGzimGGG&~~~~~~~~~~1GGGGGmrVGGGGGGzimGGG&~~~~~",
"~~~~~&*GGGGGlylGGGVdizGGG*~~~~~~~~~~~&*GGGGGlylGGGVdizGGG*~~~~~~",
"~~~~~~&GGGGGGNeqiiwfDGGGG&~~~~~~~~~~~~&GGGGGGNeqiiwfDGGGG&~~~~~~",
"~~~~~~&3GGGGGGGDNBGGGGGG&~~~~~~~~~~~~~&3GGGGGGGDNBGGGGGG&~~~~~~~",
"~~~~~~~~*GGGGGGGGGGGGGGG&~~~~~~~~~~~~~~~*GGGGGGGGGGGGGGG&~~~~~~~",
"~~~~~~~~&*GGGGGGGGGGGGG1~~~~~~~~~~~~~~~~&*GGGGGGGGGGGGG1~~~~~~~~",
"~~~~~~~~~&&&3GGGGG+;&&&~~~~~~~~~~~~~~~~~~&&&3GGGGG+*&&&~~~~~~~~~",
"~~~~~~~~~~~~~&&&&&~~~~~~~~~~~~~~~~~~~~~~~~~~~&&&&&~~~~~~~~~~~~~~",
"~~~~~~~~~~~~~~~~~~~~~~~~~~~~~~~~~~~~~~~~~~~~~~~~~~~~~~~~~~~~~~~~",
"~~~~~~~~~~~~~~~~~~~~~~~~~~~~~~~~~~~~~~~~~~~~~~~~~~~~~~~~~~~~~~~~",
"~~~~~~~~~~~~~~~~~~~~~~~~~~~~~~~~~~~~~~~~~~~~~~~~~~~~~~~~~~~~~~~~",
"~~~~~~~~~~~~~~~~~~~~~~~~~~~~~~~~~~~~~~~~~~~~~~~~~~~~~~~~~~~~~~~~",
"~~~~~~~~~~~~~~~~~~~~~~~~~~~~~~~~~~~~~~~~~~~~~~~~~~~~~~~~~~~~~~~~",
"~~~~~~~~~~~~~~~~~~~~~~~~~~~~~~~~~~~~~~~~~~~~~~~~~~~~~~~~~~~~~~~~"
};
