/* XPM */
static char *magick[] = {
/* columns rows colors chars-per-pixel */
"192 64 56 1",
"  c Gray0",
". c Gray3",
"X c #101010",
"o c #191919",
"O c Gray13",
"+ c Gray16",
"@ c #313131",
"# c #3a3a3a",
"$ c #520808",
"% c #5a0808",
"& c #473e3e",
"* c #630808",
"= c #6b0808",
"- c #730808",
"; c #7b1010",
": c Gray39",
"> c Gray42",
", c Gray45",
"< c #7b7b7b",
"1 c #8c1010",
"2 c #941010",
"3 c #9c1010",
"4 c #9c1919",
"5 c #a51010",
"6 c #a51919",
"7 c #ad1010",
"8 c #ad1919",
"9 c #ad2121",
"0 c #b52121",
"q c #b42a2a",
"w c #bd2929",
"e c #bd3131",
"r c #c53131",
"t c #c33a3a",
"y c #ce3a3a",
"u c #ce4242",
"i c #d64242",
"p c #f15a5a",
"a c Magenta",
"s c #848484",
"d c Gray55",
"f c Gray58",
"g c Gray61",
"h c #a5a5a5",
"j c Gray68",
"k c Gray71",
"l c Gray74",
"z c #c5c5c5",
"x c #cecece",
"c c Gray84",
"v c Gray87",
"b c #e6e6e6",
"n c #efefef",
"m c Gray97",
"M c Gray100",
"N c None",
/* pixels */
"NNNNNNNNNNNN N N   NNNNNNN  NN  XNNNNNNNNNNNNNNNNNNNNNNNNNNNNNNNNNNN             NNNNNNNNNNNNNNNN         .o NNNNNNNNNNNNNNNNNNN NNNNNNNNNNNNNNNNNNNNNNNNNNNNNNNNNNNNNNNNNNNNNNNNNNNNNNNNNNNNNNN",
"NNNNNNNN   NN  N  NNNNNNN   NN    NNNNNNNNNNNNNNNNNNNNNNNNNNNNNNNNN              NNNNNNNNNNNNNNNN          X.NNNNNNNNNNNNNNNNNNN  NNNNNNNNNNNNNNNNNNNNNNNNNNNNNNNNNNNNNNNNNNNNNNNNNNNNNNNNNNNNNN",
"NNNNNNNN  O N  N  NNN  NN   NN   XNNNNNNNNNNNNNNNNNNNNNNNNNNNNNNNNN              NNNNNNNNNNNNNNNN          .oNNNNNNNNNNNNNNNNNNN   NNNNNNNNNNNNNNNNNNNNNNNNNNNNNNNNNNNNNNNNNNNNNNNNNNNNNNNNNNNNN",
"NNNNNNNNN  N  .NX  N   N    NN    oNNNNNNNNNNNNNNNNNNNNNNNNNNNNNNN  N            NNNNNNNNNNNNNNNN           NNNNNNNNNNNNNNNNNNNN.   NNNNNNNNNNNNNNNNNNNNNNNNNNNNNNNNNNNNNNNNNNNNNNNNNNNNNNNNNNNN",
"NNNNNNNNNN           N N    NN    X NNNNNNNNNNNNNNNNNNNNNNNNNNNNNNNNN            NNNNNNNNNNNNNNNN        NNNNNNNNNNNNNNNNNNNNNNN..   NNNNNNNNNNNNNNNNNNNNNNNNNNNNNNNNNNNNNNNNNNNNNNNNNNNNNNNNNNN",
"NNNNNNNNNNN     .     N     NN    .oNNNNNNNNNNNNNNNNNNNNNNNNNNNNN NN             NNNNNNNNNNNNNNNN     NNNNNNNNNNNNNNNNNNNNNNNNNN...   NNNNNNNNNNNNNNNNNNNNNNNNNNNNNNNNNNNNNNNNNNNNNNNNNNNNNNNNNN",
"NNNNNNNNNNNNNN N     NN     NN     X NNNNNNNNNNNNNNNNNNNNNNNNNNNNNNN             NNNNNNNNNNNNNNNNNNNNNNNNNNNNNNNNNNNNNNNNNNNNNNN ...   NNNNNNNNNNNNNNNNNNNNNNNNNNNNNNNNNNNNNNNNNNNNNNNNNNNNNNNNN",
"NNNNNNNNNNNNN    NNNNN      NN     .oNNNNNNNNNNNNNNNNNNNNNNNNNNNNNN              NNNNNNNNNNNNNNNNNNNNNNNNNNNNNNNNNNNNNNNNNNNNNNN  ...   NNNNNNNNNNNNNNNNNNNNNNNNNNNNNNNNNNNNNNNNNNNNNNNNNNNNNNNN",
"NNNNNNNNNNNNN    NNNNN      NN      X.NNNNNNNNNNNNNNNNNNNNNNNNNNNNN              NNNNNNNNNNNNNNNNNNNNNNNNNNNNN NNNNNNNNNNNNNNNNNN .. .   NNNNNNNNNNNNNNNNNNNNNNNNNNNNNNNNNNNNNNNNNNNNNNNNNNNNNNN",
"NNNNNNNNNNNNN    NNNN       NN      .o NNNNNNNNNNNNNNNNNNNNNNNNNNNNNNN      NNNNNNNNNNNNNNNNNNNNNNNNNNNNNNNNNN NNNNNN NNNNNNNNNNN  X. .   NNNNNNNNNNNNNNNNNNNNNNNNNNNNNNNNNNNNNNNNNNNNNNNNNNNNNN",
"NNNNNNNNNNNNN    NNNN        N       X.NNNNNNNNNNNNNNNNNNNNNNNNNNNNNNNNNNNNNNNNNNNNNNNNNNNNNNNNNNNNNNNNNNNNNN NNNNN   NNNNNNNNNNN   .. .   NNNNNNNNNNNNNNNNNNNNNNNNNNNNNNNNNNNNNNNNNNNNNNNNNNNNN",
"NNNNNNNNNNNNN N NNNN         N       .X NNNNNNNNNNNNNNNNNNNNNNNNNNNNNNNNNNNNNNNNNNNNNNNNNNNNNNNNNNNNNNNNNNNNNNNNNNNN XNNNNNNNNNNNN  ... .   NNNNNNNNNNNNNNNNNNNNNNNNNNNNNNNNNNNNNNNNNNNNNNNNNNNN",
"NNNNNNNNNNNNN N NNNN         N        .XNNNNNNNNNNNNNNNNNNNNNNNNNNNNNNNNNNNNNNNNNNNNNNNNNNNNNNNNNNNNNNNNNNNNNNN  NNN  NNNNNNNNNNNN   X.. ..   NNNNNNNNNNNNNNNNNNNNNNNNNNNNNNNNNNNNNNNNNNNNNNNNNN",
"NNNNNNNNNNNNN N NNN          N        .X NNNNNNNNNNNNNNNNNNNNNNNNNNNNNNNNNNNNNNNNNNNNNNNNNNNNNNNNNNNNNNNNNNNNNN   NNN   NNNNNNNNNN   .X.  ..   NNNNNNNNNNNNNNNNNNNNNNNNNNNNNNNNNNNNNNNNNNNNNNNNN",
"NNNNNNNNNNNNN N NN           N         .oNNNNNNNNNNNNNNNNNNNNNNNNNNNNNNNNNNNNNNNNNNNNNNNNNNNNNNNNNNNNNNNNNNNNNN   NNNNN.NNNNNNNNNNN   .X.  ..   NNNNNNNNNNNNNNNNNNNNNNNNNNNNNNNNNNNNNNNNNNNNNNNN",
"NNNNNNNNNNNNN N NN                      X.NNNNNNNNNNNNNNNNNNNNNNNNNNNNNNNNNNNNNNNNNNNNNNNNNNNNNNNNNNNNNNNNNNNNNNNNNNNN NNNNNNNNNNNN    ...  ..   NNNNNNNNNNNNNNNNNNNNNNNNNNNNNNNNNNNNNNNNNNNNNNN",
"NNNNNNNNNNNN    N                       .o NNNNNNNNNNNNNNNNNNNNNNNNNNNNNNNNNNNNNNNNNNNNNNNNNNNNNNNNNNgjNNNNNNNNNNNNN NNNNNNNNNNNNNNN   ....  ..   NNNNNNNNNNNNNNNNNNNNNNNNNNNNNNNNNNNNNNNNNNNNNN",
"NNNNNNNNNNNN    N                        X.NNNNNNNNNNNNNNNNNNNNNNNNNNNNNNNNNNNNNNNNNNNNNNNNNNNNNggggggjjNNNNNNNNNN  NNNNNNNNNNNNNNNN    ....  ..   NNNNNNNNNNNNNNNNNNNNNNNNNNNNNNNNNNNNNNNNNNNNN",
"NNNNNNNNNNNN   .               N         .o NNNNNNNNNNNNNNNNNNNNNNNNNNNNNNNNNNNNNNNNNNNNNNNNNjjjjjjjjjjjNNNNNhhffffdNNNNNNNNNNNNNNNN    ....   ..   NNNNNNNNNNNNNNNNNNNNNNNNNNNNNNNNNNNNNNNNNNNN",
"NNNNNNNNNNNN   o             NNN             NNNNNNNNNNNNNNNNNNNNNNNNNNNNNNNNNNNNNNNNNNNNNNjjjgggggggggNNNNNNNfffffdNNNNNNNNNNNNNNNNN    ....   .X   NNNNNNNNNNNNNNNNNNNNNNNNNNNNNNNNNNNNNNNNNNN",
"NNNNNNNNNNNN                 NNN          . .NNNNNNNNNNNNNNNNNNNNNNNNNNNNNNNNNNNNNNNNNNNNjjjjjjgggggjNlkNNNNNNNffffdNNNNNNNNNNNNNNNNN     ....   .X NNNNNNNNNNNNNNNNNNNNNNNNNNNNNNNNNNNNNNNNNNNN",
"NNNNNNNNNNNN                 NNN             NNNNNNNNNNNNNNNNNNNNNNNNNNllllllllllll    jjjjjjjjjgg   NNgNNNNNNNfffff<NNNNNNNNNNNNNNNN     .....   .X NNNNNNNNNNNNNNNNNNNNNNNNNNNNNNNNNNNNNNNNNNN",
"NNNNNNNNNNNN                  gg       gg fd   NNNNNNNNNNNNNNNNNNNNNNNllllllllllllllll  jjjjjj      NNNgfNNNNNNNffffdNNNNNNNNNNNNNNNNN     .....   .XNNNNNNNNNNNNNNNNNNNNNNNNNNNNNNNNNNNNNNNNNNN",
"NNNNNNNNNNNN                 ggg   gggg      N  NNNNNNNNNNNNNNNNNNNNNNlllllllllllllllll j         NNNNNNgNNNNNNNfggfdNNNNNNNN  NNNNNNN     ......   NNNNNNNNNNNNNNNNNNNNNNNNNNNNNNNNNNNNNNNNNNNN",
"NNNNNNNNNNNN N               gggjjjgg    fgj   .NNNNNNNNNNNNNNNNNNNNNNNNlllllllllllll          NNNNNNNNNgfNNNNNNNggff<kNNNNNNN NNNNNNNN     ......NNNNNNNNNNNNNNNNNNNNNNNNNNNNNNNNNNNNNNNNNNNNNN",
"NNNNNNNNNNNNNN<<dffflllffffll jjjj     Nhzzd<    NNNNNNNNNNNNNNNNNfNNNNNNN                llNNNNNNNNNNNNggNNNNNNNgggflbNNN NNN  NNNNNNN      ...NNNNNNNNNNNNNNNNNNNNNNNNNNNNNNNNNNNNNNNNNNNNNNNN",
"NNNNNNNNNNNN        lllllllll       NgfNlzzd<  N  NNNNNNNNNNNNNNNfNNNNNNNNNNNN    NNNNxxzzllNNNNNNNNNNNNNgNNNNNNNNNNvvmNN  NNN  NNNNNNN      NNNNNNNNNNNNNNNNNNNNNNNNNNNNNNNNNNNNNNNNNNNNNNNNNNN",
"NNNNNNNNNNNN                   k-;;lNNgzNzzzs<   .NNNNNNNNNNNNNNNfNNNNNNNNNNNNkzvczzzzxxzzzllNNNNNNNNNNNNNNNNNNNNkzzcvM>NN  NNN NNNNNNNN  NNNNNNNNNNNNNNNNNNN  NNNNNNNNNNNNNNNNNNNNNNNNNNNNNNNNN",
"NNNNNNNNNNN  @.# xfNNffgfffdh%;123333NglNzzzz<N    NNNNNNNNNNNNNfNNNNNNNNNNNNNkkkclllzzzxxcxlNNNNNNNNNNNNNNNNNNNNNNzcvmgNN   NNNNNNNNNNNNNNNNNNNNNNNNNNNNNNNNNNNNNNNNNNNNNNNNNNNNNNNNNNNNNNNNNNN",
"NNNNNNNNNNN     klllfggclgff=;12355005NNzNzzz<f  N  NNNNNNNNNNNNfNNNNNNNNNNNNjggnvckllzzzzzjlkNNNNNNNNNNNNNNNNNNNNNzzcjhNNN  NNNNNNNNNNNNNNNNNNNNNNNNNNNNNNN   NNNNNNNNNNNNNNNNNNNNNNNNNNNNNNNNN",
"NNNNNNNNNNNN    klllflggggf%;;14q65wp85NzNzzzz,N   .NNNNNNNNNNNNgNNNNNNNNNNNNggcMMvckllllkhlllNNNNNNNNNNNNNNNNNNNNNNzzhMNNNN  NNNNNNNNNNNNNNNNNNNNNNNNNNNN    NNN  NNNNNNNNNNNNNNNNNNNNNNNNNNNNN",
"NNNNNNNNNNNNgghjkllNfgggggf-;;2eq53588wNlzNxzz<NN    NNNNNNNNNNNNNNNNNNNNNNNfggggxbckklkjhzllgNNNNNNNNNNNNNNlNNNNNNNzzvzgNNN   NNNNNNNNNNNNNNNNNNNNNNNNNN &NN NNNN NNNNNNNNNNNNNNNNNNNNNNNNNNNNN",
"NNNNNNNNNNNNgghjkllflggggff;;;12333355iNkzjxzzlNN  N  NNNNNNNNNNNNNNNNNNNNNNfggggghxkkjjhgzzlgNNNNNNNNNNNNNNNzNNNNNNNzzmbNNNN  NNNNNNNNNNNNNNNNNNNNNNNNNN NNNNNNN  NNNNNNNNNNNNNNNNNNNNNNNNNNNNN",
"NNNNNNNNNNNsfhjjklNggghggf$;;;12222336yNNzgzczf,NN   .NNNNNNNNNNNNNNNNNNNNNNfgggghhh<jjhggggzNNNNNNgNNNNNNNNNlNNNNNNNzcnlNNNNN  NNNNNNNNNNNNNNNNNNNNNNNNN  NNN+N  NNNNNNNNNNNNNNNNNNNNNNNNNNNNNN",
"NNNNNNNNNNNNfhjkklNggNgggf*;;;111122346gNlzgxgfs>NN    NN  NNNNNNNNNNNNNNNNjggggghhhjjhhgggNNjkllNNNNNNNNNNNNNzNNNNNNzcbMNNNNN  NNNNNNNNNNNNNNNNNNNNNNNNN  NN     NNNNNNNNNNNNNNNNNNNNNNNNNNNNNN",
"NNNNNNNNNNNNghjkllNgNNggggg-;;;;1111223gNlzggggdNNN  N        NNNNNNNNNNNNNkkgghhhhhjhgjjhhjkkkllgNNNNNNNNNNNNzNNNNNNNzvNNNNNNN NNNNNNNNNNNNNNNNNNNNNNNNNNNNNN N NNNNNNNNNNNNNNNNNNNNNNNNNNNNNNN",
"NNNNNNNNNNNNghjkhhNgNNggggg*---;;;1112lggNgggggl,NNN    @   .& NNNNNNNNNNNNlkkhhhhzzlllljhjjkkklllNNNNNNNNNNNNlzNNNNNNNNNNNNNNNNNNNNNNNNNNNNNNNNNNNNNNNNNNNNN NNNNNNNNNNNNNNNNNNNNNNNNNNNNNNNNNN",
"NNNNNNNNNNN<hjjkhNhghkgggggg*==--;;;1lNNgNNgggzl,NN  X    NN  NNNNNNNNzNNNNkNNNNNzzzzzzkjhjjkkklllNNNNNNNNNNNNNzNNNNNNNNNNNNNNNNNNNNNNNNNNNNNNNNNNNNNNNNNNNNN NNNNNNNNNNNNNNNNNNNNNNNNNNNNNNNNNN",
"NNNNNNNNNN<sdfjkhNgglhggggggN$%%*=-;fglNggNlzzlll        X NNNNNNNNNNNNNNNNNNNNNNzzzzzzkjghjkkklllNNNNNNNNNNNNNzzNNNNNNNNNNNNNNNNNNNNNNNNNNNNNNNNNNNNNNNNNNNNNNNNNNNNNNNNNNNNNNNNNNNNNNNNNNNNNNN",
"NNNNNNNNNN<sffNgNNghhlkjjjjhNNzxddffzfgNNklNllll<, .      o  NNNNNNNNlNNNNNNNNNNNzzzzzzkjghjkkkllllNNNNNNNNNNNNlzNNNNNNNNNNNNNNNNNNNNNNNNNNNNNNNNNNNNNNNNNNNNNNNNNNNNNNNNNNNNNNNNNNNNNNNNNNNNNNN",
"NNNNNNNNN,<dfgggNllhhjjjjjhgNNcbjhfffjkgNklNhlll<  ON   NN  NNNNNNNNNlNNNNNNNNNNzzzzzzlkjggjkkkklllNNNNNNNNNNNNNNNNNNNNNNNNNNNNNNNNNNNNNNNNNNNNNNNNNNNNddNNNNNNNNNNNNNNN:NNNNNNNNNNNNNNNNNNNNNNN",
"NNNNNNNNNdfhfNgNNllljjjjjjhNNNNdfgghhjjkNkklhlll<   NN   NN  XNNNNNNlzNNNNNNNNNNzzzzzzkjkgghjkkklllNNNNNNNNNNNNNNNNNNNNNNNNNNNNNNNNNNNNNNNNNNNNNNNNNNdddNNNNNNNNNNNNNsggfNNNNNNNNNNNNNNNNNNNNNNN",
"NNNNNNNNN<fhjjkkklljjjjlzzzjNNNNdfgghhjjgNklNhll<  NNN   NNN NNNNNNNlNNNNNNNNNNNzzzzzxxk<gghjkkkklllNNNNNNNNNNNNNNNNNNNNNNNNNNNNNNNNNNNNNNNNNNNNNNNddddNNNNNNNNNNNNNNhhhgdNNNN  NNNNNNNNNNNNNNNN",
"NNNNNNNNN<ghjjkkkhlljlllllzNNNNNNsfgghhjkNNlljzxlbNNNNN  NNNNNNNNNNNlNNNNNNNNNNNzzzzxxxvNfgghjjkkkNNNNNNNNNNNNNNNNNNNjjggfNNNNNNNNNNNNNNNNNNNNNNNdddddNNNNNNNNNNNNNNNNhhhgdNNNN  NNNNNNNNNNNNNNN",
"NNNNNNNNNkghjjkkhhlljlllllhNNNNNNNsffghjjjNklNNxmbNNNNN NNNNNNNNNNNllNNNNNNNNNNlzzzzzzxcNNfggNNNNNNNNNNNNNNNNNNNNNNNkgggggdNNNNNNNNNNNNNNNNNNNNdddddN  NNNNNNNlNNNNNNNNhhhg<NN..  NNNNNNNNNNNNNN",
"NNNNNNNNNdghjjjkhkljlllllzNNNNNNNNNsffghjjNNlzNzvbNNNNNNNNNNNNNNNNNllNNNNNNNNNNllzzzzzNNNNNNNNNNNNNNNNNNNNNNNlNNNNNNNgggggf,NNNNNNNNNNNNNNNNNNdddd    NNNNNNNNNlkNNNNNNmvhgf Nx.   NNNNNNNNNNNNN",
"NNNNNNNNddghhjkhjkljllllzNNNNNNNNNNNsffghjkNllNNcbNNNNNNNNNNNNNNNNNlNNNNNNNNNNNNNNNNNNNNNNNNNNNNNNNNNNNNNNNNNlNNNNNNNgggggfsNNNNNNNNNNNNNNNNdddd    NNNNNNNNNNNNlkNNNdkmMdh  .NN    NNNNNNNNNNNN",
"NNNNNNNNdfhjhjkhkkjlllllNNNNNNNNNNNNNsdfghjNblzjzvNNNNNNNNNNNNNNNNNNNNNNNNNNNNNNNNNNNNNNNNNNNNNNNNNNNNNNNNNNNggNNNNNNNgggggdNNNNNNNNNNNNN  ddd    NNNNNNNNNNNNNNNlkNkzkjMbs  X.NN    NNNNNNNNNNN",
"NNNNNNNN,fhhhjhjkljllllxNNNNNNNNNNNNNNsdfghjNkljgNNNNNNNNNNNNNNNNNNNNNNNNNNNNNNNNNNNNNNNNNNNNNNNNNNNNNNNNNNNNNgNNNNNNNgggggfNNNNNNNNddddd  d   NNNNNNNNNNNNNNNNNNNklkklkjMgh  X.NN     NNNNNNNNN",
"NNNNNNNNgfhhhjkkkkklllzNNNNNNNNNNNNNNNNsddghNjhjgNNNNNNNNNNNNNNNNNNNNNNNNNNNNNNNNNNNNNNNNNNNNNNNNNNNNNNNNNNNNNggNNNNNNNgghgfNNNNddddddddd    NNNNNNNNNNNNNNNNNNNNNNkkkkkjjmfh     N ..  NNNNNNNN",
"NNNNNNNNNfhhjjNkkNkkklNNNNNNNNNNNNNNNNNN,<chNjjjgsNNNNNNNNNNNNNNNNNNNNNNNNNNNNNNNNNNNNNNNNNNNNNN%*=xzzNNNNNNNNNgNNNNNNNghhhg<NNNggggg     NNNNNNNNNNNNNNNNNNNNNN%*=lkkkkkjhbdNN    NN.X  NNNNNNN",
"NNNNNNNNNfhhgNjkNkkklNNNNNNNNNNNNNNNNNNNkdcxNjkjzvNNNNNNNNNNNNNNNNNNNNNNNNNNNNNNNNNNNNNNNNNNNN=;12331zNNNNNNNNNggNNNNNNNhhhgsNvN       NNNNNNNNNNNNNNNNNNNNNNN=;12331kkkkkjMbsNN    NN..  NNNNNN",
"NNNNNNNNNfghjkjkNkkl<NNNNNNNNNNNNNNNNNNNN,v,sgkjzNNNNNNNNNNNNNNNNNNNNNNNNNNNNNNNNNNNNNNNNNNN*-;2335655zNNNNNNNNNgNNNNNNNhhhgdMbN   NNNNNNNNNNNNNNNjzzlNNNNNN*-;2335655kkkkjjMvNNN    NN    NNNNN",
"NNNNNNNN<dggNxhzjjklNNNNNNNNNNNNNNNNNNNNNdsdfhNkxNNNNNNNNNNNNNNNNNNNNNNNNNNNNNNNNNNNNNNNNNNN;;;2655rp73NNNNNNNNNggNNNNNNhhhllbbNNNNNNNNNNNNNNNNNxxzzzzlNNNNN;;;2655rp73NkkkjhbfNNN  ..NN    NNNN",
"NNNNNNNN,dgxNxkkjgfNNNNNNNNNNNNNNNNNNNNNNN>dfNklNNNNNNNNNNNNNNNNNNNNNNNNNNNNNNNNNNNNNNNNNNN=;;2te656w89zNNNNNNNNNhNNNNNNNjlllbmNNNNNNNNNNNNNNNNcxxzzzzllNNN=;;2te656w89NNkkkjhNNNNN  X.NN    NNN",
"NNNNNNNNNzxzNjkjhNNNNNNNNNNNNNNNNNNNNNNNNNN<shldNNNNNNNNNNNNNNNNNNNNkkkNNNNNNNNNNNNNNNNNNNN;;;14333355ygNNNNNNNNNhNNNNNNNNkllszNNNNNNNNNNjllkkkkjjjhfzzllNN;;;14333355yNNNxkjNNNNNNN  .. N   NNN",
"NNNNNNNNNffxNkkjhkNNNNNNNNNNNNNNNNNNNNNNNNNNNNNNNNNNNNNNNNNNNNNNNNNkkkkkkkjjNNNNNNNNNNNNNN%;;;12223336uhgNNNNNNNNzNNNNNNNNNlllzbNNNNNNNNkkkMjjjjjjjgzzzzlN%;;;12223336uNNNzxNNNNNNNNN     NNNNNN",
"NNNNNNNNNsfddkgjlNNNNNNNNNNNNNNNNNNNNNNNNNNNNNNNNNNNNNNNNNNNNNNNNNNkkkkkkjjjhNNNNNNNNNNNNN*;;;11122234qhzNNNNNNNNNNNNNNNNNNkllMbNNNNNNNkjjzcvjjjjjhxxzzzll*;;;11122234qNNNNNNNNNNNNNNNN   NNNNNN",
"NNNNNNNNNNdfflhjNNNNNNNNNNNNNNNNNNNNNNNNNNNNNNNNNNNNNNNNNNNNNNNNNNllllkjjjjjgNNNNNNNNNNNNNN-;;;11112223hhhNNNNNNNNNklNNNNNNNllmbNNNNNNNjcckkzzjjjjkllxzzzll-;;;11112223NNNNNNNNNNNNNNNNN NNNNNNN",
"NNNNNNNNNNsdgNjlNNNNNNNNNNNNNNNNNNNNNNNNNNNNNNNNNNNNNNNNNNNNNNNNNNghhjjjjjjhNNNNNNNNNNNNNNN=-;;;;;1112vcxhNNNNNNNNNklNNNNNNNNgmjNNNNNNNjjlxvjkvjkkkklxzzzzl=-;;;;;1112NNNNNNNNNNNNNNNNNNNNNNNNNN",
"NNNNNNNNNNNdfx,NNNNNNNNNNNNNNNNNNNNNNNNNNNNNNNNNNNNNNNNNNNNNNNNNNNghhjjjjjhNNNNNNNNNNNNNNNNN*==-;;;;1%bhjkkNNNNNNNNNklNNNNNNNghjNNNNNNNjjjjjjkjjkkkkklxxzzzN*==-;;;;1%NNNNNNNNNNNNNNNNNNNNNNNNNN",
"NNNNNNNNNNNNNNNNNNNNNNNNNNNNNNNNNNNNNNNNNNNNNNNNNNNNNNNNNNNNNNNNNghhjjjjjhgNNNNNNNNNNNNNNNNNN%**==-;gghhjjkNNNNNNNNNklNNNNNNNNcbNNNNNNNfkllllljjjjkkkklxxNNNN%**==-;NNNNNNNNNNNNNNNNNNNNNNNNNNNN",
"NNNNNNNNNNNNNNNNNNNNNNNNNNNNNNNNNNNNNNNNNNNNNNNNNNNNNNNNNNNNNNNNNghhjjjjjgNNNNNNNgNNNNNNNNNNNNN$%%zdfgghhjkNNNNNNNNNNllNNNNNNNxvNNNNNNzzzzzzzzhjjjjkkkllNNNNNNN$%%NNNNNNNNNNNNNNNNNNNNNNNNNNNNNN",
"NNNNNNNNNNNNNNNNNNNNNNNNNNNNNNNNNNNNNNNNNNNNNNNNNNNNNNNNNNNNNNNNghhjjjjjhNNNNNNNNNNNNNNNNNNNNNNNNNN:dfgghhjkNNNNNNNNNklzNNNNNNzNNNNNNzzzzzzzzzhhjjjjjkklNNNNNNNNNNNNNNNNNNNNNNNNNNNNNNNNNNNNNNNN"
};
