/* XPM */
static char *magick[] = {
/* columns rows colors chars-per-pixel */
"192 64 64 1",
"  c Gray5",
". c #131313",
"X c #16371d",
"o c #1a3422",
"O c #1e3b28",
"+ c #26392c",
"@ c #18441f",
"# c #1a4c23",
"$ c #1d5326",
"% c #1e5728",
"& c #1f5929",
"* c #22432d",
"= c #254a32",
"- c #205c2b",
"; c #215f2c",
": c #2a5338",
"> c #2f5c3e",
", c #22622d",
"< c #23652f",
"1 c #246730",
"2 c #256931",
"3 c #266d33",
"4 c #277034",
"5 c #287235",
"6 c #297637",
"7 c #2b7b3a",
"8 c #376546",
"9 c #347a40",
"0 c #77560d",
"q c #555d59",
"w c #467355",
"e c #696c6c",
"r c #777a7a",
"t c #2e833d",
"y c #30863f",
"u c #328b42",
"i c #378845",
"p c #3b934a",
"a c #458f52",
"s c #459a54",
"d c #4ca45c",
"f c #56aa65",
"g c #5fa46e",
"h c #5cb46b",
"j c #7c8683",
"k c #70c980",
"l c #920000",
"z c #b00000",
"x c #927418",
"c c #cf0606",
"v c #ed0a0a",
"b c #fb2e2e",
"n c Magenta",
"m c #a89c14",
"M c #cab819",
"N c #d8cb22",
"B c #e4db47",
"V c #868989",
"C c #969898",
"Z c #a7a9a9",
"A c #b7b9b9",
"S c #c9cbcb",
"D c #eef1f1",
"F c None",
/* pixels */
"FFFFFFFFFFFFFFFFFFFFFFFFFFFFFFFFFFFFFFFFFFFFFFFFFFFFFFFFFFFFFFFFFFFFFFFFFFFFFFFFFFFFFFFFFFFFFFFFFFFFFFFFFFFFFFFFFFFFFFFFFFFFFFFFFFFFFFFFFFFFFFFFFFFFFFFFFFFFFFFFFFFFFFFFFFFFFFFFFFFFFFFFFFFFFFFF",
"FFFFFFFFFFFFFFFFFFFFFFFFFFFFFFFFFFFFFFFFFFo>FFFFFFFFFFFFFFFFFFFFFFFFFFFFFFFFFFFFFFFFFFFFFFFFFFFFFFFFFFFFFFFFFFFFFFFFFFFFFFFFFFFFFFFFFFFFFFFFFFFFFFFFFFFFFFFFFFFFFFFFFFFFFFFFFFFFFFFFFFFFFFFFFFFF",
"FFFFFFFFFFFFFFFFFFFFFFFFFFFFFFFFFFFFFFFFO:>>FFFFFFFFFFFFFFFFFFFFFFFFFFFFFFFFFFFFFFFFFFFFFFFFFFFFFFFFFFFFFFFFFFFFFFFFFFFFFFFFFFFFFFFFFFFFFFFFFFFFFFFFFFFFFFFFFFFFFFFFFFFFFFFFFFFFFFFFFFFFFFFFFFFF",
"FFFFFFFFFFFFF2FFFFFFFFFFFFFFFFFFFFFFFFF:>8FFFFFFFFFFFFFFFFFFFFFFFFFFFFFFFFFFFFFFFFFFFFFFFFFFFFFFFFFFFFFFFFFFFFFFFFFFFFFFFFFFFFFFFFFFFFFFFFFFFFFFFFFFFFFFFFFFFFFFFFFFFFFFFFFFFFFFFFFFFFFFFFFFFFFF",
"FFFFFFFFFFFFF,tFFFFFFFFFFFFFFFFFFFFFF*:>wFFFFFFFFFFFFFFFFFFFFFFFFFFFFFFFFFFFFFFFFFFFFFFFFFFFFFFFFFFFFFFFFFFFFFFFFFFFFFFFFFFFFFFFFFFFFFFFFFFFFFFFFFFFFFFFFFFFFFFFFFFFFFFFFFFFFFFFFFFFFFFFFFFFFFFF",
"FFFFFFFFFFFFFFpFFFFFFFFFFFFFFFFFFFFF=>8>FFFFFFFFFFFFFFFFFFFFFFFFFFFFFFFFFFFFFFFFFFFFFFFFFFFFFFFFFFFFFFFFFFFFFFFFFFFFFFFFFFFFFFFFFFFFFFFFFFFFFFFFFFFFFFFFFFFFFFFFFFFFFFFFFFFFFFFFFFFFFFFFFFFFFFFF",
"FFFFFFFFFFFFFFu#FFFFFFFFFFFFFFFFFFO:>Z>7FFFFFFFFFFFFFFFFFFFFFFFFFFFFFFFFFFFFFFFFFFFFFFFFFFFFFFFFFFFFFFFFFFFFFFFFFFFFFFFFFFFFFFFFFFFFFFFFFFFFFFFFFFFFFFFFFFFFFFFFFFFFFFFFFFFFFFFFFFFFFFFFFFFFFFFF",
"FFFFFFFFFFFFFFtpFFFFFFFFFFFFFFFFF*>8rZ7FFFFFFFFFFFFFFFFFFFFFFFFFFFFFFFFFFFFFFFFFFFFFFFFFFFFFFFFFFFFFFFFFFFFFFFFFFFFFFFFFFFFFFFFFFFFFFFFFFFFFFFFFFFFFFFFFFFFFFFFFFFFFFFFFFFFFFFFFFFFFFFFFFFFFFFFF",
"FFFFFFFFFFFFFFtuFFFFFFFFFFFFFFFF::weZA7FFFFFFFFFFFFFFFFFFFFFFFFFFFFFFFFFFFFFFFFFFFFFFFFFFFFFFFFFFFFFFFFFFFFFFFFFFFFFFFFFFFFFFFFFFFFFFFFFFFFFFFFFFFFFFFFFFFFFFFFFFFFFFFFFFFFFFFFFFFFFFFFFFFFFFFFF",
"FFFFFFFFFFFFFF7pyFFFFFFFFFFFFFFF*:&VDAF..FFFFFFFFFFFFFFFFFFFFFFFFFFFFFFFFFFFFFFFFFFFFFFFFFFFFFFFFFFFFFFFFFFFFFFFFFFFFFFFFFFFFFFFFFFFFFFFFFFFFFFFFFFFFFFFFFFFFFFFFFFFFFFFFFFFFFFFFFFFFFFFFFFFFFFF",
"FFFFFFFFFFFFFF1y2FFFFFFFFFFFF$&111<py7F..FFFFFFFFFFFFFFFFFFFFFFFFFFFFFFFFFFFFFFFFFFFFFFFFFFFFFFFFFFFFFFFFFFFFFFFFFFFFFFFFFFFFFFFFFFFFFFFFFFFFFFFFFFFFFFFFFFFFFFFFFFFFFFFFFFFFFFFFFFFFFFFFFFFFFFF",
"FFFFFFFFFFFFFF,<<FFFFFFFFFFF&VV,,,- .yFFFFFFFFFFFFFFFFFFFFFFFFFFFFFFFFFFFFFFFFFFFFFFFFFFFFFFFFFFFFFFFFFFFFFFFFFFFFFFFFFFFFFFFFFFFFFFFFFFFFFFFFFFFFFFFFFFFFFFFFFFFFFFFFFFFFFFFFFFFFFFFFFFFFFFFFFF",
"FFFFFFFFFFFFFF;1<&FFFFFFF>*%-eCV67..7eCFFFFFFFFFFFFFFFFFFFFFFFFFFFFFFFFFFFFFFFFFFFFFFFFFFFFFFFFFFFFFFFFFFFFFFFFFFFFFFFFFFFFFFFFFFFFFFFFFFFFFFFFFFFFFFFFFFFFFFFFFFFFFFFFFFFFFFFFFFFFFFFFFFFFFFFFF",
"FFFFFFFFFFFFFFF2<1FFFF*=*Oo&;eV77 .y&CASFFFFFFFFFFFFFFFFFFFFFFFFFFFFFFFFFFFFFFFFFFFFFFFFFFFFFFFFFFFFFFFFFFFFFFFFFFFFFFFFFFFFFFFFFFFFFFFFFFFFFFFFFFFFFFFFFFFFFFFFFFFFFFFFFFFFFFFFFFFFFFFFFFFFFFFF",
"FFFFFFFFFFFFFFF3<<FO*==*o#$-;,947trhfCSDSFFFFFFFFFFFFFFFFFFFFFFFFFFFFFFFFFFFFFFFFFFFFFFFFFFF2FFFFFFFFFFFFFFFFFFFFFFFFFFFFFFFFFFFFFFFFFFFFFFFFFFFFFFFFFFFFFFFFFFFFFFFFFFFFFFFFFFFFFFFFFFFFFFFFFFF",
"FFFFFFFFFFFFFFF21*:>**o**o%-,<263VASpCSC.FFFFFFFFFFFFFFFFFFFFFFFFFFFFFFFFFFFFFFFFFFFFFFFFFFF7FFFFFFFFFFFFFFFFFFFFFFFFFFFFFFFFFFFFFFFFFFFFFFFFFFFFFFFFFFFFFFFFFFFFFFFFFFFFFFFFFFFFFFFFFFFFFFFFFFF",
"FFFFFFFFFFFFFFF*:>>*ooO#oo%;,123aCSSSCA.+FFFFFFFFFFFFFFFFFFFFFFFFFFFFFFFFFFFFFFFFFFFFFFFFFF;7FFFFFFFFFFFFFFFFFFFFFFFFFFFFFFFFFFFFFFFFFFFFFFFFFFFFFFFFFFFFFFFFFFFFFFFFFFFFFFFFFFFFFFFFFFFFFFFFFFF",
"FFFFFFFFFFFFF*>>>:o;;o#o#o%;<229dCAS.CZ.oFFFFFFFFFFFFFFFFFFFFFFFFFFFFFFFFFFFFFFFFFFFFFFFFFF13FFFFFFFFFFFFFFFFFFFFFFFFFF:*FFFFFFFFFFFFFFFFFFFFFFFFFFFFFFFFFFFFFFFFFFFFFFFFFFFFFFFFFFFFFFFFFFFFFFF",
"FFFFFFFFFFFO>>>=*;;:o#O#o@&;<1259CCC.tjjuFFFFFFFFFFFFFFFFFFFFFFFFFFFFFFFFFFFFFFFFFFFFFFFFFF13FFFFFFFFFFFFFFFFFFFFFFFFo:8FFFFFFFFFFFFFFFFFFFFFFFFFFFFFFFFFFFFFFFFFFFFFFFFFFFFFFFFFFFFFFFFFFFFFFFF",
"FFFFFFFFFF:>:=O;;;O##O##oF&,<1234VCV.sfy7FFFFFFFFFFFFFFFFFFFFFFFFFFFFFFFFFFFFFFFFFFFFFFFFF,14FFFFFFFFFFFFFFFFFFFFFFFO:>FFFFFFFFFFFFFFFFFFFFFFFFFFFFFFFFFFFFFFFFFFFFFFFFFFFFFFFFFFFFFFFFFFFFFFFFF",
"FFFFFFFF:>=OFF;;;######OoF%;,<143<re yt631FFFFFFFFFFFFFFFFFFFFFFFFFFFFFFFFFFFFFFFFFFFFFFFF,6yFFFFFFFFFFFFFFFFFFFFFFO:>FFFFFFFFFFFFFFFFFFFFFFFFFFFFFFFFFFFFFFFFFFFFFFFFFFFFFFFFFFFFFFFFFFFFFFFFFF",
"FFFFFFF=*FFFF#;;#2O##%*ooF#%&;<267,pt763,22,FFFFFFFFFFFFFFFFFFFFFFFFFFFFFFFFFFFFFFFFFFFFF%-6FFFFFFFFFFFFFFFFFFFFFFO:>>FFFFFFFFFFFFFFFFFFFFFFFFFFFFFFFFFFFFFFFFFFFFFFFFFFFFFFFFFFFFFFFFFFFFFFFFFF",
"FFFFFFFFFFFFF#;F&<2#2<Ooll@###-<67y7732,56675FFFFFFFFFFFFFFFFFFFFFFFFFFFFFFFFFFFFFFFFFFFF,37FFFFFFFFFFFFFFFFFFFFFO:>>FFFFFFFFFFFFFFFFFFFFFFFFFFFFFFFFFFFFFFFFFFFFFFFFFFFFFFFFFFFFFFFFFFFFFFFFFFF",
"FFFFFFFFFFFFF;FFF,255OOolzzz1,@-1t2541367ttttFFFFFFFFFFFFFFFFFFFFFFFFFFFFFFFFFFFFFFFFFFFF,3tFFFFFFFFFFFFFFFFFFF$O:>>FFFFFFFFFFFFFFFFFFFFFFFFFFFFFFFFFFFFFFFFFFFFFFFFFFFFFFFFFFFFFFFFFFFO:FFFFFFF",
"FFFFFFFFFFFFFFFFF;12&*olzzzz21;z,1<<1467tyyyyFFFFFFFFFFFFFFFFFFFFFFFFFFFFFFFFFFFFFFFFFFF&;4iFFFFFFFFFFFFFFFFFFoOj>8FFFFFFFFFFFFFFFFFFFFFFFFFFFFFFFFFFFFFFFFFFFFFFFFFFFFFFFFFFFFFFFFFFF*:FFFFFFFF",
"FFFFFFFFFFFFFFFFF-$&-O-zzzzzzzzl@;<<167tyuhppFFFFFFFFFFFFFFFFFFFFFFFFFFFFFFFFFFFFFFFFFFF,;5fFFFFFFFFFFFFFFFFFoOjZ8FFFFFFFFFFFFFFFFFFFFFFFF,;FFFFFFFFFFFFFFFFFFFFFFFFFFFFFFFFFFFFFFFFF=>FFFFFFFFF",
"FFFFFFFFFFFFFFFFF$&-;;;zzzzzzzzlc-,137ssyyufyFFFFFFFFFFFFFFFFFFFFFFFFFFFFFFFFFFFFF,tuFFF-;7uyFFFFFFFFFFF--@oo%jAAFFFFFFFFFFFFFFFFFFFFFFFFFF17FFFFFFFFFFFFFFFFFFFFFFFFFFFFFFFFFFFFFFF=>8FFFFFFFFF",
"FFFFFFFFFFFFFFFF$%-;$-;,$zzzzzzcc@;<26t7777ftFFFFFFFFFFFFFFFFFFFFFFFFFFFFFFFFFFFF&2tuFF#,177yFFFFFFFFF%;1464;2ACFFFFFFFFFFFFFFFFFFFFFFFFFFFF77FFFFFFFFFFFFFFFFFFFFFFFFFFFFFFFFFFFFF=>wFFFFFFFFFF",
"FFFFFFFFFFFFFFFF%-;,&,11<%zzzzcvbb$,13445566FFFFFFFFFFFFFFFFFFFFFFFFFFFFFFFFFFFFF,465@F$<27y4FFFFFFF#-;,367777tuFF .FFFFFFFFFFFFFFFFFFFFFFFF-77FFFFFFFFFFFFFFFFFFFFFFFFFFFFFFFFFFF=>wFFFFFFFFFFF",
"FFFFFFFFFFFFFFF#&-,<%,122<-@zzzvvz-$--;<136-,FFFFFFFFFFFFFFFFFFFFFFFFFFFFFFFFFFF$<<--77-<22<5&FFFFFF&;,<eZ7tt-&7FF..FFFFFFFFFFFFFFFFFFFFFFFFF277FFFFFFFFFFFFFFFFFFFFFFFFFFFFFFF$$=>wFFFFFFFFFFFF",
"FFFFFFFFFFFFFFF$-;,<1;<1221,@zzvcc;y@#$&-#6<353FF@#$FFFFFFFFFFFFFFFFFFFFFF<6FFFF&<;%257;<22,&#$<;FF$-;,eeSy2<,&7VFFFFFFFFFFFFFFFFFFFFFFFFFFFFF277FFFFFFFFFFFFFFFFFFFFFFFFFFFFFoo=>wFFFFFFFFFFFFF",
"FFFFFFFFFFFFFFF$-,,<12#,<121,#czzcxyeeFF$,;<26766667ytFFFFFFFFFFFFFFFFFFF,i-@FFF-;&-12#;<22<--&%44O%oO*;eV4ty...ASFFFFFFFFFFFFFFFFFFFFFFFFFFFFF677FFFFFFFFFFFFFFFFFFFFFFFFFFFFO=>wFFFFFFFFFFFFFF",
"FFFFFFF%1&FFFFF$-,<<1225#,<<<,;#zzNuFFFFF@#;117t<<246sDFFFFFFFFFFFFFFFFF-22%#FFF%&$#,%-;;,,,,,;-o=:>w**2#-iy ..ZSDFFFFFFFFFFFFFFFFFFFFFFFFFFFFF,6775yFFFFFFFFFFFFFFFFFFFFFFF$o*>wFFFFFFFFFFFFFFF",
"FFFFFFF<5,%FFFF$-,<<1224ia@;,<<34,BuFFFFFFFF$<2,<55FFFFFFFFFFFFFFFFFFFFF,2,$-$@$2$#4$&;,,<<<<O:>>w8:oo126idVAA6CASSFFFFFFFFFFFFFFFFFFFFFFFFFFFFF1677#yFFFFFFFFFFFFFFFFFFFFOOOOwwFFFFFFFFFFFFFFFF",
"FFFFFFF2f<;---$@-;<<12357iyt-,<<6t7MFFFFFFFF#,6@,4AFFFFFFFFFFFFFFFFFFFF$,,&;2<-@2;5y&;,,<<O:>>8>:=o&;<125a7CSDSCZ+ FFFFFFFFFFFFFFFFFFFFFFFFFFFFFF161;#FFFFFFFFFFFFFFFFFFF$oO**wFFFFFFFFFFFFFFFFF",
"FFFFFFF19%,,<$;;&;,<12246777<#;<9;;42FFFFFFFF<tyF$4AFFFFFFFFFFFFFFFFFFF%,-%2221-@y6$-,,<*>>8:=*ozz#-;<1223VCZSSVj.FFFFFFFFFFFFFFFFFFFFFFFFFFFFFFF&22<;#5FFF@#@FFFFFFFFFFOO**OFFFFFFFFFFFFFFFFFFF",
"FFFFFFF13-,<2-,;@-,<<123566<,;@,2,<366<44567F,ZFFFFeFFFFFFFFFFFFFFFFFFF%-%-<2221$$5&;O:>::=O11zzzz#%;,<122VCZV+er FFFFFFFFFFFFFFFFFFFFFFFF$3FFFF#,;21,;-$%%%%$$<-FFFFOO**OoFFFFFFFFFFFFFFFFFFFFF",
"FFFFFFF<2-;,2,;;;$;,<11241<,,;xx$%<157t169hyDFCFFFFFFFFFFFFFFFFFFFFFFFF1$$&;<2a-,<;-8:Oo222221zzzzz#%-,<21jVC..uy6FFFFFFFFFFFFFFFFFFFFFFF&5<@FFF$;-,1<,%&--;;-&%43OO*OojjFFFFFFFFFFFFFFFFFFFFFFF",
"FFFFFFF;1<#$&;;-;,$-,<<<<<,;;;MMMM@$17,22#$$qeVFFFFFFFFFFFFFFFFFFFFFFF;2;$$-&<-,21<-,<1222#&;,$zzzzz@#&,<<;ee ht761FFFFFFFFFFFFFFFFFFFFFF<4-#FFF$-%$<@&-;;,,,,;-%o::>gjjjF---FFFFFFFFFFFFFFFFFFF",
"FFFFFFF%<,,a%#&--,2#&;;;;;;--mmmMMF$,4;<5tFFFFFFFFFFFFFFFFFFFFFFFFFFF%11;&$&F#;1221-,<1223%,11<;@zzz,9#-,356uytt6545FFFFFFFFFFFFFFFFFFFF-1<%%#FF<$$%@&-;,,<<<,*:>>w>:*4<-----13;FFFFFFFFFFFFFFFF",
"FFFFFFFF;;;9<$@#$-11@$%&&&&,1mmmMFF#<t#;2D#FFFFFFFFFFFFFFFFFFFFFFFFFF,2;,&FFFF-<111;,<1223%,111<,#zzl$l#;36ptt7747777FFFFFFFFFFFFFFFFFF#,<-&1<-@2,$y%-;,<<<*:>>w>:*ozz6%#;-<47765FFFFFFFFFFFFFFF",
"FFFFFFFF21-<<,FFX#---&@@#$$&-mmFFFFF1yuFFqAFFFFFFFFFFFFFFFFFFFFFFFFFF<,&$-FFFF$,<11-,<12223-,<111,&lllzF%26677667tttt44567t7FFFFFFFFFFF#,;#<221;@;4y-;,<o:>88:=*ozzz-&%-,<<367tt74;rrjVCFFFFFFFF",
"FFFFFFF#21;<6ypFF;3###&FFFFFFFFFFFFFFZFFFFFFFFFFFFFFFFFFFFFFFFFFFFFFr&%FFFFFFFF&,<<%;<<12223#&,<1<,;-@zFF;13567ttypuyt%3367pDFFFFFFFFFF$-&#<2221-#4$;,*>>>:=O1zzzzz<,$&;,<1467tyt75CZVrFFFFFFFFF",
"FFFFFFF%3<;yu7pFFrVFeFFFFFFFFFFFFFFFFCFFFFFFFFFFFFFFFFFFFFFFFFFFFFFFqFFFFFFFFFFF&;<#;,<1122221@#;,,<,;-#F-<247ttypkpp,,44FFFFFFFFFFFFFF,%$%-<23&;,;%*>:Oo22221zzzzz11%-,<<226yyuhu4trFFFFFFFFFFF",
"FFFFFFF-4<ptf<6FFrFFFFFFFFFFFFFFFFFFFFFFFFFFFFFFFFFFFFFFFFFFFFFFFFFFFFFFFFFFFFFFF-,1-,<<11111<;-&@-,<<12%#,24ihpyusu4$,3yFFFFFFFFFFFFF%2<#&&&<&;11<&;<<1223&-$Xzzzzz#&;,<12426tukdu-FFFFFFFFFFFF",
"FFFFFFF;3tp6dFFFFVFFFFFFFFFFFFFFFFFFFFFFFFFFFFFFFFFFFFFFFFFFFFFFFFFFFFFFFFFFFFFFF#-<#-;,<<<<,,;-&%l$;<7;,,;<26y777ttttF-5AFFFFFFFFFFFF<2;-,%F#-<221&,<1222$,<<-@zzzz$-;,<1232rrudsppFFFFFFFFFFFF",
"FFFFFFFF17#eFFFFFFFFFFFFFFFFFFFFFFFFFFFFFFFFFFFFFFFFFFFFFFFFFFFFFFFFFFFFFFFFFFFFFF#-;$&;;,,;;----xmc@,1;<257<3445yy#ZFFFFqFFFFFFFFFFF&2<;&#FFF&<121-,<12225,221&zzzz#-,<<2231eesuus67FF .FFFFFFF",
"FFFFFFFFr2FrFFFFFFFFFFFFFFFFFFFFFFFFFFFFFFFFFFFFFFFFFFFFFFFFFFFFFFFFFFFFFFFFFFFFFFF#$$$&---&&%%%%xmMFF$X;1<6;<&,,2eCCFFFFFFFFFFFFFFFF<1-$%FFFF#,<11%;<11223;1331$zzll$;,<12231,ttu44<FF..FFFFFFF",
"FFFFFFFFjFFFFFFFFFFFFFFFFFFFFFFFFFFFFFFFFFFFFFFFFFFFFFFFFFFFFFFFFFFFFFFFFFFFFFFFFFFFFFF#$$%$$$$$xmmFFFFFF$&2,<47&2FFFFFFFFFFFFFFFFFFF--&FFFFFFF%,<<$;,<1222#,243<#lllX$;,11356766;23,FF FFFFFFFF",
"FFFFFFFFFFFFFFFFFFFFFFFFFFFFFFFFFFFFFFFFFFFFFFFFFFFFFFFFFFFFFFFFFFFFFFFFFFFFFFFFFFFFFFFFX######xm0FFFFFFF#,7F;2uCFFFFFFFFFFFFFFFFFFFrqFFFFFFFFFF&;<@;,<11222@,253,@lllF%;<124417uy ..FFFFFFFFFFF",
"FFFFFFFFFFFFFFFFFFFFFFFFFFFFFFFFFFFFFFFFFFFFFFFFFFFFFFFFFFFFFFFFFFFFFFFFFFFFFFFFFFFFFFFFFFF@@#xFFFFFFFFFFF1tuFF@SFFFFFFFFFFFFFFFFFFFFFFFFFFFFFFFF&,<&;<<11211X,152;llzF@&;,,-%2tt...FFFFFFFFFFFF",
"FFFFFFFFFFFFFFFFFFFFFFFFFFFFFFFFFFFFFFFFFFFFFFFFFFFFFFFFFFFFFFFFFFFFFFFFFFFFFFFFFFFFFFFFFFFFFFFFFFFFFFFFFF@CFFFFFAFFFFFFFFFFFFFFFFFFFFFFFFFFFFFFFX-<#-;,<<<<<,;;122-zMFF$&-&$,<,5u7FFFFFFFFFFFFF",
"FFFFFFFFFFFFFFFFFFFFFFFFFFFFFFFFFFFFFFFFFFFFFFFFFFFFFFFFFFFFFFFFFFFFFFFFFFFFFFFFFFFFFFFFFFFFFFFFFFFFFFFFFFFVFFFFFFFFFFFFFFFFFFFFFFFFFFFFFFFFFFFFFF#;;#&;,,,,;;--%121;XFF#&%$##$%2ut6FFFFFFFFFFFF",
"FFFFFFFFFFFFFFFFFFFFFFFFFFFFFFFFFFFFFFFFFFFFFFFFFFFFFFFFFFFFFFFFFFFFFFFFFFFFFFFFFFFFFFFFFFFFFFFFFFFFFFFFFFFFFFFFFFFFFFFFFFFFFFFFFFFFFFFFFFFFFFFFFFF#$$$&----&&&&%-<21,@FF%$$&tpkhuyt7-<&FFFFFFFF",
"FFFFFFFFFFFFFFFFFFFFFFFFFFFFFFFFFFFFFFFFFFFFFFFFFFFFFFFFFFFFFFFFFFFFFFFFFFFFFFFFFFFFFFFFFFFFFFFFFFFFFFFFFFFFFFFFFFFFFFFFFFFFFFFFFFFFFFFFFFFFFFFFFFFFFFF#$%%%$$$$xx;121,@F-37ttssuyuyy6ittt4FFFFF",
"FFFFFFFFFFFFFFFFFFFFFFFFFFFFFFFFFFFFFFFFFFFFFFFFFFFFFFFFFFFFFFFFFFFFFFFFFFFFFFFFFFFFFFFFFFFFFFFFFFFFFFFFFFFFFFFFFFFFFFFFFFFFFFFFFFFFFFFFFFFFFFFFFFFFFFFFX######xxxF;122,@<3fiyuuyhuuy6;4tyuFFFFF",
"FFFFFFFFFFFFFFFFFFFFFFFFFFFFFFFFFFFFFFFFFFFFFFFFFFFFFFFFFFFFFFFFFFFFFFFFFFFFFFFFFFFFFFFFFFFFFFFFFFFFFFFFFFFFFFFFFFFFFFFFFFFFFFFFFFFFFFFFFFFFFFFFFFFFFFFFFFF@@#xFFFFX,2h<;,2ihuyphds5357FX&$CFFFF",
"FFFFFFFFFFFFFFFFFFFFFFFFFFFFFFFFFFFFFFFFFFFFFFFFFFFFFFFFFFFFFFFFFFFFFFFFFFFFFFFFFFFFFFFFFFFFFFFFFFFFFFFFFFFFFFFFFFFFFFFFFFFFFFFFFFFFFFFFFFFFFFFFFFFFFFFFFFFFFFFFFFFF@<431,15iutyyuh7317tFFFFFFFF",
"FFFFFFFFFFFFFFFFFFFFFFFFFFFFFFFFFFFFFFFFFFFFFFFFFFFFFFFFFFFFFFFFFFFFFFFFFFFFFFFFFFFFFFFFFFFFFFFFFFFFFFFFFFFFFFFFFFFFFFFFFFFFFFFFFFFFFFFFFFFFFFFFFFFFFFFFFFFFFFFFFFFFF@#157,25777ty47y$2uuFFFFFFF",
"FFFFFFFFFFFFFFFFFFFFFFFFFFFFFFFFFFFFFFFFFFFFFFFFFFFFFFFFFFFFFFFFFFFFFFFFFFFFFFFFFFFFFFFFFFFFFFFFFFFFFFFFFFFFFFFFFFFFFFFFFFFFFFFFFFFFFFFFFFFFFFFFFFFFFFFFFFFFFFFFFFFFFFF;27tt<34361,hpFX1DFFFFFFF",
"FFFFFFFFFFFFFFFFFFFFFFFFFFFFFFFFFFFFFFFFFFFFFFFFFFFFFFFFFFFFFFFFFFFFFFFFFFFFFFFFFFFFFFFFFFFFFFFFFFFFFFFFFFFFFFFFFFFFFFFFFFFFFFFFFFFFFFFFFFFFFFFFFFFFFFFFFFFFFFFFFFFFFFFF,2dy74pfyyFDFFFFVFFFFFFF",
"FFFFFFFFFFFFFFFFFFFFFFFFFFFFFFFFFFFFFFFFFFFFFFFFFFFFFFFFFFFFFFFFFFFFFFFFFFFFFFFFFFFFFFFFFFFFFFFFFFFFFFFFFFFFFFFFFFFFFFFFFFFFFFFFFFFFFFFFFFFFFFFFFFFFFFFFFFFFFFFFFFFFFFFFF16p74@;37ASFFFFFFFFFFFF",
"FFFFFFFFFFFFFFFFFFFFFFFFFFFFFFFFFFFFFFFFFFFFFFFFFFFFFFFFFFFFFFFFFFFFFFFFFFFFFFFFFFFFFFFFFFFFFFFFFFFFFFFFFFFFFFFFFFFFFFFFFFFFFFFFFFFFFFFFFFFFFFFFFFFFFFFFFFFFFFFFFFFFFFFFF<7;277FFFFFFFFFFFFFFFFF",
"FFFFFFFFFFFFFFFFFFFFFFFFFFFFFFFFFFFFFFFFFFFFFFFFFFFFFFFFFFFFFFFFFFFFFFFFFFFFFFFFFFFFFFFFFFFFFFFFFFFFFFFFFFFFFFFFFFFFFFFFFFFFFFFFFFFFFFFFFFFFFFFFFFFFFFFFFFFFFFFFFFFFFFFFF<t6,3yFFFFFFFFFFFFFFFFF"
};
