/* XPM */
static char *magick[] = {
/* columns rows colors chars-per-pixel */
"192 64 65 1",
"  c Gray0",
". c Gray11",
"X c Gray16",
"o c #313131",
"O c #46302a",
"+ c #523a31",
"@ c #5b3a31",
"# c #5d423a",
"$ c #6a4d36",
"% c Gray26",
"& c Gray32",
"* c #575760",
"= c #6a4a42",
"- c #735246",
"; c #626367",
": c #6a6b70",
"> c Gray45",
", c #72757f",
"< c #555580",
"1 c #5c5c8c",
"2 c #636394",
"3 c #63639c",
"4 c #6b6b9c",
"5 c #7b7b8c",
"6 c #6b6ba5",
"7 c #7373a5",
"8 c #7373ad",
"9 c #7373b5",
"0 c #7b7bb5",
"q c #7b7bbd",
"w c #815a44",
"e c #996d48",
"r c #817373",
"t c #a5734a",
"y c #aa7b52",
"u c #b57b52",
"i c #b58452",
"p c #bd8960",
"a c #d49866",
"s c #dea56b",
"d c #eaa972",
"f c #80848c",
"g c #848494",
"h c #898c94",
"j c #8b8b9d",
"k c #90949c",
"l c #8484bd",
"z c #9498a5",
"x c #9c9ca4",
"c c #a1a4b1",
"v c #8484c5",
"b c #8c8cc4",
"n c #8989ce",
"m c #8c8cd6",
"M c #9494d5",
"N c #9494de",
"B c #9a9ae6",
"V c #9c9cef",
"C c #b1b4c1",
"Z c #a5a5f2",
"A c #bdc1ce",
"S c #c3c7d6",
"D c #c7c9ec",
"F c #c3c3ff",
"G c None",
/* pixels */
"GGGGGGGGGGGGGGGGGGGGGGGGGGGGGGGGGGGGGGGGGGGGGGGGGGGGGGGGGGGGGGGGGGGGGGGGGGGGGGGGGGGGGGGGGGGGGGGGGGGGGGGGGGGGGGGGGGGGGGGGGGGGGGGGGGGGGGGGGGGGGGGGGGGGGGGGGGGGGGGGGGGGGGGGGGGGGGGGGGGGGGGGGGGGGGGG",
"GGGGGGGGGGGGGGGGGG+#--=GGGGGGGGGGGGGGGGGGGGGGGGGGGGGGGGGGGGGGGGGGGGGGGGGGGGGGGGGGGGGGGGGGGGGGGGGGGGGGGGGGGGGGGGGGGGGGGGGGGGGGGGGGGGGGGGGG&***&GGGGGGGGGGGGGGGGGGGGGGGGGGGGGGGGGGGGGGGGGGGGGGGGGG",
"GGGGGGGGGGGGGGGGG+=-#==GGGGGGGGGGGGGGGGGGGGGGGGGGGGGGGGGGGGGGGGGGGGGGGGGGGGGGGGGGGGGGGGGGGGGGGGGGGGGGGGGGGGGGGGGGGGGGGGGGGGGGGGGGGGGGGGGG&&****&GGGGGGGGGGGGGGGGGGGGGGGGGGGGGGGGGGGGGGGGGGGGGGGG",
"GGGGGGGGGGGGGGGG+#-#=s--GGGGGGGGGGGGGGGGGGGGGGGGGGGGGGGGGGGGGGGGGGGGGGGGGGGGGGGGGGGGGGGGGGGGGGGGGGGGGGGGGGGGGGGGGGGGGGGGGGGGGGGGGGGGG%***G&&*****GGGGGGGGGGGGGGGGGGGGGGGGGGGGGGGGGGGGGGGGGGGGGGG",
"GGGGGGGGGGGGGGG+#=riasdd=GGGGGGGGGGGGGGGGGGGGGGGGGGGGGGGGGGGGGGGGGGGGGGGGGGGGGGGGGGGGGGGGGGGGGGGGGGGGGGGGGGGGGGGGGGGGGGGGGGGGGGGGGGGG&&****&&**;;:GGGGGGGGGGGGGGGGGGGGGGGGGGGGGGGGGGGGGGGGGGGGGG",
"GGGGGGGGGGGGGG+@#=yiasdda=XoXGGGGGGGGGGGGGGGGGGGGGGGGGGGGGGGGGGGGGGGGGGGGGGGGGGGGGGGGGGGGGGGGGGGGGGGGGGGGGGGGGGGGGGGGGGGGGGGGGGGGGGGGG&&*****&&*;>GGGGGGGGGGGGGGGGGGGGGGGGGGGGGGGGGGGGGGGGGGGGGG",
"GGGGGGGGGGGGGG+###yiassdd-%GXGGGGGGGGGGGGGGGGGGGGGGGGGGGGGGGGGGGGGGGGGGGGGGGGGGGGGGGGGGGGGGGGGGGGGGGGGGGGGGGGGGGGGGGGGGGGGGGGGGGGGGGGG%&&****;&&&;GGGGGGGGGGGGGGGGGGGGGGGGGGGGGGGGGGGGGGGGGGGGGG",
"GGGGGGGGGGGGGO+##yyiassddw.GoGGGGGGGGGGGGGGGGGGGGGGGGGGGGGGGGGGGGGGGGGGGGGGGGGGGGGGGGGGGGGGGGGGGGGGGGGGGGGGGGGGGGGGGGGGGGGGGGGGGGGGGGGG%&&**:>&&&;zGGGGGGGGGGGGGGGGGGGGGGGGGGGGGGGGGGGGGGGGGGGGG",
"GGGGGGGGGGGGG+@##ty@--oodo.G&GGGGGGGGGGGGGGGGGGGGGGGGGGGGGGGGGGGGGGGGGGGGGGGGGGGGGGGGGGGGGGGGGGGGGGGGGGGGGGGGGGGGGGGGGGGGGGGGGGGGGGGGGGG%&&&*;h&&;CCGGGGGGGGGGGGGGGGGGGGGGGGGGGGGGGGGGGGGGGGGGGG",
"GGGGGGGGGGGGG+e*&tyyy%.o>dooGGGGGGGGGGGGGGGGGGGGGGGGGGGGGGGGGGGGGGGGGGGGGGGGGGGGGGGGGGGGGGGGGGGGGGGGGGGGGGGGGGGGGGGGGGGGGGGGGGGGGGGGGGGGG%&&&;jzcCAAGGGGGGGGGGGGGGGGGGGGGGGGGGGGGGGGGGGGGGGGGGGG",
"GGGGGGGGGGGGGOiytyyyyh.;awdGGGGGGGGGGGGGGGGGGGGGGGGGGGGGGGGGGGGGGGGGGGGGGGGGGGGGGGGGGGGGGGGGGGGGGGGGGGGGGGGGGGGGGGGGGGGGGGGGGGGGGGGGGGGGGf&&&;hkCACDGGGGGGGGGGGGGGGGGGGGGGGGGGGGGGGGGGGGGGGGGGGG",
"GGGGGGGGGGGGGOyttyyyopyayddGGGGGGGGGGGGGGGGGGGGGGGGGGGGGGGGGGGGGGGGGGGGGGGGGGGGGGGGGGGGGGGGGGGGGGGGGGGGGGGGGGGGGGGGGGGGGGGGGGGGGGGGGGGGGfhkc&;CgjzcSGGGGGGGGGGGGGGGGGGGGGGGGGGGGGGGGGGGGGGGGGGGG",
"GGGGGGGGGGGGGGtetyyuioaatidGGGGGGGGGGGGGGGGGGGGGGGGGGGGGGGGGGGGGGGGGGGGGGGGGGGGGGGGGGGGGGGGGGGGGGGGGGGGGGGGGGGGGGGGGGGGGGGGGGGGGGGGGGGGGfhkcCAC;hzxxGGGGGGGGGGGGGGGGGGGGGGGGGGGGGGGGGGGGGGGGGGGG",
"GGGGGGGGGGGGGGwwtyyuppayyspGGGGGGGGGGGGGGGGGGGGGGGGGGGGGGGGGGGGGGGGGGGGGGGGGGGGGGGGGGGGGGGGGGGGGGGGGGGGGGGGGGGGGGGGGGGGGGGGGGGGGGGGGGGGG,gkxCCcxhzxxGGGGGGGGGGGGGGGGGGGGGGGGGGGGGGGGGGGGGGGGGGGG",
"GGGGGGGGGGGGGGGetyyuppaysddGGGGGGGGGGGGGGGGGGGGGGGGGGGGGGGGGGGGGGGGGGGGGGGGGGGGGGGGGGGGGGGGGGGGGGGGGGGOO+++GGGGGGGGGGGGGGGGGGGGGGGGGGGGG,fffjzxxhzxxGGGGGGGGGGGGGGGGGGGGGGGGGGGGGGGGGGGGGGGGGGGG",
"GGGGGGGGGGGGGGG$etyyippaasamGGGGGGGGGGGGGGGGGGGGGGGGGGGGGGGGGGGGGGGGGGGGGGGGGGGGGGGGGGGGGGGGGGGGGGGOO++@#####GGGGGGGGGGGGGGGGGGGGGGGGGGG,fghkxxxgkxzfGGGGGGGGGGGGtwGGGGGGGGGGGGGGGGGGGGGGGGGGGGG",
"GGGGGGGGGGGGGGGG-weetyipppNZBGGGGGGGGGGGGGGGGGGGGGGGGGGGGGGGGGGGGGGGGGGGGG%;:GGGGGGGGGGGGGGGGGGGGGO++++##=====GGGGGGGGGGGGGGGGGGGGGGGGGG:fghkxxxgkgghhhfGGGGGGGGwetpGGGGGGGGGGGGGGGGGGGGGGGGGGGG",
"GGGGGGGGGGGGGGG1-t$-wwwevlZZFBGGGGGGGGGGGGGGGGGGGGGGGGGGGGGGGGGGGGGGGGGGG&*;>:GGGGGGGGGGGGGGGGGGG++++@##==----GGGGGGGGGGGGGGGGGGGGGGGGGG;fghkxxzggh>fhkzkxGGGGGGGe2l&GGGGGGGGGGGGGGGGGGGGGGGGGGG",
"GGGGGGGGGGGGGG146tytpaNNNmNBZZGGGGGGGGGGGGGGGGGGGGGGGGGGGGGGGGGGGGGGGGG&*&&*;>GGGGGGGGGGGGGGGGG<O++@####=--wp-GGGGGGGGGGGGGGGGGGGGGGGGGGG5fgkzhhf;,gzcccc.oooGGGy77008GGGGGGGGGGGGGGGGGGGGGGGGGG",
"GGGGGGGGGGGGGG3680vmNBBBBB<mBFVGGGGGGGGGGGGGGGGGGGGGGGGGGGGGGGGGGGGGG&&*>&&*;>:GGGGGGGGGGGGG<26nO++#####-p--+pGGGGGGGGGGGGGGGGGGGGGGGGGGG,fgfggghhfzcchXoo46882G<6680q8GGGGGGGGGGGGGGGGGGGGGGGGG",
"GGGGGGGGGGGGGG488lnMNBBBZVVvmFZGGGGGGGGGGGGGGGGGGGGGGGGGGGGGGGGGGGG%&&**::&&*:kccGGGGGGGG<114788O++#####==-rrr-GGGGGGGGGGGGGGGGGGGGGGGGGG:fgghhgggkxckXo68qq008844670lv8GGGGGGGGGGGGGGGGGGGGGGGG",
"GGGGGGGGGGGGG<480vnMNBVFFZZ0vBZGGGGGGGGGGGGGGGGGGGGGGGGGGGGGGGGGGG&&&&&*;>%&fhcADCGGGGGG22248008wOey+++++ipaawwGGGGGGGGGGGGGGGGGGGGGGGGGG:5fgghhhhckkXo60qqqq00008478qq0GGGGGGGGGGGGGGGGGGGGGGGG",
"GGGGGGGGGGGG20mm8lmFFBBZZFZ6qMZBGGGGGGGGGGGGGGGGGGGGGGGGGGGGGGGGGG%&&&&&*:;5hkSASAGGGo<26347000eweye;OyyuippaadGoGGGGGGGGGGGGGGGGGGGGGGGGG>5fgghhkkzXo6800000qvnnmn077008GGGGGGGGGGGGGGGGGGGGGGG",
"GGGGGGGGGGG28vNBB0vMNNNBZFZ30nFZGGGGGGGGGGGGGGGGGGGGGGGGGGGGGGGGGGGG%%&&5jcCzkcDADCGo12664680qqew-$yy>tyyuiipae.%GGGGGGGGGGGGGGGGGGGGGGGGGG>5ffghkkc.6800000qvmNmvq04680q0GGGGGGGGGGGGGGGGGGGGGG",
"GGGGGGGGGGG60nBZV<qvnnmNZFV28nNFVGGGGGGGGGGGGGGGGGGGGGGGGGGGGGGGGGGGGGGfhcCDCkkACjgo124866680lbMetyyyy,e@wyipaoGGGGGGGGGGGGGGGGGGGGGGGGGGGGG:,ffhkzXX788000qlmMnvvlq0878qv0GGGGGGGGGGGGGGGGGGGGG",
"GGGGGGGGGG<80MZFZ00vvnmNVFZ410nZZGGGGGGGGGGGGGGGGGGGGGGGGGGGGGGGGGGGGG,gkzAkf;kzSz,<24687678qMFZvwtyyttehw+#iGGGGGGGGGGGGGGGGGGGGGGGGGGGGGGGG;,fhkkX4880880qnmvvllvvmmNnnNNnGGGGGGGGGGGGGGGGGGGG",
"GGGGGGGGGG280ZVZZ00lvnmNVFZ127vNZGGGGGGGGGGGGGGGGGGGGGGGGGGGGGGGGGGGGG,hkkCch,hkx,o244701472<vBv08ettteewr.XGGGGGGGGGGGGGGGGGGGGGGGGGGGGGGGGGG&>fhjo6880000vmvqqqvnNBBVBNNBVGGGGGGGGGGGGGGGGGGGG",
"GGGGGGGGGG48vFBZF0qvvnmNVFV<130nZGGGGGGGGGGGGGGGGGGGGGGGGGGGGGGGGGGGGG:fhkzSkg:k5fo4468480004qq088$eeeeewXtidGGGGGGGGGGGGGGGGGGGGGGGGGGGGGGGGGGG:,fo6889000vq000qvNBZFZVVBZZVGGGGGGGGGGGGGGGGGGG",
"GGGGGGGGGG40vFBZFqvnmmNNBZVG128vZdGGGGGGGGGGGGGGGGGGGGGGGGGGGGGGGGGGGGG,gjkccj,,fh<467480qq88000887Bwwww-wyddGGGGGGGGGGGGGGGGGGGGGGGGGGGGGGGGGGGG*:X4888000q0000qnBVFDFZVNO+++GGGGGGGGGGGGGGGGGG",
"GGGGGGGGGG40nFBZVqvnnnnmNBVGG260aaGGGGGGGGGGGGGGGGGGGGGGGGGGGGGGGGGGGGGG5hkzSz,5fj<66280qZl8b466664nGG$GGGGGGGGGGGGGGGGGGGGGGGGGGGGGGGGGGGGGGGGGGGG.167880000000lZZBZiieO+##=###GGGGGGGGGGGGGGGG",
"GGGGGGGGGG70MZVZ<0qqlvnmNZVGGGG$pyGGGGGGGGGGGGGGGGGGGGGGGGGGGGGGGGGGGGGG;fhkx,,5gko41700qq08M211368GGGGGGGGGGGGGGGGGGGGGGGGGGGGGGGGGGGGGGGGGGGGGGGGGX14788000000vF00yyyt++##=====#GGGGGGGGGGGGGG",
"GGGGGGGGG<80ZBZF880qlvnmBZVGGGGGuwsGGGGGGGGGGGGGGGGGGGGGGGGGGGGGGGGGGGGGG:gjk,55gk.<680qq0vn71<<27GGGGGGGGGGGGGGGGGGGGGGGGGGGGGGGGGGGGGGGGGGGGGGGGGGG%<247888880qq00yyyO+##===--===GGGGGGGGGGGGG",
"GGGGGGGGG<8lNBVZ880qvvnmBZVoGGGGGGGGGGGGGGGGGGGGGGGGGGGGGGGGGGGGGGGGGGGGGG,h,555fhk680qvvvv43227GGGGGGGGGGGGGGGGGGGGGGGGGGGGGGGGGGGGGGGGGGGGGGGGGGGGGGG&<470nmn*0088tyw+@##===-----=GGGGGGGGGGGG",
"GGGGGGGGG48vZZZV880qvnmMZBoGGGGGGGGGGGGGGGGGGGGGGGGGGGGGGGGGGGGGGGGGGGGGGG*f,555,f280qvvlqv<<<GGGGGGGGGGGGGGGGGGGGGGGGGGGGGGGGGGGGGGGGGGGGGGGGGGGGGGG44780qvMB028876etey+##==-------=GGGGGGGGGGG",
"GGGGGGGGG40nZVZV880qvnnmNooGGGGGGGGGGGGGGGGGGGGGGGGGGGGGGGGGGGGGGGGGGGGGGGG;,,,,,280qvvqqv1;;GGGGGGGGGGGGGGGGGGGGGGGGGGGGGGGGGGGGGGGGGGGGGGGGGGGGG246000qqvvZB04<4321wey+###==-------GGGGGGGGGGG",
"GGGGGGGGG60MZZZ46680qv80o:AGGGGGGGGGGGGGGGGGGGGGGGGGGGGGGGGGGGGGGGGGGGGGGGGG>,>:270vFnlqv;;GGGGGGGGGGGGGGGGGGGGGGGGGGGGGGGGGGGGGGGGGGGGGGGGGGG<468880qqqqlvvv082112124eee@##==-----w--GGGGGGGGGG",
"GGGGGGGGG70ZBZFX11144oo%oDAGGGGGGGGGGGGGGGGGGGGGGGGGGGGGGGGGGGGGGGGGGGGGGGGGG;;<700vNNVnGGGGGGGGGGGGGGGGGGGGGGGGGGGGGGGGGGGGGGGGGGGGGGGGGGGGG6800qlvNvqqqq00861<G<<1GGeeyy###=---wwrwwGGGGGGGGGG",
"GGGGGG&o<8qFBZZ.X..%.XooDSGGGGGGGGGGGGGGGGGGGGGGGGGGGGGGGGGGGGGGGGGGGGGGGGGGGGG680vnnnMGGGGGGGGGGGGGGGGGGGGGGGGGGGGGGGGGGGGGGGGGGGGGGGGGGGGG40qqqqvvBl0987442<<GGGGGGGeyyii##=wpw-wxwwGGGGGGGGGG",
"GGGGG&*&18lFBVVkkx..XXCADAGGGGGGGGGGGGGGGGGGGGGGGGGGGGGGGGGGGGGGGGGGGGGGGGGGGG680qvvvlGGGGGGGGGGGGGGGGGGGGGGGGGGGGGGGGGGGGGGGGGGGGGGGGGGGGGG60lqqqqqv7211<<GGGGGGGGGGGwty$$O@##-w--wrGGGGGGGGGGG",
"GGGGG&&*28vZZZgjkxcccCCCCCGGGGGGGGGGGGGGGGGGGGGGGGGGGGGGGGGGGGGGGGGGGGGGGGGGGG80qvvlqGGGGGGGGGGGGGGGGGGGGGGGGGGGGGGGGGGGGGGGGGGGGGGGGGGGG$eyi8q087431<4GGGGGGGGGGGGGGG$eett*tO+#===--GGGGGGGGGGG",
"GGGG%&&&<8qNBF5ghkzxcccccCGGGGGGGGGGGGGGGGGGGGGGGGGGGGGGGGGGGGGGGGGGGGGGGGGGGG8lvvqqGGGGGGGGGGGGGGGGGGGGGGGGGGGGGGGGGGGGGGGGGGGGGGGGGGGwiiiye121<<<GGGGGGGGGGGGGGGGGGGG$wee*etyOOO=erGGGGGGGGGGG",
"GGGG&&&&kyaddN5fffhzjkzkxCGGGGGGGGGGGGGGGGGGGGGGGGGGGGGGGGGGGGGGGGGGGGGGGGGGGG70nvlGGGGGGGGGGGGGGGGGGGGGGGGGGGGGGGGGGGGGGGGGGGGGGGGGGGGyitwwwGGGGGGGGGGGGGGGGGGGGGGGGGGG$$wwweeeeet=%GGGGGGGGGGG",
"GGGG&&&,huadd>5fffhzCffhcAGGGGGGGGGGGGGGGGGGGGGGGGGGGGGGGGGGGGGGGGGGGGGGGGGGGyaa20GGGGGGGGGGGGGGGGGGGGGGGGGGGGGGGGGGGGGGGGGGGGGGGGGGGGGGGGGGGGGGGGGGGGGGGGGGGGGGGGGGGGGGGGGGyxwwwweGGGGGGGGGGGGG",
"GGGG%&&>wpsdd;,fffhxCffkcGGGGGGGGGGGGGGGGGGGGGGGGGGGGGGGGGGGGGGGGGGGGGGGGGGGyppppGGGGGGGGGGGGGGGGGGGGGGGGGGGGGGGGGGGGGGGGGGGGGGGGGGGGGGGGGGGGGGGGGGGGGGGGGGGGGGGGGGGGGGGGGGX;..+GGGGGGGGGGGGGGGG",
"GGGG%&&%w$sddk,5ffhxC5fkcGGGGGGGGGGGGGGGGGGGGGGGGGGGGGGGGGGGGGGGGGGGGGGGGGGytpppGGGGGGGGGGGGGGGGGGGGGGGGGGGGGGGGGGGGGGGGGGGGGGGGGGGGGGGGGGGGGGGGGGGGGGGGGGGGGGGGGGGGGGGGGGGGGGG%GGGGGGGGGGGGGGGG",
"GGGGG&%%yeeahh,5f5hxC55kCGGGGGGGGGGGGGGGGGGGGGGGGGGGGGGGGGGGGGGGGGGGGGGGGGGetipGGGGGGGGGGGGGGGGGGGGGGGGGGGGGGGGGGGGGGGGGGGGGGGGGGGGGGGGGGGGGGGGGGGGGGGGGGGGGGGGGGGGGGGGGGGGGGGGGGGGGGGGGGGGGGGGG",
"GGGGG%%&ypye5gh555hx:,,kGGGGGGGGGGGGGGGGGGGGGGGGGGGGGGGGGGGGGGGGGGGGGGGGGGGGiyGGGGGGGGGGGGGGGGGGGGGGGGGGGGGGGGGGGGGGGGGGGGGGGGGGGGGGGGGGGGGGGGGGGGGGGGGGGGGGGGGGGGGGGGGGGGGGGGGGGGGGGGGGGGGGGGGG",
"GGGGGGGGGtai;:5,55hcGGGGGGGGGGGGGGGGGGGGGGGGGGGGGGGGGGGGGGGGGGGGGGGGGGGGGGGGGGGGGGGGGGGGGGGGGGGGGGGGGGGGGGGGGGGGGGGGGGGGGGGGGGGGGGGGGGGGGGGGGGGGGGGGGGGGGGGGGGGGGGGGGGGGGGGGGGGGGGGGGGGGGGGGGGGG",
"GGGGGGGGGGGGGG*,55hcGGGGGGGGGGGGGGGGGGGGGGGGGGGGGGGGGGGGGGGGGGGGGGGGGGGGGGGGGGGGGGGGGGGGGGGGGGGGGGGGGGGGGGGGGGGGGGGGGGGGGGGGGGGGGGGGGGGGGGGGGGGGGGGGGGGGGGGGGGGGGGGGGGGGGGGGGGGGGGGGGGGGGGGGGGGG",
"GGGGGGGGGGGGGGGG:,hGGGGGGGGGGGGGGGGGGGGGGGGGGGGGGGGGGGGGGGGGGGGGGGGGGGGGGGGGGGGGGGGGGGGGGGGGGGGGGGGGGGGGGGGGGGGGGGGGGGGGGGGGGGGGGGGGGGGGGGGGGGGGGGGGGGGGGGGGGGGGGGGGGGGGGGGGGGGGGGGGGGGGGGGGGGGG",
"GGGGGGGGGGGGGGGGGGGGGGGGGGGGGGGGGGGGGGGGGGGGGGGGGGGGGGGGGGGGGGGGGGGGGGGGGGGGGGGGGGGGGGGGGGGGGGGGGGGGGGGGGGGGGGGGGGGGGGGGGGGGGGGGGGGGGGGGGGGGGGGGGGGGGGGGGGGGGGGGGGGGGGGGGGGGGGGGGGGGGGGGGGGGGGGG",
"GGGGGGGGGGGGGGGGGGGGGGGGGGGGGGGGGGGGGGGGGGGGGGGGGGGGGGGGGGGGGGGGGGGGGGGGGGGGGGGGGGGGGGGGGGGGGGGGGGGGGGGGGGGGGGGGGGGGGGGGGGGGGGGGGGGGGGGGGGGGGGGGGGGGGGGGGGGGGGGGGGGGGGGGGGGGGGGGGGGGGGGGGGGGGGGG",
"GGGGGGGGGGGGGGGGGGGGGGGGGGGGGGGGGGGGGGGGGGGGGGGGGGGGGGGGGGGGGGGGGGGGGGGGGGGGGGGGGGGGGGGGGGGGGGGGGGGGGGGGGGGGGGGGGGGGGGGGGGGGGGGGGGGGGGGGGGGGGGGGGGGGGGGGGGGGGGGGGGGGGGGGGGGGGGGGGGGGGGGGGGGGGGGG",
"GGGGGGGGGGGGGGGGGGGGGGGGGGGGGGGGGGGGGGGGGGGGGGGGGGGGGGGGGGGGGGGGGGGGGGGGGGGGGGGGGGGGGGGGGGGGGGGGGGGGGGGGGGGGGGGGGGGGGGGGGGGGGGGGGGGGGGGGGGGGGGGGGGGGGGGGGGGGGGGGGGGGGGGGGGGGGGGGGGGGGGGGGGGGGGGG",
"GGGGGGGGGGGGGGGGGGGGGGGGGGGGGGGGGGGGGGGGGGGGGGGGGGGGGGGGGGGGGGGGGGGGGGGGGGGGGGGGGGGGGGGGGGGGGGGGGGGGGGGGGGGGGGGGGGGGGGGGGGGGGGGGGGGGGGGGGGGGGGGGGGGGGGGGGGGGGGGGGGGGGGGGGGGGGGGGGGGGGGGGGGGGGGGG",
"GGGGGGGGGGGGGGGGGGGGGGGGGGGGGGGGGGGGGGGGGGGGGGGGGGGGGGGGGGGGGGGGGGGGGGGGGGGGGGGGGGGGGGGGGGGGGGGGGGGGGGGGGGGGGGGGGGGGGGGGGGGGGGGGGGGGGGGGGGGGGGGGGGGGGGGGGGGGGGGGGGGGGGGGGGGGGGGGGGGGGGGGGGGGGGGG",
"GGGGGGGGGGGGGGGGGGGGGGGGGGGGGGGGGGGGGGGGGGGGGGGGGGGGGGGGGGGGGGGGGGGGGGGGGGGGGGGGGGGGGGGGGGGGGGGGGGGGGGGGGGGGGGGGGGGGGGGGGGGGGGGGGGGGGGGGGGGGGGGGGGGGGGGGGGGGGGGGGGGGGGGGGGGGGGGGGGGGGGGGGGGGGGGG",
"GGGGGGGGGGGGGGGGGGGGGGGGGGGGGGGGGGGGGGGGGGGGGGGGGGGGGGGGGGGGGGGGGGGGGGGGGGGGGGGGGGGGGGGGGGGGGGGGGGGGGGGGGGGGGGGGGGGGGGGGGGGGGGGGGGGGGGGGGGGGGGGGGGGGGGGGGGGGGGGGGGGGGGGGGGGGGGGGGGGGGGGGGGGGGGGG",
"GGGGGGGGGGGGGGGGGGGGGGGGGGGGGGGGGGGGGGGGGGGGGGGGGGGGGGGGGGGGGGGGGGGGGGGGGGGGGGGGGGGGGGGGGGGGGGGGGGGGGGGGGGGGGGGGGGGGGGGGGGGGGGGGGGGGGGGGGGGGGGGGGGGGGGGGGGGGGGGGGGGGGGGGGGGGGGGGGGGGGGGGGGGGGGGG",
"GGGGGGGGGGGGGGGGGGGGGGGGGGGGGGGGGGGGGGGGGGGGGGGGGGGGGGGGGGGGGGGGGGGGGGGGGGGGGGGGGGGGGGGGGGGGGGGGGGGGGGGGGGGGGGGGGGGGGGGGGGGGGGGGGGGGGGGGGGGGGGGGGGGGGGGGGGGGGGGGGGGGGGGGGGGGGGGGGGGGGGGGGGGGGGGG",
"GGGGGGGGGGGGGGGGGGGGGGGGGGGGGGGGGGGGGGGGGGGGGGGGGGGGGGGGGGGGGGGGGGGGGGGGGGGGGGGGGGGGGGGGGGGGGGGGGGGGGGGGGGGGGGGGGGGGGGGGGGGGGGGGGGGGGGGGGGGGGGGGGGGGGGGGGGGGGGGGGGGGGGGGGGGGGGGGGGGGGGGGGGGGGGGG",
"GGGGGGGGGGGGGGGGGGGGGGGGGGGGGGGGGGGGGGGGGGGGGGGGGGGGGGGGGGGGGGGGGGGGGGGGGGGGGGGGGGGGGGGGGGGGGGGGGGGGGGGGGGGGGGGGGGGGGGGGGGGGGGGGGGGGGGGGGGGGGGGGGGGGGGGGGGGGGGGGGGGGGGGGGGGGGGGGGGGGGGGGGGGGGGGG",
"GGGGGGGGGGGGGGGGGGGGGGGGGGGGGGGGGGGGGGGGGGGGGGGGGGGGGGGGGGGGGGGGGGGGGGGGGGGGGGGGGGGGGGGGGGGGGGGGGGGGGGGGGGGGGGGGGGGGGGGGGGGGGGGGGGGGGGGGGGGGGGGGGGGGGGGGGGGGGGGGGGGGGGGGGGGGGGGGGGGGGGGGGGGGGGGG",
"GGGGGGGGGGGGGGGGGGGGGGGGGGGGGGGGGGGGGGGGGGGGGGGGGGGGGGGGGGGGGGGGGGGGGGGGGGGGGGGGGGGGGGGGGGGGGGGGGGGGGGGGGGGGGGGGGGGGGGGGGGGGGGGGGGGGGGGGGGGGGGGGGGGGGGGGGGGGGGGGGGGGGGGGGGGGGGGGGGGGGGGGGGGGGGGG"
};
