/* XPM */
static char *magick[] = {
/* columns rows colors chars-per-pixel */
"192 64 63 1",
"  c Gray0",
". c #2a291d",
"X c #312f22",
"o c #393727",
"O c #00007c",
"+ c #483a25",
"@ c #573c27",
"# c #4a4733",
"$ c #5d422a",
"% c #524c37",
"& c #63452c",
"* c #67492c",
"= c #674834",
"- c #6a4c33",
"; c #6e5137",
": c #734f34",
"> c #775539",
", c #4b4b4b",
"< c Gray33",
"1 c Gray36",
"2 c #635f48",
"3 c #7a5842",
"4 c #626262",
"5 c #656565",
"6 c Gray42",
"7 c #747474",
"8 c #7b7b7b",
"9 c #000091",
"0 c #0000b0",
"q c #0000d2",
"w c #0909e9",
"e c #5959ff",
"r c #845c3b",
"t c #90643b",
"y c #a36e3c",
"u c #845d44",
"i c #8a6346",
"p c #976a49",
"a c #9b7050",
"s c #a7754a",
"d c #aa754c",
"f c #a87856",
"g c #b37e56",
"h c #b07f63",
"j c #86836c",
"k c #b88459",
"l c #ba8764",
"z c #c38d5c",
"x c #c6906b",
"c c #c79368",
"v c #848484",
"b c Gray55",
"n c Gray58",
"m c Gray61",
"M c #a4a4a4",
"N c #acacac",
"B c Gray70",
"V c Gray73",
"C c #cdcdcd",
"Z c Gray90",
"A c #f3f3f3",
"S c Gray100",
"D c None",
/* pixels */
"DDDDDDDDDDDDDDDDDDDDDDDDDDDDDDDDDDDDDDDDDDDDDDDDDDDDDDDDDDDDDDDDDDDDDDDDDDDDDDDDDDDDDDDDDDDDDDDDDDDDDDDDDDDDDDDDDDDDDDDDDDDDDDDDDDDDDDDDDDDDDDDDDDDDDDDDDDDDDDDDDDDDDDDDDDDDDDDDDDDDDDDDDDDDDDDD",
"DDDDDDDDDDDDDDDDDDDDDDDDDDDD*&$@DDDDDDDDDDDDDDDDDDDDDDDDDDDDDDDDDDDDDDDDDDDDDDDDDDDDDDDDDDDDDDDDDDDDDDDDDDDDDDDDDDDDDDDDDDDDDDDDDDDDDDDDDDDDDDDDDDDDDDDDDDDDDDDDDDDDDDDDDDDDDDDDDDDDDDDDDDDDDDDD",
"DDDDDDDDDDDDDDDDDDDDDDDDDD-*;>-OOODDDDDDDDDDDDDDDDDDDDDDDDDDDDDDDDDDDDDDDDDDDDDDDDDDDDDDDDDDDDDDDDDDDDDDDDDDDDDDDDDDDDDDDDDDDDDDDDDDDDDDDDDDDDDDDDDDDDDDDDDDDDDDDDDDDDDDDDDDDDDDDDDDDDDDDDDDDDDD",
"DDDDDDDDDDDDDDDDDDDDDDDD-&>&:*-O009@DDDDDDDDDDDDDDDDDDDDDDDDDDDDDDDDDDDDDDDDDDDDDDDDDDDDDDDDDDDDDDDDDDDDDDDDDDDDDDDDDDDDDDDDDDDDDDDDDDDDDDDDDDDDDDDDDDDDDDDDDDDDDDDDDDDDDDDDDDDDDDDDDDDDDDDDDDDD",
"DDDDDDDDDDDDDDDDDDDDDDD=O99O$:*0qq0==DDDDDDDDDDDDDDDDDDDDDDDDDDDDDDDDDDDDDDDDDDDDDDDDDDDDDDDDDDDDDDDDDDDDDDDDDDDDDDDDDDDDDDDDDDDDDDDDDDDDDDDDDDDDDDDDDDDDDDDDDDDDDDDDDDDDDDDDDDDDDDDDDDDDDDDDDDD",
"DDDDDDDDDDDDDDDDDDDDDDD&90q0*>>0qwqr>DDDDDDDDDDDDDDDDDDDDDDDDDDDDDDDDDDDDDDDDDDDDDDDDDDDDDDDDDDDDDDDDDDDDDDDDDDDDDDDDDDDDDDDDDDDDDDDDDDDDDDDDDDDDDDDDDDDDDDDDDDDDDDDDDDDDDDDDDDDDDDDDDDDDDDDDDDD",
"DDDDDDDDDDDDDDDDDDDDDD=;0qeqr>rrpppi;>DDDDDDDDDDDDDDDDDDDDDDDDDDDDDDDDDDDDDDDDDDDDDDDDDDDDDDDDDDDDDDDDDDDDDDDDDDDDDDDDDDDDDDDDDDDDDDDDDDDDDDDDDDDDDDDDDDDDDDDDDDDDDDDDDDDDDDDDDDDDDDDDDDDDDDDDDD",
"DDDDDDDDDDDDDDDDDDDDDD-&0qq>rtttrtrrutDDDDDDDDDDDDDDDDDDDDDDDDDDDDDDDDDDDDDDDDDDDDDDDDDDDDDDDDDDDDDDDDDDDDDDDDDDDDDDDDDDDDDDDDDDDDDDDDDDDDDDDDDDDDDDDDDDDDDDDDDDDDDDDDDDDDDDDDDDDDDDDDDDDDDDDDDD",
"DDDDDDDDDDDDDDDDDDDDD;=**::aartsdpsasr-DDDDDDDDDDDDDDDDDDDDDDDDDDDDDDDDDDDDDDDDDDDDDDDDDDDDDDDDDDDDDDDDDDDDDDDDDDDDDDDDDDDDDDDDDDDDDDDDDDDDDDDDDDDDDDDDDDDDDDDDDDDDDDDDDDDDDDDDDDDDDDDDDDDDDDDDD",
"DDDDDDDDDDDDDDDDDDDDD-;::tusydpfggyyd>rDDDDDDDDDDDDDDDDDDDDDDDDDDDDDDDDDDDDDDDDDDDDDDDDDDDDDDDDDDDDDDDDDDDDDDDDDDDDDDDDDDDDDDDDDDDDDDDDDDDDDDDDDDDDDDDDDDDDDDDDDDDDDDDDDDDDDDDDDDDDDDDDDDDDDDDDD",
"DDDDDDDDDDDDDDDDDDDDD=;:upppfaagdfgktstDDDDDDDDDDDDDDDDDDDDDDDDDDDDDDDDDDDDDDDDDDDDDDDDDDDDDDDDDDDDDDDDDDDDDDDDDDDDDDDDDDDDDDDDDDDDDDDDDDDDDDDDDDDDDDDDDDDDDDDDDDDDDDDDDDDDDDDDDDDDDDDDDDDDDDDDD",
"DDDDDDDDDDDDDDDDDDDDD&=u:uisfdgcsddgtydDDDDDDDDDDDDDDDDDDDDDDDDDDDDDDDDDDDDDDDDDDDDDDDDDDDDDDDDDDDDDDDDDDDDDDDDDDDDDDDDDDDDDDDDDDDDDDDDDDDDDDDDDDDDDDDDDDDDDDDDDDDDDDDDDDDDDDDDDDDDDDDDDDDDDDDDD",
"DDDDDDDDDDDDDDDDDDDDDD>>ipfgdygzkckftdsDDDDDDDDDDDDDDDDDDDDDDDDDDDDDDDDDDDDDDDDDDDDDDDDDDDDDDDDDDDDDDDDDDDDDDDDDDDDDDDDDDDDDDDDDDDDDDDDDDDDDDDDDDDDDDDDDDDDDDDDDDDDDDDDDDDDDDDDDDDDDDDDDDDDDDDDD",
"DDDDDDDDDDDDDDDDDDDDDD;3isasggcscczkgdDDDDDDDDDDDDDDDDDDDDDDDDDDDDDDDDDDDDDDDDDDDDDDDDDDDDDDDDDDDDDDDDDDDDDDDDDDDDDDDDDDDDDDDDDDDDDDDDDDDDDDDDDDDDDDDDDDDDDDDDDDDDDDDDDDDDDDDDDDDDDDDDDDDDDDDDDD",
"DDDDDDDDDDDDDDDDDDDDDD&3pagdzgzc**-dddDDDDDDDDDDDDDDDDDDDDDDDDDDDDDDDDDDDDDDDDDDDDDDDDDDDDDDDDDDDDDDDDDDDDDDDDDDDDDDDDDDDDDDDDDDDDDDDDDDDDDDDDDDDDDDDDDDDDDDDDDDDDDDDDDDDDDDDDDDDDDDDDDDDDDDDDDD",
"DDDDDDDDDDDDDDDDDDDDDDD3uppkzz-&=i3zyDDDDDDDDDDDDDDDDDDDDDDDDDDDDDDDDDDDDDDDDDDDDDDDDDDDDDDDDDDD=DDDDDDDDDDDDDDDDDDDDDDDDDDDDDDDDDDDDDDDDDDDDDDDDDDDDDDDDDDDDDDDDDDDDDDDDDDDDDDDDDDDDDDDDDDDDDDD",
"DDDDDDDDDDDDDDDDDDDDDDDDipfpk@uigkfpDDDDDDDDDDDDDDDDDDDDDDDDDDDDDDDDDDDDDDDDDDDDDDDDDDDDDDDDDDD=*&DDDDDDDDDDDDDDDDDDDDDDDDDDDDDDDDDDDDDDDDDDDDDDDDDDDDDDDDDDDDDDDDDDDDDDDDDDDDDDDDDDDDDDDDDDDDDD",
"DDDDDDDDDDDDDDDDDDDDDDDDDippa-i=c@lDDDDDDDDDDDDDDDDDDDDDDDDDDDDDDDDDDDDDDDDDDDDDDDDDDDDDDDDDDDD-@=*&*&$DDDDDDDDDDDDDDDDDDDDDDDDDDDDDDDDDDDDDDDDDDDDDDDDDDDDDDDDDDDDDDDDDDDDDDDDDDDDDDDDDDDDDDDDD",
"DDDDDDDDDDD=&;@&DDDDDDDDDDDpppi;c>lDDDDDDDDDDDDDDDDDDDDDDDDDDDDDDDDDDDDDDDDDDDDDDDDDDDDDDDDDDD&->*$*$OOO$DDDDDDDDDDDDDDDDDDDDDDDDDDDDDDDDDDDDDDDDDDDDDDDDDDDDDDDDDDDDDDDDDDDDDDDDDDDDDDDDDDDDDDD",
"DDDDDDDDDD;:3utrpDDDDDDDDDDDDD-aalDDDDDDDDDDDDDDD--&$DDDDDDDDDDDDDDDDDDDDDDDDDDDDDDDDDDDDDDDD&;OO@*&O900>=DDDDDDDDDDDDDDDDDDDDDDDDDDDDDDDDDDDDDDDDDDDDDDDDDDDDDDDDDDDDDDDDDDDDDDDDDDDDDDDDDDDDDD",
"DDDDDDDDD&upffsdgDDDDDDDDDDDDD-szDDDDDDDDDDDDDDD&;-;=$DDDDDDDDDDDDDDDDDDDDDDDDDDDDDDDDDDDDDD$&O99O*>O0qqq>rDDDDDDDDDDDDDDDDDDDDDDDDDDDDDDDDDDDDDDDDDDDDDDDDDDDDDDDDDDDDDDDDDDDDDDDDDDDDDDDDDDDDD",
"DDDDDDDDD>fcckgg4DDDDDDDDDDDDDpgDDDDDDDDDDDDDDDD--uiuf;DDDDDDDDDDDDDDDDDDDDDDDDDDDDDDDDDDDDD;O90q0:>rqqqri;DDDDDDDDDDDDDDDDDDDDDDDDDDDDDDDDDDDDDDDDDDDDDDDDDDDDDDDDDDDDDDDDDDDDDDDDDDDDDDDDDDDDD",
"DDDDDDDDDDuahll5Nm,DDDDDDDDD5=fkDDDDDDDDDDDDD557;ppalffaDDDDDDDDDDDDDDDDDDDDDDDDDDDDDDDDDDD&-;0qeqrripsia:s>DDDDDDDDDDDDDDDDDDDDDDDDDDDDDDDDDDDDDDDDDDDDDDDDDDDDDDDDDDDDDDDDDDDDDDDDDDDDDDDDDDDD",
"DDDDDDDDDDDDDD5NMnN1DDDDDD555=gk4DDDDDDDD555b6nmv8ffkcdDDDDDDDDDDDDDDDDDDDDDDDDDDDDDDDDDDD5-;-9qw:iptaprtfuiDDDDDDDDDDDDDDDDDDDDDDDDDDDDDDDDDDDDDDDDDDDDDDDDDDDDDDDDDDDDDDDDDDDDDDDDDDDDDDDDDDDD",
"DDDDDDDDDDDDDDDvBBvbMDDDD5555;c54<DDDD555657MMvNNDDDDDDDDDDDDDDDDDDDDDDDDDDDDDDDDDDDDDDDD55;->>iipstdytyytt:DDDDDDDDDDDDDDDDDDDDDDDDDDDDDDDDDDDDDDDDDDDDDDDDDDDDDDDDDDDDDDDDDDDDDDDDDDDDDDDDDDDD",
"DDDDDDDDDDDDDDDDDnBBm5,DD55555557855<b5bmvMmv,DDDDDDDDDDDDDDDDDDDDDDDDDDDDDDDDDDDDDDDDDD455-->:prpapkdkpggstDDDDDDDDDDDDDDDDDDDDDDDDDDDDDDDDDDDDDDDDDDDDDDDDDDDDDDDDDDDDDDDDDDDDDDDDDDDDDDDDDDDD",
"DDDDDDDDDDDDDDDDDDnVM781D57578bmm88MnnMnNNDDDDDDDDDDDDDDDDDDDDDDDDDDDDDDDDDDDDDDDDDDDDDD555>->uupyasdgcgdgydDDDDDDDDDDDDDDDDDDDDDDDDDDDDDDDDDDDDDDDDDDDDDDDDDDDDfDDDDDDDDDDDDDDDDDDDDDDDDDDDDDDD",
"DDDDDDDDDDDDDDDDDDD77N5vb5NbmMNNMnbNBMNDDDDDDDDDDDDDDDDDDDDDDDDDDDDDDDDDD-=;&&$DDDDDDDDD57v=;>iisgdsczzkssssDDDDDDDDDDDDDDDDDDDDDDDDDDDDDDDDDDDDDDDDDDDDDDDDDDDD-&DDDDDDDDDDDDDDDDDDDDDDDDDDDDDD",
"DDDDDDDDDDDDDDDDDDDDDMBvNv6nnbMVNmnDDDDDDDDDDDDDDDDDDDDDDDDDDDDDDDDDDDDD;;-uppaDDDDDDDDD58bmrrpapfgdcscgkdyDDDDDDDDDDDDDDDDDDDDDDDDDDDDDDDDDDDDDDDDDDDDDDDDDDDD=pgDDDDDDDDDDDDDDDDDDDDDDDDDDDDDD",
"DDDDDDDDDDDDDDDDDDDDDDvZBBn6NSCANmMDDDDDDDDDDDDDDDDDDDDDDDDDDDDDDDDDDDDD&pahlydDDDDDDDDD55nMrippslsggczcsgkDDDDDDDDDDDDDDDDDDDDDDDDDDDDDDDDDDDDDDDDDDDDDDDDDDDDilDDDDDDDDDDDDDDDDDDDDDDDDDDDDDDD",
"DDDDDDDDDDDDDDDDDDDDDDD6NBVmNVCZNMmDDDDDDDDDDDDDDDDDDDDDDDDDDDDDDDDDDDDDuppckdyvDDDDDDDD55vMZiiapgkd--3>*zDDDDDDDDDD-;-*=DDDDDDDDDDDDDDDDDDDDDDDDDDDDDDDDDDDDD=fgDDDDDDDDDDDDDDDDDDDDDDDDDDDDDDD",
"DDDDDDDDDDDDDDDDDDDDDDDDnNB7NCZCNM1DDDDDDDDDDDDDDDDDDDDDDDDDDDDDDDDDDDDDDphpg5bm61DDDDDD5v5nNBpiakd-;;aaiDDDDDDDDDD:;=;>=@DDDDDDDDDDDDDDDDDDDDDDDDDDDDDDDDDDDD&kcDDDDDDDDDDDDDDDDDDDDDDDDDDDDDDD",
"DDDDDDDDDDDDDDDDDDDDDDDD48NNnBACNNMDDDDDDDDDDDDDDDDDDDDDDDDDDDDDDDDDDDDDDDDDDmNCNn1DDDDD5mBMNVCrppz>:scchDDDDDDDD55-r>ipfa=DDDDDDDDDDDDDDDDDDDDDDDDDDDDDDDDDD5pgDDDDDDDDDDDDDDDDDDDDDDDDDDDDDDDD",
"DDDDDDDDDDDDDDDDDDDDDDDD57vMMNBZBNMDDDDDDDDDDDDDDDDDDDDDDDDDDDDDDDDDDDDDDDDDDDDNNVm81DDD58nMNNSCNaasp*-$gDDDDD555576rgpkccgDDDDDDDDDDDDDDDDDDDDDDDDDDDDDDD455=pz1DDDDDDDDDDDDDDDDDDDDDDDDDDDDDDD",
"DDDDDDDDDDDDDDDDXXXXDDDD68vmNNSZBNMDDDDDDDDDDDDDDDDDDDDDDDDDDDDDDDDDDDDDDDDDDDDDbNBBV4DD8vvNNBSCNNMDDhhDDD,555nmM6NBMDtglcDDDDDDDDDDDDDDDDDDDDDDDDDDDDDDD5555&c54,DDDDDDDDDDDDDDDDDDDDDDDDDDDDDD",
"DDDDDDDDDDDDDDDXXXo##DDD4555nBSCVNMDDDDDDDDDDDDDDDDDDDDDDDDDDDDDDDDDDDDDDDDDDDDDDDNbNBv1<858NSZCBN454<D5558vMMMNmNDDDDDDDDDDDDDDDDDDDDDDDDDDDDDDDDDDDDDDD55555554,DDDDDDDDDDDDDDDDDDDDDDDDDDDDDD",
"DDDDDDDDDDDDDXXXoo#%%DDD1bbmMZCBBNNDDDDDDDDDDDDDDDDDDDDDDDDDDDDDDDDDDDDDDDDDDDDDDDDvNBMb75nMNBZBNN557655bnmmBN4DDDDDDDDDDDDDDDDDDDDDDDDDDDDDDDDDDDDDDDDDD55555541,DDDDDDDDDDDDDDDDDDDDDDDDDDDDDD",
"DDDDDDDDDDDDXXXo+#%2DDDDDvbMNMbZBNNDDDDDDDDDDDDDDDDDDDDDDDDDDDDDDDDDDDDDDDDDDDDDDDDDDNBNBnnNNnNCNm58nmvNmMNDDDDDDDDDDDDDDDDDDDDDDDDDDDDDDDDDDDDDDDDDDDDDD57555411<<DDDDDDDDDDDDDDDDDDDDDDDDDDDDD",
"DDDDDDDDDDDDXXo##%C%DDDDD8nMNVVVBNnDDDDDDDDDDDDDDDDDDDDDDDDDDDDDDDDDDDDDDDDDDDDDDDDDDD8NCNmMBVVVBM8mVBNDDDDDDDDDDDDDDDDDDDDDDDDDDDDDDDDDDDDDDDDDDDDDDDDD458b5551<<@-$&*@DDDDDDDDDDDDDDDDDDDDDDDD",
"DDDDDDDDDDDXXo##%j%,,,DDD4vMNBBBBNNDDDDDDDDDDDDDDDDDDDDDDDDDDDDDDDDDDDDDDDDDDDDDDDDDDD7MBVnNBBBBNBDnB4DDDDDDDDDDDDDDDDDDDDDDDDDDDDDDDDDDDDDDDDDDDDDDDDDD45554111;---$$&@-+DDDDDDDDDDDDDDDDDDDDDD",
"DDDDDDDDDDDXo##%%%87641,,,4MNNBVBBDDDDDDDDDDDDDDDDDDDDDDDDDDDDDDDDDDDDDDDDDDDDDDDDDDDDDDD6mMNNBBNBDDDDDDDDDDDDDDDDDDDDDDDDDDDDDDDDDDDDDDDDDDDDDDDDDDDDDD4555411-&->&*-OOO$@DDDDDDDDDDDDDDDDDDDDD",
"DDDDDDDDDDDo#%%%NMMmnbv764<,MNBBBV4DDDDDDDDDDDDDDDDDDDDDDDDDDDDDDDDDDDDDDDDDDDDDDDDDDDDDD6bMBBBBBBDDDDDDDDDDDDDDDDDDDDDDDDDDDDDDDDDDDDDDDDDDDDDDDDDDDDDD<5555<=&&O&;;*O909-$DDDDDDDDDDDDDDDDDDDD",
"DDDDDDDDDDDD%%%DDD,mNMMmnbv86NNBBM8DDDDDDDDDDDDDDDDDDDDDDDDDDDDDDDDDDDDDDDDDDDDDDDDDDDDDDDvMNNBBVv4DDDDDDDDDDDDDDDDDDDDDDDDDDDDDDDDDDDDDDDDDDDDDDDDDDDDD474154-;OO9-*-0qqq33DDDDDDDDDDDDDDDDDDDD",
"DDDDDDDDDDDDDDDDDDDDDDDnMMMMmbNBvnv4DDDDDDDDDDDDDDDDDDDDDDDDDDDDDDDDDDDDDDDDDDDDDDDDDDDDDDDmMMBVbb8DDDDDDDDDDDDDDDDDDDDDDDDDDDDDDDDDDDDDDDD&=$$@DDDDDDDD47514=$O9000:irqq>r:pDDDD;*&$@DDDDDDDDDD",
"DDDDDDDDDDDDDDDDDDDDDDDDDDD,MNDD7bb8DDDDDDDDDDDDDDDDDDDDDDDDDDDDDDDDDDDDDDDDDDDDDDDDDDDDDDDDDDDDvnv4DDDDDDDDDDDDDDDDDDDDDDDDDDDDDDDDDDDDDD=&;>r>>DDDDDDDD7854=&-0qw>trprparprDDD*-=;-&@DDDDDDDDD",
"DDDDDDDDDDDDDDDDDDDDDDDDDDDDDDDDDvnv4DDDDDDDDDDDDDDDDDDDDDDDDDDDDDDDDDDDDDDDDDDDDDDDDDDDDDDDDDDD7bb8DDDDDDDDDDDDDDDDDDDDDDDDDDDDDDDDDDDDDD=3ahss<DDDDDDDDvv55=--rqtrrtssdyirpD555-iapai;DDDDDDDD",
"DDDDDDDDDDDDDDDDDDDDDDDDDDDDDDDDD7bb8DDDDDDDDDDDDDDDDDDDDDDDDDDDDDDDDDDDDDDDDDDDDDDDDDDDDDDDDDDDDvnv4DDDDDDDDDDDDDDDDDDDDDDDDDDDDDDDDDDDDDiflckz71DDDDDDD5bM4-*>>ritpdpkdattt1558migkclfDDDDDDDD",
"DDDDDDDDDDDDDDDDDDDDDDDDDDDDDDDDDDvnv4DDDDDDDDDDDDDDDDDDDDDDDDDDDDDDDDDDDDDDDDDDDDDDDDDDDDDDDDDDD7bb7DDDDDDDDDDDDDDDDDDDDDDDDDDDDDDDDDDDDDDfcl55N<,1DDDDD8mMN-&:3iptsapdskdgsmNnBNDpacDDDDDDDDDD",
"DDDDDDDDDDDDDDDDDDDDDDDDDDDDDDDDDD7bb7DDDDDDDDDDDDDDDDDDDDDDDDDDDDDDDDDDDDDDDDDDDXX.DDDDDDDDDDDDDDvnv4DDDDDDDDDDDDDDDDDDDDDDDDDDDDDDDDDDDDDDDDD,,,<b8<DDD1vmN==>ipasgfcgkdzkdvDDDDDDDDDDDDDDDDDD",
"DDDDDDDDDDDDDDDDDDDDDDDDDDDDDDDDDDDvnv4DDDDDDDDDDDDDDDDDDDDDDDDDDDDDDDDDDDDDDDDXXXXooDDDDDDDDDDDDD7bb7DDDDDDDDDDDDDDDDDDDDDDDDDDDDDDDDDDDDDDDDDDD<16mV14D18mNNriipaackzgcks@DDDDDDDDDDDDDDDDDDDD",
"DDDDDDDDDDDDDDDDDDDDDDDDDDDDDDDDDDD7bb7DDDDDDDDDDDDDDDDDDDDDDDDDDDDDDDDDDDDDDDXXXoo##DDDDDDDDDDDDDDvnv4DDDDDDDDDDDDDDDDDDDDDDDDDDDDDDDDDDDDDDDDDDDDmb.Bv11bmMV-iiaffgkdzsk@$DDDDDDDDDDDDDDDDDDDD",
"DDDDDDDDDDDDDDDDDDDDDDDDDDDDDDDDDDDDvnv4DDDDDDDDDDDDDDDDDDDDDDDDDDDDDDDDDDDDDXXXo##6DDDDDDDDDDDDDDD7bb7DDDDDDDDDDDDDDDDDDDDDDDDDDDDDDDDDDDDDDDDDDDDDXXo51bvnN1Nurfgddg-&33@DDDDDDDDDDDDDDDDDDDDD",
"DDDDDDDDDDDDDDDDDDDDDDDDDDDDDDDDDDDD7bb7DDDDDDDDDDDDDDDDDDDDDDDDDDDDDDDDDDDDXXXo##2%,,DDDDDDDDDDDDDDvnv4DDDDDDDDDDDDDDDDDDDDDDDDDDDDDDDDDDDDDDDDDDDXXo#1<1,D<NNBarggz-=papDDDDDDDDDDDDDDDDDDDDDD",
"DDDDDDDDDDDDDDDDDDDDDDDDDDDDDDDDDDDDDvnv,DDDDDDDDDDDDDDDDDDDDDDDDDDDDDDDDDDDXoo#%2%41<<,,,,,,DDDDDDD7bb7DDDDDDDDDDDDDDDDDDDDDDDDDDDDDDDDDDDDDDDDDDXXo#%#1<<<,,,1,5aad>adcgDDDDDDDDDDDDDDDDDDDDDD",
"DDDDDDDDDDDDDDDDDDDDDDDDDDDDDDDDDDDDD7bb7DDDDDDDDDDDDDDDDDDDDDDDDDDDDDDDDDDXXo#%%%bbv88776541<DDDDDDDvnv,DDDDDDDDDDDDDDDDDDDDDDDDDDDDDDDDDDDDDDDDDXX#%2<<,,<,68bmN511@&;>$DDDDDDDDDDDDDDDDDDDDDD",
"DDDDDDDDDDDDDDDDDDDDDDDDDDDDDDDDDDDDDDvnv,DDDDDDDDDDDDDDDDDDDDDDDDDDDDDDDDDDo#%%%MNMMMMmmnnbvvDDDDDDD7bb,DDDDDDDDDDDDDDDDDDDDDDDDDDDDDDDDDDDDDDDDXXo#%%,1,78nmNDDDDD1111<DDDDDDXXDDDDDDDDDDDDDDD",
"DDDDDDDDDDDDDDDDDDDDDDDDDDDDDDDDDDDDDD7bb,DDDDDDDDDDDDDDDDDDDDDDDDDDDDDDDDDD#%.DDDDDDDDDD,MNMMDDDDDDDDvn<,DDDDDDDDDDDDDDDDDDDDDDDDDDDDDDDDDDDDDDDXo#%V%7vnMNDDDDDDDDD1111<DDDDX##oDDDDDDDDDDDDDD",
"DDDDDDDDDDDDDDDDDDDDDDDDDDDDDDDDDDDDDDDvn<,DDDDDDDDDDDDDDDDDDDDDDDDDDDDDDDDDDDDDDDDDDDDDDDDDDDDDDDDDDD7b1,DDDDDDDDDDDDDDDDDDDDDDDDDDDDDDDDDDDDDDDXo#%%mM<DDDDDDDDDDDDD51111,DXo#%#DDDDDDDDDDDDDD",
"DDDDDDDDDDDDDDDDDDDDDDDDDDDDDDDDDDDDDDD7b1,DDDDDDDDDDDDDDDDDDDDDDDDDDDDDDDDDDDDDDDDDDDDDDDDDDDDDDDDDDDDv1<,DDDDDDDDDDDDDDDDDDDDDDDDDDDDDDDDDDDDDDo#%2XDDDDDDDDDDDDDDDDD51111,X#%%#DDDDDDDDDDDDDD",
"DDDDDDDDDDDDDDDDDDDDDDDDDDDDDDDDDDDDDDDDv1<,DDDDDDDDDDDDDDDDDDDDDDDDDDDDDDDDDDDDDDDDDDDDDDDDDDDDDDDDDDD711,DDDDDDDDDDDDDDDDDDDDDDDDDDDDDDDDDDDDDDo#%%DDDDDDDDDDDDDDDDDDD,1111o#j%#DDDDDDDDDDDDDD",
"DDDDDDDDDDDDDDDDDDDDDDDDDDDDDDDDDDDDDDDD711XXXX.DDDDDDDDDDDDDDDDDDDDDDDDDDDDDDDDDDDDDDDDDDDDDDDDDDDDDDDD11<XXX.DDDDDDDDDDDDDDDDDDDDDDDDDDDDDDDDDDD%%DDDDDDDDDDDDDDDDDDDDDD11.o%M%%DDDDDDDDDDDDDD",
"DDDDDDDDDDDDDDDDDDDDDDDDDDDDDDDDDDDDDDDDD1XXXXX#DDDDDDDDDDDDDDDDDDDDDDDDDDDDDDDDDDDDDDDDDDDDDDDDDDDDDDDD11XXXXo#DDDDDDDDDDDDDDDDDDDDDDDDDDDDDDDDDDDDDDDDDDDDDDDDDDDDDDDDDDD1X#2j%DDDDDDDDDDDDDDD",
"DDDDDDDDDDDDDDDDDDDDDDDDDDDDDDDDDDDDDDDDXXXXo#2%DDDDDDDDDDDDDDDDDDDDDDDDDDDDDDDDDDDDDDDDDDDDDDDDDDDDDDDDXXXXo%%DDDDDDDDDDDDDDDDDDDDDDDDDDDDDDDDDDDDDDDDDDDDDDDDDDDDDDDDDDDDDX#22%DDDDDDDDDDDDDDD",
"DDDDDDDDDDDDDDDDDDDDDDDDDDDDDDDDDDDDDDDDDo+#%%DDDDDDDDDDDDDDDDDDDDDDDDDDDDDDDDDDDDDDDDDDDDDDDDDDDDDDDDDDoo##%.DDDDDDDDDDDDDDDDDDDDDDDDDDDDDDDDDDDDDDDDDDDDDDDDDDDDDDDDDDDDDDX%2%%DDDDDDDDDDDDDDD"
};
