/* XPM */
static char *magick[] = {
/* columns rows colors chars-per-pixel */
"192 64 61 1",
"  c Gray0",
". c Gray2",
"X c Gray4",
"o c #0e0e0e",
"O c #101010",
"+ c Gray7",
"@ c #151515",
"# c #191919",
"$ c #1d1d1d",
"% c #232323",
"& c Gray17",
"* c Gray20",
"= c #3c3c3c",
"- c #776831",
"; c #434343",
": c #4c4c4c",
"> c #535353",
", c #5b5b5b",
"< c #686867",
"1 c #716f6d",
"2 c #797877",
"3 c #827136",
"4 c #8a7839",
"5 c #96833e",
"6 c #9d8941",
"7 c #82807d",
"8 c #a38d43",
"9 c #aa9446",
"0 c #ad9647",
"q c #b49d4b",
"w c #bba34d",
"e c #c1a850",
"r c #c5ac52",
"t c #ccb255",
"y c #d4b858",
"u c #ddc15d",
"i c #e3c55e",
"p c #e8ca63",
"a c #f5d86f",
"s c #898785",
"d c #92908d",
"f c #969391",
"g c #999694",
"h c #9c9996",
"j c #9e9b99",
"k c #a2a09d",
"l c #aba8a5",
"z c #b1aeab",
"x c #b4b1ae",
"c c #b9b6b3",
"v c #bab7b5",
"b c #bcb9b6",
"n c #c1beba",
"m c #c5c1be",
"M c #fff38e",
"N c #c9c6c2",
"B c #cac7c5",
"V c #cdc9c6",
"C c #d7d6d6",
"Z c #e7e7e7",
"A c None",
/* pixels */
"AAAAAAAAAAAAAAAAAAAAAAAAAAAAAAAAAAAAAAAAAAAAAAAAAAAAAAAAAAAAAAAAAAAAAAAAAAAAAAAAAAAAAAAAAAAAAAAAAAAAAAAAAAAAAAAAAAAAAAAAAAAAAAAAAAAAAAAAAAAAAAAAAAAAAAAAAAAAAAAAAAAAAAAAAAAAAAAAAAAAAAAAAAAAAAAA",
"AAAAAAAAAAAAAAAAAAAAAAAAAAAAAAAAAAAAAAAAAAAAAAAAAAAAAAAAAAAAAAAAAAAAAAAAAAAAAAAAAAAAAAAAAAAAAAAAAAAAAAAAAAAAAAAAAAAAAAAAAAAAAAAAAAAAAAAAAAAAAAAAAAAAAAAAAAAAAAAAAAAAAAAAAAAAAAAAAAAAAAAAAAAAAAAA",
"AAAAAAAAAAAAAAAAAAAAAAAAAAAAAAAAAAAAAAAAAAAAAAAAAAAAAAAAAAAAAAAAAAAAAAAAAAAAAAAAAAAAAAAAAAAAAAAAAAAAAAAAAAAAAAAAAAAAAAAAAAAAAAAAAAAAAAAAAAAAAAAAAAAAAAAAAAAAAAAAAAAAAAAAAAAAAAAAAAAAAAAAAAAAAAAA",
"AAAAAAAAAAAAAAAAAAAAAAAAAAAAA      AAAAAAAAAAAAAAAAAAAAAAAAAAAAAAAAAAAAAAAAAAAAAAAAAAAAAAAAAAAAAAAAAAAAAAAAAAAAAAAAAAAAAAAAAAAAAAAAAAAAAAAAAAAAAAAAAAAAAAAAAAAAAAAAAAAAAAAAAAAAAAAAAAAAAAAAAAAAA",
"AAAAAAAAAAAAAAAAAAAAAAAAAAA          AAAAAAAAAAAAAAAAAAAAAAAAAAAAAAAAAAAAAAAAAAAAAAAAAAAAAAAAAAAAAAAAAAAAAAAAAAAAAAAAAAAAAAAAAAAAAAAAAAAAAAAAAAAAAAAAAAAAAAAAAAAAAAAAAAAAAAAAAAAAAAAAAAAAAAAAAAA",
"AAAAAAAAAAAAAAAAAAAAAAAAAA            AAAAAAAAAAAAAAAAAAAAAAAAAAAAAAAAAAAAAAAAAAAAAAAAAAAAAAAAAAAAAAAAAAAAAAAAAAAAAAAAAAAAAAAAAAAAAAAAAAAAAAAAAAAAAAAAAAAAAAAAAAAAAAAAAAAAAAAAAAAAAAAAAAAAAAAAAA",
"AAAAAAAAAAAAAAAAAAAAAAAAA              AAAAAAAAAAAAAAAAAAAAAAAAAAAAAAAAAAAAAAAAAAAAAAAAAAAAAAAAAAAAAAAAAAAAAAAAAAAAAAAAAAAAAAAAAAAAAAAAAAAAAAAAAAAAAAAAAAAAAAAAAAAAAAAAAAAAAAAAAAAAAAAAAAAAAAAAA",
"AAAAAAAAAAAAAAAAAAAAAAAA           .X  AAAAAAAAAAAAAAAAAAAAAAAAAAAAAAAAAAAAAAAAAAAAAAAAAAAAAAAAAAAAAAAAAAAAAAAAAAAAAAAAAAAAAAAAAAAAAAAAAAAAAAAAAAAAAAAAAAAAAAAAAAAAAAAAAAAAAAAAAAAAAAAAAAAAAAAAA",
"AAAAAAAAAAAAAAAAAAAAAAAA       .  .*;o  AAAAAAAAAAAAAAAAAAAAAAAAAAAAAAAAAAAAAAAAAAAAAAAAAAAAAAAA     AAAAAAAAAAAAAAAAAAAAAAAAAAAAAAAAAAAAAAAAAAAAAAAAAAAAAAAAAAAAAAAAAAAAAAAAAAAAAAAAAAAAAAAAAAA",
"AAAAAAAAAAAAAAAAAAAAAAAA      X$#.X;2*. AAAAAAAAAAAAAAAAAAAAAAAAAAAAAAAAAAAAAAAAAAAAAAAAAAAAAA         AAAAAAAAAAAAAAAAAAAAAAAAAAAAAAAAAAAAAAAAAAAAAAAAAAAAAAAAAAAAAAAAAAAAAAAAAAAAAAAAAAAAAAAAA",
"AAAAAAAAAAAAAAAAAAAAAAA       #:;+.*s>+o AAAAAAAAAAAAAAAAAAAAAAAAAAAAAAAAAAAAAAAAAAAAAAAAAAA            AAAAAAAAAAAAAAAAAAAAAAAAAAAAAAAAAAAAAAAAAAAAAAAAAAAAAAAAAAAAAAAAAAAAAAAAAAAAAAAAAAAAAAAA",
"AAAAAAAAAAAAAAAAAAAAAAA      .%<,$.$<>@# AAAAAAAAAAAAAAAAAAAAAAAAAAAAAAAAAAAAAAAAAAAAAAAAAA              AAAAAAAAAAAAAAAAAAAAAAAAAAAAAAAAAAAAAAAAAAAAAAAAAAAAAAAAAAAAAAAAAAAAAAAAAAAAAAAAAAAAAAA",
"AAAAAAAAAAAAAAAAAAAAAAA      .%,>#.+:;$% AAAAAAAAAAAAAAAAAAAAAAAAAAAAAAAAAAAAAAAAAAAAAAAAAA   lcm   CC    AAAAAAAAAAAAAAAAAAAAAAAAAAAAAAAAAAAAAAAAAAAAAAAAAAAAAAAAAAAAAAAAAAAAAAAAAAAAAAAAAAAAAA",
"AAAAAAAAAAAAAAAAAAAAAAA     vmV:;@ZZZ*$*XAAAAAAAAAAAAAAAAAAAAAAAAAAAAAAAAAAAAAAAAAAAAAAAAA   ll mV CCZZ   AAAAAAAAAAAAAAAoAAAAAAAAAAAAAAAAAAAAAAAAAAAAAAAAAAAAAAAAAAAAAAAAAAAAAAAAAAAAAAAAAAAAAA",
"AAAAAAAAAAAAAAAAAAAAAAA    cbmV*&ZZZZ%$=+AAAAAAAAAAAAAAAAAAAAAAAAAAAAAAAAAAAAAAAAAAAAAAAAA   l   V C       AAAAAAAAAAAAoo+AAAAAAAAAAAAAAAAAAAAAAAAAAAAAAAAAAAAAAAAAAAAAAAAAAAAAAAAAAAAAAAAAAAAAA",
"AAAAAAAAAAAAAAAAAAAAAA     c  .C$C  .Z#;@AAAAAAAAAAAAAAAAAAAAAAAAAAAAAAAA+@++AAAAAAAAAAAAA   l   V C   Z   AAAAAAAAAAooo++AAAAAAAAAAAAAAAAAAAAAAAAAAAAAAAAAAAAAAAAAAAAAAAAAAAAAAAAAAAAAAAAAAAAAA",
"AAAAAAAAAAAAAAAAAAAAAA     c   C@C   Z#;$ AAAAAAAAAAAAAAAAAAAAAAAAAAAAAAA+@@@@++AAAAAAAAA    l   - C   C   AAAAAAAAAoooo+<AAAAAAAAAAAAAAAAAAAAAAAAAAAAAAAAAAAAAAAAAAAAAAAAAAAAAAAAAAAAAAAAAAAAAA",
"AAAAAAAAAAAAAAAAAAAAAA     c   C+C   Z@:% AAAAAAAAAAAAAAAAAAAAAAAAAAAAAAA+@@@@@@++AAAAAAA    z489yyyt8 Z   AAAAAAAAoooo++AAAAAAAAAAAAAAAAAAAAAAAAAAAAAAAAAAAAAAAAAAAAAAAAAAAAAAAAAAAAAAAAAAAAAAA",
"AAAAAAAAAAAAAAAAAAAAAA     c   CXC   Z@:& AAAAAAAAAAAAAAAAAAAAAAAAAAAAAAAA&@@@@@@@++AAAAA    49qqyypau-    AAAAAAXoooo++$AAAAAAAAAAAAAAAAAAAAAAAAAAAAAAAAAAAAAAAAAAAAAAAAAAAAAAAAAAAAAAAAAAAAAAA",
"AAAAAAAAAAAAAAAAAAAAAA     cv BXwwC ZX+:* AAAAAAAAAAAAAAAAAAAAAAAAAAAAAAAA,@@@@@@@@+AAAAA    60qetiuiu3     AAAAXoooooo+AAAAAAAAAAAAAAAAAAAAAAAAAAAAAAAAAAAAAAAAAA  AAAAAAAAAAAAAAAAAAAAAAAAAAAA",
"AAAAAAAAAAAAAAAAAAAAAA      68qetttrZ.+:= AAAAAAAAAAAAAAAAAAAAAAAAAAAAAAAAA=@@@@@@@@XAAAA    69qqqrtt53     AAAAooooo++$AAAAAAAAAAAAAAAAAAAAAAAAAAAAAAAAAAAAAAA        AAAAAAAAAAAAAAAAAAAAAAAAA",
"AAAAAAAAAAAAAAAAAAAAAA     589wtyuuuu +;= AAAAAAAAAAAAAAAAAAAAAAAAAAAAAAAAA$#@@@@@@@XAAA     58899qww43     AAAoooooo++@AAAAAAAAAAAAAAAAAAAAAAAAAAAAAAAAAAAAAA  5qtuytb  AAAAAAAAAAAAAAAAAAAAAAA",
"AAAAAAAAAAAAAAAAAAAAAA     69qryuippp +:= AAAAAAAAAAAAAAAAAAAAAAAAAAAAAAAAA+=@@@@@@@XXAA      55568443      AAAooooo+o*AAAAAAAAAAAAAAAAAAAAAAAAAAAAAAAAAAAAAA  80ryuppp   AAAAAAAAAAAAAAAAAAAAAA",
"AAAAAAAAAAAAAAAAAAAAAA     60qwyupMaa +:= AAAAAAAAAAAAAAAAAAAAAAAAAAAAAAAAAA&$@@@@@@@XAA      dfjkss77      AAooooo+++$AAAAAAAAAAAAAAAAAAAAAAAAAAAAAAAAAAAAA  50qrMMppMp  AAAAAAAAAAAAAAAAAAAAAA",
"AAAAAAAAAAAAAAAAAAAAA      -50qttytwq      AAAAAAAAAAAAAAAAAAAAAAAAAAAAAAAAA+:@@@@@@@XAA    7sdhkklss72     AAooooo++:AAAAAAAAAAAAAAAAAAAAAAAAAAAAAAAAAAAAA   80qeupiipa   AAAAAAAAAAAAAAAAAAAAA",
"AAAAAAAAAAAAAAAAAAAAXX       4445655  >@  ooAAAAAAAAAAAAAAAAAAAAAAAAAAAAAAAAA$%@@@@@@@XA   7sdfhkllzz772    AAooo++o+&AAAAAAAAAAAAAAAAAAAAAAAAAAAAAAAAAAAAA   80qwtyyuiM   AAAAAAAAAAAAAAAAAAAAA",
"AAAAAAAAAAAAAAAAAA@oXo    hjjkkknmNBBN<&  oo++AAAAAAAAAAAAAAAAAAAAAAAAAAAAAAA+<#@@@@@@XA  7ssdgjkllzzz722   Aooooo++*AAAAAAAAAAAAAAAAAAAAAAAAAAAAAAAAAAAAA    60qwrttyuM    AAAAAAAAAAAAAAAAAAAA",
"AAAAAAAAAAAAAAAAA@@oo    ghjlzxvnmNBBNN;   oo++AAAAAAAAAAAAAAAAAAAAAAAAAAAAAAA$&@@@@@@XA  7ssfhkklzzxxx721  Aooo+++@=AAAAAAAAAAAAAAAAAAAAAAAAAAAAAAAAAAAAA     <1227777     AAAAAAAAAAAAAAAAAAAA",
"AAAAAAAAAAAAAAAA+7@oo    ghjlzxvnmNNBNN    oo++@AAAAAAAAAAAAAAAAAAAAAAAAAAAAAA+1$@@@@XX  7ssdfhkllzxxxxx22  Aoooo++&AAAAAAAAAAAAAAAAAAAAAAAAAAAAAAAAAAAAAA    11277ssssss   AAAAAAAAAAAAAAAAAAAA",
"AAAAAAAAAAAAAAAo&@@@o   ghjjlzxvnmNNNNds   oo+o@#AAAAAAAAAAAAAAAAAAAAAAAAAAAAAX#=#@@@XX 7sssdgjkllzxxccxx21  oo++o@=AAAAAAAAAAAAAAAAAAAAAAAAAAAAAAAAAAAAAA  11227sssdddddd  AAAAAAAAAAAAAAAAAAAA",
"AAAAAAAAAAAAAAA+%@@@o   ghjklzxvnmNNNfds    oo++=@AAAAAAAAAAAAAAAAAAAAAAAAAAAAA+s&@@@X  7sssdhjkllzxccccx22  oo+++#AAAAAAAAAAAAAAAAAAAAAAAAAAAAAAAAAAAAAA  12227ssddfffffgg  AAAAAAAAAAAAAAAAAAA",
"AAAAAAAAAAAAAAo,@@@@   fghjklzxvnmNNNgdds   oo+++*AAAAAAAAAAAAAAAAAAAAAAAAAAAAAo#:#@@X 7sssdfhkllzxccccvcx21 ooo+@&AAAAAAAAAAAAAAAAAAAAAAAAAAAAAAAAAAAAAA 12277sddfghhjhhjjj AAAAAAAAAAAAAAAAAAA",
"AAAAAAAAAAAAAA+#@@@o   fghjklzxvnmNNNNdds   ooo++1@AAAAAAAAAAAAAAAAAAAAAAAAAAAAA+:&@@X 7ssddgjkllzxcvvvbvcx1 oo++@AAAAAAAAAAAAAAAAAAAAAAAAAAAAAAAAAAAAAAA12777sdfgjjkkkkkkkkkAAAAAAAAAAAAAAAAAAA",
"AAAAAAAAAAAAAo,@+++o  fghhjklzxvnmmNNNfds7  ooooo+=AAAAAAAAAAAAAAAAAAAAAAAAAAAAAX@=@oo sssdfhjkllzxcbbbbbnnx  o++@AAAAAAAAAAAAAAAAAAAAAAAAAAAAAAAAAAAAAA12577sdfhjkkllllllkrwkAAAAAAAAAAAAAAAAAA",
"AAAAAAAAAAAAA+@++++   fghhjklzxvnnmNNNfdss   oooo+2AAAAAAAAAAAAAAAAAAAAAAAAAAAAAA+@@o 7ssddfhkllzxcvbbnnnnnn7 ooAAAAAAAAAAAAAAAAAAAAAAAAAAAAAAAAAAAAAAA ttttsdfhjklllzzzzllwww AAAAAAAAAAAAAAAAA",
"AAAAAAAAAAAAo<@+++o   fghjjklzxvbnmNNNfdss   oooo++&AAAAAAAAAAAAAAAAAAAAAAAAAAAAAA+oo ssdddgjkllzxcbbnnnnnmmn   AAAAAAAAAAAAAAAAAAAAAAAAAAAAAAAAAAAttAAttttttdgttllzxxxxxxzwwwwwwwwAAAAAAAAAAAAA",
"AAAAAAAAAAAA+@++++o  dfghjjllzxvbnmNNNNdss7   oooo+,AAAAAAAAAAAAAAAAAAAAAAAAAAAAAAA   ssdddgjkllzxvbnnnnnmmmm   AAAAAAAAAAAAAAAAAAAAAAAAAAAAAAAAAAAttttttttttdtttlzxccvvvcwwwwwwwwwAAAAAAAAAAAAA",
"AAAAAAAAAAAA;@+++o   ffghjkllzxvbnmNNNNdss7   oooo++$AAAAAAAAAAAAAAAAAAAAAAAAAAAAAA   sdddfhkklzxcvbnmmmmmmmm   AAAAAAAAAAAAAAAAAAAAAAAAAAAAAAAAAXottttttttttttttlzxcbbbnbwwwwwwwwpAAAAAAAAAAAAA",
"AAAAAAAAAAA+@+++oo   fgghjkllzxcbnmmNNNdss7    oooo+:AAAAAAAAAAAAAAAAAAAAAAAAAAAAAA  ssddffjkllzxcbnnmmmmmNNN    AAAAAAAAAAAAAAAAAAAAAAAAAAAAAAAooottttttttttttttzxcvbnnwwwwwwwwwwp+AAAAAAAAAAAA",
"AAAAAAAAAAA>++++o    fghhjkllzxcbnmmmNmdds7    ooooo+#AAAAAAAAAAAAAAAAAAAAAAAAAAAA   sdddfgjkllzxvbnmmNNmNNNN    AAAAAAAAAAAAAAAAAAAAAAAAAAAAAXooo+3ttttttttttttezxcbngwwwwwwwwwwp@++AAAAAAAAAAA",
"AAAAAAAAAAo@+++oo   dfghhjkllzxcbnmmmmmmds77    oooo+=AAAAAAAAAAAAAAAAAAAAAAAAAAAA    ddffgjklzxcvnnmNNNNNBBB    AAAAAAAAAAAAAAAAAAAAAAAAAAAAooo+o+3ttttttttttttlzxcbng5wwwwwwwwpp@@@+AAAAAAAAAA",
"AAAAAAAAAA&++++o    dfghhjkllzxcbnmmmmmmds77    Xoooo+@AAAAAAAAAAAAAAAAAAAAAAAAAAA    ddfghkklzxcbnmmNNNNBVVV     AAAAAAAAAAAAAAAAAAAAAAAAAAooo++#o 3tttttttttttzxcvnnhg5wwwwwwpp  *@@+AAAAAAAAA",
"AAAAAAAAAA@+++o     dfghhjkklzxcbnnmmmNNmss7     Xooo+$AAAAAAAAAAAAAAAAAAAAAAAAAA     dfgghkllzxcbnmmNNBNVVVV...  AAAAAAAAAAAAAAAAAAAAAAAAooo++&+oo 3ttttttttttlzxcbnjhh56wwwwap   +=#@@AAAAAAAA",
"AAAAAAAAA@+++oA     dfghhjkklzxcvnnnmmmNBfdd*:&. AXooo+AAAAAAAAAAAAAAAAAAAAAAAAAA      fghhkllzxcbnmNNBBBVVV%XXX  AAAAAAAAAAAAAAAAAAAAAAAoooo+@ooXA  4tttt0ttte zxvbjj   669waap.. oo@%@@AAAAAAA",
"AAAAAAAAA@+++AA     dfghhjjklzxcvbnnnnmNNfdd=>*X AAXooo%AAAAAAAAAAAAAAAAAAAAAAAAA      fghhkllzxcbnmNNBBBVV<*+o+. AAAAAAAAAAAAAAAAAAAAAoooo++oXXAAA  4tttttttt            69eaa.X. Xoo+%#@AAAAAA",
"AAAAAAAA++++AAA     dfghhjjkllzxcbbnnnmmNfdd=>=X AAAAXo+AAAAAAAAAAAAAAAAAAAAAAAAA       ghjkllzxcbnmNNBBBVV1=#@#X AAAAAAAAAAAAAAAAAAAAoo+++XXAAAAAA   4tttttte   .XX.     >9e%XXoX  AXo+##@AAAAA",
"AAAAAAAA@++AAAAA    dfgghjjkllzxcvbbbnmmNfdd;,*.AAAAAAXo&AAAAAAAAAAAAAAAAAAAAAAAA       ghjkllzxcbnmNNNNBVs<=#$%+ AAAAAAAAAAAAAAAAAAoo++ooAAAAAAAA    4tttttwe .o$&&$o. @=<7<&+o@o. AAAXo$$@AAAA",
"AAAAAAAA++AAAAAA    dffghhjkllzxccvbbbnmmfdd:>% AAAAAAAX+AAAAAAAAAAAAAAAAAAAAAAAA        hjkklzxcbnmNNNNB<2,*$&*# AAAAAAAAAAAAAAAAAo+ooAAAAAAAAAAA     4tttww  X%;,,;%o.+*<s1*@#$@. AAAAXXo%@AAA",
"AAAAAAAAAAAAAAAA     dfghhjjkllzxcccvbnnmdd&:;+ AAAAAAAAAAAAAAAAAAAAAAAAAAAAAAAAA         jkklzxcbnmNNNN=,<:&$*=$ AAAAAAAAAAAAAAAAAAAAAAAAAAAAAAAA      459w  .+*:<<:&@.X$:1<*#%&#. AAAAAAXo$AAA",
"AAAAAAAAAAAAAAAA     dffghhjjllzzxxxcvbnndd&;*X AAAAAAAAAAAAAAAAAAAAAAAAAAAAAAAAA          jklzxcbnmmNN+&::*$%;=@ AAAAAAAAAAAAAAAAAAAAAAAAAAAAAAAAA      59   .o$&***$o. X$=;&$*=#  AAAAAAAAX#AA",
"AAAAAAAAAAAAAAAAA     dfgghhhklllzzzxccbbds&*$ AAAAAAAAAAAAAAAAAAAAAAAAAAAAAAAAAA           kllxcbnnmm.X$&*%#*:;o AAAAAAAAAAAAAAAAAAAAAAAAAAAAAAAAA            .XXXXX..   X#$$%;;# AAAAAAAAAAAoA",
"AAAAAAAAAAAAAAAAA     dffggghjkkllllzxxccv+%%X AAAAAAAAAAAAAAAAAAAAAAAAAAAAAAAAAA            .lzxvbno. .o@#@$=>=X AAAAAAAAAAAAAAAAAAAAAAAAAAAAAAAAA                        .X+&>;+ AAAAAAAAAAAAA",
"AAAAAAAAAAAAAAAAA      ddffffhjkkklllzzxxc@$@  AAAAAAAAAAAAAAAAAAAAAAAAAAAAAAAAAAA            X+$%$+.   .XXo%:,& AAAAAAAAAAAAAAAAAAAAAAAAAAAAAAAAAA                          o*,=X AAAAAAAAAAAAA",
"AAAAAAAAAAAAAAAAAA     dddddffhjjkkkllzzxX+@. AAAAAAAAAAAAAAAAAAAAAAAAAAAAAAAAAAAA             XXooX      .o&>># AAAAAAAAAAAAAAAAAAAAAAAAAAAAAAAAAA                          +=>&. AAAAAAAAAAAAA",
"AAAAAAAAAAAAAAAAAAA     sdddddfghjjkllll XoX  AAAAAAAAAAAAAAAAAAAAAAAAAAAAAAAAAAAA     0p                9p+*>=X AAAAAAAAAAAAAAAAAAAAAAAAAAAAAAAAAAA                         +=;@ AAAAAAAAAAAAAA",
"AAAAAAAAAAAAAAAAAAA      ssddddfghhkkll  .X  AAAAAAAAAAAAAAAAAAAAAAAAAAAAAAAAAAAAw9  680pyt  0u    rp   69pyt;$ AAAAAAAAAAAAAAAAAAAAAAAAAAAAAAAAAAAA                         +*&. AAAAAAAAAAAAAA",
"AAAAAAAAAAAAAAAAAAAA      ssssddffgjkkk  .  AAAAAAAAAAAAAAAAAAAAAAAAAAAAAAAAAAAAAe9566833yt360ur   r043669pytt80yAAAAAAAAAAAAAAAAAAAAAAAAAAAAAAAAAAAA                        +%o AAAAAAAAAAAAAAA",
"AAAAAAAAAAAAAAAAAAA44      sssssdddgh       9AAAAAAAAAAAAAAAAAAAAAAAAAAAAAAAAAAAA395633333t480ur   r04363333tt80uAAAAAAAAAAAAAAAAAAAAAAAAAAAAAAAAAAAA                        o+  AAAAAAAAAAAAAAA",
"AAAAAAAAAAAAAAAAAA4444       777ssss      99999AAAAAAAAAAAAAAAAAAAAAAAAAAAAAAAAAA333333333333333   33333333333333AAAAAAAAAAAAAAAAAAAAAAAAAAAAAAAAAAAAA                       o. AAAAAAAAAAAAAAAA",
"AAAAAAAAAAAAAAAAA4444444                 9999999AAAAAAAAAAAAAAAAAAAAAAAAAAAAAAAAAA3333333333333    33333333333333AAAAAAAAAAAAAAAAAAAAAAAAAAAAAAAAAAAAAA                        AAAAAAAAAAAAAAAAA",
"AAAAAAAAAAAAAAAA44444444444          99999999999AAAAAAAAAAAAAAAAAAAAAAAAAAAAAAAAAA333333333333      333333333333AAAAAAAAAAAAAAAAAAAAAAAAAAAAAAAAAAAAAAAA                      AAAAAAAAAAAAAAAAAA",
"AAAAAAAAAAAAAAAAqyt669999r380tt   wyt369999rr80tpAAAAAAAAAAAAAAAAAAAAAAAAAAAAAAAAAA3333333333        33333333333AAAAAAAAAAAAAAAAAAAAAAAAAAAAAAAAAAAAAAAAA                    AAAAAAAAAAAAAAAAAAA",
"AAAAAAAAAAAAAAAAqy46680uMr38qtMAAAwy43689yMr380rpAAAAAAAAAAAAAAAAAAAAAAAAAAAAAAAAAAA33333333          333333333AAAAAAAAAAAAAAAAAAAAAAAAAAAAAAAAAAAAAAAAAAAA                 AAAAAAAAAAAAAAAAAAAA",
"AAAAAAAAAAAAAAAAq0wA680uMMAAqtMAAAq0qAA89yMMAA0rAAAAAAAAAAAAAAAAAAAAAAAAAAAAAAAAAAAAA333333            3333333AAAAAAAAAAAAAAAAAAAAAAAAAAAAAAAAAAAAAAAAAAAAAA              AAAAAAAAAAAAAAAAAAAAAA"
};
