/* XPM */
static char * cd_pic_xpm[] = {
"48 48 63 1",
" 	c None",
".	c #AEB2B6",
"+	c #BEBAC7",
"@	c #CFC7C7",
"#	c #D7D3DF",
"$	c #E7E3EF",
"%	c #EFEFF7",
"&	c #EFEBEF",
"*	c #E7E7EF",
"=	c #E7E3E7",
"-	c #DFDFE7",
";	c #DFDBDF",
">	c #C7BECF",
",	c #BEC3C7",
"'	c #CFCBCF",
")	c #CFCFCF",
"!	c #BEBABE",
"~	c #D7D3D7",
"{	c #EFEBE7",
"]	c #DFDBD7",
"^	c #B6B6B6",
"/	c #C7C3C7",
"(	c #AEAAB6",
"_	c #AEAAAE",
":	c #C7C3BE",
"<	c #B6B6BE",
"[	c #A69AA6",
"}	c #A6A2AE",
"|	c #494D51",
"1	c #868686",
"2	c #616161",
"3	c #8E8A8E",
"4	c #716D71",
"5	c #383438",
"6	c #868286",
"7	c #696971",
"8	c #595559",
"9	c #B6AEAE",
"0	c #202020",
"a	c #9E9A9E",
"b	c #A6A2A6",
"c	c #414141",
"d	c #797979",
"e	c #8E9296",
"f	c #96929E",
"g	c #9E9AA6",
"h	c #968A96",
"i	c #86828E",
"j	c #717586",
"k	c #8E8A96",
"l	c #968E96",
"m	c #9692A6",
"n	c #8E8A9E",
"o	c #AEAAA6",
"p	c #A6AAAE",
"q	c #9E9AAE",
"r	c #A6A2B6",
"s	c #9696A6",
"t	c #A69AAE",
"u	c #A6A29E",
"v	c #79798E",
"w	c #868296",
"x	c #8E8296",
"               .+@#$%&*$$$=---;>,++             ",
"              +$$%&&&&*&==$==;;###++            ",
"            +;&%%&&*&$======-=-;;'))!+          ",
"          +#$%%&&****==$===-=;;;;;~'>'++        ",
"        .+=%%&&&{={=======;=;;;]#;~~)!^/        ",
"       ^'$%%&&=&**={=====-=;;;;#~~~~)~!(^       ",
"      +#%%%&&&&={========;;;;;]~#~)~)''(_.      ",
"     +'&%%&&*{*{='=#@~=//~=~:]@/~<')'''>([}     ",
"    ^+$%&&&=&=*;|12342_56|)|676890~'''/@/(ab    ",
"   (+$%%{&*{***.3==1//2c62ba~8d81c'''/////ae}   ",
"   9#%&&&{&${==)|/43_13|:8!2!|64c2''@>//!+!f1g  ",
"  (+$%&{&*{=$*==^3~(6a#b;a;_6,_^af'/>////!!!6h  ",
"  (#%&&{**${=====-=;=;;;#~~~~~)'''/@//:+!!!(_d  ",
" (+&%&${={&=====-=;;;;;##~)~'')'>'///!/!!!(!(id ",
" .=%&&{**$=======;=;;;;~~~~'~'''@////!!!!^((9b7j",
".+$%&***{======-;;;;;;##~~~''''////,!!!<<((9(_27",
"9>%&{*=*======-=;=;;#>^[g}[b!+'///!:!!^<<(9(__k8",
"(#&&={=======-;;;;#)bflffefela(//,:!!!((((9__9a8",
"($&****======;=;;;^gffffmlnfknh}/+!!<!(((.9___o8",
"(%{{=======-];=];'glfefelnnfnfkk_+!!(<9(9____op6",
"(*&=*====-=;=;];)}ffffmleflnnnnnk!+!(((9_____}o6",
"(*&=======;;;;;#/bfkfnenmqgflkkkkk/(((.____opobj",
"(${=='!a_af(__/#^efmefmr}gg}qknkkk+^ald6d4366lbj",
"($*=#~;=;~;]~]~#,ffemnf}sggstfkkk1((ab9_bu_bbbbd",
"_$==~(/(.(_b9_~~>elnfnggggggssknkk((b1l3636d66bd",
"p=$==:_b(o_o__~~,lemklgqggssggn1k1^(l6v166j66bb4",
"(-===-~;;'/'!:'~^hnnlnn}gmgs}wkn1x+9baaalfbbbbad",
"}=-=;=;;;9__.b/)/.lknnhmq}qqfnk1ki/_a36d31bbuug4",
"r;=;=;;;;~~~~))'>!nehnnknkkk1kwwx+^__b_bbbubba[4",
"};;;;];#~~~~~))''/^kkkkkn1nnkwk3(<__pobbbbbuaab5",
"r+~;;;]~#~~~'''''/>^kknkkn1kw3i('__bobbbbbbaua15",
"}>~#;#]~~)~''''///://g3k1nx1xf/^_p_bbbbubgaugad0",
" }~)];~~~~'''''////!!>>(^(((>/(___bobbbbguaa[a58",
" }@'#~~~)'~''////!!!!!^^.(.9(__pobbbbbbuguaaai04",
"  g))~~~~''''///!/!!!<((((9(____bobbbbbg[aaa[8cw",
"  }</)~''''/////!!!^((((._____pbbbbbbgguaa[a604 ",
"   [)!))''@//:/!!!<<<a_bubboaloobbbbbgbaaaaa58  ",
"    +^!''>///:!+!!^(l914|86271bbubugauaa[aa|0   ",
"     /9^/@//:+!!!((l4a36bueka3bbbubabaaaaa80    ",
"      ^p(//!/!!!<((e63h6b2du33bbbaguaa[aa25     ",
"       (b_/!!!!(<(9h631l3a2a[lbgbaba[aaa75      ",
"        }ag!!<!(((931333ol2(_6ubabaaaaa85       ",
"         [ef!((9(9_a3lag16a66agbaa[a[a|0        ",
"           ii_((.___o_pb}bbbb[uaaaug650         ",
"            kdib9___po}_bbbbuuaa[g680           ",
"             kd773a__bbbbbbguga1d50|            ",
"               j2888i66djd4d44c002              ",
"                  v7||ccc555058                 "};
