/* XPM */
static char * chainsaw_icon2_xpm[] = {
"48 48 331 2",
"  	c None",
". 	c #8B7C6F",
"+ 	c #8C7A6B",
"@ 	c #94755B",
"# 	c #85807B",
"$ 	c #887D73",
"% 	c #8E7967",
"& 	c #8B7A6B",
"* 	c #887C73",
"= 	c #8E7867",
"- 	c #9C6758",
"; 	c #917465",
"> 	c #8B7869",
", 	c #9B6A59",
"' 	c #8F7569",
") 	c #92765D",
"! 	c #8B7A6C",
"~ 	c #828282",
"{ 	c #828181",
"] 	c #82807F",
"^ 	c #857F7B",
"/ 	c #857F7A",
"( 	c #8C7671",
"_ 	c #8F736E",
": 	c #8E746E",
"< 	c #91706D",
"[ 	c #976B5F",
"} 	c #996B59",
"| 	c #887B78",
"1 	c #907863",
"2 	c #8E7A68",
"3 	c #8C7B6C",
"4 	c #D9D9D9",
"5 	c #DBDBDB",
"6 	c #D5D5D5",
"7 	c #C6C6C6",
"8 	c #B4B4B4",
"9 	c #A2A2A2",
"0 	c #939393",
"a 	c #8B8783",
"b 	c #867C78",
"c 	c #887B76",
"d 	c #887A74",
"e 	c #8B7B6D",
"f 	c #937262",
"g 	c #986960",
"h 	c #99685F",
"i 	c #8D7968",
"j 	c #8A7C70",
"k 	c #8F7965",
"l 	c #8C1919",
"m 	c #6B0808",
"n 	c #D0D0D0",
"o 	c #BDBDBD",
"p 	c #96928D",
"q 	c #877E77",
"r 	c #8B786F",
"s 	c #926F64",
"t 	c #9E6555",
"u 	c #937162",
"v 	c #957258",
"w 	c #867E77",
"x 	c #867F78",
"y 	c #B51919",
"z 	c #B52929",
"A 	c #C55252",
"B 	c #B53A3A",
"C 	c #8C1010",
"D 	c #731919",
"E 	c #DADADA",
"F 	c #B6B4B1",
"G 	c #96857D",
"H 	c #966E5F",
"I 	c #9A6659",
"J 	c #9D6752",
"K 	c #986D54",
"L 	c #887C71",
"M 	c #84807C",
"N 	c #BD4242",
"O 	c #BD1919",
"P 	c #A51010",
"Q 	c #C6C4C2",
"R 	c #9B8378",
"S 	c #9D6951",
"T 	c #A2644E",
"U 	c #AE5A39",
"V 	c #8C786B",
"W 	c #887D74",
"X 	c #8B7B6B",
"Y 	c #B52121",
"Z 	c #CE1919",
"` 	c #DE1919",
" .	c #941010",
"..	c #B2A99F",
"+.	c #97725A",
"@.	c #9A6A57",
"#.	c #8C7B6B",
"$.	c #8F7864",
"%.	c #9A724E",
"&.	c #D61919",
"*.	c #7B0808",
"=.	c #C4C1BE",
"-.	c #917D6C",
";.	c #8F7865",
">.	c #8A7871",
",.	c #9B714C",
"'.	c #9C1919",
").	c #C51919",
"!.	c #E61919",
"~.	c #BFBAB5",
"{.	c #8F7D6D",
"].	c #897B70",
"^.	c #956A64",
"/.	c #9A714E",
"(.	c #847F7C",
"_.	c #A51919",
":.	c #C52121",
"<.	c #9A938D",
"[.	c #8B7A6E",
"}.	c #8F716E",
"|.	c #996B5A",
"1.	c #94745B",
"2.	c #AD1010",
"3.	c #C9C6C4",
"4.	c #936F65",
"5.	c #9C6B50",
"6.	c #BD2929",
"7.	c #FCF00C",
"8.	c #FFF200",
"9.	c #F6EC32",
"0.	c #ECE670",
"a.	c #DEDDC2",
"b.	c #908174",
"c.	c #987055",
"d.	c #A0654E",
"e.	c #9A6E55",
"f.	c #D65A5A",
"g.	c #CE6B6B",
"h.	c #C54A4A",
"i.	c #C54242",
"j.	c #EDE66D",
"k.	c #8C7E71",
"l.	c #957359",
"m.	c #917C6A",
"n.	c #9E7046",
"o.	c #9B6C51",
"p.	c #946F5F",
"q.	c #828180",
"r.	c #EF4242",
"s.	c #EF5252",
"t.	c #F6E900",
"u.	c #EEE100",
"v.	c #FCEF00",
"w.	c #F7EA00",
"x.	c #C8C8C8",
"y.	c #917863",
"z.	c #94765B",
"A.	c #94765A",
"B.	c #8A7C6F",
"C.	c #E65252",
"D.	c #C3B900",
"E.	c #908800",
"F.	c #E7DB00",
"G.	c #97918C",
"H.	c #93765D",
"I.	c #F78C8C",
"J.	c #EF3A3A",
"K.	c #867F00",
"L.	c #191700",
"M.	c #ECDF00",
"N.	c #696300",
"O.	c #8D7A6A",
"P.	c #987454",
"Q.	c #E9E482",
"R.	c #E66363",
"S.	c #D62929",
"T.	c #842121",
"U.	c #ABA200",
"V.	c #625D00",
"W.	c #F2E500",
"X.	c #8F8883",
"Y.	c #8F7966",
"Z.	c #F3EA43",
"`.	c #D4C900",
" +	c #E8DC00",
".+	c #FDF000",
"++	c #B0B0AF",
"@+	c #917761",
"#+	c #FAEF18",
"$+	c #FBEE00",
"%+	c #CFCFCF",
"&+	c #FEF103",
"*+	c #84807D",
"=+	c #A96931",
"-+	c #F9EC00",
";+	c #CECDCD",
">+	c #8B7A6D",
",+	c #92765E",
"'+	c #83817F",
")+	c #BEB400",
"!+	c #BBB100",
"~+	c #E2D600",
"{+	c #FEF100",
"]+	c #F4E700",
"^+	c #D0C500",
"/+	c #B1A700",
"(+	c #CCC100",
"_+	c #F3E600",
":+	c #B2AAAA",
"<+	c #575200",
"[+	c #474300",
"}+	c #9C9400",
"|+	c #EBDF00",
"1+	c #E9DD00",
"2+	c #333000",
"3+	c #746E00",
"4+	c #DCD000",
"5+	c #947B75",
"6+	c #B55A22",
"7+	c #B4AA00",
"8+	c #393600",
"9+	c #121100",
"0+	c #4D4900",
"a+	c #ADA400",
"b+	c #DACE00",
"c+	c #D3C800",
"d+	c #948C00",
"e+	c #423E00",
"f+	c #141200",
"g+	c #605B00",
"h+	c #D7CC00",
"i+	c #917563",
"j+	c #9C6756",
"k+	c #DCDBD4",
"l+	c #FCF00E",
"m+	c #1A1800",
"n+	c #3A3700",
"o+	c #5D5800",
"p+	c #544F00",
"q+	c #2B2800",
"r+	c #0F0E00",
"s+	c #171500",
"t+	c #454100",
"u+	c #A29900",
"v+	c #EDE000",
"w+	c #96908A",
"x+	c #8A7B6D",
"y+	c #90736A",
"z+	c #8C7575",
"A+	c #100F00",
"B+	c #070600",
"C+	c #5B5600",
"D+	c #B2A800",
"E+	c #EAE579",
"F+	c #C4C4C4",
"G+	c #8D7A69",
"H+	c #433F00",
"I+	c #373400",
"J+	c #726C00",
"K+	c #C6BB00",
"L+	c #F3EA49",
"M+	c #897871",
"N+	c #9E6257",
"O+	c #BAB000",
"P+	c #DED200",
"Q+	c #957064",
"R+	c #887A76",
"S+	c #F8EB00",
"T+	c #986B62",
"U+	c #AC5347",
"V+	c #B3ADAC",
"W+	c #986861",
"X+	c #8B796D",
"Y+	c #916F65",
"Z+	c #9B6859",
"`+	c #83807E",
" @	c #8F7367",
".@	c #847E7A",
"+@	c #B3B0AD",
"@@	c #8A7B70",
"#@	c #897C70",
"$@	c #877E76",
"%@	c #A09B98",
"&@	c #897B6E",
"*@	c #8C7A6A",
"=@	c #A86240",
"-@	c #957457",
";@	c #AAA9A8",
">@	c #858484",
",@	c #D6D6D6",
"'@	c #A29C98",
")@	c #878481",
"!@	c #837F7C",
"~@	c #897C71",
"{@	c #907964",
"]@	c #B7B4B1",
"^@	c #99938C",
"/@	c #8E8984",
"(@	c #837F7D",
"_@	c #8B796A",
":@	c #8B7B6C",
"<@	c #CFCFCE",
"[@	c #D3D3D3",
"}@	c #938C86",
"|@	c #8D7771",
"1@	c #8D7473",
"2@	c #8D7474",
"3@	c #887A78",
"4@	c #867F79",
"5@	c #907760",
"6@	c #92775E",
"7@	c #92755D",
"8@	c #996A5E",
"9@	c #897973",
"0@	c #906F6F",
"a@	c #936C6B",
"b@	c #956C64",
"c@	c #936C6C",
"d@	c #946B68",
"e@	c #BF4C1C",
"f@	c #936F69",
"g@	c #8B786E",
"h@	c #8D7470",
"i@	c #877D75",
"j@	c #857D77",
"k@	c #9A685D",
"l@	c #996A5D",
"m@	c #887A7A",
"n@	c #897979",
"o@	c #B75821",
"p@	c #8E756F",
"                                                                                                ",
".       +               @                                                                       ",
"# $ % & * = - ; >     , '     ) !                                                               ",
"~ ~ { ] ^ / / / / ( _ : <     [ }     | 1       2 3                                             ",
"4 5 5 5 5 5 5 5 6 7 8 9 0 a b c d e f g h     i j k                                             ",
"5 5 5 5 5 5 5 5 5 l m m 5 5 5 5 n o p q r s t u v     w x                                       ",
"5 5 5 5 y 5 z A B y l C D 5 5 5 5 5 5 5 E F G H I J K L M                                       ",
"5 y 5 5 5 N y y O y P P O D 5 5 5 5 5 5 5 5 5 5 Q R S T U   V W X                               ",
"5 5 5 5 5 Y y y Z ` Z O O  .D 5 5 5 5 5 5 5 5 5 5 5 5 ..+.@.f #.    $.%.                        ",
"5 5 A N y y O O O &.` &.&.&.*.5 5 5 5 5 5 5 5 5 5 5 5 5 5 =.-.;.  w >.,.                        ",
"5 5 N y y y y O O '.).!.&.P P 5 5 5 5 5 5 5 5 5 5 5 5 5 5 5 5 ~.{.].^.  /.(.~                   ",
"_.O O ).O y y y l D '.&.&.O :.5 5 5 5 5 5 5 5 5 5 5 5 5 l m m 5 5 <.[.}.|.1.                    ",
"N _.:.).y 2.2.y '.l l O &.:.5 5 5 5 5 5 5 5 5 y 5 z A B y l C D 5 5 3.+ 4.  5.x                 ",
"5 N :.6.y 2.y y y l y y y O 7.8.7.9.0.a.y 5 5 5 N y y O y P P O D 5 5 5 b.c.d.e.                ",
"5 f.g.g.h.h.y y ).Z y i.i.Y 8.8.8.8.8.8.j.5 5 5 Y y y Z ` Z O O  .D 5 5 5 k.l.                  ",
"5 5 5 g.h.h.i.` Z !.:.i.i.A 8.8.8.8.8.8.8.A N y y O O O &.` &.&.&.*.5 5 5 5 m.n.o.p.q.          ",
"5 5 5 5 5 5 r.r.!.!.s.t.u.t.8.8.v.w.w.v.8.N y y y y O O '.).!.&.P P 5 5 5 5 x.y.z.A.B.          ",
"5 5 y 5 5 5 5 r.!.!.C.D.E.y t.v.F.D.D._.O O ).O y y y l D '.&.&.O :.5 5 5 5 5 G.H.              ",
"5 5 5 5 5 I.J.J.!.O ` K.L.K.M.w.D.N.N.N _.:.).y 2.2.y '.l l O &.:.5 5 5 5 5 5 5 O.P.            ",
"5 5 5 5 5 5 Q.R.S._.T.U.V.U.W.w.D.N.N.D.N :.6.y 2.y y y l y y y O 5 5 5 5 5 5 5 X.Y.H.          ",
"5 5 5 5 5 5 Z.8._. . .T.`. +.+v.F.D.D.F.f.g.g.h.h.y y ).Z y i.i.Y m m 5 5 5 5 5 ++B.@+@         ",
"5 5 5 5 5 5 #+8.8.8.8..+$+.+8.8.v.w.w.v.8.8.g.h.h.i.` Z !.:.i.i.A l C D 5 5 5 5 %+/             ",
"5 5 5 5 5 5 &+8.8.8.8.8.8.8.8.8.8.8.8.8.8.8.8.8.y r.r.!.!.s.y O y P P O D 5 5 5 5 *+=+          ",
"5 5 5 5 5 5 &+8.8.v.w.w.v.8.8.8.8.8.$+t.-+y 8.8.&+5 r.!.!.C.y Z y Z O O  .D 5 5 ;+>+,+'+        ",
"5 5 5 5 5 5 #+8.v.F.)+!+~+v.8.8.{+]+^+/+(+_+{+8.I.J.J.!.O ` O O &.` &.&.&.*.5 5 :+%.            ",
"5 5 5 5 5 5 Z.8.w.)+<+[+}+|+{+.+1+/+V.2+3+4+v.8.Z.N R.S._.T.O O '.).!.&.P P 5 5 5+6+            ",
"5 5 5 5 5 5 Q.8.w.7+8+9+0+a+b+c+d+e+L.f+g+h+v._.O O )._. . .T.l D '.&.&.O :.5 5 i+j+            ",
"5 5 5 5 5 5 k+l+v.l m m m+n+o+p+q+r+s+t+u+v+{+N _.:.).y 2.2.y '.l l O &.:.5 5 w+x+y+z+          ",
"5 5 5 5 y 5 z A B y l C D A+s+r+B+m+C+D+1+.+8.E+N :.6.y 2.y y y l y y y O 5 F+G+                ",
"5 y 5 5 5 N y y O y P P O D H+8+I+J+K+]+{+8.L+5 f.g.g.h.h.y y ).Z y i.i.Y 5 M+N+                ",
"5 5 5 5 5 Y y y Z ` Z O O  .D O+)+P+-+8.8.Z.5 5 5 5 g.h.h.i.` Z !.:.i.i.A Q+  I R+              ",
"5 5 A N y y O O O &.` &.&.&.*.S+-+.+8.8.j.5 5 5 5 5 5 5 5 r.r.!.!.s.5 5 T+U+                    ",
"5 5 N y y y y O O '.).!.&.P P 8.7.9.0.a.5 5 5 5 5 y 5 5 5 5 r.!.!.C.V+W+y X++                   ",
"_.O O ).O y y y l D '.&.&.O :.5 5 5 5 5 5 5 5 5 5 5 5 5 I.J.J.!.O ` Y+Z+  `+M                   ",
"N _.:.).y 2.2.y '.l l O &.:.5 5 5 5 5 5 5 5 5 5 5 5 5 5 5 5 R.S._.T.   @.@                      ",
"5 N :.6.y 2.y y y l y y y O 5 5 5 5 5 5 5 5 5 5 5 5 5 5 5 +@@@_. . .T.#@$@                      ",
"5 f.g.g.h.h.y y ).Z y i.i.Y 5 5 5 5 5 5 5 5 5 5 5 5 5 %@&@*@  =@-@                              ",
"5 5 5 g.h.h.i.` Z !.:.i.i.A 5 5 5 5 5 5 5 5 5 5 ;@>@$@  B.+                                     ",
"5 5 5 5 5 5 r.r.!.!.s.5 5 5 5 5 5 5 5 5 ,@'@)@!@$@~@    {@Y.                                    ",
"5 5 y 5 5 5 5 r.!.!.C.5 5 y 5 5 ]@^@/@M (@_@    :@B.                                            ",
"<@[@4 4 ,@I.J.J.!.O ` }@|@1@2@3@4@/ $@  5@;.                                                    ",
"6@7@8@>.9@0@a@R.S._.T.b@c@d@e@    f@g@    h@                                                    ",
"i@j@    k@l@    _. . .T.m@n@o@                                                                  ",
"~ ~     p@$     + +                                                                             ",
"                                                                                                ",
"                                                                                                ",
"                                                                                                ",
"                                                                                                "};
