/* XPM */
static char * lightning_icon_xpm[] = {
"48 48 65 1",
" 	c None",
".	c #1C1D3F",
"+	c #8690C2",
"@	c #535898",
"#	c #C0CCF6",
"$	c #6C73C6",
"%	c #363A71",
"&	c #A3B0DB",
"*	c #6167A4",
"=	c #DEE7FC",
"-	c #484C85",
";	c #7982B1",
">	c #939FC9",
",	c #292C58",
"'	c #CDDBFC",
")	c #5359B2",
"!	c #6D74D8",
"~	c #B4C0F0",
"{	c #393D87",
"]	c #474C9A",
"^	c #CCD2F8",
"/	c #6168C3",
"(	c #313465",
"_	c #8690F6",
":	c #5A60BA",
"<	c #7C84DB",
"[	c #807ED8",
"}	c #757CEB",
"|	c #F0F9FC",
"1	c #95A0F9",
"2	c #AEB5F5",
"3	c #676ED1",
"4	c #C5D3F9",
"5	c #404378",
"6	c #E7E9FB",
"7	c #8E98FA",
"8	c #5A5F9B",
"9	c #AAB7F1",
"0	c #8D98C7",
"a	c #9DA7CF",
"b	c #404488",
"c	c #9DA8FB",
"d	c #22254A",
"e	c #737BB6",
"f	c #E2F2FC",
"g	c #ECF0FC",
"h	c #D7DCF9",
"i	c #FCFCFC",
"j	c #BBC5F4",
"k	c #7E8ABC",
"l	c #818AF3",
"m	c #4E5286",
"n	c #4D52A1",
"o	c #666EA0",
"p	c #B0BAF6",
"q	c #A5B0FB",
"r	c #CDD6F8",
"s	c #B6C6EC",
"t	c #6B74F4",
"u	c #6268D8",
"v	c #7B84F7",
"w	c #DBE2F9",
"x	c #3A3D74",
"y	c #7F86AC",
"z	c #9EA2B4",
"....ddddddd...ddddddd.d,,,(,dd,,,ddd,,d,,,,,(,,,",
".....d,ddddd...ddddddddd,((,,,d,,,.ddd,d,,,((,,(",
"......d,ddddd..ddddddd.dd,((,,,,,,dd,,,,,,,((,,(",
".......d,,,,dd..dd,ddddd,,((,d,((,dd,,,,,,(((((%",
"dd......d,,,,,dd.d,,,,dd,,(%(,,,((,,,,,(,,(%(,(%",
"..dddd.d.d,,,,,dddd,,,,dd,(%%(,,((,d,((,(((%((%5",
".d.ddddd.dd,,,,,ddd,,,,,,,,%x((,(%(,,((((({x((x5",
"..ddddddd.dd,(,,,,dd,,((,d(%x{(((%(,(((((%%x%x5b",
"d...ddddddddd(((((((%{-@-(,%xb((%%%d(%%{({bx%5b-",
"dddd.d,,,,,,%%-m8oey+0a9a;-(xb{(({{(,%({x%b{xb--",
",ddddd,%5m*e+00a&~s#s#444sex{bb{{{b(({{{{b-b5-m-",
",,(%-*e+0a&~444444444444'4>-%bn{{{{{%{{{bb]{-@n-",
",,-y&~s44ssss~#'hhh=gg==h498xb--{bb{{{bbb]nbn@n-",
"d,*s44r4##j^rh6gwh^###4'''~o{{]nbb]{{]bb]n]])8n]",
"d,8~''4''hwwh^^sp~9ps4#'''sebb])]]]]{]]]])n@:8n@",
".d5zr''44''#s~~s#4#~~9~4''#k]{]):]n){n]nn*n:/:)@",
".d,mya#444'4#s#s9&>yeoah4'#knbb)/nn:b)n))/)3$8:]",
"d.dd(8>&&&&z0++;*@m---aw'44+:n]nu:):]))::u:!3/:]",
"ddddd,-m@mm---mm5%%x-@&w'44+))n]ut:u)):u33![3!n$",
"ddddd,d,,,,,(%x5--5xx*s'4#s>)):):tuuuuuu}3ll!u/l",
"ddd,,,,,,,,,,(x55-@--y4'4ssc/)uu:}}ttutt_}7ll)cu",
".ddddd,,,(,,,(((5b-@e9''4~#c}u:tut1}lt}v77q_t7[!",
"dddddd,,,((((((((xb@0#'=#s4&}vtt}t7l7t__12ccl1v_",
"dddd,,d,,,((((%%{%{*&''6#s4~+v_}ll_91v7c1^qv#_1v",
"dd,d,,,,,,,((((x5b-;s4'gh4'4spq97q7#q1q##hjgc2_t",
"ddd,d,,,,(((((%(%5)a##4w6f''''4#49ss##4fif#p^7lv",
"ddd,d,,,,,((%%{{{x8&###44''w'''''44'|||ii=|icc71",
"dddd,,,,,(((((%x{bnkpsss44'4''w'''''hg|iiii#jj^2",
"ddddd,,,,,,(%%{x5bm8e+07&9s444'''''''w|iiii|i'c7",
",d,,,,,(,(((((%x{bb]n):/3<7qp~#4''''=6|iiiiiw=w~",
",,d,,(,(((%%{x5bbb]]nn):/3tl_cc#w===|iiiiiii|#c1",
",,((((%%(xxx5bb-mnn8:*33}v719q_4|iiiiiiiiiii|wjq",
",(,(((%xxx555---n88:/3e}_7cqq_7h|||iiiiiiiiiwq__",
"(((((%%xx55---m@@@8*o!e<_1111c'|ww6|iiiiiiii##~c",
"(((%%%x5x55---m@@8::*/$$}77c~6|6pq2j^hw6iii|=4q_",
"((%(%xxx5555----@mn]]bb:<7c#giig~cc1cqqq~^r'wr^~",
"(((%%%%xxx555x5%%%(({bnv_1phhww6wh^#~2cccccc2~jj",
"((((((((%(,(,,,,,({{b]*_1777c1cqqpjp2~^^#~pqc1c1",
",(,,,,,ddddd,d,(({{]))@:<1ccc117771c7_~g|ggwhj2q",
"ddddd.ddddd,,((%{-@]]b]:;72qqc1c1ccccc^iiiiiiiw4",
"......d.dd,,,%{bbb5xb]n30c11_l_1qj^hw6iiiii6rr##",
".....ddd,,((x5xx%(%b--:}v_7ccp^h6iiiiigwh#pc1ccq",
"...ddd,,((%%((((%{b{b-*__qj^6giiiig6^#pc777c177<",
"..ddd,,(((((,(((%xxbb]8l7q6iiigg^jpc1111cc17_!/3",
"ddd,,(,(,,,,,((%%xx5bbm<7chiiig#777ccc7l[_!$[)):",
"dd,,,,,ddd,,((((%%x{xx]e714=|iihc11l!l!:)3$:/:]@",
",,,dddd,,,,(,(((%xxxxb]:v7~'=|ig271$n}/)n:!)):b]",
"ddddddddd,,,(((((%%%5-55/l~#^6gi^71<@!:)n)$)n:n{"};
