/* XPM */
static char * 3D_Gun_xpm[] = {
"48 48 623 2",
"  	c None",
". 	c #323234",
"+ 	c #7F7F7D",
"@ 	c #545452",
"# 	c #232321",
"$ 	c #090908",
"% 	c #0C0C0E",
"& 	c #3E3E40",
"* 	c #1C1C1E",
"= 	c #444442",
"- 	c #333334",
"; 	c #262628",
"> 	c #7A7A79",
", 	c #737373",
"' 	c #999998",
") 	c #898987",
"! 	c #4B4B4B",
"~ 	c #272729",
"{ 	c #313130",
"] 	c #222221",
"^ 	c #343432",
"/ 	c #444443",
"( 	c #343434",
"_ 	c #3A3A3C",
": 	c #9F9F9F",
"< 	c #59595B",
"[ 	c #B9B9B9",
"} 	c #DBDBD9",
"| 	c #AAAAA9",
"1 	c #757575",
"2 	c #40403F",
"3 	c #2D2D2B",
"4 	c #393939",
"5 	c #3E3E3D",
"6 	c #2E2E2F",
"7 	c #141415",
"8 	c #38383A",
"9 	c #171719",
"0 	c #757576",
"a 	c #474748",
"b 	c #A9A9A9",
"c 	c #EDEDED",
"d 	c #F0F0EE",
"e 	c #C0C0BF",
"f 	c #4E4E4F",
"g 	c #4D4D4F",
"h 	c #2D2D2D",
"i 	c #242425",
"j 	c #121213",
"k 	c #818183",
"l 	c #414142",
"m 	c #080806",
"n 	c #393937",
"o 	c #707071",
"p 	c #AAAAAC",
"q 	c #CCCCCD",
"r 	c #ADADAC",
"s 	c #353537",
"t 	c #212120",
"u 	c #515153",
"v 	c #8B8B8C",
"w 	c #8B8B8D",
"x 	c #5D5D5E",
"y 	c #C4C4C6",
"z 	c #90908E",
"A 	c #171715",
"B 	c #404042",
"C 	c #28282A",
"D 	c #1D1D1E",
"E 	c #343435",
"F 	c #595957",
"G 	c #2B2B2D",
"H 	c #555556",
"I 	c #98989A",
"J 	c #D9D9D8",
"K 	c #F1F1F3",
"L 	c #E4E4E4",
"M 	c #B9B9B8",
"N 	c #6D6D6B",
"O 	c #040406",
"P 	c #474749",
"Q 	c #ADADAE",
"R 	c #666664",
"S 	c #30302E",
"T 	c #0D0D0C",
"U 	c #151515",
"V 	c #2C2C2D",
"W 	c #31312F",
"X 	c #19191B",
"Y 	c #090907",
"Z 	c #222224",
"` 	c #4E4E4D",
" .	c #828280",
"..	c #848484",
"+.	c #4B4B4D",
"@.	c #050506",
"#.	c #08080A",
"$.	c #242426",
"%.	c #414143",
"&.	c #4B4B49",
"*.	c #696967",
"=.	c #CACAC9",
"-.	c #A2A2A3",
";.	c #A5A5A3",
">.	c #20201E",
",.	c #060606",
"'.	c #070707",
").	c #141412",
"!.	c #292927",
"~.	c #A4A4A2",
"{.	c #454543",
"].	c #181819",
"^.	c #0A0A09",
"/.	c #040403",
"(.	c #ABABAA",
"_.	c #ECECEE",
":.	c #39393B",
"<.	c #0F0F11",
"[.	c #333335",
"}.	c #6F6F6F",
"|.	c #979795",
"1.	c #70706E",
"2.	c #6A6A6B",
"3.	c #E4E4E3",
"4.	c #A2A2A4",
"5.	c #BABAB8",
"6.	c #4E4E4C",
"7.	c #202021",
"8.	c #181818",
"9.	c #484847",
"0.	c #A5A5A7",
"a.	c #A1A1A3",
"b.	c #E8E8E9",
"c.	c #DCDCDD",
"d.	c #AEAEAD",
"e.	c #494947",
"f.	c #0B0B0B",
"g.	c #09090B",
"h.	c #272728",
"i.	c #646466",
"j.	c #ADADAB",
"k.	c #CCCCCE",
"l.	c #ACACAB",
"m.	c #B1B1AF",
"n.	c #CFCFCF",
"o.	c #EEEEEF",
"p.	c #EAEAE9",
"q.	c #D1D1D2",
"r.	c #B3B3B1",
"s.	c #7F7F81",
"t.	c #111113",
"u.	c #7C7C7D",
"v.	c #9C9C9A",
"w.	c #A3A3A5",
"x.	c #E7E7E5",
"y.	c #7E7E7C",
"z.	c #454544",
"A.	c #333332",
"B.	c #484848",
"C.	c #737375",
"D.	c #9D9D9C",
"E.	c #E2E2E4",
"F.	c #E7E7E9",
"G.	c #E0E0E1",
"H.	c #7A7A7A",
"I.	c #252526",
"J.	c #1C1C1D",
"K.	c #5B5B5B",
"L.	c #4C4C4B",
"M.	c #4A4A4A",
"N.	c #636363",
"O.	c #5D5D5B",
"P.	c #9D9D9E",
"Q.	c #CDCDCF",
"R.	c #EEEEEE",
"S.	c #F8F8F8",
"T.	c #ECECEA",
"U.	c #D7D7D6",
"V.	c #A8A8A9",
"W.	c #939395",
"X.	c #606061",
"Y.	c #59595A",
"Z.	c #B8B8B8",
"`.	c #AEAEAC",
" +	c #B6B6B6",
".+	c #D8D8D8",
"++	c #777775",
"@+	c #484846",
"#+	c #3C3C3B",
"$+	c #434342",
"%+	c #4F4F50",
"&+	c #A6A6A6",
"*+	c #E9E9EA",
"=+	c #E3E3E3",
"-+	c #EDEDEE",
";+	c #919193",
">+	c #343436",
",+	c #363637",
"'+	c #959593",
")+	c #676769",
"!+	c #585858",
"~+	c #373737",
"{+	c #363636",
"]+	c #707070",
"^+	c #999999",
"/+	c #C1C1C1",
"(+	c #DCDCDC",
"_+	c #F6F6F4",
":+	c #FBFBFB",
"<+	c #F0F0F0",
"[+	c #C3C3C4",
"}+	c #89898B",
"|+	c #8F8F8E",
"1+	c #AEAEAE",
"2+	c #E8E8E6",
"3+	c #D3D3D1",
"4+	c #C4C4C2",
"5+	c #6C6C6B",
"6+	c #4E4E4E",
"7+	c #BDBDBE",
"8+	c #FDFDFB",
"9+	c #EFEFEF",
"0+	c #A1A1A1",
"a+	c #444446",
"b+	c #3C3C3E",
"c+	c #C4C4C3",
"d+	c #E1E1E0",
"e+	c #D4D4D5",
"f+	c #BBBBBD",
"g+	c #7D7D7F",
"h+	c #525252",
"i+	c #373735",
"j+	c #2C2C2B",
"k+	c #595959",
"l+	c #888889",
"m+	c #BDBDBB",
"n+	c #D8D8D7",
"o+	c #E8E8E7",
"p+	c #F2F2F3",
"q+	c #F8F8FA",
"r+	c #F8F8F9",
"s+	c #E5E5E3",
"t+	c #80807F",
"u+	c #262625",
"v+	c #4A4A49",
"w+	c #656566",
"x+	c #0E0E10",
"y+	c #50504F",
"z+	c #A1A19F",
"A+	c #CBCBCA",
"B+	c #B5B5B5",
"C+	c #686866",
"D+	c #939391",
"E+	c #1A1A1B",
"F+	c #3F3F40",
"G+	c #A4A4A3",
"H+	c #E4E4E2",
"I+	c #F1F1EF",
"J+	c #FCFCFA",
"K+	c #CECECC",
"L+	c #7F7F7E",
"M+	c #636365",
"N+	c #A5A5A6",
"O+	c #C1C1C0",
"P+	c #F1F1F2",
"Q+	c #D5D5D4",
"R+	c #A2A2A2",
"S+	c #69696A",
"T+	c #252524",
"U+	c #242422",
"V+	c #3B3B39",
"W+	c #6D6D6E",
"X+	c #BFBFC0",
"Y+	c #EEEEEC",
"Z+	c #F5F5F3",
"`+	c #B1B1B0",
" @	c #676765",
".@	c #232323",
"+@	c #313133",
"@@	c #6E6E6C",
"#@	c #070705",
"$@	c #1B1B19",
"%@	c #29292A",
"&@	c #151514",
"*@	c #151517",
"=@	c #656564",
"-@	c #EDEDEC",
";@	c #F4F4F2",
">@	c #DCDCDA",
",@	c #9A9A98",
"'@	c #5E5E5D",
")@	c #C9C9C7",
"!@	c #E8E8E8",
"~@	c #DFDFE1",
"{@	c #D1D1D3",
"]@	c #9E9EA0",
"^@	c #4A4A4C",
"/@	c #10100E",
"(@	c #0C0C0A",
"_@	c #131311",
":@	c #2A2A28",
"<@	c #555554",
"[@	c #929294",
"}@	c #CBCBC9",
"|@	c #E2E2E0",
"1@	c #9A9A9B",
"2@	c #252523",
"3@	c #313131",
"4@	c #BFBFBE",
"5@	c #494948",
"6@	c #121214",
"7@	c #050503",
"8@	c #09090A",
"9@	c #202020",
"0@	c #282828",
"a@	c #1D1D1F",
"b@	c #121211",
"c@	c #BABABC",
"d@	c #B7B7B5",
"e@	c #9F9FA0",
"f@	c #959597",
"g@	c #A8A8A8",
"h@	c #D2D2D0",
"i@	c #FAFAF9",
"j@	c #F5F5F7",
"k@	c #D3D3D5",
"l@	c #F2F2F4",
"m@	c #EFEFEE",
"n@	c #EAEAE8",
"o@	c #E2E2E1",
"p@	c #D7D7D9",
"q@	c #C9C9CB",
"r@	c #C5C5C3",
"s@	c #9A9A9C",
"t@	c #1A1A1C",
"u@	c #050507",
"v@	c #9B9B99",
"w@	c #BEBEBC",
"x@	c #B9B9B7",
"y@	c #F2F2F0",
"z@	c #1E1E1C",
"A@	c #505052",
"B@	c #171718",
"C@	c #1E1E20",
"D@	c #EAEAEC",
"E@	c #D4D4D2",
"F@	c #6F6F6D",
"G@	c #606062",
"H@	c #AFAFB1",
"I@	c #F9F9FB",
"J@	c #B1B1B3",
"K@	c #A7A7A5",
"L@	c #9E9E9E",
"M@	c #88888A",
"N@	c #5D5D5F",
"O@	c #232325",
"P@	c #010103",
"Q@	c #020203",
"R@	c #21211F",
"S@	c #7D7D7B",
"T@	c #9F9F9E",
"U@	c #848486",
"V@	c #C1C1BF",
"W@	c #EDEDEB",
"X@	c #5B5B59",
"Y@	c #101011",
"Z@	c #11110F",
"`@	c #121212",
" #	c #FBFBFA",
".#	c #FAFAFB",
"+#	c #878787",
"@#	c #444445",
"##	c #6B6B6A",
"$#	c #CFCFD1",
"%#	c #D5D5D7",
"&#	c #E0E0E0",
"*#	c #E1E1E1",
"=#	c #D9D9DA",
"-#	c #D0D0D2",
";#	c #C2C2C3",
">#	c #939393",
",#	c #818180",
"'#	c #686867",
")#	c #535355",
"!#	c #080809",
"~#	c #68686A",
"{#	c #7B7B7C",
"]#	c #949493",
"^#	c #A1A1A2",
"/#	c #CACAC8",
"(#	c #424242",
"_#	c #505051",
":#	c #0E0E0E",
"<#	c #111110",
"[#	c #555557",
"}#	c #FCFCFB",
"|#	c #A3A3A2",
"1#	c #989899",
"2#	c #4F4F4D",
"3#	c #D6D6D6",
"4#	c #D4D4D4",
"5#	c #CFCFCD",
"6#	c #CBCBCB",
"7#	c #C8C8CA",
"8#	c #C1C1C3",
"9#	c #B0B0AE",
"0#	c #9B9B9B",
"a#	c #959594",
"b#	c #8C8C8C",
"c#	c #7F7F7F",
"d#	c #6B6B6C",
"e#	c #5B5B5D",
"f#	c #464645",
"g#	c #69696B",
"h#	c #424244",
"i#	c #C8C8C9",
"j#	c #3D3D3D",
"k#	c #58585A",
"l#	c #0E0E0D",
"m#	c #0F0F0F",
"n#	c #131315",
"o#	c #7B7B7B",
"p#	c #F3F3F1",
"q#	c #BCBCBB",
"r#	c #8C8C8D",
"s#	c #999997",
"t#	c #DADAD8",
"u#	c #C0C0C1",
"v#	c #B8B8BA",
"w#	c #AEAEB0",
"x#	c #9C9C9C",
"y#	c #737374",
"z#	c #646465",
"A#	c #575757",
"B#	c #313132",
"C#	c #808082",
"D#	c #C4C4C4",
"E#	c #303032",
"F#	c #3B3B3A",
"G#	c #1C1C1B",
"H#	c #0B0B0A",
"I#	c #0C0C0D",
"J#	c #A0A09F",
"K#	c #D8D8D6",
"L#	c #E7E7E6",
"M#	c #C8C8C7",
"N#	c #CFCFCE",
"O#	c #777776",
"P#	c #D1D1CF",
"Q#	c #CACACA",
"R#	c #BDBDBD",
"S#	c #B2B2B4",
"T#	c #959596",
"U#	c #91918F",
"V#	c #81817F",
"W#	c #737372",
"X#	c #686868",
"Y#	c #5A5A5B",
"Z#	c #474745",
"`#	c #3D3D3E",
" $	c #3D3D3F",
".$	c #343433",
"+$	c #818182",
"@$	c #6E6E6F",
"#$	c #323233",
"$$	c #C2C2C0",
"%$	c #2B2B2C",
"&$	c #49494A",
"*$	c #1F1F21",
"=$	c #B8B8B9",
"-$	c #969698",
";$	c #858583",
">$	c #C5C5C6",
",$	c #A7A7A7",
"'$	c #C2C2C1",
")$	c #B3B3B5",
"!$	c #A8A8AA",
"~$	c #A6A6A8",
"{$	c #9A9A99",
"]$	c #727270",
"^$	c #6B6B6B",
"/$	c #5F5F60",
"($	c #474746",
"_$	c #1F1F1E",
":$	c #282826",
"<$	c #9B9B9A",
"[$	c #4D4D4C",
"}$	c #969695",
"|$	c #D5D5D3",
"1$	c #2D2D2C",
"2$	c #2A2A2C",
"3$	c #424240",
"4$	c #131313",
"5$	c #606060",
"6$	c #777779",
"7$	c #848485",
"8$	c #ABABA9",
"9$	c #AAAAAB",
"0$	c #5E5E60",
"a$	c #797978",
"b$	c #909092",
"c$	c #858587",
"d$	c #838382",
"e$	c #757574",
"f$	c #6A6A68",
"g$	c #5C5C5B",
"h$	c #464648",
"i$	c #020204",
"j$	c #0A0A0C",
"k$	c #0B0B0D",
"l$	c #070706",
"m$	c #747473",
"n$	c #ADADAD",
"o$	c #B3B3B4",
"p$	c #CECED0",
"q$	c #2E2E2C",
"r$	c #151513",
"s$	c #0E0E0C",
"t$	c #0D0D0B",
"u$	c #0A0A08",
"v$	c #040404",
"w$	c #878789",
"x$	c #161614",
"y$	c #1F1F1D",
"z$	c #464644",
"A$	c #0A0A0B",
"B$	c #070709",
"C$	c #5A5A5C",
"D$	c #565656",
"E$	c #51514F",
"F$	c #030305",
"G$	c #1B1B1C",
"H$	c #575759",
"I$	c #B4B4B4",
"J$	c #7C7C7A",
"K$	c #363634",
"L$	c #383836",
"M$	c #292929",
"N$	c #48484A",
"O$	c #434345",
"P$	c #5C5C5A",
"Q$	c #1F1F20",
"R$	c #2E2E2E",
"S$	c #060604",
"T$	c #494949",
"U$	c #9F9FA1",
"V$	c #BEBEBF",
"W$	c #171716",
"X$	c #141416",
"Y$	c #1B1B1B",
"Z$	c #525251",
"`$	c #080808",
" %	c #111111",
".%	c #161615",
"+%	c #030304",
"@%	c #0D0D0D",
"#%	c #191917",
"$%	c #323231",
"%%	c #272725",
"&%	c #9C9C9E",
"*%	c #BBBBBC",
"=%	c #0A0A0A",
"-%	c #0C0C0B",
";%	c #151516",
">%	c #191919",
",%	c #292928",
"'%	c #565655",
")%	c #191918",
"!%	c #0F0F0D",
"~%	c #9E9E9D",
"{%	c #E5E5E6",
"]%	c #040405",
"^%	c #6D6D6C",
"/%	c #7C7C7B",
"(%	c #444444",
"_%	c #10100F",
":%	c #121210",
"<%	c #171717",
"[%	c #010102",
"}%	c #8D8D8D",
"|%	c #282827",
"1%	c #4F4F4F",
"2%	c #A9A9AA",
"3%	c #262626",
"4%	c #50504E",
"5%	c #656567",
"6%	c #BFBFBF",
"7%	c #B5B5B4",
"8%	c #222223",
"9%	c #383837",
"0%	c #909091",
"a%	c #0D0D0F",
"b%	c #767675",
"c%	c #959595",
"d%	c #060605",
"e%	c #161616",
"f%	c #838381",
"g%	c #262627",
"h%	c #C0C0BE",
"i%	c #E3E3E2",
"j%	c #C9C9CA",
"k%	c #6B6B69",
"l%	c #787877",
"m%	c #3E3E3C",
"n%	c #1E1E1F",
"o%	c #0C0C0C",
"p%	c #737371",
"q%	c #4D4D4D",
"r%	c #747475",
"s%	c #8A8A88",
"t%	c #2C2C2E",
"u%	c #353534",
"v%	c #0B0B09",
"w%	c #030303",
"x%	c #5E5E5C",
"y%	c #636361",
"z%	c #434343",
"A%	c #585859",
"B%	c #4C4C4A",
"C%	c #111112",
"D%	c #060607",
"E%	c #0B0B0C",
"F%	c #050504",
"              . + @ # $ % & * =                                                                 ",
"          - ; > , ' ) ! ~ { ] ^ / (                                                             ",
"          _ ; : < [ } | 1 2 3 4 5 6 7                                                           ",
"          8 9 0 a b c d e f 3 g h i j                                                           ",
"          k l m n o p q r s t u v w x                                                           ",
"          y z A B C D E F G H I J c K L M N O                                                   ",
"        P Q R S * T U V W X Y Z `  ...+.@.#.$.%.&.                                              ",
"        *.=.-.;.>.,.'.).!.%.~.{.].^./.6 (._.~.:.<.[.}.|.1.                                      ",
"        2.3.4.5.6.7.8.9.0.a.b.c.d.e.f.g.h.i.j.k.l.m.n.o.p.q.r.s.t.                              ",
"        u.v.w.x.y.z.A.B.C.D.E.F.G.H.I.J.K.L.M.N.O., P.Q.R.S.T.U.V.W.X.                          ",
"      Y.Z.`. +.+++@+#+$+%+&+*+=+-+;+>+,+r.'+)+!+~+{+! ]+^+/+(+_+:+<+[+}+                        ",
"  F |+1+2+3+4+Q 5+5 6 ,+6+7+8+T.9+0+a+b+c+d+e+f+g+h+i+j+^ k+l+m+n+o+p+q+r+s+t+    u+v+w+%.x+    ",
"  y+z+A+B+C+D+v.|.6+D E+F+G+H+I+J+K+L+a+M+N+O+P+p+Q+R+S+$+T+U+V+W+I X+c.Y+Z+c.`+ @l .@8.+@P     ",
"      V+@@^ #@).$@6 %@&@*@G =@`.-@_+;@>@,@'@8 )@d d !@~@{@]@^@/@(@_@:@<@[@}@|@1@{.2@3@W+4@k.    ",
"        ,+5@6@7@8@9@0@a@<.b@c@d@e@f@g@h@i@j@k@l@l@m@n@o@p@q@r@s@M+b+t@u@x+!.O.v@w@x@0+V.y@n@K+K+",
"        z@^@A@7@7@B@C@*@#.6@D@8+8+E@F@t G@H@I@I@l@_.!@o@p@q@r@J@K@L@M@N@O@P@Q@7@R@= S@T@U@V@W@W@",
"          & X@Y@#@Z@A `@x+>+ #8+.#n++#@###H@5@$#%#&#*#=#-#;#d@`.w.P.>#,#'#)#. _@!#~#v {#]#^#/#/#",
"          (#_#s :#T _@<#<.[#:+8+}#W@|#i.1#(.2#3#4#5#6#7#8#f+9#&+0#a#b#c#d#e#f#^ C@g#w W+F+h#i#i#",
"          j#@#k#`@$ l#m#n#o#:+8+I+p#q#r#/+s#, t#4#=.c+u#v#w#0+x#z ) t+y#z#A#L./ B#X.C#M+g.<.D#D#",
"          E#F#G@G#H#f.I#t@J#o+|@K#L#M#l.N#O#I P#Q.Q#c+R#S#w.T#U#V#> W#X#Y#Z#`# $.$K.+$@$Y@#$$$$$",
"          %$+@&$- 9 f.^.*$=$-$;$K@>$=$,$c@g c@'$)$!$w.w.w.~${$;$]$^$)+/$($_$$@G :$*.~.<$[$}$|$|$",
"          1$2$3$:$4$f.^.*$`.g.7@>.5$6$7$8$n q#9$0$4 j#x a$b$c$d$e$f$g$h$$.i$j$k$l$m$n$o$p$p@I@I@",
"          q$+@r$s$t$u$v$X w$Q@Q@g.b@x$y$i+z$w#{.A$P@P@P@B$:$A@~#C$D$E$9.E#F$j 2@G$H$I$ #r+J+K K ",
"          C X t$t$f.f.^.B@J$Q@7@K$L$M$~ N$O$P$t.F$P@P@P@P@P@i$t$Q$R$n V+1$Q@S$t.s$T$U$V$++|$q@q@",
"        @.W$k$A$t$f.A$!#X$F@i$Y@L$h Y$# Z$a+/@F$i$`$ %B@.%    +%u@B$@%#%:@$%i$j$T %%5$&%*%Z+q@q@",
"        =%/@A$-%t$t$^.@.<.f i$B$;%>%,%z$'%$./@  P@T r$)%#%        P@F$!#7.o#)# $!%&@k+T@~%{%)#)#",
"        t$-%A$u$f.-%`$]%x+4 :#P@u@3@^%|./%*@(%  k$_%:%r$<%          [%[%;%{#a.}%|%Y@1%G+g@2%g.g.",
"        -%!#g.m g.8@u@g.3%4%t P@% 5%6%o+7%B#b$h.8%U l#m#j               8@9%0%D+B#a%R$b%c%6.    ",
"        !#d%8@t$A$l$/.e%E$f%{.I.g%e$h%i%j%k%4.l%m%n%<.o%H#                                      ",
"        d%8@S$g.g.O v$T n%R@f+>@p%f#q%r%s% @t%[.u%n%j :%v%                                      ",
"      w%S$S$g.g.S$w%'.^.]%_@x%/#y%z%^@A%f#A@B%B [.9 `$/.P@                                      ",
"      w%d%g.S$g.S$w%w%m t$j$t.t.:@C%[%    F$t.g.i$                                              ",
"      w%S$d%8@S$S$w%D%v%S$#@l#t.:@                                                              ",
"      w%7@S$l$7@w%Q@'.T I#!#s$t.V                                                               ",
"      w%7@/.7@7@Q@P@'.T E%`$Z@4$%$                                                              ",
"    [%Q@/.w%7@7@Q@Q@'.(@d%S$b@_@D                                                               ",
"  [%P@P@Q@7@7@7@Q@/.m H#!#F%8@(@+%                                                              ",
"  [%P@P@P@Q@Q@7@Q@P@P@P@P@Q@7@7@                                                                ",
"  [%P@P@P@Q@7@P@P@Q@Q@P@P@P@P@P@                                                                ",
"  [%P@P@P@P@P@P@P@/./.P@P@P@P@P@                                                                ",
"  [%P@P@P@P@P@P@P@/./.P@P@P@P@P@                                                                ",
"      [%P@P@P@P@P@/./.P@P@P@P@P@                                                                ",
"        [%P@P@P@w%7@/.P@P@P@P@P@                                                                ",
"          [%[%P@/.7@/.P@P@[%[%[%                                                                ",
"              P@P@w%w%P@[%                                                                      ",
"                                                                                                ",
"                                                                                                ",
"                                                                                                "};
