/* XPM */
static char * railslug_icon_xpm[] = {
"48 48 81 1",
" 	c None",
".	c #020304",
"+	c #368934",
"@	c #4EC64A",
"#	c #BBC5BC",
"$	c #1C481C",
"%	c #828381",
"&	c #AFE7AD",
"*	c #82C67F",
"=	c #286426",
"-	c #10240F",
";	c #DFE5E0",
">	c #41A93D",
",	c #57DB52",
"'	c #80A280",
")	c #173417",
"!	c #5E655F",
"~	c #E5F5E5",
"{	c #84DE81",
"]	c #444443",
"^	c #768274",
"/	c #CCE5CC",
"(	c #2E782C",
"_	c #09160A",
":	c #67C661",
"<	c #CDCECD",
"[	c #6DA96C",
"}	c #69E065",
"|	c #A8A8A7",
"1	c #98DB96",
"2	c #F4F5F3",
"3	c #343433",
"4	c #3B9938",
"5	c #47B345",
"6	c #466544",
"7	c #252625",
"8	c #AAB6A9",
"9	c #52D24D",
"0	c #191919",
"a	c #7E997C",
"b	c #505451",
"c	c #CBF4C9",
"d	c #707471",
"e	c #B5D5B4",
"f	c #225820",
"g	c #8ABD89",
"h	c #5E985C",
"i	c #D9DBD8",
"j	c #60BC60",
"k	c #98CB94",
"l	c #949492",
"m	c #69D363",
"n	c #9EED9B",
"o	c #52824C",
"p	c #364234",
"q	c #4F964F",
"r	c #B3F0B1",
"s	c #7FE97A",
"t	c #417741",
"u	c #B7B8B7",
"v	c #6DE66A",
"w	c #EBEBEA",
"x	c #696968",
"y	c #7B7B7A",
"z	c #365A34",
"A	c #7ED07C",
"B	c #698D67",
"C	c #383C38",
"D	c #4B6C4A",
"E	c #2C6B29",
"F	c #8CAC8C",
"G	c #173D15",
"H	c #4ABC45",
"I	c #5C5D5A",
"J	c #898C88",
"K	c #112C10",
"L	c #5BE357",
"M	c #4B4C4B",
"N	c #FBFDFA",
"O	c #ABDDA9",
"P	c #9B9D9B",
"................................................",
"_KK-_........................................._K",
">>>()..................._)fEf_............._f44+",
"9L9>$_................_f>@@@E_............f599,,",
"@>H994G................f5999L5G...........G>99>,",
"4G,@ff>9@(...............G>,9>>99E_.........-+99",
"$_,H$_f59+_............._(9,>$=H94-.........$H,5",
"HG.->,5G.............)>,5f.-495$.........f@@+_.,",
"(-._+9@E_..........._E@9+_._(99(........_=@@E..H",
"..4K.._(9,>-...........K49H$...fH@(_........=@H=",
"...E9L9f...........fH94-...G>@(_........E@5f..=_",
"K....G@L,(..........-+9@=....G>@(_......._(@5G..",
".....->L,4_.........G>9>)....G5@+_......._+,HG..",
"...._4L,4_.........fH@(_....$H9+_......._+95G...",
"......._+,,>_........_=@@E_....$H9+_......._+@>)",
"_..__0_-4,L5-........_(@@f_..._=994_......._+@>G",
"3CC33q,,HC-70000000+95=77077t9,5G7777000)>,>)007",
"I!xx[}L:6C]CC33377q:jDCC]M]o,LmDMMM]C376:mhC33b!",
"PPPP*}LAJddxxIbMMb[{gdxxyyya}L}'yyyyxIIhA{hIIIJl",
"JJ##<<<e1}}{u||PPlJ%d^knkPP||u|#{v}kuuu|PlJgnk'%",
"wwwwnL}nii<<<##u||Oce#<iiii;nv}&/;ii<#uere8u##;w",
"2NN2N2rvLn~2ww;;;i<<c~w;www2w2rv{r22222;i;ci<i;;",
"NNNNcsvn2N222222ww~2222NNNNNrvsc2NNNN2w~~;;w22NN",
"NNNNNNcsvnNNNNNNNN2~N2NNNNNNN2nLscNNNNNNN2222NNN",
"NNNNNcsvn2NNNNNNNNN2N2NNNNNNNnLscNNNNNNN2N22NNNN",
"NNNNcsLnNNNNNNNNNN2NNNNNNNNNnvscNNNNNNN2N2NNNNNN",
"NNNNNNNcsLnNNNNNNN2NNN2NNNNNNNNrvsrNNNNNN2N22NNN",
"NNNNNNNNcsvnNN2222~ww~~w2NNNNNNNrvvnNNNNN22~wwwN",
"ww222222cs}n~2ww;;ii/ccii;222222csvn2N222w~c/iiw",
"<ii;;i;/vvnii<<##uu#&/###iiii;;rsLn;;;;<<//e8u#<",
"uuuuk}L{k||PPl%%F11FlPP|uuu#O}L{#uu8||OngJJPP||u",
"dyy%y^'}L}aydxxIMbB:AB!!dyyy%Jg}Lml%%ydBA{[!Ixxd",
"]C]MMMMDmL,hM]C3373Dj:t33]]MMbbh}L:DbM]]D:mhC3C]",
"077770C5,L5)700000E@@E00777777EmL@z3777Ejm+-0777",
"_......_+,L5)....._(9@E_..._...G@L9=_.__(9@E_..0",
".....$@,>-.....K4,Hf........-HL9(_..0+@5$.......",
".........-495G.....$594-........_+99(_..G>94K...",
"......_(@@=.....=@@E_.........=H@E_..(@@(_......",
"......E@@E_..._+9Hf..........$5@(_._4,Hf........",
".......f5@(_...)>,>)..........G>9>-.-495G.......",
".........G>@+-.._=@9+_.........._49Hf_G59>K.....",
"..........G>,H=_-$49Hf............=@94f499+_....",
"........_(@,H44H@94)............G5,9H9,9f.......",
"........)+9,9,L95f_............_=H,,,,>K........",
"...........)(>5H>+$_.............._f+44+$.......",
"............._-GGK_..................__-_.......",
"................................................",
"................................................"};
