/* XPM */
static char * can_caffeine_free_xpm[] = {
"48 48 102 2",
"  	c None",
". 	c #9A9A9C",
"+ 	c #9E9E9C",
"@ 	c #A2A2A4",
"# 	c #A6A6A4",
"$ 	c #AAAAAC",
"% 	c #929294",
"& 	c #969694",
"* 	c #7A7A7C",
"= 	c #868684",
"- 	c #6E6E6C",
"; 	c #727274",
"> 	c #8E8E8C",
", 	c #CACACC",
"' 	c #5E5E5C",
") 	c #8A8A8C",
"! 	c #767674",
"~ 	c #777777",
"{ 	c #7A6664",
"] 	c #626264",
"^ 	c #6A6A6C",
"/ 	c #2A2A2C",
"( 	c #666664",
"_ 	c #828284",
": 	c #7E7E7C",
"< 	c #BEBEBC",
"[ 	c #939393",
"} 	c #E0E0E0",
"| 	c #C9C9C9",
"1 	c #B5B5B5",
"2 	c #9B9B9B",
"3 	c #AE7171",
"4 	c #CD2D2D",
"5 	c #D81515",
"6 	c #DA1111",
"7 	c #CE2C2C",
"8 	c #C73A3A",
"9 	c #D71919",
"0 	c #B36565",
"a 	c #AF6F6F",
"b 	c #B06C6C",
"c 	c #AC7676",
"d 	c #B75D5D",
"e 	c #C93636",
"f 	c #CB5353",
"g 	c #CF2A2A",
"h 	c #A08F8F",
"i 	c #9B9A9A",
"j 	c #9C9898",
"k 	c #A18D8D",
"l 	c #A48686",
"m 	c #CB3333",
"n 	c #CA3333",
"o 	c #C37474",
"p 	c #D62424",
"q 	c #A68181",
"r 	c #BE4E4E",
"s 	c #A48787",
"t 	c #9F9292",
"u 	c #C24646",
"v 	c #B46464",
"w 	c #D42C2C",
"x 	c #CA5A5A",
"y 	c #9D9595",
"z 	c #A28A8A",
"A 	c #9B9999",
"B 	c #9E9292",
"C 	c #9D9696",
"D 	c #CF2828",
"E 	c #D12626",
"F 	c #DA1313",
"G 	c #BD8F8F",
"H 	c #AB7777",
"I 	c #9E9393",
"J 	c #A58484",
"K 	c #C08484",
"L 	c #9C9797",
"M 	c #A77F7F",
"N 	c #C17D7D",
"O 	c #D32121",
"P 	c #D32020",
"Q 	c #9E9494",
"R 	c #A38888",
"S 	c #D91414",
"T 	c #D62626",
"U 	c #9F9191",
"V 	c #A18C8C",
"W 	c #B26868",
"X 	c #C56F6F",
"Y 	c #DB1111",
"Z 	c #A48585",
"` 	c #C53F3F",
" .	c #AD7474",
"..	c #D13C3C",
"+.	c #A97B7B",
"@.	c #BB5555",
"#.	c #C63D3D",
"$.	c #B46363",
"%.	c #BD5050",
"&.	c #BE4D4D",
"*.	c #D02727",
"=.	c #5A5A5C",
"                                                                                                ",
"                                                                                                ",
"                                                                                                ",
"                                                                                                ",
"                                                                                                ",
"                                                                                                ",
"                                                                                                ",
"                                                                                                ",
"                                            . + @ # $ .                                         ",
"                                    % & . * = - ; = % % > -   ,                                 ",
"                                    . > + + = = = = = & & % % . #                               ",
"                                  ' % + + @ @ ) = ) = & . & & % !                               ",
"                                ~ . & # # @ # ) @ @ # @ @ + . . & ~                             ",
"                              ~ { & % & @ # # # # # @ @ @ + + . ] ^                             ",
"                              ~ . & @ & & @ # # / + @ @ + + + ' ! ( ~                           ",
"                              ~ + # ) _ : ! _ & @ <   % ; ^ ^ ^ ^ * [                           ",
"                              } )   > _ : ! ; - - - ; - - - - - ! ) [                           ",
"                              } } @ > _ : * * ! ! ; ! ; ! ! ! * = [ [                           ",
"                              } } | 1 1 1 . % ) ) ) ) > % & 2 2 2 2 ~                           ",
"                              } } | 1 1 2 2 2 2 2 2 2 2 2 2 2 2 2 2 [                           ",
"                              } } | 1 1 2 2 2 2 2 2 2 2 2 2 2 2 2 2                             ",
"                                } | 1 1 2 3 4 5 6 6 5 7 3 2 2 2 2 2                             ",
"                                } | 1 1 8 9 0 a b c d 6 6 e 2 2 2 2                             ",
"                                } | 1 f 6 g h i j k j l m 6 n 2 2 2                             ",
"                                } | o p q 9 6 r 2 j s t s u 6 v 2 2                             ",
"                                } | w x y z 6 6 a A j j B C D E 2 2                             ",
"                                } | F G B i H 6 6 h 2 t I A J 5 2 2                             ",
"                                } | 6 K t 2 L m 6 6 M j C A y 6 2 ~                             ",
"                                } | F N 2 2 A 2 O 6 P h j Q R S 2 ~                             ",
"                                } | T 6 Q 2 j i U u 6 9 V A W 7 2                               ",
"                                } | X Y d L i L 2 I Z 6 ` b 6  .2                               ",
"                                } | 1 ..Y 6 +.i 2 i L @.6 6 u 2 2                               ",
"                                } | 1 1 #.6 6 $.z t J 6 6 %.2 2 2                               ",
"                                } | 1 1 2 J &.*.S S *.&.J 2 2 2 2                               ",
"                                } | 1 1 1 2 2 2 2 2 2 2 2 2 2 2 2                               ",
"                                } | 1 1 1 2 2 2 2 2 2 2 2 2 2 2 2                               ",
"                                } | 1 1 1 2 2 2 2 2 2 2 2 2 2 2 2                               ",
"                                } | 1 1 1 2 2 2 2 2 2 2 2 2 2 2 2                               ",
"                                  | 1 1 1 2 2 2 2 2 2 2 2 2 2 2 2                               ",
"                                  | 1 1 1 2 2 2 2 2 2 2 2 2 2 2 2                               ",
"                                    1 1 1 2 2 2 2 2 2 2 2 2 2 2                                 ",
"                                    1 1 1 2 2 2 2 2 2 2 2 2 2                                   ",
"                                          2 2 2 2 2 2 2 =.'                                     ",
"                                          ] ] ' ' ' =.]                                         ",
"                                                                                                ",
"                                                                                                ",
"                                                                                                ",
"                                                                                                "};
