/* XPM */
static char *magick[] = {
/* columns rows colors chars-per-pixel */
"64 64 65 1",
"  c #061012",
". c #091215",
"X c #0c1619",
"o c #0f1a1d",
"O c #131e21",
"+ c #162124",
"@ c #192629",
"# c #1d2a2d",
"$ c #212e31",
"% c #243235",
"& c #273639",
"* c #2b3a3d",
"= c #2e3d41",
"- c #1c7829",
"; c #2b4e3c",
": c #247233",
"> c #254959",
", c #314043",
"< c #324245",
"1 c #354649",
"2 c #364a4a",
"3 c #394a4e",
"4 c #3b4c50",
"5 c #3d4e52",
"6 c #3e5254",
"7 c #3e5c53",
"8 c #367149",
"9 c #405256",
"0 c #44565a",
"q c #465a5d",
"w c #4a5d62",
"e c #48665e",
"r c #4e6266",
"t c #52666a",
"y c #55696e",
"u c #576b70",
"i c #596e72",
"p c #5c7176",
"a c #5e7479",
"s c #62787d",
"d c #3b7795",
"f c #667d82",
"g c #1a9625",
"h c #18a921",
"j c #289835",
"k c #25a831",
"l c #358747",
"z c #4385a8",
"x c #478db2",
"c c #698186",
"v c #6d858a",
"b c #70898e",
"n c #748c92",
"m c #799398",
"M c #7a949a",
"N c Magenta",
"B c #819ca2",
"V c #88a4aa",
"C c #90adb3",
"Z c #96b4bb",
"A c #9dbcc2",
"S c #a5c4cb",
"D c #afcfd6",
"F c #e3f4f6",
"G c None",
/* pixels */
"GGGGGGGGGGGGGGGGGGGGGGGGGGGGGGGGGGGGGGGGGGGGGGGGGGGGGGGGGGGGGGGG",
"GGGGGGGGGGGGGGGGGGGGGGGGGGGGGGGGGGGGGGGGGGGGGGGGGGGGGGGGGGGGGGGG",
"GGGGGGGGGGGGGGGGGGGGGGGGGGGGGGGGGGGGGGGGGGGGGGGGGGGGGGGGGGGGGGGG",
"GGGGGGGGGGGGGGGGGGGGGGGGGGGGGGGGGGGGGGGGGGGGGGGGGGGGGGGGGGGGGGGG",
"GGGGGGGGGGGGGGGGGGGGGGGGGGGGGGGGGGGGGGGGGGGGGGGGGGGGGGGGGGGGGGGG",
"GGGGGGGGGGGGGGGGGGGGGGGGGGGGGGGGGGGGGGGGGGGGGGGGGGGGGGGGGGGGGGGG",
"GGGGGGGGGGGGGGGGGGGGGGGGGGGGGGGGGGGGGGGGGGGGGGGGGGGGGGGGGGGGGGGG",
"GGGGGGGGGGGGGGGGGGGGGGGGGGGGGGGGGGGGGGGGGGGGGGGGGGGGGGGGGGGGGGGG",
"GGGGGGGGGGGGGGGGGGGGGGGGGGGGGGGGGGGGGGGGGGGGGGGGGGGGGGGGGGGGGGGG",
"GGGGGGGGGGGGGGGGGGGGGGGGGGGGGGGGGGGGGGGGGGGGGGGGGGGGGGGGGGGGGGGG",
"GGGGGGGGGGGGGGGGGGGGGGGGGGGGGGGGGGGGGGGGGGGGGGGGGGGGGGGGGGGGGGGG",
"GGGGGGGGGGGGGGGGGGGGGGGGGGGGGGGGGGGGGGGGGGGGGGGGGGGGGGGGGGGGGGGG",
"GGGGGGGGGGGGGGGGGGGGGGGGGGGGGGGGGGGGGGGGGGGGGGGGGGGGGGGGGGGGGGGG",
"GGGGGGGGGGGGGGGGGGGGGGGGGGGGGGGGGGGGGGGGGGGGGGGGGGGGGGGGGGGGGGGG",
"GGGGGGGGGGGGGGGGGGGGGGGGGGGGGGGGGGGGGGGGGGGGGGGGGGGGGGGGGGGGGGGG",
"GGGGGGGGGGGGGGGGGGGGGGGGGGGGGGGGGGG5tsyqGGGGGGGGGGGGGGGGGGGGGGGG",
"GGGGGGGGGGGGGGGGGGGGGGGGGGGGGGGG4tcccccsyGGGGGGGGGGGGGGGGGGGGGGG",
"GGGGGGGGGGGGGGGGGGGGGGGGGGGGzzzzbbbbbzzzzzwGGGGGGGGGGGGGGGGGGGGG",
"GGGGGGGGGGGGGGGGGGGGGGGGGG<zzzzzzmmMMzzzzz@iGGGGGGGGGGGGGGGGGGGG",
"GGGGGGGGGGGGGGGGGGGGGGGGwfm>zzzzzBBBBdxxd>@MfwGGGGGGGGGGGGGGGGGG",
"GGGGGGGGGGGGGGGGGGGGGG3bBBB>dxzd>VVVVdxxd>VVCBpGGGGGGGGGGGGGGGGG",
"GGGGGGGGGGGGGGGGGGGGG*cBVVV>dxzd>CCCCCxzd>ADDDn0GGGGGGGGGGGGGGGG",
"GGGGGGGGGGGGGGGGGGGGGtmBVVCCCZZZZZZZZZAASDDACVmyGGGGGGGGGGGGGGGG",
"GGGGGGGGGGGGGGGGGGGGGubMVCCZZAAAAAASSSSSSZCVBMbr%GGGGGGGGGGGGGGG",
"GGGGGGGGGGGGGGGGGGGG@tfnBVCZZAASSSSSSSAZCVBMnca9#GGGGGGGGGGGGGGG",
"GGGGGGGGGGGGGGGGGGGG@0ufnBCZZASDDDSSAAZCVMnvayr<@GGGGGGGGGGGGGGG",
"GGGGGGGGGGGGGGGGGGGG+9qucmVCZADDDSSAZCVBnvsur05=@GGGGGGGGGGGGGGG",
"GGGGGGGGGGGGGGGGGGGG+9qrucmVCSDFDSZCVBmvsirwq95=@GGGGGGGGGGGGGGG",
"GGGGGGGGGGGGGGGGGGGG+50wticmVADFSZVBmvsptrwq094*+GGGGGGGGGGGGGGG",
"GGGGGGGGGGGGGGGGGGGG+50wtiafMCAAZVmvfpiytreq953*+GGGGGGGGGGGGGGG",
"GGGGGGGGGGGGGGGGGGGGO49wrypsbBVVVmcsaputrlj0642&+GGGGGGGGGGGGGGG",
"GGGGGGGGGGGGGGGGGGGGO36qrtiavMBBMnfapiytrj89531&OGGGGGGGGGGGGGGG",
"GGGGGGGGGGGGGGGGGGGGO350wtiacmBBMbsaiutrek79531%OGGGGGGGGGGGGGGG",
"GGGGGGGGGGGGGGGGGGGGO150wtypcnMMmbspiytrll6631<%oGGGGGGGGGGGGGGG",
"GGGGGGGGGGGGGGGGGGGGo149qrtifnMMnvaiutrek79531,$oGGGGGGGGGGGGGGG",
"GGGGGGGGGGGGGGGGGGGGo<36qwtusbmmncputtw8j0642<,$oGGGGGGGGGGGGGGG",
"GGGGGGGGGGGGGGGGGGGGo,250wryavnnbfiytrwj89531<=$oGGGGGGGGGGGGGGG",
"GGGGGGGGGGGGGGGGGGGGo=149qrtavbnvfutrwek79421,=#XGGGGGGGGGGGGGGG",
"GGGGGGGGGGGGGGGGGGGGX=<360wrpfbbcsyrrwll66:h;=*#XGGGGGGGGGGGGGGG",
"GGGGGGGGGGGGGGGGGGGGX*<250qrifvvcatrwqk88ggh;=*#XGGGGGGGGGGGGGGG",
"GGGGGGGGGGGGGGGGGGGGX*,149qwusccfptwq8kjg8:g==&@XGGGGGGGGGGGGGGG",
"GGGGGGGGGGGGGGGGGGGGX&=<360wyaffsirqqjh822-:=*&@XGGGGGGGGGGGGGGG",
"GGGGGGGGGGGGGGGGGGGG.&*<150qtaffauwq076432g;*&%+XGGGGGGGGGGGGGGG",
"GGGGGGGGGGGGGGGGGGGG.%*,1490rissayw096431;g=*&%+XGGGGGGGGGGGGGGG",
"GGGGGGGGGGGGGGGGGGGG.%*=1360wuaaitq965311::*&%$+.GGGGGGGGGGGGGGG",
"GGGGGGGGGGGGGGGGGGGG.%&=<149wyppur095321<g;*&%$O.GGGGGGGGGGGGGGG",
"GGGGGGGGGGGGGGGGGGGG $&*,135qtiiyr95431<;g*&%$#O.GGGGGGGGGGGGGGG",
"GGGGGGGGGGGGGGGGGGGG.$%*=<140ruutw6431<,:-&&%$#o.GGGGGGGGGGGGGGG",
"GGGGGGGGGGGGGGGGGGGG.#%&*,139rttrq5311<,g;&%$##o.GGGGGGGGGGGGGGG",
"GGGGGGGGGGGGGGGGGGGG #$%*=<19wrtr0411<=;g&%$$#@o.GGGGGGGGGGGGGGG",
"GGGGGGGGGGGGGGGGGGGG @#%&*,15qrrw031<,=:-&%$##@o GGGGGGGGGGGGGGG",
"GGGGGGGGGGGGGGGGGGGG @#$%*=<40wwq91<,=**&%$$#@@X.GGGGGGGGGGGGGGG",
"GGGGGGGGGGGGGGGGGGGG @#$%&*,39qw051,=**&%%$##@+X GGGGGGGGGGGGGGG",
"GGGGGGGGGGGGGGGGGGGGG+@#$&*=190q95<=**&&%$##@@+XGGGGGGGGGGGGGGGG",
"GGGGGGGGGGGGGGGGGGGGG +#$%&*159063,**&&%$##@@+X GGGGGGGGGGGGGGGG",
"GGGGGGGGGGGGGGGGGGGGGG X#$&*<46951=*&&%$$##O.  GGGGGGGGGGGGGGGGG",
"GGGGGGGGGGGGGGGGGGGGGGG .#%&,35531*&&%$$@o.   GGGGGGGGGGGGGGGGGG",
"GGGGGGGGGGGGGGGGGGGGGGGGG O&=1443<*&%$+X   GGGGGGGGGGGGGGGGGGGGG",
"GGGGGGGGGGGGGGGGGGGGGGGGGG X$1331,&#o.   GGGGGGGGGGGGGGGGGGGGGGG",
"GGGGGGGGGGGGGGGGGGGGGGGGGGGG O#$$+X   GGGGGGGGGGGGGGGGGGGGGGGGGG",
"GGGGGGGGGGGGGGGGGGGGGGGGGGGGG      GGGGGGGGGGGGGGGGGGGGGGGGGGGGG",
"GGGGGGGGGGGGGGGGGGGGGGGGGGGGGGGGGGGGGGGGGGGGGGGGGGGGGGGGGGGGGGGG",
"GGGGGGGGGGGGGGGGGGGGGGGGGGGGGGGGGGGGGGGGGGGGGGGGGGGGGGGGGGGGGGGG",
"GGGGGGGGGGGGGGGGGGGGGGGGGGGGGGGGGGGGGGGGGGGGGGGGGGGGGGGGGGGGGGGG"
};
