/* XPM */
static char * carrot_xpm[] = {
"48 48 272 2",
"  	c None",
". 	c #0A170B",
"+ 	c #000100",
"@ 	c #000000",
"# 	c #1E431F",
"$ 	c #2A5D2B",
"% 	c #112712",
"& 	c #020602",
"* 	c #112511",
"= 	c #0A180A",
"- 	c #234E24",
"; 	c #2F6830",
"> 	c #204821",
", 	c #060D06",
"' 	c #0F220F",
") 	c #2A5C2B",
"! 	c #0C1B0C",
"~ 	c #214922",
"{ 	c #2E652E",
"] 	c #0B180B",
"^ 	c #234F24",
"/ 	c #091509",
"( 	c #265427",
"_ 	c #255326",
": 	c #132B14",
"< 	c #2D642E",
"[ 	c #0C1A0C",
"} 	c #2C602C",
"| 	c #193819",
"1 	c #050C05",
"2 	c #0C0401",
"3 	c #1B0A04",
"4 	c #290F05",
"5 	c #361407",
"6 	c #331307",
"7 	c #260E05",
"8 	c #190903",
"9 	c #110602",
"0 	c #152F15",
"a 	c #255226",
"b 	c #030803",
"c 	c #09150A",
"d 	c #1B0903",
"e 	c #4B1B09",
"f 	c #893313",
"g 	c #BF481B",
"h 	c #DC521E",
"i 	c #F15B22",
"j 	c #FB5E23",
"k 	c #FE6024",
"l 	c #FC5F23",
"m 	c #E0541F",
"n 	c #A73E17",
"o 	c #6B280F",
"p 	c #411A09",
"q 	c #1B240F",
"r 	c #295C2A",
"s 	c #2C632D",
"t 	c #020402",
"u 	c #1D0A03",
"v 	c #772C10",
"w 	c #C5491B",
"x 	c #E75720",
"y 	c #EF5921",
"z 	c #F45B22",
"A 	c #FA5D23",
"B 	c #FF6024",
"C 	c #F35C22",
"D 	c #C34C1B",
"E 	c #6D4F1F",
"F 	c #33632D",
"G 	c #285828",
"H 	c #071007",
"I 	c #170803",
"J 	c #6B280E",
"K 	c #DD531E",
"L 	c #F25B22",
"M 	c #F55C22",
"N 	c #F35B22",
"O 	c #EE5921",
"P 	c #EC5821",
"Q 	c #FA5E23",
"R 	c #F95F23",
"S 	c #C45B23",
"T 	c #605926",
"U 	c #2C5727",
"V 	c #0A160A",
"W 	c #0A170A",
"X 	c #0B0401",
"Y 	c #56200B",
"Z 	c #D6501D",
"` 	c #FE5F23",
" .	c #FC5E23",
"..	c #F75C22",
"+.	c #F05A21",
"@.	c #E95821",
"#.	c #F15A22",
"$.	c #FA5F24",
"%.	c #D95620",
"&.	c #672C10",
"*.	c #0E0602",
"=.	c #010000",
"-.	c #2C1006",
";.	c #A63E17",
">.	c #F65D22",
",.	c #EE5922",
"'.	c #B74419",
").	c #431909",
"!.	c #7A2D11",
"~.	c #E65620",
"{.	c #F95D23",
"].	c #F95E23",
"^.	c #E35520",
"/.	c #722A10",
"(.	c #140702",
"_.	c #070301",
":.	c #3E1708",
"<.	c #D9521E",
"[.	c #FE5F24",
"}.	c #EB5821",
"|.	c #F95D22",
"1.	c #BC461A",
"2.	c #180803",
"3.	c #813012",
"4.	c #F25A22",
"5.	c #EF5A21",
"6.	c #F05A22",
"7.	c #FC5F24",
"8.	c #F75D23",
"9.	c #FD5F23",
"0.	c #843112",
"a.	c #120602",
"b.	c #030100",
"c.	c #331207",
"d.	c #C1481B",
"e.	c #FD5F24",
"f.	c #EF5922",
"g.	c #F05921",
"h.	c #F75D22",
"i.	c #BD471A",
"j.	c #240D05",
"k.	c #0F0502",
"l.	c #782D11",
"m.	c #F65C22",
"n.	c #ED5921",
"o.	c #DA521F",
"p.	c #381407",
"q.	c #3F1708",
"r.	c #CA4C1C",
"s.	c #F85D23",
"t.	c #F75C23",
"u.	c #371508",
"v.	c #0D0501",
"w.	c #993915",
"x.	c #F65C23",
"y.	c #EE5A22",
"z.	c #FA5D22",
"A.	c #CE4E1D",
"B.	c #250E05",
"C.	c #050200",
"D.	c #471A0A",
"E.	c #EB5820",
"F.	c #ED5820",
"G.	c #8E3513",
"H.	c #D44F1D",
"I.	c #4E1D0B",
"J.	c #050100",
"K.	c #C64A1B",
"L.	c #FD5E23",
"M.	c #F05920",
"N.	c #AD4017",
"O.	c #220C05",
"P.	c #9C3A15",
"Q.	c #F55B21",
"R.	c #F15A21",
"S.	c #CC4C1C",
"T.	c #521E0B",
"U.	c #0A0301",
"V.	c #4B1C0A",
"W.	c #DF541F",
"X.	c #D24E1D",
"Y.	c #561F0B",
"Z.	c #130702",
"`.	c #0A0401",
" +	c #913614",
".+	c #F45C22",
"++	c #AD4018",
"@+	c #090301",
"#+	c #481B0A",
"$+	c #F45B21",
"%+	c #EE5920",
"&+	c #D8511E",
"*+	c #6A280E",
"=+	c #170802",
"-+	c #F85D22",
";+	c #F25A21",
">+	c #E85620",
",+	c #AB4017",
"'+	c #56200C",
")+	c #100602",
"!+	c #070201",
"~+	c #471A09",
"{+	c #C4491B",
"]+	c #F15B21",
"^+	c #EE5A21",
"/+	c #803012",
"(+	c #0E0502",
"_+	c #2D1106",
":+	c #B84519",
"<+	c #C74B1C",
"[+	c #61250D",
"}+	c #813112",
"|+	c #DD521E",
"1+	c #8A3413",
"2+	c #2B1006",
"3+	c #DB531F",
"4+	c #67260E",
"5+	c #180903",
"6+	c #E95720",
"7+	c #943714",
"8+	c #421809",
"9+	c #0E0501",
"0+	c #7B2D10",
"a+	c #E1541F",
"b+	c #FB5D22",
"c+	c #CE4D1D",
"d+	c #250D04",
"e+	c #C74A1B",
"f+	c #EF5A22",
"g+	c #F55C21",
"h+	c #CD4D1D",
"i+	c #66260E",
"j+	c #1F0B04",
"k+	c #0F0602",
"l+	c #853212",
"m+	c #EC5820",
"n+	c #B24219",
"o+	c #441909",
"p+	c #371407",
"q+	c #CE4D1C",
"r+	c #943815",
"s+	c #4A1B0A",
"t+	c #1E0B04",
"u+	c #8F3514",
"v+	c #DC521F",
"w+	c #65260E",
"x+	c #2A1005",
"y+	c #060201",
"z+	c #EA5820",
"A+	c #A13C16",
"B+	c #3B1608",
"C+	c #140703",
"D+	c #AA4018",
"E+	c #A03B15",
"F+	c #6D280E",
"G+	c #501E0B",
"H+	c #D24F1D",
"I+	c #451909",
"J+	c #230D04",
"K+	c #DD531F",
"L+	c #AF4118",
"M+	c #5F230D",
"N+	c #020100",
"O+	c #A23C16",
"P+	c #C84B1C",
"Q+	c #9D3B16",
"R+	c #280F05",
"S+	c #020000",
"T+	c #511F0B",
"U+	c #5A220C",
"V+	c #3A1608",
"W+	c #1D0A04",
"                                                                                                ",
"                                                                              . +     @         ",
"                                                                            # $ %   & * =       ",
"                                                                          & - ; > , ' ) !       ",
"                                                                          + ~ ; { ] ^ ; ] @     ",
"                                                                            / ; ; ( ; ; _ : @   ",
"                                                                            @ ; ; ; ; < ( [     ",
"                                                                            @ ; ; ; } | 1       ",
"                                                    2 3 4 5 6 7 8 9       @ 0 ; ; ; a b c       ",
"                                                d e f g h i j k l m n o p q r ; ; ; s 0 t       ",
"                                              u v w x y z A k B B B B C D E F ; ; ; ; G H       ",
"                                            I J K L M N O P M Q k B B B R S T U 0 V W V b       ",
"                                          X Y Z ` B B B  ...+.@.#.l B B B $.%.&.*.              ",
"                                        =.-.;.>.B B B B B k l M ,.N j k B B j '.).              ",
"                                        2 !.~.k B B B B B B B k {.y +.].B B ` ^./.(.            ",
"                                      _.:.<...M >.Q [.B B B B B B {.y }.{.k B |.1.).            ",
"                                      2.3.M M 4.5.6.z 7.k B B B B B j 4.O 8.k 9.x 0.a.          ",
"                                    b.c.d.k [.e.j M 5.f.z l B B B B B j g.6.j k h.i.j.          ",
"                                    k.l.5.B B B B B l m.n.i 9.B B B B B j 4.4.e. .o.p.          ",
"                                  =.q.r.e.B B B B B B k s.+.t.k B B B B k s.n.m.j o.u.          ",
"                                  v.w.x.B B B B B B B B k m.y.Q B B B B B [.z n.z.A.B.          ",
"                                C.D.P 9.[.B B B B B B B B 9.4.#.j B B B B B j E.F.f v.          ",
"                                I G.#.N m.Q [.B B B B B B B j #.z [.B B B B l F.H.I.=.          ",
"                              J.:.K.N L L O M  .B B B B B B k ..n.z.B B B B L.M.N.4             ",
"                              O.P.Q.` ` l ..R.#.x. .B B B B B e.N N ` B B B 9.S.T.U.            ",
"                            @ V.W.k B B B B j N O M l B B B B k s.O j B B j X.Y.Z.              ",
"                          @ `. +{.B B B B B B [...6..+B B B B B j P m.` z ++).@+=.              ",
"                          C.#++.k k B B B B B B k m.P s.k B B B ` $+%+&+*+=+=.                  ",
"                        @ 9 f .+h.-+e.B B B B B B 9.;+O 7.B B B ` >+,+'+)+=.                    ",
"                        !+~+{+n.]+^+N Q k B B B B B Q O s.k B k n./+6 (+                        ",
"                      =._+:+].l  .{.R.P m.k B B B B ` L +.Q 6.<+[+(+=.                          ",
"                      Z.}++.B B B B  .L n.s.k B B B B |.R.|+1+).)+=.                            ",
"                    2+J 3+k B B B B B j #.O ].B B B ` h.r.4+5+!+                                ",
"                  q.;.5.9.B B B B B B B l y i 9.[.j 6+7+8+9+                                    ",
"                  0+a+j e.[.B B B B B B B M O b+-+c+/+j.@+                                      ",
"                d+e+n.+.f+m.j B B B B B B -+R.g+h+i+j+                                          ",
"              k+l+` l j M O O Q B B B B B 9.m+n+o+)+                                            ",
"            b.p+q+B B B ` Q 4.#.e.B B B B W.r+s+                                                ",
"            t+u+N B B B B B {.O j B B [.v+w+x+                                                  ",
"          y+J z+B B B B B B l +.h.y K A+B+                                                      ",
"          C+D+l B B B B B B 9.h E+F+G+7                                                         ",
"          j+H+B B B B B k z :+I+a._.!+                                                          ",
"          J+K+B B k ].x L+M+t+N+@                                                               ",
"          a.O+~.@.P+Q+4+R+X S+                                                                  ",
"        @ N+4 T+U+V+W+2                                                                         ",
"          @ @                                                                                   ",
"                                                                                                ",
"                                                                                                "};
