/* XPM */
static char * dewcan_xpm[] = {
"48 48 65 1",
" 	c None",
".	c #5E1A0C",
"+	c #5E7330",
"@	c #76A544",
"#	c #9E1210",
"$	c #A0A0A1",
"%	c #48401C",
"&	c #84BB4E",
"*	c #6D893C",
"=	c #D01111",
"-	c #8EB84C",
";	c #515A24",
">	c #730C0C",
",	c #847034",
"'	c #825A24",
")	c #98321C",
"!	c #90C454",
"~	c #898989",
"{	c #A3C654",
"]	c #F11414",
"^	c #662A14",
"/	c #BD0F0D",
"(	c #7DC654",
"_	c #4E682C",
":	c #637E32",
"<	c #8AA744",
"[	c #BEBEBC",
"}	c #803F1C",
"|	c #97BE52",
"1	c #820A0C",
"2	c #728234",
"3	c #86983C",
"4	c #78AF4C",
"5	c #ACC654",
"6	c #2A2A2C",
"7	c #4A3317",
"8	c #76662C",
"9	c #66361C",
"0	c #922214",
"a	c #BA2614",
"b	c #8E5224",
"c	c #969697",
"d	c #574D21",
"e	c #72973F",
"f	c #62180C",
"g	c #5E622C",
"h	c #AA1E14",
"i	c #6A722C",
"j	c #7E7E7F",
"k	c #B61E14",
"l	c #625A28",
"m	c #747474",
"n	c #5E2A14",
"o	c #863A1C",
"p	c #7C2A14",
"q	c #6D696B",
"r	c #5A5A5C",
"s	c #A6A6A5",
"t	c #CACACC",
"u	c #5E5E5C",
"v	c #6E6E6C",
"w	c #AE0F0F",
"x	c #E01214",
"y	c #82160C",
"z	c #636364",
"                                                ",
"                                                ",
"                                                ",
"                                                ",
"                                                ",
"                                                ",
"                                                ",
"                                                ",
"                      j~~cc~                    ",
"                  jj~m~mm~~jjr s                ",
"                  ~c$c~j~~~cc~~cc               ",
"                 rcc$$$~~~jcccc~r               ",
"                 ~css$s~$sss$$c$c               ",
"                qcccssssss$$$c$cdd              ",
"                ~c$cc$ss6$$s$$czmz              ",
"                cs~jjjjc$s cmqvqzu              ",
"                m jjjmmmvvzzvvvvm~              ",
"                4$~~jjjvmmmmmmmjj<              ",
"                4((((c~qq~~ccc{555              ",
"                (((((!|||!||{5555<              ",
"                4(((!!*=/,|{{55555              ",
"                (((((!4*'=h*{{555<              ",
"                4((((&@:d}]y<55555              ",
"                (((!(&;7/kp^<5555<              ",
"                4(((!(&.yp<{{55555              ",
"                (((((!!&g=w+{{555<              ",
"                4((((!b/]=02{55555              ",
"                ((((&&33--|{{5555<              ",
"                4(((!4+i-n%{{55555              ",
"                (((((}d#_/9|{5555<              ",
"                4((((/4]ex2-{55555              ",
"                ((((ew8],]-{{5555<              ",
"                4(((%w/x]=-{{55555              ",
"                ((((4@:id>-{{{555<              ",
"                4(((eof>:e|{{55555              ",
"                ((((}=f0>*{{{5555<              ",
"                4(((b_@!/:{{{55555              ",
"                (((4)@(*]!!{{5555<              ",
"                 4(_/:+7=|{|{55555              ",
"                 ((7x#=}1!{{{555-               ",
"                  4;dloa>|!{{555                ",
"                  (((!!@;!{{{5-                 ",
"                     4!{|!{{rr                  ",
"                     zzuuurr                    ",
"                                                ",
"                                                ",
"                                                ",
"                                                "};
