/* XPM */
static char *magick[] = {
/* columns rows colors chars-per-pixel */
"48 48 65 1",
"  c #380000",
". c Gray24",
"X c #4f0000",
"o c #5e3b0d",
"O c #5a3517",
"+ c #5d3d13",
"@ c #5d3d1a",
"# c #5d3a22",
"$ c #6a0000",
"% c #5f4213",
"& c #5e431b",
"* c #5f4a1d",
"= c #5f4422",
"- c #5f4a22",
"; c #5f4b2b",
": c #5f5228",
"> c #7b4a17",
", c #7e581a",
"< c #7c5028",
"1 c #7d5826",
"2 c #7f642f",
"3 c Gray32",
"4 c #727272",
"5 c Gray46",
"6 c #0000b3",
"7 c #9f5e14",
"8 c #a1661c",
"9 c #a46911",
"0 c #a36a28",
"q c #a36a32",
"w c #a67627",
"e c #a57835",
"r c #d17112",
"t c #db7918",
"y c #d87a26",
"u c #dc7c34",
"i c #e37a25",
"p c Magenta",
"a c #a9842f",
"s c #b3b300",
"d c #a78b46",
"f c #dd871b",
"g c #da8729",
"h c #dc842b",
"j c #d98836",
"k c #d3952f",
"l c #db9737",
"z c #e6831b",
"x c #e58729",
"c c #e58a37",
"v c #e79229",
"b c #e69736",
"n c #f29536",
"m c #f1a335",
"M c #dc8545",
"N c #dc9444",
"B c #d7a449",
"V c #e58a44",
"C c #e79846",
"Z c #e79a53",
"A c #eba349",
"S c #e7ab58",
"D c #f2a848",
"F c #8e8e8e",
"G c None",
/* pixels */
"GGGGGGGGGGGGGGGGGGGGGGGGGGGGGGGGGGGGGGGGGGGGGGGG",
"GGGGGGGGGGGGGGGGGGGGGGGGGGGGGGGGGGGGGGGGGGGGGGGG",
"GGGGGGGGGGGGGGGGGGGGGGGGGGGGGGGGGGGGGGGGGGGGGGGG",
"GGGGGGGGGGGGGGGGGGGGGGGGGGGGGGGGGGGGGGGGGGGGGGGG",
"GGGGGGGGGGGGGGGGGGGGGGGGGGGGGGGGGGGGGGGGGGGGGGGG",
"GGGGGGGGGGGGGGGGGGGGGGGGGGGGGGGGGGGGGGGGGGGGGGGG",
"GGGGGGGGGGGGGGGGGGGGGGGGGGGGGGGGGGGGGGGGGGGGGGGG",
"GGGGGGGGGGGGGGGGGGGGGGGGGGGGGGGGGGGGGGGGGGGGGGGG",
"GGGGGGGGGGGGGGGGGGGGGGGGGGGGGGGGGGGGGGGGGGGGGGGG",
"GGGGGGGGGGGGGGGGGGGGGGGGGGjfyGGGGGGGGGGGGGGGGGGG",
"GGGGGGGGGGGGGGGGGGGGGGGGtMjhljlGGGGGGGGGGGGGGGGG",
"GGGGGGGGGGGGGGGGGGGGGGGygllhgllSGGGGGGGGGGGGGGGG",
"GGGGGGGGGGGGGGGGGGGGGttNbAg1yggjNBGGGGGGGGGGGGGG",
"GGGGGGGGGGGGGGGGGGGzyulbN&&>BkthykjyGGGGGGGGGGGG",
"GGGGGGGGGGGGGGGGGxzicAS&%>McllfyyuMjgGGGGGGGGGGG",
"GGGGGGGGGGGGGGGGAxhVZ&%-jgcgMhgkBlhuyylGGGGGGGGG",
"GGGGGGGGGGGGGGiVcvCS+->fxbhNllvflBgygyNNGGGGGGGG",
"GGGGGGGGGGGGhiVxcS&*>tizfjbcvblltgNflk+-GGGGGGGG",
"GGGGGGGGGGxgibbA--=AxxtiuckbNlBrbhlll*&=GGGGGGGG",
"GGGGGGGGnmciCcZ=*zZNziijrcNbStyyllB&%:%&GGGGGGGG",
"GGGGGGGDbxiCc@;>iiVchfVcVjcjtyjNS%%-%&o&GGGGGGGG",
"GGGGGvDnjVc@#>vhytCVvciccCNhjjNS&-%=%<@:GGGGGGGG",
"GGGGnAvuACm%mnVzircCgvgctNfhNb=&*%++o1%%GGGGGGGG",
"GGGGwVunvDSACCbxuuuclbhtCchZS%:+:+&&%1=@GGGGGGGG",
"GGGG80OcvvmSACxhcxxcAtrVxjN@-%*@&-*--2=&GGGGGGGG",
"GGGGwq8wzzxxcZNchVVbgtVxj-=-&+o*--:-+2+&GGGGGGGG",
"GGGGd0dawaCcnDcxhuvfyxcb&:o-+=::**o+  XFF$ X$GGG",
"GGGGG0OwawdzxihVmmchcb&=%=+&:-%o+%% >FF F$FGGGGG",
"GGGGGa@&eaaavmxbCchAc@#@=+%-%%o%&-,$X  $3$X  GGG",
"GGGGGe8@+wwwwcAmgMZ%O%=+;-&+@%%&-1F$$3F 3$$3F3GG",
"GGGGGwe-&1,9wd0NuSO@=@:=%@%&***125FF3  33F   .GG",
"GGGGG0d@*,,,9e80OO+#=-o%%+&*=%12&-55FFFFFFFF..GG",
"GGGGGww++,1,2908+O+;@@+&&-&+12=*o*555FFFFFF...GG",
"GGGGG7eVnCmw,2qq&:%@+@==-&+<1+%*oG55555FF.....GG",
"GGGGGGwqanmDD1d8==+@====@><=-@&+GG555555......GG",
"GGGGGG0ewwzxnme0O-*@#=@@>>=&&o&GGG5s5555......GG",
"GGGGGGG079emACqe@+-@@O1>=:+&@GGGGG555555......GG",
"GGGGGGGGG79wcxnd8%%+@<>&%-O%GGGGGG56s555......GG",
"GGGGGGGGGG798Dm00-&>>@#&&=GGGGGGGG466644......GG",
"GGGGGGGGGGG779ced&=1@&=@&GGGGGGGGG446664......GG",
"GGGGGGGGGGGG8qd7e+&#@@;GGGGGGGGGGG444s44......GG",
"GGGGGGGGGGGGG87ewO@@@&GGGGGGGGGGGG444s44......GG",
"GGGGGGGGGGGGGGG10-@:GGGGGGGGGGGGGG444444......GG",
"GGGGGGGGGGGGGGGGe*%GGGGGGGGGGGGGGG444444......GG",
"GGGGGGGGGGGGGGGGG-GGGGGGGGGGGGGGGGG44444....GGGG",
"GGGGGGGGGGGGGGGGGGGGGGGGGGGGGGGGGGGG4444...GGGGG",
"GGGGGGGGGGGGGGGGGGGGGGGGGGGGGGGGGGGGG444..GGGGGG",
"GGGGGGGGGGGGGGGGGGGGGGGGGGGGGGGGGGGGGGG4.GGGGGGG"
};
