/* XPM */
static char *magick[] = {
/* columns rows colors chars-per-pixel */
"48 48 65 1",
"  c #3d0000",
". c #470000",
"X c #540000",
"o c #5e3c0d",
"O c #5a3517",
"+ c #5d3d14",
"@ c #5d3d1a",
"# c #5d3a22",
"$ c #630000",
"% c #6b0000",
"& c #720000",
"* c #7c0000",
"= c #5f4113",
"- c #5e431b",
"; c #5f4a1d",
": c #5f4422",
"> c #5f4a22",
", c #5f4f29",
"< c #7b4a18",
"1 c #7e5619",
"2 c #7d5827",
"3 c Gray40",
"4 c #797979",
"5 c #850000",
"6 c #970000",
"7 c #b30000",
"8 c #9f6017",
"9 c #a36815",
"0 c #a36a2b",
"q c #a67627",
"w c #a57835",
"e c #c80000",
"r c #d17112",
"t c #db7918",
"y c #d87a26",
"u c #dc7c34",
"i c #e37a25",
"p c Magenta",
"a c #a9842f",
"s c #a78b46",
"d c #db851c",
"f c #da8729",
"g c #dc842b",
"h c #d98836",
"j c #d3952f",
"k c #db9737",
"l c #e6841a",
"z c #e58729",
"x c #e58a37",
"c c #e69736",
"v c #ed9430",
"b c #f1a335",
"n c #dc8545",
"m c #dc9444",
"M c #d7a449",
"N c #e58a44",
"B c #e79846",
"V c #e79a53",
"C c #eea548",
"Z c #e7ab58",
"A c #8b8b8b",
"S c Gray70",
"D c #cbcbcb",
"F c #eeeeee",
"G c None",
/* pixels */
"GGGGGGGGGGGGGGGGGGGGGGGGGGGGGGGGGGGGGGGGGGGGGGGG",
"GGGGGGGGGGGGGGGGGGGGGGGGGGGGGGGGGGGGGGGGGGGGGGGG",
"GGGGGGGGGGGGGGGGGGGGGGGGGGGGGGGGGGGGGGGGGGGGGGGG",
"GGGGGGGGGGGGGGGGGGGGGGGGGGGGGGGGGGGGGGGGGGGGGGGG",
"GGGGGGGGGGGGGGGGGGGGGGGGGGGGGGGGGGGGGGGGGGGGGGGG",
"GGGGGGGGGGGGGGGGGGGGGGGGGGGGGGGGGGGGGGGGGGGGGGGG",
"GGGGGGGGGGGGGGGGGGGGGGGGGGGGGGGGGGGGGGGGGGGGGGGG",
"GGGGGGGGGGGGGGGGGGGGGGGGGGGGGGGGGGGGGGGGGGGGGGGG",
"GGGGGGGGGGGGGGGGGGGGGGGGGGGGGGGGGGGGGGGGGGGGGGGG",
"GGGGGGGGGGGGGGGGGGGGGGGGGGhddGGGGGGGGGGGGGGGGGGG",
"GGGGGGGGGGGGGGGGGGGGGGGGtnhgkhkGGGGGGGGGGGGGGGGG",
"GGGGGGGGGGGGGGGGGGGGGGGyfkkgfkkZGGGGGGGGGGGGGGGG",
"GGGGGGGGGGGGGGGGGGGGGttmcBf2yffhmMGGGGGGGGGGGGGG",
"GGGGGGGGGGGGGGGGGGGlyukcm--<MjtgyjhyGGGGGGFDGGGG",
"GGGGGGGGGGGGGGGGGzlixZZ-=<nxkkdyyunhfGGGGFSDSGGG",
"GGGGGGGGGGGGGGGGCzgNV-=>hfxfngfjMkguyykGG43AD3GG",
"GGGGGGGGGGGGGGiNxvBZ+><dzcgmkkzdkMfyfymm34GGDSGG",
"GGGGGGGGGGGGgiNzxZ-;<tiddhcxvckktfmdkj+>F3GGGS4G",
"GGGGGGGGGGzficcZ>>:CzztiuxjcmkMrcgkkk;-:43GGGDAG",
"GGGGGGGGvbxiBxV:;lVmliihrxmcZtyykkM-=,=543GGGGS4",
"GGGGGGGCcziBx@,<iiNxglNxNhxhtyhmZ==>=5554355GGSA",
"GGGGGzCvhNx+#<vgytBNvxixxBmghhmZ->=:=55543XXXGGG",
"GGGGvCzuCBb=bvNlirxBfzfxtmdgmc:-;=++555555555GGG",
"GGGGqNuBvCZCBBvzuuuxkcgtBxgVZ=,+,+--555555555GGG",
"GGGG00OxvvbZCBzgxzzxBtrNzhm@>=;+->;>5*&55555 GGG",
"GGGGqw8qllzzxVmxgNNvftNzh>:>-+o;>,,>5*&$X..  GGG",
"GGGGs0saqaBxvCxzguzdyzxc-,o>+:,,;;o=5*&$X..  GGG",
"GGGGG0OqaqslzigNbbxgxc-:=:+-,>=o+==25*&$X..  GGG",
"GGGGGa@-waaavvzcBxgCx@#@:+=>==o=->11-*%$X..  GGG",
"GGGGGw8+oqqqqxCCfnV=O=:+,>-=@==->2-:>e%$X.. GGGG",
"GGGGGqw>-219qs0muZO@:@,:=@=-;;;22-;->e7**.%$GGGG",
"GGGGGqs@;1119w90OO+#:>o==+-;:=22->-=Ge76*&%$GGGG",
"GGGGGqq++1212908+O+,@@o-->-+22:;o;oGGe765&%$GGGG",
"GGGGG8wNvBbq1200-,=@+@::>-+22+=;oGGGGe765&%$GGGG",
"GGGGGGq0aBbCC2s8::+@::::@<2:>@-+GGGGGe765&%$GGGG",
"GGGGGG0wqqlzxbw0O>;@#:@@<<:--o-GGGGGGe76*&%$GGGG",
"GGGGGGG089wbCB0w@+,@@O2<:,=-@GGGGGGGGe76*&%$GGGG",
"GGGGGGGGG89qxzvs8==+@2<-=>O=GGGGGGGG6e76*&%$GGGG",
"GGGGGGGGGG899bb00>-<<@#--:GGGGGGGGGG*e76*&%$XGGG",
"GGGGGGGGGGG889vws-:2@-:@-GGGGGGGGGGG*676*&%X.GGG",
"GGGGGGGGGGGG80s8w+-#@@,GGGGGGGGGGGGG*&%555X .GGG",
"GGGGGGGGGGGGG98wqO@@@-GGGGGGGGGGGGGG*&%X... GGGG",
"GGGGGGGGGGGGGGG20>@,GGGGGGGGGGGGGGGG*&$X... GGGG",
"GGGGGGGGGGGGGGGGw;=GGGGGGGGGGGGGGGGGG&$X... GGGG",
"GGGGGGGGGGGGGGGGG>GGGGGGGGGGGGGGGGGGG&$X..  GGGG",
"GGGGGGGGGGGGGGGGGGGGGGGGGGGGGGGGGGGGGGGX..GGGGGG",
"GGGGGGGGGGGGGGGGGGGGGGGGGGGGGGGGGGGGGGGGGGGGGGGG",
"GGGGGGGGGGGGGGGGGGGGGGGGGGGGGGGGGGGGGGGGGGGGGGGG"
};
