/* XPM */
static char * nodoze_xpm[] = {
"48 48 65 1",
" 	c None",
".	c #F65A1C",
"+	c #E2B127",
"@	c #DBD72E",
"#	c #EAEA8A",
"$	c #DEC42A",
"%	c #EA861C",
"&	c #E6DA6C",
"*	c #E69C27",
"=	c #ECB258",
"-	c #EAC666",
";	c #E6E470",
">	c #E5AA29",
",	c #F3F2C0",
"'	c #E0DE4D",
")	c #DAD22D",
"!	c #F09C4F",
"~	c #DFBD25",
"{	c #F07424",
"]	c #E89424",
"^	c #EDE591",
"/	c #F0EEA9",
"(	c #F1D994",
"_	c #ECBC5C",
":	c #F9F8E0",
"<	c #E3D957",
"[	c #E7C551",
"}	c #F0A255",
"|	c #EAD16F",
"1	c #E2B624",
"2	c #EC8024",
"3	c #DEDA3F",
"4	c #E9E67F",
"5	c #EDA854",
"6	c #F06C20",
"7	c #F2884C",
"8	c #F1944D",
"9	c #ECCA70",
"0	c #F0D08C",
"a	c #E4CF4F",
"b	c #E9DE7A",
"c	c #EEB661",
"d	c #E9B048",
"e	c #E6BB44",
"f	c #F2BC78",
"g	c #E0CA31",
"h	c #E6A225",
"i	c #EE7A1C",
"j	c #E6CA52",
"k	c #F18E4B",
"l	c #F2F2B3",
"m	c #F2DE98",
"n	c #E8B644",
"o	c #F2C484",
"p	c #E3E260",
"q	c #F2A868",
"r	c #ECD87F",
"s	c #F1B16A",
"t	c #F6F6D0",
"u	c #EE923C",
"v	c #F1E39F",
"w	c #F08238",
"x	c #EEEB98",
"y	c #EE8A34",
"z	c #EA9E3C",
"                                                ",
"                                                ",
"                                                ",
"                                                ",
"                                                ",
"                                                ",
"                                     j|0|       ",
"                                 j9|#/xb|       ",
"                            $jj-j&###xx//       ",
"                        $$jp;;4#4####//b|       ",
"                    ~~$$<p;;;44#4###xxx//       ",
"                ~~$@pp'&pp;;;;44#^##xx(r0|      ",
"            ~~~~)3''''p'pbp;;444#^r#(s8(//      ",
"        ~~~)@@@@333''ajjp;;;#b4&8s!#7^k0v|      ",
"   ~~~~~$@@@@@3''''<ezen6p;-_u|5}6q077fv//      ",
"~~))))@@@@@@@3333'3''.[&k5|z-}55q5cs8q((v0|     ",
"@@@@@@@@@@@@3@333''pj{dp5ue!-_89}ksfo!o(,,/     ",
"@@@@@)~~)@@@@33'')aa[uzpd7-u_-kr}k!^/v/,/v0     ",
" ~~1$)*>@g11)3ge+d[<ayz&ucbc!}rbr^xxx//,/,/     ",
" )>{])+])>+h*@$j3''p'w5ed;;b|4##^#xx////,v(0    ",
" ~16i*~]$6)>i3'3'''pju5[&4;444#x#x////,,,,t,    ",
" ))i]6h*>2$*>)3''p'''pp;;;444#4#x##//l/,/,vr    ",
"  *h)%{*~*>>~<3''''ppp;;;44#4###//x//l/,,,,,    ",
"  1h$1%]@~+$@''''pppppp;;;44####x#////l,,,/((   ",
"  *]1)$~@@333333'''pp;;;;4444###/xx////,,tt:t   ",
"  )$)@@@@@@3''''''pppp;;;44^####///,,tt::::,(   ",
"   ~@@@@@@3333'''ppb;;;###/#//,,ttt:t::::::t,   ",
"   @@@@@3@333''p;;4#x///,,t,,ttttt::t:ttt,t/((  ",
"   ~@@@@@33''p4^x,,,,,t,t,ttttttt,,t,,t,,,,tt,  ",
"   @@@@3''p4#/,,,/,,,,,,/,/,//////l/l,,ttt,t/(  ",
"    ~@@';#//,/,//xx##^####^#//#/////,/,,,t,tt,  ",
"    @3p#/,//#/#44;;;4;444###4x##//ll/,,,t,tt/(( ",
"    $#/l/###;;pppp;p;;;44####///x//l,,,,tttt::t ",
"    4//##4p''''''pp;;;;4444###x#////l,,,t,ttt,( ",
"     |#;p'''<''pppb;;;444###xx////l/,,,,t,tt::t ",
"     #p33333''p''pp;;;;4#^###x#//l/,/,t,ttt:t,( ",
"     $3333'''''ppp;;;#44#44xx/x//l/,,,,,tt      ",
"     3@33''''<p'pp;;;p44######////l,,(          ",
"      ~@3333p''ppb;;;4444##//#x///              ",
"      @333''<pp'pp;;#;#4####x|                  ",
"      ~3'3''''ppp;;;#;##4#                      ",
"      @33''p'ppppp;;;j                          ",
"      ~3333''p&p;                               ",
"       3''''$                                   ",
"       ~3                                       ",
"                                                ",
"                                                ",
"                                                "};
