/* XPM */
static char * pizzabox_xpm[] = {
"48 32 65 1",
" 	c None",
".	c #030304",
"+	c #8A8264",
"@	c #D2C38C",
"#	c #494434",
"$	c #B5AA7B",
"%	c #D65014",
"&	c #CA6B36",
"*	c #D5A581",
"=	c #EBE4D1",
"-	c #C78446",
";	c #C8783C",
">	c #DED4B1",
",	c #C89559",
"'	c #D6B384",
")	c #C0604A",
"!	c #BEB48C",
"~	c #BF6D56",
"{	c #D9956C",
"]	c #CF6026",
"^	c #EDD3BF",
"/	c #EAC9BF",
"(	c #D57A44",
"_	c #6B664C",
":	c #DCAD85",
"<	c #D5875A",
"[	c #2A281C",
"}	c #C87E3F",
"|	c #CA7237",
"1	c #F9F3EC",
"2	c #CABC85",
"3	c #CA6633",
"4	c #C78C4C",
"5	c #BF7852",
"6	c #14120C",
"7	c #5C5441",
"8	c #363224",
"9	c #9A926C",
"0	c #7A7354",
"a	c #E6B59C",
"b	c #CCA56C",
"c	c #D3BE87",
"d	c #D89D7E",
"e	c #F7EDE6",
"f	c #D6CB9C",
"g	c #C69B5D",
"h	c #E1DBC3",
"i	c #1B1A14",
"j	c #5F5B44",
"k	c #D3581B",
"l	c #EDDCCC",
"m	c #D7AB9E",
"n	c #0D0C09",
"o	c #423E2C",
"p	c #FEFEFC",
"q	c #E9BCA0",
"r	c #CAB57C",
"s	c #726C54",
"t	c #CCAD73",
"u	c #E0A480",
"v	c #BD6656",
"w	c #ECCEBA",
"x	c #C17256",
"y	c #DEBEB4",
"z	c #D49684",
".nnnnnnnnnnnnnnnnnnnnnnnnnnnnnnnnnnnnnnnnnnnnn..",
"i#777777777777777777jjjjj777jjjj77777777777777on",
"[099999999999999999999999999999999999999999999_n",
"[099999999999999999999999999999999999999999999_n",
"[099999999999999999999999999999999999999999999_n",
"[s999999999999999rr2ctggbttt'r$999999999999999_n",
"[099999999>>hhhfc2=g4;&&3;-;-,tc@$999999999999_n",
"[s9999999!=!f>lpg;p;4-|;|3&&|&;,'@@29999999999_6",
"[09999999!=@cb;=d|v3;;x54;&&~&;-||,^>$99999999jn",
"[s9999999==c-3)lbm/*ppppetppppe|vup/=1fp999999_6",
"[0999999$ef;]&de5l',-;;1*-x-}1d&q/x3&:1e999999jn",
"[0999999@pdzzae{~lb4;&^*55v|w{]<e%)k]&l=999999_6",
"[0999999fp///m~k3p-;vwd&;}}wdvvaa&)]]&wl999999jn",
"i0999999ll])%)k]<ev&w/v&},hl5~&^*v-|v|e>999999_6",
"[0999999=lk%k]]3{/kw^&v&}lhgg5;/y5,53:p@999999jn",
"[0999999hl4k%)]&/mq1*dddyetm2'&|pmbdqlp$999999_6",
"[0999999h2f(kkk3m<:^^w^^:w^h^h&k(/1w:u>9999999_n",
"[s99999999$f'3]]]&x5}v-~]];4~4v]]33|t$99999999_n",
"[099999999992@*|3&&55v-v]k&5}-;;&|:29999999999_n",
"[0999999999999!@@t4;|;;&&&3~~;4t@$999999999999_n",
"[0999999999999999$r2@222@@2@22$999999999999999_n",
"[099999999999999999999999999999999999999999999_n",
"[099999999999999999999999999999999999999999999_n",
"[s99999999999999999999999999999999999999999999_n",
"i7_________j_____s000000000s00s00000s0s+++++++jn",
".6i6i6iii6iiiiii[[[[[[[[[[[[[[[[[[[[[[[8ooooo##n",
"68+++++++++++++++0000000000000000000000ss_____[n",
"[_999999999999999999999999999999999999999999997n",
"[099999999999999999999999999999999999999999999_n",
"[s99999999999999999999999999999999999999999999_6",
"i#7j77_________j______j_j_j_j_j_j_j___j_j____j#n",
"......nnnnnnnnnnnnnnnn6n6nnn6nn6n6nn6n6nnnnnn6.."};
