/* XPM */
static char * shells_xpm[] = {
"48 48 65 1",
" 	c None",
".	c #34342F",
"+	c #827A14",
"@	c #892F14",
"#	c #5E522C",
"$	c #D6A64C",
"%	c #5E3A14",
"&	c #DD7A22",
"*	c #9E5E14",
"=	c #5E4018",
"-	c #D2962C",
";	c #A4421C",
">	c #72320C",
",	c #893B14",
"'	c #73692B",
")	c #76360D",
"!	c #928D29",
"~	c #DC8629",
"{	c #757574",
"]	c #7A4A14",
"^	c #807614",
"/	c #4A491C",
"(	c #96341C",
"_	c #5E4821",
":	c #812A14",
"<	c #DB8938",
"[	c #A67A34",
"}	c #D27214",
"|	c #E69431",
"1	c #973C14",
"2	c #7F6D14",
"3	c #8B3614",
"4	c #8A723C",
"5	c #813714",
"6	c #C6C654",
"7	c #7E5622",
"8	c #5A3614",
"9	c #828214",
"0	c #F2A234",
"a	c #92922C",
"b	c #A67624",
"c	c #95864C",
"d	c #A46819",
"e	c #726224",
"f	c #4F4E4C",
"g	c #927E44",
"h	c #E69A48",
"i	c #E6AA5C",
"j	c #A68E44",
"k	c #AA862C",
"l	c #A6963C",
"m	c #9A4214",
"n	c #813214",
"o	c #E68A39",
"p	c #8E8624",
"q	c #DC963B",
"r	c #A26A2F",
"s	c #3E362C",
"t	c #F29634",
"u	c #DE7E34",
"v	c #E68627",
"w	c #EEA64C",
"x	c #AE421C",
"y	c #7A3112",
"z	c #564A44",
"                                                ",
"                                                ",
"                                                ",
"                                                ",
"                                                ",
"                                                ",
"                                                ",
"                                                ",
"                                                ",
"                          }}d                   ",
"                        *}u~-}k                 ",
"                       &~-q~~-~<                ",
"                     *}~qh~7&~~~~j              ",
"                   }}&q|q==]$-&u}k}*            ",
"                 }}}vii==]u<q-~&&&uu}           ",
"                hvuoh==#<~o<u~~-$q<}}}b         ",
"              *&u||i=_]~vh~qq-|~q$~&~}<~        ",
"            }&ovoi_#]&&~~~qo||q-&~-~q-8.        ",
"          }}}t|i__=wvv&&uo-|qq$}|uqqq_==        ",
"        ~hv&hoh_#vhqv&&~}oqhi}&&q-$==#8.        ",
"       ~<o&hv=_]&&oo~vovo<v<&&<qi==_==%%        ",
"     ~0t<oo=%]|v&&hooo&oohq~<<qi__=_=78s        ",
"    }h|uwh0=0tov&}oh~|~o&q~~qq==#=%==7==        ",
"    [<&towiwhh|vuu&oq|~&hvuhi=#=_====78.        ",
"    ]r8o||0i0hvuvvvoh&}<v<q=_=_=_____'=%        ",
"    [rdbvvvvohqo<oo|~&ov<_=__=%__##_=7g.e       ",
"    4djkbkhotwovuu|~&~oq_#=_=_##__=%={6+e9      ",
"     r8bkbkvv&uow0o~o|_==_%=#_=%===7]ap9!'/     ",
"     4%=[kk[|wo|ho~wo%%====_====__!/+a9a'''     ",
"     [*%8bb[boww~uh=8=_%#_======_{6^'a'''#:     ",
"     *[__77dbjdqui8%_%_=====___77ag^!9'13@:     ",
"     rj=_777dbrr88%%=_===%=_==c/+!+p'''(:::     ",
"     *b==7777drd%8=#=%==___=7{l2'ae'''@((::     ",
"     *[vth0b77rr=#=%===___=77!42a9'33@:(:::     ",
"      *rkt0ww7jd_==%=_=_%]7_#!^9'''35n@((::     ",
"      r[bbvot0[r8#_====%]]_==peee'@55n:(:::     ",
"       7*db0wqr[%%_%=87]=#=_=x13@@y5>@:((..     ",
"         *dbovtjr===%7]_=_88 m555y:y5@:....     ",
"          ]dd00rr_=]]=%__=   @,)>>y33@:...      ",
"           **dvbj__7===%8    ;5)>@:1@..         ",
"            7rj*[%=%==_      :5))y:s...         ",
"             d*[b8=%%8       153n@:...          ",
"               =r_=#         :13@.. s           ",
"                [_s          /zs... #           ",
"                 8           s....              ",
"                                                ",
"                                                ",
"                                                "};
