/* XPM */
static char * aircon_h_xpm[] = {
"64 64 29 1",
" 	c None",
".	c #627A8C",
"+	c #7E8E9C",
"@	c #728694",
"#	c #6E7E8C",
"$	c #7A869C",
"%	c #6A7A8C",
"&	c #8A96AC",
"*	c #667E8C",
"=	c #768A9C",
"-	c #8692A4",
";	c #768694",
">	c #6E8294",
",	c #7A8A9C",
"'	c #667A8C",
")	c #8292A4",
"!	c #6A7E8C",
"~	c #8E9AAC",
"{	c #7E8A9C",
"]	c #7E8EA4",
"^	c #72869C",
"/	c #6E7E94",
"(	c #8E96AC",
"_	c #667E94",
":	c #76869C",
"<	c #728294",
"[	c #667A94",
"}	c #6A7E94",
"|	c #7E8AA4",
"}]+]+]+]+]+]+]+]+]+]+]+]+]+]+]+]+]+]+]+]+]+]+]+]+]+]+]+]+]+]+[}}",
"''}}|{|{|{|{|{|{|{|{|{|{|{|{|{|{|{|{|{|{|{|{|{|{|{|{|{|{|{|{}@,,",
"['''[!}+]+]+]+]+]+]+]+]+]+]+]+]+]+]+]+]+]+]+]+]+]+]+]+]+.}}}$,,,",
"%[[_*[[.__,,,,,,,,,,,,,,,,,,,,,,,,,,,,,,,,,,,,,,,,,,,._},,,$,::,",
"%%'[**['[[}]]]]]]]]]]]]]]]]]]]]]]]]]]]]]]]]]]]]]]]]}[$$$,,,,,,:,",
"__%'[['''*'['}}{|{|{|{|{|{|{|{|{|{|{|{|{|{|{|{|{|}},,|,,$$,,,,,$",
"[[[''}['[_'[''..}+]+]+]+]+]+]+]+]+]+]+]+]+]+]+]_,,|,,,,,,=:,,,=,",
"'*!%['!_'''''[[[[.__,,,,,,,,,,,,,,,,,,,,,,,,__,{,,,,,,,,,$,::$$:",
"[[_![[%'[_'[''''['[[}}}]]]]]]]]]]]]]]]]]]}}:{,,|{,,,$$|=|=,,==,,",
"!''[''[_''_*['[''''''[['}}|{|{|{|{|{|{}}}|||,,,,,,$|=,$$=,,,$$::",
"_['}['%_''''_'[[['[[''[''..}}+]+]+]^.'',,,,,|,,,,|:,,,=,$,$,=,,,",
"%!['!_[%['[_''*''[''[''['[[..__,,,.'|,,|{|,,,,|,,,,,|=,:|:=:$:::",
"[![[%'[*[''[_''[''''[''[''[['//[[[},||,,,||,|,,$|,$$,,|=,$,=,,,=",
"*[*'[_[%*_'''[[''[[['[''['''[#>//!}|,,||,,,,,,$,:|,=$:=$$=:$:::$",
"*%_*%*[%[[!['''['''''[''[''%/#>>//><},,|,,|,,|=|:=,=,,,=$,=,,==:",
"[_%[[%'[%*['**_'_''[['[['.}>#/##<<</<}},,,,,$,,,,,|,|$:$=:$::$:,",
"'_!*[_'[%[}[['''[['''''.%/#>#/</##<</<<}|,|,|:,,::===,=$,=,,=:::",
"_'[[_%_*['''''_[*'[.[.%//#/#>>/><<</<<<<}},,:|$,,,$$$:$=:$:::$:,",
"_*!'_%['}[[%%[''_'[.%}%}/#/#/>#/>><<<<<<<^},,,$|=,|=,=$,=,=:=;::",
"%[[}'_%_''}__'*['''[/}/#!}#/##<></<<><<<<<^}},,=,==$:$=:$::$:,:=",
"!*'_'_%[}'''%[''[}%!!!!/#>#></#/<><<<^<<:<:<}}$$|$=,=$,==,=;::;:",
"[[_%_'_*'[[[_''[}%%%##/#/!>/#><<</><<<^:<:<^^^}_$,$:$=:$:::$:=:=",
"!'_%_'%[*%%'[[%%!#}%%!}#//#//#>><<<<<<<<<:;<::::}},=$,=,::=:::::",
"[}'_%___%__['.*%%%#}//#}##/><</#<<><<<<@^<<$<;:::}}$=:::;$:=:=;=",
"'_'_%'%_'['.%%}!}%!!!}#//>##/<<><<<<<<<<::@::;::::]}}::,=;:;::::",
"_%_'__.''[%[%%%%%}#/##/!>#>>>></<<<<^:<:<<:;;::;=::|}}}::::=;=;:",
"_%_'%%.[}}%!%'!!%%%%}###/#/#/></<><<<:<;:<:<:;:$,;,=,+}:,:::::::",
"%_%___}}'!'%*!%%#!//#}//#/<<<#<<><<<<<@<<:<:;:;;:$:$$$,}!,;=:;@:",
"%_%[}%'%'%'%%!}%}!!!##}>##/#<>><<<<<<<::;:;:::::=$=,=$,$,}};::^;",
"_%_%''%'%*%%%%%}#!#//!>#>>><</<<<<^@<:<<@;::;;:;$=$:,=,,,{{}}:;:",
".[.%%'!'%!%%!!%%%%%!/#//#///<#<><<<:<;:<:<;::$,:$=,$,$,,,,,}}}^:",
"[''''''[.[.[[''[[[[['[''[''''[.[['['[.'['[[.'..'.''''[.[[[[.'''+",
"},))-]--]-)---)-----]-]--)------]-]----]-)----]--]---------)|/[}",
"||||---------]-------------]-----------------------]------|/*_!}",
"+],,$,-----------------------]--------------------------,}_}!}}}",
"|{]]]|:<----&----------------&------------------------,/%}!_}}!}",
"]{|,,|||::,-------&------------------&-----------&&&|}__}%}!*}!}",
",,,|],,,|||||--&---(--&-&&&&-(-&&(-&&--&&&&&(&&&(-,/.[[%}_%_}_}!",
"||,,,||,,,,,,-|&&&-&&------(-&---&---(-----&-&--]/._!}_'}}!%%__}",
",,,,|,,,,,|,|=|:|&&&&&(&((&&&&&&(-((&&(&&(&&(-]}[.[[['!}!_%}}!}!",
",,|,,,,,|,,,,,|],^,-&&&&&&&&-&-&&&&&&&&&&&&&]}['[*''_[}%}}_}%}_}",
",,,,,,|,,,|,|,=,,$$:||&--&--(((&&&&--&&&&&,[[['.[%.*%*}_%*}_}!}!",
",,,,,,,,,,,,,,,,,,,==<]]&((&&&-&&-(&--(&,}.''__**}[_%[!}}%%__!_}",
",:,=,=:===::,,::=,,,:,$:|]&&&&((&(&&((,}.''[*'''['%'_!__%}}}!}}!",
",=$:$,$$,,,=:,,$=:$,,,:::=<&&~&&&&(&]%...['['[['[_''[%!}_!%%[!_}",
":$=,=:==:::$,::=,,=,:=,,,$:$:|&(~&]_..[[['_'[''''%[[!_}_!_}}!}}!",
"=$:$,$$,,,=:,,$$,,:,$$=:=,===^^]][..[..'[''**__*_*![%'!}}_*}[!_}",
":::=::::::::::=:::::==$=:::::,</<%..'[..''_'[''[''}'}}}!}!}}!}}!",
"=::::=:::$::::=::=,:::::::::<<<::::%.'[..'['[''[}'_'**_!}!_}*}_}",
"::::::::::::=::::::::=::::<<<:::::::<%..'[.''[[''_'_[%}_}}!}%!}!",
"::::::::^:::::^=:^:@:;:=<<>:@:;::::$:$:%.'[****['}''_'!**}*}_}_}",
":::::::^:==:=:=::;==:=@/<^;^::::::$=::$,:}'[['[''''[%}_}}}}}%}!!",
"@@^@@^;;^@@^@;@^:@:@</<<;^:;^^:::::::=:$,,:/['*[[}!_'%}!*}*}'}_}",
":::<<;:^<<:<:<:;@:</<@@:::;:;:;:::$:,$,=:=,,$/[!''''}_!}}!}}}!}!",
"@@:^^<^^:^:^^^^^<><^:<^@@^^::::;::=:::$,$:===,:>[[*'%_*}_!_!_!_}",
"<^^^<^<;@<^@;<</<<<<@:@^::;:;:::::$:::=:=,$$$,,,,}%[_%%!}}!}}}}!",
"<<<^@^<<^<<<:<<>:^^<^:<<^:@^^;^:::=:,:,$:===:,,,,,,/__[}*}*}*}_}",
"^^^<<<^^<^<>/<<<<<<^<@^^:@:::::::::,:,:=,$$$,,,,,],,$/**}}}!}!}!",
"<<<<^><^<>/<^>^^^^<^:;<@:^;:@:;:;::::,$:===::,,,,]]++,$>'!_!_}_}",
"><^^<<</}<>^>^><<<^<<<^:@;==::==::::::=,$$$,,,,,=,,,,,]|,<%_!}!!",
"<>><<>/<<<><<<^^^<^^^:<<^^@=@^;=:=;$=::===:::,,,,,,,],,,]]$<}}_}",
"></>>><>><<<><><<^<<@^^::;::=:::=:==$$,$$$,,,,,,,,,,,,]],,]],>/!",
">>}}>><<><^<^<^^<^^<<:@^^@^;:^::;::;=:==,,=,,,,=,|,,,,,,,,,,|+=>",
"//>><<>>^^>^><><^<<^^@:<;:::==;::::=::$$=$$$:,,,=],|,,,||||]],||"};
