/* XPM */
static char * ash_xpm[] = {
"64 64 65 1",
" 	c None",
".	c #4E4A4C",
"+	c #62625C",
"@	c #724E24",
"#	c #765A2C",
"$	c #7A6254",
"%	c #7A5223",
"&	c #4E5654",
"*	c #7E5A27",
"=	c #6E6259",
"-	c #6E5634",
";	c #7A6E64",
">	c #625651",
",	c #726A64",
"'	c #865A24",
")	c #6E5A50",
"!	c #825624",
"~	c #6A5E56",
"{	c #5A4E48",
"]	c #7A5624",
"^	c #766259",
"/	c #6A564C",
"(	c #725224",
"_	c #8A622C",
":	c #825E2C",
"<	c #6E665C",
"[	c #76562A",
"}	c #665A52",
"|	c #62524A",
"1	c #7A562C",
"2	c #725A3C",
"3	c #806A5C",
"4	c #7E5A34",
"5	c #82766C",
"6	c #6A6A64",
"7	c #564A44",
"8	c #565A54",
"9	c #5E524F",
"0	c #7B665C",
"a	c #7E7267",
"b	c #865E28",
"c	c #705E54",
"d	c #8E662C",
"e	c #76665C",
"f	c #6A5A54",
"g	c #564E4C",
"h	c #6A625C",
"i	c #75522C",
"j	c #7A522C",
"k	c #765634",
"l	c #7A5A2B",
"m	c #825A25",
"n	c #726259",
"o	c #725632",
"p	c #665650",
"q	c #766A62",
"r	c #725A4C",
"s	c #7E5624",
"t	c #765224",
"u	c #765A34",
"v	c #867664",
"w	c #8A5E29",
"x	c #764E24",
"y	c #72665C",
"z	c #7E562C",
"t({itti0t|t1;t+]c~cy}v=a0mns;}=v};e)cgy}n%;*m{~=s]}8s<i{l[tt]**=",
"tit[[}t%%5i}~5]*[;^>,q0};,/5;mn}c0q{p>}}=>={>;p]h}t};e<c=;~izzz[",
"t[tt[i}i0{@0;~1;];}<=w0qcp^;0|{y~;s;|;r;s=p}=[;;;]scp]zpq]h]=]t(",
"(t9n$tiv{t)tt[9c>y)me:m)ma${;=;/_/,pq]cnmnp*y%%q7!em9sp~}*>>t~f@",
"tj1]1t{[[>i}{=cqcs%}c~*<m;|naqcy;nb|sc:f;/~9ntc{9a[n8]*]%}&((q;7",
"1**j$x(=[0[1${$m0=;=9m$9)a9~qess$n|<|=;!>ss87a]$c^c/sh9]f[h,tq*[",
"=j=i(y(~^1ni=;}*stqs=*nss;89ta{y)=y~c$m]yc9]t=8c9{s<;9]=/3/9}]z]",
"t^9aic}oi=;]y9[y==9|/ec;>c%~),};/0,~c}=;~99%3>=)/8cc$]%t%sn>m;9i",
"(t[a/i^;}=q3;ll9sf]*mc/>c,}|yfh0^|y><s/a0><|,~;n;;]>]==;;f*=q];t",
";tt}ja0<[*hp89q]a/0~}f0]>9g~*hc)}^b=}|=}{h;0,8;ysp=ya~q}9|79{}t(",
"t15*z!zl[~}o;[=7c$>~<)*;}mync<yy*hf~]%c^eq<c=>~9>9;7qg,m};;~[&$t",
"<=}*>,1f;1$3c1.9ycehqac]>=**>na<0/n>h~;{/0;q>%{},|>~9]9;;a$9{;[7",
"<0%~]{0i[1119>;9]0s]*hn~(q,qqy;=s+q0<}~+qy7n==}|q]fxy,qfm*f}{~>y",
"%a]}]~|t[1;z1s]<**<{{yl}~l0ya}$h=aqq7c/{}h~;cp0>))~9n=cf]tsqq~]*",
"t17*c1a+t8]77]+>|q}}}}cay=[og~[]]~f$>;;cfc3{;ty]9/,}|pqf{7s9)c9;",
"t[s*7]|%]=99hty<%]]0|}:$h|n(~=y=+^>,]3~fss]>{<}}9h=}anm<tq;h}(qa",
"%g~~78=,]*$=<]%>%yq~*q5#0|,t>|c~s3{=,,3a<y+]~0^[9c}a=]]~t~8[%p9g",
"g>*%y>8%z::b{],f09ys]hh>{yy{aoq{,3~7%qc2})1~(yqt;=~8;]>s/]*m3]s&",
"1|f~ta]0m;~9*s=%}pl]p)>}o<0<)oya>~]<|fqc#qls^(c|}/=)/tqq%s*m97=q",
"t=[a}t,<gs]%89c}s*al:y;fy>)9=n~c}7,^*yq/>qc;ta=>l3c33y]c>pq9n@]1",
"t%;~t%%=1>~%]]a~|ymm=>>>h>3qy}{</y*~;q~th]~y~9[9~csqna],;a=),3t]",
"]f*tssss}0y^]%;9{}{5~*c[9ye,=;s;~^9m|^7;qf[>([[)<~q=c}~s>9ab^qy1",
"*!at~;y]]%csp,>0t39,~s~tc0p>0~c|yl>;httta,9>~eq{ct>~>l9>s<mb9qa]",
"9.}s[y%jr]=c,%y9<]];9ln=;qn,=~p^^;6]>t(<[]|[99;/c/y<h/hm*%7c%<e~",
"%s*m&<c7z<q~}n%}{=)m}<y0ye{$6}>~}=y9<]|[>;~h}~{y*qqyc9m~^%q^%(ar",
"t~{msa*~=3%~;%f3a9<0}0[syy$7$}^n>~~>,cf=<;9=a<~9|9c9>_~yf*bftp]>",
">}::m%+*q3+]2$0;;w~{)0]7<3,y00y}y<qcvs;{:ch;sm9|q>},l,8s*g/y&s9m",
"m~mm~yfps=]s<]s0h;0=nf>}$cn~y|/f;~=h({3nn>9>>alqc]];/m~%sm'y]f:{",
"mrssy]]*}=t9}n=cqh;tehq}=y<=ccyc~q0y>~;sc=,9^|f%xex~]]m%98<''mm~",
"y:}]]9,s%{t~~}q<n=];ccc^~<~)=n{^~<n~7}0m]]]]^g2~~t~00qmf9]>;,qeb",
"'cqsqnn)$%=qc]c}0aq~=~}qp>c;y}{~<9,hy$}{{yqy|t9h;,|nq=_=7^;%c]sg",
"ms}9~]~[>yc;q<;}}~}9~f};;q)q~}0^y^~9q;>7~^t+;c$|qa>~em0$n~ms{}|~",
"3&<{yqce}g=~y=n9<=<>=p~~)>f~;+}}cacphty0>/~q,;]=q]]]>|'m<mnsem_b",
">s;sq;]qs=5~ff~ha}}=;>c$0;=y~^h5qy~{=yttett0<};l|%%ss8msyb<~|b&=",
"g!}*&;q_<>sam,x~p8^9*{<2n2},0=}9}$t0tqtt^~>9}^en]]]m^}bcmb^=%{b]",
"}}c~sym,;>~8]}t=>~<c;rn>^;,3~;09^ae%>qc~)>0[8>|=*]^^yyf*.qh|]~;q",
"<_/*sq~by,>qsg=^;;;*9}*)}n,;eq,a^0=<n0;cy};,;~e>n};+fs/]qb=9=h!9",
"~mf=a~q!;q;s,><q={sqhln;<~fq|)cnqn^|;$=[l[9ps>ly]qn0-<;n*ys}$=0c",
"gh>>3s}~p}sq9a|h~vysn^~^}~>~;>}afh;;=~q^$}|[]sl~l{e~r9le]{$}%{97",
"}78,s7;+3*,}q~;7}>,s<pn3ta~*>y;ynq>ycc>|,%;^][l;]^nl^{c>~-~|~}9c",
"'}q2,]<;}>9c~^2%q%<fy0scsy7b>^{t@}a${[$ic0y];[|*st3*y*;7}{p{9>}=",
"~p~cc{{<snyn0t0<*;]sn}9}~]~n~y%(y{1}n/]p]**][}0c^e3s~}>}q}{0hc9&",
">>>ep%~m=>sa)9<m*~ss>,>}n}q~]@t~5q0qq>l[ez^}}}]]trt]ym]p7c/y>q<y",
"~/f{t~nc^9yt],;{m]0|]]<~ms>|)~;>a;ac0]1h>00[y1q[]n]9l,~=9q~>*>;7",
"~~*f,}*ym~]t}[]hy]ht$*=q*<]}y0y;>q7;]et([y1;g]%|],/s*}8>f<^hhc{>",
"9)m~>}gam70}}tcss=~t7|=>^%{*c;]s;,]f1qi|o<y]]l;]*cl>0*>~[}q|pg=q",
"ll|]*]}y9q%]l;t]9t-9'~:>3);,7)]];]*^q0ct~>a*y,tq%=]yq>~]~n$cny9|",
"]]}]t]]y.e]}9[cs<t}0bc;^hp%]tt0^q/9;>~/tn=0n]etqf]fe=:l8-q<cqc.y",
">]g{}]n+*[y]q[0]]>hs!s%3%3]]e=9>7s~^ttt7;q9q][,]%l]lg<>no~c](g+}",
"<,t~yt,~]p1[tt(t]%%]{,]s0s9=l3*={*^]<~t[=hq:mya]*m/y0=[oc0~^[.h^",
"~=>}3*]]##l](r[}]~}]%t~9]]7~~9qnq3e%fyqy>b'/0])~}*02y~<{^}*#;-~8",
"[(9*]]>~e18e%0i[8l]<~=},]s*s;@t%+;~t%9>rs>7]scy%]s<9,*1[yoy2q(/[",
"q]f,h]y>8f[},[{;*<s*;;]y2,7]0h<]t;=h~7;s,{%==]]ess;bbyh#[i/a}+r}",
":,~:*[],[~/t~{[]*]^]>s^s9smqc}9<]y>3%n;*}t=^s]e]0ss**l;[oo{0on.:",
"c90;},y(>[;tef19]==tt~]~sammq=$fcm>a/,9%q]}p0]}~t~tqm/=jtt[]#lq*",
"~y$+,t(.[=)[;*<[s)scs9m*9%^2)q=[]<)9f}t[y>{sq%rayf*:n/9l][]1|1n1",
";]<t(<yf+**~)~a[ac<*$~q~~]>=q=n~=pc,]]=]7m;];}t]<mm<:]];]9]1l)(t",
"}8=e;re]8*:;%~]~*8qpq;2*9y}<n,[t~<,y/<z!q<9t};s]n^:y=]g]11]q^[(y",
"t0]~9]h*::=~.~**}m*ha_m=a9b,a/f~*7b33;]pqc0]t9;am>/]s%]s]l]/|z[i",
"qt]}}]sq}~c=as*eh8%c%hhe|yp!s~0*|7~m%tf9!syq;],s~mms:*/]%]sz/~(/",
"]}l]]]r*~q6>;0}t~n<t%|*~9~b<9ch<3s>^y]<*]/=,~q%~q{]q*]][i[t]*1i/",
"[%ph}01sh]=c}=lft0shq!=;<cq7==q9c^=cara}c,t%}]nt]stt9tt|%%t,t[].",
",}]~t[;q%t]]y=]q=~=e<m,w,*=}>%q!~=e9c;;9~9n%%{%];yssms]1l*%]]s+]",
",yt[(tt]ctht<t<]=th,y=c:~q}{~~y<9;%y<nq0t9,c;]^=9:cl:1]ll1n=%]]["};
