/* XPM */
static char *magick[] = {
/* columns rows colors chars-per-pixel */
"64 64 41 1",
"  c Gray0",
". c Gray5",
"X c #2c2c2c",
"o c #343737",
"O c #424747",
"+ c #464d4d",
"@ c #4c5252",
"# c #4f5656",
"$ c #4e5a5a",
"% c #526666",
"& c #566767",
"* c #586161",
"= c #5a6e6e",
"- c #5f7474",
"; c #646f6f",
": c #627272",
"> c #637b7b",
", c #737575",
"< c #6c8282",
"1 c #758787",
"2 c #728a8a",
"3 c #728e8e",
"4 c #758989",
"5 c #7b8282",
"6 c #779292",
"7 c #848e8e",
"8 c #819b9b",
"9 c #879b9b",
"0 c #8a9f9f",
"q c #8c9b9b",
"w c #87a5a5",
"e c #88a7a7",
"r c #98b6b6",
"t c #9db5b5",
"y c #9abbbb",
"u c #9bbdbd",
"i c #adcfcf",
"p c #b5dcdc",
"a c #bee9e9",
"s c #bfeeee",
"d c #c6f6f6",
/* pixels */
"................................................................",
"################################################################",
"4444444444444444444444444444444444444444444444444444444444444444",
"yyyyyyyyyyyyyyyyyyyyyyyyyyyyyyyyyyyyyyyyyyyyyyyyyyyyyyyyyyyyyyyy",
"s%%%%%%%%%%%%%%%%%%%%%%%%%%%%%%%%%%%%%%%%%%%%%%%%%%%%%%%%% %%%%s",
"d33333333333333333333333333333333333333333333333333333333   33>d",
"a6eeeeeeeeeeeeeeeeeeeeeeeeeeeeeeeeeeeeeeeeeeeeeeeeeeeeeee   e6-a",
"p2wuuuuuuuuuuuuuuuuuuuuuuuuuuuuuuuuuuuuuuuuuuuuuuuuuuuuu     2=p",
"i<8riiiiiiiiiiiiiiiiiiiiiiiiiiiiiiiiiiiiiiiiiiiiiiiiiii       &i",
"t:10ttttttttttttttttttttttttttttttttttttttttttttttttttttttt01:$t",
"t:10ttttttttttttttttttttttttttttttttttttttttttttttttttttttt01:$t",
"t:10ttttttttttttttttttttttttttttttttttttttttttttttttttttttt01:$t",
"t:10ttttttttttttttttttttttttttttttttttttttttttttttttttttttt01:$t",
"t:10ttttttttttttttttttttttttttttttttttttttttttttttttttttttt01:$t",
"t:10ttttttttttttttttttttttttttttttttttttttttttttttttttttttt01:$t",
"t:10ttttttttttttttttttttttttttttttttttttttttttttttttttttttt01:$t",
"t:10ttttttttttttttttttttttttttttttttttttttttttttttttttttttt01:$t",
"t:10ttttttttttttttttttttttttttttttttttttttttttttttttttttttt01:$t",
"t:10ttttttttttttttttttttttttttttttttttttttttttttttttttttttt01:$t",
"t:10ttttttttttttttttttttttttttttttttttttttttttttttttttttttt01:$t",
"t:10ttttttttttttttttttttttttttttttttttttttttttttttttttttttt01:$t",
"t:10ttttttttttttttttttttttttttttttttttttttttttttttttttttttt01:$t",
"t:10ttttttttttttttttttttttttttttttttttttttttttttttttttttttt01:$t",
"t:10ttttttttttttttttttttttttttttttttttttttttttttttttttttttt01:$t",
"t:10ttttttttttttttttttttttttttttttttttttttttttttttttttttttt01:$t",
"t:10ttttttttttttttttttttttttttttttttttttttttttttttttttttttt01:$t",
"t:10ttttttttttttttttttttttttttttttttttttttttttttttttttttttt01:$t",
"t:10ttttttttttttttttttttttttttttttttttttttttttttttttttttttt01:$t",
"t:10ttttttttttttttttttttttttttttttttttttttttttttttttttttttt01:$t",
"t:10ttttttttttttttttttttttttttttttttttttttttttttttttttttttt01:$t",
"t:10ttttttttttttttttttttttttttttttttttttttttttttttttttttttt01:$t",
"t:10ttttttttttttttttttttttttttttttttttttttttttttttttttttttt01:$t",
"t:10ttttttttttttttttttttttttttttttttttttttttttttttttttttttt01:$t",
"t:10ttttttttttttttttttttttttttttttttttttttttttttttttttttttt01:$t",
"t:10ttttttttttttttttttttttttttttttttttttttttttttttttttttttt01:$t",
"t:10ttttttttttttttttttttttttttttttttttttttttttttttttttttttt01:$t",
"t:10ttttttttttttttttttttttttttttttttttttttttttttttttttttttt01:$t",
"t:10ttttttttttttttttttttttttttttttttttttttttttttttttttttttt01:$t",
"t:10ttttttttttttttttttttttttttttttttttttttttttttttttttttttt01:$t",
"t:10ttttttttttttttttttttttttttttttttttttttttttttttttttttttt01:$t",
"t:10ttttttttttttttttttttttttttttttttttttttttttttttttttttttt01:$t",
"t:10ttttttttttttttttttttttttttttttttttttttttttttttttttttttt01:$t",
"t:10ttttttttttttttttttttttttttttttttttttttttttttttttttttttt01:$t",
"t:10ttttttttttttttttttttttttttttttttttttttttttttttttttttttt01:$t",
"t:10ttttttttttttttttttttttttttttttttttttttttttttttttttttttt01:$t",
"t:10ttttttttttttttttttttttttttttttttttttttttttttttttttttttt01:$t",
"t:10ttttttttttttttttttttttttttttttttttttttttttttttttttttttt01:$t",
"t:10ttttttttttttttttttttttttttttttttttttttttttttttttttttttt01:$t",
"t:10ttttttttttttttttttttttttttttttttttttttttttttttttttttttt01:$t",
"t:10ttttttttttttttttttttttttttttttttttttttttttttttttttttttt01:$t",
"t:10ttttttttttttttttttttttttttttttttttttttttttttttttttttttt01:$t",
"t:10ttttttttttttttttttttttttttttttttttttttttttttttttttttttt01:$t",
"t:10ttttttttttttttttttttttttttttttttttttttttttttttttttttttt01:$t",
"t:10ttttttttttttttttttttttttttttttttttttttttttttttttttttttt01:$t",
"t:10ttttttttttttttttttttttttttttttttttttttttttttttttttttttt01:$t",
"t:10ttttttttttttttttttttttttttttttttttttttttttttttttttttttt01:$t",
"t:10ttttttttttttttttttttttttttttttttttttttttttttttttttttttt01:$t",
"t:19999999999999999999999999999999999999999999999999999999991:$t",
"q*;;;;;;;;;;;;;;;;;;;;;;;;;;;;;;;;;;;;;;;;;;;;;;;;;;;;;;;;;;;*+q",
"7@@@@@@@@@@@@@@@@@@@@@@@@@@@@@@@@@@@@@@@@@@@@@@@@@@@@@@@@@@@@@O7",
"5oooooooooooooooooooooooooooooooooooooooooooooooooooooooooooooo5",
",,,,,,,,,,,,,,,,,,,,,,,,,,,,,,,,,,,,,,,,,,,,,,,,,,,,,,,,,,,,,,,,",
"XXXXXXXXXXXXXXXXXXXXXXXXXXXXXXXXXXXXXXXXXXXXXXXXXXXXXXXXXXXXXXXX",
"................................................................"
};
