/* XPM */
static char * barrier_xpm[] = {
"64 64 65 1",
" 	c None",
".	c #040304",
"+	c #4E4E4C",
"@	c #2D2720",
"#	c #6E6E6C",
"$	c #583B1F",
"%	c #8B5921",
"&	c #6E4C20",
"*	c #423620",
"=	c #7E5C28",
"-	c #A57131",
";	c #B68237",
">	c #171717",
",	c #704010",
"'	c #40280F",
")	c #864A1C",
"!	c #B66E34",
"~	c #795222",
"{	c #AA5E1C",
"]	c #321C04",
"^	c #5B4224",
"/	c #3A2F1E",
"(	c #784617",
"_	c #413020",
":	c #B77C2F",
"<	c #111110",
"[	c #7A4E14",
"}	c #C9862E",
"|	c #382816",
"1	c #414142",
"2	c #222223",
"3	c #5F3E17",
"4	c #794C1D",
"5	c #4F371F",
"6	c #9D6529",
"7	c #A67E3C",
"8	c #BD691D",
"9	c #B68B42",
"0	c #7E5418",
"a	c #624A24",
"b	c #AE661C",
"c	c #B07620",
"d	c #C2712C",
"e	c #100A04",
"f	c #2A221C",
"g	c #C67A2F",
"h	c #7E6229",
"i	c #25190C",
"j	c #4D3117",
"k	c #6E4618",
"l	c #1E1204",
"m	c #AA7624",
"n	c #9A5A1C",
"o	c #0A0A0C",
"p	c #A26A2C",
"q	c #C67624",
"r	c #BA7A44",
"s	c #865A24",
"t	c #664621",
"u	c #6E421F",
"v	c #C68A44",
"w	c #342210",
"x	c #BE7E24",
"y	c #7E5527",
"z	c #AC6A30",
"                                                                ",
"                                                                ",
"                                                                ",
"                                                                ",
"                                                                ",
"                                                                ",
"                                                                ",
"                                                                ",
"             )                                                  ",
"           :.ewb                                                ",
"          4[i.j:8gq                                             ",
"          44f<>}8dq6|                                           ",
"          04/22@=r8%ie~                                         ",
"          04$222=y0{@>~vvv                                      ",
"          00k222^=&0225grvv}                                    ",
"          =04@22_~0~222$vd;-|.                                  ",
"          h04|22@4=~f22'(y;xil,!                                ",
"            0*22@(4=/22@u4[4ielybgd                             ",
"              f@5440t222j444f<<%bqq6w                           ",
"                  ([~f22@u04f2>|=qdu.|p                         ",
"                  +111222j[[/22@h~[kee3;8v                      ",
"                 #11*1422jy03222&=[*>o${gbbu                    ",
"                 #+111 44$=04222$~y^2i>3}!t.'n                  ",
"                 #+1#1    h04f22/[=[222j[~-l.]-0                ",
"                #+1 #+1     ~_222k[=@22|(4t<.]%9;-              ",
"                #+1  #1       42@44=/22@y(k2<>0999;}            ",
"                #+1  #1           ([522@4y4|222k447-;           ",
"               #+1    #1           4$22@404^222445:;c           ",
"               #+1    #1             *@54[04f22([[:::           ",
"              #+1     #+1             11++(4i2224k:::           ",
"              #+1      #1             +111,4]>224kr;;           ",
"              #1       #+1            #+*1+  |224u;c9           ",
"             #+1       #+1            #+1+1   y244;;            ",
"             #+1        #+1           #+1#1    ~4k9;            ",
"            #+1         #+1          #+1 #1                     ",
"            #+1          #1          #+1  #1                    ",
"            #+1          #+1         #+1  #1                    ",
"           #+1           #+1         #+1  ##1                   ",
"           #+1                      #+1    #1                   ",
"           ++1                      #+1    #+1                  ",
"           +1                       #+1     #1                  ",
"                                   #+1      #1                  ",
"                                   #+1      #+1                 ",
"                                   #1        #1                 ",
"                                  #+1        #1                 ",
"                                  #+1         #1                ",
"                                  #+1         #1                ",
"                                  #1          #+1               ",
"                                 #+1                            ",
"                                 #+1                            ",
"                                 +1                             ",
"                                                                ",
"                                                                ",
"                                                                ",
"                                                                ",
"                                                                ",
"                                                                ",
"                                                                ",
"                                                                ",
"                                                                ",
"                                                                ",
"                                                                ",
"                                                                ",
"                                                                "};
