/* XPM */
static char *magick[] = {
/* columns rows colors chars-per-pixel */
"64 64 59 1",
"  c Gray16",
". c #3b3b3a",
"X c #5a3413",
"o c #683b13",
"O c Gray27",
"+ c #4f514f",
"@ c #535453",
"# c #565955",
"$ c #5a5b5a",
"% c #5f625f",
"& c #626562",
"* c #666a66",
"= c #6a6d6a",
"- c #6b6c6b",
"; c #6e726d",
": c #70736f",
"> c #737472",
", c #767a76",
"< c #7b7d7a",
"1 c #7e827d",
"2 c #8c0000",
"3 c #96571f",
"4 c #dc0000",
"5 c Magenta",
"6 c #838683",
"7 c #878a86",
"8 c #8b8c8a",
"9 c #8e928d",
"0 c #91938e",
"q c #939592",
"w c #969a94",
"e c #999c97",
"r c #9b9c9a",
"t c #9da29d",
"y c #a0a39d",
"u c #a3a5a3",
"i c #a5aba4",
"p c #a8aba6",
"a c #aaada9",
"s c #acb2ac",
"d c #b1b2ad",
"f c #b3b6b3",
"g c #b5bbb5",
"h c #b8bfb7",
"j c #bbbcba",
"k c #bcc3bc",
"l c #bdc6c2",
"z c #c2c3bc",
"x c #c8ccbf",
"c c #c3c4c3",
"v c #c4cac4",
"b c #caccc9",
"n c #ced3ce",
"m c #d2d3d3",
"M c #d9dcd8",
"N c #eaeee9",
"B c #f4f5f4",
"V c #fefffe",
"C c None",
/* pixels */
"CCCCCCCCCCCCCCCCCCCCCCCCCCCCCCCCCCCCCCCCCCCCCCCCCCCCCCCCCCCCCCCC",
"CCCCCCCCCCCCCCCCCCCCCCCCCCCCCCCCCCCCCCCCCCCCCCCCCCCCCCCCCCCCCCCC",
"CCCCCCCCCCCCCCCCCCCCCCCCCCCCCCCCCCCCCCCCCCCCCCCCCCCCCCCCCCCCCCCC",
"CCCCCCCCCCCCCCCCCCCCCCCCCCCCCCCCCCCCCCCCCCCCCCCCCCCCCCCCCCCCCCCC",
"CCCCCCCCCCCCCCCCCCCCCCCCCCCCCCCCCCCCCCCCCCCCCCCCCCCCCCCCCCCCCCCC",
"CCCCCCCCCCCCCCCCCCCCCCCCCCCCCCCCCCCCCCCCCCCCCCCCCCCCCCCCCCCCCCCC",
"CCCCCCCCCCCCCCCCCCCCCCCCCCCCCCCCCCCCCCCCCCCCCCCCCCCCCCCCCCCCCCCC",
"CCCCCCCCCCCCCCCCCCCCCCCCCCCCCCCCCCCCCCCCCCCCCCCCCCCCCCCCCCCCCCCC",
"CCCCCCCCCCCCCCCCCCCCCCCCCCCCCCCCCCCCCCCCCCCCCCCCCCCCCCCCCCCCCCCC",
"CCCCCCCCCCCCCCCCCCCCCCCCCCCCCCCCCCCCCCCCCCCCCCCCCCCCCCCCCCCCCCCC",
"CCCCCCCCCCCCCCCCCCCCCCCCCCCCCCCCCCCCCCCCCCCCCCCCCCCCCCCCCCCCCCCC",
"CCCCCCCCCCCCCCCCCCCCCCCCCCCCCCCCCCCCCCCCCCCCCCCCCCCCCCCCCCCCCCCC",
"CCCCCCCCCCCCCCCCCCCCCCCCCCCCCCCCCCCCCCCCCCCCCCCCCCCCCCCCCCCCCCCC",
"CCCCCCCCCCCCCCCCCCCCCCCCCCCCCCCCCCCCCCCCCCCCCCCCCCCCCCCCCCCCCCCC",
"CCCCCCCCCCCCCCCCCCCCCCCCCCCCCCCCCCCCCCCCCCCCCCCCCCCCCCCCCCCCCCCC",
"CCCCCCCCCCCCCCCCCCCCCCCCCCCCCCCCCCCCCCCCCCCCCCCCCCCCCCCCCCCCCCCC",
"CCCCCCCCCCCCCCCCCCCCCCCCCCCCCCCCCCCCCCCCCCCCCCCCCCCCCCCCCCCCCCCC",
"CCCCCCCCCCCCCCCCCCCCCCCCCCCCCCCCCCCCCCCCCCCCCCCCCCCCCCCCCCCCCCCC",
"CCCCCCCCCCCCCCCCCCCCCCCCCCCCCCCCCCCCCCCCCCfjkllkCCCCCCCCCCCCCCCC",
"CCCCCCCCCCCCCCCCCCCCCCCCCCCCCCCCCCCCCCCki+@$=6<>CCCCfywuCCCCCCCC",
"CCCCCCCCCCCCCCCCCCCCCCCCCCCCCCCCCCCCCC$=17qerewrpCCC=cpeqCCCCCCC",
"CCCCCCCCCCCCCCCCCCCCCCCCCCCCCCCCCCCCCC<179etuuypdCCCaicp08$CCCCC",
"CCCCCCCCCCCCCCCCCCCCCCCCCCCCCCCCCCCCCC178qryuadffCChhgsl971CCCCC",
"CCCCCCCCCCCCCCCCCCCCCCCCCCCCCCCCCCCCCC789qetuadgjCCzkzkmu61hCCCC",
"CCCCCCCCCCCCCCCCCCCCCCCCCCCCCCCCCCCCCC7999qerusfzxnnxkv>a6<lCCCC",
"CCCCCCCCCCCCCCCCCCCCCCCCCCCCCd%=;:CCCC888890qeuazMNNnlvbs8<hCCCC",
"CCCCCCCCCCCCCCCCCCCCCCCCCCCCk%==;>>CCC8777899qtacNVVnffva7<%CCCC",
"CCCCCCCCCCCCCCCCCCCCCCCCCCCz1*=;:>>>CCC877880qepvBVBmsdbu6*CCCCC",
"CCCCCCCCCCCCCCCCCCCCCCCCCCCp*&=:>>>>>CC777890qwibBVNmvgbw6&CCCCC",
"CCCCCCCCCCCCCCCCCCCCCCCCCCv&%*;:>>>>>9887889qwepnBVMmb%vw*CCCCCC",
"CCCCCCCCCCCCCCCCCCCCCCCCCCk%&=;>>>>>>0088880qwrsMBVmnbgj8&CCCCCC",
"CCCCCCCCCCCCCCCCCCCCCCCCCbs&*=;>>:;:>0qq9890qeydnVNmnbzt=CCCCCCC",
"CCCCCCCCCCCCCCCCCCCCCCCCCby*=;:;;==;:0wewq9wetpfbNMmnlnw%CCCCCCC",
"CCCCCCCCCCCCCCCCCCCCCCCCCbe*;;;;==*==;eytytyiafhccnnvjc=CCCCCCCC",
"CCCCCCCCCCCCCCCCCCCCCCCCCmt*=;;:=*==;;taadddfpipfpgvkhuCCCCCCCCC",
"CCCCCCCCCCCCCCCCCCCCCCCCCnpw==:;=*==;;uafhzhcckughkvhb*CCCCCCCCC",
"CCCCCCCCCCCCCCCCCCCCCCCCCmfy**;;;=**=:afgkjckzvzccghly#CCCCCCCCC",
"CCCCCCCCCCCCCCCCCCCCCCCCCmfpz==;==**=;>jkaifcv444hlva%CCCCCCCCCC",
"CCCCCCCCCCCCCCCCCCCCCCCCCjfabbv==***;=:j44444442kblq#CCCCCCCCCCC",
"CCCCCCCCCCCCCCCCCCCCCCCCCCkfMNMnbbcjh%=l4jzlvlvgst%#+CCCCCCCCCCC",
"CCCCCCCCCCCCCCCCCCCCCCCCCCrMBVVVVBNbbvxcclzgjsd7$##@CCCCCCCCCCCC",
"CCCCCCCCCCCCCCCCCCCCCCCCCCCeBVVVMjapidjjjjja6&###@;;CCCCCCCCCCCC",
"CCCCCCCCCCCCCCCCCCCCCCCCCCCC6rzBnsyyrigft<%###@@==>>CCCCCCCCCCCC",
"CCCCCCCCCCCCCCCCCCCCCCCCCCCCCCC6agdr<:%++++++@+&&*>>CCCCCCCCCCCC",
"CCCCCCCCCCCCCCCCCCCCCCCCCCCCCCCCCCCCCCCCCCCCa@++%*>>CCCCCCCCCCCC",
"CCCCCCCCCCCCCCCCCCCCCCCCCCCCCCCCCCCCCCCCCCCCC++O$*=:CCCCCCCCCCCC",
"CCCCCCCCCCCCCCCCCCCCCCCCCCCCCCCCCCCCCCCCCCCCCt,+#&=>>CCCCCCCCCCC",
"CCCCCCCCCCCCCCCCCCCCCCCCCCCCCCCCCCCCCCCCCCCCCi,<@**>>CCCCCCCCCCC",
"CCCCCCCCCCCCCCCCCCCCCCCCCCCCCCCCCCCCCCCCCCCCCf668***:CCCCCCCCCCC",
"CCCCCCCCCCCCCCCCCCCCCCCCCCCCCCCCCCCCCCCCCCCCCh778>*&:CCCCCCCCCCC",
"CCCCCCCCCCCCCCCCCCCCCCCCCCCCCCCCCCCCCCCCCCCCCCd77:,<;&CCCCCCCCCC",
"CCCCCCCCCCCCCCCCCCCCCCCCCCCCCCCCCCCCCCCCCCCCCCCC77,<:%CCCCCCCCCC",
"CCCCCCCCCCCCCCCCCCCCCCCCCCCCCCCCCCCCCCCCCCCCCCCC78><<&CCCCCCCCCC",
"CCCCCCCCCCCCCCCCCCCCCCCCCCCCCCw9;CCCCCCCCCCCCCf617><1&CCCCCCCCCC",
"CCCCCCCCCCCCCCCCCCCCCCCCCCCCC008CCCCCCCCCCCCCCgy677,<&&CCCCCCCCC",
"CCCCCCCCCCCCCCCCCCCCCCCCCCC8,1<;CCCC.CCCCCCCCkjy177>,,&%CCCCCCCC",
"CCCCCCCCCCCCCCCCCCCCCCCCCCC8@..oXCC$@@CCCCCCCbvh,66>,<=&CCCCCCCC",
"CCCCCCCCCCCCCCCCCCCCCCCCCCC01Co3oC $.@OCCCCCCizhd1,<,>*&*CCCCCCC",
"CCCCCCCCCCCCCCCCCCCCCCCCCCC9CC3XO#O OOOCCCCCCCqhfsiiaii,&CCCCCCC",
"CCCCCCCCCCCCCCCCCCCCCCCCCCCCCCC%9#OO .CCCCCCCCC7:ipiiyy;;CCCCCCC",
"CCCCCCCCCCCCCCCCCCCCCCCCCCCCCC$$@@OOCCCCCCCCCCCC:;>>>0ee%CCCCCCC",
"CCCCCCCCCCCCCCCCCCCCCCCCCCCCCO.@..OCCCCCCCCCCCCCCCC;:===%CCCCCCC",
"CCCCCCCCCCCCCCCCCCCCCCCCCCCCC%# .CCCCCCCCCCCCCCCCCCCCCCCCCCCCCCC",
"CCCCCCCCCCCCCCCCCCCCCCCCCCCCC$#OCCCCCCCCCCCCCCCCCCCCCCCCCCCCCCCC"
};
