/* XPM */
static char *magick[] = {
/* columns rows colors chars-per-pixel */
"64 64 64 1",
"  c #272727",
". c #363736",
"X c #552a03",
"o c #623a17",
"O c #784212",
"+ c #414141",
"@ c #464746",
"# c #4c4d4b",
"$ c #4e514e",
"% c #525453",
"& c #565956",
"* c #5a5c5a",
"= c #5e615e",
"- c #606360",
"; c #626662",
": c #636664",
"> c #666966",
", c #676b68",
"< c #696d69",
"1 c #6c6e6d",
"2 c #6c716b",
"3 c #6e726e",
"4 c #6e7370",
"5 c #72736e",
"6 c #727372",
"7 c #737673",
"8 c #747975",
"9 c #7b7d7b",
"0 c #7d817d",
"q c #9c5618",
"w c Magenta",
"e c #838583",
"r c #858a85",
"t c #8a8d89",
"y c #8e928d",
"u c #929692",
"i c #959b95",
"p c #999c97",
"a c #9b9c9b",
"s c #9ca29d",
"d c #a5a7a5",
"f c #a4aaa4",
"g c #aaacaa",
"h c #abb2ab",
"j c #acb3b0",
"k c #b1b3ad",
"l c #b4b4b3",
"z c #b3b9b3",
"x c #babcb9",
"c c #bcc3bc",
"v c #c1c2bd",
"b c #c2c3c2",
"n c #c4cbc3",
"m c #caccc6",
"M c #cbcdcb",
"N c #c9d0c9",
"B c #d0d0cf",
"V c #d2d4d2",
"C c #d4dbd4",
"Z c #dce1db",
"A c #e5e7e1",
"S c #eef5ee",
"D c Gray100",
"F c None",
/* pixels */
"FFFFFFFFFFFFFFFFFFFFFFFFFFFFFFFFFFFFFFFFFFFFFFFFFFFFFFFFFFFFFFFF",
"FFFFFFFFFFFFFFFFFFFFFFFFFFFFFFFFFFFFFFFFFFFFFFFFFFFFFFFFFFFFFFFF",
"FFFFFFFFFFFFFFFFFFFFFFFFFFFFFFFFFFFFFFFFFFFFFFFFFFFFFFFFFFFFFFFF",
"FFFFFFFFFFFFFFFFFFFFFFFFFFFFFFFFFFFFFFFFFFFFFFFFFFFFFFFFFFFFFFFF",
"FFFFFFFFFFFFFFFFFFFFFFFFFFFFFFFFFFFFFFFFFFFFFFFFFFFFFFFFFFFFFFFF",
"FFFFFFFFFFFFFFFFFFFFFFFFFFFFFFFFFFFFFFFFFFFFFFFFFFFFFFFFFFFFFFFF",
"FFFFFFFFFFFFFFFFFFFFFFFFFFFFFFFFFFFFFFFFFFFFFFFFFFFFFFFFFFFFFFFF",
"FFFFFFFFFFFFFFFFFFFFFFFFFFFFFFFFFFFFFFFFFFFFFFFFFFFFFFFFFFFFFFFF",
"FFFFFFFFFFFFFFFFFFFFFFFFFFFFFFFFFFFFFFFFFFFFFFFFFFFFFFFFtFFFeFFF",
"FFFFFFFFFFFFFFFFFFFFFFFFFFFFFFFFFFFFFFFFFFFFFFFFFFFFFFFFtuX33FFF",
"FFFFFFFFFFFFFFFFFFFFFFFFFFFFFFFFFFFFFFFFFFFFFFFFFFFFFFFFy3%irFFF",
"FFFFFFFFFFFFFFFFFFFFFFFFFFFFFFFFFFFFFFFFFFFFFFFFFFFFFFFF31%&eFFF",
"FFFFFFFFFFFFFFFFFFFFFFFFFFFFFFFFFFFFFFFFFFFFFFFFFFFFFFFFFqooFFF+",
"FFFFFFFFFFFFFFFFFFFFFFFFFFFFFFFFFFFFFFFFFFFFFFFFFFFFFFF%tOo+e+++",
"FFFFFFFFFFFFFFFFFFFFFFFFFFFFFFFFFFFFFFFFFFFFFFFFFFFFFF9*9uX33+++",
"FFFFFFFFFFFFFFFFFFFFFFFFFFFFFFFFFFFFFFFFFFfp9&;yfs:sv@$..3eDr+++",
"FFFFFFFFFFFFFFFFFFFFFFFFFFFFFFFFFFFFFFFkf;*:>0tusffgg+. 31,09+FF",
"FFFFFFFFFFFFFFFFFFFFFFFFFFFFFFFFFFFFFzz;*-=;<eysdghkz+.prqooFFFF",
"FFFFFFFFFFFFFFFFFFFFFFFFFFFFFFFFFFFFcx*-;>,,23iddgzxx..v%OOo+ ++",
"FFFFFFFFFFFFFFFFFFFFFFFFFFFFFFFFFFFbx*;:>23355pddkzxvb-&@V%# +++",
"FFFFFFFFFFFFFFFFFFFFFFFFFFFFFFFFFFbby;:><333555dgzxvn#%+@&%+++@+",
"FFFFFFFFFFFFFFFFFFFFFFFFFFFFFFFFFmmx;-:,>3335667hzcbN+@ m . x0@+",
"FFFFFFFFFFFFFFFFFFFFFFFFFFFFFFFFFmMg-;:,33322356hzcnV+.ANvccb96=",
"FFFFFFFFFFFFFFFFFFFFFFFFFFFFFFFFMmMd=:,<221<<2566zcmZ..ANnzbn04:",
"FFFFFFFFFFFFFFFFFFFFFFFFFFFFFFFFmmBk-;><23<>,<557xvMADDAVNvbce61",
"FFFFFFFFFFFFFFFFFFFFFFFFFFFFFFFFnBmv;>:>,<<,<<3566vmZDDZVBnb42<>",
"FFFFFFFFFFFFFFFFFFFFFFFFFFFFFFFFFBNmy>:;>,:,<235556mZDSCVVn7s3,=",
"FFFFFFFFFFFFFFFFFFFFFFFFFFFFFFFFFmBmx<,->::<<343655mVSSCVBnky0:F",
"FFFFFFFFFFFFFFFFFFFFFFFFFFFFFFFFFFmBNk,:::><33453<56MCZCVBlur>FF",
"FFFFFFFFFFFFFFFFFFFFFFFFFFFFFFFFFFFnNmf;>>;365363556MVCCBxar>FFF",
"FFFFFFFFFFFFFFFFFFFFFFFFFFFFFFFFFFFpbnml>>:<436665557nVVlst>&FFF",
"FFFFFFFFFFFFFFFFFFFFFFFFFFFFFFFFFFFFuiDBbg:1<=;<3776<jlfu9>&FFFF",
"FFFFFFFFFFFFFFFFFFFFFFFFFFFFFFFFFFFFFte0zNcxa7775>,gkdy,:**FFFFF",
"FFFFFFFFFFFFFFFFFFFFFFFFFFFFFFFFFFFFFFr07-=0pfsfsut,>*%&**FFFFFF",
"FFFFFFFFFFFFFFFFFFFFFFFFFFFFFFFFFFFFFFF982:=#$%$#**&&%&*&FFFFFFF",
"FFFFFFFFFFFFFFFFFFFFFFFFFFFFFFFFFFFFFFFFF<-*%#####$%%%%$FFFFFFFF",
"FFFFFFFFFFFFFFFFFFFFFFFFFFFFFFFFFFFFFFFFFFF&%%$@#@###;1FFFFFFFFF",
"FFFFFFFFFFFFFFFFFFFFFFFFFFFFFFFFFFFFFFFFFFFFFFh&%%$#$6FFFFFFFFFF",
"FFFFFFFFFFFFFFFFFFFFFFFFFFFFFFFFFFFFFFFFFFFFFFgu--1>34FFFFFFFFFF",
"FFFFFFFFFFFFFFFFFFFFFFFFFFFFFFFFFFFFFFFFFFFFFFgyia4447FFFFFFFFFF",
"FFFFFFFFFFFFFFFFFFFFFFFFFFFFFFFFFFFFFFFFFFFFFFftua6666FFFFFFFFFF",
"FFFFFFFFFFFFFFFFFFFFFFFFFFFFFFFFFFFFFFFFFFFFFFsrua6777FFFFFFFFFF",
"FFFFFFFFFFFFFFFFFFFFFFFFFFFFFFFFFFFFFFFFFFFFFFf0ya56636FFFFFFFFF",
"FFFFFFFFFFFFFFFFFFFFFFFFFFFFFFFFFFFFFFFFFFFFFFhtua55657FFFFFFFFF",
"FFFFFFFFFFFFFFFFFFFFFFFFFFFFFFFFFFFFFFFFFFFFFccapa66776FFFFFFFFF",
"FFFFFFFFFFFFFFFFFFFFFFFFFFFFFFFFFFFFFFFFFFFFFbbaaa67773FFFFFFFFF",
"FFFFFFFFFFFFFFFFFFFFFFFFFFFFFFFFFFFFFFFFFFFFFvbaai66662FFFFFFFFF",
"FFFFFFFFFFFFFFFFFFFFFFFFFFFFFFFFFFFFFFFFFFFFFbbaaa5543,FFFFFFFFF",
"FFFFFFFFFFFFFFFFFFFFFFFFFFFFFFFFFFFFFFFFFFFFFbbaaa311>>FFFFFFFFF",
"FFFFFFFFFFFFFFFFFFFFFFFFFFFFFFFFFFFFFFFFFFFFFcbapa3<>>,FFFFFFFFF",
"FFFFFFFFFFFFFFFFFFFFFFFFFFFFFFFFFFFFFFFFFFFFFcvaap1--;,FFFFFFFFF",
"FFFFFFFFFFFFFFFFFFFFFFFFFFFFFFFFFFFFFFFFFFFFFcbaaa>=->;FFFFFFFFF",
"FFFFFFFFFFFFFFFFFFFFFFFFFFFFFFFFFFFFFFFFFFFFxcppai,;=>=<FFFFFFFF",
"FFFFFFFFFFFFFFFFFFFFFFFFFFFFFFFFFFFFFFFFFFFFhcpuuy>;:-:>>FFFFFFF",
"FFFFFFFFFFFFFFFFFFFFFFFFFFFFFFFFFFFFFFFFFFFzchiiuu<,>=;::FFFFFFF",
"FFFFFFFFFFFFFFFFFFFFFFFFFFFFFFFFFFFFFFFFFFnvcxyuui2<>--:==FFFFFF",
"FFFFFFFFFFFFFFFFFFFFFFFFFFFFFFFFFFFFFFFFFFznxxyuyy<,>;-:-=FFFFFF",
"FFFFFFFFFFFFFFFFFFFFFFFFFFFFFFFFFFFFFFFFFFkkckzzhhtertr1>>FFFFFF",
"FFFFFFFFFFFFFFFFFFFFFFFFFFFFFFFFFFFFFFFFFFFhnzjjhfreeee<;FFFFFFF",
"FFFFFFFFFFFFFFFFFFFFFFFFFFFFFFFFFFFFFFFFFFFFteehgs000*=;7FFFFFFF",
"FFFFFFFFFFFFFFFFFFFFFFFFFFFFFFFFFFFFFFFFFFFFg00000*==*-:FFFFFFFF",
"FFFFFFFFFFFFFFFFFFFFFFFFFFFFFFFFFFFFFFFFFFFFFFF809-==FFFFFFFFFFF",
"FFFFFFFFFFFFFFFFFFFFFFFFFFFFFFFFFFFFFFFFFFFFFFFFFFFFFFFFFFFFFFFF",
"FFFFFFFFFFFFFFFFFFFFFFFFFFFFFFFFFFFFFFFFFFFFFFFFFFFFFFFFFFFFFFFF"
};
