/* XPM */
static char *magick[] = {
/* columns rows colors chars-per-pixel */
"64 64 64 1",
"  c Gray0",
". c #272727",
"X c #363736",
"o c #552a03",
"O c #623a17",
"+ c #784212",
"@ c #414141",
"# c #464746",
"$ c #4c4d4b",
"% c #4e514e",
"& c #525453",
"* c #565956",
"= c #5a5c5a",
"- c #5e615e",
"; c #606360",
": c #626662",
"> c #636664",
", c #666966",
"< c #676b68",
"1 c #696d69",
"2 c #6c6e6d",
"3 c #6c716b",
"4 c #6e726e",
"5 c #6e7370",
"6 c #72736e",
"7 c #727372",
"8 c #737673",
"9 c #747975",
"0 c #7b7d7b",
"q c #7d817d",
"w c #9c5618",
"e c #838583",
"r c #858a85",
"t c #8a8d89",
"y c #8e928d",
"u c #929692",
"i c #959b95",
"p c #999c97",
"a c #9b9c9b",
"s c #9ca29d",
"d c #a5a7a5",
"f c #a4aaa4",
"g c #aaacaa",
"h c #abb2ab",
"j c #acb3b0",
"k c #b1b3ad",
"l c #b4b4b3",
"z c #b3b9b3",
"x c #babcb9",
"c c #bcc3bc",
"v c #c1c2bd",
"b c #c2c3c2",
"n c #c4cbc3",
"m c #caccc6",
"M c #cbcdcb",
"N c #c9d0c9",
"B c #d0d0cf",
"V c #d2d4d2",
"C c #d4dbd4",
"Z c #dce1db",
"A c #e5e7e1",
"S c #eef5ee",
"D c Gray100",
"F c None",
/* pixels */
"FFFFFFFFFFFFFFFFFFFFFFFFFFFFFFFFFFFFFFFFFFFFFFFFFFFFFFFFFFFFFFFF",
"FFFFFFFFFFFFFFFFFFFFFFFFFFFFFFFFFFFFFFFFFFFFFFFFFFFFFFFFFFFFFFFF",
"FFFFFFFFFFFFFFFFFFFFFFFFFFFFFFFFFFFFFFFFFFFFFFFFFFFFFFFFFFFFFFFF",
"FFFFFFFFFFFFFFFFFFFFFFFFFFFFFFFFFFFFFFFFFFFFFFFFFFFFFFFFFFFFFFFF",
"FFFFFFFFFFFFFFFFFFFFFFFFFFFFFFFFFFFFFFFFFFFFFFFFFFFFFFFFFFFFFFFF",
"FFFFFFFFFFFFFFFFFFFFFFFFFFFFFFFFFFFFFFFFFFFFFFFFFFFFFFFFFFFFFFFF",
"FFFFFFFFFFFFFFFFFFFFFFFFFFFFFFFFFFFFFFFFFFFFFFFFFFFFFFFFFFFFFFFF",
"FFFFFFFFFFFFFFFFFFFFFFFFFFFFFFFFFFFFFFFFFFFFFFFFFFFFFFFFFFFFFFFF",
"FFFeFFFtFFFFFFFFFFFFFFFFFFFFFFFFFFFFFFFFFFFFFFFFFFFFFFFFFFFFFFFF",
"FFF44outFFFFFFFFFFFFFFFFFFFFFFFFFFFFFFFFFFFFFFFFFFFFFFFFFFFFFFFF",
"FFFri&4yFFFFFFFFFFFFFFFFFFFFFFFFFFFFFFFFFFFFFFFFFFFFFFFFFFFFFFFF",
"FFFe*&24FFFFFFFFFFFFFFFFFFFFFFFFFFFFFFFFFFFFFFFFFFFFFFFFFFFFFFFF",
"@FFFOOwFFFFFFFFFFFFFFFFFFFFFFFFFFFFFFFFFFFFFFFFFFFFFFFFFFFFFFFFF",
"@@@e@O+t&FFFFFFFFFFFFFFFFFFFFFFFFFFFFFFFFFFFFFFFFFFFFFFFFFFFFFFF",
"@@@44ou0=0FFFFFFFFFFFFFFFFFFFFFFFFFFFFFFFFFFFFFFFFFFFFFFFFFFFFFF",
"@@@rDe4XX%#vs>sfy:*0pfFFFFFFFFFFFFFFFFFFFFFFFFFFFFFFFFFFFFFFFFFF",
"FF@0q<24.X@ggffsutq,>=:fkFFFFFFFFFFFFFFFFFFFFFFFFFFFFFFFFFFFFFFF",
"FFFFOOwrpX@zkhgdsye1:-;=:zzFFFFFFFFFFFFFFFFFFFFFFFFFFFFFFFFFFFFF",
"@@.@O++&vXXxxzgddi43<<,:;=xcFFFFFFFFFFFFFFFFFFFFFFFFFFFFFFFFFFFF",
"@@@.$&V#*;bvxzkddp66443,>:=xbFFFFFFFFFFFFFFFFFFFFFFFFFFFFFFFFFFF",
"@#@@@&*#@&$nvxzgd6664441,>:ybbFFFFFFFFFFFFFFFFFFFFFFFFFFFFFFFFFF",
"@#qx.X.m.#@Nbczh8776444,<>;:xmmFFFFFFFFFFFFFFFFFFFFFFFFFFFFFFFFF",
"-70bccvNAX@Vnczh76433444<>:;gMmFFFFFFFFFFFFFFFFFFFFFFFFFFFFFFFFF",
">5qnbznNAXXZmcz7763112331<>-dMmMFFFFFFFFFFFFFFFFFFFFFFFFFFFFFFFF",
"27ecbvNVADDAMvx8661<,1431,:;kBmmFFFFFFFFFFFFFFFFFFFFFFFFFFFFFFFF",
",135bnBVZDDZmv776411<11<,>,:vmBnFFFFFFFFFFFFFFFFFFFFFFFFFFFFFFFF",
"-<4s8nVVCSDZm7666431<><,:>,ymNBFFFFFFFFFFFFFFFFFFFFFFFFFFFFFFFFF",
"F>qyknBVCSSVm66745411>>,;<1xmBmFFFFFFFFFFFFFFFFFFFFFFFFFFFFFFFFF",
"FF,rulBVCZCM761465441,>>><kNBmFFFFFFFFFFFFFFFFFFFFFFFFFFFFFFFFFF",
"FFF,raxBCCVM766474674:,,:fmNnFFFFFFFFFFFFFFFFFFFFFFFFFFFFFFFFFFF",
"FFF*,tslVVn8666777451>,,lmnbpFFFFFFFFFFFFFFFFFFFFFFFFFFFFFFFFFFF",
"FFFF*,0uflj178841:-12>gbBDiuFFFFFFFFFFFFFFFFFFFFFFFFFFFFFFFFFFFF",
"FFFFF==><ydkg<,6888axcNzqetFFFFFFFFFFFFFFFFFFFFFFFFFFFFFFFFFFFFF",
"FFFFFF==*&=,<tusfsfpq-;8qrFFFFFFFFFFFFFFFFFFFFFFFFFFFFFFFFFFFFFF",
"FFFFFFF*=*&**==$%&%$->390FFFFFFFFFFFFFFFFFFFFFFFFFFFFFFFFFFFFFFF",
"FFFFFFFF%&&&&%$$$$$&=;1FFFFFFFFFFFFFFFFFFFFFFFFFFFFFFFFFFFFFFFFF",
"FFFFFFFFF2:$$$#$#%&&*FFFFFFFFFFFFFFFFFFFFFFFFFFFFFFFFFFFFFFFFFFF",
"FFFFFFFFFF7%$%&&*hFFFFFFFFFFFFFFFFFFFFFFFFFFFFFFFFFFFFFFFFFFFFFF",
"FFFFFFFFFF54,2;;ugFFFFFFFFFFFFFFFFFFFFFFFFFFFFFFFFFFFFFFFFFFFFFF",
"FFFFFFFFFF8555aiygFFFFFFFFFFFFFFFFFFFFFFFFFFFFFFFFFFFFFFFFFFFFFF",
"FFFFFFFFFF7777autfFFFFFFFFFFFFFFFFFFFFFFFFFFFFFFFFFFFFFFFFFFFFFF",
"FFFFFFFFFF8887aursFFFFFFFFFFFFFFFFFFFFFFFFFFFFFFFFFFFFFFFFFFFFFF",
"FFFFFFFFF74776ayqfFFFFFFFFFFFFFFFFFFFFFFFFFFFFFFFFFFFFFFFFFFFFFF",
"FFFFFFFFF86766authFFFFFFFFFFFFFFFFFFFFFFFFFFFFFFFFFFFFFFFFFFFFFF",
"FFFFFFFFF78877apaccFFFFFFFFFFFFFFFFFFFFFFFFFFFFFFFFFFFFFFFFFFFFF",
"FFFFFFFFF48887aaabbFFFFFFFFFFFFFFFFFFFFFFFFFFFFFFFFFFFFFFFFFFFFF",
"FFFFFFFFF37777iaabvFFFFFFFFFFFFFFFFFFFFFFFFFFFFFFFFFFFFFFFFFFFFF",
"FFFFFFFFF<4566aaabbFFFFFFFFFFFFFFFFFFFFFFFFFFFFFFFFFFFFFFFFFFFFF",
"FFFFFFFFF,,224aaabbFFFFFFFFFFFFFFFFFFFFFFFFFFFFFFFFFFFFFFFFFFFFF",
"FFFFFFFFF<,,14apabcFFFFFFFFFFFFFFFFFFFFFFFFFFFFFFFFFFFFFFFFFFFFF",
"FFFFFFFFF<:;;2paavcFFFFFFFFFFFFFFFFFFFFFFFFFFFFFFFFFFFFFFFFFFFFF",
"FFFFFFFFF:,;-,aaabcFFFFFFFFFFFFFFFFFFFFFFFFFFFFFFFFFFFFFFFFFFFFF",
"FFFFFFFF1-,-:<iappcxFFFFFFFFFFFFFFFFFFFFFFFFFFFFFFFFFFFFFFFFFFFF",
"FFFFFFF,,>;>:,yuupchFFFFFFFFFFFFFFFFFFFFFFFFFFFFFFFFFFFFFFFFFFFF",
"FFFFFFF>>:-,<1uuiihczFFFFFFFFFFFFFFFFFFFFFFFFFFFFFFFFFFFFFFFFFFF",
"FFFFFF-->;;,13iuuyxcvnFFFFFFFFFFFFFFFFFFFFFFFFFFFFFFFFFFFFFFFFFF",
"FFFFFF-;>;:,<1yyuyxxnzFFFFFFFFFFFFFFFFFFFFFFFFFFFFFFFFFFFFFFFFFF",
"FFFFFF,,2rtrethhzzkckkFFFFFFFFFFFFFFFFFFFFFFFFFFFFFFFFFFFFFFFFFF",
"FFFFFFF:1eeeerfhjjznhFFFFFFFFFFFFFFFFFFFFFFFFFFFFFFFFFFFFFFFFFFF",
"FFFFFFF8:-=qqqsgheetFFFFFFFFFFFFFFFFFFFFFFFFFFFFFFFFFFFFFFFFFFFF",
"FFFFFFFF>;=--=qqqqqgFFFFFFFFFFFFFFFFFFFFFFFFFFFFFFFFFFFFFFFFFFFF",
"FFFFFFFFFFF--;0q9FFFFFFFFFFFFFFFFFFFFFFFFFFFFFFFFFFFFFFFFFFFFFFF",
"FFFFFFFFFFFFFFFFFFFFFFFFFFFFFFFFFFFFFFFFFFFFFFFFFFFFFFFFFFFFFFFF",
"FFFFFFFFFFFFFFFFFFFFFFFFFFFFFFFFFFFFFFFFFFFFFFFFFFFFFFFFFFFFFFFF"
};
