/* XPM */
static char *bath_a[] = {
/* width height num_colors chars_per_pixel */
"    64    64       64            1",
/* colors */
". c #343434",
"# c #3b3b3b",
"a c #57310f",
"b c #743b09",
"c c #414141",
"d c #4c4e4c",
"e c #464646",
"f c #565756",
"g c #525452",
"h c #5a5d5a",
"i c #5d5f5d",
"j c #5a5c5a",
"k c #565957",
"l c #4e514f",
"m c #5e615e",
"n c #5b605b",
"o c #60625f",
"p c #626362",
"q c #6b6c6b",
"r c #676a66",
"s c #6d716d",
"t c #7b7c7b",
"u c #767976",
"v c #717272",
"w c #955014",
"x c #863f00",
"y c None",
"z c #7e827f",
"A c #838483",
"B c #8b8d8b",
"C c #848984",
"D c #939593",
"E c #959a96",
"F c #9b9d9b",
"G c #969b99",
"H c #8d928e",
"I c #9ea4a2",
"J c #a3a5a4",
"K c #a5aaa6",
"L c #a3aaa5",
"M c #aaaba6",
"N c #a5aba9",
"O c #aaaea9",
"P c #acadab",
"Q c #acb2ac",
"R c #a6b0ab",
"S c #b1b3ad",
"T c #aeb5b1",
"U c #b3b5b3",
"V c #b4bab4",
"W c #bbbcbb",
"X c #b8bbb7",
"Y c #9ca29d",
"Z c #bdc2bd",
"0 c #c4c4c3",
"1 c #c5cac5",
"2 c #cbcccb",
"3 c #caccc6",
"4 c #cdd2cd",
"5 c #d3d6d3",
"6 c #ced6d0",
"7 c #e4e8e4",
"8 c #f7fcf6",
"9 c #dbe3dc",
/* pixels */
"yyyyyyyyyyyyyyyyyyyyyyyyyyyyyyyyyyyyyyyyyyyyyyyyyyyyyyyyyyyyyyyy",
"yyyyyyyyyyyyyyyyyyyyyyyyyyyyyyyyyyyyyyyyyyyyyyyyyyyyyyyyyyyyyyyy",
"yyyyyyyyyyyyyyyyyyyyyyyyyyyyyyyyyyyyyyyyyyyyyyyyyyyyyyyyyyyyyyyy",
"yyyyyyyyyyyyyyyyyyyyyyyyyyyyyyyyyyyyyyyyyyyyyyyyyyyyyyyyyyyyyyyy",
"yyyyyyyyyyyyyyyyyyyyyyyyyyyyyyyyyyyyyyyyyyyyyyyyyyyyyyyyyyyyyyyy",
"yyyyyyyyyyyyyyyyyyyyyyyyyyyyyyyyyyyyyyyyyyyyyyyyyyyyyyyyyyyyyyyy",
"yyyyyyyyyyyyyyyyyyyyyyyyyyyyyyyyyyyyyyyyyyyyyyyyyyyyyyyyyyyyyyyy",
"yyyyyyyyyyyyyyyyyyyyyyyyyyyyyyyyyyyyyyyyyyyyyyyyyyyyyyyyyyyyyyyy",
"yyyyyyyyyyyyyyyyyyyyyyyyyyyyyyyyyyyyyyyyyyyyyyyyytByyyyBDyyyyysB",
"yyyyyyyyyyyyyyyyyyyyyyyyyyyyyyyyyyyyyyyyyyyyyyyyyssAaxEjlyyyyyce",
"yyyyyyyyyyyyyyyyyyyyyyyyyyyyyyyyyyyyyyyyyyyyyyyyyysBA8mjyyyyyyy#",
"yyyyyyyyyyyyyyyyyyyyyyyyyyyyyyyyyyyyyyyyyyyyyyyyyyBHtvlHyyyyyyyB",
"yyyyyyyyyyyyyyyyyyyyyyyyyyyyyyyyyyyyyyyyyyyyyyyyytllegmjGyyyyysf",
"yyyyyyyyyyyyyyyyyyyyyyyyyyyyyyyyyyyyyyyyyyyyyyyyyeibxxwojyyyyyji",
"yyyyyyyyyyyyyyyyyyyyyyyyyyyyyyyyyyyyyyyyyyyyyyyyyy.abwwyyyyyyyyy",
"yyyyyyyyyyyyyyyyyyyyyyyyyyyyyyyyyyyyyyyyyyyyyyyyyycaaaoyyyyyyyyy",
"yyyyyyyyyyyyyyyyyyyyyyyyyyyyyyyyyyyyyyyyyyyyyyyyyycdgpfiyyyyyyyc",
"yyyyyyyyyyyyyyyyyyyyyyyyyyyyyyyyyyyyyyyyyyyyyyyyyycceoegyyyyyyyc",
"yyyyyyyyyyyyyyyyyyyyyyyyyyyyyyyyyyyyyyyyyyyyyyyyyy#cediyyyyyyyyy",
"yyyyyyyyyyyyyyyyyyyyyyyyyyyyyyyyyyyyyyyyyyyyyyyyyyGegoeXVTMJFDGI",
"yyyyyyyyyyyyyyyyyyyyyyyyyyyyyyyyyyyyyyyyyCFPXWWXQGzcdkemmomimmoo",
"yyyyyyyyyyyyyyyyyyyyyyyyyyyyyyyyyyyyDMUWZWKzphjkkkkceleiiiimmomm",
"yyyyyyyyyyyyyyyyyyyyyyyyyyyyyyyyDNXZZPvpjjjfkhoprqqcdd#ssqqqqrrr",
"yyyyyyyyyyyyyyyyyyyyyyyyyyyyzYQZ0WAiijirsutzACCCCCC#c#dzzzztttuu",
"yyyyyyyyyyyyyyyyyyyyyyyyyyESZ0WvmpqtABDDDDDHHHHHHHHce.CCCCAAAAzz",
"yyyyyyyyyyyyyyyyyyyyyyyuIV07DpvzHYFFFFFFFFFFGYGEEDD###HHHBBBBBCA",
"yyyyyyyyyyyyyyyyyyyyyyYX08zuCFJJJJJJIJIJJJIIIIIYFFFFGEEEDDDDHHBB",
"yyyyyyyyyyyyyyyyyyyyCT05DAGSPPPMPPPPPPPMKKKKLJJIIIYFFFFFGEEDDDHH",
"yyyyyyyyyyyyyyyyyyyHV12BJXUUUUUUUUTSQQPMPKMKKJJJJJJYFYFFFEGEEDDD",
"yyyyyyyyyyyyyyyyyyHX10YWXXVXXXWXXUUUSTSPPROKPNLJJJIJYYYFFFEGGEHH",
"yyyyyyyyyyyyyyyyyqU05P0011WZWWWWXXVUUUSTQOORPPKJILIIIYYFYFGGEEHH",
"yyyyyyyyyyyyyyyyyCX3520011000ZZWWWWXXUTTQQQQSOONKILJYYFYGFFEEDHB",
"yyyyyyyyyyyyyyyyyJZ43Z10011100Z0ZZWWXVVUUQQJQNONKJLIYIYIYGEEEEHB",
"yyyyyyyyyyyyyyyyizX0523213222210000ZVXVVTTQQQPROKJKLLLIYFFFGEEBB",
"yyyyyyyyyyyyyyyyysSZq124646222221100WWWVVTOQQORNNOOKJIIIYFYEEEHH",
"yyyyyyyyyyyyyyyyyqBSW32332444455422ZZWZXVVTTQQORKNLLLIILIIYYYYEE",
"yyyyyyyyyyyyyyyyynqBOW2224454455554220ZWXVVUUTQQRROKKLIIJYYYIIGG",
"yyyyyyyyyyyyyyyyyypsHJUX244444599554431WXXUTTVTORROQOLJIIILIIIFF",
"yyyyyyyyyyyyyyyyyyyovzEISXU445597779953ZZXVUTQQROOQNKNLKLNLIJJFF",
"yyyyyyyyyyyyyyyyyyyymqtHGJOUUS5597888796ZZXUXTTQQOORKROLKNMKKJYF",
"yyyyyyyyyyyyyyyyyyyyykprCHEYJMQVSQP8888753ZXVSQTOQQMOPOMNNNNKJYF",
"yyyyyyyyyyyyyyyyyyyyyydmrvBHEFJJKKOQUUSOPM61ZWXVTQQQQOKONKNKKJIY",
"yyyyyyyyyyyyyyyyyyyyyyySfpqsCDEEFYIJMKMOOSSUUTSSUUUUUUUUVVVUUUWZ",
"yyyyyyyyyyyyyyyyyyyyyyyykkgoqvzBEEFYIJJKKLLMMMPPMPPPSSOOOSSSVVXX",
"yyyyyyyyyyyyyyyyyyyyyyyyyhhhghqvuABDGYYJJJKKMMMKKMMMPPPPPPPPSSUV",
"yyyyyyyyyyyyyyyyyyyyyyyyyyhnnjijorvtBHDEFYJJJKKJMMLMMOOOMMOPOPSS",
"yyyyyyyyyyyyyyyyyyyyyyyyyyyjhniinprfpqsvBDEFYYJJJKKMKMMPMPMOOOSS",
"yyyyyyyyyyyyyyyyyyyyyyyyyyyyjimmiiihirqfjorqvzBEIJJJKLKKMMPPQPOP",
"yyyyyyyyyyyyyyyyyyyyyyyyyyyyykhnmnioihioprrqvfkjoprrqvtzCBHDFFPP",
"yyyyyyyyyyyyyyyyyyyyyyyyyyyyyyfhmimmmmmmmommmmmpprrqqvFPikkkffkk",
"yyyyyyyyyyyyyyyyyyyyyyyyyyyyyyygjhnnmmmimmmmmmmiiimommomoooooooo",
"yyyyyyyyyyyyyyyyyyyyyyyyyyyyyyyyyfkhhiiinimminimiimmmmmmooooooom",
"yyyyyyyyyyyyyyyyyyyyyyyyyyyyyyyyyygkkhhhmnininnniiimimimmmmooooo",
"yyyyyyyyyyyyyyyyyyyyyyyyyyyyyyyyeeeelfkjjhjhhinimmomhmimmmnmmmom",
"yyyyyyyyyyyyyyyyyyyyyyyyyyyyyyyefffffdggfkkkhhhhhnmomihnnihhinhh",
"yyyyyyyyyyyyyyyyyyyyyyyyyyyyyy.efrrrfeyyglggfkkkhhhihhhjjjjkkjkk",
"yyyyyyyyyyyyyyyyyyyyyyyyyyyyyy.efrtrfeyyyydllggffkkkjkkkffgffggg",
"yyyyyyyyyyyyyyyyyyyyyyyyyyyyyy.efrrrfeyyyyyyeddlgggffkkkkffggggg",
"yyyyyyyyyyyyyyyyyyyyyyyyyyyyyy.efffffeyyyyyyyyyeedllgggggfgggggg",
"yyyyyyyyyyyyyyyyyyyyyyyyyyyyyyy.eeeeeyyyyyyyyyyyyyydddddllllllll",
"yyyyyyyyyyyyyyyyyyyyyyyyyyyyyyyy....yyyyyyyyyyyyyyyyyyygddddddlg",
"yyyyyyyyyyyyyyyyyyyyyyyyyyyyyyyyyyyyyyyyyyyyyyyyyyyyyyyyyyyyyyyy",
"yyyyyyyyyyyyyyyyyyyyyyyyyyyyyyyyyyyyyyyyyyyyyyyyyyyyyyyyyyyyyyyy",
"yyyyyyyyyyyyyyyyyyyyyyyyyyyyyyyyyyyyyyyyyyyyyyyyyyyyyyyyyyyyyyyy"
};
