/* XPM */
static char *bath1_b[] = {
/* width height num_colors chars_per_pixel */
"    64    64       63            1",
/* colors */
". c #343434",
"# c #3b3b3b",
"a c #2e2c2b",
"b c #723906",
"c c #57300c",
"d c #464646",
"e c #4c4d4c",
"f c #444342",
"g c #565756",
"h c #525452",
"i c #5c5d5b",
"j c #565956",
"k c #4f514e",
"l c #61625e",
"m c #616161",
"n c #636663",
"o c #666965",
"p c #6b6c6a",
"q c #696c67",
"r c #6e726e",
"s c #6d726b",
"t c #727372",
"u c #737672",
"v c #757674",
"w c #767974",
"x c #797b75",
"y c #7b7d7a",
"z c #71736e",
"A c #5e615e",
"B c #975011",
"C c #853f00",
"D c #81827e",
"E c None",
"F c #7e827d",
"G c #828681",
"H c #848583",
"I c #858a85",
"J c #898e89",
"K c #8b8c8b",
"L c #888b88",
"M c #8d918d",
"N c #929492",
"O c #9a9c9a",
"P c #959996",
"Q c #8e9390",
"R c #abadaa",
"S c #a4a8a3",
"T c #adb1ac",
"U c #b2b4ad",
"V c #b4b4b3",
"W c #babab5",
"X c #bcbcbb",
"Y c #9fa39e",
"Z c #bec3bd",
"0 c #b5bab5",
"1 c #c2c6be",
"2 c #c2c4c2",
"3 c #c5cac4",
"4 c #cbcccb",
"5 c #cacac4",
"6 c #d2d4cf",
"7 c #fefefd",
"8 c #dee0d9",
/* pixels */
"EEEEEEEEEEEEEEEEEEEEEEEEEEEEEEEEEEEEEEEEEEEEEEEEEEEEEEEEEEEEEEEE",
"EEEEEEEEEEEEEEEEEEEEEEEEEEEEEEEEEEEEEEEEEEEEEEEEEEEEEEEEEEEEEEEE",
"EEEEEEEEEEEEEEEEEEEEEEEEEEEEEEEEEEEEEEEEEEEEEEEEEEEEEEEEEEEEEEEE",
"EEEEEEEEEEEEEEEEEEEEEEEEEEEEEEEEEEEEEEEEEEEEEEEEEEEEEEEEEEEEEEEE",
"EEEEEEEEEEEEEEEEEEEEEEEEEEEEEEEEEEEEEEEEEEEEEEEEEEEEEEEEEEEEEEEE",
"EEEEEEEEEEEEEEEEEEEEEEEEEEEEEEEEEEEEEEEEEEEEEEEEEEEEEEEEEEEEEEEE",
"EEEEEEEEEEEEEEEEEEEEEEEEEEEEEEEEEEEEEEEEEEEEEEEEEEEEEEEEEEEEEEEE",
"EEEEEEEEEEEEEEEEEEEEEEEEEEEEEEEEEEEEEEEEEEEEEEEEEEEEEEEEEEEEEEEE",
"EEEEKPEEEEEEEEEEEEEEEEEEEEEEEEEEEEEEEEEEEEEEEEEEEEEEEEEEEEEEEEEE",
"vCCNKxEEEEEEEEEEEEEEEEEEEEEEEEEEEEEEEEEEEEEEEEEEEEEEEEEEEEEEEEEE",
"hyNMKEEEEEEEEEEEEEEEEEEEEEEEEEEEEEEEEEEEEEEEEEEEEEEEEEEEEEEEEEEE",
"MDvrKEEEEEEEEEEEEEEEEEEEEEEEEEEEEEEEEEEEEEEEEEEEEEEEEEEEEEEEEEEE",
"hdfgnLEEEEEEEEEEEEEEEEEEEEEEEEEEEEEEEEEEEEEEEEEEEEEEEEEEEEEEEEEE",
"bCCBmfEEEEEEEEEEEEEEEEEEEEEEEEEEEEEEEEEEEEEEEEEEEEEEEEEEEEEEEEEE",
"cbBcEEEEEEEEEEEEEEEEEEEEEEEEEEEEEEEEEEEEEEEEEEEEEEEEEEEEEEEEEEEE",
"fccCEEEEEEEEEEEEEEEEEEEEEEEEEEEEEEEEEEEEEEEEEEEEEEEEEEEEEEEEEEEE",
".kgtAEEEEEEEEEEEEEEEEEEEEEEEEEEEEEEEEEEEEEEEEEEEEEEEEEEEEEEEEEEE",
"fekmgEEEEEEEEEEEEEEEEEEEEEEEEEEEEEEEEEEEEEEEEEEEEEEEEEEEEEEEEEEE",
"fkdmfEEEEEOEEEEEEEEEEEEEEEEEEEEEEEEEEEEEEEEEEEEEEEEEEEEEEEEEEEEE",
"akimXXZ0RSNSW000EEEEEEEEEEEEEEEEEEEEEEEEEEEEEEEEEEEEEEEEEEEEEEEE",
".eginnnoqxNSW0000VEEEEEEEEEEEEEEEEEEEEEEEEEEEEEEEEEEEEEEEEEEEEEE",
"afehAAAAiiAAmmooorrrrYEEEEEEEEEEEEEEEEEEEEEEEEEEEEEEEEEEEEEEEEEE",
"#.e#oqoooonnmnnoorrrQSSEEEEEEEEEEEEEEEEEEEEEEEEEEEEEEEEEEEEEEEEE",
".fefttzrrrsssnmoorrrQSSEEEEEEEEEEEEEEEEEEEEEEEEEEEEEEEEEEEEEEEEE",
"a.#dyyxwvvttrspmmAAAAiVXXEEEEEEEEEEEEEEEEEEEEEEEEEEEEEEEEEEEEEEE",
"H.eaHDDFyyxxwsppmAAmAiAoXEEEEEEEEEEEEEEEEEEEEEEEEEEEEEEEEEEEEEEE",
"KKKLLIGGDDDFywuzpppppionIXX0EEEEEEEEEEEEEEEEEEEEEEEEEEEEEEEEEEEE",
"KKKLIIHGGDDFFFyuzzzpssrrAnNTZUZZEUE1EE1EEEEEEEEEEEEEEEEEEEEEEEEE",
"QMKLILIGGGGFyyyyxwwzrurrrrisipOZ0Z1111333EEEEEEEEEEEEEEEEEEEEEEE",
"QMJJLIIHGGGDDyyyyxxwuuurrrrsrqqioYwRXXWW44EEEEEEEEEEEEEEEEEEEEEE",
"MJJMIJLIGDDFFyyyyyyxuwurrrztttzzjipSSSSS223EEEEEEEEEEEEEEEEEEEEE",
"MLJMJLIGLGGDDDDDFFFyywuuurtttuttrrAAAOOUUU6EEEEEEEEEEEEEEEEEEEEE",
"MJJJIIIIJLLIIIHHHGGDFFywwttuuutrrspLMMMSSS5EEEEEEEEEEEEEEEEEEEEE",
"KMMJJKMKKLLLLLIIIIHGGDFwwvtuuuutzrrVNNNUU66EEEEEEEEEEEEEEEEEEEEE",
"QQQQQNMMMKKKKKKKKLLIHGDxxvututtuttqYWWW6662EEEEEEEEEEEEEEEEEEEEE",
"PNNPNNNQMMMKKKKKKKJLIHDFywuuuuutS01ZZ55666EEEEEEEEEEEEEEEEEEEEEE",
"PPPPNNNQMMMMMKKKKKJLLIHDyvtuQT1343888666RREEEEEEEEEEEEEEEEEEEEEE",
"OOPNPNNNQQQMMMMMMJJLIIYR0Z555478747XYYSSEEEEEEEEEEEEEEEEEEEEEEEE",
"OPPPPPNNQQQQMMMMMMJJL222334468WITJtLEEEEEEEEEEEEEEEEEEEEEEEEEEEE",
"OOPPPPNNNQQMMMMMMJ2X2222332VDGyspEEtEEEEEEEEEEEEEEEEEEEEEEEEEEEE",
"OOOOPPNNNQQQMMM222222Z2iiipnuuDHJpEEEEEEEEEEEEEEEEEEEEEEEEEEEEEE",
"OOOPPPPNNQQ1222222Z2Z11iiiwrzuyIEEEEEEEEEEEEEEEEEEEEEEEEEEEEEEEE",
"XZZ22222111ZZZ22ZZ2Z1TOiiippsuxDIEEEEEEEEEEEEEEEEEEEEEEEEEEEEEEE",
"WXXXXXXXXZZZZZZZZXZZXTmwppppqpxDEEEEEEEEEEEEEEEEEEEEEEEEEEEEEEEE",
"000WWXWXXXZZZiiiXZXXXiGwponoqpuEEEEEEEEEEEEEEEEEEEEEEEEEEEEEEEEE",
"RTRTTUVUUWXXiiiiZXXgimGoqonoqsuxEEEEEEEEEEEEEEEEEEEEEEEEEEEEEEEE",
"OPOPONOPOSVWiiiiiwngiqqoqonoqswEEEEEEEEEEEEEEEEEEEEEEEEEEEEEEEEE",
"IKIKIKIKLYRViiiiiyvpqqqoqonqqswEEEEEEEEEEEEEEEEEEEEEEEEEEEEEEEEE",
"ONPJMGyrqmijiiiiivnoonnnnonqqzEEEEEEEEEEEEEEEEEEEEEEEEEEEEEEEEEE",
"jgjmRRFyutiiiiiiinooonnnnonqqzEEEEEEEEEEEEEEEEEEEEEEEEEEEEEEEEEE",
"AAAAAmAAmmiiiiinnnnnllnllnoqEEEEEEEEEEEEEEEEEEEEEEEEEEEEEEEEEEEE",
"AmmlAAiiiiiiiilmAmAAAAlAAnnEEEEEEEEEEEEEEEEEEEEEEEEEEEEEEEEEEEEE",
"mmAAAiiiiiiiiAAiiiiiiiAilnEEEEEYYYYEEEEEEEEEEEEEEEEEEEEEEEEEEEEE",
"AiAiiiiiiiiiiiijjgjgjiiAEEEEEEEYYYYYYEEEEEEEEEEEEEEEEEEEEEEEEEEE",
"iiiiiijjjjggjhhhgghijdddddEEEEEEYYYYYEEEEEEEEEEEEEEEEEEEEEEEEEEE",
"jjjjggghghhhhkhhhhgjdgggggdEEEEEEEEEEEEEEEEEEEEEEEEEEEEEEEEEEEEE",
"hhhhhkhkkeeehhjjgiE.dgqqqgd.EEEEEEEEEEEEEEEEEEEEEEEEEEEEEEEEEEEE",
"hhhhhkkeeekkhhiAEEE.dgqyqgd.EEEEEEEEEEEEEEYYEEEEEEEEEEEEEEEEEEEE",
"kkeeeeeeekgjAEEEEEE.dgqqqgd.EEEEYYYYYYEEEEYYEEEEEEEEEEEEEEEEEEEE",
"eeekkkhhjEEEEEEEEEE.dgggggd.EEYYYYYYYYEEEEEEEEEEEEEEEEEEEEEEEEEE",
"hhhhjEEEEEEEEEEEEEEE.ddddd.EEEYYYYYYYYYEEEEEEEEEEEEEEEEEEEEEEEEE",
"EEEEEEEEEEEEEEEEEEEEE.....EEEEEYYYYYYYYEEEEEEEEEEEEEEEEEEEEEEEEE",
"EEEEEEEEEEEEEEEEEEEEEEEEEEEEEEEEEEEEEEEEEEEEEEEEEEEEEEEEEEEEEEEE",
"EEEEEEEEEEEEEEEEEEEEEEEEEEEEEEEEEEEEEEEEEEEEEEEEEEEEEEEEEEEEEEEE"
};
