/* XPM */
static char *bedb[] = {
/* width height num_colors chars_per_pixel */
"    64    64       64            1",
/* colors */
". c #000000",
"# c #010101",
"a c #020202",
"b c #030303",
"c c #040404",
"d c #1a1a1a",
"e c #1e1e1e",
"f c #212121",
"g c #232323",
"h c #242424",
"i c #252525",
"j c #6a6a6a",
"k c #6c6c6c",
"l c #727272",
"m c #737373",
"n c #757575",
"o c #777777",
"p c #787878",
"q c #797979",
"r c #7a7a7a",
"s c #7b7b7b",
"t c #7c7c7c",
"u c #7d7d7d",
"v c #7e7e7e",
"w c #7f7f7f",
"x c None",
"y c #808080",
"z c #828282",
"A c #848484",
"B c #868686",
"C c #888888",
"D c #8b8b8b",
"E c #8e8e8e",
"F c #949494",
"G c #999999",
"H c #9a9a9a",
"I c #9c9c9c",
"J c #9f9f9f",
"K c #a2a2a2",
"L c #a5a5a5",
"M c #a7a7a7",
"N c #ababab",
"O c #afafaf",
"P c #b8b8b8",
"Q c #b9b9b9",
"R c #bababa",
"S c #bdbdbd",
"T c #c1c1c1",
"U c #c3c3c3",
"V c #c8c8c8",
"W c #c9c9c9",
"X c #cacaca",
"Y c #cbcbcb",
"Z c #cccccc",
"0 c #cdcdcd",
"1 c #cecece",
"2 c #cfcfcf",
"3 c #d0d0d0",
"4 c #d1d1d1",
"5 c #d2d2d2",
"6 c #d3d3d3",
"7 c #e4e4e4",
"8 c #e7e7e7",
"9 c #ffffff",
/* pixels */
"xxxxxxxxxxxxxxxxxxxxxxxxxxxxxxxxxxxxxxxxxxxxxxxxxxxxxxxxxxxxxxxx",
"xxxxxxxxxxxxxxxxxxxxxxxxxxxxxxxxxxxxxxxxxxxxxxxxxxxxxxxxxxxxxxxx",
"xxxxxxxxxxxxxxxxxxxxxxxxxxxxxxxxxxxxxxxxxxxxxxxxxxxxxxxxxxxxxxxx",
"xxxxxxxxxxxxxxxxxxxxxxxxxxxxxxxxxxxxxxxxxxxxxxxxxxxxxxxxxxxxxxxx",
"xxxxxxxxxxxxxxxxxxxxxxxxxxxxxxxxxxxxxxxxxxxxxxxxxxxxxxxxxxxxxxxx",
"xxxxxxxxxxxxxxxxxxxxxxxxxxxxxxxxxxxxxxxxxxxxxxxxxxxxxxxxxxxxxxxx",
"xxxxxxxxxxxxxxxxxxxxxxxxxxxxxxxxxxxxxxxxxxxxxxxxxxxxxxxxxxxxxxxx",
"xxxxxxxxxxxxxxxxxxxxxxxxxxxxxxxxxxxxxxxxxxxxxxxxxxxxxxxxxxxxxxxx",
"xxxxxxxxxxxxxxxxxxxxxxxxxxxxxxxxxxxxxxxxxxxxxxxxxxxxxxxxxxxxxxxx",
"xxxxxxxxxxxxxxxxxxxxxxxxxxxxxxxxxxxxxxxxxxxxxxxxxxxxxxxxxxxxxxxx",
"....TTTSSRP.......kjjjxxxxxxxxxxxxxxxxxxxxxxxxxxxxxxxxxxxxxxxxxx",
"....XXXXXXX......eXXXXXXX......WWWWWW.....VyVVV...VV.xxxxxxxxxxx",
"ZZZY.......YYYYYYY.......YYmYYY.....dYYYYYY....YYY..Zxxxxxxxxxxx",
"ZZZZ.......ZZZZZZZ.......ZZ9ZZZZ......ZZZZZ....ZZZ...kxxxxxxxxxx",
"0000.......0000000.......0000000......ZZZZZ....ZZZZ..2xxxxxxxxxx",
"0000.......0000000.......0000000......00000.d...000..2xxxxxxxxxx",
"0000.......0000000.......0000000......00000.d...000..1xxxxxxxxxx",
"....0000000........0000000......000000...000....00M..1xxxxxxxxxx",
"....11111111.......1100110..f...00000t......1111....11.xxxxxxxxx",
"....11119111.......1111111..f...11111t1.....1111....11.xxxxxxxxx",
"....11119111.......1111111..f....1111t1.....19111...11.xxxxxxxxx",
".....1119111.......1111111..f....111111.....19111...11.xxxxxxxxx",
".....1119111.......1111111.......111111.....11111...112.xxxxxxxx",
".....1119111.......1111111.......111111......1111....11.xxxxxxxx",
"UUUUU.......EEE....1111111.......11111u......1111....12.xxxxxxxx",
"11111...h...1111111.......1111111.......11111.e...112..3xxxxxxxx",
"11111...h...1111111........119111.......11111.e...22N..3.xxxxxxx",
"11111...h...1111111........1191111......11222.e...222...5xxxxxxx",
"11111...h...1111111........1292222......222222....2222..4xxxxxxx",
"11111...h...2222222........2292222......222222....2222..4xxxxxxx",
"22222...h...2222222n.......2292222......222222.....222..3xxxxxxx",
"22222...h...2222222n.......2222222......222222.f...22N...8xxxxxx",
".....2229222........22.....2222222.......22222.f...22N...5xxxxxx",
".....2229222........2222222.......22222v2.....29222....22.xxxxxx",
".....2229222........2222222.......2222222......2222....22.xxxxxx",
".....2222222........2222222...g....222222......2222....22.xxxxxx",
".....2222222........22222222..h....222222......22222...223.xxxxx",
".....2222222........22222222..h....222222......29222...223.xxxxx",
".....LLLL666........IIIIIIII..h....22222w......29222....33.xxxxx",
"22222........2222222.2222222.......2222292.....3D333....33.xxxxx",
"22222........2222223........3333333.....i.33333.....3333..5xxxxx",
"33333........3333333........3333333.....i.333333....3344..57xxxx",
"22222########3333333aaaaaaaa3333333aaaabbb444444bbbbb555ccc7xxxx",
".....RRRRRRRR.......QQQQQQQQ......Q.......PPPPPP.....PPU...Rxxxx",
".....LLLLLLLL.......LLLLLLLL.......LLLLLLL......LLLLL...LLL.xxxx",
".....FFFFFFFF.......FFFFFFFF.......FFFFFLF......FFFFF...FFF.xxxx",
".....EEEEEEEE.......EEEEEEEE.......EEEEEKE......EEEE....EE..xxxx",
".....CCCCCCCC.......CCCCCCCC.......CCCCCJC......CCCC....CC.xxxxx",
".....SBBBBBBB.......BBBBBBBB.......BBBBBJB.....BBBBB....BB.xxxxx",
".....AAAAAAAA.......AAAAAAAA.......AAAAAvA.....AHAAA....AA.xxxxx",
".....zzzzzzz........zzzzzzzz.......zzzzzuz.....zHzzz....zz.xxxxx",
".....yyyyyyy........yyyyyyyy.......yyyyyu......yGyyy....yy.xxxxx",
"vvvvv.......vvvvvvvq........vvHvvvv......vvvvvv.....vvr...vxxxxx",
"uuuuu.......uuuuuuuq........uuHuuuu......uuuuuu.....uur...txxxxx",
"ttttt.......tttttttp........ttHtttt......tttttt.....ttt...Oxxxxx",
"sssss.......sssssssp........ssGssss......ssssss....ssss..zxxxxxx",
"rrrrr.......rrrrrrrp.......rrrGrrrr......rrrrrr....rrrr..rxxxxxx",
"qqqqq.......qqqqqqqo.......qqqqqqq.......qqqqqq....qqqq..qxxxxxx",
"ppppp.......pppppppo.......ppppppp.......ppppp.....pppp..pxxxxxx",
"mlllm.......mmmmmmmn.......mmmmmmm.......mmmmm.....mmmm..mxxxxxx",
"xxxxxxxxxxxxxxxxxxxxxxxxxxxxxxxxxxxxxxxxxxxxxxxxxxxxxxxxxxxxxxxx",
"xxxxxxxxxxxxxxxxxxxxxxxxxxxxxxxxxxxxxxxxxxxxxxxxxxxxxxxxxxxxxxxx",
"xxxxxxxxxxxxxxxxxxxxxxxxxxxxxxxxxxxxxxxxxxxxxxxxxxxxxxxxxxxxxxxx",
"xxxxxxxxxxxxxxxxxxxxxxxxxxxxxxxxxxxxxxxxxxxxxxxxxxxxxxxxxxxxxxxx"
};
