/* XPM */
static char *magick[] = {
/* columns rows colors chars-per-pixel */
"64 64 65 1",
"  c #28282a",
". c #2e2e31",
"X c #323235",
"o c #38383b",
"O c #6d256a",
"+ c #693969",
"@ c #55553d",
"# c #66661e",
"$ c #6d6d23",
"% c #737324",
"& c #75752a",
"* c #7b7b25",
"= c #7c7c2c",
"- c #49494a",
"; c Gray35",
": c #7d4d4a",
"> c #7d4d7d",
", c #6d6d58",
"< c Gray40",
"1 c #777777",
"2 c #88584c",
"3 c #986852",
"4 c #a14876",
"5 c #ab7f57",
"6 c Magenta",
"7 c #83832e",
"8 c #8a8a2d",
"9 c #868630",
"0 c #898931",
"q c #8e8e32",
"w c #929233",
"e c #969635",
"r c #989830",
"t c #9a9a36",
"y c #9d9d37",
"u c #9b9b3a",
"i c #9e9e39",
"p c #a5a534",
"a c #a1a139",
"s c #a2a23d",
"d c #a5a53a",
"f c #a6a63d",
"g c #a9a93e",
"h c #acac3c",
"j c #b2b23d",
"k c #b8b83a",
"l c #abab43",
"z c #adad42",
"x c #b2b245",
"c c #b5b54a",
"v c #baba43",
"b c #baba4e",
"n c #bdbd52",
"m c #d0a065",
"M c #c6c644",
"N c #c2c255",
"B c #c6c659",
"V c #caca5d",
"C c #d6d650",
"Z c #d0d062",
"A c #eaea6a",
"S c Gray54",
"D c Gray69",
"F c #e0a0a5",
"G c None",
/* pixels */
"GGGGGGGGGGGGGGGGGGGGGGGGGGGGGGGGGGGGGGGGGGGGGGGGGGGGGGGGGGGGGGGG",
"GGGGGGGGGGGGGGGGGGGGGGGGGGGGGGGGGGGGGGGGGGGGGGGGGGGGGGGGGGGGGGGG",
"GGGGGGGGGGGGGGGGGGGGGGGGGGGGGGGGGGGGGGGGGGGGGGGGGGGGGGGGGGGGGGGG",
"GGGGGGGGGGGGGGGGGGGGGGGGGGGGGGGGGGGGGGGGGGGGGGGGGGGGGGGGGGGGGGGG",
"GGGGGGGGGGGGGGGGGGGGGGGGGGGGGGGGGGGGGGGGGGGGGGGGGGGGGGGGGGGGGGGG",
"GGGGGGGGGGGGGGGGGGGGGGGGGGGGGGGGGGGGGGGGGGGGGGGGGGGGGGGGGGGGGGGG",
"GGGGGGGGGGGGGGGGGGGGGGGGGGGGGGGGGGGGGGGGGGGGGGGGGGGGGGGGGGGGGGGG",
"GGGGGGGGGGGGGGGGGGGGGGGGGGGGGGGGGGGGGGGGGGGGGGGGGGGGGGGGGGGGGGGG",
"GGGGGGGGGGGGGGGGGGGGGGGGGGGGGGGGGGGGGGGG43533322323255353352%wth",
"GGGGGGGGGGGGGGGGGGGGGGGGGGGGGGMhqw98ddt&qgw#0y0&w7tq7w0&wqe9yh0e",
"GGGGGGGGGGGGGGGGGGGGGGGGGGGGGGhjw9jqawq0dd0qwt&97thwtw$9&qyw79tt",
"GGGGGGGGGGGGGGGGGGGGGGGGGGGGGGMjwthy0dity7t=0&=&weywed==7&wgwght",
"GGGGGGGGGGGGGGGGGGGGGGGGGGGGGGMvqwaaqiwd9iddytd0wwqegdtew9&fwweh",
"GGGGGGGGGGGGGGGGGGGGGGGGGGGGGGkvdazwae09qyq0=dinq=dqqw0y9awvv99w",
"GGGGGGGGGGGGGGGGGGGGGGGGGGGGGmMg9qaxadw0eaw0yyjyew9wtjejeatwdwa7",
"GGGGGGGGGGGGGGGGGGGGGGGGGGGGGmCvwtvjd0dteaigwhejjudeaw7edeaw9qqi",
"GGGGGGGGGGGGGGGGGGGGGGGGGGGGGmAvxhaja7a0itdddwaqey7thge79wadagej",
"GGGGGGGGGGGGGGGGGGGGGGGGGGGGGmCMdw9wwffqqqy0qqedhveeqtqayieqy9dw",
"GGGGGGGGGGGGGGGGGGGGGGGGGGGGGCAjvddwtewhaa0qdthaaayy9y70d0hgjyqh",
"GGGGGGGGGGGGGGGGGGGGGGGGGGGGGMAMjhwhjwhhaqdahte9wdtada7egfdqhtfq",
"GGGGGGGGGGGGGGGGGGGGGGGGG3GGGkAjwajyehydhddjefayee=qahwhwahddatt",
"GGGGGGGGGGGGGGGGGGGGGGGGGe4GFCAveyyhjdjffwhwtqawwa90adhyjtqay00d",
"GGGGGGGGGGGGGGGGGGGGGGGGMt:GkMAvdhjwtqijwheagdvthdeyaevahaqejdaq",
"GGGGGGGGGGGGGGGGGGGGGGGGC8#:pMAjeydhytqjyyahavjitwjigfjwyqdjehe9",
"GGGGGGGGGGGGGGGGGGGGGGGFAz$$prNhghdwtgadytgyjawjhaagx0jwyzdigtaw",
"GGGGGGGGGGGGGGGGGGGGGGGmAx$$pMAjjafgwwfwtyejthehdaeizeeeatdftsct",
"GGGGGGGGGGGGGGGGGGGGGGGmAw$$jMAjjzfwgwzxtjtjdvtwagiitdwftvgwdcMh",
"GGGGGGGGGGGGGGGGGGGGGGGMCt$$ppvjhaayaixtxtcftbaeeeycxizbziissnzt",
"GGGGGGGGGGGGGGGGGGGGGGGMCr$$vMsteglccyfciefgyxciafitefefnfbtwila",
"GGGGGGGGGGGGGGGGGGGGGGGkCy%$kMtsxtgcbewfcgxeaeaeeyfthNflabbzwlun",
"GGGGGGGGGGGGGGGGGGGGGGGMCr*$jpwezezazzdczaxtixaftungwnftbxBfxacz",
"GGGGGGGGGGGGGGGGGGGGGGGjMz*$rMifaicuxabacnbizusfbggxebbNNengcNZc",
"GGGGGGGGGGGGGGGGGGGGGGGkks*&*MfgxaedgccznbfxrlecinhtsNfcazxxclBx",
"GGGGGGGGGGGGGGGGGGGG>>>MMl7=$vygiaaxxsVxfdcstsaffNlBzBxgbbnliNZn",
"GGGGGGGGGGGGGGGG<11<1<,vMc%u%hyanbNbNlncNffzVbVnVNgneszBVNNBzbZx",
"GGGGGGGGGGGGG111111111,pMb*i$r8dadfinanglNcfBcbgzafnzVnnlzBznclN",
"GGGGGGGGGGG11SSSS11111,pMf*u*kixznNcbNbzBZcclzsnBgsaxzlNgNnVcnxB",
"GGGGGGGGG11DDDDS111111,khg*e$pwzyyiczVngBnNxBVxxBbNnalNNxNazNaby",
"GGGGGGGG1SDDDS11111111,hMy*w$r7yybgtnbyfbsfgzczBgaebnVVBzNBVZnfb",
"GGGGGGG1SDDS1111<<<<<<@jvt*e*ktliBfbZBdznybyxBngtysNzBZnnbcVVBNZ",
"GGGGGG11S1111<<<;;;;;;@rjf*w*pegyxsNxlgyfaNxNzdaix8lBdbnxgBbZncl",
"GGGGG111111<<;;;;--++++hhx*8*pecdnNxbnNfdzZZNceycfzVgtfNczzyNzgn",
"GGGGG1111<<;;;-++GGGGGGrte*q$kia7zlVZffcicxgzacgfnelgtcnsbbfblNx",
"GGGGG<1<<<;;--GGGGGGGGG5r7*q$pexca8yxznctfBfbnBnfzdtdcgfiznbzNNx",
"GGGG><<<<;;--+GGGGGGGGG5aq*7%kqtagefxfgaebVlzlsygBfguNNgnbinnnss",
"GGGG><<;;;;--+GGGGGGGGG5*w*##h88cNcfVNfcdlgl8tnBbzbyyysabnwctabd",
"GGGG><<;;;;;-+GGGGGGGGGG$9*:#p8dyeicbcBtyNs8zeBBayuttfnyNfzgdfbb",
"GGGG><<;;;;;-+GGGGGGGGGG%q3G#p0egfbtfVbnxftwiguf7aezqlcbNbc8a8au",
"GGGG><;;;;;;-+GGGGGGGGGG474G4hqyt8yyxnyci0lifefzyibxbqq08zu9ewcN",
"GGGG><;;;;;;-+GGGGGGGGGGG2GGGweucfbzqyeccttftxeteigwztxyetgfyfyy",
"GGGG>;;;;;;;--GGGGGGGGGGGGGGGrqqeqgwwqwagzxfazzatzbcwtaqlaizqfle",
"GGGG>;;;;;;;--OGGGGGGGGGGGGGG8qy0twlqqd8dwzsyytetq0aeftafluetytc",
"GGGG;;;;;;;;-- GGGGGGGGGGGGGG30wtes8etqqe%wzxawlq0equaygcef09*iq",
"GGGGo;;;;;;;-X GGGGGGGGGGGGGG5qaa9*%q9ttq=elw9yaeayqwxywi%t79*qs",
"GGGG.-;;;;;--..GGGGGGGGGGGGGG57e7*0qze*q=e0gqsq990f*wqwyyq*w7ee0",
"GGGGX-ooo-X   .GGGGGGGGGGGGGG5edtee7yqw*wydyeqtqatf0%efa97%0swgy",
"GGGGXX.o-ooo.. GGGGGGGGGGGGGG4=0aw*qew77e70*7ww7wett7q=77==q=q00",
"GGGGX..Xo-XXX..GGGGGGGGGGGGGGG#$qewy7=07q==q==qe$%=wi=%=ew=e*0w%",
"GGGGXooXXXXXX. GGGGGGGGGGGGGGG$$=9%0=000%$$798=t9=t=*q&*%$7%$07e",
"GGGGXoXXXXXXX. GGGGGGGGGGGGGGG#$$$$$9$7=w7$7$&w*&$u97&7w70&q$0%%",
"GGGGXoXXXXXX..OGGGGGGGGGGGGGGG&$&%=%#&&&=#&&=$$=$#q7qw97=$7%$$&9",
"GGGGGXo.XXXX..GGGGGGGGGGGGGGGGGGGGGGGG:::2::::::232:222:3#$$=$$#",
"GGGGGO.XoXXX.OGGGGGGGGGGGGGGGGGGGGGGGGGGGGGGGGGGGGGGGGGGGGGGGGGG",
"GGGGGGGXXXXOGGGGGGGGGGGGGGGGGGGGGGGGGGGGGGGGGGGGGGGGGGGGGGGGGGGG"
};
