/* XPM */
static char *magick[] = {
/* columns rows colors chars-per-pixel */
"64 64 65 1",
"  c #28282a",
". c #2e2e31",
"X c #323235",
"o c #38383b",
"O c #6d256a",
"+ c #693969",
"@ c #55553d",
"# c #66661e",
"$ c #6d6d23",
"% c #737324",
"& c #75752a",
"* c #7b7b25",
"= c #7c7c2c",
"- c #49494a",
"; c Gray35",
": c #7d4d4a",
"> c #7d4d7d",
", c #6d6d58",
"< c Gray40",
"1 c #777777",
"2 c #88584c",
"3 c #986852",
"4 c #a14876",
"5 c #ab7f57",
"6 c Magenta",
"7 c #83832e",
"8 c #8a8a2d",
"9 c #868630",
"0 c #898931",
"q c #8e8e32",
"w c #929233",
"e c #969635",
"r c #989830",
"t c #9a9a36",
"y c #9d9d37",
"u c #9b9b3a",
"i c #9e9e39",
"p c #a5a534",
"a c #a1a139",
"s c #a2a23d",
"d c #a5a53a",
"f c #a6a63d",
"g c #a9a93e",
"h c #acac3c",
"j c #b2b23d",
"k c #b8b83a",
"l c #abab43",
"z c #adad42",
"x c #b2b245",
"c c #b5b54a",
"v c #baba43",
"b c #baba4e",
"n c #bdbd52",
"m c #d0a065",
"M c #c6c644",
"N c #c2c255",
"B c #c6c659",
"V c #caca5d",
"C c #d6d650",
"Z c #d0d062",
"A c #eaea6a",
"S c Gray54",
"D c Gray69",
"F c #e0a0a5",
"G c None",
/* pixels */
"GGGGGGGGGGGGGGGGGGGGGGGGGGGGGGGGGGGGGGGGGGGGGGGGGGGGGGGGGGGGGGGG",
"GGGGGGGGGGGGGGGGGGGGGGGGGGGGGGGGGGGGGGGGGGGGGGGGGGGGGGGGGGGGGGGG",
"GGGGGGGGGGGGGGGGGGGGGGGGGGGGGGGGGGGGGGGGGGGGGGGGGGGGGGGGGGGGGGGG",
"GGGGGGGGGGGGGGGGGGGGGGGGGGGGGGGGGGGGGGGGGGGGGGGGGGGGGGGGGGGGGGGG",
"GGGGGGGGGGGGGGGGGGGGGGGGGGGGGGGGGGGGGGGGGGGGGGGGGGGGGGGGGGGGGGGG",
"GGGGGGGGGGGGGGGGGGGGGGGGGGGGGGGGGGGGGGGGGGGGGGGGGGGGGGGGGGGGGGGG",
"GGGGGGGGGGGGGGGGGGGGGGGGGGGGGGGGGGGGGGGGGGGGGGGGGGGGGGGGGGGGGGGG",
"GGGGGGGGGGGGGGGGGGGGGGGGGGGGGGGGGGGGGGGGGGGGGGGGGGGGGGGGGGGGGGGG",
"htw%25335355232322333534GGGGGGGGGGGGGGGGGGGGGGGGGGGGGGGGGGGGGGGG",
"e0hy9eqw&0w7qt7w&0y0#wgq&tdd89wqhMGGGGGGGGGGGGGGGGGGGGGGGGGGGGGG",
"tt97wyq&9$wtwht79&twq0dd0qwaqj9wjhGGGGGGGGGGGGGGGGGGGGGGGGGGGGGG",
"thgwgw&7==dewyew&=&0=t7ytid0yhtwjMGGGGGGGGGGGGGGGGGGGGGGGGGGGGGG",
"hewwf&9wetdgeqww0dtyddi9dwiqaawqvMGGGGGGGGGGGGGGGGGGGGGGGGGGGGGG",
"w99vvwa9y0wqqd=qnid=0qyq90eawzadvkGGGGGGGGGGGGGGGGGGGGGGGGGGGGGG",
"7awdwtaejejtw9weyjyy0wae0wdaxaq9gMmGGGGGGGGGGGGGGGGGGGGGGGGGGGGG",
"iqq9waede7waedujjehwgiaetd0djvtwvCmGGGGGGGGGGGGGGGGGGGGGGGGGGGGG",
"jegadaw97eght7yeqawdddti0a7ajahxvAmGGGGGGGGGGGGGGGGGGGGGGGGGGGGG",
"wd9yqeiyaqtqeevhdeqq0yqqqffww9wdMCmGGGGGGGGGGGGGGGGGGGGGGGGGGGGG",
"hqyjgh0d07y9yyaaahtdq0aahwetwddvjACGGGGGGGGGGGGGGGGGGGGGGGGGGGGG",
"qfthqdfge7adatdw9ethadqahhwjhwhjMAMGGGGGGGGGGGGGGGGGGGGGGGGGGGGG",
"ttaddhawhwhaq=eeyafejddhdyheyjawjAkGGG3GGGGGGGGGGGGGGGGGGGGGGGGG",
"d00yaqtjyhda09awwaqtwhwffjdjhyyevACFG4eGGGGGGGGGGGGGGGGGGGGGGGGG",
"qadjeqahaveayedhtvdgaehwjiqtwjhdvAMkG:tMGGGGGGGGGGGGGGGGGGGGGGGG",
"9ehejdqywjfgijwtijvahayyjqtyhdyejAMp:#8CGGGGGGGGGGGGGGGGGGGGGGGG",
"watgidzywj0xgaahjwajygtydagtwdhghNrp$$zAFGGGGGGGGGGGGGGGGGGGGGGG",
"tcstfdtaeeezieadhehtjeytwfwwgfajjAMp$$xAmGGGGGGGGGGGGGGGGGGGGGGG",
"hMcdwgvtfwdtiigawtvdjtjtxzwgwfzjjAMj$$wAmGGGGGGGGGGGGGGGGGGGGGGG",
"tznssiizbzixcyeeeabtfctxtxiayaahjvpp$$tCMGGGGGGGGGGGGGGGGGGGGGGG",
"aliwtbfnfefetifaicxygfeicfycclgetsMv$$rCMGGGGGGGGGGGGGGGGGGGGGGG",
"nulwzbbalfNhtfyeeaeaexgcfwebcgtxstMk$%yCkGGGGGGGGGGGGGGGGGGGGGGG",
"zcaxfBxbtfnwgnutfaxitxazcdzzazezewpj$*rCMGGGGGGGGGGGGGGGGGGGGGGG",
"cZNcgneNNbbexggbfsuzibncabaxuciafiMr$*zMjGGGGGGGGGGGGGGGGGGGGGGG",
"xBlcxxzacfNsthnicelrxfbnzccgdeaxgfM*&*skkGGGGGGGGGGGGGGGGGGGGGGG",
"nZNilnbbgxBzBlNffastscdfxVsxxaaigyv$=7lMM>>>GGGGGGGGGGGGGGGGGGGG",
"xZbzBNNVBzsengNVnVbVzffNcnlNbNbnayh%u%cMv,<1<11<GGGGGGGGGGGGGGGG",
"NlcnzBzlnnVznfazgbcBfcNlgnanifdad8r$i*bMp,111111111GGGGGGGGGGGGG",
"BxncVnNgNlzxasgBnszlccZBzbNbcNnzxik*u*fMp,11111SSSS11GGGGGGGGGGG",
"ybaNzaNxNNlanNbBxxVBxNnBgnVzciyyzwp$e*ghk,111111SDDDD11GGGGGGGGG",
"bfnZVBNzBVVnbeagBzczgfsbfybntgbyy7r$w*yMh,11111111SDDDS1GGGGGGGG",
"ZNBVVcbnnZBzNsytgnBxybynzdBZbfBiltk*e*tvj@<<<<<<1111SDDS1GGGGGGG",
"lcnZbBgxnbdBl8xiadzNxNafyglxNsxygep*w*fjr@;;;;;;<<<1111S11GGGGGG",
"ngzNyzzcNftgVzfcyecNZZzdfNnbxNndcep*8*xhh++++--;;;;<<111111GGGGG",
"xNlbfbbsnctglenfgcazgxcicffZVlz7aik$q*etrGGGGGG++-;;;<<1111GGGGG",
"xNNzbnzifgcdtdzfnBnbfBftcnzxy8acxep$q*7r5GGGGGGGGG--;;<<<1<GGGGG",
"ssnnnibngNNugfBgyslzlVbeagfxfegatqk%7*qa5GGGGGGGGG+--;;<<<<>GGGG",
"dbatcwnbasyyybzbBnt8lgldcfNVfcNc88h##*w*5GGGGGGGGG+--;;;;<<>GGGG",
"bbfdgzfNynfttuyaBBez8sNytBcbcieyd8p#:*9$GGGGGGGGGG+-;;;;;<<>GGGG",
"ua8a8cbNbclqzea7fugiwtfxnbVftbfge0p#G3q%GGGGGGGGGG+-;;;;;<<>GGGG",
"Ncwe9uz80qqbxbiyzfefil0icynxyy8tyqh4G474GGGGGGGGGG+-;;;;;;<>GGGG",
"yyfyfgteyxtzwgietextfttcceyqzbfcuewGGG2GGGGGGGGGGG+-;;;;;;<>GGGG",
"elfqzialqatwcbztazzafxzgawqwwgqeqqrGGGGGGGGGGGGGGG--;;;;;;;>GGGG",
"ctyteulfatfea0qtetyyszwd8dqqlwt0yq8GGGGGGGGGGGGGGO--;;;;;;;>GGGG",
"qi*90fecgyauqe0qlwaxzw%eqqte8setw03GGGGGGGGGGGGGG --;;;;;;;;GGGG",
"sq*97t%iwyxwqyaeay9wle=qtt9q%*9aaq5GGGGGGGGGGGGGG X-;;;;;;;oGGGG",
"0ee7w*qyywqw*f099qsqg0e=q*ezq0*7e75GGGGGGGGGGGGGG..--;;;;;-.GGGG",
"ygws0%79afe%0ftaqtqeydyw*wqy7eetde5GGGGGGGGGGGGGG.   X-ooo-XGGGG",
"00q=q==77=q7ttew7ww7*07e77weq*wa0=4GGGGGGGGGGGGGG ..ooo-o.XXGGGG",
"%w0*e=we=%=iw=%$eq==q==q70=7yweq$#GGGGGGGGGGGGGGG..XXX-oX..XGGGG",
"e70$%7$%*&q*=t=9t=897$$%000=0%9=$$GGGGGGGGGGGGGGG .XXXXXXooXGGGG",
"%%0$q&07w7&79u$&*w&$7$7w=7$9$$$$$#GGGGGGGGGGGGGGG .XXXXXXXoXGGGG",
"9&$$%7$=79wq7q#$=$$=&&#=&&&#%=%&$&GGGGGGGGGGGGGGGO..XXXXXXoXGGGG",
"#$$=$$#3:222:232::::::2:::GGGGGGGGGGGGGGGGGGGGGGGG..XXXX.oXGGGGG",
"GGGGGGGGGGGGGGGGGGGGGGGGGGGGGGGGGGGGGGGGGGGGGGGGGGO.XXXoX.OGGGGG",
"GGGGGGGGGGGGGGGGGGGGGGGGGGGGGGGGGGGGGGGGGGGGGGGGGGGGOXXXXGGGGGGG"
};
