/* XPM */
static char *magick[] = {
/* columns rows colors chars-per-pixel */
"64 64 65 1",
"  c #390000",
". c #3a0000",
"X c #3d0000",
"o c #3f0000",
"O c #410000",
"+ c #420000",
"@ c #440000",
"# c #460000",
"$ c #460505",
"% c #490000",
"& c #4d0000",
"* c #4a1516",
"= c #520000",
"- c #550000",
"; c #5a0000",
": c #5e0000",
"> c #571718",
", c #620000",
"< c #660000",
"1 c #690000",
"2 c #6b0000",
"3 c #6d0000",
"4 c #6e0000",
"5 c #6d1516",
"6 c #681a1b",
"7 c #700000",
"8 c #720000",
"9 c #750000",
"0 c #74090a",
"q c #731516",
"w c #75191b",
"e c #7b1516",
"r c #7c1b1d",
"t c #68002f",
"y c #7d1f21",
"u c #762324",
"i c #821617",
"p c #861b1d",
"a c #8f1617",
"s c #961b1c",
"d c #9c1516",
"f c #8a002f",
"g c #861f21",
"h c #9c1f21",
"j c #992325",
"k c #a31516",
"l c #a61a1c",
"z c #ab1516",
"x c #ac1c1d",
"c c #b31617",
"v c #b7191a",
"b c #a51f21",
"n c #a91e20",
"m c #b41e21",
"M c #a92d2f",
"N c #b72728",
"B c #ac4244",
"V c #db1617",
"C c #c43536",
"Z c #d64c4d",
"A c #ec6768",
"S c Magenta",
"D c #d9bfc2",
"F c #e9dce0",
"G c None",
/* pixels */
"GGGGGmmhhhhhhhhhhssDDDDDDFFFFFFFFFFFFFDDDDDBaaaaaai555ive5GGGGGG",
"GGGGGmmhhhhhhhhhhhsssssssBBBBBBBBBBBBBaaaaaaaaaiqq5555ive5GGGGGG",
"GGGGGmmbhhhhhhhhhhhhsssssssssssaaaaaaaaaaaaiqq5555555qive5GGGGGG",
"GGGGGmmhhbbhhhhhhhhhhssssssssssssaaaaaiqqq555555555qqikVe5GGGGGG",
"GGGGGmmgygghhhhhhhhhhhhsssssaaapwww555555qqqqqqqqqqiadzVi5GGGGGG",
"GGGGGmmgyyyyyyyyyyyyrrrrrrwwwwwwwqqqqqqqqqqqqqqeiaadddzVi5GGGGGG",
"GGGGGmmgyyyyyyyyyyrrrrrrrwwwwwwwwwqqqqqqqqqeeaadddddddzVi6GGGGGG",
"GGGGGmmgyyyyyyyyyyyyrrrrrrrrrrreeeeeeeiiiddddkkkkddkkdcVi5GGGGGG",
"GGGGGnmgyyyyyyyyyyyyrrrrrrrrrrriiiadddkkkkkkkkkkkkkkkkcViqGGGGGG",
"GGGGGhbhhhhggggggppppppppsllllkllkkzzzzzzzzzzzkkkkkkkkcViiGGGGGG",
"GGGGGgbbbbbnnnnnnxxxxxxxxxxxxxxzzzzzzzzzzzzzzzzzzkkkkkddd5GGGGGG",
"GGGGGrsbbbbnnnnnnxxxxxxxxxvvcvccccccccccccccczzzzzkkkddda6GGGGGG",
"GGGGGrgbbbbbnnnnxxxxxmmmvvvvvvvvvvvvvvvvvccccczzzkkkddddy>GGGGGG",
"GGGGG0ygbbbbnnnnxxxxxmmvvvvvvvvvvvvvvvvvvvcccczzzkkkddayy$GGGGGG",
"GGGGG7rygsbbnnnnxxxxxxmmvvvvvvvvvvvvvvvvvcccczzzkkkdde>y0+GGGGGG",
"GGGGG70yyghbbbnnnnxxxxxxvvvvvvvvvvvvvvvcccczzzkkkkdde*>r&+GGGGGG",
"GGGGG790yyysbbbbnnnxxxxxxxvvvvvvvvvvvccccczzzkkkddd5***&++GGGGGG",
"GGGGG7990yyyghbbbbnnnxxxxxxxxcccvvvmmmmmxxxllkkddd6***XX++GGGGGG",
"GGGGG79990eyyyysbbbllllxxxxxxxmmNNCCCCCCNNmnnlae>>***XX+++GGGGGG",
"GGGGG799999gyyyryphbblllnnnnNNNCCZZZZZZZZCCNj6******XXXX++GGGGGG",
"GGGGG4999999eryrwwwrssbbnnNNNCCZZAAAAAAAZBM6******* XXXX++GGGGGG",
"GGGGG499999974qgwwwww6wwwjMMCBBZZAAAAZuu6******>    XXX+++GGGGGG",
"GGGGG499999977441wwww6666666u>>>>>u**********$X     XXXX++GGGGGG",
"GGGGG4799999977441<,y6666666>>>>>>>********XXXX     XXXX++GGGGGG",
"GGGGG479999977744111,:;66666>>>>>>>**>*++XXXXXX     XXX+++GGGGGG",
"GGGGG479999777774111<,:;;--==&&%%#+##++++X+XXXX     XXXX++GGGGGG",
"GGGGG479999777744111<,,::;-==&&%%####++++XXXXXX     XXXX++GGGGGG",
"GGGGG47799977744411<<,,::;;-=&&%%##+#++++X++XXX     XXX+++GGGGGG",
"GGGGG47999977744111<<,,::;;--=&&%##++++++XXXXXX     XXXX++GGGGGG",
"GGGGG47779777744141<<,,::;;--=&&%%###++++X+XXXX     XXXX++GGGGGG",
"GGGGG47777997744111<<,,::;;--=&&%%###++++X+XXXX     XXXX++GGGGGG",
"GGGGG47797777444411<<,,::;;--=&&%%#+#++++XXXXXX     XXXX++GGGGGG",
"GGGGG17797777444111<,,::;;;--=&&%%###++++XXXXXX     XXXX++GGGGGG",
"GGGGG47777777444111<,,::;;;--=&&%%#++++++X+XXXX     XXX+++GGGGGG",
"GGGGG17779777444411<,,::;;;--=&&%%###++++XXXXXX     XXXX++GGGGGG",
"GGGGG17777774441111<,,::;;;--=&&%%###++++X++XXX     XXXX++GGGGGG",
"GGGGG1777777444111<<,,::;;;-==&&%%#++++++XXXXXX     XXX+++GGGGGG",
"GGGGG1477777444111<<,,::;;;-==&&%%###++++X+XXXX     XXXX++GGGGGG",
"GGGGG1477777444411<<,,::;;--==&&%%###++++X+XXXX     XXXX++GGGGGG",
"GGGGG4477777444111<<,,::;;--==&&%%#+#++++XXXXXX     XXX+++GGGGGG",
"GGGGG1477774444111<<,,::;;--==&&%%###++++XXXXXX     XXX+++GGGGGG",
"GGGGG1477774441111<<,,::;;--==&&%%###++++XX+XXX     XXXX++GGGGGG",
"GGGGG1447774441411<<,,::;;--==&&%%#+#++++XX+XXX     XXXX++GGGGGG",
"GGGGG1447744441111<,,,::;;--==&&%%##++++++XXXXX     XXX+++GGGGGG",
"GGGGG1444444444111<,,,::;;--==&&%%###++++XX+XXX     XXXX++GGGGGG",
"GGGGG144444441111<<,,:::;;--==&&%%#++++++XX+XXX     XXXX++GGGGGG",
"GGGGG144444441111<<,,:::;;--==&&%%###++++XXXXXX     XXXX++GGGGGG",
"GGGGG144444441111<<,,:::;;--==&&%%###++++X+XXXX     XXXX++GGGGGG",
"GGGGG144444414111<<,,::;;;--==&&%%###++++++XXXX     XXXX++GGGGGG",
"GGGGG144444411111<<,,::;;;--==&&%%###++++XXXXXX     XXX+++GGGGGG",
"GGGGGf14444441111<<,,::;;;--==&&%%#++++++XX+XXX     XXXX+tGGGGGG",
"GGGGGf14444411111<<,,::;;;--==&&%%###++++XX+XXX     XXXX+tGGGGGG",
"GGGGGG14444411111<<,,::;;;--==&&%%#+#++++XX+XXX     XXX++GGGGGGG",
"GGGGGG9444414111<<<,,::;;;--==&&%%##+++++XXXXXX     XXXX=GGGGGGG",
"GGGGGGG144414111<<,,,::;;;--==&&%%###++++X+XXXX     XXXXGGGGGGGG",
"GGGGGGGG44411111<<,,,::;;;--==&&%%###++++X+XXXX     XXXGGGGGGGGG",
"GGGGGGGGG4114111<<,,,::;;;--==&&%%#+#++++XXXXXX     XXGGGGGGGGGG",
"GGGGGGGGGG411111<<,,,::;;;--==&&%%###++++X+XXXX     XGGGGGGGGGGG",
"GGGGGGGGGGG11111<<,,:::;;;--==&&%%##+++++XXXXXX     GGGGGGGGGGGG",
"GGGGGGGGGGGG1111<<,,:::;;;--==&&%%#+#++++X++XXX   #GGGGGGGGGGGGG",
"GGGGGGGGGGGGGG1<<<,,:::;;---==&&%%#+#++++XXXXXX  GGGGGGGGGGGGGGG",
"GGGGGGGGGGGGGGGGf<,,:::;;---==&&%%##+++++X+XXXtGGGGGGGGGGGGGGGGG",
"GGGGGGGGGGGGGGGGGGG,:::;;---==&&%%###++++XXXGGGGGGGGGGGGGGGGGGGG",
"GGGGGGGGGGGGGGGGGGGGG::;;---==&&%%#+#++++XGGGGGGGGGGGGGGGGGGGGGG"
};
