/* XPM */
static char *magick[] = {
/* columns rows colors chars-per-pixel */
"64 64 19 1",
"  c Gray5",
". c #2c2c2c",
"X c #4f5656",
"o c #737575",
"O c #758989",
"+ c #7b8282",
"@ c #848e8e",
"# c #8c9b9b",
"$ c #94a8a8",
"% c #9db5b5",
"& c #9abbbb",
"* c Gray63",
"= c #a5c2c2",
"- c #adcfcf",
"; c #b5dcdc",
": c #bee9e9",
"> c #bfeeee",
", c #c6f6f6",
"< c Gray100",
/* pixels */
"                                                                ",
" ...............................................................",
" .oooooooooooooooooooooooooooooooooooooooooooooooooooooooooooooo",
" .o+++++++++++++++++++++++++++++++++++++++++++++++++++++++++++++",
" .o+@@@@@@@@@@@@@@@@@@@@@@@@@@@@@@@@@@@@@@@@@@@@@@@@@@@@@@@@@@@@",
" .o+@###########################################################",
" .o+@#%%%%%%%%%%%%%%%%%%%%%%%%%%%%%%%%%%%%%%%%%%%%%%%%%%%%%%%%%%",
" .o+@#%%$$$$$$$$$$$$$$$$$$$$$$%                                 ",
" .o+@#%$@+++++++++++++++++++++% XXXXXXXXXXXXXXXXXXXXXXXXXXXXXXXX",
" .o+@#%%%%%%%%%%%%%%%%%%%%%%%%% XXXXXXXXXXXXXXXXXXXXXXXXXXXXXXXX",
" .o+@#%%$$$$$$$$$$$$$$$$$$$$$$% XXXXXXXXXXXXXXXXXXXXXXXX::XXXXXX",
" .o+@#%$#@++++++++++++++++++@@% XXXXXXXXXXXXXXXXXXXXXXXo<*XXXXXX",
" .o+@#%%%%%%%%%%%%%%%%%%%%%%%%% XXXXXXXXXXXXXXXXXXXXXXX%<XXXXXXX",
" .o+@#%$##@@@@@@@@@@@@@@@@@@##% XXXXXXXXXXXXXXo*#XXXXXX<-XXXXXXX",
" .o+@#%%$$##################$$% XXXXXXXXXXXXXX+<;XXXXX@<#XXXXXXX",
" .o+@#%%%%%%%%%%%%%%%%%%%%%%%%% XXXXXXXXXXXXXXo;%XXXXX=<XXXXXXXX",
" .o+@#%$@+oooooooooooooooooo+@% XXXXXXXXXXXXXXXXXXXXXX<=XXXXXXXX",
" .o+@#%%%%$$$$$$$$$$$$$$$$$$$$% XXXXXXXXXXXXXXXXXXXXX#<oXXXXXXXX",
" .o+@#%%%%$$$$$$$$$$%%%%%%%%%%% XXXXXXXXXXXXXXXXXXXXX;<XXXXXXXXX",
" .o+@#%$#+oooooooooooooooooo+@% XXXXXXXXXXXXXXXXXXXXo<*XXXXXXXXX",
" .o+@#%%%%%%%%%%%%%%%%%%%%%%%%% XXXXXXXXXXXXXXo*#XXX*<oXXXXXXXXX",
" .o+@#%%$$########$$$$$$$$$$%%% XXXXXXXXXXXXXX+<;XXX<;XXXXXXXXXX",
" .o+@#%$##@@++++++++++++ooo+#$% XXXXXXXXXXXXXXo;%XXo<#XXXXXXXXXX",
" .o+@#%%%%%%%%%%%%%%%%%%%%%%%%% XXXXXXXXXXXXXXXXXXX=<XXXXXXXXXXX",
" .o+@#%$#@++++++++++++++++++++% XXXXXXXXXXXXXXXXXXX<=XXXXXXXXXXX",
" .o+@#%%$$####################% XXXXXXXXXXXXXXXXXXX+oXXXXXXXXXXX",
" .o+@#%%%%%%%%%%%%%%%%%%%%%%%%% XXXXXXXXXXXXXXXXXXXXXXXXXXXXXXXX",
" .o+@#%%%%$$$$$$$$$$$$$$$$$$$$%                                 ",
" .o+@#%$#@++++++++++++++++++@@%ooooooooooooooooooooooooooooooooo",
" .o+@#%%%%%%%%%%%%%%%%%%%%%%%%%%%%%%%%%%%%%%%%%%%%%%%%%%%%%%%%%%",
" .o+@#%%%%%%%%%%%%%%%%%%%%%%%%%%%%%%%%%%%%%%%%%%%%%%%%%%%%%%%%%%",
" .o+@#%%%%%%%%%%%%%%%%%%%%%%%%%%%%%%%%%%%%%%%%%%%%%%%%%%%%%%%%%%",
" .o+@#%%%%%%%%%%%%%%%%%%%%%%%%%%%%%%%%%%%%%%%%%%%%%%%%%%%%%%%%%%",
" .o+@#%%%%%%%%%%%%%%%%%%%%%%%%%%%%%%%%%%%%%%%%%%%%%%%%%%%%%%%%%%",
" .o+@#%%%%%%%%%%%%%%%%%%%%%%%%%%%%%%%%%%%%%%%%%%%%%%%%%%%%%%%%%%",
" .o+@#%%%%%%%%%%%%%%%%%%%%%%%%%%%%%%%%%%%%%%%%%%%%%%%%%%%%%%%%%%",
" .o+@#%%%%%%%%%%%%%%%%%%%%%%%%%%%%%%%%%%%%%%%%%%%%%%%%%%%%%%%%%%",
" .o+@#%%%%%%%%%%%%%%%%%%%%%%%%%%%%%%%%%%%%%%%%%%%%%%%%%%%%%%%%%%",
" .o+@#%%%%%%%%%%%%%%%%%%%%%%%%%%%%%%%%%%%%%%%%%%%%%%%%%%%%%%%%%%",
" .o+@#%%%%%%%%%%%%%%%%%%%%%%%%%%%%%%%%%%%%%%%%%%%%%%%%%%%%%%%%%%",
" .o+@#%%%%%%%%%%%%%%%%%%%%%%%%%%%%%%%%%%%%%%%%%%%%%%%%%%%%%%%%%%",
" .o+@#%%%%%%%%%%%%%%%%%%%%%%%%%%%%%%%%%%%%%%%%%%%%%%%%%%%%%%%%%%",
" .o+@#%%%%%%%%%%%%%%%%%%%%%%%%%%%%%%%%%%%%%%%%%%%%%%%%%%%%%%%%%%",
" .o+@#%%%%%%%%%%%%%%%%%%%%%%%%%%%%%%%%%%%%%%%%%%%%%%%%%%%%%%%%%%",
" .o+@#%%%%%%%%%%%%%%%%%%%%%%%%%%%%%%%%%%%%%%%%%%%%%%%%%%%%%%%%%%",
" .o+@#%%%%%%%%%%%%%%%%%%%%%%%%%%%%%%%%%%%%%%%%%%%%%%%%%%%%%%%%%%",
" .o+@#%%%%%%%%%%%%%%%%%%%%%%%%%%%%%%%%%%%%%%%%%%%%%%%%%%%%%%%%%%",
" .o+@#%%%%%%%%%%%%%%%%%%%%%%%%%%%%%%%%%%%%%%%%%%%%%%%%%%%%%%%%%%",
" .o+@#%%%%%%%%%%%%%%%%%%%%%%%%%%%%%%%%%%%%%%%%%%%%%%%%%%%%%%%%%%",
" .o+@#%%%%%%%%%%%%%%%%%%%%%%%%%%%%%%%%%%%%%%%%%%%%%%%%%%%%%%%%%%",
" .o+@#%%%%%%%%%%%%%%%%%%%%%%%%%%%%%%%%%%%%%%%%%%%%%%%%%%%%%%%%%%",
" .o+@#%%%%%%%%%%%%%%%%%%%%%%%%%%%%%%%%%%%%%%%%%%%%%%%%%%%%%%%%%%",
" .o+@#%%%%%%%%%%%%%%%%%%%%%%%%%%%%%%%%%%%%%%%%%%%%%%%%%%%%%%%%%%",
" .o+@#%%%%%%%%%%%%%%%%%%%%%%%%%%%%%%%%%%%%%%%%%%%%%%%%%%%%%%%%%%",
" .o+@#%%%%%%%%%%%%%%%%%%%%%%%%%%%%%%%%%%%%%%%%%%%%%%%%%%%%%%%%%%",
" .o+@#%%--------------------------------------------------------",
" .o+@#%%-;;;;;;;;;;;;;;;;;;;;;;;;;;;;;;;;;;;;;;;;;;;;;;;;;;;;;;;",
" .o+@#%%-;::::::::::::::::::::::::::::::::::::::::::::::::::::::",
" .o+@#%%-;:,,,,,,,,,,,,,,,,,,,,,,,,,,,,,,,,,,,,,,,,,,,,,,,,,,,,,",
" .o+@#%%-;:,>>>>>>>>>>>>>>>>>>>>>>>>>>>>>>>>>>>>>>>>>>>>>>>>>>>>",
" .o+@#%%-;:,>&&&&&&&&&&&&&&&&&&&&&&&&&&&&&&&&&&&&&&&&&&&&&&&&&&&",
" .o+@#%%-;:,>&OOO+OOOOOOOOOOOOOOOOOOOOOOOOOOOOOOOOOOOOOOOOOOOOOO",
" .o+@#%%-;:,>&OXXXXXXXXXXXXXXXXXXXXXXXXXXXXXXXXXXXXXXXXXXXXXXXXX",
" .o+@#%%-;:,>&OX                                                "
};
