/* XPM */
static char *magick[] = {
/* columns rows colors chars-per-pixel */
"64 64 18 1",
"  c Gray5",
". c #2c2c2c",
"X c #4f5656",
"o c #737575",
"O c #758989",
"+ c #7b8282",
"@ c #848e8e",
"# c #8c9b9b",
"$ c #94a8a8",
"% c #9db5b5",
"& c #9abbbb",
"* c Gray63",
"= c #a5c2c2",
"- c #adcfcf",
"; c #b5dcdc",
": c #bee9e9",
"> c #bfeeee",
", c #c6f6f6",
/* pixels */
" ooooooooooooooooooooooooooooooooooooooooooo   XO&>,:;-=%$#@+o. ",
" o,,,,,,,,,,,,,,,,,,,,,,,,,,,,,,,,,,,,,,,,,#.  XO&>,:;-=%$#@+o. ",
" o,,,,,,,,,,,,,,,,,,,,,,,,,,,,,,,,,,,,,,,,##.  XO&>,:;-=%$#@+o. ",
" o,,,,,,,,,,,,,,,,,,,,,,,,,,,,,,,,,,,,,,,##..  XO&>,:;-=%$#@+o. ",
" o,,,,,,,,,,,,,,,,,,,,,,,,,,,,,,,,,,,,,,##...  XO&>,:;-=%$#@+o. ",
" o,,,,>>>>>>>>>>>>>>>>>>>>>>>>>>>>>>>>>>#....  XO&>,:;-=%$#@+o. ",
" o,,,,>*********************************.....  XO&>,:;-=%$#@+o. ",
" o,,,,>*********************************.....  XO&>,:;-=%$#@+o. ",
" o,,,,>*********************************.....  XO&>,:;-=%$#@+o. ",
" o,,,,>*********************************.....  XO&>,:;-=%$#@+o. ",
" o,,,,>*********************************.....  XO&>,:;-=%$#@+o. ",
" o,,,,>*********************************.....  XO&>,:;-=%$#@+o. ",
" o,,,,>*********************************.....  XO&>,:;-=%$#@+o. ",
" o,,,,>*********************************.....  XO&>,:;-=%$#@+o. ",
" o,,,,>*********************************.....  XO&>,:;-=%$#@+o. ",
" o,,,,>*********************************.....  XO&>,:;-=%$#@+o. ",
" o,,,,>*********************************.....  XO&>,:;-=%$#@+o. ",
" o,,,,>*********************************.....  XO&>,:;-=%$#@+o. ",
" o,,,,>*********************************.....  XO&>,:;-=%$#@+o. ",
" o,,,,>*********************************.....  XO&>,:;-=%$#@+o. ",
" o,,,,>*********************************.....  XO&>,:;-=%$#@+o. ",
" o,,,,>*********************************.....  XO&>,:;-=%$#@+o. ",
" o,,,,>*********************************.....  XO&>,:;-=%$#@+o. ",
" o,,,,>*********************************.....  XO&>,:;-=%$#@+o. ",
" o,,,,>*********************************.....  XO&>,:;-=%$#@+o. ",
" o,,,,>*********************************.....  XO&>,:;-=%$#@+o. ",
" o,,,,>*********************************.....  XO&>,:;-=%$#@+o. ",
" o,,,,>*********************************.....  XO&>,:;-=%$#@+o. ",
" o,,,,>*********************************.....  XO&>,:;-=%$#@+o. ",
" o,,,,>*********************************.....  XO&>,:;-=%$#@+o. ",
" o,,,,>*********************************.....  XO&>,:;-=%$#@+o. ",
" o,,,,>*********************************.....  XO&>,:;-=%$#@+o. ",
" o,,,,>*********************************.....  XO&>,:;-=%$#@+o. ",
" o,,,,>*********************************.....  XO&>,:;-=%$#@+o. ",
" o,,,,>*********************************.....  XO&>,:;-=%$#@+o. ",
" o,,,,>*********************************.....  XO&>,:;-=%$#@+o. ",
" o,,,,>*********************************.....  XO&>,:;-=%$#@+o. ",
" o,,,,>*********************************.....  XO&>,:;-=%$#@+o. ",
" o,,,,>*********************************.....  XO&>,:;-=%$#@+o. ",
" o,,,,>*********************************.....  XO&>,:;-=%$#@+o. ",
" o,,,,>*********************************.....  XO&>,:;-=%$#@+o. ",
" o,,,,>*********************************.....  XO&>,:;-=%$#@+o. ",
" o,,,,>*********************************.....  XO&>,:;-=%$#@+o. ",
" o,,,,>*********************************.....  XO&>,:;-=%$#@+o. ",
" o,,,,>*********************************.....  XO&>,:;-=%$#@+o. ",
" o,,,,>*********************************.....  XO&>,:;-=%$#@+o. ",
" o,,,,>*********************************.....  XO&>,:;-=%$#@+o. ",
" o,,,,>*********************************.....  XO&>,:;-=%$#@+o. ",
" o,,,,>*********************************.....  XO&>,:;-=%$#@+o. ",
" o,,,,>*********************************.....  XO&>,:;-=%$#@+o. ",
" o,,,,>*********************************.....  XO&>,:;-=%$#@+o. ",
" o,,,,>*********************************.....  XO&>,:;-=%$#@+o. ",
" o,,,,>*********************************.....  XO&>,:;-=%$#@+o. ",
" o,,,,>*********************************.....  XO&>,:;-=%$#@+o. ",
" o,,,,>*********************************.....  XO&>,:;-=%$#@+o. ",
" o,,,,>*********************************.....  XO&>,:;-=%$#@+o. ",
" o,,,,>*********************************.....  XO&>,:;-=%$#@+o. ",
" o,,,,>*********************************.....  XO&>,:;-=%$#@+o. ",
" o,,,,>*********************************.....  XO&>,:;-=%$#@+o. ",
" o,,,##......................................  XO&>,:;-=%$#@+o. ",
" o,###.......................................  XO&>,:;-=%$#@+o. ",
" o##.........................................  XO&>,:;-=%$#@+o. ",
"  ...........................................  XO&>,:;-=%$#@+o. ",
"                                               XO&>,:;-=%$#@+o. "
};
