/* XPM */
static char *magick[] = {
/* columns rows colors chars-per-pixel */
"64 64 62 1",
"  c Gray20",
". c Gray21",
"X c #393939",
"o c #3f3f3f",
"O c #592959",
"+ c #7f1f7f",
"@ c #643464",
"# c #673767",
"$ c #6b3c6b",
"% c #414141",
"& c Gray26",
"* c #434343",
"= c #444444",
"- c Gray27",
"; c #464646",
": c Gray28",
"> c #484848",
", c #494949",
"< c Gray29",
"1 c #4b4b4b",
"2 c #4c4c4c",
"3 c #4e4e4e",
"4 c #515151",
"5 c Gray32",
"6 c #535353",
"7 c Gray34",
"8 c Gray35",
"9 c #5a5a5a",
"0 c #5b5b5b",
"q c Gray36",
"w c #5d5d5d",
"e c Gray37",
"r c #5f5f5f",
"t c #794979",
"y c #606060",
"u c Gray38",
"i c #626262",
"p c Gray39",
"a c #646464",
"s c #686868",
"d c Gray41",
"f c #6a6a6a",
"g c Gray42",
"h c #6c6c6c",
"j c #6d6d6d",
"k c Gray43",
"l c #6f6f6f",
"z c Gray44",
"x c #717171",
"c c #727272",
"v c Gray45",
"b c #747474",
"n c Gray46",
"m c #767676",
"M c #777777",
"N c Gray47",
"B c #797979",
"V c Gray48",
"C c #7b7b7b",
"Z c #7c7c7c",
"A c Magenta",
"S c None",
/* pixels */
"SSSSSSSSSSSSSSSSSSSSSSSSSSSSSSSSSSSSSSSSSSSSSSSSSSSSSSSSSSSSSSSS",
"SSSSSSSSSSSSSSSSSSSSSSSSSSSSSSSSSSSSSSSSSSSSSSSSSSSSSSSSSSSSSSSS",
"SSSSSSSSSSSSSSSSSSSSSSSSSSSSSSSSSSSSSSSSSSSSSSSSSSSSSSSSSSSSSSSS",
"SSSSSSSSSSSSSSSSSSSSSSSSSSSSSSSSSSSSSSSSSSSSSSSSSSSSSSSSSSSSSSSS",
"SSSSSSSSSSSSSSSSSSSSSSSSSSSSSSSSSSSSSSSSSSSSkkSSSSSSSSSSSSSSSSSS",
"SSSSSSSSSSSSSSSSSSSSSSSSSSSSSSSSSSSSSSSSSSkkkkkkSSSSSSSSSSSSSSSS",
"SSSSSSSSSSSSSSSSSSSSSSSSSSSSSSSSSSSSSSSSSkkkkkkkkkSSSSSSSSSSSSSS",
"SSSSSSSSSSSSSSSSSSSSSSSSSSSSSSSSSSSSSSSkkkkkkkkkksksSSSSSSSSSSSS",
"SSSSSSSSSSSSSSSSMMvMSSSSSSSSSSSSSSSSSkkkkkkkkkkkkkgkgSSSSSSSSSSS",
"SSSSSSSSSSSSSSMMMMMvvSSSSSSSSSSSSSSSkvkkkkkkkkkkkgkgkggSSSSSSSSS",
"SSSSSSSSSSSSSMMMMMMMMMvSSSSSSSSSSSvvvkkkkkkkkkkkkggkkskssSSSSSSS",
"SSSSSSSSSSSNNNMMMMMMMvMvMSSSSSSSvvvkkvvkkkkkkkkkkkkkksskssSSSSSS",
"SSSSSSSSSNNNNNMMMMMMMvMvMMvSSSvvvvvvkkkkkkkkkkkkkkggkgssggssSSSS",
"SSSSSSSNNNNNNNNMMMMMMMMvvvvvSkvvvlkvkvvkkkkkkkkkkkgkgkskgkssspSS",
"SSSSSSZZNNNNNNNMMMMMMMvMvvMvvvvvvkvvvvkvkkkkkkkkkkkgkgggggsp1.SS",
"SSSSZNZNNZNNNNNNMMMMMvMMMMvvvvvvvvvkvkvkkkkkkkkkkkkkgkkggp6o ;SS",
"SSZZZNZZNNNNNNNNNMMMMMMMMvvvvvvvvvpvvkvkkkkkkkkkkkkgksksr;  *;*S",
"SSZZZNZNZNZNNNNNMMMMMMvMMvMvvvvvv0.rvvkvkkkkkkkkkkkgkkr2. ;*;*;S",
"SSaaaZZNZNZNNNNNMMMMMMMMMvMvvvv0o  1skvkvkkkkkkkkkkkk2. ;;;*;;;S",
"SSaaaaNZNZNNNNNNMMMMMMMvMvvMvv1  *;.pkkkvkkkkkkkkkk7;  ;;;;;;;;S",
"SSppaaaaNNNNNNNNNMMMMMvvMvvs1o  ;*  6skkksvkkkkkks2X ;;21;;;;;;S",
"SSppppppppNNNNNNNMMMMMMMMv0   ;;    ;pssssskkkkk0; *;76211;;;;;S",
"SSpppppppppNNNNNNMMMMMvMro  ;;      ;6skskksskk; *1pr76211;;;;;S",
"SSpppppppppppNNMNMMMMMkaX ;*        ;;psksksssr ;6spr0621;;;;;;S",
"SSpppppppppppppMMMMMMr6X *;         ;;6sssksksr 1sapr76211;;;1;S",
"SSpppppppppppppppMMkr2 *;6          ;*;pskssssr 1sapr7621;1;1;1S",
"SSpppppppppppppppp62 ;;222          ;*;0ssssks0 1apr066111;1:;1S",
"SSrpprprpprrrprrpp1 *;2121          *;*1skssss7 ;pr076211;1;:11S",
"SSpprppprppprppprp1 *11111          ;*;*0sssss6 ;r0766111::;1:1S",
"SSrprprpprrprprprp1 ;;11;1          *;*;1sssss2 *0766211:1:111$S",
"SSrprrrprrrprrrprr; *;;;;;          ;*;*;0ssss6 ;662211;1;:111SS",
"SSprrpprrpprrpprrp; ;;;;;;          *;*;;1ssss2 ;22211;1;11:11SS",
"SSpprpprprrpprrppr; ;;;;;;          *;*;;*psss1 ;11111;;1111*;1S",
"SSrrrrrprrprrrprrr; ***;;;         ;;*;**;6asp; ;1;;;;;1;1;;111S",
"SSrrrrrrrrrrrrrrrr* ;**;*;         **;*;;**psp; ;;;;;;;;;*1111:S",
"SSrrrrrrrrrrrrrrrr* ******       ;;;;*;**;*6sp; ;;;;;;1;;11;:11S",
"SSrrrrrrrrrrrrrrrr* ******      ;*  *;*;;*;*pr; *;;;;;;1;1:111:S",
"SSrrrrrrrrrrrrrrrr* ;*****    *;    ;*;**;*;6p**;;;;;;;11;11:1:S",
"SSrrrrrrrrrrrrrrrr* ******  ;;      *;*;;*;**0;;;;;;;;;1;1;1::1S",
"SSrrrrrrrrrrrrrrrr* ***** ;;        ;*;**;***6**;;;;;;;;1;1:11;S",
"SSrrrrrrrrrrrrrrrr* **** ;;         *;*;*;*;*;* ;*;;;;;;;111;;;S",
"SS0r0rr0rrrrrrrrrr******;*          ;*;*;*;*;*; *;;;;;;;;;;;;;;S",
"SSrrr00r0rrr0r00r0********          *;*;*;*;*;* ;**;;;;;;;;;;;;S",
"SSr0rr0rrr000rrrrr**;*****          ;*;*;*;*;;* *;;;;;;;;;;;;;;S",
"SSrr0rrrr0rrrr0rrr* ******          ;;*;*;*;*;* ;*;;;;;;;;;;;;;S",
"SS0000r0rrr000rr00* ;*****          ;*;*;*;*;** *;;*;;;;;;;;;;;S",
"SSr00r00r000000r00* ******          *;*;*;*;*;* ;**;*;;;;;;;;;SS",
"SS00r00r00rr0r0r0r* ******          ;*;*;*;*;** ;***;**;;;*;*;SS",
"SS0r00rr0r00r00r00* ******          *;*;*;*;*;* *******;*;;*;*SS",
"SS00rr0000r00r00r0* ******         ;;*;*;*;*;** ;*****;*;*****SS",
"SS0000000r0r0rr000* ;*****         ;*;*;*;*;*;* **************SS",
"SS0000000000000000* ******         *;*;*;*;*;** *************SSS",
"SS0000000000000000o ******         ;*;*;*;*;*;* ;**********SSSSS",
"SS0000000000000000* *o****         *;*;*;*;*;** *********SSSSSSS",
"SS0000000000000000* ;*o***        O#*;*;*;*;*;* *******@SSSSSSSS",
"SSSS00000000000000* *****       OSSSS#;*;*;*;*o***o***SSSSSSSSSS",
"SSSSSt000000000000* **o*       SSSSSSSS;;;*;*;**o***SSSSSSSSSSSS",
"SSSSSSS00000000000o ****     +SSSSSSSSSSS;;*;*o***@SSSSSSSSSSSSS",
"SSSSSSSSS000000000o*oo**   +SSSSSSSSSSSSSS#;**oo@SSSSSSSSSSSSSSS",
"SSSSSSSSSSS0000000*o**** OSSSSSSSSSSSSSSSSSS#;oSSSSSSSSSSSSSSSSS",
"SSSSSSSSSSSSt00000**o***+SSSSSSSSSSSSSSSSSSSSSSSSSSSSSSSSSSSSSSS",
"SSSSSSSSSSSSSS0000o***SSSSSSSSSSSSSSSSSSSSSSSSSSSSSSSSSSSSSSSSSS",
"SSSSSSSSSSSSSSSS07o*@SSSSSSSSSSSSSSSSSSSSSSSSSSSSSSSSSSSSSSSSSSS",
"SSSSSSSSSSSSSSSSS0oSSSSSSSSSSSSSSSSSSSSSSSSSSSSSSSSSSSSSSSSSSSSS"
};
