/* XPM */
static char *magick[] = {
/* columns rows colors chars-per-pixel */
"64 64 63 1",
"  c #3421b6",
". c #3322b9",
"X c #3222ba",
"o c #3222bb",
"O c #3223bb",
"+ c #3322ba",
"@ c #3322bb",
"# c #3323bb",
"$ c #3122bd",
"% c #3123bd",
"& c #3023bf",
"* c #3122be",
"= c #3122bf",
"- c #3123be",
"; c #3123bf",
": c #3222bc",
"> c #3222bd",
", c #3223bc",
"< c #3223bd",
"1 c #3323bc",
"2 c #3223be",
"3 c #3223bf",
"4 c #3124bf",
"5 c #3224bf",
"6 c #3422b9",
"7 c #2f23c2",
"8 c #2f23c3",
"9 c #2f23c4",
"0 c #2f23c5",
"q c #2f24c2",
"w c #2f24c3",
"e c #2d24c7",
"r c #2e24c5",
"t c #2f24c4",
"y c #2f24c5",
"u c #2e24c6",
"i c #2e24c7",
"p c #2e25c7",
"a c #2f24c6",
"s c #2f24c7",
"d c #2f25c6",
"f c #2d24c9",
"g c #2e24c8",
"h c #2e25c8",
"j c #2e26cc",
"k c #3023c0",
"l c #3023c1",
"z c #3122c0",
"x c #3123c0",
"c c #3123c1",
"v c #3023c2",
"b c #3023c3",
"n c #3123c2",
"m c #3023c4",
"M c #3024c0",
"N c #3024c1",
"B c #3124c0",
"V c #3124c1",
"C c #3024c2",
"Z c #3024c3",
"A c #3124c2",
"S c #3024c4",
"D c #3024c5",
/* pixels */
"e,CefeeCkk+,,e,0+k,kC+C,,,,,k,,C4,,e+q6,,,C,k,k,f,kk CSe, kSCCCC",
"eeSeSeefek++ke,,Ck+++k,See,C,kfS+CCC+e+fqSf,kk6e,eC+S,,  ,CCkCCk",
"eeq+C,ffeCS,ekk,4CkkC,,e,,7,+,ek,C,SCk,,CCkk+,kCCCe eSqCeCCCkk,,",
"6qSeCkCkkekfCC+e,S,,,,kCqeekk,Ck,fCe,SS,ekC6,k,+C+k,C k,ekk,SSk,",
"eC,Sekek,,,SSk,kkkSkSk,ekee,,0CkSkCCkfCCCe,Skk,k,,CSkeCk,SC,C,C,",
"q+Ce,eSm++kmeSCkkkkC,+SC,k,Cef,Cf,e7SfekCCCk+kkCS,Cekk,CkCC,C,kk",
"k,CeekkCeeekkeSekkCk,kC,0+e7ke,feCSe,,k4,fkCC,ek,,efq,C,CS,k,C,C",
"q,qkkkSeSkSekk,,,CCkk0Cqkee7,e+eCeC,kkC4eeC+,070S,ke7,+k,e,kCf,C",
"kCeqe+Ce,,ke,kkke1,SSCeeee7qee4Sf,kCCC++,CfkCekkC,CekS,C,,kk,C,,",
"CCCeCSeCf,,kkek,ekkkkeCk,CCk6k,ee,,+S+,,Ckekkk++,C,Ce,mkCeS,e4C,",
"e,CCjkefkCk,0mmSe,kk,kCf+efek,SCkCCe+eeCCe7,Ck,e,k,,,C,4ekSC,,k,",
",,,+Ck,,C,Cee,e,kSekC7C7eekf,ekee0efk,eekk,f,,C,e,6ee,,k,,qCSe+,",
"Ce,k,k++,ekmSC,kkeC,eCe,kk0feCkSfk0,,eq,Ckkk0,C,,kC+7,kSSek,,kkC",
"kCCCk,CSCk,C,k,4Skm,k,0S,eeCe,feCfCSSeqkCe,kSek,S,k+CSkCkkk,,SS,",
"f,fC,,ke0CkkkC,,4kS,kCk,,e07e+0Cm4,ekkS,e6,kkk+,kCq,k,,CfCCk,e,k",
"ekeC,4k,0,k4CkSC+e7,S,,,C,fk,CeekCeeeke,kee4q,6+kkkkkk+kekS4SC7C",
",ke4k0C,CkC0CkS0SeCSS7CC0e4kk,kmkSeS,,,k,k,,,7,k,66,k+kkkfS,CC4k",
"kCkC00e7,C,Ck,SeCeke,CCkfC4mkke,e,Cek,C,keeeeek,k0,k 6eek,kSSke,",
"ke,,S,kCkk,eSkCkCk,Cee,f+,kkkmeS,,,f,k,ekkke,,,q,,C+,kekkS,,qC,q",
"CkeCk,Ckk,4ek7k,k4e66C+,fSS,+,+ ,,f,k,kCkSk,kkeek7k+,4CkCkkmS,k,",
"SCkkkCekmC,kk+f7SCke,eeS,ekkeC,,fSS+S++S,m,k,fkS,Ck,6CkCCe,kk,k,",
"kCeee,kk,,C+,,+kfSqk,,SfefSe0C,+fkSkS,k,,,,mk,,,kqkCkk,0k,,,k,Sk",
"eke,CCkkCC,eC+,,C,Ck+k,f,CekSkeC ,k,kkk+k,,,k,kk,,+kCkk,,kkSee,k",
",SC,kfkk,7,kkSCkkee,CeSC,C,,kSk,C,e,,+m,Ck,,,7,,CC4,kCkkkk,CSk,k",
"ekCCfeSekkC,k,k,,k+,Cq,kC,Cke+ C++kk,k,,4k,,kk,q,kCC,,CCCC+kCS,,",
",qCCk,keCC,k0,Ce+C,,k,S,,k0k7C+SC+,+,kk,+m,kk,CekC,,SC+C,CeCkSkk",
"Ske,kkkkekkk++0kk,k,,kk,CkCSkCk,k,CkCCk+,,+kk07Ck,Sk,,,C+,eC,,kk",
"eS,eek,CSC,e,e+k,kC+,++C,CSSCeS,ekk,k,kk,k0kk7q,kkkkek,C,Ce,,C0+",
"SkkkkeCCek,,,kSkkk,k,,,C0,C,k,e,0k,k+kk,e,kk,,k,,kC74q+,+CS,,e+e",
"kk,kCeSC,,e,ekmkCk+7k+,,ek,,,e,k,,mk7k+kC,,k,k,kkCekk,,++,4+kS,C",
"C,++CCSkC,eCkkSkCe,,kmS,k,eeCkkekCkk,,,Sfkke,k7,7ekk,+kCC+S,C,kk",
"fqkCe,eCSqeeekekkke,CC,q,eek,,fCk+k,,kk0kkk,,eq,S+CC+q,4S,Ck,,kk",
"+qkekqme,kekekek,k,qS,,,qeS,C4CCe,,ekk,,,7f,,0e7,CkCk,,,,4,,,,kk",
"eeCeSkkkf,efek,,Sk,kSSkS,,,k,,4,kCe7,,,kefe,C,S,e,CC,ee,e,C,kkkk",
"ekfkfk,kefeeC+eSkk,k,CkkSSCkqkeekmekkkfkk,,,,CS,Ce,,,ek,C+,Ck,kk",
"+,kf,CkeCk,,,,e,CkkSC,k,kek,7eeCC+f,ek,CCCkkC7eCk+,,kSqfkCkkf,,k",
"qkkSkekkS,kkejk,Ckkkeem,k7Cek+S,Ce++mC,k+ekkkeC0CCCCe,+,CS,+kkkk",
"CS,kkkCSefekk7kC0,C,kkC,kkCeeeeCSekCkS,,S+7S0Ck+Ck,Ckk,eee,S,,,,",
"e,+Ck,ekC,,,kSeCek+,kkCCCff,kC,CekeC,,,kSf,7fCe,k,e,eS,eq,kC,CkC",
"0C,e,,kCkk,feCkkkkCC,kCk,,keeCCC0kkCSCeCCCkkk0kk,eqekCCkekSeCS,,",
"CCkkk,k,C,ekkkCkkkkkSkkk,C,e,S7eCC7+CCk,kqkkkCC,k,e,kkekeSSkkek+",
"k,e4SC0S4kkk,kkkCkk,C,,keeefeeCe,CkC,eCk+,7kkC,,k7kqmC,kSCke,e,C",
"+kCf,Cek+,ekk,Ckk,ke6,kkkem,C,eee+,kCC,Sf,eC,,Ce+C,07e0kkekSfS,k",
"k+CjqSC,Ckk,kf,kkee,eee7k+e,CCq,,k+efCeee,keC+Ce, Ck kC+,ekC,,kk",
"kC,CSqfC,Ck,ekCCmCSkCkCfkfe,ee,Cq0C,k,kSC,7ee,ekkCC,C,,k+k,e,,,S",
"feCkkCf,,,kkSkC6,kkkS,CeS,eCeffmC,ek,See,+k,kCkk,eqkme,e,Ck,e+,C",
",Ck,CCeef,CkkCeCkC,,ke,k,,,CS,SkCkkk,kekeekeSC,k,,eme,Cm,S,Cekk,",
",k4kkk,m04eC,qee7Sk,SkkCef,ef,,kCkkC,C+,Ce,kSkS,67+C,k,,Se,,e,S,",
"kjCfC,,+e,,k0Cf,q,C,e4eeekqC,keeC+mSeek,ee,e,kkSk,,k,m,ek,,keS4S",
"kj+ekCCCkqekCC+eC,eemSekSm,kCS,,m+,k++e,,,k6eq,,S,Ck,,kS,k,,CCkq",
"eSj,kk,CCeCkeeC+k+C,k,f,,kCf,ekkC4,C,k,eS,ee,eCk,mCkS,CkCeC,,k,k",
"Skeej0,eCkC,eCCCCS,,C,,e,eeSSCC4,kkm,k,kee,k,,+,,7,CkCqkk,eeSS7k",
",jCfCeeSqCkC,,+eCS07SCe,SeSeS,6,k,k+keSC,k,Ckq,kk,Ckk+,CCk,0ke,q",
"CSkC,SC,kkCCC7SeSCCek,,ee+fSeC,+S,kk,kkkkSkk,+k0keqk,Ce,,k,,e0,q",
"efeCkCkkCkk,k,kk6e,,C,,e,kCe4k,C,f,,k+S,,+,kk,e,qek4ek6CC0,ek,Sk",
"kC,kkkS,Cqmk7,,+eekekCe,kkk4kCkC+,,kCC+mC,kkkkC,,,Cqe4,CSe4Ckkme",
",k,+kS,k,+,kkee,,,m+,ee,,k7C,fC,km,,kkkk,,k++kkq,k,kk++C,00SeCke",
"e+eCkkC,k,e7kCkemkC,m,+C+CkS,kCk,C,,kk,,,,kekeSkCkCeS,ek,7+C,,0k",
"SCCCkkC,e,kk,,+k+kS,,,f0e,qeCkCe,,eCkkk0k,,kkkeCkk7kk,e,eCkCkkkk",
"kkCkCk,CkemCS,C0C0ekkkkC+,qkkkCk,+CCk+,,0k,Ck,ke00,7kCq,Ce,C k+0",
",,kkC,k,CeS,C,0+k,k,,0,0kC,C7kqCS,,+,++k,C,k,e0,e,+eeCC+,4,,+kS6",
"kCSkCkjkCSSCSCeC77k0C4,kC,,CkCmek,C,,0+,,+0,k0k,,,C0q4,e0,CCqSkS",
"CS,kCfe,,,,Sfkf,C,eC,7+f,ke,ek,,0++0,k,kkk7ek+,,,ee,Ck,+,e4q+++k",
"+7fS,C,fCSSC,  + 0, 0,ef,kekkCSkkk,k,C,k0,,k6,kq4+q77kkC7+,kk++k"
};
