/* XPM */
static char *chair[] = {
/* width height num_colors chars_per_pixel */
"    64    64       64            1",
/* colors */
". c #5d3b16",
"# c #733d0d",
"a c #5f461a",
"b c #7a450d",
"c c #79490a",
"d c #79451b",
"e c #764b1a",
"f c #7b4c1b",
"g c #764715",
"h c #7e5315",
"i c #7f561a",
"j c #7e561d",
"k c #7b521c",
"l c #7f5a1d",
"m c #7c5616",
"n c #7b4c14",
"o c #5f4923",
"p c #7b4c23",
"q c #794824",
"r c #7e5521",
"s c #7c5323",
"t c #7e5a26",
"u c #7e5c23",
"v c #7c5429",
"w c #7e5c2b",
"x c #7f5b32",
"y c #7f622c",
"z c #7f6326",
"A c #7f6333",
"B c #7f6a35",
"C c #7f6a3b",
"D c #7f6f40",
"E c #b86a1a",
"F c #b3761d",
"G c #ad6c18",
"H c #b86a25",
"I c #ad7525",
"J c #b47c24",
"K c #b57c2b",
"L c #b57528",
"M c #b47b34",
"N c #b57837",
"O c #ab6628",
"P c #c26b1c",
"Q c #c26c28",
"R c #c3732b",
"S c #c47a2c",
"T c #c57621",
"U c #c57937",
"V c #c36b37",
"W c #b17138",
"X c #ba7b43",
"Y c #b5822b",
"Z c #b58333",
"0 c #b5833b",
"1 c #b58c3a",
"2 c #c68638",
"3 c #c88529",
"4 c #b58945",
"5 c #b59747",
"6 c #b59c55",
"7 c #c78a44",
"8 c #ca9749",
"9 c None",
/* pixels */
"9999999999999999999999999999999999999999999999999999999999999999",
"99999999999999999999999999999Q9999999999999999999999999999999999",
"9999999999999999999999999993PUEU99999999999999999999999999999999",
"99999999999999999999999999nkg3H7PST99999999999999999999999999999",
"99999999999999999999999999nfnfs2ERU23999999999999999999999999999",
"99999999999999999999999999hnfqerwSPRU329999999999999999999999999",
"99999999999999999999999999knfvgkAvkRQ327779999999999999999999999",
"99999999999999999999999999rinpsfvwerveSSX77399999999999999999999",
"99999999999999999999999999ujnfrnsvrrpfpg7R4IY9999999999999999999",
"99999999999999999999999999zmfckheftrffe#dv00F9999999999999999999",
"99999999999999999999999999yusnkbngftpkfqdqMMM9999999999999999999",
"99999999999999999999999999BBtisgnenttsfddqNZK9999999999999999999",
"99999999999999999999999999uByitkhsdfvxfgdqNY09999999999999999999",
"99999999999999999999999999ryBzwthvfepvsgqq0J19999999999999999999",
"99999999999999999999999999guzBArjsk#dpveqd0Z99999999999999999999",
"99999999999999999999999999pnlyBuurkgpexspq1Y99999999999999999999",
"99999999999999999999999999kcizBBtwikpgvvfO5199999999999999999999",
"99999999999999999999999999mhklzCytjisfqssO4599999999999999999999",
"99999999999999999999999999ulehiyDzAlfpfsvWZ599999999999999999999",
"99999999999999999999999999utkjhlCBxwpptepIK599999999999999999999",
"99999999999999999999999999crjrjjlCBAissgpHK699999999999999999999",
"99999999999999999999999999hfrtltkACBwtked0F199999999999999999999",
"99999999999999999999999999hetrurjryDyyjvgNL199999999999999999999",
"99999999999999999999999999ukkfltisiBBBzvf4ZI99999999999999999999",
"99999999999999999999999999AwmchuitiuCCywjW1F99999999999999999999",
"99999999999999999999999999nytjnituliADAAjN4L99999999999999999999",
"99999999999999999999999999cnzwhrrytrlBDAlL4499999999999999999999",
"999999999999999999999999999cmyukkwwritCCyIZ199999999999999999999",
"999999999999999999999999999ccjyrkgutirxCAIL199999999999999999999",
"9999999999999999999999999bbncbmysfnwiusACMF199999999999999999999",
"99999999999999999999999bcbcdnsctwjhtyitwC0IJ99999999999999999999",
"999999999999999999999bnfbnbnbjnkyuuvAztwx4GF99999999999999999999",
"9999999999999999999f#bhjnbbbgffsrlytvyywt6LG99999999999999999999",
"99999999999999999nbgbbqvsfnbdddkmrtushxBw4I999999999999999999999",
"999999999999999332TTPQPUSgbef#ppprttlsvAwM0999999999999999999999",
"99999999999999T3233LHHPU7RS2USUU27wwuyjiAGY999999999999999999999",
"9999999999999STU223UTRPPUULSR3227X788222MJ1999999999999999999999",
"9999999999999yfT3222LRQQUUT3URS72788887J4J1999999999999999999999",
"9999999999999zwc27USTHRHPSUTSHU2U2888Z1F1J0999999999999999999999",
"9999999999999bkcwh7SRTRPRS32UUU7287MZFKGZ0Y999999999999999999999",
"9999999999999przzCnwSHLHHQ2UQSS3U101FJLONJZ999999999999999999999",
"9999999999999ndfhhitd2XVVS73RQR2N1L0FgsO0Z5999999999999999999999",
"9999999999999jgp.okwAevUHVU2URK4J1OZrfvO40L999999999999999999999",
"9999999999999tkv.oaAyCpvdV787WJ0I499yspO619999999999999999999999",
"9999999999999yjp.oa.9vmzpd7OWXW59999BfqLY59999999999999999999999",
"9999999999999Aug.ooo999iCfdNW4WJ9999AjpLL59999999999999999999999",
"9999999999999kte.aao999exAr00MMI9999lwsMKG9999999999999999999999",
"9999999999999nDra..o999nepw5ZZIL9999hCkXIK9999999999999999999999",
"9999999999999jwj.a..999cnvdLMYZ99999lyuX0K9999999999999999999999",
"9999999999999ziy.oa.999lkvdX4I999999uiAN449999999999999999999999",
"9999999999999nrC.o1Z999yidqW1099999hilCOLZ9999999999999999999999",
"9999999999999iuwjLZ4999BjdsW5199999xhuCIFJ9999999999999999999999",
"9999999999999ynrAWEK999tupvFZ699999hlzt4IJ9999999999999999999999",
"99999999999999htDKJK999bCssFF599999nymt6NI9999999999999999999999",
"99999999999999yxt6NI999hyxdMJF999999hly50L9999999999999999999999",
"99999999999999hmt5MI999uiykXZF9999999yBW999999999999999999999999",
"999999999999999yBWI9999utDs04K9999999999999999999999999999999999",
"9999999999999999r999999hwywN419999999999999999999999999999999999",
"99999999999999999999999ktmBOFZ9999999999999999999999999999999999",
"99999999999999999999999wnrCIFE9999999999999999999999999999999999",
"99999999999999999999999mhwA0IJ9999999999999999999999999999999999",
"99999999999999999999999bztw6MG9999999999999999999999999999999999",
"999999999999999999999999mlw50Y9999999999999999999999999999999999",
"9999999999999999999999999yBJ999999999999999999999999999999999999"
};
