/* XPM */
static char *magick[] = {
/* columns rows colors chars-per-pixel */
"64 64 65 1",
"  c Gray13",
". c #222222",
"X c #232323",
"o c Gray14",
"O c #252525",
"+ c Gray15",
"@ c #272727",
"# c #282828",
"$ c Gray16",
"% c #2a2a2a",
"& c Gray17",
"* c #2c2c2c",
"= c #2d2d2d",
"- c Gray18",
"; c #2f2f2f",
": c Gray19",
"> c #323232",
", c #343434",
"< c #353535",
"1 c Gray21",
"2 c #373737",
"3 c Gray22",
"4 c #393939",
"5 c #3a3a3a",
"6 c Gray23",
"7 c #3c3c3c",
"8 c Gray24",
"9 c #3e3e3e",
"0 c #3f3f3f",
"q c Gray25",
"w c #414141",
"e c Gray26",
"r c #434343",
"t c #444444",
"y c Gray27",
"u c #464646",
"i c Gray28",
"p c #484848",
"a c #494949",
"s c Gray29",
"d c #4b4b4b",
"f c #4c4c4c",
"g c Gray30",
"h c #4e4e4e",
"j c Gray31",
"k c #505050",
"l c #515151",
"z c Gray32",
"x c #535353",
"c c Gray33",
"v c #555555",
"b c #565656",
"n c Gray35",
"m c #5a5a5a",
"M c #606060",
"N c Gray38",
"B c Gray39",
"V c #656565",
"C c #6a6a6a",
"Z c #7c7c7c",
"A c Magenta",
"S c #aaaaaa",
"D c Gray80",
"F c #e4e4e4",
"G c None",
/* pixels */
"GGGGGGGGGGGGGGGGGGG%%%===============GGGGGGGGGGGGGGGGGGGGGGGGGGG",
"GGGGGGGGGG%%%=======================+GGGGGGGGGGGGGGGGGGGGGGGGGGG",
"GGGGGGGGGGl=========================+GGGGGGGGGGGGGGGGGGGGGGGGGGG",
"GGGGGGGGGGl0=================%%%%+%%+GGGGGGGGGGGGGGGGGGGGGGGGGGG",
"GGGGGGGGGGG00========%%%%+%%%%%%%%%%+GGGGGGGGGGGGGGGGGGGGGGGGGGG",
"GGGGGGGGGGG003%%+%%%%%%%%%%%%%%%%%%%+GGGGGGGGGGGGGGGGGGGGGGGGGGG",
"GGGGGGGGGGGt03%%%%%%%%%%%%%%%%%%%%%% +GGGGGGGGGGGGGGGGGGGGGGGGGG",
"GGGGGGGGGGGp03%%%%%%%%%%%%%%%%%%%%%%X+GGGGGGGGGGGGGGGGGGGGGGGGGG",
"GGGGGGGGGGGf03=%%%%%%%%%%%%%%%%%%%%%++GGGGGGGGGGGGGGGGGGGGGGGGGG",
"GGGGGGGGGGGl03=%%%%%%%%%%%%%%%%%%%%%%+GGGGGGGGGGGGGGGGGGGGGGGGGG",
"GGGGGGGGGGGl03,%%%%%%%%%%%%%%%%%%%%%=++GGGGGGGGGGGGGGGGGGGGGGGGG",
"GGGGGGGGGGGG033%%%%%%%%%%%%%%%%%%%%%=++GGGGGGGGGGGGGGGGGGGGGGGGG",
"GGGGGGGGGGGG033+%%%%%%%%%%%%%%%%%%%%%+%%GGGGGGGGGGGGGGGGGGGGGGGG",
"GGGGGGGGGGGGq03%%%%%%%%%%%%%%%%%%%%%%+%%GGGGGGGGGGGGGGGGGGGGGGGG",
"GGGGGGGGGGGlt03%%%%%%%%%%%%%%%%%%%%%%+%%GGGGGGGGGGGGGGGGGGGGGGGG",
"GGGGGGGGGGGq%03=%%%%%%%%%%%%%%%%%%%%%+%+GGGGGGGGGGGGGGGGGGGGGGGG",
"GGGGGGGGGGG3%03=%%%%%%%%%%%%%%%%%%%%%+=+GGGGGGGGGGGGGGGGGGGGGGGG",
"GGGGGGGGGGGq%03:%%%%%%%%%%%%%%%%%%%%% = GGGGGGGGGGGGGGGGGGGGGGGG",
"GGGGGGGGGGGt%=33%%%%%%%%%%%%%%%%%%%%% + GGGGGGGGGGGGGGGGGGGGGGGG",
"GGGGGGGGGGGp==33%%%%%%%%%%%%%%%%%%%%%+++GGGGGGGGGGGGGGGGGGGGGGGG",
"GGGGGGGGGGGf==03+%%%%%%%%%%%%%%%%%%%%%++GGGGGGGGGGGGGGGGGGGGGGGG",
"GGGGGGGGGGGf=+33%%%%%%%%%%%%%%%%%%%%%%+%GGGGGGGGGGGGGGGGGGGGGGGG",
"GGGGGGGGGGGG,+33%%%%%%%%%%%%%%%%%%%%%=+%GGGGGGGGGGGGGGGGGGGGGGGG",
"GGGGGGGGGGGG3%=3=%%%%%%%%%%%%%%%%%%%%%+%%GGGGGGGGGGGGGGGGGGGGGGG",
"GGGGGGGGGGGGq%=3=%%%%%%%%%%%%%%%%%%%%%+%%GGGGGGGGGGGGGGGGGGGGGGG",
"GGGGGGGGGGGGt%=3,%%%%%%%%%%%%%%%%%%%%%+%%GGGGGGGGGGGGGGGGGGGGGGG",
"GGGGGGGGGGGGp==3,%%%%%%%%%%%%%%%%%%%%%+=+GGGGGGGGGGGGGGGGGGGGGGG",
"GGGGGGGGGGGGp==33+%%%%%%%%%%%%%%%%%%%%+=+GGGGGGGGGGGGGGGGGGGGGGG",
"GGGGGGGGGGGGG=+=3%%%%%%%%%%%%%%%%%%%%% = GGGGGGGGGGGGGGGGGGGGGGG",
"GGGGGGGGGGGGG,%=3%%%%%%%%%%%%%%%%%%%%= ++GGGGGGGGGGGGGGGGGGGGGGG",
"GGGGGGGGGGGGG3%=3%%%%%%%%%%%%%%=%++ +  +=GGGGGGGGGGGGGGGGGGGGGGG",
"GGGGGGGGGGGGGq%=3=%%%%%%%=%++     +==%% =%GGGGGGGGGGGGGGGGGGGGGG",
"GGGGGGGGGGGGGt==3:%=%%+     ++==%=======  GGGGGGGGGGGGGGGGGGGGGG",
"GGGGGGGGGGGGGt===,    ++==%+==============GGGGGGGGGGGGGGGGGGGGGG",
"GGGGGGGGGGGGGp=+=+3=%%=================== %GGGGGGGGGGGGGGGGGGGGG",
"GGGGGGGGGGGGGG,=%lV=00000================== GGGGGGGGGGGGGGGGGGGG",
"GGGGGGGGGGGGGGt3lll0=0000000300=============GGGGGGGGGGGGGGGGGGGG",
"GGGGGGGGGGGGGGppllfN=0000000000300300====== %GGGGGGGGGGGGGGGGGGG",
"GGGGGGGGGGGGGGpN%lfl,=000330300330300333033l=+GGGGGGGGGGGGGGGGGG",
"GGGGGGGGGGGGGGGftlffl=000000000030003030303q3=GGGGGGGGGGGGGGGGGG",
"GGGGGGGGGGGGGGGpZ%ffl,=030000330000330q===%%%%%GGGGGGGGGGGGGGGGG",
"GGGGGGGGGGGGGGGGfqfffp=0000300003q===%%%%%%%%%=+GGGGGGGGGGGGGGGG",
"GGGGGGGGGGGGGGGGfmfffm==00000===%%%%%%%%%%%%%%%=GGGGGGGGGGGGGGGG",
"GGGGGGGGGGGGGGGGGmqfffqq===%%%%%%%%%%%%%%%%%%%%%+GGGGGGGGGGGGGGG",
"GGGGGGGGGGGGGGGGGptfff=%%%%%%%%%%%%%%%%%%%%%+++=%GGGGGGGGGGGGGGG",
"GGGGGGGGGGGGGGGGGpD%ff%%%%%%%%%%%%%%%%%+++++  %=%GGGGGGGGGGGGGGG",
"GGGGGGGGGGGGGGGGGGptfp%%%%%%%%%%%%+++++  +GGGGG=%GGGGGGGGGGGGGGG",
"GGGGGGGGGGGGGGGGGGpF%%%%%%%%%+++++  +GfbqGGGGGG=%GGGGGGGGGGGGGGG",
"GGGGGGGGGGGGGGGGG=ql:%%%+++++  +GGGGGGGlf+GGGGG=+GGGGGGGGGGGGGGG",
"GGGGGGGGGGGGGGG+==%p=+++  +GGGGGGGGGGGGGbtGGGGG=+GGGGGGGGGGGGGGG",
"GGGGGGGGGGGGGGGb3=Gt=+GGGGGGGGGGGGGGGGGGll+GGGG=+GGGGGGGGGGGGGGG",
"GGGGGGGGGGGGGGGlf0Gq=+%GGGGGGGGGGGGGGGGGGbp=GGG=+GGGGGGGGGGGGGGG",
"GGGGGGGGGGGGGGGpb+GG=+%GGGGGGGGGGGGGGGGGGfN%GGG=+GGGGGGGGGGGGGGG",
"GGGGGGGGGGGGGGGGbtGG=+%GGGGGGGGGGGGGGGGGGGlf+GG=+GGGGGGGGGGGGGGG",
"GGGGGGGGGGGGGGGGff+G=+%GGGGGGGGGGGGGGGGGGGGmtGG=+GGGGGGGGGGGGGGG",
"GGGGGGGGGGGGGGGGtN,G=+%GGGGGGGGGGGGGGGGGGGGll+G=+GGGGGGGGGGGGGGG",
"GGGGGGGGGGGGGGGGGlp0=%+GGGGGGGGGGGGGGGGGGGGGlt%=+GGGGGGGGGGGGGGG",
"GGGGGGGGGGGGGGGGGpm %%+GGGGGGGGGGGGGGGGGGGGGfZ%= GGGGGGGGGGGGGGG",
"GGGGGGGGGGGGGGGGGGbq=%+GGGGGGGGGGGGGGGGGGGGGGl&% GGGGGGGGGGGGGGG",
"GGGGGGGGGGGGGGGGGGfd=% GGGGGGGGGGGGGGGGGGGGGGf=%+GGGGGGGGGGGGGGG",
"GGGGGGGGGGGGGGGGGGtS=% GGGGGGGGGGGGGGGGGGGGGGGG+GGGGGGGGGGGGGGGG",
"GGGGGGGGGGGGGGGGGGGj=% GGGGGGGGGGGGGGGGGGGGGGGGGGGGGGGGGGGGGGGGG",
"GGGGGGGGGGGGGGGGGGGpq% GGGGGGGGGGGGGGGGGGGGGGGGGGGGGGGGGGGGGGGGG",
"GGGGGGGGGGGGGGGGGGGqC=+GGGGGGGGGGGGGGGGGGGGGGGGGGGGGGGGGGGGGGGGG"
};
