/* XPM */
static char *magick[] = {
/* columns rows colors chars-per-pixel */
"64 64 65 1",
"  c #343434",
". c #373737",
"X c #393939",
"o c Gray23",
"O c #3f3f3f",
"+ c #414141",
"@ c Gray26",
"# c #444444",
"$ c Gray27",
"% c #464646",
"& c Gray28",
"* c #484848",
"= c #494949",
"- c Gray29",
"; c #4b4b4b",
": c Gray30",
"> c #4e4e4e",
", c Gray31",
"< c #505050",
"1 c #515151",
"2 c Gray32",
"3 c Gray33",
"4 c #555555",
"5 c #565656",
"6 c Gray35",
"7 c #5a5a5a",
"8 c Gray36",
"9 c Gray37",
"0 c #606060",
"q c #626262",
"w c #646464",
"e c Gray40",
"r c #676767",
"t c #686868",
"y c Gray41",
"u c #6a6a6a",
"i c Gray42",
"p c #6c6c6c",
"a c Gray43",
"s c #6f6f6f",
"d c Gray44",
"f c #717171",
"g c #727272",
"h c Gray45",
"j c #747474",
"k c Gray46",
"l c #767676",
"z c #777777",
"x c Gray47",
"c c Gray48",
"v c #7b7b7b",
"b c #7c7c7c",
"n c Gray49",
"m c Gray",
"M c Gray50",
"N c Magenta",
"B c #808080",
"V c #818181",
"C c Gray51",
"Z c #838383",
"A c #848484",
"S c #898989",
"D c #979797",
"F c Gray84",
"G c None",
/* pixels */
"GGGGGGGGGGGGGGGGGGGGGGGGGGGGGGGGGGGGGGGGGGGGGGGGGGGGGGGGGGGGGGGG",
"GGGGGGGGGGGGGGGGGGGGGGGG*@O###@GGGGGGGGGGGGGGGGGGGGGGGGGGGGGGGGG",
"GGGGGGGGGGGGGGGGGGGGGG6>@#**23**#GGGGGGGGGGGGGGGGGGGGGGGGGGGGGGG",
"GGGGGGGGGGGGGGGGGGGGG92#*2b*##*9hGGGGGGGGGGGGGGGGGGGGGGGGGGGGGGG",
"GGGGGGGGGGGGGGGGGGGOe3#*h**...o@*2GGGGGGGGGGGGGGGGGGGGGGGGGGGGGG",
"GGGGGGGGGGGGGGGGGGGsq2*e>GGGuueo39GGGGGGGGGGGGGGGGGGGGGGGGGGGGGG",
"GGGGGGGGGGGGGGGGGGxs6*jGGGuuuZZO@3GGGGGGGGGGGGGGGGGGGGGGGGGGGGGG",
"GGGGGGGGGGGGGGGGGGxu@>GGGuuZZZbZ@*2GGGGGGGGGGGGGGGGGGGGGGGGGGGGG",
"GGGGGGGGGGGGGGGGGZDq*>Gss>ZZZZbZ@#>GGGGGGGGGGGGGGGGGGGGGGGGGGGGG",
"GGGGGGGGGGGGGGGGGZF9*2s>bbbbbbbb@@uGGGGGGGGGGGGGGGGGGGGGGGGGGGGG",
"GGGGGGGGGGGGGGGGGZx6*>bbbbbbbbbbO@*GGGGGGGGGGGGGGGGGGGGGGGGGGGGG",
"GGGGGGGGGGGGGGGGGxh9#2xbxbbxbxxxx@*>GGGGGGGGGGGGGGGGGGGGGGGGGGGG",
"GGGGGGGGGGGGGGGGGzh9#*xxxxxbxxxxx@#hGGGGGGGGGGGGGGGGGGGGGGGGGGGG",
"GGGGGGGGGGGGGGGGGGhq#hxxxxxxxxxjj@@3GGGGGGGGGGGGGGGGGGGGGGGGGGGG",
"GGGGGGGGGGGGGGGGGGje@>jxxxxjjjjhjO@*2GGGGGGGGGGGGGGGGGGGGGGGGGGG",
"GGGGGGGGGGGGGGGGGGju3*ojjjjjjjjhhh@**GGGGGGGGGGGGGGGGGGGGGGGGGGG",
"GGGGGGGGGGGGGGGGGGjs6#>jhhjjhhhhhh@#eGGGGGGGGGGGGGGGGGGGGGGGGGGG",
"GGGGGGGGGGGGGGGGGGGs9#uhhhhhhhhhsh@@>GGGGGGGGGGGGGGGGGGGGGGGGGGG",
"GGGGGGGGGGGGGGGGGGGhq@2hshhhhshsssO@*2GGGGGGGGGGGGGGGGGGGGGGGGGG",
"GGGGGGGGGGGGGGGGGGGhe2*ossssssssusO@*>GGGGGGGGGGGGGGGGGGGGGGGGGG",
"GGGGGGGGGGGGGGGGGGGhu6#>sssssiisssu@#9GGGGGGGGGGGGGGGGGGGGGGGGGG",
"GGGGGGGGGGGGGGGGGGGGs6#qssususuuuuu@@>GGGGGGGGGGGGGGGGGGGGGGGGGG",
"GGGGGGGGGGGGGGGGGGGGsq@2uuuuuuuuuuu@@*>GGGGGGGGGGGGGGGGGGGGGGGGG",
"GGGGGGGGGGGGGGGGGGGGhq2*3uuuuuuuuuG@@#3GGGGGGGGGGGGGGGGGGGGGGGGG",
"GGGGGGGGGGGGGGGGGGGGse3#>uuuuuueGGG@@#3GGGGGGGGGGGGGGGGGGGGGGGGG",
"GGGGGGGGGGGGGGGGGGGGGu6#qeeeeeGGGGGO@@*3GGGGGGGGGGGGGGGGGGGGGGGG",
"GGGGGGGGGGGGGGGGGGGGGu9@>eeeGGGGGGGs@@*>GGGGGGGGGGGGGGGGGGGGGGGG",
"GGGGGGGGGGGGGGGGGGGGGsq>*3eGGGGGGxxx@@*3GGGGGGGGGGGGGGGGGGGGGGGG",
"GGGGGGGGGGGGGGGGGGGGGue3#>GGGGGbbxxxh@#2GGGGGGGGGGGGGGGGGGGGGGGG",
"GGGGGGGGGGGGGGGGGGGGGGe6#9GGGGbbbxxxx@@*2GGGGGGGGGGGGGGGGGGGGGGG",
"GGGGGGGGGGGGGGGGGGGGGGu9@*GGAAZZZZZZZ33333GGGGGGGGGGGGGGGGGGGGGG",
"GGGGGGGGGGGGGGGGGGGGGGu9>*3AAAZZZZZ333333333GGGGGGGGGGGGGGGGGGGG",
"GGGGGGGGGGGGGGGGGGGGGGeq3#*AAAZZZ333333333333GGGGGGGGGGGGGGGGGGG",
"GGGGGGGGGGGGGGGGGGGGGGGe3#3AAAZZ333333333333333GGGGGGGGGGGGGGGGG",
"GGGGGGGGGGGGGGGGGGGGGSSe6#*3333333333333333333333GGGGGGGGGGGGGGG",
"GGGGGGGGGGGGGGGGGGGGGxZe92*233333333333333333bbbbbGGGGGGGGGGGGGG",
"GGGGGGGGGGGGGGGGGGGGGxxqq2#*33333333ZbZbbbZbbbbbbb2GGGGGGGGGGGGG",
"GGGGGGGGGGGGGGGGGGGGGxxjq3#AAAAZZZZbZZZbZbbbbbbx222GGGGGGGGGGGGG",
"GGGGGGGGGGGGGGGGGGGGGGjje6jjAAAZZZZZZZZbbbbbbb22,2,GGGGGGGGGGGGG",
"GGGGGGGGGGGGGGGGGGGGGbjue92jjAZZZZZZbZZbZbbb>2>22,GGGGGGGGGGGGGG",
"GGGGGGGGGGGGGGGGGGGGxhe6q92jjjjZZZZZbZbZbb>>>>22GGGGGGGGGGGGGGGG",
"GGGGGGGGGGGGGGGGGGGbje6#.93jjjjjhZbZZZbbb2>>>>GGGGGGGGGGGGGGGGGG",
"GGGGGGGGGGGGGGGGGGoju6#..q6@ohhhhhhZZbb>>>>2>GGGGGGGGGGGGGGGGGGG",
"GGGGGGGGGGGGGGGGGGju6*o.oq9>o.@hhhhhZ>>>>>>>GGGGGGGGGGGGGGGGGGGG",
"GGGGGGGGGGGGGGGGGjs9*ooGjh92O.GGGhhsh>>>>@#>GGGGGGGGGGGGGGGGGGGG",
"GGGGGGGGGGGGGGGGjs0>o.GGhe93O.GGGGhhs>>GO@@*2GGGGGGGGGGGGGGGGGGG",
"GGGGGGGGGGGGGGGjsq2O GGGG6q6@*3GGGGGs>GGo@@**GGGGGGGGGGGGGGGGGGG",
"GGGGGGGGGGGGGGGhe3@.@GGGGG96>#>GGGGGGGGGG@@#*GGGGGGGGGGGGGGGGGGG",
"GGGGGGGGGGGGGGhe6#.oGGGGGGG92#*GGGGGGGGGG@@#*GGGGGGGGGGGGGGGGGGG",
"GGGGGGGGGGGGGhu6*o.GGGGGGGG93@*GGGGGGGGGGO@@*2GGGGGGGGGGGGGGGGGG",
"GGGGGGGGGGGGhu9>o.GGGGGGGGG93@*2GGGGGGGGGq@@*>GGGGGGGGGGGGGGGGGG",
"GGGGGGGGGGGGsq2O.#GGGGGGGGG96>**GGGGGGGGGG@@**GGGGGGGGGGGGGGGGGG",
"GGGGGGGGGGGGq3@..GGGGGGGGGGG62#>GGGGGGGGGG@@#;GGGGGGGGGGGGGGGGGG",
"GGGGGGGGGGGG3#o.GGGGGGGGGGGG93@*GGGGGGGGGGO@@*2GGGGGGGGGGGGGGGGG",
"GGGGGGGGGGGGGG GGGGGGGGGGGGG93**2GGGGGGGGGo@@**GGGGGGGGGGGGGGGGG",
"GGGGGGGGGGGGGGGGGGGGGGGGGGGG66>#*GGGGGGGGGG@@&;GGGGGGGGGGGGGGGGG",
"GGGGGGGGGGGGGGGGGGGGGGGGGGGGG62#*GGGGGGGGGG@@#*GGGGGGGGGGGGGGGGG",
"GGGGGGGGGGGGGGGGGGGGGGGGGGGGG93@*GGGGGGGGGGO@@*GGGGGGGGGGGGGGGGG",
"GGGGGGGGGGGGGGGGGGGGGGGGGGGGG63;#2GGGGGGGGGGGGGGGGGGGGGGGGGGGGGG",
"GGGGGGGGGGGGGGGGGGGGGGGGGGGGG36>#*GGGGGGGGGGGGGGGGGGGGGGGGGGGGGG",
"GGGGGGGGGGGGGGGGGGGGGGGGGGGGGG62@*GGGGGGGGGGGGGGGGGGGGGGGGGGGGGG",
"GGGGGGGGGGGGGGGGGGGGGGGGGGGGGG73@*3GGGGGGGGGGGGGGGGGGGGGGGGGGGGG",
"GGGGGGGGGGGGGGGGGGGGGGGGGGGGGG63*#>GGGGGGGGGGGGGGGGGGGGGGGGGGGGG",
"GGGGGGGGGGGGGGGGGGGGGGGGGGGGGGG3>#*GGGGGGGGGGGGGGGGGGGGGGGGGGGGG"
};
