/* XPM */
static char *magick[] = {
/* columns rows colors chars-per-pixel */
"64 64 63 1",
"  c #35262c",
". c #3c2b32",
"X c #523b44",
"o c #543d46",
"O c #4a443e",
"+ c #4e4842",
"@ c #58564a",
"# c #5c5a4d",
"$ c #5e5c4f",
"% c #5f5d4f",
"& c #5f5d50",
"* c #626052",
"= c #646254",
"- c #6d6b5c",
"; c #787665",
": c #7b7268",
"> c #4f48ff",
", c #514aff",
"< c #554dff",
"1 c #5952ff",
"2 c #5d55ff",
"3 c #645cff",
"4 c #6a61ff",
"5 c #746cff",
"6 c #7c74ff",
"7 c Magenta",
"8 c #878471",
"9 c #939585",
"0 c #9e9a84",
"q c #9e9b85",
"w c #9fa89b",
"e c #a7a48c",
"r c #aeaa92",
"t c #b1ae95",
"y c #b3b097",
"u c #b9b69c",
"i c #aab4a6",
"p c #b7b1a3",
"a c #bfb8a1",
"s c #9189ff",
"d c #a49cff",
"f c #b9b1ff",
"g c #bcc8b8",
"h c #c4b5a5",
"j c #c2bea3",
"k c #c8c4a9",
"l c #cfccb2",
"z c #dad6b9",
"x c #e1ddbd",
"c c #c8d5c4",
"v c #d4cef1",
"b c #d9e7d5",
"n c #e5e1c1",
"m c #eae5c4",
"M c #ede9c9",
"N c #f2edcc",
"B c #f6f1cf",
"V c #f9f4d2",
"C c #faf6d5",
"Z c #e8f6e3",
"A c #fdfeec",
"S c #fffffe",
"D c None",
/* pixels */
"DDDDDDDDDDDDDDDDDDDDDDDDDDDDDDDDDDDDDDDDDDDDDDDDDDDDDDDDDDDDDDDD",
"DDDDDDDDDDDDDDDDDDDDDDDDDDDDDDDDDDDDDDDDDDDDDDDDDDDDDDDDDDDDDDDD",
"DDDDDDDDDDDDDDDDDDDDDDDDDDDDDDDDDDDDDDDDDDDDDDDDDDDDDDDDDDDDDDDD",
"DDDDDDDDDDDDDDDDDDDDDDDDDDDDDDDDDDDDDDDDDDDDDDDDDDDDDDDDDDDDDDDD",
"DDDDDDDDDDDDDDDDDDDDDDDDDDDDDDDDDDDDDDDDDDDDDDDDDDDDDDDDDDDDDDDD",
"DDDDDDDDDDDDDDDDDDDDDDDDDDDDDDDDDDDDDDDDDDDDDDDDDDDDDDDDDDDDDDDD",
"DDDDDDDDDDDDDDDDDDDDDDD8:DDDDDD8000DDDDDDDDDDDDDDDDDDDDDDDDDDDDD",
"DDDDDDDDDDDDDDDDDDDDDD9::::DDD00000000DDDDDDDDDDDDDDDDDDDDDDDDDD",
"DDDDDDDDDDDDDDDDDDDDD9:::::8;00000000000pDDDDDDDDDDDDDDDDDDDDDDD",
"DDDDDDDDDDDDDDDDDDD9:::::-80000000000000000DDDDDDDDDDDDDDDDDDDDD",
"DDDDDDDDDDDDDDDDDD9:::::-;00000000000000000000sDDDDDDDDDDDDDDDDD",
"DDDDDDDDDDDDDDDDD::::::889000000000000000000000eDDDDDDDDDDDDDDDD",
"DDDDDDDDDDDDDDD::::::-;90000000000000000000000euDDDDDDDDDDDDDDDD",
"DDDDDDDDDDDDDD:::::::;90000000000000000000000uueDDDDDDDDDDDDDDDD",
"DDDDDDDDDDDD:::::::-000000000000000000000000ujjhDDDDDDDDDDDDDDDD",
"DDDDDDDDDDD:::::::-000000000000000000000000ajw8hDDDDDDDDDDDDDDDD",
"DDDDDDDDDD--:::::900000000000000000000000ejui28hDDDDDDDDDDDDDDDD",
"DDDDDDDDDDO+--:;90000000000000000000000razgw230hDDDDDDDDDDDDDDDD",
"DDDDDDDDDDOOO@*;8900000000000000000000rbAv5325zfDDDDDDDDDDDDDDDD",
"DDDDDDDDDDOOOO@$$;;000000000000000000rbSZs6426zfDDDDDDDDDDDDDDDD",
"DDDDDDDDDDOOOO+$$$$;;000000000000000ebSSvd6436xfDDDDDDDDDDDDDDDD",
"DDDDDDDDDDOOOO+$$$$$*--8000000000000bSSvfd6436xfDDDDDDDDDDDDDDDD",
"DDDDDDDDDDOOOO+$$$$$$$$=-9000000000mZpfffs6346nfDDDDDDDDDDDDDDDD",
"DDDDDDDDDDOOOO+$$$$$$$$$$**=00000kzn3ddds64346xfDDDDDDDDDDDDDDDD",
"DDDDDDDDDDOOOO+$$$$$$$$$$$$$$-90all1sss6543346xfDDDDDDDDDDDDDDDD",
"DDDDDDDDDDOOOO+$$$$$$$$$$$$$$$$9ki655554333346zfDDDDDDDDDDDDDDDD",
"DDDDDDDDDDoOOO+$$$$$$$$$$$$$$$$0z5233332223346lhDDDDDDDDDDDDDDDD",
"DDDDDDDDDDDOOO+$$$$$$$$$$$$$$$$9l6111111123339jpDDDDDDDDDDDDDDDD",
"DDDDDDDDDDDOOO+$$$$$$$$$$$$$$$$9j5<<<<<112333;hDDDDDDDDDDDDDDDDD",
"DDDDDDDDDDDOOO+$$$$$$$$$$$$$$$$8u4,,<<<112222;hDDDDDDDDDDDDDDDDD",
"DDDDDDDDDDDOOOO@$$$$$$$$$$$$$$$8y4>>,<<<12222;eooo0fvvvv0ooDDDDD",
"DDDDDDDDDDDOOOO@$$$$$$$$$$$$$$$8y4>>,<<<12221;9XX:gbZZZAZi=DDDDD",
"DDDDDDDDDDDOOOO@$$$$$$$$$$$$$$$8t4>>,<<<11111;8.=wgcZZZZbc-DDDDD",
"DDDDDDDDDDDOOOO@$$$$$$$$$$$$$$$8t4>>,<<<11115a8.=9wiggccgw=XDDDD",
"DDDDDDDDDDDOOOO@$$$$$$$$$$$$$$$8t4>>,<<<<114ju8ooo:999999=XXDDDD",
"DDDDDDDDDDD:oOO@$$$$$$$$$$$$$$$8t4>>,,<<<<5pu:ooooooooooooXXDDDD",
"DDDDDDDDDDDDD:o@$$$$$$$$$$$$$$$8t4>>,,<<<5paj ooooooooooooooDDDD",
"DDDDDDDDDDDDDDD-$$$$$$$$$$$$$$$8t4>>,,,<5iurx:-.............oDDD",
"DDDDDDDDDDDDDDD:$$$$$$$$$$$$$$$8t4>>,,5iiuzzMp8             DDDD",
"DDDDDDDDDDDDDDDD:$$$$$$$$$$$$$$8t4>>>4gauzMNMapDDDDDDDDDDDDDDDDD",
"DDDDDDDDDDDDDDDD:$$$$$$$$$$$$$$8t4>>3guulMNBNhhdDDDDDDDDDDDDDDDD",
"DDDDDDDDDDDDDDDD:$$$$$$$$$$$$$$8t4>2lyylMNNBVmhhDDDDDDDDDDDDDDDD",
"DDDDDDDDDDDDDDDD:$$$$$$$$$$$$$$8t43ktykmMMmBVMhhDDDDDDDDDDDDDDDD",
"DDDDDDDDDDDDDDDD:&#$$$$$$$$$$$$8r6ptykmmmxuNVMhhDDDDDDDDDDDDDDDD",
"DDDDDDDDDDDDDDDD:&#$$$$$$$$$$$$8ratrknnmztrNVMhhDDDDDDDDDDDDDDDD",
"DDDDDDDDDDDDDDDD:&$$&&$$$$$$$$$8rrrjxxlue0kBVMhhDDDDDDDDDDDDDDDD",
"DDDDDDDDDDDDDDDD:&$$&&$$$$$$$$$8rrjxze0890nVVMhhDDDDDDDDDDDDDDDD",
"DDDDDDDDDDDDDDDD=&&&&&$$$$##$$$8e8909;;89jMBVMhhDDDDDDDDDDDDDDDD",
"DDDDDDDDDDDDDDD:&&&&&&$$$$####$88-;;;;;8jMBBBMhhDDDDDDDDDDDDDDDD",
"DDDDDDDDDDDDDDD:&&&&&&$$$$###$*---;;;9jaMNNBBz@:DDDDDDDDDDDDDDDD",
"DDDDDDDDDDDDDDD:&&&&&&&$$$###$*=--;=-eaMMNNBBz$:DDDDDDDDDDDDDDDD",
"DDDDDDDDDDDDDDD:&&&&&&&&=---------9rymMMMNBBVCvDDDDDDDDDDDDDDDDD",
"DDDDDDDDDDDDDDD:######$&;8888888888jjjjkkkklllhDDDDDDDDDDDDDDDDD",
"DDDDDDDDDDDDDDD:@@@@@#&=======================:DDDDDDDDDDDDDDDDD",
"DDDDDDDDDDDDDDD:@@@@$=========================:DDDDDDDDDDDDDDDDD",
"DDDDDDDDDDDDDDD:@@$&=========================-DDDDDDDDDDDDDDDDDD",
"DDDDDDDDDDDDDDD:$&===========================:DDDDDDDDDDDDDDDDDD",
"DDDDDDDDDDDDDDD:=============================:DDDDDDDDDDDDDDDDDD",
"DDDDDDDDDDDDDDD:=============================:DDDDDDDDDDDDDDDDDD",
"DDDDDDDDDDDDDDDDDDDDDDDDDDDDDDDDDDDDDDDDDDDDDDDDDDDDDDDDDDDDDDDD",
"DDDDDDDDDDDDDDDDDDDDDDDDDDDDDDDDDDDDDDDDDDDDDDDDDDDDDDDDDDDDDDDD",
"DDDDDDDDDDDDDDDDDDDDDDDDDDDDDDDDDDDDDDDDDDDDDDDDDDDDDDDDDDDDDDDD",
"DDDDDDDDDDDDDDDDDDDDDDDDDDDDDDDDDDDDDDDDDDDDDDDDDDDDDDDDDDDDDDDD",
"DDDDDDDDDDDDDDDDDDDDDDDDDDDDDDDDDDDDDDDDDDDDDDDDDDDDDDDDDDDDDDDD"
};
