/* XPM */
static char *magick[] = {
/* columns rows colors chars-per-pixel */
"64 64 65 1",
"  c #5e605d",
". c #636562",
"X c #656965",
"o c #686b67",
"O c #6a6d6a",
"+ c #6b6d6b",
"@ c #6d716d",
"# c #70736f",
"$ c #727473",
"% c #727672",
"& c #757672",
"* c #757675",
"= c #767676",
"- c #767976",
"; c #777a75",
": c #767a79",
"> c #7a7d7a",
", c #7a7d7b",
"< c #7c7f7d",
"1 c #7d817c",
"2 c #7d817e",
"3 c #7e8280",
"4 c Magenta",
"5 c #81837f",
"6 c #808380",
"7 c #818382",
"8 c #838383",
"9 c #828582",
"0 c #838482",
"q c #848684",
"w c #858985",
"e c #878a86",
"r c #898b86",
"t c #8b8b87",
"y c #8b8b8a",
"u c #8b8d8b",
"i c #8d8f8c",
"p c #989997",
"a c #9fa29c",
"s c #a8aaa7",
"d c #adb4ad",
"f c #b3b7ae",
"g c #b2b6b2",
"h c #b4bab3",
"j c #b5bbb5",
"k c #b6bcb9",
"l c #babbb5",
"z c #babbba",
"x c #babeba",
"c c #bbc1ba",
"v c #bec4bc",
"b c #c6c9c4",
"n c #c5ccc4",
"m c #cccecc",
"M c #c9d0c7",
"N c #cdd2cc",
"B c #d2d4cd",
"V c #d0d5d0",
"C c #d3d4d3",
"Z c #d5dad5",
"A c #d9dad5",
"S c #d9dcd9",
"D c #dae1da",
"F c #e3e6e3",
"G c None",
/* pixels */
"GGGGGGGGGGGGGGGGGGGGGGGGGGGGGGGGGGGGGGGGGGGGGGGGGGGGGGGGGGGGGGGG",
"GGGGGGGGGGGGGGGGGGGGGGGGGGGGGGGGGGGGGGGGGGGGGGGGGGGGGGGGGGGGGGGG",
"GGGGGGGGGGGGGGGGGGGGGGGGGGGGGGGGGGGGGGGGGGGGGGGGGGGGGGGGGGGGGGGG",
"mmmMmMMMmNNVNVN#GGGGGGGGGGGGGGGGGGGGGGGGGGGGGGGGGGGGGGGGGGGGGGGG",
"xccvvbnnnnnMNNNNBVBVCVBGGGGGGGGGGGGGGGGGGGGGGGGGGGGGGGGGGGGGGGGG",
"MMMMMMmMMMMMMbbbbNNNNNVNBVZZZGGGGGGGGGGGGGGGGGGGGGGGGGGGGGGGGGGG",
"mNNNNNVVVVVVBVVVBBBBBBBNVNNVNVZZAGGGGGGGGGGGGGGGGGGGGGGGGGGGGGGG",
"mmNNNNNNVVVNVVCCCCCCCCCCCCBBBBBBAVSS$GGGGGGGGGGGGGGGGGGGGGGGGGGG",
"mNmmmmNNVVVVVVVVCCNCCCZCZCZZZZZVVBBZASSGGGGGGGGGGGGGGGGGGGGGGGGG",
"mmmmmmmmmmNVMNNVVVCCCCCCCCCZZZZSSSSAAASSDSGGGGGGGGGGGGGGGGGGGGGG",
"wwwwwwbwwnnMMmNNNNNNVCVVCCCCZVZZSSSSDSAAASA2GGGGGGGGGGGGGGGGGGGG",
"qqwq07733777007770qqqqVNNVVZZSZSSASASSDSADSSSGGGGGGGGGGGGGGGGGGG",
"832<<<22<<<<3373775777777000MVNVSSSSSSSDSSSASDGGGGGGGGGGGGGGGGGG",
"7<>>>>>>>>>>:>>>:::><<22<2327577qNVZZDSDDDDDASSGGGGGGGGGGGGGGGGG",
"7<<<>>::>>:::::=-:>>>--->>>27777000qwVZSDDDDDDSZGGGGGGGGGGGGGGGG",
"<<<<32>>>>>>>::::>>-:>::>><<22377700+@@#VZSDDDFBxGGGGGGGGGGGGGGG",
"22<<<<>-::::>>>::>>:>>>>><3222233377@@+@##-VSDDSBGGGGGGGGGGGGGGG",
"2<<<<<-:>>--<<><<<<<<>>><>>>>><2<227+@@@@#$--ZDDZGGGGGGGGGGGGGGG",
"37222<<<<<>22322<72237772><<>>>>2<<3o+o++@$$-->BSjGGGGGGGGGGGGGG",
"32<<22222<<<22777337223<22>2<2<<<<<2Xo+++@@$$:>2BvNVGGGGGGGGGGGG",
"<<<<<<<<757727773772332272<><<<<<<<<o+++++@#$$-:>NmVVVGGGGGGGGGG",
"><><2275775077725377732<<<<<<<2<<2<7o++++++@#$-::>vVCCmGGGGGGGGG",
"<275qqq777577571222337777<57575552777o+o+++@#$->zbmNCCCGGGGGGGGG",
"3750q75075750757700q7077707q707770070+@@@@@#>padjvbNVCVvGGGGGGGG",
":>:-->:>><<<<<<22<<<<1<<<<<2<<<><<>--@++@@@>wpasgcnNVCVMGGGGGGGG",
"57277775775777727775755222<22<55222>-:@@@@%-0iasdzbMVCCN GGGGGGG",
"0q7qqqqqq077q7885055777235557727573>>>@##%%%7ypasjvMmCVBmGGGGGGG",
"7775588770q788880707777777777770777><<#$-$%%>wpasgxbNNNNnGGGGGGG",
"77qw77777800q7780778887q787877770772><@$%%-$-wipsdzvbmMNnbGGGGGG",
"777577777qq887q8707q88758777q87007722<2@%%&$=7ypasgxvnnMnvGGGGGG",
"777000008888q77870078007q07000700070222+#%$$$<wpasdffclvvcGGGGGG",
"5755007757870088q0000000800000q000002220@%$$$-5ipaassdhlcvvGGGGG",
"77757777070700770070700000000wwq00702222@$=$$#2rpaadfcjfjllGGGGG",
"500q7700007077757757577000700qq0000772<<+#$#&&-wipsshvvnxclvGGGG",
"xzzzzzljlljjhgfddddddffdfffhhhhhjhgjgfggX@##$#&5ipasjvbnMblvGGGG",
"zlzlllllhhhhhlhhfhhhgjhhhhjjjjjjjfhghgggb@#-#$=2rpasgxbmNnvcGGGG",
"lllllllllllljlllllljjjjlllzkjjjjkjhhjggddo#$$#$>rpasg===MnvjcGGG",
"lzlzxxxxllxlllxxlllzzzzzzlzlzlzjlljljjdddX@#$$$:7-$===###+ocdGGG",
"zzxccxzzclccxzxxzccczzzzzzlzlzkllzzjjjgdd @$$$$===$#@@$$@@++XGGG",
"xccccxxvcccxxxxxcxxzxxxxzzzzzzzzzzzlzjggds+$$$=====@@+@@+o+o++GG",
"xcxccczcxccccxxccccxxxzzzzzzlllllzzzjjxddd+#$-&===$@@@@@..XX+oGG",
"ccccxzccccccxzcczxxzxzczzzkjhhjjkggjhggddd.@-==$==@+++@X. XoX+GG",
"xxxxxzxcxxxzccxxccxzzzzzxxzkkhhhjjhhdggddsn+=&==$@.X.+X  .   X+G",
"xxxxxzxxxxxxxzzxxzzxzlzzzzjzljhhgjkhgggddss+&&=$$#@XXX..X.   XXG",
"<<<<<>><<<><22<<<22222377237377777322223772X=&&$$=&=>-@ X+XX.XGG",
"2<>>><>>>>>>>><<>>><<<>>>>>><<>>>>>>>>><<2o.-&=$&&==$--#$@@@o.GG",
"2252212211<><<<>>>>>>>------=-->:::>>::>>>..===&&&=$$=-%=$$#+.GG",
"qqq05755555773775522235222222<<22<<<<<<<1>..======$=-$$$$$@@oGGG",
"wwwwwqqq50q7qq00007700077070q0000775555555+++====$$$$&#+@@+oGGGG",
"ryyrrwwwwwrwwwqqqqqqqwwqqqwqqqqq00q00000qw@o+=###oo+++@.ooXGGGGG",
"rrryrwrrrwrrwryrrwwwwrwrwwwwwwwrwwwwrrrwwr$o+==jX   .o++..XGGGGG",
"yyyuyyyyyrrruywrwwrrrrwwrrwrrwrtryuurryyyy&o+===-$#%@+o+oXXGGGGG",
"yyyryyyuuuuyyyyrtrrrtrrtrtttttrtrtyyryuuy$$++=-====$@++@++GGGGGG",
"yyuuuuiiiiytyyyrtttttttttttryyyytyyyyyryy$=o+==--=$$##@@@$GGGGGG",
"yyyyuuuuyryyttrrrtrtttttttttuuuuuuuuuuiii=&o===-====$$##&&GGGGGG",
"yttyuyytryrryuuuttttrttyyyyyuuyuuyuuuuuuu=+o=====-=-=$&%&=GGGGGG",
"tttryyiuuyrtrrrrrttyttryyyyuuuuuiiiuuuuuuu++=&=--===-&&&=-GGGGGG",
"rtrwwrrrrrrrrrrwwrttttryyryyyyyyyuuuyyyuuu++&===-==--&==:GGGGGGG",
"GGGGGGGGGGGGGGGGGGGGGGGGGGGGGGGGGGGGGGGGGG++-==--==-&&&--GGGGGGG",
"GGGGGGGGGGGGGGGGGGGGGGGGGGGGGGGGGGGGGGGGGGo+&-====&=&-===GGGGGGG",
"GGGGGGGGGGGGGGGGGGGGGGGGGGGGGGGGGGGGGGGGGGG--=>$$$&&&&---GGGGGGG",
"GGGGGGGGGGGGGGGGGGGGGGGGGGGGGGGGGGGGGGGGGGG$=-%#$$%&&&==-GGGGGGG",
"GGGGGGGGGGGGGGGGGGGGGGGGGGGGGGGGGGGGGGGGGGGGGGGGGGGGGGGGGGGGGGGG",
"GGGGGGGGGGGGGGGGGGGGGGGGGGGGGGGGGGGGGGGGGGGGGGGGGGGGGGGGGGGGGGGG"
};
