/* XPM */
static char *magick[] = {
/* columns rows colors chars-per-pixel */
"64 64 36 1",
"  c Gray0",
". c #290000",
"X c #5a0000",
"o c #8c0000",
"O c Red",
"+ c #ff0808",
"@ c #ff1010",
"# c #ff1919",
"$ c #f72929",
"% c #ff2121",
"& c #f73131",
"* c #f73a3a",
"= c #ef5252",
"- c #ef5a5a",
"; c #f74242",
": c #f74a4a",
"> c #ef6363",
", c #ef6b6b",
"< c #e67b7b",
"1 c #ef7373",
"2 c #dea5a5",
"3 c #deadad",
"4 c #deb5b5",
"5 c #debdbd",
"6 c #e68484",
"7 c #e68c8c",
"8 c #e69494",
"9 c #e69c9c",
"0 c #d6cece",
"q c #dec5c5",
"w c Gray84",
"e c #d6dede",
"r c #cef7f7",
"t c #ceffff",
"y c #d6e6e6",
"u c #d6efef",
/* pixels */
"                                                                ",
" tttttttttttttttttttttttttttttttttttttttttttttttttttttttttttttt ",
" tttttttttttttttttttttttttttttttttttttttttttttttttttttttttttttt ",
" tttttttttttttttttttttttttttttttttttttttttttttttttttttttttttttt ",
" ttu5ttttt;tt;ttttttttt5tt;tttttttttttttttttttttttttttttttt10tt ",
" tt6O5ttttOttOtttttOttt;ttOtttttttttttttttttttttttttttttttt;5tt ",
" tt%>>ttttOttOtttt5O62t6ttOtt0=;2tt6;=0ttttt1;;3tt63;>tt5==%5tt ",
" t0&u@ttttOttOtttteO50tOttOte&eu;58=te3ttttt3tu%etO3t=2e%eu&5tt ",
" t18t=3tttOttOtttttOtttOttOt8;66;62&20tttttt51;@5tOtt6681tt;5tt ",
" t%&;%>tttOttOtttttOtttOttOt6>555et51%6tttt3&0t;5tOtt6666tt;5tt ",
" 0&ttu@tttOttOtttttOuttOttOt5%utt00tt3;tttt61tu&5tOtt663;tt&5tt ",
" 18ttt=3ttOttOttttt6&1tOttOtt2&;&33&;&0ttttu&;=&5tOtt66t>&>%5tt ",
" tttttttttttttttttttttttttttttttttttttttttttttttttttttttttttttt ",
" tttttttttttttttttttttttttttttttttttttttttttttttttttttttttttttt ",
" tttttttttttttttttttttttttttttttttttttttttttttttttttttttttttttt ",
" tttttttttttttttttttttttttttttttttttttttttttttttttttttttttttttt ",
" ttttttttttttttttt;ttttt5ttttttttttttttttttttttt;tttttttttttttt ",
" tttttttttttttOtttOttttt;tttttttttttttttttttttttOtttttttttttttt ",
" t63;>tt5==5t5O62tO3;>tt6tt63;>tt5==6etttt0=;2ttOtt6;=0tt0=;2tt ",
" tO3t=2e%ee%eeO50tO3t=2tOttO3t=2e%eu&5ttte&eu;5tOt8=te3te&eu;5t ",
" tOtt6666tt66tOtttOtt66tOttOtt6681tt;5ttt8;66;6tOt2&20tt8;66;6t ",
" tOtt6666tt66tOtttOtt66tOttOtt6666tt;5ttt6>555etOtt51%6t6>555et ",
" tOtt665;tt;5tOuttOtt66tOttOtt663;tt&5ttt5%utt0tOt0tt3;t5%utt0t ",
" tOtt66t6&&6tt6&1tOtt66tOttOtt66t>&>%5tttt2&;&3tOt3&;&0tt2&;&3t ",
" ttttttttttttttttttttttttttttttttutt%ettttttttttttttttttttttttt ",
" tttttttttttttttttttttttttttttttt%;&2tttttttttttttttttttttttttt ",
" tttttttttttttttttttttttttttttttttttttttttttttttttttttttttttttt ",
" tttttttttttttttttttttttttttttttttttttttttttttttttttttttttttttt ",
" tttttttttttttttt;tttttttttttttttttttttttttttttttttt5tttttttttt ",
" ttttttttttttttttOttttttttttttttttttttttttttttttOttt;ttttttttOt ",
" t63;1u>;5t1;;3ttOtt83t0=;2tt6;=0ttttt1;;3tt6e62O62t6tt6;=0t5O6X",
" tO3t==u0%t3tu%etOt1&ue&eu;58=te3ttttt3tu%etO=65O50tOt8=te3teO5.",
" tOtt66ttOt51;@5tO2&ut8;66;62&20tttttt51;@5tOtttOtttOt2&20tttOt ",
" tOtt66ttO3&0t;5tO%>tt6>555et51%6tttt3&0t;5tOtttOtttOtt51%6ttOt ",
" tOtt66ttO61tu&5tOt;>t5%utt00tt3;tttt61tu&5tOtttOuttOt0tt3;ttOu ",
" tOtt66ttOu&;=&5tOtu&>t2&;&33&;&0ttttu&;=&5tOttt6&1tOt3&;&0tt6&o",
" tttttttttttttttttttttttttttttttttttttttttttttttttttttttttttttt ",
" tttttttttttttttttttttttttttttttttttttttttttttttttttttttttttttt ",
" tttttttttttttttttttttttttttttttttttttttttttttttttttttttttttttt ",
" tttttttttttttttttttttttttttttttttttttttttttttttttttttttttttttt ",
" tttttttttttttttttttttttttttttttttttttttttttttttttttttttttttttt ",
" tttttttttttttttttttttttttttttttttttttttttttttttttttttttttttttt ",
" t5==6et5==5ttttt0=;6tt6e6e1;;3t5666235tt53tttttttttttttttttttt ",
" e%eu&5e%ee%ettte%et8ttO=6e3tu%ee55;13;tt;3tttttttttttttttttttt ",
" 81tt;566tt66ttt81tttttOttt51;@5tt2;tt%ee%ttttttttttttttttttttt ",
" 66tt;566tt66ttt66tttttOtt3&0t;5t0%utt8>18ttttttttttttttttttttt ",
" 3;tt&55;tt;5ttt5%tt0ttOtt61tu&5u&0tttu%%utt25t25t25t25tttttttt ",
" t>&>%5t6&&6ttttt6&;=ttOttu&;=&56@;;1tt>1ttt;6t;6t;6t;6tttttttt ",
" tutt%etttttttttttttttttttttttttttttttt%etttttttttttttttttttttt ",
" t%;&2tttttttttttttttttttttttttttttttt2=ttttttttttttttttttttttt ",
" ttttttttttttttttttttttttttttttttttttttttttttttttte4230rttttttt ",
" tttttttttttttttttttttttttttttttttttttttttttttttte,%O@=qrtttttt ",
" ttttttttttttttttttttttttty390ttttttttttttttttttt<@OOOO-yrrtttt ",
" tttttttttttttttttttttttty&OO-ttttttttttttttttttt&OOOOOOO#<yttt ",
" tttttttttttttttttttttttteOOO;ttttttttttttttttw1$OOOOOOOOOO<utt ",
" ttttttttttttttttttttttttu+OO7tttttttttttttttw-+OOOOOOOOOOO%ett ",
" ttttttttttttttttttttttttt#O+4ttttttttttttttt9#OOOOOOOOOOOOOwtt ",
" ttttttttttttttttttttttttt#OO<ttttttttttttttt7OOOOOOOOOOOOO%ett ",
" ttttttttttttttttttttttttt$OO1ttttttttryyrttt8@OOOOOOOOOOOO6utt ",
" ttttttttttttttttttttttttt$O+8tttttttt7#&5tttq:OOOOOOOOOO+-uttt ",
" ttttttttttttttttttttttttt%O+0tttttttt,++2tttr5=++OOOOOO$9rtttt ",
" ttttttttttttttttttttttttt<$>utttttttt2*=qttttrue000000eyrttttt ",
" tttttttttttttttttttttttttttttttttttttttttttttttttttttttttttttt ",
"                                                                "
};
