/* XPM */
static char *magick[] = {
/* columns rows colors chars-per-pixel */
"64 64 23 1",
"  c #7b7b7b",
". c Gray53",
"X c Gray54",
"o c #8b8b8b",
"O c Gray55",
"+ c #8d8d8d",
"@ c #909090",
"# c Gray57",
"$ c #929292",
"% c #939393",
"& c Gray58",
"* c #959595",
"= c Gray59",
"- c #979797",
"; c Gray62",
": c #a29fa5",
"> c #a4a4a4",
", c Gray69",
"< c #b1b1b1",
"1 c #b2b2b2",
"2 c Gray70",
"3 c #b6b6b6",
"4 c #b9b3be",
/* pixels */
"X32@4444444444444444444444444444444444444444444444444444444444:X",
"X32@4444444444444444444444444444444444444444444444444444444444:X",
"X32@4444444444444444444444444444444444444444444444444444444444:X",
"X32@4444444444444444444444444444444444444444444444444444444444:X",
"X32@4444444444444444444444444444444444444444444444444444444444:X",
"X32@4444444444444444444444444444444444444444444444444444444444:X",
"X32@4444444444444444444444444444444444444444444444444444444444:X",
"X32@4444444444444444444444444444444444444444444444444444444444:X",
"X32@4444444444444444444444444444444444444444444444444444444444:X",
"X32@4444444444444444444444444444444444444444444444444444444444:X",
"X32@4444444444444444444444444444444444444444444444444444444444:X",
"X32@4444444444444444444444444444444444444444444444444444444444:X",
"X32@4444444444444444444444444444444444444444444444444444444444:X",
"O32@4444444444444444444444444444444444444444444444444444444444:X",
"O32@4444444444444444444444444444444444444444444444444444444444:X",
"O32@4444444444444444444444444444444444444444444444444444444444:X",
"O32@4444444444444444444444444444444444444444444444444444444444:X",
"O32&4444444444444444444444444444444444444444444444444444444444:X",
"O32&4444444444444444444444444444444444444444444444444444444444:X",
"O32@4444444444444444444444444444444444444444444444444444444444:X",
"X32&4444444444444444444444444444444444444444444444444444444444:X",
"O32&4444444444444444444444444444444444444444444444444444444444:X",
"O32&4444444444444444444444444444444444444444444444444444444444:X",
"O32&4444444444444444444444444444444444444444444444444444444444:X",
"O32&4444444444444444444444444444444444444444444444444444444444:X",
"O32&4444444444444444444444444444444444444444444444444444444444:X",
"O32&4444444444444444444444444444444444444444444444444444444444:X",
"O32&4444444444444444444444444444444444444444444444444444444444:X",
"O32&4444444444444444444444444444444444444444444444444444444444:X",
"O32&4444444444444444444444444444444444444444444444444444444444:X",
"O32&4444444444444444444444444444444444444444444444444444444444:X",
"O32&4444444444444444444444444444444444444444444444444444444444:X",
"X32@4444444444444444444444444444444444444444444444444444444444:X",
"X32@4444444444444444444444444444444444444444444444444444444444:X",
"X32@4444444444444444444444444444444444444444444444444444444444:X",
"X32@4444444444444444444444444444444444444444444444444444444444:X",
"X32@4444444444444444444444444444444444444444444444444444444444:X",
"X32@4444444444444444444444444444444444444444444444444444444444:X",
"X32@4444444444444444444444444444444444444444444444444444444444:X",
"X32@4444444444444444444444444444444444444444444444444444444444:X",
"X32@4444444444444444444444444444444444444444444444444444444444:X",
"X32@4444444444444444444444444444444444444444444444444444444444:X",
"X32@4444444444444444444444444444444444444444444444444444444444:X",
"O32@4444444444444444444444444444444444444444444444444444444444:X",
"O32@4444444444444444444444444444444444444444444444444444444444:X",
"O32@4444444444444444444444444444444444444444444444444444444444:X",
"O32@4444444444444444444444444444444444444444444444444444444444:X",
"O32&4444444444444444444444444444444444444444444444444444444444:X",
"O32&4444444444444444444444444444444444444444444444444444444444:X",
"O32&4444444444444444444444444444444444444444444444444444444444:X",
"O32@4444444444444444444444444444444444444444444444444444444444:X",
"O32&4444444444444444444444444444444444444444444444444444444444:X",
"O32&4444444444444444444444444444444444444444444444444444444444:X",
"O32&4444444444444444444444444444444444444444444444444444444444:X",
"O32&4444444444444444444444444444444444444444444444444444444444:X",
"O32&4444444444444444444444444444444444444444444444444444444444:X",
"O32&4444444444444444444444444444444444444444444444444444444444:X",
"O32&4444444444444444444444444444444444444444444444444444444444:X",
"O32&4444444444444444444444444444444444444444444444444444444444:X",
"O32&4444444444444444444444444444444444444444444444444444444444:X",
"O32&4444444444444444444444444444444444444444444444444444444444:X",
"O32&4444444444444444444444444444444444444444444444444444444444:X",
"O32&4444444444444444444444444444444444444444444444444444444444:X",
" >;.4444444444444444444444444444444444444444444444444444444444:X"
};
