/* XPM */
static char *magick[] = {
/* columns rows colors chars-per-pixel */
"64 64 64 1",
"  c #000704",
". c #0d1311",
"X c #1c1c1f",
"o c #1e1e22",
"O c #1e3337",
"+ c #202024",
"@ c #212125",
"# c #212126",
"$ c #222226",
"% c #222227",
"& c #232327",
"* c #232328",
"= c #242428",
"- c #242429",
"; c #252529",
": c #25252a",
"> c #26262b",
", c #27272c",
"< c #29292d",
"1 c #2d2d32",
"2 c #313136",
"3 c #333339",
"4 c #35353a",
"5 c #39393e",
"6 c #3a3a42",
"7 c #3b3b44",
"8 c #3e3e42",
"9 c #3c3c45",
"0 c #3d3d46",
"q c #3e3e47",
"w c #3f3f48",
"e c #185556",
"r c #305054",
"t c #216a6d",
"y c #414145",
"u c #41414a",
"i c #43434b",
"p c #49494e",
"a c #4d4d51",
"s c #6b6b6f",
"d c #6d6d71",
"f c #6e6e72",
"g c #707074",
"h c #148b00",
"j c #26ff00",
"k c #19f658",
"l c #6fff58",
"z c #159192",
"x c #10aeac",
"c c #31a0a2",
"v c #10eead",
"b c #11d2d2",
"n c #0de7e7",
"m c #09f7f7",
"M c #16f3f3",
"N c #3cdede",
"B c #2cecec",
"V c #65989b",
"C c #66ff96",
"Z c #55ffff",
"A c Magenta",
"S c #b8b8bd",
"D c Gray100",
"F c None",
/* pixels */
"FFFFX444iiiiiiiwiwiiwiwiiiwiiiww7qq7q7q77q7q7q7q7q7q7q7q661oXXFF",
"FFFFX444iiiiiwwiiwiwwiiiwiiwiiiwq7777q7qq7q7q7qqq7q7qqq7661oXXFF",
"FFFFX444iiiiiwiiwiiwwwwwwwwqqqqwqqqqq7q77qq7677766666666661oXXFF",
"FFFFX444iiiiiiiwiiwwwwwwwwqqqqqqqqqqqq7qqq77777766666666661oXXFF",
"FFFFX443iiiiiwiiiwwwwwwwwqqqqqqqqqqq7q7qq67777766666666666ooXXFF",
"FFFFX443iiiiiiiwiwwwwwwwwqqqqqqqqqq7q7q7q77777766666666666oooXFF",
"FFFFX443iiiiwiwiiwwwwwwwwqqqqqqqqqqq7q7qq67777766666666666oooXFF",
"FFFFX433iiiiiiwiiwwwwwwwwqqqqqqqqqq7q7q7q77777766666666666oooXFF",
"FFFFX4333iiiiiwiiwwwwwwwwqqqqqqqqqq7q7q7q77777766666666666ooXXFF",
"FFFFX4333iiiiiwiwwwwwwwwwqqqqqqqqqq77q7q77777776666666666-oooXFF",
"FFFFX4333iiiiiiwiiwwwwwwwwqqqqqqqqqqq7q77q777777666666666-oooXFF",
"FFFFX4333iiiiwiiiiwwwwwwwwqqqqqqqqqq7q7qqq777777666666666ooooXFF",
"FFFFX4333iiiiiiwiiwwwwwwwwqqqqqqqqqqqqqq7qq77777766666666ooooXFF",
"FFFFXX433<<<<<<<<<<1111111111111111111111112222222111111-oooXXFF",
"FFFFXX433-----------------------------------------------ooooXXFF",
"FFFFXX43333oooooooooooooooooooooooooooooooooooooooooooooooooXXFF",
"FFFFXXXsssssssssssssssssddssssdsSffffffffffgggggggffgfffff+oXXFF",
"FFFFXXXs+++++++++++++++++++++++*f+++++*-----,----------++f+XXXFF",
"FFFFXXXs++D++++++++++++D++++++++f++=--D----,,,,,,,------+f+XXXFF",
"FFFFXXXs++D+++D++++++++D+++++++*f+=+--D--D,,<<<<<,,<-----f-XXXFF",
"FFFFXXXs++D++++++++++++D++++++-+f*+---D-<D<<<<<<<<<,,----f+XXXFF",
"FFFFXXXs++DDD+D++DDDD++DDD++*D++D+DD--D,DDDDDDD11DDDD,-DDf*XXXFF",
"FFFFXXXs++D+D+D+D+++D++D+D+++D++DD--D-D<<DD112D1D111D<D--D-XXXFF",
"FFFFXXXs++D+D+D+D+++D++D+D*-++DDfD--D,D<1DD223D3D211D<DDDD-XXXFF",
"FFFFXXXs++D+D+D+D+++D++D+D++=+DDfD--D,D11DD344D4D322D1D,-g-XXXFF",
"FFFFXXXs++D+D+D++DDDD++D+D*++++Df-DD,<D11D4DDDD55DDDD1<DDD-XXXFF",
"FFFFXXXs++++++++++++D++*+-+++*+=f---,<11245588888554D11<,g-XXXFF",
"FFFFXXXs++++++++DDDD+*++=++-*+-+f---,<123458yiiiDDDD311<,g-XXXFF",
"FFFFXXXs+++++++++++++**+++++--==fzx,,<12458yipppiy85421<,g-XXXFF",
"FFFFXXXs+++++++++++*+++*+=+*+=+-Vne-<<1245yippappi85421<,g-XXXFF",
"FFFFXXXs++++++++++++*++++=++-=+OZme-,<1246yipaaapiy5421<,g-XXXFF",
"FFFFXXXs+++++++++++*+**+=+**+--xZbO+,<1245yipaaapiy5421<,g-XXXFF",
"FFFFXXXs+++++++++++++--++**++*zMZx. .<11358ipaaapi85311<,g-XXXFF",
"FFFFXXXs++++++++*+-+=+++*+==+eBmZkjh .<1246yipppiy6421<<,g-XXXFF",
"FFFFXXXs+++++++++*+=+++*+*+-ObMMZvvvxxtc13468yyy864311<,-g-XXXFF",
"FFFFXXXs++++++++++=++=+*+*--bMmmZMmmmBNc1234566654311<<<-g-oXXFF",
"FFFFXXXs+++++++**++*++-+-+-zMmmmZmmMBBz<<11234443211<<<--g-XXXFF",
"FFFFXXXs+++++++++*++*+**+-=rOekkCkmMBz.,<<111111111<<,,--g-XXXFF",
"FFFFXXXd+++++++*+-*++-*+-++-X hjlvmMz X-,,<<<111<<<,,,---g-XXXFF",
"FFFFXXXd+++++++++++*++*+=-+*+. hCmmz .---,,,<<<<<,,,-----g-XXXFF",
"FFFFXXXs++++++*+-+++=+*-=+=**+..Zmz .----,-<<,,<,<-,-----g-XXXFF",
"FFFFXXXs++++++++-+=++**+-+-*--+xZneo*---,-,--,----,-,----g-XXXFF",
"FFFFXXXs+++++++*++==+++-+-***-tnZe-------,-,,-,-,--,-----g-XXXFF",
"FFFFXXXs++++++*+=++++*+==+***,bnV---------,--,-,-,,,-----g-XXXFF",
"FFFFXXXs+++++++++++=-*+--=***zNeg--------,,-,-,-,-,------g-XXXFF",
"FFFFXXXs++++++**==+++**++=+-ONr-g--------,-,-,-,-,-,-----g-XXXFF",
"FFFFXXXs++++++*++=+-+++-=++-Vp--g----------,,-,-,-,------g-XXXFF",
"FFFFXXXs+++++++++++-+**+-+-ir*--g------------,-,---------g-XXXFF",
"FFFFXXXs+++++++++*++*++*++-***--f------------------------g-XXXFF",
"FFFFXXXs+++++++++*+**+**-=-+***-f------------------------g-XXXFF",
"FFFFXXXs++++++++*++++++++=+-=**-f------------------------g-XXXFF",
"FFFFXXXs++++++++++**+--*+=+=+***f------------------------g-XXXFF",
"FFFFXXXs+++++++++*++=++-**-+-+--f------------------------f-XXXFF",
"FFFFXXXs+++++++++*+*++=+*+*+=-+-f*-----------------------f-XXXFF",
"FFFFXXXs+++++++++++++=-++-**+=++f***---------------------f*XXXFF",
"FFFFXXXs++++++++++*+=+++++*++--=f*****-----------------**f*XXXFF",
"FFFFXXXs+++++++++++++*+*+-+*+*&*f+--****-------------****f-XXXFF",
"FFFFXXXs++++++++++++++++++++*+&*f++-+-******************+f+XXXFF",
"FFFFFXXs+o++++++++++*+++-++++*++f+-+-++-*************++-+f-XXFFF",
"FFFFFXX+dddsssssssssdfffffffffffSfffffffffffffffffffffffff+oXFFF",
"FFFFFXX++++++++++++++++++*++&+&++**++**+&&&&&&&&+=+--+-=+*+XXFFF",
"FFFFFFX++++++++++++++++++++-+&+&++*+*++*+&&&&+&&+-+=+++***+XFFFF",
"FFFFFFFFFFFFFFFFFFFFFFFFFFFFFFFFFFFFFFFFFFFFFFFFFFFFFFFFFFFFFFFF",
"FFFFFFFFFFFFFFFFFFFFFFFFFFFFFFFFFFFFFFFFFFFFFFFFFFFFFFFFFFFFFFFF"
};
