/* XPM */
static char *magick[] = {
/* columns rows colors chars-per-pixel */
"64 64 16 1",
"  c #1c1c1f",
". c #1e1e22",
"X c #25252a",
"o c #2d2d32",
"O c #333339",
"+ c #35353a",
"@ c #3a3a42",
"# c #3b3b44",
"$ c #3c3c45",
"% c #3d3d46",
"& c #3e3e47",
"* c #3f3f48",
"= c #41414a",
"- c #43434b",
"; c Magenta",
": c None",
/* pixels */
"::::::::::::::::::::::::::::::::::::::::::::::::::::::::::::::::",
"::::::::::::::::::::::::::::::::::::::::::::::::::::::::::::::::",
"::::::::::::::::::::::::::::::::::::::::::::::::::::::::::::::::",
"::::::::::::::::::::::::::::::::::::::::::::::::::::::::::::::::",
"::::::::::::::::::::::::::::::::::::::::::::::::::::::::::::::::",
"::::::::::::::::::::::::::::::::::::::::::::::::::::::::::::::::",
"::::::::::::::::::::::::::::::::::::::::::::::::::::::::::::::::",
"::::::::::::::::::::::::::::::::::::::::::::::::::::::::::::::::",
"::::::::::::::::::::::::::::::::::::::::::::::::::::::::::::::::",
"::::::::::::::::::::::::::::::::::::::::::::::::::::::::::::::::",
"::::::::::::::::::::::::::::::::::::::::::::::::::::::::::::::::",
"::::::::::::::::::::::::::::::::::::::::::::::::::::::::::::::::",
"::::::::::::::::::::::::::::::::::::::::::::::::::::::::::::::::",
"::::::::::::::::::::::::::::::::::::::::::::::::::::::::::::::::",
"::::::::::::::::::::::::::::::::::::::::::::::::::::::::::::::::",
"::::::::::::::::::::::::::::::::::::::::::::::::::::::::::::::::",
"::::::::::::::::::::::::::::::::::::::::::::::::::::::::::::::::",
"::::::::::::::::::::::::::::::::::::::::::::::::::::::::::::::::",
"::::::::::::::::::::::::::::::::::::::::::::::::::::::::::::::::",
"::::::::::::::::::::::::::::::::::::::::::::::::::::::::::::::::",
":::::::::------*---********&&&&&&&&&&#&#&&#######@@@@@@@@:::::::",
":::::::+-----*----********&&&&&&&&&&&##&&#######@@@@@@@@@oo:::::",
"::::::+O-------**-*******&&&&&&&&&&&#&#&&######@@@@@@@@@@@..::::",
":::::++O----*--*-********&&&&&&&&&&#&#&#&######@@@@@@@@@@@...:::",
":::::++O-----*--*********&&&&&&&&&&##&#&&@#####@@@@@@@@@@@...:::",
":::::+OO-----**--********&&&&&&&&&&&&#&#&######@@@@@@@@@@@...:::",
"::::++OO---------********&&&&&&&&&&##&#&&@#####@@@@@@@@@@@....::",
":::: +OO----*-**-********&&&&&&&&&&&&#&#&######@@@@@@@@@@X... ::",
":::: +OO--------*-********&&&&&&&&&&#&#&#&@#####@@@@@@@@@X... ::",
":::: +OO------*-*-********&&&&&&&&&&&#&#&#######@@@@@@@@@.... ::",
":::: +OO------**--********&&&&&&&&&&&&#&#&&######@@@@@@@@.... ::",
":::: +++--------*-********&&&&&&&&&&##&#&&######@@@@@@@@@@o.  ::",
":::: ++O-------*--*******&&&&&&&&&&&#&#&&@#####@@@@@@@@@@@..  ::",
":::: ++O----*-*--********&&&&&&&&&&#&#&#&######@@@@@@@@@@@... ::",
":::: ++O------*--********&&&&&&&&&&##&#&&@#####@@@@@@@@@@@... ::",
":::: +++-----*---*-********&&&&*&&&&&#&##&&######@@@@@@@@@o.  ::",
":::: +++-------*-*********&&&&&&&&&&&#&#&#######@@@@@@@@@@o.  ::",
":::: ++O------*-*-*******&&&&&&&&&&##&#&&######@@@@@@@@@@@..  ::",
":::: ++O-----**--********&&&&&&&&&&#&#&#&@#####@@@@@@@@@@@... ::",
":::: ++O-----*---********&&&&&&&&&&&#&#&&######@@@@@@@@@@@... ::",
":::: +++-------**--********&&&&*&&&&&#&#&#&@#####@@@@@@@@@o.  ::",
":::: +++-------**-********&&&&&&&&&&&##&#&######@@@@@@@@@@o.  ::",
":::: ++O-----*----*******&&&&&&&&&&&#&#&&######@@@@@@@@@@@..  ::",
":::: ++O-------**********&&&&&&&&&&#&#&#&######@@@@@@@@@@@... ::",
":::: ++O----*--**********&&&&&&&&&&##&#&#######@@@@@@@@@@@... ::",
":::: ++O-----*---********&&&&&&&&&&&&#&#&#####@@@@@@@@@@@@... ::",
":::: +++--*---*--*------*--*---*&#&##&#&&#&#&&#&#&&&#&#&@@o.  ::",
":::: +++-----*-*--*-**----*--*-*#&#&&#&##&#&&#&#&#&#&#&&@@o.  ::",
":::: +++--------*--********&&&&*&&&&&&#&#&&#####@@@@@@@@@@o.  ::",
":::: +++-------*--********&&&&&&&&&&##&#&&######@@@@@@@@@@o.  ::",
":::: ++O-------*-********&&&&&&&&&&#&##&#######@@@@@@@@@@@..  ::",
":::: ++O----*-*--********&&&&&&&&&&&#&&#&######@@@@@@@@@@@... ::",
":::: ++O-----*---********&&&&&&&&&&##&#&&@#####@@@@@@@@@@@... ::",
":::: +++-------*-**********&&&&*&&&&&&&##&&######@@@@@@@@@o.  ::",
":::: +++------*---********&&&&&&&&&&&#&#&&######@@@@@@@@@@o.  ::",
":::: ++O------*---*******&&&&&&&&&&##&#&#######@@@@@@@@@@@..  ::",
":::: ++O-------*-********&&&&&&&&&&&#&#&#######@@@@@@@@@@@... ::",
":::: ++O-----**-*********&&&&&&&&&&#&#&#&######@@@@@@@@@@@... ::",
":::: +++-----*--*------**------*###&#&#&&#&&&&&&#&#&#&&&@@o.  ::",
":::: +++-------*--*********&&&&*&&&&&#&##&####@#@@@@@@@@@@o.  ::",
":::: +++------*-*-********&&&&&&&&&&&#&#&#######@@@@@@@@@@o.  ::",
":::: ++O------*---*******&&&&&&&&&&##&#&&######@@@@@@@@@@@..  ::",
":::: ++O-------*-********&&&&&&&&&&#&#&#&@#####@@@@@@@@@@@... ::",
":::: ++O----**---********&&&&&&&&&&&#&#&&######@@@@@@@@@@@... ::"
};
