/* XPM */
static char *magick[] = {
/* columns rows colors chars-per-pixel */
"64 64 65 1",
"  c Gray0",
". c #270300",
"X c #3a0700",
"o c #282a54",
"O c #363973",
"+ c #450901",
"@ c #4c0c00",
"# c #471301",
"$ c #550c00",
"% c #541300",
"& c #5c1300",
"* c #5b1901",
"= c #542707",
"- c #671301",
"; c #641b00",
": c #6c1c00",
"> c #731b00",
", c #781900",
"< c #6b2500",
"1 c #742600",
"2 c #7b2400",
"3 c #7d2b00",
"4 c #73360d",
"5 c #793503",
"6 c #464993",
"7 c #5457b0",
"8 c #6c71d5",
"9 c #842400",
"0 c #842c00",
"q c #892001",
"w c #8b2c00",
"e c #843401",
"r c #863b04",
"t c #8d3300",
"y c #8c3b02",
"u c #972900",
"i c #963600",
"p c #9c3b00",
"a c #ae2b0f",
"s c #a33800",
"d c #8c4203",
"f c #8a4809",
"g c #974604",
"h c #914f10",
"j c #975818",
"k c #9a7234",
"l c #a64602",
"z c #a34c02",
"x c #a85608",
"c c #a95a12",
"v c #ae6617",
"b c #b17226",
"n c #9b4746",
"m c #d7341a",
"M c Magenta",
"N c #b7893d",
"B c #a5aafc",
"V c #fbafa0",
"C c #ffd1bc",
"Z c #cfd4ff",
"A c #e7e7e7",
"S c #ecf1ff",
"D c #fbf7f2",
"F c Gray100",
"G c None",
/* pixels */
"GGGGGGGGGGGGGGGGGGGGGGGGGGGGGGGGGGGGGGGGGGGGGGGGGGGGGGGGGGGGGGGG",
"GGGGGGGGGGGGGGGGGGGGGGGGGGGGGGGGGGGGGGGGGGGGGGGGGGGGGGGGGGGGGGGG",
"GGGGGGGGGGGGGGGGGGGGGGGGGGGGGGGGGGGGGGGGGGGGGGGGGGGGGGGGGGGGGGGG",
"GGGGGGGGGGGGGGGGGGGGGGGGGGGGGGGGGGGGGGGGGGGGGGGGGGGGGGGGGGGGGGGG",
"GGGGGGGGGGGGGGGGGGGGGGGGGGGGGGGGGGGGGGGGGGGGGGGGGGGGGGGGGGGGGGGG",
"GGGGGGGGGGGGGGGGGGGGGGGGGGGGGGGGGGGGGGGGGGGGGGGGGGGGGGGGGGGGGGGG",
"GGGGGGGGGGGGGGGGGGGGGGGGGGGGGGGGGGGGGGGGGGGGGGGGGGGGGGGGGGGGGGGG",
"GGGGGGGGGGGGGGGGGGGGGGGGGGGGGGGGGGGGGGGGaGGGGGGGGGGGGGGGGGGGGGGG",
"GGGGGGGGGGGGGGGGGGGGGGGGGGGGGGGGGGGGGGG=XGGGGGGGGGGGGGGGGGGGGGGG",
"GGGGGGGGGGGGGGGGGGGGGGGGGGGGGGGGGGGGGGG@,GGGGGGGGGGGGGGGGGGGGGGG",
"GGGGGGGGGGGGGGGGGGGGGGGGGGGGGGGGGGGGGGG+-GGGGGGGGGGGGGGGGGGGGGGG",
"GGGGGGGGGGGGGGGGGGGGGGGGGGGGGGGGGGGGGGG+qGGGGGGGGGGGGGGGGGGGGGGG",
"GGGGGGGGGGGGGGGGGGGGGGGGGGGGGGGGGGGGGGG@@GGGGGGGGGGGGGGGGGGGGGGG",
"GGGGGGGGGGGGGGGGGGGGGGGGGGGGGGGGGGGGGGG1aGGGGGGGGGGGGGGGGGGGGGGG",
"GGGGGGGGGGGGGGGGGGGGGGGGGGGGGGGGGGGGGGG2+=GGGGGGGGGGGGGGGGGGGGGG",
"GGGGGGGGGGGGGGGGGGGGGGGGGGGGqammmmq@,aG*,XGGGGGGGGGGGGGGGGGGGGGG",
"GGGGGGGGGGGGGGGGGGGGGGGG2$+X$qammma-$aaa-XGGGGGGGGGGGGGGGGGGGGGG",
"GGGGGGGGGGGGGGGGGGGGGGG.-..O67667666666%%%;GGGGGGGGGGGGGGGGGGGGG",
"GGGGGGGGGGGGGGGGGGGGGGG..oOO6oOo7B766OOOoo-GGGGGGGGGGGGGGGGGGGGG",
"GGGGGGGGGGGGGGGGGGGGGGGGV.oOooO7Oo7OooooonVGGGGGGGGGGGGGGGGGGGGG",
"GGGGGGGGGGGGGGGGGGGGGGGnC.=GooooooooOooaa@VGGGGGGGGGGGGGGGGGGGGG",
"GGGGGGGGGGGGGGGGGGGGGGGnGVO778SBZFSZF87OoXVCGGGGGGGGye%+X*hf4e1G",
"GGGGGGGGGGGGGGGGGGGGGGCnCo78BZBBBSFZFZB8OXhhdtw2;;3yjdtyjhytye=G",
"GGGGGGGGGGGGGGGGGGGGGGCnC6BSZBSB>q3wt*;3rryy51X<<;;3jjkjhe1X*#=G",
"GGGGGGGGGGGGGGGGGGGGGGeddjhfg-,-$-@$q2093few;X#<r;55151:e@&+%;#G",
"GGGGGGGGGGGGGjjh0hf2erfdfjAA0,-$w+99qq:<X#:0w91r5:30<:#*1#+%<:.G",
"GGGhhhffddjhhdeeFAAAAAAAAAAAy9,,,,,>99i9>>@w021;9>12&1&@@*<1<%XG",
"GGerrrreAAAAAAAAAAAAAAAAAAAAr0yw999->>>%;;:yt1X+3t2e<;2311X&%5#G",
"GG@+@:0eAAAAAAAAAAAAAAAAAAAAdtii,>,$$,:22-$*32&@&>99>13;+X+5g3#G",
"GG:$;30rAAAAAAAAAAAAAAAAAAAAXt99,>21><XX@%<5d0&@&%$&&:$@@2ytt;#G",
"GG*>5>3%AAAAAAAAAAAAAAAAAAAA<:%+X&:<<#@@:<:<:-+%$$@+X$&;,9wy1;=G",
"GG;#%e%:AAAAAAAAAAAAAAAAAAAA&@+++$@$%#@$++%%@*<<21.@@102-q923*+G",
"GGq%33rdAAAAAAAAAAAAAAAAAAAA&-;&&-%@&2;&%%**13>>-,9q90:yww,@01#G",
"GG9@@ddhAAAAAAAAAAAAAAAAAAAAreerr:39&&::0001>>@&9q9tgghjgy2*1>#G",
"GGjhdf<eAAAAAAAAAAAAAAAAAAAAdef>:>>30;20291&>&$>q999wy0wttg5rr#G",
"GG9ddeffAAAAAAAAAAAAAAAAAAAArd35<0102022e32>:>2,>>q,,,w1212$:y=G",
"GG@025frAAAAAAAAAAAAAAAFFFFF**$;%33rrtdwX%22,tq99+ttw0yfjff*9w=G",
"GG9>edeyAAAAAAFFFFFFFFFFFFF%+..+*01*efhy<01wgiggyee2;00tttgdhk=G",
"GG,>--9>FFFFFFFFF&--&-&$@$-0&:2:rffffhjhjhitjgttdtjkkjiisulllplG",
"GG:-,:,:222y302,20yhf001&$&-->rdderddytehkkjluq>9qqvsqwqqusxxlxG",
"GG>;--;32.2ddddy1:0yedfdrddr3rdkkewptgluiuqulsuuulvpxzlxvxxlussG",
"GG5dhhyyyg1w1021-:e:2jkr2tpliptw>,,upcvbNbbbbcczq9zxcx,u9&zbbvdG",
"GG09;3ytddgkkNxll9,&2wttpipzpxxxxxz&df<<r4545uipz$+*ughchxp<ej5G",
"GGkNt2:922%*&-qpluss1%;wu-,qzisqwy%rhylz<:@++:ts:w3ilvp;#GGGGGGG",
"GGuuuipppuu9q$%-&ixszvvzpzpglcvlsu,quslvbbbbbj-uulzl<;<0dhGGGGGG",
"GGGtigpt3pipwp,-zxbxvzullpsslliqpipivbvllsll9vislbxl5e+9tfdGGGGG",
"GGGppcvzxpvzu>xvxclxzgzglgwplgp9e:>:3r11+*2hxNbbvcuuqr09*fXGGGGG",
"GGGcvbxvzxccxcbhlcg&:pcvvpxxszvx,-uuz13r5p,X+%%9zbNN,vu9#5GGGGGG",
"GGGgzxGG5*--q.s-ccxxvxzzpzzgslp,vzslvv;22s:ti2lztrDw@su21;GGGGGG",
"GGGGGGGG<q5g>&@19;;GGGGGGGGGGGGGGGGGGGGGGGGGDDDDDDDzuw,%;#GGGGGG",
"GGGGGGGG5@x51g9iqx;XGGGGGGGGGGGGGGGGGGGGGGGGDDDDDDDpc::e-#GGGGGG",
"GGGGGGGG*xl.&+puu9w:*GGGGGGGGGGGGGGGGGGGGGGGDD DDDDzi9&<*GGGGGGG",
"GGGGGGGGGj,z=:@mxlzl2GGGGGGGGGGGGGGGGGGGGGGGDD DDDDq12w2*GGGGGGG",
"GGGGGGGGGGGGG<d-xclsy4GGGGGGGGGGGGGGGGGGGGGDDDD DDD,*99>XGGGGGGG",
"GGGGGGGGGGGGGGk2gppuiy4GGGGGGGGGGGGGGGGGGGGDDDDDDDDlwzp1=GGGGGGG",
"GGGGGGGGGGGGGGG;1iuu+&d<GGGGGGGGGGGGGGGGGGGDDD DDDDNxgwrGGGGGGGG",
"GGGGGGGGGGGGGGGG0tzvbqxf<GGGGGGGGGGGGGGGGGGDDD  DDDg-t-*GGGGGGGG",
"GGGGGGGGGGGGGGGGX:tz2xblfGGGGGGGGGGGGGGGGGGDDDDDDDDpqye=GGGGGGGG",
"GGGGGGGGGGGGGGGGG*t>*fX,j1GGGGGGGGGGGGGGGGGDD   DDDpvq>GGGGGGGGG",
"GGGGGGGGGGGGGGGGGG*w0e12214GGGGGGGGGGGGGGGGDDDDDDDDxhw1GGGGGGGGG",
"GGGGGGGGGGGGGGGGGGG3jvu@93GGGGGGGGGGGGGGGGGDD DDDDD<=r%GGGGGGGGG",
"GGGGGGGGGGGGGGGGGGG=jylcpGGGGGGGGGGGGGGGGGGDDDDDDDD;=>=GGGGGGGGG",
"GGGGGGGGGGGGGGGGGGGGGGGGGGGGGGGGGGGGGGGGGGGDDD DDDDg0#GGGGGGGGGG",
"GGGGGGGGGGGGGGGGGGGGGGGGGGGGGGGGGGGGGGGGGGGD   DDDu3X#GGGGGGGGGG"
};
