/* XPM */
static char * desk_b_xpm[] = {
"64 64 65 1",
" 	c None",
".	c #060204",
"+	c #6E6C7C",
"@	c #9E9EAC",
"#	c #8C0204",
"$	c #FE3634",
"%	c #CA0204",
"&	c #88878C",
"*	c #D61614",
"=	c #BBB9BC",
"-	c #EB0204",
";	c #9694AC",
">	c #7E7E7C",
",	c #A80204",
"'	c #AEAEAE",
")	c #2E2E34",
"!	c #EA025C",
"~	c #968EA2",
"{	c #C6C6C4",
"]	c #CA0264",
"^	c #B6025C",
"/	c #780204",
"(	c #76768B",
"_	c #8E8E94",
":	c #EA0C0C",
"<	c #868299",
"[	c #BA0204",
"}	c #AEA6C4",
"|	c #9E9AA4",
"1	c #B6B2D4",
"2	c #262224",
"3	c #A6A6B2",
"4	c #9A0204",
"5	c #8D869D",
"6	c #FE5A5C",
"7	c #464654",
"8	c #260204",
"9	c #FE1614",
"0	c #161214",
"a	c #FE2424",
"b	c #DE0204",
"c	c #C6BEDC",
"d	c #FE4244",
"e	c #DA025C",
"f	c #F60634",
"g	c #AE0A0C",
"h	c #CECACC",
"i	c #E61E1C",
"j	c #F60204",
"k	c #363644",
"l	c #CE022C",
"m	c #EA022C",
"n	c #A6022C",
"o	c #BE022C",
"p	c #9E022C",
"q	c #2E022C",
"r	c #BEB6D5",
"s	c #807C94",
"t	c #AEAAC9",
"u	c #C6C2E4",
"v	c #A69FBC",
"w	c #CECAEC",
"x	c #766E83",
"y	c #9E96B0",
"z	c #7E768C",
"                                                                ",
"                                                                ",
"                                                                ",
"                                                                ",
"                                                                ",
"                                                                ",
"                                                                ",
"                                                                ",
"                                                                ",
"                                                                ",
"                                                                ",
"                                                                ",
"                                                                ",
"                                                                ",
"                                                                ",
"                                                                ",
"                                                                ",
"                                                                ",
"                                                                ",
"                                                                ",
"                                                                ",
"            lle                                        w        ",
"        p#/#,44,44o                                  wwww       ",
"       #//##      p#,]                             (3uwww       ",
"      /4,###        ^#,e          q..           (s}wwwwu1t      ",
"     /#4%4,,          ],,e       ....         s(;1wwuw1tt1@     ",
"     4*#[[[[            ]g[e  8......       (zy1wwwuu13t@vy     ",
"     %a##%%[              ],/........     s(&}wwwuc1ttvvvvv     ",
"     %ji:bbe               8.........   ss(;wwwwu1ttt@v@vv@     ",
"     m-9da:        hh111   .........)s(s(;1wwuwrtt1@vvvv@v@     ",
"      b-$6       hh{h{h11  q.....07+(<(;rwwwwu1tt@@vv@@@vvv     ",
"      !mf      h{hhhh{hhtt12...07s<s(&twwwwc1ttvvv@v@vvvvv@     ",
"              hhh{h{h{h{{ht2..)s&s>(;wwwwc1'tt@@3v3@v@v@@vv     ",
"            h{h{{{h{h{hhh{h2)(&ssz(swwwwr31t@vvv@@vvvvvvvv@     ",
"          hhhhhhhhhhhh{{h{'(5<ss++++_w11tt@@vvv@v@3vv@@@vvv     ",
"        hhh{{{{hhhhhhhh{=35<s(+++(++(31tv3v@3@v@vv@v@v3@vv@     ",
"       h{hhhhhhhhhhhhh=3_&<+++++++++(+<@@v@v@v@vv@3v@v@vv@v     ",
"      &|h{hhhhhhh{{h=';<s+++++++++5@@+(v@@vvvvvv@v@vv@vv@v@     ",
"      &>_'hh{hh{h{h';&<+++++++++<ytt3+(v3v@3@@v@v@3@@3@@vvv     ",
"    tt3@&>_'h{h{{1@&(++++++++(;@tt1t@+(v@vvv@vv@v@vvvvv@@v@     ",
"  ;}ttttt_>>@=h=@&(++++++++(;t1tttttv+(@@v@@vv@v@v@@@v@vvvv     ",
"  +<3t31t'3_>_3_(++++++++<vttttt1ttt@+(@3vvvv@@@v@vv@v3@@v@     ",
"   ++&vtttt1_+(+++++++(;vttttttttttt@+(vv@@@vvvv@v3@@v@vv@v     ",
"    +++&t't;++++++++(;ttttttt3tttt1tv+(@vv3@v@@v@@@vv@vv@v@     ",
"      ++(;t3s+++++&@tttt'tttt1tttttt@+(@@v@v@@v@3v3@@3@vvvv     ",
"        ++(;;++(;@ttt1ttt31t1t31t1tt@+(vv@@v3v@@@v@@v@v@@v@     ",
"          ++(+;t1tttttt1tttt3tttttttv+(@vv@v@@3v@v3@v3@vvvv     ",
"            ++5@ttt1tttttt1t1t131ttt;+(vv@v@vv@@v@@3@@v@@v@     ",
"             +++&ttttt13t13ttttttt3v;+(@v@v@@@vv@vv@v3@vvvv     ",
"               ++(&tttt1tt3131tt@t@  +(vv@vvvv@v@v@v;v3@@v@     ",
"                 (+(;tttt1tttt@t@    +(@v@v@@@v@v@3v@v@vvvv     ",
"                   ++&@1tt3ttvt      +(v3@3vv@@v@v@v@@v@@v@     ",
"                     ++<@tt3@@       +(@v@@v@vv@v@3@v3@@v       ",
"                      +++;}v         +(@vvv@v@v@v@@3v@3v        ",
"                        +y           +(v@@v@v@3@vvv@@v          ",
"                                     +(vvv@v@vv@@@v@            ",
"                                     +(@v@v@v@vvv@              ",
"                                     +(@v@3vv@@@v               ",
"                                     +(vv@@@@v3                 ",
"                                     +(@3vvvv                   ",
"                                     +(vv@@                     ",
"                                     +(v@v                      ",
"                                      (@                        ",
"                                                                "};
