/* XPM */
static char *magick[] = {
/* columns rows colors chars-per-pixel */
"64 64 65 1",
"  c Gray0",
". c #262223",
"X c Gray15",
"o c Gray17",
"O c #36272d",
"+ c #343434",
"@ c Gray22",
"# c #393939",
"$ c #3a3a3a",
"% c #3c3c3c",
"& c #680000",
"* c #7f0000",
"= c #434343",
"- c #464646",
"; c #4d4741",
": c #4c4c4c",
"> c #565548",
", c Gray33",
"< c #5f5d50",
"1 c #5c5d5c",
"2 c #53686a",
"3 c #5f787a",
"4 c #636153",
"5 c #646254",
"6 c #6a665c",
"7 c #646464",
"8 c Gray42",
"9 c #756d62",
"0 c #786f66",
"q c #7a7766",
"w c #747474",
"e c Gray48",
"r c #8f0000",
"t c #ac0000",
"y c #d30000",
"u c #f00808",
"i c #ff2727",
"p c Magenta",
"a c #858370",
"s c #898673",
"d c #8c8975",
"f c #8e8b77",
"g c #8e8c78",
"h c #918e7a",
"j c #95927d",
"k c #848982",
"l c #969b95",
"z c #83a5a7",
"x c #8cb0b3",
"c c #b6b9b4",
"v c #97bec1",
"b c #97bfc2",
"n c #9ec7ca",
"m c #a1cbce",
"M c #a4ced1",
"N c #a6d1d4",
"B c #aad6d9",
"V c #c0cabc",
"C c #cacaca",
"Z c #cecece",
"A c #dadada",
"S c #e4e4e4",
"D c Gray92",
"F c #f6f6f6",
"G c None",
/* pixels */
"GGGGGGGGGGGGGGGGGGGGGGGGGGGGGGGGGGGGGGGGGGGGGGGGGGGGGGGGGGGGGGGG",
"GGGGGGGGGGGGGGGGGGGGGGGGGGGGGGGGGGGGGGGGGGGGGGGGGGGGGGGGGGGGGGGG",
"GGGGGGGGGG;;GGGGGGGGGGGGGGGGGGGGGGGGGGGGGGGGGGGGGGGGGGGGGGGGGGGG",
"GGGGGGGGGG;;;444fGGGGGGGGGGGGGGGGGGGGGGGGGGGGGGGGGGGGGGGGGGGGGGG",
"GGGGGGGGG;;;<4444ffffGGGGGGGGGGGGGGGGGGGGGGGGGGGGGGGGGGGGGGGGGGG",
"GGGGGGGGG;;;4444444fffffGGGGGGGGGGGGGGGGGGGGGGGGGGGGGGGGGGGGGGGG",
"GGGGGGGG;;;<444444444fffffGGGGGGGGGGGGGGGGGGGGGGGGGGGGGGGGGGGGGG",
"GGGGGGGG;;;<444444444jssfffGGGGGGbbbGGGGGGGGGGGGGGGGGGGGGGGGGGGG",
"GGGGGGGG;;<4444444444jsfddfffGGbbbbbbbGGGGGGGGGGGGGGGGGGGGGGGGGG",
"GGGGGGG;;;<444444444jX###dffdffbbbbbbbbbGGGGGGGGGGGGGGGGGGGGGGGG",
"GGGGGGG;;;4444444444j#######dsgbbbbbbbyyyyGGGGGGGGGGGGGGGGGGGGGG",
"GGGGGG;;;<444444444jX########fbbbbbyyttr&&&GGGGGGGGGGGGGGGGGGGGG",
"GGGGGG;;;4444444444j########fgbbbyitbbbbrrr&yGGGGGGGGGGGGGGGGGGG",
"GGGGG;;;<44444444444########fbbbuybbbbbbtt*yybGGGGGGGGGGGGGGGGGG",
"GGGGG;;;4444444444j########5fbuibbbbbbbbtt*r*CCbGGGG##GGGGGGGGGG",
"GGGGGGG<4444444444j########ftiunbbbbbbbCCCr**CCCCbGG###GGGGGGGGG",
"GGGGGGG4444444444j########5f  mmmmmmnAZCCCCC*CCCCCbb#####GGGGGGG",
"GGGGGGG4444444444j########f   NNBBBSDDDDACCCCCCCCCC########GGGGG",
"GGGGGGGgG4444444j########5f   BBBBDDFFFFFSCCCCCCCCc##########GGG",
"GGGGGGG<ggg44444f########f    BBSSDDDFFFFFZCCCCCcbb###########GG",
"GGGGGG<<<<gg444jg#######4fb   BBSSSSDDDFFDACCCCbbbb#############",
"GGGGGGs<<56ggg4jjjjjg##sssbbNNBBBBSSSSDDDSAZCbbbbxx#############",
"GGGGbsss<69qagggsjjhhhsssdfNNNNNBBBBSSSSSAAbbbbxxxx#############",
"GGbsssssss0qafhjggssssssddfMMNNNNNBBBBAAAbNmnxxxxxx#############",
"G3bssssssssssfhjjjgssssddddMMM1kcNNNBBBABNMxxxxxx33#############",
"G33sbsssssssssjjjjhfssdddf00Mb17klNNNNNNNMxxxxx3333#############",
"G3333sbsssssssssjhgssddf9066bbb17kVMNNNNxxxxx333333#############",
"GG3333>bssssssssssssdd9006mbbbbbbbbMMMxxxxxx33333333############",
"GGzz3333sbsssssssssff006bmbbbbbbbbmmxxxxxx3333333333###########X",
"GGzzz33333sbssssssf906bnnmbbbbbbbmxOxxxx333333333333###########X",
"GG22zzz3333>3bsssfbbbbnnnnbbbbbbxxx.xx33333333333333###########X",
"GGG222zzz3333>bsbbbnnnnnnnnbbbxxxxxx3333333333333333##########XX",
"GGG22222zzz33333bnnnnnnnnnnnxxxxxx333333333333333333##########XX",
"GGGG22222zzz333333nnnnnnnnxxxxxxG3333333333333333333#########XXX",
"GGGG2222222zzz33333nnnnnxxxxxxGGG33333333333333333333########XXG",
"GGGGG22222222zzz33333nxxxxxxGGGGGG3333333333333333333x######XXXG",
"GGGGG222222222zzz33333xxxxGGGGGGGGG3333%%%%%%%3333333xx#####XXGG",
"GGGGGG2222222222zzz333xxxGGGGGGGGGGGG%%%%%%%%%%%%3333xxG###XXXGG",
"GGGGGG222222222222zzz3xGGGGGGGGGGGGGG%%%%%%%%%%%%%%%3xxG-##XXXGG",
"GGGGGGG2222222222222zzzxGGGGGGGGGGGGGX%%%%%%%%%%%%%%%%xG,wXXXGGG",
"GGGGGGG222222222222222xxxGGGGGGGGGGG.XX%%%%%%%%%%%%%%%%G,wwGGGGG",
"GGGGGGGG22222222222222xxxGGGGGGGGGGGXXXXX%%%%%%%%%%%%%%=1kwGGGGG",
"GGGGGGGG222222222222222xxxGGGGGGGGGGGXXXXXX%%%%%%%%%%%%%7lwGGGGG",
"GGGGGGGGG22222222222222xxxGGGGGGGGGGGGXXXXooo+%%%%%%%%%%7kGGGGGG",
"GGGGGGGGG222222222222222xxxGGGGGGGGGGGGXXXooo+++#######%8eGGGGGG",
"GGGGGGGGGG22222222222222xxxGGGGGGGGGGGGGGXooo+++#######%8wGGGGGG",
"GGGGGGGGGG222222222222222xxxGGGGGGGGGGGGGGG=+++########GGGGGGGGG",
"GGGGGGGGGGG22222222222222xxxGGGGGGGGGGGGGGG==,7G%####GGGGGGGGGGG",
"GGGGGGGGGGGG22222222222222xxxGGGGGGGGGGGGGG=-17GGGGGGGGGGGGGGGGG",
"GGGGGGGGGGGGGG222222222222xxxGGGGGGGGGGGGGG=:17GGGGGGGGGGGGGGGGG",
"GGGGGGGGGGGGGGGG22222222222xxxGGGGGGGGGGGGG=:17GGwweGGGGGGGGGGGG",
"GGGGGGGGGGGGGGGGGG222222222xxxGGG=117GGGGGG=:18,wwe8-GGGGGGGGGGG",
"GGGGGGGGGGGGGGGGGGG222222222xxxGGo#==777GGG=,18eee8X-:GGGGGGGGGG",
"GGGGGGGGGGGGGGGGGGGGG2222222xxxGGX###===77==,18ee7GXX-GGGGGGGGGG",
"GGGGGGGGGGGGGGGGGGGGGGG222222xxxGG##GG#=====,1weGGGGXoGGGGGGGGGG",
"GGGGGGGGGGGGGGGGGGGGGGGGG2222xxxGGGGGGGGG#,e,777GGGGGGGGGGGGGGGG",
"GGGGGGGGGGGGGGGGGGGGGGGGGG2222xxxGGGGGGGG,eww::778GGGGGGGGGGGGGG",
"GGGGGGGGGGGGGGGGGGGGGGGGGGGG222xxGGGGGGGee8,G%%:,,887GGGGGGGGGGG",
"GGGGGGGGGGGGGGGGGGGGGGGGGGGGGG2xGGGGGG,ee8,GGGG==,,,888GGGGGGGGG",
"GGGGGGGGGGGGGGGGGGGGGGGGGGGGGGGxGGGGG,e88GGGGGGGGG==,18GGGGGGGGG",
"GGGGGGGGGGGGGGGGGGGGGGGGGGGGGGGGGGGG==7GGGGGGGGGGGGGG=%%GGGGGGGG",
"GGGGGGGGGGGGGGGGGGGGGGGGGGGGGGGGGGGXX#GGGGGGGGGGGGGG++#GGGGGGGGG",
"GGGGGGGGGGGGGGGGGGGGGGGGGGGGGGGGGGXXXXGGGGGGGGGGGGGGo##GGGGGGGGG",
"GGGGGGGGGGGGGGGGGGGGGGGGGGGGGGGGGGXXX+GGGGGGGGGGGGGGX#GGGGGGGGGG"
};
