/* XPM */
static char * dirt_xpm[] = {
"64 64 49 1",
" 	c None",
".	c #724E24",
"+	c #825E24",
"@	c #7E561C",
"#	c #6E5634",
"$	c #765624",
"%	c #7A521C",
"&	c #8E662C",
"*	c #76562C",
"=	c #8A5E24",
"-	c #7E562C",
";	c #725224",
">	c #765A2C",
",	c #865A24",
"'	c #86622C",
")	c #7E5A24",
"!	c #725A34",
"~	c #8A6224",
"{	c #72522C",
"]	c #865E24",
"^	c #7A5A24",
"/	c #7E5A2C",
"(	c #7A5A2C",
"_	c #764E1C",
":	c #825624",
"<	c #72562C",
"[	c #7A561C",
"}	c #7A522C",
"|	c #7A562C",
"1	c #76521C",
"2	c #8E622C",
"3	c #825A2C",
"4	c #825E2C",
"5	c #7E5624",
"6	c #825A24",
"7	c #76522C",
"8	c #7A5224",
"9	c #765634",
"0	c #8A5E2C",
"a	c #765A34",
"b	c #725A3C",
"c	c #8A622C",
"d	c #865E2C",
"e	c #7E5A34",
"f	c #7A5A34",
"g	c #764E24",
"h	c #725634",
"i	c #7A5624",
"j	c #765224",
"j;j7jj7jjj7ijjiiiii5)6,6i66@56&]2)55-585i8i)3iii5iji5i7|(*jji//i",
"jj7$*jj8}7j777i/i8ii:66)@=:8[,=%):i5iii45i55)j.iijj|(i>i-5|7-55j",
"7$7j*77jjj;j${i)i856]c,:)')%[6][)6)6ii:05j)66igi6i5,/5|)/iii|i*;",
";j$}8j;$j7g*7i|3)i))066)6]]%%666=c0]:5+=6i:)[1ji,554)|)///($jj..",
"7}(|$7.7<*j$*i/4585i6)5)6]4)@+5)]'])@@+],56551%i6i%55|5^888j;j<j",
"i)-i}g7<|*7||(//(jj546)6)5:%%@)566+@j5:66)56[%86d)56))/iji8.gi5*",
"7i7$7j7<*|}|||)/^$$i)55@@%8$_%$i6,65[5@[:6i8j;166iii5551jji1j|5|",
"j7$7;;jh7|8ji*|)-|i56)@5$$[%ii%i)6]65@88)@5[%_185585i[8j1i5/+)/j",
";jj|7j***))i|*|/5j$56/i@%88%i)5)6]]6)@%%55i%j%15iii5^8%8@))d4iij",
".7*ji|8*|/:||((i$jj^)+6ijii)6/)/66]6ii8)66:i%jj55ii)5[ii65i35;j;",
"ji(|//-**(^<*|*8j1j5/6555]'/6/i/)6)51$85])5$jii46)5iii5/65i/8.jj",
"$|5)ii|**|||**i*$ji(i()ii//)/)-6:5588%5)):ijjj|638%%i56635505ji$",
"i||-|$$7*7*|iiii|ji55/(iji*$**i^^))i5^)6+588jj|)6ij_i)]66))+ij-/",
"}$iii7j;iiii|(||)/5(///(|>(<{$7||56))5)6/ii$||$551185/d+$%i3j.i5",
"j})/5|i7$|i)i$iji^5)//(>**9<{j*i^)/i/5|5588ii}7i8g$i,6d3j85)iji-",
"ji-)^8jj8i53-j;jj|||(4e9h9*{h***|*iij$ii)i(/||i/)|83d/65jjii8ji$",
"*i-5jg;j}/)658ii8^i//(ah#7%1*9hi-ij1jji|(|i(**$|i|i55iii%1i$ijii",
"5/)}jj8$)+3+/iii)6/ii/>h7_[8hhf($*$jji)^i**7<{{j$i8$5ii5j5)65i-3",
"i|i8jj8|3d,6)i8j*)(|^6><**6>h#h*$7iiiii||>(5jj{7ii8$8885i5)6iii-",
"7ii788i5/)|i58i5556^3/|a!9fb!{**7j$55i|(*|)[j7|$-/i5i[i)ii5i8.j$",
"j7$jj%%55j88[ii%5)33d4||*$<{#**f(/(/()j$|8j%;;*i)/i56)i55i5i1j8i",
"|)5ji5)5-88i5i5iii))4)**<#7{*((/4/4+5i$j<<*j{***(ii5i556i5+diji|",
"|3/8i5)iiii55%ii88i)/i*$j<*j*f/(4)|ij8jj**7$*((i|j$j1ii]55,,585i",
"i)6|jjj8-|5)%i%%85//+/^-i|i(//^|i|$$$;jj*|^|(/5$^|555,:))i5)1jii",
"g5)358ii5)558ij$^6634|i/i(i$|*jj$j.j$<$ii/^i*(87)/36/~655i5)j1jj",
"$/435i-/i58j11555dd+)5$iii5|i*.j$j|jj8ii)/3/i5ii6,+)6c,)))d:[j8j",
")6+4)i5/5i8i8$566c35i88i||5()|{7$8i$i-5/+'4)i//^+,5))',@56]58i63",
"33638j5:55$5i%ii56654)^58$555i*j8$ij;ii)/i/ij5588ii%8,)8@:+5[)d)",
"665588%)i8j85%%ji)$j)ii$|$ji)jj<|$-i$|i55i)8;$|j._.1%56i[5=],665",
"06558:@58ijii8.1i5i1-jjjjjjijii|j})/-i|)iii|j8()i$@55:6655)6@)]]",
",65))36i}8g1$i85)6-),|i|(/|iii5$$gii}8}i8j$ij8|$8$i)@6==6:58_[5)",
"65i8|ii|jjjiiii)645|45|i/i$|i-i|.;7$;;jj7jj8j;$8j1[i)6~d6]6@%@]_",
"~-55-5j/8$8-6i855$j$|$7$(}j.8-5i{;7$j*7jjjj|jj|i888i:566[6)@56&]",
")655i853)856/j;$i%j5)i>|-^j*/)(jjjj7*jjj}7*j7ji)ii55)],)5=6j[6=%",
"))56@860)$5668gi/ii3/5i///i$|i*.;;j87*jjjg{j7;|3iji:,',6)]6_[6]i",
"=~']))6=:855[$85,:5])|/^/)-jjj;;.7|*8g77j;j7$|i45^56d,656=]@%666",
"0~])%@6],)6)%11535j:55-5jiijgj;*i$-|$j;7*7j7*|i45i[5))5))],:@+:6",
"63+@i56,6:):5j%)+55))|6$jj8.;8/8|-5$}77<***||(//-j$^66)665)i[@^5",
"6,6i[@@[):[[%1%6655i5i5j1ji1$i|8i*|$jj;h*|8i|(/)578^))5@i%18_%$i",
")6,655i[@)581.18)ij@5i8_j[536-/${jj7{;7**i|*$8(((ii565@i%ji1ii%i",
"3]=65[8i@)i81j185ii))iii:5)d+i|jj$$j78*7*555>|/)-$$56/5i%%i%5)5)",
"6666i8%5666[81j)55ii[[@5))84/;j;;j}|8||*|/:*|*i|$jj^)+)@855))/)/",
"66))%j55,55i8i84))558i5)3)858.j;{$i()-/**(-***i|jjj)/3)^56'/)(i)",
"))5%jii))6ijj8|638[jii)365)c5;88i|-)|^|*>^***|*$$ji|i)|8i3))/)-3",
"5)))55)6658j7i|668%855]6)55]5j|-ii}i|jj7*|i|*i8|iji5/)/|$||$7*i5",
"()655)66/i$i$j$551jj53,688i)j;5)|$i5ij*;}i|^(5(i)/)()4(|*>(**$j>",
"i-)^i||)588-|}7ii.ji]4d+ii))i$857|(//i8jjj-:iijji|5|(4(|**9{{77i",
"|>|8i[ii/i(^)**/5i5:3:)-_g8i8j$*ji55i8j$i|i)|jjjjiii//(ahh*#h*>h",
"5$$;;$ii(*|*|*$||i|)/)ii8iij888ij--5jj.;i536i$8ii(/5/4!hh7%1*9*|",
"*|jj885(i|*|<j{$ij$8i88i$i56)i)3/)/ijj88-4+d35ii565((|*<;_%8<ha(",
"$*i$iii|*((i7j7{|5i8$j8@85))i8i-|i}87ji544+)5i8$*/^i/3>h*(6a<h**",
"*ji55^-^||5[17*i))ii5@i5i^55j;jjj|ij8ii^:-|85ii855)|+/|>!hfbh{**",
"||)/|^8$*$81;j<|/(55)6i65ii5gjiijj$jj1%i588$ii58^-+344|**$<h#h*|",
"4444)i$7***j{*|i^iii5i55i5,]iji|i/-j855))ji55i@i55564/**<#7{*(f4",
"3(^i8jj;7*7$*(|*|$ijji@6))4]585ii6/i8-5}58855ii1%i$)6|i}j<$j*((/",
"$ijj<;;j*|/|>(^85|5i5])6585511i8i-:|iijii|)58%%8$5-/4)(^i|i(/-i|",
"*j;j$$$$i^^|||i$))d6/c+)^8))j1jjj))3ii8-555@8i[8i++34ii/i|ii(>;j",
"8j88j8ii/335i5$j/6+)6c65:6d68jijj-365i/5))ij11ii/d,+3i8ii^5||${j",
"$i$i$55)+'')^335,66550]@):])%i36)643:8i-5i8i88)56'3i5i8i||^^-5{7",
"|jijji-)/|/i85^$i5j%%+5i@665i5])336+ij:)55i5ii855665+/^58$8i)*$$",
"|i|i|$i558(j.j|j.1;j%5@8%5=]+66^655-8i%5ijj8@[1j5)ij)ii$|i8i57;*",
"$7)(i-|/i$5|$85^j8@@56,6)556@)],~]5i55@58ijij8j1ii$j5jjjj*jiii}8",
"$gii$j8iij$ii*|ijji@56~=6658_i)5,655636i}8g8888i6,5-,|i|i(iii5^i",
"g;7*jj;jjjj8jg8ijj5556d,6]6@%@,%)58i7ii}jjjiiii634i^45|i/i}jii|$"};
