/* XPM */
static char * door_automatic_xpm[] = {
"64 64 7 1",
" 	c None",
".	c #070707",
"+	c #383530",
"@	c #141414",
"#	c #605C4F",
"$	c #5F5B4E",
"%	c #5C5748",
"                                                                ",
"                                                                ",
"                          .............                         ",
"                          .+++++++++++.                         ",
"                          .............                         ",
"                                                                ",
"@@@@@@@@@@@@@@@@@@@@@@@@@@@@@@@@@@@@@@@@@@@@@@@@@@@@@@@@@@@@@@@@",
"++++++++++++++++++++++++++++++++@+++++++++++++++++++++++++++++++",
"@@@@@@@@@@@@@@@@@@@@@@@@@@@@@@@+@+@@@@@@@@@@@@@@@@@@@@@@@@@@@@@.",
".#############$$$$############@+@+@############################.",
".#############$$$#############@+@+@############################.",
".#############$$##############@+@+@############################.",
".##############$##############@+@+@############################.",
".#############$$##############@+@+@############################.",
".#############$$##############@+@+@############################.",
".#############$###############@+@+@############################.",
".#############$$##############@+@+@############################.",
".############$$$##############@+@+@############################.",
".###########$$$$##############@+@+@############################.",
".##########$$$$$##############@+@+@############################.",
".#########$$$$$$$#############@+@+@############################.",
".########$$$$$$$$$############@+@+@############################.",
".########$$$$$$$$$$###########@+@+@############################.",
".#########$$$$$$#############$@+@+@############################.",
".##########$$$$###########$$$$@+@+@############################.",
".###########$$#############$$$@+@+@############################.",
".#####$#####################$$@+@+@############################.",
".###$$$$$$$##################$@+@+@############################.",
".$$$$$$#$$$$#################$@+@+@############################.",
".$$##########################$@+@+@############################.",
".$###########################$@+@+@############################.",
".#############################@+@+@############################.",
".############################$@+@+@############################.",
".############################$@+@+@############################.",
".############################%@+@+@############################.",
".############################$@+@+@############################.",
".#############################@+@+@############################.",
".#############################@+@+@############################.",
".#############################@+@+@############################.",
".#############################@+@+@############################.",
".#############################@+@+@############################.",
".#############################@+@+@############################.",
".#############################@+@+@############################.",
".#############################@+@+@############################.",
".#############################@+@+@############################.",
".#############################@+@+@############################.",
".#############################@+@+@############################.",
".#############################@+@+@############################.",
".#############################@+@+@############################.",
".#############################@+@+@############################.",
".#############################@+@+@############################.",
".#############################@+@+@############################.",
".#############################@+@+@############################.",
".#############################@+@+@############################.",
".#############################@+@+@############################.",
".#############################@+@+@############################.",
".#########################$$$$@+@+@############################.",
".########################$$$$$@+@+@############################.",
".#######################$$$$$$@+@+@############################.",
".######################$$$$$$$@+@+@############################.",
".######################$$$$$$$@+@+@############################.",
".######################$$$$$$$@+@+@############################.",
"#######################$$$$$$$@+@+@#############################",
"@@@@@@@@@@@@@@@@@@@@@@@@@@@@@@@+@+@@@@@@@@@@@@@@@@@@@@@@@@@@@@@@"};
