/* XPM */
static char *magick[] = {
/* columns rows colors chars-per-pixel */
"64 64 64 1",
"  c #131313",
". c Gray18",
"X c #313131",
"o c #353535",
"O c #3a3a3a",
"+ c #3c3d3d",
"@ c #3e3e3e",
"# c #3f3f3f",
"$ c #3f4141",
"% c #5b325b",
"& c Gray25",
"* c #414141",
"= c Gray26",
"- c #424343",
"; c #434343",
": c #434545",
"> c #444444",
", c #444545",
"< c Gray27",
"1 c #454646",
"2 c #464646",
"3 c Gray28",
"4 c #424b4b",
"5 c #464949",
"6 c #484848",
"7 c #484949",
"8 c #494949",
"9 c #494a4a",
"0 c Gray29",
"q c #4b4b4b",
"w c #4a4d4d",
"e c #4c4c4c",
"r c Gray30",
"t c #4e4f4f",
"y c #465151",
"u c #4d5252",
"i c #4f5d5d",
"p c #515151",
"a c #525353",
"s c #545555",
"d c #565757",
"f c #585959",
"g c #5a5b5b",
"h c #5d5d5d",
"j c Gray37",
"k c #5b7272",
"l c Gray38",
"z c Gray39",
"x c #656565",
"c c #6a6a6a",
"v c #6d6d6d",
"b c #727272",
"n c Gray46",
"m c Gray48",
"M c #728f8f",
"N c #818181",
"B c Gray52",
"V c #898989",
"C c #929292",
"Z c #89abab",
"A c #a5a5a5",
"S c #bebebe",
"D c #a0c9c9",
"F c #b7e5e5",
/* pixels */
"*%+jllllllllllllllllllllllllllllllllllllllllllllllllllllllllljp.",
"N%ocvvvvcxlllllllxcxllxxlxvvcxllxxlxvvcxllxxxcxllllxllxxxcbvvlp.",
"N%+SBBNSmnbbbbbbbnmnbnnnbbmmmnbnnnbbmmmnbbbbbnbbbbbbnnnnmSBSmcs.",
"N+pAACCVNSmNNSSmmVBSSNVBmmSVVSSNVBmmSVVSmmmmmNBBSmmmmNNBNVCCVbj+",
"N#qCCVBNmnmmmnnnbmmmnnnnnbnBNmnnnnnbnBNmnnmSnnmmnbvbbnnmmmBCBbfO",
"N#* oOoooXXXX..XX..XXX.....XXXXX.....XXXoXoX..XX......XXXXoOoX. ",
"N#*fsq1**++fxvvccxxlxvmmcxjjlxxvmmcxjjlxvxjjvnxdfxnvxcxllvmCA1+*",
"N#*ljjjjjjjfjjfsfssppsfgjjjfffpsffjjjfffffjljsppppsglljlcbxaee1q",
"N+*lljgffffjjfssdfssappsssddsaappsssddsappsffsapasdgjljjlxlpqq1q",
"N+1lljfsfjjgffppsfddsuessppaapseessppaapewepddssssdfffsdsfjdpqqq",
"N#qxljfsffgfsssppffspuesappasaauepapppsppepappssssddapaapsddse1q",
"N#qvljffffggdspppfsppeeeeussdspeeeeussssaupapueeepsappsfssdgfe1q",
"N#;xljjffgjfspppesuqeeqqqepppeeewqqepppeeqqeeeqqqeepppsdpupsseqq",
"N#;zjjjffggdpueeqeqqqqqqqqueeqeeeqqqueeqqqqqeqqqqqqweeeppeeeqqsq",
"N+qjjjjjjfdaeeeq3q1qqqqqqqqeqqqqqq1qqeqq11qqqqqeqqqqqqtssaeq31pw",
"N+qjffsfgfseeqeq111q1qqq11qqq333qq11qqqq11qqqqqqqqqqqetpaaeq1*1q",
"N#1jfspssdspeeeqq11q31qq111qq3q1q3111qq3q33qq3q11qqqqeeeueeq1*qq",
"N##ljsppspaseeqq111q3111111qqqq1111111qq31qq3q311qqqqeeppeeeqqsq",
"N#Ojgdppppuauqq31111311111113q1111111qq311111qq11qqqqwepspaseepq",
"N#Offdaepeeeeqq11111133111qq31113111qqq1111q5qq5q5q5qepspeupq1qq",
"N#*sdfssfseeeqq111111qqq11qqq113qq11q3q113qq5q1q5qq5qeppe5wqq1qq",
"N#*ffffgjfpueq311111131qq1;111113qq111111qq5qq1q3155qwwqqqqqqepq",
"N#+fffdfdspeeqq11111111311***1111q11***11111111111q55wq5qwwqqepq",
"N#*jfssdssaeqqq111111111111**111111;1;*11*11*11111qqqqwqqeeqqqqq",
"N#qffssssdsuqqqqq11;1111;111111111;111;111*1:55511qwqqeeeeeq11qq",
"N#*jjfsspppeeqq1311**111111111*1;111111111**5y4445qqq5weepe51qaq",
"N#Ofjfdspppueqq111****11111131*;;11131111111qy444555555:qewqqeeq",
"N++sgfdspspeqqqqq1****;1111111*;11111111*1111444414451$+1ewqqeqq",
"N#;psfddsseeqqqqq****;;11111***;111111***111:4y44:4455*:wuw11eqq",
"N#1sjjddfsueqqqqq1**;;11;;******11*;*****1555444455445:4pu:$1q1q",
"N#+sffsgjspaeeweq**111*1;*****11*1******1qwuw5444yy4y*****$+1q*q",
"N#Osfsdffsaspeqq3*111**1;*;;**1**11*****11qw5144yiiy*kkkkk+:11:q",
"N*+sffdspppsaeeqq;*;1;*;1**;**1;*1;**1****11*:55yii*kMMMMMk*11qq",
"N+*ffdssspppuueeq;*1*11;1111***1111111**++***155qy*kMZZZZZMk*11q",
"N+:fsssfffpueeeqq*11111111111*111111111*****:1544y*kMZDDDZMk*1qq",
"N#*faadfjgfpeeeq111311q3q111111133q111111**11::44y*kMZDFDZMk*::q",
"N#;fapdjjfspueeeq11qq11q111111311q11111;***1w5114y*kMZDDDZMk***q",
"N#1fdsddssaaeppuqq1qq11111111;q11311111****5uw55qy*kMZZZZZMk***q",
"N#*fgfsppaaappspeqqqq113111**;q311111;**:**:w5555yy*kMMMMMk*1*+q",
"N*+sffseepppuasppeqqq331111*+*q133111*#*****111::4:1*kkkkk*:1**q",
"N#+pssaeqeeepssppeeq111111****111111*****1***11*:**:*******qq;+q",
"N#*essdpqewqpspeeqeq1**1q1111*1**1q1111*11*1111******;11111qq**q",
"N#qpsssuqqqqeuequqepe11qq1*111e11qq1*1111**1111*:******11;1q31*q",
"N#qssspeqqqeueeqp1eppeqq1*##**peqq1##+*****11***:******1111111*q",
"N#1ssspeqqqepppqe1qepe11**+++*pe1***++#****111*****+#**1q111*;;q",
"N+qssppeqqqeeueeeqeee1**1*+#++e1**1*##+++**11***+++++***3q11*1qq",
"N#;spuppeeeeeeeeu311q1**1***+#q1**1***+++****####+#+#*+**1***1qq",
"N#*spesseqqqeeqqq11111*+*11*++11*+*11*+++#**++##+++#++*******11q",
"N#1spppspq11311111qq1#+++***++1*++#***++++##++++OO+++++;1;****1q",
"N#1pspupe1*11****1qq;+++*+***+;#++*#*;*++##+++++O++#OO+*111111*q",
"N#*ppeqqq1111****11*#*+O+#+*#++*+O+#+*#+++#++++OO+#+O+#*111111*q",
"N+1peqqq1*1111**+1++O++OO+++++O++OO+++++OO+##+O+++++++*111*1111q",
"N#*peqqe11111****++++++OOO+++++++OOO++++OO+**++++++++++*****qq1q",
"N#Oppeee11*1*****++#**+++++++#**+++++++#++#*11#++++++#**1**1qq1q",
"N#Oppueq1****11****1******++##;*****++###+*1q1*+++++#*3ee111qe1q",
"N#+speeq11**111;********11*11;****11*11;********#++#**qepe31qqqq",
"N+*ppeeeq1111111q#******111qeq****111qqq;*1**111*++*+**qeu11qq1q",
"N*+eppeeeq111111q11111**+*1qq111**+*1qq111*+*111*****#*;epq1qqqq",
"N*Oqeapeq111q11*11q111q;**111*13q***111****#*11111****1qeee3qeeq",
"N+*1eapeq111eq1**111*1qq1******1qq1*****+***1q1*;1****qeqqq1111q",
"N#11qpeeqqqqee1***11**3qq*******qqq*******11111**11*;1qeq1*+*1*q",
"N#*qqeewqqe3qq1*1*11111q1****1111q1****1****111**3qqqqq31*****+q",
"NOOpeqqq11q111;11*11111q1*+*q3;11q1*+*qq*****11**qeqqqeq11***1;o",
"Nooseq11*********1****1q1*#*ee**1q1*#*ee1*1***1**1qq11eqqe1+*qe "
};
