/* XPM */
static char *magick[] = {
/* columns rows colors chars-per-pixel */
"64 64 65 1",
"  c #696900",
". c #7f7f00",
"X c #444444",
"o c Gray31",
"O c #515151",
"+ c #5b5b5b",
"@ c Gray39",
"# c #646464",
"$ c #656565",
"% c Gray40",
"& c #676767",
"* c #686868",
"= c Gray41",
"- c #6a6a6a",
"; c Gray42",
": c #6c6c6c",
"> c #6d6d6d",
", c Gray43",
"< c #6f6f6f",
"1 c Gray44",
"2 c #717171",
"3 c #727272",
"4 c Gray45",
"5 c #747474",
"6 c Gray46",
"7 c #767676",
"8 c #777777",
"9 c Gray47",
"0 c #797979",
"q c Gray48",
"w c #7b7b7b",
"e c #7c7c7c",
"r c Gray49",
"t c Gray",
"y c Gray50",
"u c Magenta",
"i c #a4a400",
"p c #a7a700",
"a c #a8a800",
"s c #acac00",
"d c #afaf00",
"f c #d8d800",
"g c #e5e500",
"h c #808080",
"j c #818181",
"k c Gray51",
"l c #838383",
"z c #848484",
"x c Gray52",
"c c #868686",
"v c Gray53",
"b c #888888",
"n c #898989",
"m c Gray54",
"M c #8e8e8e",
"N c Gray57",
"B c Gray59",
"V c Gray60",
"C c #9d9d9d",
"Z c Gray66",
"A c #bbbbbb",
"S c Gray77",
"D c Gray80",
"F c #d2d2d2",
"G c None",
/* pixels */
"GGGGGGGGGGGGGGGGGGGGGGGGGGGGGGGGGGGGGGGGGGGGGGGGGGGGGGGGGGGGGGGG",
"GGGGGGGGGGGGGGGGGGGGGGGGGGGGGGGGGGGGGGGGGGGGGGGGGGGGGGGGGGGGGGGG",
"GGGGGGGGGGGGGGGGGGGGGGGGGnNNNNMMnnnnvvvllGGGGGGGGGGGGGGGGGGGGGGG",
"GGGGGGGGGGGGGGGGVVVVVBBBBBBNNNNMMnnnvvvllyyyqq8884GGGGGGGGGGGGGG",
"GGGGGGGGGGGnVVVVVVVVVVVVBBBBMNNNMMnnnvvvllyyqq8844<<;&GGGGGGGGGG",
"GGGGGGGGBBVVVVCCCVCvvvvlvlllllylyyyyyqyqqqqqqq8884<;;;&@+8GGGGGG",
"GGGGGGMNBVVCCCvvvvvvvllllllllyyyyyyqyyqqqqqqq8888848;;&@++OoGGGG",
"GGGCCCNBVVvvvvvvvvlllllllllyyyyyyyyyqqqqqqqqq88888844444++OolllG",
"GGGCCCNvvvvlvllvlllllllllyyyyyyyyqyqqqqqqqq8888888484444444olllG",
"GGGllvllvllllllllllllylyyyyyyyyyqyqqqqqqq8q8888448444444444<<4<G",
"GGGlllllllllllllllylyylyyyyyqyyqqg qqqqq888888484484444444<<<<<G",
"GGGlllllllylllyllyyyyyyyyyyyqqyqqddOqq8q888888884844444<4<<44<<G",
"GGGlylyylyyyyylyyyyyyyyyyyqyyqqqgdd 8qq888888484844444<4444<<<OG",
"GGGyyyyyyyyyyyyyyyyyqyyqqyqqqqqqddddO888884884484444444<<<<<<<<G",
"GGGyyyyyyyyyyyyyyyyyqyyyqqqqqqqfddaa 888888844444444<44<<4<<<<<G",
"GGGyyqyyqyyyqyyqyqqyqqgggggggggddddda.fffffff444444444<4<<<Z<<<G",
"GGGywyyqyyqyyqyyqqqqqqqddddddddadaddaaaaaaiiOOO444<44<<4<<<<<<<G",
"GGGqqqqqqqqqqqqqqqqqqqqqOdddaddaddiaaaaaaaiOOO44<44<4<O<<<<<<<<G",
"GGGqqqqqqqqqqqqqqqqqqqqq99OadaddiaaaaaaaiOOO444<44<<4<<<<<<<<:<G",
"GGGqqqqqqqqqqqqqqqqqq8q88888Odaaaaaaaii+OOO44444<<4<<<<<<<<<<<:G",
"GGGqqqqqqqqqq888qq88888888888Oaaaaaii OOO44444<4<4<<<<<<<<<::::G",
"GGGqqq88q888qq888888888888888faaaiiaiiO44444<4<<<<<<<<<<<:<<<::G",
"GGG88888888888888888888885888iaaiaaaiiO444444<<44<<<<<<<<:<::::G",
"GGG8888888888888888848885848fiiaaiiiiii<4<4<4<4<<<<<<<<<:<<::::G",
"GGG8888888888488888484448484iaaiOOOiiiiO4<44<<<<<<<<<<<<<:::::;G",
"GGG888484884884844848884444fiiOOOO41Oii <4<<<<<<<<<<<<;<<::::;;G",
"GGG848488444484848444444444iiOOO44144OiiO<<<<<<<<<<<;<<;;:::;;;G",
"GGG448444484844444444444444OOO44444<<44OO<<<<<<<<;;<<;;;::;;;;;G",
"GGG444444444444FFDDDDDDDDDD<DDDDDDDSSSSSSSSSSSSSSAAA<;<<<;;;;;;G",
"GGG444444444444nnnnnnnnnnnnnnnnnnnnvvvvvvvvvvvvvvlvlO<;;;;;;;;;G",
"GGG444444444444nnnnnnnnnnnnnnnnnnnvvvvvvvvvvlvvllvllOO;;;;;;;;;G",
"GGG4444<444<4<4nnnnnnnnnnnnnvnnvvvvvvvvvvlvlvlllvlllOOO;;;;;;;;G",
"GGG444444444444nnnnnnnnvnvvvvvvvvvvvvvvlvlvlvllvllllOOOO;;;;;;;G",
"GGG<<<<<<<<4<4<nnnnnnnnvvvvvvvvvvvvvvlvvvvllvlllllllOOOO;;;;;&&G",
"GGG4<<<4<<4<<<<vnnvvvvvvvvvvvvvvvvllvvllllvlllllllllOOOO;;;;;&;G",
"GGG<<<<<<<<<<<<vvvvvvvvvvvvvvvvvvvvvllvlvlllllllllllOOOO;;;&&;;G",
"GGG<<<<<<<<<<<<vvvvvvvvvvvvlvlvvvllvllvllllllllllllyOOOO&;;;;;&G",
"GGG<<<<<<<<<<<<vvvvvvvvlvvvvvvllllvlvlllllllllllyllyOOOO;;&;&&;G",
"GGG<<<<<<<<<<<<vlvvvvlvvvvllllvvvlllllllllllllylllylOOOO&;;&&;&G",
"GGG<;<;<;<<<;<;vvvlvvlllllvlvlllllllllllllllyllllyylOOOO;&&;&&;G",
"GGG<<<<:<;<<<<<ooOOOOOOOOOOOOOOOOOOOOOOOOOOOOOOOOOOOOOOZZB8&&;&G",
"GGG:;::;<;;;;;<;OOOOOOOOOOOOOOOOOOOOOOOOOOOOOOOOOOOOOOZZZByO&&&G",
"GGG<::::;<;<;;<<OOOOOOOOOOOoOOOOOOOOOOOoOOOOOOOOOOOOOVZFCM8OOO&G",
"GGG:::::;<;<<;;;;;;;;;;;;;;;;;;;;;;;;;;;;;;;&;;;;;&&;NCVNl;XoOOG",
"GGG;;;;;;;;;;;;;;;;;;;;;;;;;;;;;;;;;;;;;;;&;&;;&&&;&;&nnl<OXOOOG",
"GGG;;;;;;;;;;;;;;;;;;;;;;;;;;;;;;;;&&;&;;&;;;&&&;&&;&&&<@OXoOOOG",
"GGG;;;;;;;;;;;;;;;;;;;;;;;;;;;;&;&;;;;&;&;&;&&&;&;&&&&&XXXOOOOOG",
"GGG;;;;;;;;;;;;;;;;;;;;;;;;;&;;;;;;&&;;&&;&&&;;&;&&&&&&&&OOOOOOG",
"GGG;;;;;;;;;;;;;;;;;;&;&;;&;&;;&;;;;&;;&;&&;;&&&&&&&&&&&&&OOOOOG",
"GGG;;&&;;&;&;&&;;&&;&;;&;&&;;;&;&&&&;&&&&&;&&&&&&&&&&&&&&&&OOOOG",
"GGG;;;&;&&;;;;;;;;&;;;&;;;;;;&&;&&&;&&;;&&&&&&&&&&&&&&&&&&&OOOOG",
"GGG;&;;&;;&;&&;&&;;;;&&;&&&&&;&&&;;&&;&&&&&&&&&&&&&&&&&&&&&&OOOG",
"GGG;;;;;;;&&&&;&&;&&&&&;&;&;&&;&&;&&&&&&&&&&&&&&&&&&&&&&&&&&&OOG",
"GGG&&&;&&&;;&;;&;&&;;;&&&&;&&;&&&&&&&&&&&&&&&&&&&&&&&&&@&&@@&&OG",
"GGG;&&;&&&;&&&&&;&;&&;&;;&&&&&&&&&&&&&&&&&&&&&&&&&&&&&&&@&@&&&&G",
"GGG&;&&;&;&&;;&;&&&&&&&&&&&&&&&&&&&&&&&&&&&&&&&&&&&&@@@&&@&&@&@G",
"GGG&&&&&&&&&&&&&&&&&&&&&&&&&&&&&&&&&&&&&&&&&&&&&&&&@&@@&&@&&@&@G",
"GGG&&&&&&&&&&&&&&&&&&&&&&&&&&&&&&&&&&&&&&&&&&&&&@@&&&&&@&&@&@@@G",
"GGG&&&&&&&&&&&&&&&&&&&&&&&&&&&&&&&&&&&&&&&@&@&&@&@&@@&&&@&@@@@&G",
"GGGO&&&&&&&&&&&&&&&&&&&&&&&&&&&&&&&&&&&&&@&&&@@&&&&@&@&@@@@&&&@G",
"GGGO&&&&&&&&&&&&&&&&&&&&&&&&&&&&&&&&@&@&@&@@&@@&@&@&@@&@@&&@@@&G",
"GGGO&&&&&&&&&&&&&&&&&&&&&&&&&&&@&@&@&@@&&&&&@&&&@@@@&@@&&@@&&@@G",
"GGGO&&&&&&&&&&&&&&&&&&&&@&&@&@&@@&@&&&&&&@&&&@&@@&&@&@@&@@@@@@@G",
"GGGOo&&&&&&&&&&&@&@&@&@&&&@&&@&&@&&&@@&@&@@@&@@&@@@&@&@@&@@@@@@G"
};
