/* XPM */
static char * door_glass_xpm[] = {
"64 64 6 1",
" 	c None",
".	c #353535",
"+	c #727272",
"@	c #383838",
"#	c #4C4C4C",
"$	c #91ACAD",
"                                                                ",
"                                                                ",
"                                                                ",
"                                                                ",
"            .................................+                  ",
"            .@@@@@@@@@@@@@@@@@@@@@@@@@@@@@@@++                  ",
"            .##############################+++                  ",
"            .+++++++++++++++++++++++++++++++++                  ",
"            .+$$$$$$$$$$$$$$$$$$$$$$$$$$$$$$++                  ",
"            .+$$$$$$$$$$$$$$$$$$$$$$$$$$$$$$++                  ",
"            .+$$$$$$$$$$$$$$$$$$$$$$$$$$$$$$++                  ",
"            .+$$$$$$$$$$$$$$$$$$$$$$$$$$$$$$++                  ",
"            .+$$$$$$$$$$$$$$$$$$$$$$$$$$$$$$++                  ",
"            .+$$$$$$$$$$$$$$$$$$$$$$$$$$$$$$++                  ",
"            .+$$$$$$$$$$$$$$$$$$$$$$$$$$$$$$++                  ",
"            .+$$$$$$$$$$$$$$$$$$$$$$$$$$$$$$++                  ",
"            .+$$$$$$$$$$$$$$$$$$$$$$$$$$$$$$++                  ",
"            .+$$$$$$$$$$$$$$$$$$$$$$$$$$$$$$++                  ",
"            .+$$$$$$$$$$$$$$$$$$$$$$$$$$$$$$++                  ",
"            .+$$$$$$$$$$$$$$$$$$$$$$$$$$$$$$++                  ",
"            .+$$$$$$$$$$$$$$$$$$$$$$$$$$$$$$++                  ",
"            .+$$$$$$$$$$$$$$$$$$$$$$$$$$$$$$++                  ",
"            .+$$$$$$$$$$$$$$$$$$$$$$$$$$$$$$++                  ",
"            .+$$$$$$$$$$$$$$$$$$$$$$$$$$$$$$++                  ",
"            .+$$$$$$$$$$$$$$$$$$$$$$$$$$$$$$++                  ",
"            .+$$$$$$$$$$$$$$$$$$$$$$$$$$$$$$++                  ",
"            .+$$$$$$$$$$$$$$$$$$$$$$$$$$$$$$++                  ",
"            .+$$+$$$$$$$$$$$$$$$$$$$$$$$$$$$++                  ",
"            .+$#+$$$$$$$$$$$$$$$$$$$$$$$$$$$++                  ",
"            .+$##$$$$$$$$$$$$$$$$$$$$$$$$$$$++                  ",
"            .++##+++++++++++++++++++++++++++++                  ",
"            .+$##$$$$$$$$$$$$$$$$$$$$$$$$$$$++                  ",
"            .+$##$$$$$$$$$$$$$$$$$$$$$$$$$$$++                  ",
"            .+$##$$$$$$$$$$$$$$$$$$$$$$$$$$$++                  ",
"            .+$++$$$$$$$$$$$$$$$$$$$$$$$$$$$++                  ",
"            .+$$$$$$$$$$$$$$$$$$$$$$$$$$$$$$++                  ",
"            .+$$$$$$$$$$$$$$$$$$$$$$$$$$$$$$++                  ",
"            .+$$$$$$$$$$$$$$$$$$$$$$$$$$$$$$++                  ",
"            .+$$$$$$$$$$$$$$$$$$$$$$$$$$$$$$++                  ",
"            .+$$$$$$$$$$$$$$$$$$$$$$$$$$$$$$++                  ",
"            .+$$$$$$$$$$$$$$$$$$$$$$$$$$$$$$++                  ",
"            .+$$$$$$$$$$$$$$$$$$$$$$$$$$$$$$++                  ",
"            .+$$$$$$$$$$$$$$$$$$$$$$$$$$$$$$++                  ",
"            .+$$$$$$$$$$$$$$$$$$$$$$$$$$$$$$++                  ",
"            .+$$$$$$$$$$$$$$$$$$$$$$$$$$$$$$++                  ",
"            .+$$$$$$$$$$$$$$$$$$$$$$$$$$$$$$++                  ",
"            .+$$$$$$$$$$$$$$$$$$$$$$$$$$$$$$++                  ",
"            .+$$$$$$$$$$$$$$$$$$$$$$$$$$$$$$++                  ",
"            .+$$$$$$$$$$$$$$$$$$$$$$$$$$$$$$++                  ",
"            .+$$$$$$$$$$$$$$$$$$$$$$$$$$$$$$++                  ",
"            .+$$$$$$$$$$$$$$$$$$$$$$$$$$$$$$++                  ",
"            .+$$$$$$$$$$$$$$$$$$$$$$$$$$$$$$++                  ",
"            .+$$$$$$$$$$$$$$$$$$$$$$$$$$$$$$++                  ",
"            .+$$$$$$$$$$$$$$$$$$$$$$$$$$$$$$++                  ",
"            .+$$$$$$$$$$$$$$$$$$$$$$$$$$$$$$++                  ",
"            .+$$$$$$$$$$$$$$$$$$$$$$$$$$$$$$++                  ",
"            .+$$$$$$$$$$$$$$$$$$$$$$$$$$$$$$++                  ",
"            .+$$$$$$$$$$$$$$$$$$$$$$$$$$$$$$++                  ",
"            .+$$$$$$$$$$$$$$$$$$$$$$$$$$$$$$++                  ",
"            .+$$$$$$$$$$$$$$$$$$$$$$$$$$$$$$++                  ",
"            ++++++++++++++++++++++++++++++++++                  ",
"           +                                  +                 ",
"          ++++++++++++++++++++++++++++++++++++++                ",
"                                                                "};
