/* XPM */
static char *magick[] = {
/* columns rows colors chars-per-pixel */
"64 64 65 1",
"  c #020102",
". c #050304",
"X c #060505",
"o c #090304",
"O c #090606",
"+ c #0d0806",
"@ c #0a0808",
"# c #0d0909",
"$ c #120906",
"% c #110a09",
"& c #120c0b",
"* c #150a09",
"= c #150d0a",
"- c #160d0d",
"; c #1b0b06",
": c #1a0d0a",
"> c #1a0e0d",
", c #1d0d0b",
"< c #1a110e",
"1 c #1d110d",
"2 c #161110",
"3 c #1d1311",
"4 c #250706",
"5 c #250f07",
"6 c #21120e",
"7 c #24130e",
"8 c #2c130a",
"9 c #221411",
"0 c #251611",
"q c #241a16",
"w c #2a1611",
"e c #2b1a14",
"r c #360503",
"t c #3c0101",
"y c #34160a",
"u c #3a190c",
"i c #301e19",
"p c #430201",
"a c #4b0402",
"s c #4a0a06",
"d c #451d0e",
"f c #4d1b13",
"g c #560a06",
"h c #5d0b05",
"j c #59110b",
"k c #4c2210",
"l c #64130b",
"z c #6c150a",
"x c #6a1a12",
"c c #77190c",
"v c #751f13",
"b c #642a15",
"n c #7c2114",
"m c #755300",
"M c #871f0d",
"N c #832314",
"B c #8c2513",
"V c #932713",
"C c #9c2a14",
"Z c #a32c13",
"A c #ad2f14",
"S c #8f6200",
"D c Magenta",
"F c #f6b200",
"G c None",
/* pixels */
"GGGGGGGGGGGGGGGGGGGGGGGGGGGGGGGGGGGGGGGGGGGGGGGGGGGGGGGGGGGGGGGG",
"GGGGGGGGGGGGGGGGGGGGGGGGGGGGGGGGGGGGGGGGGGGGGGGGGGGGGGGGGGGGGGGG",
"GGGGGGGGGGGGGGGGGGGGGGGGGGGGGGGGGGGGGGGGGGGGGGGGGGGGGGGGGGGGGGGG",
"GGGGGGGGGGGGGGGGGGGGGGGGGGGGGGGGGGGGGGGGGGGGGGGGGGGGGGGGGGGGGGGG",
"GGGGGGGGGGGGGGGGGGGGGGGGGGGGGGGGGGGGGGGGGGGGGGGGGGGGGGGGGGGGGGGG",
"GGGGGGGGGGGGGGGGGGGGGGGGGGGGGGGGGGGGGGGGGGGGGGGGGGGGGGGGGGGGGGGG",
"GGGGGGGGGGGGGGGGGGGGGGGGGGGGGGGGGGGGGGGGGGGGGGGGGGGGGGGGGGGGGGGG",
"GGGGGGGGGGGGGGGGGGGGGGGGGGGGGGGGGGGGGGGGGGGGGGGGGGGGGGGGGGGGGGGG",
"GGGGGGGGGGGGGGGGGGGGGGGGGGGGGGGGGGGGGGGGGGGGGGGGGGGGGGGGGGGGGGGG",
"GGGGGGGGGGGGGGGGGGGGGGGGGGGGGGGGGGGGGGGGGGGGGGGGGGGGGGGGGGGGGGGG",
"GGGGGGGGGGGGGlptgMCtjCcpgZacZaaAAMcpgzAAAatlpBlpttsGGGGGGGGGGGGG",
"GGGGGGGGGGGGGlCCctzazZztgZBacCCMapaMZVlZZhagVhavvxpGGGGGGGGGGGGG",
"GGGGGGGGGGGGGChtCZphcAzahZCCgaathzNVlgpBZlrhNBNltlxGGGGGGGGGGGGG",
"GGGGGGGGGGGGGCBscZMAMtMAAtacNnvjpppvNaBtpVCChaaxvxprGGGGGGGGGGGG",
"GGGGGGGGGGGGGVjhsVAMtpCAAaVhvvxjrptgnvNVVCVBpnNgsppjGGGGGGGGGGGG",
"GGGGGGGGGGGGGCCBaphZAAchpCrBaajxxjsppNrhnsagBhpnnvvxGGGGGGGGGGGG",
"GGGGGGGGGGGGVZVctgCagcccVzpvnlstjvllnNaplBBlzNtxvvvvGGGGGGGGGGGG",
"GGGGGGGGGGGGpcBZCzpBaappgNjpnNngtgnsrgNNjplNlpnlgttpGGGGGGGGGGGG",
"GGGGGGGGGGGGAAMggVcNjpajvnchsnBpppscNN4hnnnlpnnttjvvGGGGGGGGGGGG",
"GGGGGGGGGGGGpcAZctNvvlppjvnnapBzppggpjngapjxvstvvltsxGGGGGGGGGGG",
"GGGGGGGGGGGGZtacVzhgrsxxgpahBlpVccncppnvjgrrvxhlvvptaGGGGGGGGGGG",
"GGGGGGGGGGGGvsrryfufdrrddr44ff4bffffr4ffu444fd4fff444GGGGGGGGGGG",
"GGGGGGGGGGGGG5O: + 6O+X&X X#OO3X:23=>1>1*+%$1*>&.#dGGGGGGGGGGGGG",
"GGGGGGGGGGGGG88+*O.1*+ @#O:6&O &O:1#@0$+$q,+.$1o+okGGGGGGGGGGGGG",
"GGGGGGGGGGGGGyu <.%1#$X+.6,$$X@  1=#O=XO10q *++%O2bGGGGGGGGGGGGG",
"GGGGGGGGGGGGG85 ;>X##&@:$#%$+= <+$3+>&X$319#O O#=6bGGGGGGGGGGGGG",
"GGGGGGGGGGGGGduO.3O#9:+*3%%3#+1>&><.+3 X:%$O#X73X0GGGGGGGGGGGGGG",
"GGGGGGGGGGGGGkkO%O$6%-39*%+OXFFFFFF%&. X#$-#<100>.GGGGGGGGGGGGGG",
"GGGGGGGGGGGGGuu%%:.*,,9**#&9O%,+.16%- O .O 21i09=@GGGGGGGGGGGGGG",
"GGGGGGGGGGGGGyd&O$<3;:$$+:6X&&+%O*6+X O. X@O$:e60%GGGGGGGGGGGGGG",
"GGGGGGGGGGGGGuy*<7%.<,>%.9q +&@7<66+<=@#OO+#e7e0 .GGGGGGGGGGGGGG",
"GGGGGGGGGGGGGuu,6,0 21.O #O X+1%&qe#e<.O X <  3-eeGGGGGGGGGGGGGG",
"GGGGGGGGGGGGGGuO+.$%O<.-%&-*#%+O3<&#3<2&. .     +iGGGGGGGGGGGGGG",
"GGGGGGGGGGGGGGu62@%@%,q+#<< 9<.+-we+$1,:9>9O0%: o$GGGGGGGGGGGGGG",
"GGGGGGGGGGGGGGy%6-&11+OX$2oe9*.#@;0X$wO7$8:O&%, O>GGGGGGGGGGGGGG",
"GGGGGGGGGGGGGGy %636+.:%9O,w6- # 9O:<*O,16, &$%X$6GGGGGGGGGGGGGG",
"GGGGGGGGGGGGGGuO> #%O*3*1+36+&<i+.,>$Oww*$@@oX*%-*GGGGGGGGGGGGGG",
"GGGGGGGGGGGGGGy##-::9:,*<0. ++6, &+.=1. >%<: 0q&.2GGGGGGGGGGGGGG",
"GGGGGGGGGGGGGGy#7:*w0e=93%O@+SSSSSS&X OO*XX*37w0#yGGGGGGGGGGGGGG",
"GGGGGGGGGGGGGGyu,:,2e90wO@:&##-&+6-<OO X.##*00->:uGGGGGGGGGGGGGG",
"GGGGGGGGGGGGGGyk16#+9wwq0--+*.:&@6e=<XXo@O%q7w6w*dGGGGGGGGGGGGGG",
"GGGGGGGGGGGGGGyy67,3+,3.@eXX3X3<&-6->*OO#O.=:66X7yGGGGGGGGGGGGGG",
"GGGGGGGGGGGGGG85+:e1,,.,.X%X 2&@#&o> XoX  O@   X@8GGGGGGGGGGGGGG",
"GGGGGGGGGGGGGG5;.O#X%-o..-@O%-XX%0w=%,:,06: :=,@*8GGGGGGGGGGGGGG",
"GGGGGGGGGGGGGG5;%7&-1=##1&.i6$O#O;0.+e+6$7>#<1*X&uGGGGGGGGGGGGGG",
"GGGGGGGGGGGGGG;;&-:e% ,X1.>w,&.&.0<,*$<7=>% -**O+8GGGGGGGGGGGGGG",
"GGGGGGGGGGGGGG55<%.> 0<;:.#21#<i:+*2> 5w%*=X X@$:yGGGGGGGGGGGGGG",
"GGGGGGGGGGGGGG55&.2%&<0#0w+2>&*,X>=&1  q9#o+O$,%,5GGGGGGGGGGGGGG",
"GGGGGGGGGGGGGGG;**<:w0*w33OX1mmmmmmO#. O*O%,7;i- uGGGGGGGGGGGGGG",
"GGGGGGGGGGGGGGG56$$+w61<#-*-<3:#&:7&. OXoXO=>e-0.yGGGGGGGGGGGGGG",
"GGGGGGGGGGGGGGG5:7*%2,7&#<-#2$=:3&69q&.+ *O%%6w.:8GGGGGGGGGGGGGG",
"GGGGGGGGGGGGGGG8673<&&XXX%.*.+=-::i0,1# X.+:.3.,euGGGGGGGGGGGGGG",
"GGGGGGGGGGGGGGG;O O@..O+.%+&*.OX%:,,>7,;$OXX<O qXuGGGGGGGGGGGGGG",
"GGGGGGGGGGGGGGG5$;qO*7- .@oi** <@+6O6w0:Ow%o*1o& uGGGGGGGGGGGGGG",
"GGGGGGGGGGGGGGG5.+=#-332&O7-*O@ .:7=OXOOO6 2$#--yyGGGGGGGGGGGGGG",
"GGGGGGGGGGGGGGG5X:%.oO$%<#93:+=w$O%:%ow,%>O=O%@*yGGGGGGGGGGGGGGG",
"GGGGGGGGGGGGGGG8 &O.#*02*0#%@#<6%1.%1@%31#*6 ,*6yGGGGGGGGGGGGGGG",
"GGGGGGGGGGGGGGGy@+3 =::1&>&#-F6eXX9#+- %:=*Xe17O8GGGGGGGGGGGGGGG",
"GGGGGGGGGGGGGGGd*w$@&,=1%&:=0&>%&:9@.XX.O@$$iq71;GGGGGGGGGGGGGGG",
"GGGGGGGGGGGGGGGy>8:2 0w6:=3#X#>:>16q##.X.%.=>72&yGGGGGGGGGGGGGGG",
"GGGGGGGGGGGGGGGy,ewq2OX.X&@:O%1@@-099,.@X.+*@. w8GGGGGGGGGGGGGGG",
"GGGGGGGGGGGGGGG8u85u8uuuuuudkkdddddkdkdkkkdy8y8kdGGGGGGGGGGGGGGG",
"GGGGGGGGGGGGGGGGGGGGGGGGGGGGGGGGGGGGGGGGGGGGGGGGGGGGGGGGGGGGGGGG",
"GGGGGGGGGGGGGGGGGGGGGGGGGGGGGGGGGGGGGGGGGGGGGGGGGGGGGGGGGGGGGGGG"
};
