/* XPM */
static char *magick[] = {
/* columns rows colors chars-per-pixel */
"64 64 65 1",
"  c #202020",
". c Gray14",
"X c #252525",
"o c #282828",
"O c #343434",
"+ c #353535",
"@ c Gray21",
"# c #373737",
"$ c Gray22",
"% c #393939",
"& c #3a3a3a",
"* c Gray23",
"= c #3c3c3c",
"- c Gray24",
"; c #3e3e3e",
": c #3f3f3f",
"> c #600000",
", c #700000",
"< c #770000",
"1 c #7b0000",
"2 c #7f0000",
"3 c Gray25",
"4 c #414141",
"5 c Gray26",
"6 c #434343",
"7 c Gray28",
"8 c #4b4b4b",
"9 c #505050",
"0 c Gray46",
"q c #830000",
"w c #8a0000",
"e c #8d0000",
"r c #8f0000",
"t c #940101",
"y c #9b0101",
"u c #a50000",
"i c #af0000",
"p c #b30000",
"a c #b60000",
"s c #b90000",
"d c #be0000",
"f c #c10000",
"g c #c60000",
"h c #c90000",
"j c #ce0000",
"k c #d20000",
"l c #d60000",
"z c #da0000",
"x c #de0000",
"c c #e20000",
"v c #e60000",
"b c #e90000",
"n c #f00000",
"m c #f60000",
"M c #f90000",
"N c Red",
"B c #ff1818",
"V c #ff5353",
"C c Magenta",
"Z c #9a9a9a",
"A c Gray62",
"S c #a2a2a2",
"D c Gray65",
"F c Gray66",
"G c None",
/* pixels */
"GGGGGGGGGGGGGGGGGGGGGGGGGGGGGGGGGGGGGGGGGGGGGGGGGGGGGGGGGGGGGGGG",
"GGGGGGGGGGGGGGGGGGGGGGGGGGGGGGGGGGGGGGGGGGGGGGGGGGGGGGGGGGGGGGGG",
"GGGGGGGGGGGGGGGGGGGGGGGGGGGGGGGGGGGGGGGGGGGGGGGGGGGGGGGGGGGGGGGG",
"GGGGGGGGGGGGGGGGGGGGGGGGGGGGGGGGGGGGGGGGGGGGGGGGGGGGGGGGGGGGGGGG",
"GGGGGGGGGGGGGGGGGGGGGGGGGGGGGGGGGGGGGGGGGGGGGGGGGGGGGGGGGGGGGGGG",
"GGGGGGGGGGGGGGGGGGGGGGGGGGGGGGGGGGGGGGGGGGGGGGGGGGGGGGGGGGGGGGGG",
"GGGGGGGGGGGGGGGGGGGGGGGGGGGGGGGGGGGGGGGGGGGGGGGGGGGGGGGGGGGGGGGG",
"GGGGGGGGGGGGGGGGGGGGGGGGGGGGGGGGGGGGGGGGGGGGGGGGGGGGGGGGGGGGGGGG",
"GGGGGGGGGGGGGGGGGGGGGGGGGGGGGGGGGGGGGGGGGGGGGGGGGGGGGGGGGGGGGGGG",
"GGGGGGGGGGGGGGGGGGGGGGGGGGGGGGGGGGGGGGGGGGGGGGGGGGGGGGGGGGGGGGGG",
"GGGGGGGGGGGGGGGGGGGGGGGGGGGGGGGGGGGGGGGGGGGGGGGGGGGGGGGGGGGGGGGG",
"GGGGGGGGGGGGGGGGGGGGGGGGGGGGGGGGGGGGGGGGGGGGGGGGGGGGGGGGGGGGGGGG",
"GGGGGGGGGGGGGGGGGGGGGGGGGGGGGGGGGGGGGGGGGGGGGGGGGGGGGGGGGGGGGGGG",
"GGGGGGGGGGGGGGGGGGGGGGGGGGGGGGGGGGGGGGGGGGGGGGGGGGGGGGGGGGGGGGGG",
"GGGGGGGGGGGGGGGGGGGGGGGGGGGGGGGGGGGGGGGGGGGGGGGGGGGGGGGGGGGGGGGG",
"GGGGGGGGGGGGGGGGGGGGGGGGGGGGGGGGGGGGGGGGGGGGGGGGGGGGGGGGGGGGGGGG",
"GGGGGGGGGGGGGGGGGGGGGGGGGGGGGGGGGGGGGGGGGGGGGGGGGGGGGGGGGGGGGGGG",
"GGGGGGGGGGGGGGGGGGGGGGGGGGGGGGGGGGGGGGGGGGGGGGGGGGGGGGGGGGGGGGGG",
"GGGGGGGGGGGGGGGGGGGGGGGGGGGGGGGGGGGGGGGGGGGGGGGGGGGGGGGGGGGGGGGG",
"GGGGGGGGGGGGGGGGGGGGGGGGGGGGGGGGGGGGGGGGGGGGGGGGGGGGGGGGGGGGGGGG",
"GGGGGGGGGGGGGGGGGGGGGGGGGGGGGGGGGGGGGGGGGGGGGGGGGGGGGGGGGGGGGGGG",
"GGGGGGGGGGGGGGGGGGGGG22tGGG2eGGGGGGGGGGGGGGGGGGGGGGGGGGGGGGGGGGG",
"GGGGGGGGGGGGG22e<GGGG2ylpG22tyG...............GGGGGGGGGGGGGGGGGG",
"GGGGGGGGGGGG22qslGGGG2dBlGe2etG...............GG2eGqGGGGGGGGGGGG",
"GGGGGGGGGGGG22ykBjGGGegMxGe<1>G...............GGvcGbtGGGGGGGGGGG",
"GGGGGGGGGGGG22ixVNGGGegccGe1,>G...............GGMbGmaGGGGGGGGGGG",
"GGGGGGGGGGGGGqizmGGGGegccGe1,>G...............GGMbGmaGGGGGGGGGGG",
"GGGGGGGGGGGGGGeaGGGGGtgccGe1,>G*====6668889999GGMbGmaGGGGGGGGGGG",
"GGGGGGGGGGGGGGGGGGGGGegccGe1,>G*===6=666677777GGMbGmaGGGGGGGGGGG",
"GGGGGGGGGGGGGGGGGGGGGegccGe1,>G=====6666666666GGMvGmaGGGGGGGGGGG",
"GGGGGGGG000000000000GegcxGe1,>G====666=6666666GGMvGmaGGGGGGGGGGG",
"GGGGGGGGZZZAAASSSDDFGegcxGe1,>G=======66666666GGmvGnaGGGGGGGGGGG",
"GGGGGGGGZZZAAASSSDDFGegxxGe1,>G*===66666=ooo66GGmcGnpGGGGGGGGGGG",
"GGGGGGGGZZZZAAASSDDFGegxxGe1,>G*======6=666666GGncGnpGGGGGGGGGGG",
"GGGGGGGGZZZZAAASSSDDGegxzGe1,>G**======666666=GGncGnpGGGGGGGGGGG",
"GGGGGGGGGGGGGGGGGGGGGefxzGe1,>G***=======66666GGnxGbpGGGGGGGGGGG",
"GGGGGGGGGGGGGGGGGGGGGefzzGe1,>G****===6==66666GGnxGbiGGGGGGGGGGG",
"GGGGGGGGGGGGGGGGGGGGGefzlGe1,>G*****=====6====GGbzGbiGGGGGGGGGGG",
"GGGGGGGGGGGGGGGGGGGGGefllGe1,>G******=========GGbzGviGGGGGGGGGGG",
"GGGGGGGGGGGGGGGGGGGGGedlkGe1,>G*@******=======GGvlGciGGGGGGGGGGG",
"GGGGGGGGGGGGGGGGGGGGGedlkGe1,>G@@***@********=GGMNGVhGGGGGGGGGGG",
"GGGGGGGGGGGGGGGGGGGGGedkjGw1,>G@@@*@**********GGGGGqGGGGGGGGGGGG",
"GGGGGGGGGGGGGGGGGGGGGedkjGw1,>G@@@@@**@****@**GGGGGGGGGGGGGGGGGG",
"GGGGGGGGGGGGGGGGGGGGGesjjGw1,>G@@@@@@@@*@@*@**GGGGGGGGGGGGGGGGGG",
"GGGGGGGGGGGGGGGGGGGGGesjhGw1,>GO@@@@@@@@*@@@**GGGGGGGGGGGGGGGGGG",
"GGGGGGGGGGGGGGGGGGGGGeshhGw1,>GOO@@@@@@@@   @@GGGGGGGGGGGGGGGGGG",
"GGGGGGGGGGGGGGGGGGGGGeahgGw1,>GOOO@@@@@@@@@@@@GGGGGGGGGGGGGGGGGG",
"GGGGGGGGGGGGGGGGGGGGGwahgGw1,>G@OOOO@@@@@@@@@@GGGGGGGGGGGGGGGGGG",
"GGGGGGGGGGGGGGGGGGGGGwpgfGw1,>G@@@OOOO@@@@@@@@GGGGGGGGGGGGGGGGGG",
"GGGGGGGGGGGGGGGGGGGGGwpgfGw1,>GGGGGGGGGGGGGGGGGGGGGGGGGGGGGGGGGG",
"GGGGGGGGGGGGGGGGGGGGGwpfdGw1,>GGGGGGGGGGGGGGGGGGGGGGGGGGGGGGGGGG",
"GGGGGGGGGGGGGGGGGGGGGwifdGw1,>GGGGGGGGGGGGGGGGGGGGGGGGGGGGGGGGGG",
"GGGGGGGGGGGGGGGGGGGGGwidsGwijlGGGGGGGGGGGGGGGGGGGGGGGGGGGGGGGGGG",
"GGGGGGGGGGGGGGGGGGGGGuzbgGulNMGGGGGGGGGGGGGGGGGGGGGGGGGGGGGGGGGG",
"GGGGGGGGGGGGGGGGGGGGG<ufGG<ufpGGGGGGGGGGGGGGGGGGGGGGGGGGGGGGGGGG",
"GGGGGGGGGGGGGGGGGGGGGGGGGGGGGGGGGGGGGGGGGGGGGGGGGGGGGGGGGGGGGGGG",
"GGGGGGGGGGGGGGGGGGGGGGGGGGGGGGGGGGGGGGGGGGGGGGGGGGGGGGGGGGGGGGGG",
"GGGGGGGGGGGGGGGGGGGGGGGGGGGGGGGGGGGGGGGGGGGGGGGGGGGGGGGGGGGGGGGG",
"GGGGGGGGGGGGGGGGGGGGGGGGGGGGGGGGGGGGGGGGGGGGGGGGGGGGGGGGGGGGGGGG",
"GGGGGGGGGGGGGGGGGGGGGGGGGGGGGGGGGGGGGGGGGGGGGGGGGGGGGGGGGGGGGGGG",
"GGGGGGGGGGGGGGGGGGGGGGGGGGGGGGGGGGGGGGGGGGGGGGGGGGGGGGGGGGGGGGGG",
"GGGGGGGGGGGGGGGGGGGGGGGGGGGGGGGGGGGGGGGGGGGGGGGGGGGGGGGGGGGGGGGG",
"GGGGGGGGGGGGGGGGGGGGGGGGGGGGGGGGGGGGGGGGGGGGGGGGGGGGGGGGGGGGGGGG",
"GGGGGGGGGGGGGGGGGGGGGGGGGGGGGGGGGGGGGGGGGGGGGGGGGGGGGGGGGGGGGGGG"
};
