/* XPM */
static char * fence_wood_l_xpm[] = {
"64 64 65 1",
" 	c None",
".	c #060204",
"+	c #765224",
"@	c #7A7A44",
"#	c #A57D4C",
"$	c #766834",
"%	c #966634",
"&	c #868A5C",
"*	c #907C4A",
"=	c #787441",
"-	c #A69264",
";	c #82824C",
">	c #562E0C",
",	c #866834",
"'	c #96723C",
")	c #8F8453",
"!	c #5E3E1C",
"~	c #8A5E2C",
"{	c #887440",
"]	c #A28654",
"^	c #897A45",
"/	c #BE9264",
"(	c #765E2C",
"_	c #807442",
":	c #AA723C",
"<	c #6A4E1C",
"[	c #7A6E3C",
"}	c #9E7E4C",
"|	c #878451",
"1	c #827D4B",
"2	c #B18254",
"3	c #968A5C",
"4	c #967A44",
"5	c #AC915F",
"6	c #360A04",
"7	c #4F2104",
"8	c #7E360C",
"9	c #623814",
"0	c #B68654",
"a	c #6E4214",
"b	c #B69A6C",
"c	c #3E1604",
"d	c #7E5224",
"e	c #9E8254",
"f	c #82622C",
"g	c #6E5A2C",
"h	c #9A6E3C",
"i	c #5E320C",
"j	c #5F4615",
"k	c #C69E6C",
"l	c #8A9264",
"m	c #866E3C",
"n	c #7E5A24",
"o	c #9A7644",
"p	c #965E2C",
"q	c #AA8654",
"r	c #724C20",
"s	c #9A6A34",
"t	c #5E2A04",
"u	c #968254",
"v	c #8E7644",
"w	c #BE8A5C",
"x	c #76461C",
"y	c #AA7E4C",
"z	c #7E7E4C",
".==;--}q.m^{@@@=.adv7({;.;}llohh.o,m^;;&.o::h}$,.qmhos}{.{ms,~%~",
".===553-.{vm==@@.angjmv^.;4l&4's.:,m@;;&.::#44h'.bfo''}m.,m,~%%p",
".===]qqu.{{vm_;@.<n<{'vh.&y&))#h.o{{;;|1.ss}4,35./,},'om.m_{~s%~",
"._=={#2e.m{v{;z$.f{{g}}m.|y|]qy'.{'v;;;|.m,f,,|3.oo'fo'v.mz_h%,,",
".c6tti$o.f$,=;*o.xxa~v%x.ndz;22'.:2y,z@x.8<8f,|;.fo7xv((.f;_[$o4",
".77ita$(.,@f_1,f.wy,d,88.,f@*h#o.%22*_ra.oiif=;v.,,>7of$.m1_,{,f",
".xadta$[.=@nekqf.k(mdm88.,s1s:::.#55[:aa.2wif,;f.}m^77}m.zznqk2f",
".<(fn($(.=,fkkk/.m$$~d88.,s*%::s.#-{t#<~.qq'y#}{.{mva7d].@mfkkk/",
".($$[[$[.zookkkk.($,,p%~.~o##:::.#5a7snf.q/qq4{m.v{v,(,&.@4okkkk",
".[[[_$$=.edokkkq.$${moee.:q2ys:#.2-77,,f.n~wq#4{.^^{}]&l.]dokkkq",
".n[d^$$=.]c<kkko.$(v{&&-.www:::/./-78,,n.77o#2qm.v^me;ll.qc<kkk4",
".7g7^$$,.q77////.[$$[|--.wwwos//./-t:,,n.777~4#v.v{'-|ll.277////",
".7tm{i>(.qyc~m{$.=$%$--5.wwwyo//.//0}f,,.777p%o~.,[v=el&.]y7~m{[",
".nn([x~g.v,~fy#[.[=%${b-.www%/0/./2/3v{,.<7d%%%~.fh=$[ll.v,df##$",
".[[$j8xn.$h{,0}=.@@'$m55.w::~]o].qyyqev,.d<ph%,,.so[[$@=.$'{,0}=",
".{{m777n.dymm}{@.;;4[h4-.yppp4vh.#yv}q{*.d'%'%hm.:'[[=$m.dymm}^@",
".{{{7i7n.<:v,{@@.;;}[m(0.%ppp4^~.#2mmeo{.4}%ss%%.::$[=[}.<:v,m@@",
".mmm7[>@.aiw,,=|.;@^%h(~.p~%p|;|.f]%,v2:.eq%hss%.#h====%.aiw,,=&",
".{{_$@==.aa{taf;.;;&&o%:.mp%;;;;.}:::m{#.,q%'sh,.4%'=f,~.aavtaf;",
".,vm@zz@.adv7g{;.;4llohs.o,mv;;|.o:hs}$~.0mh's}{.{ms,~%~.ad{7(_;",
".{v_=@z@.ad(!{{v.|}&|*'%.:,{@;||.::yoo'o.bfo''}m.m{,~%pp.adn!{1^",
".{_v,_@z.<n<{h^'.|#||;o'.'_m;;;|.ss4},-b./,}%''{.m${~h%~.r(<{v;v",
".m{v{^;_.${v(u},.|y|;|oh.m{{;;;;.m,,,,b-.ooofoh{.mn{%%%f.(vv(**m",
".,'7x^==.vv$>t>c.c6(zz$v.f$f$z;*.xxa~v%x.nddno'o.:y%,xaa.8<8f_|;",
".,,i7*,$.={(attc.77j_1$(.,@f,11,.w#,d,88.,nd'sh'.syy:aaa.'>i~=;^",
".4m^7<*{.$g(<aai.rxn9$$[.=@nqb|,.k({dm88.,%'%:::.455d:aa.0w>,,;,",
".vm{a!de.e(t<!j(.<(fn$$(.=mfkk55.m($~d88.,%o%::s.#-{tyaf.qq'##}m",
".vv{,fm&.^[7<d<[.($$[$$[.z4okkkk.$$,,p%~.~oy#:::.y5a7h(~.q/qqo{{",
".^^{}e|l.{{!<<<$.$[[{$$=.ud'kkk2.$${,oee.:22#:::.2-77,,f.n~wq}o{",
".^v{e;ll.m{$j<a<.f$d^[$=.qcrkkk4.$${{&|5.www::y/./-78m,n.77'yqqm",
".v{h-|ll.v{{$m(t.7g7{$$,.q77////.$$$=&-5.www'%//./-t:,,n.777~*yv",
".,[^[ell.-|eemm(.7t,^ii(.q:7~,m[.=$%$---.wwwyo//.//w}fm,.777%%',",
".f'=[[l&.}}^]-{(.n($[x~g.vmn,y#$.=[%${b5.www%b2/./2/e{{~.<7d%s%~",
".%o$[[@=.]v{vem$.[$$!8x(.$h{,2}=.@@h[m55.w::~qoq.qy#qevm.d<pss,,",
".:o$[[[,.-{v{vvm.{{m777n.dym{}^@.;;4$'45.yppp4vh.yy{}qvv.d'%h%hm",
".h:=$==}.-^^{v{m.{{_7i7n.<:v,,@@.;;4=,$2.%ppp}{,.}qmmeov.o#%s%%%",
".y:=[==p.-e},{v~.mm{7[7@.aiw,m=|.;@v%sn~.p~pp|;;.~q%mv]:.eqsh%ss",
".o%v=,,~.@v-qqm{.{{m$@[=.aavtaf|.;;&&o%:.{p,;;;;.}:::,{#.,qs'shm",
".mms,~%~.=[;--4q.,^{=@@=.adv7g{1.;}l|ohs.'~m^;;|.'::h}ff.q,hos}{",
".mm,~%%p.===-5&5.{v[@=@@.adg!{v^.;4&|4's.:m{@;;&.::#4v'o.bf'''4m",
".m[_~h%~.@z@eq|&.v{{__@@.<n<{^1h.&y&;|oh.om{z;|;.ss}},)3./,#,oo{",
".m[1h%ff.1zzv}'o.m{v11@$.$vv$*}m.&};;lo'.m{m;;;;.m,f,,|).oo'fo'{",
".^1=9tic.[;=ti${.f$,_z*o.xxa_^%x.f_1;o''.:ysm@1_.8<8fm|;.,o7xv($",
".=1(attc.[z(ta$$.,@,11,f.w#m,m88.,_;1%'o.%#y:[;(.'iif[;v.,,i7of(",
".$((<aa>.x((ta($.=@f|52f.k(mdm88.,s;1:::.}--do@+.2w>,,;f.4,^77}{",
".e$7<!j(.<(fn($$.=mf]bk/.m($~+88.,,|^::s.:-{tygf.qq'y#}{.v{{a7de",
".*[t<d<[.($$[[$$.@*4kkkk.$$,,p%~.~o**:::.#5a7sn~.q/q24vm.vvv,fm&",
".m{!j<<$.[$[{$$=.ed'kkkq.$$mmoee.:qu#s:#.2-77,,f.n~wq4o{.^{{}e|l",
".m{$<<a<.([d^$$=.qc<k/ko.$$v{|&5.ww0::y/./-78,,n.77oyqqm.^^{e;ll",
".^m{$,(t.7(7^$$,.277////.[($[&--.wwwo%//./5t:,,n.777,4#v.v{h-&ll",
".-|e]m,(.7tm^i>(.q#7,,{$.=[%$--5.wwwy'//.//w}f,,.777p%of.f[^[ell",
".}*^e-{(.dn($r~g.vmd~y#[.[=%${b-.www%/0/./2/ev{,.<7d%%%~.f'[[[ll",
".]^v^e{$.[[$!8x(.(o{,2}=.@@'$m-5.w::~qo].q#yqev,.d<ph%,%.so[[$@=",
".-{v{v{{._vm777n.d#{{}^@.;;4[h4-.ypppovh.#y{}q{*.d'%h%hm.:v[$=$m",
".-v^v{{,.{v{7i7n.<:{mm@@.;;}[m(0.%p%p4^~.#q{meo{.o}%ss%%.::[[=[}",
".-]4,vvf.mm{7[7@.8iw,,=|.;@^%hf~.p~pp|;|.(2%,{2:.]qshsh%.#h====%",
".@v-eqmm.{m{$@[=.aa{taf;.;;&|o%:.mp,;;;;.}:::m{#.,q%'%h,.4%'=f,~",
".==;55}q.,^m@@@=.9dv7({;.;4ll'hs.o,,^;;|.oh:h}$~.q,h's}{.mms,~%~",
".===--&5.{{{==@@.ad(!m{^.|4ll4'%.:mm@;&|.::#oo'o.bfo''}m.,{,~%%p",
".===qq&|.{_{,[@@.<n<{'^h.|yll|o'.'{{;;;;.ss4},-b./,},''{.{${~s%~",
".{=={}'o.mv{vv@$.${{(}},.|yllloh.mm{;;;|.m,,,,b5.ooofoh{.m({s%,,",
".1{[itic.c6t>i$v.f$,$$44.xxa~{%x.nddn'''.:y%,xaa.8<8f,|;.,'7x{((",
".=_gattc.77i7a($.,@(,v,f.wy,d%88.,nd's''.sy#:xaa.'iif=|v.,,i7of$",
".$n(<aat.xxnta$$.=@nqk]~.kn{d{88.,%'%:::.}55d:aa.0wi~f1,.4mv77}m"};
