/* XPM */
static char *fire_extinguisher_small[] = {
/* width height num_colors chars_per_pixel */
"    64    64       55            1",
/* colors */
". c #000000",
"# c #0a0a0a",
"a c #171717",
"b c #352c2c",
"c c #413737",
"d c #670000",
"e c #740000",
"f c #7c0000",
"g c #7f0000",
"h c #7f1900",
"i c #7c4a00",
"j c #7e7e00",
"k c #4b4b4b",
"l c #585858",
"m c #745c5c",
"n c #6f6f6f",
"o c #860000",
"p c #960000",
"q c #9a0000",
"r c #9e0000",
"s c #991e00",
"t c #aa0000",
"u c #ae0000",
"v c #b10000",
"w c #bd0000",
"x c #ac2200",
"y c #825400",
"z c #995b00",
"A c #c60000",
"B c #ce0000",
"C c #d10000",
"D c #d50000",
"E c #dd0000",
"F c #c82800",
"G c #e20000",
"H c #e60000",
"I c #ec0000",
"J c #f10000",
"K c #f50000",
"L c #fb0202",
"M c #ff0000",
"N c #ff0a0a",
"O c #ff1c1c",
"P c #ff2828",
"Q c #ff3f3f",
"R c #ff5353",
"S c #ff6666",
"T c #ff7878",
"U c #868686",
"V c #aaaaaa",
"W c #ff8a8a",
"X c #ffcdcd",
"Y c #ffdada",
"Z c #fff2f2",
"0 c None",
/* pixels */
"0000000000000000000000000000000000000000000000000000000000000000",
"0000000000000000000000000000000000000000000000000000000000000000",
"0000000000000000000000000000000000000000000000000000000000000000",
"0000000000000000000000000000000000000000000000000000000000000000",
"0000000000000000000000000000000000000000000000000000000000000000",
"0000000000000000000000000000000000000000000000000000000000000000",
"0000000000000000000000000000000000000000000000000000000000000000",
"0000000000000000000000000000000000000000000000000000000000000000",
"0000000000000000000000000000000000000000000000000000000000000000",
"0000000000000000000000000000000000000000000000000000000000000000",
"0000000000000000000000000000000000000000000000000000000000000000",
"0000000000000000000000000000000000000000000000000000000000000000",
"0000000000000000000000000000000000000000000000000000000000000000",
"0000000000000000000000000000000000000000000000000000000000000000",
"0000000000000000000000000000000000000000000000000000000000000000",
"0000000000000000000000000000000000000000000000000000000000000000",
"0000000000000000000000000000000000000000000000000000000000000000",
"0000000000000000000000000000000000000000000000000000000000000000",
"0000000000000000000000000000000000000000000000000000000000000000",
"00000000000000000000...00000000000000000000000000000000000000000",
"0000000000000000000......000000000000000000000000000000000000000",
"000000000000000000...0....00000000000000000000000000000000000000",
"000000000000000000...00....0000000000000000000000000000000000000",
"0000000000000000000..0000...000...000000000000000000000000000000",
"0000000000000000000.#0000..lnk.....00000000000000000000000000000",
"00000000000000000000..00000klk.........0000000000000000000000000",
"00000000000000000000.V000000Uk.........0000000000000000000000000",
"00000000000000000000..00000nogck.....000000000000000000000000000",
"00000000000000000000...0000ggkcc.....000000000000000000000000000",
"000000000000000000000.#0000mbgggg....000000000000000000000000000",
"0000000000000000000000..0ggggBggggQ....0000000000000000000000000",
"0000000000000000000000..0gggvAKgggWS.M00000000000000000000000000",
"0000000000000000000000..0ggorwIMgTZYTMM0000000000000000000000000",
"0000000000000000000000..0gggqvGLPSYXTMM0000000000000000000000000",
"0000000000000000000000..0ggggrCHNORQPMM0000000000000000000000000",
"0000000000000000000000..0ggggpAEMNOONMM0000000000000000000000000",
"0000000000000000000000..0ggggowBJMNNMMM0000000000000000000000000",
"000000000000000000000....gggggqvCGMMMMe0000000000000000000000000",
"000000000000000000000....ggggfptBEMMMMe0000000000000000000000000",
"000000000000000000000....ggggfptBEMMMM00000000000000000000000000",
"00000000000000000000.....gggggptBEMMMM00000000000000000000000000",
"00000000000000000000.....ggggfptBEMMMM00000000000000000000000000",
"00000000000000000000.....ggggfptBGMMMM00000000000000000000000000",
"00000000000000000000.....ggggfptCGMMMM00000000000000000000000000",
"0000000000000000000......gggghptCGMMMM00000000000000000000000000",
"0000000000000000000......ggjgjpxCGMMMM00000000000000000000000000",
"00000000000000000000.....chyiistCGMMMM00000000000000000000000000",
"00000000000000000000......lhhizxCGMMMM00000000000000000000000000",
"0000000000000000000000000gggghsxFGMMMM00000000000000000000000000",
"0000000000000000000000000ggggfauCGMMMM00000000000000000000000000",
"0000000000000000000000000ggggfquCGMMMM00000000000000000000000000",
"0000000000000000000000000ggggfquDHMMMM00000000000000000000000000",
"0000000000000000000000000gggggquDHMMMM00000000000000000000000000",
"0000000000000000000000000ggggfquDHMMMM00000000000000000000000000",
"0000000000000000000000000ggggfqvDHMMMM00000000000000000000000000",
"0000000000000000000000000ggggfqvDHMMM000000000000000000000000000",
"0000000000000000000000000egggfrvDHMMM000000000000000000000000000",
"00000000000000000000000000egggrvDHMMe000000000000000000000000000",
"00000000000000000000000000000ddgeg000000000000000000000000000000",
"0000000000000000000000000000000000000000000000000000000000000000",
"0000000000000000000000000000000000000000000000000000000000000000",
"0000000000000000000000000000000000000000000000000000000000000000",
"0000000000000000000000000000000000000000000000000000000000000000",
"0000000000000000000000000000000000000000000000000000000000000000"
};
