/* XPM */
static char *magick[] = {
/* columns rows colors chars-per-pixel */
"64 64 65 1",
"  c Gray0",
". c Gray4",
"X c Gray9",
"o c #352c2c",
"O c #413737",
"+ c #670000",
"@ c #740000",
"# c #7c0000",
"$ c #7e0000",
"% c #7f0000",
"& c #7f1900",
"* c #7c4a00",
"= c #7e7e00",
"- c #4b4b4b",
"; c #585858",
": c #745c5c",
"> c #6f6f6f",
", c #820000",
"< c #860000",
"1 c #960000",
"2 c #9a0000",
"3 c #9e0000",
"4 c #991e00",
"5 c #aa0000",
"6 c #ae0000",
"7 c #b10000",
"8 c #bd0000",
"9 c #ac2200",
"0 c #825400",
"q c #995b00",
"w c #c20000",
"e c #c60000",
"r c #ce0000",
"t c #d10000",
"y c #d50000",
"u c #dd0000",
"i c #c82800",
"p c #e20000",
"a c #e60000",
"s c #ec0000",
"d c #f10000",
"f c #f50000",
"g c #fb0202",
"h c #fe0101",
"j c Red",
"k c #ff0a0a",
"l c #ff1414",
"z c #ff1c1c",
"x c #ff2828",
"c c #ff3f3f",
"v c #ff5353",
"b c #ff6666",
"n c #ff7878",
"m c Magenta",
"M c #989800",
"N c #868686",
"B c #aaaaaa",
"V c Gray74",
"C c #ff8a8a",
"Z c #ff9c9c",
"A c #ffb2b2",
"S c #ffcdcd",
"D c #ffdada",
"F c #fff2f2",
"G c None",
/* pixels */
"GGGGGGGGGGGGGGGGGGGGGGGGGGGGGGGGGGGGGGGGGGGGGGGGGGGGGGGGGGGGGGGG",
"GGGGGGGGGGGGGGGGGGGGGGGGGGGGGGGGGGGGGGGGGGGGGGGGGGGGGGGGGGGGGGGG",
"GGGGGGGGGGGGGGGGGGGGGGGGGGGGGGGGGGGGGGGGGGGGGGGGGGGGGGGGGGGGGGGG",
"GGGGGGGGGGGGGGGGGGGGGGGGGGGGGGGGGGGGGGGGGGGGGGGGGGGGGGGGGGGGGGGG",
"GGGGGGGGGGGGGGGGGGGGGGGGGGGGGGGGGGGGGGGGGGGGGGGGGGGGGGGGGGGGGGGG",
"GGGGGGGGGGGGGGGGGGGGGGG     GGGGGGGGGGGGGGGGGGGGGGGGGGGGGGGGGGGG",
"GGGGGGGGGGGGGGGGGGGGGG        GGGGGGGGGGGGGGGGGGGGGGGGGGGGGGGGGG",
"GGGGGGGGGGGGGGGGGGGGGG         GGGGGGGGGGGGGGGGGGGGGGGGGGGGGGGGG",
"GGGGGGGGGGGGGGGGGGGGG    GG     GGGGGGGGGGGGGGGGGGGGGGGGGGGGGGGG",
"GGGGGGGGGGGGGGGGGGGGG    GGG     GGGGGGGGGGGGGGGGGGGGGGGGGGGGGGG",
"GGGGGGGGGGGGGGGGGGGGG    GGGG     GGGGGGGGGGGGGGGGGGGGGGGGGGGGGG",
"GGGGGGGGGGGGGGGGGGGGGG   GGGGG     GGGG    GGGGGGGGGGGGGGGGGGGGG",
"GGGGGGGGGGGGGGGGGGGGGG  .GGGGGG   ;>-        GGGGGGGGGGGGGGGGGGG",
"GGGGGGGGGGGGGGGGGGGGGG  X GGGGGGG --;          GGGGGGGGGGGGGGGGG",
"GGGGGGGGGGGGGGGGGGGGGGG   GGGGGGGG-;-V            GGGGGGGGGGGGGG",
"GGGGGGGGGGGGGGGGGGGGGGG  BGGGGGGGGGN--             GGGGGGGGGGGGG",
"GGGGGGGGGGGGGGGGGGGGGGG    GGGGGGG>GGo-           GGGGGGGGGGGGGG",
"GGGGGGGGGGGGGGGGGGGGGGGG  NGGGGGGG><$$O-        GGGGGGGGGGGGGGGG",
"GGGGGGGGGGGGGGGGGGGGGGGG    GGGGGG$$-$OOo      GGGGGGGGGGGGGGGGG",
"GGGGGGGGGGGGGGGGGGGGGGGGG  .GGGGG$:o$$$$$$      GGGGGGGGGGGGGGGG",
"GGGGGGGGGGGGGGGGGGGGGGGGG  XGGG$$$$$$$$$$$$      GGGGGGGGGGGGGGG",
"GGGGGGGGGGGGGGGGGGGGGGGGGG   GG$$$$$r$$$$$$$c     GGGGGGGGGGGGGG",
"GGGGGGGGGGGGGGGGGGGGGGGGGG   GG$$$$7euf$$$$$Cb  jGGGGGGGGGGGGGGG",
"GGGGGGGGGGGGGGGGGGGGGGGGGG   G$$$$$5wudj$$$$DAvkjGGGGGGGGGGGGGGG",
"GGGGGGGGGGGGGGGGGGGGGGGGGG   G$$$$<38ysj$$nSFDnzjjGGGGGGGGGGGGGG",
"GGGGGGGGGGGGGGGGGGGGGGGGGG   G$$$$$27rpgkxbADSnzjjGGGGGGGGGGGGGG",
"GGGGGGGGGGGGGGGGGGGGGGGGGG   G$$$$$16wudjlcnZCvljjGGGGGGGGGGGGGG",
"GGGGGGGGGGGGGGGGGGGGGGGGGG   G$$$$$$38tajkzcvcxkjjGGGGGGGGGGGGGG",
"GGGGGGGGGGGGGGGGGGGGGGGGGG   G$$$$$$16eudjklzzkjjjGGGGGGGGGGGGGG",
"GGGGGGGGGGGGGGGGGGGGGGGGGG   G$$$$$$<38rpdjjkkjjjjGGGGGGGGGGGGGG",
"GGGGGGGGGGGGGGGGGGGGGGGGGG    $$$$$$$15wtpdjjjjjjjGGGGGGGGGGGGGG",
"GGGGGGGGGGGGGGGGGGGGGGGGG     $$$$$$$<27wtpdjjjjj@GGGGGGGGGGGGGG",
"GGGGGGGGGGGGGGGGGGGGGGGGG     $$$$$$$,158rusjjjjj@GGGGGGGGGGGGGG",
"GGGGGGGGGGGGGGGGGGGGGGGGG     $$$$$$$,158rusjjjjjGGGGGGGGGGGGGGG",
"GGGGGGGGGGGGGGGGGGGGGGGGG     $$$$$$$,158rusjjjjjGGGGGGGGGGGGGGG",
"GGGGGGGGGGGGGGGGGGGGGGGG      $$$$$$$,158rudjjjjjGGGGGGGGGGGGGGG",
"GGGGGGGGGGGGGGGGGGGGGGGG      $$$$$$#,158rudjjjjjGGGGGGGGGGGGGGG",
"GGGGGGGGGGGGGGGGGGGGGGGG      $$$$$$#,158rpdjjjjjGGGGGGGGGGGGGGG",
"GGGGGGGGGGGGGGGGGGGGGGG       $$$$$$#,158rpdjjjjjGGGGGGGGGGGGGGG",
"GGGGGGGGGGGGGGGGGGGGGGG       $$$$$$#,158tpdjjjjjGGGGGGGGGGGGGGG",
"GGGGGGGGGGGGGGGGGGGGGGG       $$$$$$$,158tpdjjjjjGGGGGGGGGGGGGGG",
"GGGGGGGGGGGGGGGGGGGGGG        $$$$$$&,158tpdjjjjjGGGGGGGGGGGGGGG",
"GGGGGGGGGGGGGGGGGGGGGG        $$$$=$=,198tpdjjjjjGGGGGGGGGGGGGGG",
"GGGGGGGGGGGGGGGGGGGGGG        $$$$&=*&M58tpdjjjjjGGGGGGGGGGGGGGG",
"GGGGGGGGGGGGGGGGGGGGGGG       $O&=0**0458tpdjjjjjGGGGGGGGGGGGGGG",
"GGGGGGGGGGGGGGGGGGGGGGGG      $ ;&&&*0q98tpdjjjjjGGGGGGGGGGGGGGG",
"GGGGGGGGGGGGGGGGGGGGGGGGGGGGGG$$$$$$&&49iipdjjjjjGGGGGGGGGGGGGGG",
"GGGGGGGGGGGGGGGGGGGGGGGGGGGGGG$$$; $ .26wtp jjjjjGGGGGGGGGGGGGGG",
"GGGGGGGGGGGGGGGGGGGGGGGGGGGGGG$$$$$$$ X6NtpBjjjjjGGGGGGGGGGGGGGG",
"GGGGGGGGGGGGGGGGGGGGGGGGGGGGGG$$$$$$$<26wtpfjjjjjGGGGGGGGGGGGGGG",
"GGGGGGGGGGGGGGGGGGGGGGGGGGGGGG$$$$$$#<26wyafjjjjjGGGGGGGGGGGGGGG",
"GGGGGGGGGGGGGGGGGGGGGGGGGGGGGG$$$$$$#<26wyafjjjjjGGGGGGGGGGGGGGG",
"GGGGGGGGGGGGGGGGGGGGGGGGGGGGGG$$$$$$#<26wyafjjjjjGGGGGGGGGGGGGGG",
"GGGGGGGGGGGGGGGGGGGGGGGGGGGGGG$$$$$$#<26wyafjjjjjGGGGGGGGGGGGGGG",
"GGGGGGGGGGGGGGGGGGGGGGGGGGGGGG$$$$$$$<26wyafjjjjjGGGGGGGGGGGGGGG",
"GGGGGGGGGGGGGGGGGGGGGGGGGGGGGG$$$$$$$<27wyafjjjjjGGGGGGGGGGGGGGG",
"GGGGGGGGGGGGGGGGGGGGGGGGGGGGGG$$$$$$$<27wyafjjjjGGGGGGGGGGGGGGGG",
"GGGGGGGGGGGGGGGGGGGGGGGGGGGGGGG$$$$$$<27wyafjjjjGGGGGGGGGGGGGGGG",
"GGGGGGGGGGGGGGGGGGGGGGGGGGGGGGG@$$$$$<37wyafjjjGGGGGGGGGGGGGGGGG",
"GGGGGGGGGGGGGGGGGGGGGGGGGGGGGGGG@$$$$<37wyagjj@GGGGGGGGGGGGGGGGG",
"GGGGGGGGGGGGGGGGGGGGGGGGGGGGGGGGGG@$#<37eyaguGGGGGGGGGGGGGGGGGGG",
"GGGGGGGGGGGGGGGGGGGGGGGGGGGGGGGGGGGG+++#+@$GGGGGGGGGGGGGGGGGGGGG",
"GGGGGGGGGGGGGGGGGGGGGGGGGGGGGGGGGGGGGGGGGGGGGGGGGGGGGGGGGGGGGGGG",
"GGGGGGGGGGGGGGGGGGGGGGGGGGGGGGGGGGGGGGGGGGGGGGGGGGGGGGGGGGGGGGGG"
};
