/* XPM */
static char *magick[] = {
/* columns rows colors chars-per-pixel */
"64 64 65 1",
"  c Gray0",
". c #2d2d2d",
"X c #323232",
"o c #353535",
"O c #373737",
"+ c Gray22",
"@ c #3a3a3a",
"# c Gray24",
"$ c #3f3f3f",
"% c #414141",
"& c Gray26",
"* c #434343",
"= c #444444",
"- c Gray27",
"; c #464646",
": c Gray28",
"> c #484848",
", c #494949",
"< c Gray29",
"1 c #4b4b4b",
"2 c #4c4c4c",
"3 c Gray30",
"4 c #4e4e4e",
"5 c #505050",
"6 c #535353",
"7 c Gray33",
"8 c #565656",
"9 c #585858",
"0 c #5b5b5b",
"q c Gray36",
"w c #5f5f5f",
"e c #606060",
"r c #626262",
"t c #646464",
"y c Gray40",
"u c Gray41",
"i c #6d6d6d",
"p c #727272",
"a c #777777",
"s c Magenta",
"d c #818181",
"f c Gray62",
"g c #a2a2a2",
"h c #a5a5a5",
"j c #a9a9a9",
"k c #aeaeae",
"l c #b2b2b2",
"z c Gray71",
"x c #b9b9b9",
"c c #bebebe",
"v c #c1c1c1",
"b c #c5c5c5",
"n c Gray79",
"m c #cbcbcb",
"M c Gray81",
"N c #d0d0d0",
"B c #d3d3d3",
"V c #d5d5d5",
"C c #d8d8d8",
"Z c #dadada",
"A c Gray87",
"S c #e4e4e4",
"D c #f3f3f3",
"F c #fbfbfb",
"G c None",
/* pixels */
"GGGGGGGGGGGGGGGGGGGGGGGGGGGGGGGGGGGGGGGGGGGGGGGGGGGGGGGGGGGGGGGG",
"GGGGGGGGGGGGGGGGGGGGGGGGGGGGGGGGGGGGGGGGGGGGGGGGGGGGGGGGGGGGGGGG",
"GGG                                                        GGGGG",
"GG aay774 DDDDDDDDDDDDDDDDDDDDDDDDDDDDDDDDDDDDDDDDDD eaiyii GGGG",
"GG py9455 DFFFFFFFFFFFFFFFFFFFFFFFFFFFFFFFFFFFFFFFDD 7eeeey GGGG",
"GG e5,--, DFFFFFFFFFFFFFFFFFFFFFFFFFFFFFFFFFFFFFFFDD #-4447 GGGG",
"GG -    - DFFFFFFFFFFFFFFFFFFFFFFFFFFFFFFFFFFFFFFFDD O    , GGGG",
"GG X GG % DFFFFFFFFFFFFFFFFFFFFFFFFFFFFFFFFFFFFFFFDD O GG 5 GGGG",
"GG X GG O DFFFFFFFFFFFFFFFFFFFFFFFFFFFFFFFFFFFFFFFDD . GG 9 GGGG",
"GG #    X DFFFFFFFFFFFFFFFFFFFFFFFFFFFFFFFFFFFFFFFDD .    5 GGGG",
"GG 5--%O+ DFFFFFFFFFFFFFFFFFFFFFFFFFFFFFFFFFFFFFFFDD +OO#-4 GGGG",
"GG y95,-- DFFFFFFFFFFFFFFFFFFFFFFFFFFFFFFFFFFFFFFFDD %%%,59 GGGG",
"GG yw7544 DFFFFFFFFFFFFFFFFFFFFFFFFFFFFFFFFFFFFFFFDD ##-59w GGGG",
"GG ww9995 DFFFFFFFFFFFFFFFFFFFFFFFFFFFFFFFFFFFFFFFDD ++-457 GGGG",
"GG ewwee7 DFFFFFFFFFFFFFFFFFFFFFFFFFFFFFFFFFFFFFFFDD #%,445 GGGG",
"GG yyeee7 DFFFFFFFFFFFFFFFFFFFFFFFFFFFFFFFFFFFFFFFDD %-,445 GGGG",
"GG iyeee5 DFFFFFFFFFFFFFFFFFFFFFFFFFFFFFFFFFFFFFFFDD %%,554 GGGG",
"GG iyee94 DFFFFFFFFFFFFFFFFFFFFFFFFFFFFFFFFFFFFFFFDD ++%,4, GGGG",
"GG yww74- DFFFFFFFFFFFFFFFFFFFFFFFFFFFFFFFFFFFFFFFDD XO+%,, GGGG",
"GG 99974- DFFFFFFFFFFFFFFFFFFFFFFFFFFFFFFFFFFFFFFFDD .XO#-, GGGG",
"GG 79974, DFFFFFFFFFFFFFFFFFFFFFFFFFFFFFFFFFFFFFFFDD XO+#-- GGGG",
"GG 77775, DFFFFFFFFFFFFFFFFFFFFFFFFFFFFFFFFFFFFFFFDD +###-, GGGG",
"GG 777774 DFFFFFFFFFFFFFFFFFFFFFFFFFFFFFFFFFFFFFFFDD ##%%-, GGGG",
"GG 779w94 DFFFFFFFFFFFFFFFFFFFFFFFFFFFFFFFFFFFFFFFDD %%-,,4 GGGG",
"GG 77wew5 DFFFFFFFFFFFFFFFFFFFFFFFFFFFFFFFFFFFFFFFDD --,455 GGGG",
"GG w99995 DFFFFFFFFFFFFFFFFFFFFFFFFFFFFFFFFFFFFFFFDD --,479 GGGG",
"GG yw7774 DFFFFFFFFFFFFFFFFFFFFFFFFFFFFFFFFFFFFFFFDD %,,479 GGGG",
"GG yew95, DFFFFFFFFFFFFFFFFFFFFFFFFFFFFFFFFFFFFFFFDD %-,,47 GGGG",
"GG yuyw5- DFFFFFFFFFFFFFFFFFFFFFFFFFFFFFFFFFFFFFFFDD %-,,,4 GGGG",
"GG iuye5- DDDDDDDDDDDDDDDDDDDDDDDDDDDDDDDDDDDDDDDDDD %-4,,4 GGGG",
"GG auy94# DDDDDDDDDDDDDDDDDDDDDDDDDDDDDDDDDDDDDDDDDD #--,,, GGGG",
"GG aiy9-O                                            #--,,, GGGG",
"GG auy9,++#-,,--,477577754-##-,-%-,4457w9w954,444,,%#%,,,59 GGGG",
"GG pye9,--,44,,,457999w754,-%-,--,459eyeee9544555,,--,,447y GGGG",
"GG pyw74,454,--,44475775544,,----,579eew9754444554,---,,45w GGGG",
"GG au95,,,44,---,,,,,,444,,,-----,457755544,,,,45,------,47 GGGG",
"GG iy95,,,,----,,,----,,----------,44,,4,,,---,54,-%%%-,,47 GGGG",
"GG eew54,,-----,,,---,,,---------,,,4,,,,,,--,,4,,-%%--,447 GGGG",
"GG www7,,------,,,----,-%-###%%--,,,,,,,4,----%--%##%%-4447 GGGG",
"GG ww94,----,---,-##%%%%##+O+##%%---,,,,4%+++OOOOOXO+%-,445 GGGG",
"GG ew74------,--%+                                  .+%,444 GGGG",
"GG ye7,----,--,%+  ffghhjjkklzzxxcvvbbnMM %+#+OXXX.  O%,554 GGGG",
"GG ye7,,---,--,%  ffghhjjkkllzxxccvbbnnnMN ,--%%##+. O%4554 GGGG",
"GG yw7,------,-- fffgh       zxxcvvbbnnMMVN -,---%#X X%,444 GGGG",
"GG ew74--%%%---% ffghh #+O+- xxccvbbnnnNNNV -,,-%%#X X%-,44 GGGG",
"GG uw95--%%%-,-- ffghj ##%%, xccvvbbnnMNNVV ,,----%O O-,457 GGGG",
"GG puw5,-%%---,, fghhj %%,44 xccvbbnnnNNVVC 4,,--%%O O-,477 GGGG",
"GG pu94,-%%%--,, fghjj +#,5, ccvvbbnnMNNNVC 44,-%%%O O-,577 GGGG",
"GG py74,-%%%--,- ghhjj #%,4- ccvbbnnnMNNVCC -,--%%%O +,4579 GGGG",
"GG ay9aFFN%N--,- ghjjk ,55,# cvvbbnnMNVVVCC %-----#O +,4,47 GGGG",
"GG iy9xddN%N-44, hhjjk 597,% cvbbnnNMNNVCAC %-,,,-#O +,-%,4 GGGG",
"GG 997N,,SgS,54- hjjkk 554,- vvbbnnNNNVCCCA #%,4,-#O O-% -4 GGGG",
"GG -,,xpaDND455- hjjkk ,,-%% vbbnnMMNNVCCAA #%,4,-%O O-# -5 GGGG",
"GG O%%iFFV,N7994 jjkkl #,-%% vbbnMMNVNCCCSA %%----%O O#X #9 GGGG",
"GG .%%%,4457ww95 jjkkl +-4,- bbnnMMNVVCCAAA ##%-,,-+ ++   w GGGG",
"GG .O#,57779weew jkkll +%45, bbnnMNNVCCCAAS +#-4444# +#   w GGGG",
"GGG ##49eeewwyue jkklz       bnnNMNNVCCAAAS +%,4455% #44 5p GGGG",
"GGGG 59yppuyw775 kkllzxxccvbbnnnMNVVCCCAASS +##+#%#O #7eyid GGGG",
"GGGGG ypdapu5    kklzzxxcvvbbnnMMNNVCCAAASS          #wupaa GGGG",
"GGGGGG       GGG                            GGGGGGG        GGGGG",
"GGGGGGGGGGGGGGGGGGGGGGGGGGGGGGGGGGGGGGGGGGGGGGGGGGGGGGGGGGGGGGGG",
"GGGGGGGGGGGGGGGGGGGGGGGGGGGGGGGGGGGGGGGGGGGGGGGGGGGGGGGGGGGGGGGG",
"GGGGGGGGGGGGGGGGGGGGGGGGGGGGGGGGGGGGGGGGGGGGGGGGGGGGGGGGGGGGGGGG",
"GGGGGGGGGGGGGGGGGGGGGGGGGGGGGGGGGGGGGGGGGGGGGGGGGGGGGGGGGGGGGGGG"
};
