/* XPM */
static char *magick[] = {
/* columns rows colors chars-per-pixel */
"64 64 65 1",
"  c #0f0f00",
". c #0f080f",
"X c #222200",
"o c #2b2900",
"O c #303000",
"+ c #38330b",
"@ c #4e4a1b",
"# c #524e08",
"$ c #525116",
"% c #5b591a",
"& c #6d6700",
"* c #6f6a13",
"= c #757001",
"- c #7d7700",
"; c #696737",
": c Magenta",
"> c #948d1a",
", c #8a852f",
"< c #938f3c",
"1 c #ada733",
"2 c #ada74b",
"3 c #bcb54d",
"4 c #bbb459",
"5 c #c9bd62",
"6 c #d7cf5f",
"7 c #c9c263",
"8 c #ddcb73",
"9 c #dad36e",
"0 c #dbd173",
"q c #dad386",
"w c #dcd5a4",
"e c #e8ca81",
"r c #e8d781",
"t c #f6c993",
"y c #ffc99f",
"u c #fecd9e",
"i c #f4d693",
"p c #ffd29f",
"a c #ffd59f",
"s c #fad899",
"d c #ffda9f",
"f c #ffdd9f",
"g c #ffdf9f",
"h c #f1d9aa",
"j c #ede688",
"k c #f4ed8e",
"l c #f8e695",
"z c #ffe29f",
"x c #ffe69f",
"c c #faef99",
"v c #ffe99f",
"b c #ffee9f",
"n c #fff29f",
"m c #fff69f",
"M c #fff89f",
"N c #f7ecb4",
"B c #fff8ac",
"V c #ede6c5",
"C c #ede6d1",
"Z c #ffe9d0",
"A c #fcf4c8",
"S c #fff8ca",
"D c #fff8de",
"F c #fcf3ea",
"G c None",
/* pixels */
"GGGGGGGGGGGGGGGGGGGGGGGGGGGGGGGGGGGGGGGGGGGGGGGGGGGGGGGGGGGGGGGG",
"GGGGGGGGGGGoooooooooooooooGGGGGGGGGGGGGGGGGGGGGGGGGGGGGGGGGGGGGG",
"GGGGGGGGGG&&&&&&&&&&&&&&&&#GGGGGGGGGGGGGGGGGGGGGGGGGGGGGGGGGGGGG",
"GGGGGGGGG$<111111111111111>$GGGGGGGGGGGGGGGGGGGGGGGGGGGGGGGGGGGG",
"GGGGGGGG#<q0666666666666663,#GGGGGGGGGGGGGGGGGGGGGGGGGGGGGGGGGGG",
"GGGGGGG#>5VNkkkkkkkkkkkkkkr1-+GGGGGGGGGGGGGGGGGGGGGGGGGGGGGGGGGG",
"GGGGGG+,5wABMMMMMMMMMMMMMMk91*+GGGGGGGGGGGGGGGGGGGGGGGGGGGGGGGGG",
"GGGGG+-4VABMMMMMMMMMMMMMMMmk91=+GGGGGGGGGGGGGGGGGGGGGGGGGGGGGGGG",
"GGGGO*2qAAMMMMMMMMMMMMMMMMMMk61*+GGGGGGGGGGGGGGGGGGGGGGGGGGGGGGG",
"GGGo&2wNBBMMMMMMMMMMMMMMMMMMck6>&XGGGGGGGGGGGGGGGGGGGGGGGGGGGGGG",
"GG;#>3whkjjjjjjjjjjjjjjjjjjjjj91>#;;;;;;;;;;;;;;;;;;;;;;;;;;GGGG",
"GX#>17000999999999999999999999631>=========================&X%GG",
"Go=17qqqqqqqqqqqqqqqqqqqqqqqqqqq73111111111111111111111111111%%G",
"Go-1wVVVVVVVVVVVVVVVVVVVVVVVVVVVVwwwwwwwwwwwwwwwwwwwwwwwwww001%O",
"Go-3CFFFFFFFFFFFFFFFFFFFFFFFFFFFFFFFFFFFFFFFFFFFFFFFFFFFFFFw01%O",
"Go-3CFSSSSSSSSSSSSSSSSSSSSSSSSSSSSSSSSSSSSZZZSSSZZZSSSSAZZZh01%O",
"Go-3CDBMMMMMMMMMMMMMMMMMMMMMMMMMMMMMMMMMMMzyfmMMfyzMMMMnduxk01%.",
"Go-3CDBMMMMMMMMMMMMMMMMMMMMMMMnxxnnxvnbzvmbfvmbzffvMMmvffffi01%X",
"Go-3CDBMMMMMMMMMMMMMMMMMMMMMMMbddbvadbvpfnmnnmzuznnmmnfpzvdt01%o",
"Go-3CDBMMMMMMMMMMMMMMMMMMMMMMMbffbbfznbdznMMbxfaxmbxxzfdvnzi82%O",
"Go-3CDBMMMMMMMMMMMMMMMMMMMMMMMmbbmnbbnnbbmmmxafvnnzaaazbnmbl02%O",
"Go-3CDBMMMMMMMMMMMMMMMMMMMMMMMMMMMMMnbbmnbbmxpzmnvzppavMMmbl02%O",
"Go-3CDBMMMMMMMMMMMMMMMMMmmmmmmmmmmmmbfznvdznbvbmxafxxvbmmnzi82%O",
"Go-3CDBMMMMMMMMMMMMMMMMMmnbmmnnmmnnmvafnxpfnMMMMzufbnmnbmbdt82%O",
"Go-3CDBMMMMMMMMMMMMMMMMMnzfbnzfbbfznbxvnbxvmMMMMbzzdvnxfbbdt82%O",
"Go-3CDBMMMMMMMMMMMMMMMMMnfavbddbbddbnbnmnbnmmnnmnbfpxnfpxvdt82%O",
"Go-3CDBMMMMMMMMMMMMMMMMMnxzbnxzbbzxnbzxnbzvmbfvmvfffbmvffffi82%O",
"Go-3CDBMMMMMMMMMMMMMmmnmmnnmmnbnnbnmvdfnvaznxaznzpzbnnbvdazl02%O",
"Go-3CDBMMMMMMMMMMMMMmbxbMMMMMMnvvnMMbfznbfxnvdfzfdvmbzzzfdfi02%O",
"Go-3CDBMMMMMMMMMMMMMnzavMMmmmmbffbmmnbbmnbbnnbzafvbmzaaazxdi82%O",
"Go-3CDBMMMMMMMMMMMMMnzdvMMmbvnbfdzbnnvbmMMnvbmxazvbmzaaazxfi82%O",
"Go-3CDBMMMMMMMMMmmmmmbvnMMnfdbnbzdfbvdfnmmvazmnvfaxmbvvxfazl02%O",
"Go-3CDBMMMMMMMMMmnbnmmmmMMnfdbmmbdfbvdfnnbzazvnmzpfbbbnnzazl02%O",
"Go-3CDBMMMMMMMMMmxdvMMMMMMmbvnMMnvvnnvbmvdfxfaxmbxfaadvmbzfi82%O",
"Go-3CDBMMMMMMMMMmzaxmnbnmnbnnbbmnbvbbnnbzafnxazmnvfaaazbvxdi82%O",
"Go-3CDBMMMMMMMMMmbzbnxfbnxfbnzzbbzffznbfffvmbzbmvfzzzffffffi02%O",
"Go-3CDBMMMMMMnnnmnnmnzavnfdvbfdbbdppfnvafvbmnvbnzpfvvxdupazl02%O",
"Go-3CDBMMMMMMbzbMMMMmxfbnxzbnzzbbzffxnbfzzvmbzzzffzzzfpyaffi82%O",
"Go-3CDBMMMMMMxpzmmmmmnnnmnbnmbbnnbbbnnnbzafnzpppfvfpppyyfvdt82%O",
"Go-3CDBMMMMMMvdxmbxbMMMMnbvnnvvnnvvnnvbnvdfzfdddzxfddauydzpt82%O",
"Go-3CDBMMMMMMnbnmzpxMMMMnfavbddbbddbvafnnbzpfbbbfpzbbvayuuyt82%O",
"Go-3CDBMMMMMMmmmmxavMMmbxfdbbffbbfdxzdfxvvfafxvvfafvvxfpuypi82%O",
"Go-3CDBMMMMMMMMMmbvnMMnzazvnnbbnnbzddxzaaafxfaaazvfaaazxpufl02%O",
"Go-3CDBnbnmnbnmMmbvnmnvfdvnbbnnbbnvdfbvdaafvdyyydvfpuufxaufl02%O",
"Go-3CDBbfxnvdxmMmxdvmxdfxbnzzbbzzbnvvnbxzzfdpyyypdfzpypauypi82%O",
"Go-3CDBvafnxpzmMmzpxnfpzbnbfaxvddvnbnmnbbbzpuuuuyyfbdyyyuuyt82%O",
"Go-3CDBbzvmbzvmMmvzbmvffzbnxfffffffzxnbzfffzfffzpypfpyyyadpt82%O",
"Go-3CDBmmmmmmmmMmmmmmmnduxmmbapvvpyydbxuyydnmmmmfyyyyyyuzbat82%O",
"Go-3CDBmmbxvmbzbmmmbzbnxfbnvzffzzfddfzffddfzzzzzfdpypdddffpt82%O",
"Go-3CDBMMxpfmzuzMMmzpxmnnmndaxvaavnnxpdbnnzpuuuuzbdyfnnbduyt82%O",
"Go-3CDNbmvdzmxaxmbxfdvmbvvzdfbbaabnvzdznnvdyyyuafxaydvvzpyyt82%O",
"Go-3CDdfnnbbmnvbmzafbnnzaaazbnbaabbddxbnvauyyyavfpuyupppuyyt82%O",
"Go-3CDafnMMnbnmnbfpxmnvfppazbbxddxxadxbbzappuydbdyupyyyyyyyt82%O",
"Go-3CDNvmmmvdxmxdfxbnxdfxxzfdddzzdfzzdddfzxxdyuduyazpyyyyyyt82%O",
"Go-3CDBnmmnzufbfuzmnbduznmbduuaxxaavxpuudbnnfuyyyuzbdyyyyuyt82%O",
"Go-3CDfxnbffzzdfzbmvdfzffbnvzzfffffffzzzffddfzayazfdpyyydfpt82%O",
"Go-3VZpsnluscsuscccsulcsulcccclssllsslccluuuscstscsutttullst82%O",
"Go-1qheerrerrrerjjrrerreerjjjjreerreerjjreeerrrerrreeeeerree62%O",
"GG=>4755775575557775577557777775577557777555575557555555775552$o",
"GG#*,<<<<<<<<<<<<<<<<<<<<<<<<<<<<<<<<<<<<<<<<<<<<<<<<<<<<<<<<,+X",
"GGG<@$$$$$$$$$$$$$$$$$$$$$$$$$$$$$$$$$$$$$$$$$$$$$$$$$$$$$$$$@;G",
"GGGG@XXXXXXXXXXXXXXXXXXXXXXXXXXXXXXXXXXXXXXXXXXXXXXXXXXXXXXXX@GG",
"GGGGG                                                       GGGG",
"GGGGGGGGGGGGGGGGGGGGGGGGGGGGGGGGGGGGGGGGGGGGGGGGGGGGGGGGGGGGGGGG"
};
