/* XPM */
static char * fridge1_b_xpm[] = {
"64 64 65 1",
" 	c None",
".	c None",
"+	c #5E6A64",
"@	c #8E9E94",
"#	c #7E8684",
"$	c #A6B6AC",
"%	c #96AAA4",
"&	c #86928C",
"*	c #767A7C",
"=	c #4E4E4C",
"-	c #AEC2BC",
";	c #565E5C",
">	c #9E9E9C",
",	c #969294",
"'	c #6E6E6C",
")	c #8E8A8C",
"!	c #A6AAAC",
"~	c #868284",
"{	c #96A69C",
"]	c #AEBEB6",
"^	c #8E9A94",
"/	c #76827C",
"(	c #565654",
"_	c #868E8C",
":	c #9EB2AC",
"<	c #8E9294",
"[	c #B6CAC4",
"}	c #666664",
"|	c #6E7674",
"1	c #969E9C",
"2	c #868684",
"3	c #AEBAB4",
"4	c #9EAAA4",
"5	c #7E7A7C",
"6	c #A6A6A4",
"7	c #969A9C",
"8	c #A6B2AC",
"9	c #666A6C",
"0	c #565254",
"a	c #B6C6BE",
"b	c #5E5E5C",
"c	c #5E5A5C",
"d	c #7E8284",
"e	c #A6BAB4",
"f	c #869692",
"g	c #4E5254",
"h	c #9EA2A4",
"i	c #6E726E",
"j	c #565A5C",
"k	c #868A8C",
"l	c #9EAEA8",
"m	c #5E625D",
"n	c #767674",
"o	c #7E8A84",
"p	c #767E7C",
"q	c #AEC6BC",
"r	c #969694",
"s	c #8E8E8C",
"t	c #8E9694",
"u	c #96A29C",
"v	c #7E7E7C",
"w	c #666E6C",
"x	c #8E9E9C",
"y	c #A6B6B4",
"z	c #96A6A4",
"................wwwwwwwwq-]]eey$y$e3]]-aq[[[[[[[[[[[[...........",
"................w+ww+w+9q--]3e$:ye3e]-]-q[a[q[q[q[q[a...........",
"................wwwwwww+q--e]ee::ee]]]eqa[[[[[[[[[[[[...........",
"................+w+w+wg*6-qqee]3%l--:4qaq[q[q[q[q[q[q...........",
"................w+www+g/6a--q:y]]x%:%qq]-[[[[[[[[rt[[...........",
"................wwwwwwg#6q-]q-z:-quu-a:][qq[q[a;gr<tq...........",
"................wwww++g_[[qe-q]z:llz4ly[a--a[[m;g|r6[...........",
"...............+ww+wwwg<q[[a%]q-x%--z%q[$e[[[[;mgvxqq...........",
".............+ww+www+wgr[[[[aze$%u:%l%:::[q[q[;;(dh[q...........",
"..............ww+wwwww=7q[q[[-z%q-^4[a%%[[[[[;+(j#1[q...........",
"..............+www+ww+;1[[[[qe!ze%%zy:8%e[q[[m;g}ku[[...........",
"..............+w+w+www;1a[q[]l[]ul[-zlaa:-q[q+;0}_u[q...........",
"..............+wwwww+w}h[[[-e[qll%yl4le[[-q[[;;g',![q...........",
"..............++++wwwwiu[q[e[[:y[-xl[qyq[qq[-++g|rz[q...........",
"..............++wwww+g|%a[[[[]-q[y:z][[ea[[[[;;g*7[[q...........",
"..............++++wwwgp6[q[[--[[$:[qlq[[q[[q[;;0d1[[q...........",
"..............+++www+g#6[[[q[[q-][a[[eq[[q[q;+gg#>[[............",
"..............+++www+(k[[[[[[[q][[[[[[-q[[[q+;(m_1[q............",
"..............+++++|+g_[q[[q[q[[q[qq[q[[[[q]yj(}_z[[............",
"...............+++|+w(t[[q[[[[[q[[[[[aee]ee]-;;'<t[q............",
"...............++++++g7[[[q[[q[[q]e]e-eexe]%;;ee]e[q............",
"...............++++wgj1[[q[[]]]-]e-e]e]e:feef]e]e-..............",
"...............++++ww%[e]-eeeeeeeee-e%oye&xeoe]e]e..............",
"...............+;+++]eeeeee--e]]-e-ee]e|eei:x^eee-..............",
"...............+++++3e-ee-e]eee]e-e%zee%w:f/%peqee..............",
"...............+++++e-e--ee-e--e-e--zo:e&iew%%-e--..............",
"...............+++++eeeeee]eeee-eee]el|&]|#o#eeeee..............",
"...............++++9e{-e-qe--eeee-:f&{e*/%j%ye-ee-..............",
"................++++]>e-eeeeee-eeeeeyowx|#op-e-eee..............",
"................+m++jueee-ee-::--e-e]]:x:&e:e-e---..............",
"................++++(u]-e-e-ee:lee-e-e-elee-eeeeee..............",
"................+++9(1eee:ee-]e%@e-ee-%%eeeeee-e-e..............",
"................++++gue-ee::ee-e%@:-e:^:-e-e:]ee-e..............",
"................+++9=1]eeee:%ee-exf:%f:ee-:%-e--e-..............",
"................;+++g7]e-e]e@%eeeex^xl-ee%:eeeeee-..............",
"................++++g^e:e-e-e@{e--:xx:e-{@eeeee:ee..............",
"................++++0ree%:e-e$fxe%&:xt:x@eee-e:eee..............",
"................++++gt-]e@:e-e$f@^%eexxfee--:%ee-e..............",
".................m++=re--efleee:f@e-e@@zeee%@:-ee-..............",
".................+++0feeee:f%e%&l&f$xf:f^:%@:eee-e..............",
".................+++0t]-eq]lf{^%]e_f@:-e@@u:--e--e..............",
".................+++0&ee]eeelt{eee@_@e]e:xf:ee-eee..............",
".................+++=t]ee]e%^%f{$f&:t@:{t:{@eeee-e..............",
"..................++0&e-ee:@lelfx^:e:^uxlee{@ee-ee..............",
"..................++g_]eq$x:e]e1fle-el^@eeee::ee-e..............",
"..................++0ke-e%e]eex^:t{ez&:@%e-]e::--e..............",
"...................+g_eelee-e%@:el&zf%e${%e--e::-e..............",
"...................mgo]:e-ee:xe]ee%f{e]ee::ee--eee..............",
"....................0#-]ee-$%e]e-%xlf%-e]-::eee-e-..............",
"....................g2e]e-:le]eel^%e:@leeee:ee-e-e..............",
"....................g~eqee:-ee-:^$]]]${e-e-e-eeeee..............",
"....................g#]ee-e]e-e%e]eee]el$-e-ee-e--..............",
"....................gp-ee]ee-e%eee-e]eee%eee-e.....|d...........",
"....................=p=qeee-e:-e--e]eee]ee....pd_<7ux...........",
"....................gp=e-e-ee]eeeeee-....p#_t^11>u>>^...........",
"....................=*{-e-e--ee-]...*#kt^>>>h1>7,k*+j...........",
".....................nre]e-e...|#&t^>>hh>>^,k*9c................",
".......................-.......>>>h>>7,k*9c.....................",
"...............................>7rk*wj..........................",
"...............................';...............................",
"................................................................",
"................................................................",
"................................................................",
"................................................................"};
