/* XPM */
static char *fridge1[] = {
/* width height num_colors chars_per_pixel */
"    64    64       64            1",
/* colors */
". c #4d4f4f",
"# c #4e5050",
"a c #4f5151",
"b c #4f5050",
"c c #505151",
"d c #505252",
"e c #545656",
"f c #515353",
"g c #575959",
"h c #585b5b",
"i c #5a5c5c",
"j c #5d5f5f",
"k c #56605d",
"l c #5f6161",
"m c #606262",
"n c #626565",
"o c #646666",
"p c #606b67",
"q c #666969",
"r c #636e6a",
"s c #686b6b",
"t c #6a6d6d",
"u c #6c6e6e",
"v c #6f7171",
"w c #717373",
"x c #737575",
"y c #747777",
"z c #767979",
"A c #787b7b",
"B c #7a7d7d",
"C c #7c7f7f",
"D c None",
"E c #7e8181",
"F c #808383",
"G c #818484",
"H c #828585",
"I c #838686",
"J c #848787",
"K c #858888",
"L c #868a8a",
"M c #888b8b",
"N c #898c8c",
"O c #8a8d8d",
"P c #8b8f8f",
"Q c #8e9191",
"R c #8f9292",
"S c #919595",
"T c #909494",
"U c #939797",
"V c #959898",
"W c #979b9b",
"X c #999d9d",
"Y c #9b9f9f",
"Z c #9a9e9e",
"0 c #9c9f9f",
"1 c #9ca0a0",
"2 c #9ea2a2",
"3 c #a1a5a5",
"4 c #a3a7a7",
"5 c #a4a8a8",
"6 c #a5a9a9",
"7 c #a7abab",
"8 c #adc1ba",
"9 c #b4c9c2",
/* pixels */
"DDDDDDDDDDDDDDpppppdS8888888888888888888888kk#gHY888DDDDDDDDDDDD",
"DDDDDDDDDDDDDDpppppdP8888888888888888888888kkbhI0888DDDDDDDDDDDD",
"DDDDDDDDDDDDDDpppppdO8888888888888888888888kkaiJ188DDDDDDDDDDDDD",
"DDDDDDDDDDDDDDpppppdN8888888888888888888888kkajK188DDDDDDDDDDDDD",
"DDDDDDDDDDDDDDDppppdM8888888888888888888888kkajL288DDDDDDDDDDDDD",
"DDDDDDDDDDDDDDDppppdL8888888888888888888888kkalM288DDDDDDDDDDDDD",
"DDDDDDDDDDDDDDpppppdK8888888888888888888888kkamN388DDDDDDDDDDDDD",
"DDDDDDDDDDDDDDDrpppdJ8888888888888888888888kkanO388DDDDDDDDDDDDD",
"DDDDDDDDDDDDDDDrpppcH8888888888888888888888kkaoO388DDDDDDDDDDDDD",
"DDDDDDDDDDDDDDDprppaF8888888888888888888888kkcqP488DDDDDDDDDDDDD",
"DDDDDDDDDDDDDDDppppaE6888888888888888888888kkdqQ488DDDDDDDDDDDDD",
"DDDDDDDDDDDDDDDpprpaC7888888888888888888888kkdsQ588DDDDDDDDDDDDD",
"DDDDDDDDDDDDDDDpprpaC7888888888888888888888kkdtR688DDDDDDDDDDDDD",
"DDDDDDDDDDDDDDDppppaB6888888888888888888888kkduT888DDDDDDDDDDDDD",
"DDDDDDDDDDDDDDDppprbz688888888888888888888kkk88889DDDDDDDDDDDDDD",
"DDDDDDDDDDDDDDDpppp#z688888888888888888888rrrr99999DDDDDDDDDDDDD",
"DDDDDDDDDDDDDDDpppp#x68888888888888rrrr999999998888DDDDDDDDDDDDD",
"DDDDDDDDDDDDDDDpppp#w58888888rrr9999999988888888888DDDDDDDDDDDDD",
"DDDDDDDDDDDDDDDpppppr8rrr99999999888888888888888888DDDDDDDDDDDDD",
"DDDDDDDDDDDDDDDppppp9999998988888888888888888888888DDDDDDDDDDDDD",
"DDDDDDDDDDDDDDDpppppp888888888888888888888888888888DDDDDDDDDDDDD",
"DDDDDDDDDDDDDDDppppps38888888888888888888888888C888DDDDDDDDDDDDD",
"DDDDDDDDDDDDDDDpppppq38888888888888888888888kSSS888DDDDDDDDDDDDD",
"DDDDDDDDDDDDDDDpppppo2888888888888888888888kkaBX888DDDDDDDDDDDDD",
"DDDDDDDDDDDDDDDpppppn188888888888888888888kkkaCZ888DDDDDDDDDDDDD",
"DDDDDDDDDDDDDDDpppppl188888888888888888888kkkaEY88DDDDDDDDDDDDDD",
"DDDDDDDDDDDDDDDpppppj188888888888888888888kk.fEY88DDDDDDDDDDDDDD",
"DDDDDDDDDDDDDDDpppppi088888888888888888888kk.fG088DDDDDDDDDDDDDD",
"DDDDDDDDDDDDDDDppppphY88888888888888888888kk.eH188DDDDDDDDDDDDDD",
"DDDDDDDDDDDDDDDpppppeZ88888888888888888888kk#gI188DDDDDDDDDDDDDD",
"DDDDDDDDDDDDDDDpppppeX88888888888888888888kk#gJ288DDDDDDDDDDDDDD",
"DDDDDDDDDDDDDDDpppppfX88888888888888888888kk#hL288DDDDDDDDDDDDDD",
"DDDDDDDDDDDDDDDpppppaW88888888888888888888kk#iL388DDDDDDDDDDDDDD",
"DDDDDDDDDDDDDDDDppppaW88888888888888888888kkbjM388DDDDDDDDDDDDDD",
"DDDDDDDDDDDDDDDDppppaW88888888888888888888kkajN388DDDDDDDDDDDDDD",
"DDDDDDDDDDDDDDDDppppaV88888888888888888888kkamO488DDDDDDDDDDDDDD",
"DDDDDDDDDDDDDDDDppppaU88888888888888888888kkanP588DDDDDDDDDDDDDD",
"DDDDDDDDDDDDDDDDppppcU88888888888888888888kkaoP588DDDDDDDDDDDDDD",
"DDDDDDDDDDDDDDDDppppdS88888888888888888888kkaoQ688DDDDDDDDDDDDDD",
"DDDDDDDDDDDDDDDDppppdT88888888888888888888kkaqR788DDDDDDDDDDDDDD",
"DDDDDDDDDDDDDDDDppppdR88888888888888888888kkcsTB88DDDDDDDDDDDDDD",
"DDDDDDDDDDDDDDDDppppdQ88888888888888888888kkdtS888DDDDDDDDDDDDDD",
"DDDDDDDDDDDDDDDDDpppdP88888888888888888888kkduS888DDDDDDDDDDDDDD",
"DDDDDDDDDDDDDDDDDpppdO88888888888888888888kkdvU888DDDDDDDDDDDDDD",
"DDDDDDDDDDDDDDDDDpppdN88888888888888888888kkdvV888DDDDDDDDDDDDDD",
"DDDDDDDDDDDDDDDDDDppcM88888888888888888888kkdwV888DDDDDDDDDDDDDD",
"DDDDDDDDDDDDDDDDDDppaL88888888888888888888kkdxW888DDDDDDDDDDDDDD",
"DDDDDDDDDDDDDDDDDDppaK88888888888888888888kkdyW88DDDDDDDDDDDDDDD",
"DDDDDDDDDDDDDDDDDDDpaI88888888888888888888kk8z888DDDDDDDDDDDDDDD",
"DDDDDDDDDDDDDDDDDDDpaG888888888888888888888888888DDDDDDDDDDDDDDD",
"DDDDDDDDDDDDDDDDDDDpaF888888888888888888888888888DDDDDDDDDDDDDDD",
"DDDDDDDDDDDDDDDDDDDD#E888888888888888888888888888DDDDDDDDDDDDDDD",
"DDDDDDDDDDDDDDDDDDDD#C8888888888888888888888DDDDDDDDDDDDDDDDDDDD",
"DDDDDDDDDDDDDDDDDDDD#B8888888888888888DDDDDDDDDDDDDDDDDDDDDDDDDD",
"DDDDDDDDDDDDDDDDDDDD#A88888888888DDDDDDDDDDDDDDDDDDDDDDDDDDDDDDD",
"DDDDDDDDDDDDDDDDDDDDDyS8888DDDDDDDDDDDDDDDDDDDDDDDDDDDDDDDDDDDDD",
"DDDDDDDDDDDDDDDDDDDDDDDDDDDDDDDDDDDDDDDDDDDDDDDDDDDDDDDDDDDDDDDD",
"DDDDDDDDDDDDDDDDDDDDDDDDDDDDDDDDDDDDDDDDDDDDDDDDDDDDDDDDDDDDDDDD",
"DDDDDDDDDDDDDDDDDDDDDDDDDDDDDDDDDDDDDDDDDDDDDDDDDDDDDDDDDDDDDDDD",
"DDDDDDDDDDDDDDDDDDDDDDDDDDDDDDDDDDDDDDDDDDDDDDDDDDDDDDDDDDDDDDDD",
"DDDDDDDDDDDDDDDDDDDDDDDDDDDDDDDDDDDDDDDDDDDDDDDDDDDDDDDDDDDDDDDD",
"DDDDDDDDDDDDDDDDDDDDDDDDDDDDDDDDDDDDDDDDDDDDDDDDDDDDDDDDDDDDDDDD",
"DDDDDDDDDDDDDDDDDDDDDDDDDDDDDDDDDDDDDDDDDDDDDDDDDDDDDDDDDDDDDDDD",
"DDDDDDDDDDDDDDDDDDDDDDDDDDDDDDDDDDDDDDDDDDDDDDDDDDDDDDDDDDDDDDDD"
};
