/* XPM */
static char * future_knight_0_xpm[] = {
"64 64 65 1",
" 	c None",
".	c #020208",
"+	c #545F71",
"@	c #29323A",
"#	c #424C5F",
"$	c #1A1C23",
"%	c #89909E",
"&	c #3F3B32",
"*	c #202839",
"=	c #6D788D",
"-	c #374052",
";	c #524E48",
">	c #616B7F",
",	c #302C2F",
"'	c #383430",
")	c #262120",
"!	c #4C586D",
"~	c #292728",
"{	c #65615C",
"]	c #46423A",
"^	c #4D4B44",
"/	c #788395",
"(	c #6F6C68",
"_	c #A2A8B8",
":	c #5A5651",
"<	c #0E1117",
"[	c #1D222C",
"}	c #2E3A49",
"|	c #5B667A",
"1	c #5E728C",
"2	c #333A49",
"3	c #282E3E",
"4	c #4B4640",
"5	c #959BAF",
"6	c #AEB4C0",
"7	c #79777A",
"8	c #848A9C",
"9	c #171617",
"0	c #9BA2AD",
"a	c #5E5A54",
"b	c #4A5263",
"c	c #767E94",
"d	c #3A465C",
"e	c #696664",
"f	c #7E8A9D",
"g	c #080A11",
"h	c #465263",
"i	c #222E44",
"j	c #111622",
"k	c #382D32",
"l	c #343541",
"m	c #3F4656",
"n	c #55524C",
"o	c #727E94",
"p	c #76726C",
"q	c #8A96A4",
"r	c #272937",
"s	c #5B606A",
"t	c #2A3447",
"u	c #525967",
"v	c #4A4E5E",
"w	c #1A1E2F",
"x	c #413D3C",
"y	c #22212D",
"z	c #687284",
"s5z5z//>/zz5_>8%5%7<g*tr'l'v>%ff/+%.tt#*t}}}}--}----@*t*[y*2vvvs",
"56%7_%s5(b5/0:8/cz$g9,'ltkrm/!zqcs.gm-i-dd-#d2}-t-t223**wyr*#vb-",
"06%6/cz%c5>5hq7q8<gg,,'ll,lvs===%%gi---d-#2udv}#d#t-ttt**ww*-bbl",
"6585f(zu55%c%4.g..y,l,,,kr-oz=s5swgd-#-dd#hd#-#dvd-23t**[[yw-+b#",
"0_%5^gg..9.ggg<9k,l',,r3[tbo/+%/&.dddt-2-###d!h!+#--22-i**wyr-@#",
"qs...gg[$3y)l,r3rl,,lkt*2#5cz%+m.@hdd#d}-d#h!v!d#dh-#-2ti*$*rmu-",
"...y@33333,,,k,k'r,lr33tt#>>qz8<*m!##!!-d#d####!!+h-d22trrwyw4vb",
".-3@,k,k'k,l'l,''@k,l33l-=cz/8.jmu#h#b--dd#-!++!+hdhh--l**w[$---",
"@l'@'2'l3'k,,k'''''krk3tm/z8ch.dhvd#!#}-#--##hbh!!2-ttt-rrwy$-b#",
"t@@lkl'''l'l'&&&&''l,rrts/=/><rd-####htt-dh-##!#--v!d2tt*[w)[@--",
"2'2'l''&&'''&&&]]&&k'3~3|czcng2v-d#-!h--td#h##-v+hvb--2t*w9~~*-v",
"llxx&'&&&'&&]4]4x&&''kkreb#b<*l##h-h2#}}*--2#-#h-v--llti*[$))y3l",
",lxx&']&x&44^^]4&&''''kk|vb!<w--#-d!d#-}td}d--#d-dddtlt3[[wy))$w",
"'x]x&x]&&44]^4]x4]xx&]x3+!-+gii}###h#!+d-t}2-tt--lt-2}t**w$$)~))",
"'x]&x]x&4^]4]4^^'4]]44'lhb+|[wti--d##d!#dtt--ti2--ttttt**$wy))~)",
"xx]&x4]]^;;4]^^4^4444x&yd#!b![tt*d##!b!d-t2ti2t}t-tt33i*[[[w[)y~",
"&x&]]]mn;^]^;4^;^^^44]x'$#u#|d***}###hd#dh#ttttt3*tttt**i[wwy[[y",
"&]x&&x4;^;;4;4^^4^^4^]4]*t#-v!d}t#h#d#-d!h!v2ttt2i******[*ww[[y)",
"&]]xxx;^;^;^n^;;;^^4^44]m[#htt-!d+!!#id-d#d-h#2}t3*********id2[~",
"]]&&&44;4^;n^^^4;^;;44^]x,*t2d!2h|>u++d##v2#bh!#3i**wwi*t-d-m-ry",
"x'&x&4^4;444n;;4;44;^4^^]]~3#-d-voz>|z#mddd###huv#}}---#++#vst3$",
"&&&&44^44;4;nn;:nnnnnn^^]x2y22t-z=>|zsv-t#d-d-!d!!##!!||++u+u|2j",
"'&&&]x]]4;;:;nn;n:nnn4;]^4]l3#v+>>>|>+zdt-h#!h!#h#!h!!b#!!ubs|3*",
"3'@&]x44;n:nn:nnn:;^;;nn44]4yr!1+>=z>=ut###m##!##vubub!hb+b!m#s$",
"t,,&'&]]^;:::n:nnnn;;^4^x4]x&rz=>+hz>|u2td---m-d!!bm2#b#s-bmvvb$",
"u&[&&&4]4^:n::::n::n;;;]^4]]yl+|/zzouz2tt###-hd!v!##ubbu!mmbmvu-",
">/$[&]]]4;n;:;::nnnnn4n444]l[tvzo|+>s#r2##--#d#####!!!s#v#v!mvb#",
"/o!<'x]]^4;:::a:;:n^;^^;^]]yt}#>>|=sut2#dhh!dh#!#!++|bh##v:-vvuv",
"/c=#9&x44;n:na:::n;^^^;44x]jtt-!z>=u<3h##h##hhvh+++b|b3uu!#mmuub",
"=|>ew'4]^4;a:a::;n:;^;^4]4][tt>z|>>[3###hhb#v!!!!d!s+|!h!#b#bb|+",
">%%+s<]44;;:{{{^nn:n;n;^4x4*tdzz1>+$dhdd##hhh!v+u#|s!##!b+ubs>>s",
"z!m|vg]4^;;:nn{:n:::n;^44x]y}!|=>zrt#d#-d-h!hdh++#!+vus+hb+ssz==",
"@2b#s3']4^n:^:annnnnn^;]^xx)lb|z>z@v#d##dm-@-d-#!!+!+!b|++--vzu+",
">sc+ub)4;;nn{anan;n^;;444]4lt|b|z>*#v#!hh!#d#-##-hu+m!>#u+!t2dc>",
">+##-x<4]^^;n^;n;:^^;44^^]]r33|+=>t#dh#!#ub#!2@-}!|-s>|>h+v#z>>>",
"#|s-++g&4^;nn;n;^;^^^4;44]x$2*w[swl##d#b!>!hu-t---||>>u>b#+u!>|>",
"z|>-vvw,]^4n:n4^n44;^^n4]4&wtt**i<v#v!!u+!!sh#-t#d-!>|>++>ub+>-+",
"z!s!++@,4^;;^;^^;4;4^;;44])*iiiir*yj-bv!uu!!!hd}-d+>z=hssdvss#sz",
"b#>!v#2$]^4nn^;4^^4;;^;;44)~@*tt3@'~y$b#v!hu!++hbv!|vhhh#h+|vzz+",
"v+##-@-9&;;^n;;^;4;^;nn;^^,w**@@*',k'k$wh#+!b#!+!u||#u!+||z!>szs",
"b>2!}-@y';;nn^4;;nn^;;;^;n,$[*i*@@&'',,~$3vhbs+!##|>|+=zz>z+hz>u",
"z+-v32m)'^^;;;4;;;^nnn^;;^^y[**i*~&',''''y*!+!|+#>|++|zz=>>!sz1!",
"mm3-m-3$&^^;;:;;:n::nnn;^;^r[[[i*['&'''''r)3|++>1u!>|zzc=uoz1z/z",
"-vmt-tr$&nn;::nn:aaa::nn;n4^wy***y~'&&'''''w2!++|s>zc|oc>z+-u=f/",
"l-x-@-[)4;nnn:{naaa{:{;:4;^;~[r$[*y)&&&&''&'rvbz>1c|%=zzzv+!=fu>",
"*l-#-}$':::{a:a{{{{{{anb:;;4^yyyy)y$']xxxx'l)lu>=zo|cz-l*+>|=zc%",
"*2#l-3$]:aaae{{{{{{{a{:na:^44xrwyy~)~'44]&''lr>c|c=zc+v>!+|zf/|f",
"rm-22@y;:{aaee{{eeeee{:a:nn4^^&)$r~,'~,'&&k'yiz>zz|>#2>>!>=f+o=/",
"rl----,:aaa{{s{(p(((s{e{;:^;]44&,)~~,~'~~~)~*-=zo//#+|-uz=|/%=%>",
"$vm--l)::a{e((((pppeeeaa:n:;^4x]]k),,',',,3**-c==z2vv-*v!>=uu/>%",
"r2-l}lr:{{{{e(pp7p7pe(esa:;n^4]]]^',,~~~,,,r*zzc|-vr@*-#!z>c>=+q",
",*-t3ry:a{{{e(pz7pz(p(e{aa;;^^]]]]4&,,,~,,r3-!z|u#$r**it+zc>2|fc",
"~$2}33[nea{epp7pp77pz(e{ens;;^444]^^^',,~y3-fzucz<<i**itdoh=bcz-",
",[2l**[^a{|{epp77777p((sa:::;^]4^^4]4&'~rr-ozc!z$g*tii*t2z!>>/>/",
"~~ir*$j&{a{({777p77(7e(ea{an;:4^^^44]]&3*v/z8=cmgit}r[iiid1c/cz>",
")3r@[$9@as{e((7pp7pppe{ee:a;nn4^4'''$j[t!=c/>==<witit*lrt!>>/o/%",
"~~r*$$$':a{{(({zp(>((p({sa::;n4]'~[[@d||#=|cocb<iit*iitt*#c==qf=",
")$@*w99~nass{eeepe(e(z({{a::^^4'$*,dud!|||zoz/j[b}tttt*t-2z/8=5%",
")$h@[$$~naaa{s{eep{({{a{aaaa;]]<3d!!!suzuc=+|o23-tti-ttttdcc/=f%",
"~@hhi$~~]nnnass{s{e{{(sss:an^4x<d+++>h|>zcz|zuhr}-}itttt--d=|/5_",
"w#vbd-[~]^u::sas{{e{{{:an^n^^^~@uu!t>|>>==z+>/tm@}wtt}t--d>/=%qz",
"x##vmv-*9';^:nauassa:aaan:n^&&gu!|v!+|+|#>uccz%-d*---t-t-#us7qf_",
"!mmhvmm#l$<^nn^nan:;naan;n]&]l[b>++e=8zuz=z=|=8=c!d}-t2l2#+/85%f",
"b&--xm#---@<@n^;m^;;an^a^^^#&[+!|vs+u|2||z+c>=/>cc/uvm2-vs=c/088"};
