/* XPM */
static char * future_knight_1_xpm[] = {
"64 64 65 1",
" 	c None",
".	c #020209",
"+	c #5C687B",
"@	c #2E3847",
"#	c #455060",
"$	c #1E1F23",
"%	c #212B3E",
"&	c #39424B",
"*	c #8B97A9",
"=	c #768193",
"-	c #515C6B",
";	c #302C2A",
">	c #252121",
",	c #3C3831",
"'	c #47433C",
")	c #697385",
"!	c #524F4D",
"~	c #10151E",
"{	c #293243",
"]	c #808A9C",
"^	c #35322E",
"/	c #2A2626",
"(	c #414A5A",
"_	c #1D2637",
":	c #3A3E4E",
"<	c #363E4E",
"[	c #4A566A",
"}	c #ADB3C0",
"|	c #5E5E5C",
"1	c #1A2030",
"2	c #272D3B",
"3	c #3E423C",
"4	c #181A20",
"5	c #636E81",
"6	c #9EA3B1",
"7	c #BEC2CC",
"8	c #080B12",
"9	c #747A8C",
"0	c #525663",
"a	c #969EB4",
"b	c #7C869C",
"c	c #8A929F",
"d	c #A6AABC",
"e	c #6E7A8E",
"f	c #566274",
"g	c #4B4A44",
"h	c #4E4E44",
"i	c #372C35",
"j	c #120E24",
"k	c #433E39",
"l	c #636A7C",
"m	c #969AAC",
"n	c #1A1622",
"o	c #888C9F",
"p	c #404655",
"q	c #4A5160",
"r	c #221F2D",
"s	c #3B383E",
"t	c #242638",
"u	c #323949",
"v	c #565E74",
"w	c #4E4644",
"x	c #394254",
"y	c #302C35",
"z	c #5A6171",
"tp:sx:pu&:x:~4w!g!!0!!!|gw3k8(f-+zqg~yp{(9-=0=+o-5=o9-0#z=o]m9a}",
"pkk(x&:&&pu@;n4'!hgh!g,wg3,4p[(l#-8~44$t2qlvqvzp99]5mv=ml=dc9c]6",
"sp:pxupp:p:&p@t4^wgw,,k33,4%qxv!~84/r4r214>-)l-9l)ob=95movm+)6m=",
"(#:p3(pp(p(hp0(2$n/33,3,k~{<#!q8r/>411%%%t_|+z+f)+)z##zu<)l99cb}",
"q::#ppppx(q(#qhq(@$~/^^~nupp(:8r>rrr41_212~%-v5ezl=){f+ef[b])o}*",
"qqqqp!pppqpgqqq:3p#{>{1@p:&:&4>r4r441_{%2%_12lq5+ff)+)l9)==*]]=l",
"qgq0uxpppqqpppx#p(g##{@p@p<&%>>>4$111_{@{2__%1(f(-+)[#5l)+e*ooc7",
"q-xqp(ps(qxqpxqpq#(&$@@&xp32~$r4141111_{{2%%11%ll))0)[)-+=5a+a).",
"xq0@0:p(:p0(!<pp((q2suu<<:r~>4n411_____2{%22_{%p0vv5vp+-)=5ao|.n",
"--[qq0:pq[qqpqp!&s4s{u&&&%n>rn11_%%%_%{2%uu@%{@@{#5v)-)=b-om6.>:",
":+quz-0q00#qpxpqq2{@<u{:~$>4nn4112%_%<{%{{uu%x{{%@<(5=)el=mo..@:",
"u::fv0qqq(0-0qqq{12{s@$nrrnrn11_%%{{@x<u{{@<@2{{2{{<#5#=+bbo.2{:",
"~~~t11qq(qq0-p[q^2{14~>>444n411t22%@<@@<%<@{__%@{2@(#l=o)+)s.iii",
">/$4$1{{q#[0#[0&%1n>/4rr4n4n41%%%%2@@u@xuux@%%%_1r12u+z)[))$n@ss",
">>r141%yt:qq[0z^n$>>444n411111222%%2{{@@@<@@{%_2_1tt(#0(fl98,,,3",
"%rr11__1u{#0(q(~//r>rr441441_12%%%2{@2@@xx@@{{%%_%t{<lvvv+9^^,:,",
">rrr1t2%tu{pps~$r$4411144%11_1_t2%{%2{@@<{x{{@t__1%@(f+q+e504^,,",
"ttrr41_%ty{u{4ntrrr4111111%1%1rt2y%2{{1{@<@{%%_t__@p##+lv-ev.,,k",
">>$$112{t%t{~1rt_111r111_11___1t2{t{%%%{@@%@%2%%%_@(#f5[l5l58;kk",
">rrr11{%{%t11_11t%11111__1111111t%%%2@{{@u2{%%_%{%{p(z5+vll99~,k",
">rrr_%_yy1_1%{___1_%_1_1_%__11112%t1%{{@{@%{2_%%{%%@@<[p+[+5z~^k",
"rrr1__%{2t1{xu@{%%___%1_12___11111%%%%%%%{2{@%_%1%%_@@:0vz++9-4,",
">r>111%%__%ux#xu1_1%___1__%tt11114111%%%{@@%@%%%%%%11_@0[[+5z)~s",
"//r1_{%{%_u([[##%12_%_1_1%__%1nn41r1111_2%{{{@%%%%__t1r2[l+5+)-~",
"$44t222@{{<x#f#-u@%11__%1111111441411r1_1t22{{%%%__1r1%{qq5#-9v#",
"nrr1__%%{@#[pv(-[u{%_11411_y@{{%t4$44nn141t%%%%2%%%_1tttu-z-+)#=",
"~>1__%%_{@[(#v@[#<q{{{{{{{(pxu@%{1rrrrrr11_%%%%{%%1141rrt[0+5)<v",
"4rr___1_{<x(vf-v#q#<p(p<::u:{@2{2{$/>>rr41%__%%%_%_111rr_<+l(l5=",
"(1rt__{%@(fff++l-(pxuu{pupx:{@2{22~114%%tt11__%%t__111rr1{v5v=++",
"-4_11%%%<#[f[f+v+ll+z-{<@@@u{{@@u@@u<uux<p%11t1t_1_1ttrr1@v+)5=9",
"04211_%%x#+[+v)-+-q+efq0[upx:ux(q0@{u:::xx:11111_1_%1_tr1{(+-v=)",
"f)2{2%%xx-vqppq:#x[0))5f--[0v0vz[q%yuuu:x:xx__111_1_%t1>1{[l)+fb",
"-)pu@<#x[#<<%:1141@%0z0[v-ff5v[zq(%{@u<uuxx:p1>111t114t>/t([5f-=",
"e)+t0xx#p#[(q({x<uu:{{5qfl-zffz5qq2yuu@u<:x:<@rr4r111rrrt2(f#v=5",
"5f[pq#(p[@p#x({uu<{<x{pzffz+vzfl-01@{%{{:u((x@11r4rrt>>>tr<--+ze",
")vv1tu@x-(#@@<xu<p{<<u{p:vq-([llz[{u{@2<@:<<<<x4>/>r>>>>r22qz+-)",
"+9)u_{@pv#0(uxxx{u<<<x@p[+v++--5vz{1@uuu:xu<<:p24>>/t///_tt2(+++",
"v+4%1{@uq#<@2p(#u<u@@up([fz)fl+l[zztu@u@u:p:::2u_$>/>>//>14%<[5=",
"5l~~1t%u(vpxx<(p{u{uxx@x[)e)9)5l[[-:t{:<2u:u{u@u_1$$/>>>/%>1y@(e",
")n%rttt{[#{@(#(x1>>%>rr1uqel5-+l++v+0u@@<@:uu<@@%11/>>/////>1@s-",
")4t%trt<p-x#((p8;'gwk's;rr^:+)+fz0lv#-qu:u{2@@{ttn>$///////t>r2@",
"x~12%t%@(#-(#p1yg'3w'k'r_tr2u:lzl-q0qzzx0!@s{444$$>//$>>>>>r11%<",
"~8%%tt%u([[xp<8w3'ggg';>1_22_41~:vll)llv<%4121t;///>/>>4>>t>trt_",
"~_%_%%%{[v@<##~'wg''',>rt_t%_%{2rj4~84%r12y{@@%4$//>_/$/>$$1r4r1",
"t~22%%u@x++x00r''www^>/tyttr__%%%@%%r>;;42x@{{%2_4_>>>$>$>41_1$r",
"1%%{@%{@(f#%#@4'w3g/>y/tt/tttt%%%2%tt^k,y^r{u@2{{>4/$/>>4411114r",
"1u<{@@%@#)#p(-j3,k$/;;y/i///tttttrtr;',kk;^>{^u@@@11>$>$r121114>",
"=-%%{{<<ve)[<(%^;/>;;^;;yyy///t1t/>;kk'k3,^^42@@uu<{$44$1%2t11$/",
"lq{<<@@((e5(-[q4ri;;2;;;;i;^y//yyy;/;'3kk,,^^>u<x<<{t14112t114t/",
")9#[#x#-v+---flzj2/>2;;;;^i;iiy;;;;;^w'k^,,^^1uppu@@@@2t@r%141>/",
"9=o])+5+v-=)be)5u1/yt;2;;^,^^^;y;;;;;k3',^,;^22qpps@{{@2@r%244r>",
"m]9=e+))(fqle5ve=u4/t/;;;;;;^^;^^;;;;,'',,,,^ir<#:u:u{{@{22%111/",
")b=9c=9qg[(1f9cq+)urt/2y;;^^;,;^,^^^;;3k,,^^^^/{[pp<u@{{y{rt114>",
")=llzeml%x{<p-)==-(niiy2;^^,^^^^;^;^^;,k,,,^^;,%p(puu:uu2222t1$/",
"9m=o=ex!u{q2%q:9+p004si,;;^;^^^^;;;;;;,,,;^^^;;%((xp<xp<@@@2_1n>",
"==em]l=m;2u2p@<=v=)5^4,y^^^;^^;^^^;^/;;,^,;^^;1{[(#(#px<u@@@%_$$",
"mp=)#)9+{&%<@2<ql]=o=~;,^^^;^^^^;;;2t2>^;/2;_@@-[p#[[p(x@uu@{114",
"*fo56ol)o(u:@<([pf))l.%,,,;i^^;;;;y/yty%%@:#qv+f-+-#-((<ppu<{11$",
"o)}boemcc:pu<((+e==e9$4,;,,;^;/y2t:uvevee+-(e-+v+vv#[#(px(p@@_1$",
"d)=p=mobmo0x+++e++5v-~nys,,^iy2t@(z==v=)+=+e+)5l++f#(-[x#<x<@%_n",
"]o=c9mm}mlo5)=be=e]b+1~y^,i;{y@p=v=)l+]5lv5q++5l##vv^%t%_@<<@%r1",
"o}ooa5dm9v=o*d*9czoo6;4^y,,u/pleb+l=)&8.88888j.88~~44411_12{:u{r",
"d}d}ac]69599=bc6m*oa882y,y,t<v=99o]l..@{t2{u@@u@%@@{_%21_1%%<@u:",
"c]6)c6]95loloc6mb66d84iy{ssu()95)*o.~{<p@%_@{_@uu@%%%%_rrtt<###l"};
