/* XPM */
static char *grasspathv[] = {
/* width height num_colors chars_per_pixel */
"    64    64       64            1",
/* colors */
". c #405742",
"# c #405942",
"a c #405a42",
"b c #405b43",
"c c #415d42",
"d c #415d43",
"e c #415c43",
"f c #415f43",
"g c #415e43",
"h c #415f44",
"i c #415e44",
"j c #416043",
"k c #416143",
"l c #416243",
"m c #416443",
"n c #416044",
"o c #416144",
"p c #416244",
"q c #416344",
"r c #416444",
"s c #416445",
"t c #416545",
"u c #426444",
"v c #426544",
"w c #416645",
"x c #416745",
"y c #426744",
"z c #426745",
"A c #426644",
"B c #426844",
"C c #426944",
"D c #426845",
"E c #426945",
"F c #426a45",
"G c #426b45",
"H c #426b44",
"I c #426946",
"J c #426a46",
"K c #426b46",
"L c #426846",
"M c #426c45",
"N c #426d45",
"O c #426f45",
"P c #426c46",
"Q c #426d46",
"R c #426d47",
"S c #426e46",
"T c #426f46",
"U c #426e47",
"V c #426f47",
"W c #436f46",
"X c #437046",
"Y c #437146",
"Z c #427147",
"0 c #437347",
"1 c #437247",
"2 c #437447",
"3 c #437348",
"4 c #427047",
"5 c #437548",
"6 c #437748",
"7 c #437849",
"8 c #437b49",
"9 c None",
/* pixels */
"MakByC9999999999999999999999999999999999999999999999999fWvrvveuN",
"GlfBNl9999999999999999999999999999999999999999999999999rXSqMpEuN",
"NOlGOq9999999999999999999999999999999999999999999999999Myfyduydf",
"AvBlNr9999999999999999999999999999999999999999999999999rEcH.dN.f",
"ycaGa999999999999999999999999999999999999999999999999999CfacNlkc",
"mHOr9999999999999999999999999999999999999999999999999999Bcf.cjmA",
"jaBc99999999999999999999999999999999999999999999999999999cmAcaCH",
"HHGl99999999999999999999999999999999999999999999999999999ymccAcG",
"aBu999999999999999999999999999999999999999999999999999999fClkcal",
"j.S9999999999999999999999999999999999999999999999999999999SNMuBY",
"dSp9999999999999999999999999999999999999999999999999999999evXorr",
"tpP9999999999999999999999999999999999999999999999999999999gGgPDK",
"IQ59999999999999999999999999999999999999999999999999999999XQaFQo",
"Ph79999999999999999999999999999999999999999999999999999999#EzZUJ",
"1w99999999999999999999999999999999999999999999999999999999zTwxti",
"Is9999999999999999999999999999999999999999999999999999999G2QFtV3",
"D19999999999999999999999999999999999999999999999999999999YE1tn2Y",
"hp9999999999999999999999999999999999999999999999999999999TnKahUI",
"th9999999999999999999999999999999999999999999999999999999Qw6UJIJ",
"8n99999999999999999999999999999999999999999999999999999994q5g5n2",
"QJY999999999999999999999999999999999999999999999999999999X211wV3",
"spU99999999999999999999999999999999999999999999999999999FpodEtPs",
"o3o99999999999999999999999999999999999999999999999999999kSA.zJsK",
"LRK49999999999999999999999999999999999999999999999999999uGWdTFqo",
"IK349999999999999999999999999999999999999999999999999999DWqTpKoI",
"x3dZ9999999999999999999999999999999999999999999999999999QfnErqKV",
"tL499999999999999999999999999999999999999999999999999999wrf#6P8i",
"tsP99999999999999999999999999999999999999999999999999999wpF1bD7U",
"Keh999999999999999999999999999999999999999999999999999994oKQ8Xb5",
"7Jw99999999999999999999999999999999999999999999999999999qxeKax80",
"PgD99999999999999999999999999999999999999999999999999999wJPJFJow",
"Qv999999999999999999999999999999999999999999999999999999IohEsJ5h",
"Sp999999999999999999999999999999999999999999999999999999V25w4fPT",
"oS9999999999999999999999999999999999999999999999999999999t6ZQ10T",
".T99999999999999999999999999999999999999999999999999999994Pw4xop",
"EJ9999999999999999999999999999999999999999999999999999999zpwJwt5",
"hw99999999999999999999999999999999999999999999999999999995sXVqz7",
"5J9999999999999999999999999999999999999999999999999999999PP4Vzn3",
"6K9999999999999999999999999999999999999999999999999999999to2RxV8",
"qZ99999999999999999999999999999999999999999999999999999999pKRJx8",
"8V99999999999999999999999999999999999999999999999999999999L6Z7LU",
"4U99999999999999999999999999999999999999999999999999999999RhL1PJ",
"e699999999999999999999999999999999999999999999999999999999KJJ3KK",
"xI29999999999999999999999999999999999999999999999999999999b06i0V",
"P0q9999999999999999999999999999999999999999999999999999999TwZZ#0",
"YzX999999999999999999999999999999999999999999999999999999oEr#GNy",
"BWX999999999999999999999999999999999999999999999999999999nweAwCc",
"vfj9999999999999999999999999999999999999999999999999999999qNECyN",
"aOG9999999999999999999999999999999999999999999999999999999E2ualc",
"yrEe999999999999999999999999999999999999999999999999999999pYEfm.",
"jrvM9999999999999999999999999999999999999999999999999999999fGfA#",
"BBaz9999999999999999999999999999999999999999999999999999999jdjml",
"kruc9999999999999999999999999999999999999999999999999999999oXB.k",
"cfME9999999999999999999999999999999999999999999999999999999lySdr",
"jkdN9999999999999999999999999999999999999999999999999999999Xv#dM",
"MfoyY999999999999999999999999999999999999999999999999999999Fdfpu",
"0Y0re99999999999999999999999999999999999999999999999999999SgoDDQ",
"wPQ2Q99999999999999999999999999999999999999999999999999999PSqx7q",
"EtEqp09999999999999999999999999999999999999999999999999999bowsb6",
"SroYnd999999999999999999999999999999999999999999999999999TDQPx42",
"zkjNFG99999999999999999999999999999999999999999999999999twKKwqPE",
"zflukj99999999999999999999999999999999999999999999999990rrSPEpPD",
"YBjABq9999999999999999999999999999999999999999999999999pfTbSw.Md",
"Blvlmc9999999999999999999999999999999999999999999999999EQSnTXWvy"
};
