/* XPM */
static char *grasspathh[] = {
/* width height num_colors chars_per_pixel */
"    64    64       64            1",
/* colors */
". c #405742",
"# c #405942",
"a c #405a42",
"b c #405b43",
"c c #415d42",
"d c #415d43",
"e c #415c43",
"f c #415f43",
"g c #415e43",
"h c #415f44",
"i c #415e44",
"j c #416043",
"k c #416143",
"l c #416243",
"m c #416443",
"n c #416044",
"o c #416144",
"p c #416244",
"q c #416344",
"r c #416444",
"s c #416445",
"t c #416545",
"u c #426444",
"v c #426544",
"w c #416645",
"x c #416745",
"y c #426744",
"z c #426745",
"A c #426644",
"B c #426844",
"C c #426944",
"D c #426845",
"E c #426945",
"F c #426a45",
"G c #426b45",
"H c #426b44",
"I c #426946",
"J c #426a46",
"K c #426b46",
"L c #426846",
"M c #426c45",
"N c #426d45",
"O c #426f45",
"P c #426c46",
"Q c #426d46",
"R c #426d47",
"S c #426e46",
"T c #426f46",
"U c #426e47",
"V c #426f47",
"W c #436f46",
"X c #437046",
"Y c #437146",
"Z c #427147",
"0 c #437347",
"1 c #437247",
"2 c #437447",
"3 c #437348",
"4 c #427047",
"5 c #437548",
"6 c #437748",
"7 c #437849",
"8 c #437b49",
"9 c None",
/* pixels */
"BYzzSEw0MjckBjyavBYPxe48q65hE.oSQP7KttxILosQ8thDI1PItdjaHjmyANGM",
"lBfkrtPYfkfrBrrOfWz0I6UVZKJwJTSpvgJesL3KR3pJnhp1swhQpS.BHaHcvOla",
"vjljoEQ0odMuavEGjXXq2999999999999DwhP4d3KoUY99999975PpSuGBOaBlfk",
"lAuNYq2ryNEczMe99999999999999999999999Z44999999999999999lcrGlGBB",
"mBkFnpQeY99999999999999999999999999999999999999999999999999aNONy",
"cqjGd0999999999999999999999999999999999999999999999999999999rqlC",
"9999999999999999999999999999999999999999999999999999999999999999",
"9999999999999999999999999999999999999999999999999999999999999999",
"9999999999999999999999999999999999999999999999999999999999999999",
"9999999999999999999999999999999999999999999999999999999999999999",
"9999999999999999999999999999999999999999999999999999999999999999",
"9999999999999999999999999999999999999999999999999999999999999999",
"9999999999999999999999999999999999999999999999999999999999999999",
"9999999999999999999999999999999999999999999999999999999999999999",
"9999999999999999999999999999999999999999999999999999999999999999",
"9999999999999999999999999999999999999999999999999999999999999999",
"9999999999999999999999999999999999999999999999999999999999999999",
"9999999999999999999999999999999999999999999999999999999999999999",
"9999999999999999999999999999999999999999999999999999999999999999",
"9999999999999999999999999999999999999999999999999999999999999999",
"9999999999999999999999999999999999999999999999999999999999999999",
"9999999999999999999999999999999999999999999999999999999999999999",
"9999999999999999999999999999999999999999999999999999999999999999",
"9999999999999999999999999999999999999999999999999999999999999999",
"9999999999999999999999999999999999999999999999999999999999999999",
"9999999999999999999999999999999999999999999999999999999999999999",
"9999999999999999999999999999999999999999999999999999999999999999",
"9999999999999999999999999999999999999999999999999999999999999999",
"9999999999999999999999999999999999999999999999999999999999999999",
"9999999999999999999999999999999999999999999999999999999999999999",
"9999999999999999999999999999999999999999999999999999999999999999",
"9999999999999999999999999999999999999999999999999999999999999999",
"9999999999999999999999999999999999999999999999999999999999999999",
"9999999999999999999999999999999999999999999999999999999999999999",
"9999999999999999999999999999999999999999999999999999999999999999",
"9999999999999999999999999999999999999999999999999999999999999999",
"9999999999999999999999999999999999999999999999999999999999999999",
"9999999999999999999999999999999999999999999999999999999999999999",
"9999999999999999999999999999999999999999999999999999999999999999",
"9999999999999999999999999999999999999999999999999999999999999999",
"9999999999999999999999999999999999999999999999999999999999999999",
"9999999999999999999999999999999999999999999999999999999999999999",
"9999999999999999999999999999999999999999999999999999999999999999",
"9999999999999999999999999999999999999999999999999999999999999999",
"9999999999999999999999999999999999999999999999999999999999999999",
"9999999999999999999999999999999999999999999999999999999999999999",
"9999999999999999999999999999999999999999999999999999999999999999",
"9999999999999999999999999999999999999999999999999999999999999999",
"9999999999999999999999999999999999999999999999999999999999999999",
"9999999999999999999999999999999999999999999999999999999999999999",
"9999999999999999999999999999999999999999999999999999999999999999",
"9999999999999999999999999999999999999999999999999999999999999999",
"9999999999999999999999999999999999999999999999999999999999999999",
"9999999999999999999999999999999999999999999999999999999999999999",
"9999999999999999999999999999999999999999999999999999999999999999",
"Ep0999999999999999999999999999999999999999999999999999999999rMrf",
"Qfrt999999999999999999999999999VIwq4wwQDukF999999999999999BCEyXW",
"STrwT999999999999no999999tP5z4t2oJxoprfWGSpX4QTYG999999fyccfcfSv",
"nbSKDbPS999999pEqwETbKRLpoPspP65hPeKFfnqWAo2qwnE2z#XgeSCmmfaHyqr",
"TSPKQoSgFXlojfY2Nerw0Jh6K24XwwZwEJKQ1#ETd.d156K1QTEQGvNlcA.c.dMv",
"XwEwPwqodvyXdGEuEA#Z6JLZRRVVJ4Q4sFa8b6rpTzE1gUatFwzagXMkcccNdupv",
"W.pqxsxDf#SBjffaCwGZi317Jxzqwx1fJJxXDPqKFJtw5JhntxZFPoucAajlNyEe",
"vMPP4b7Dpdd.mAmlyCN#0KPLxVnzto0P5o8b78KoqsPVnIU2VtUQDrBacCmk.duu",
"ydDE26qQuMrkl#.cNcy0VKJU88375pTThw05UiVIoKs32JIY3iJoKrYlGHAcffNN"
};
