/* XPM */
static char * grass_xpm[] = {
"64 64 17 1",
" 	c None",
".	c #425644",
"+	c #426E44",
"@	c #427A4C",
"#	c #426244",
"$	c #427644",
"%	c #427244",
"&	c #427E4C",
"*	c #425E44",
"=	c #426A44",
"-	c #425A44",
";	c #426E4C",
">	c #467A4C",
",	c #426644",
"'	c #42764C",
")	c #42724C",
"!	c #467E4C",
"+-#=,=,,#-.*=,',,##-=,=+;&&+%'*,=#+#,+=*',=,#=,==,=@%-,*+,,,,*,+",
"=#*,+#=##+#+,##%;+=#;='=%,*;=*#-,=*#+);,,**==%'==,#-),#,)+#=#,#+",
"++#++,,=,,=*+=#%)*,,,));,+=,,*,#*,*+=-+#'=,)=,-,;#=#%##=,*=*,,**",
",,=#+##*##+#;=;=,#,+,+=*=++;=%=*,+##+*-===-,*+.=*+##,#-,=*=.*+.#",
",*-=--#+*.#*=@,==,=;#%+##+#,,##,#*=#=,*,;%,=+####=,,%=-==*--+#**",
",=+,==,*#.#,#+=;';)=%===*#+)=#,-*,+,**#,#;+#+#.#*--#,#,,,*#.*#,,",
"*-,*##=*=+#=+=='%=-#*,;=,,#=$#-==#,,,=#=@*=)**#,#*=-%=#==*,,*-==",
"+=+#=+,.,#,,=#,#=@=);=+==',-#-,,,%-,++=#*$#=-$**#,-,+*-=%,#*-,-+",
"*,,##*,*##,**,%*-#==,+=#+-#=+%-,,##=#,*%;=,,,,*#+#=#=#=,##,,#*-#",
"*.+**#+-=+#,=)#==,+#===,*#,,=*%#+=,*,)*,,+*+#,=,,##$,-==,=+==,,%",
"*+#,#,,.+-=,#+%#=-%,#)=)=)+.+#*#*=##=,,==#,*$#*,#+-=,,,,*,*,+#,,",
",#+*#,,%=-,,#-)=##.-;=%%+$#*==*,+,,=,,,-=+=+,++,#*##+#,#+**=*=,=",
",+$%,=-,,##*-,#==,##,#=,#,%;=+,==#==,;,,-=;#$=+===+=+,=,*+%+-=;#",
"+*'#%,#*,*#***,%**+,#,)+*=,*--)##=##**,;+,#+)==.=*+)=##==#.==%+=",
"%,+-%++#=,=#=,.,=)=='##=,+,#=*%=*,#=*,,=,#;#='#;,#,###,#,=,+,,,*",
"=,'$#+###-##+#++#.#+*$,#;,#,,*$-,*,.+*#=,#+,#++--;=,#+-,==%;=,;)",
",%#==,#,,,*==,)*+#-,#;=*-%#.+*=+#=-=,**##=+**,#==%*-*+,==%=),*$%",
"####,####+,*,=**=,$+*=*,,#*===#-,*,,,*+==*#=###%,-#=,%-+=)*=-#;=",
",#,,,,+##,,==*,*=#=*#@=,#*$,,',%=#-,,*,*.+),=%#%=,,+#*+=,+,'+=,=",
"@*',=%%#*-+#,#=,+=-*####=%===%%-*,==#*%%+,-%)+#',;*@*==+=+,$*'#'",
";=)=,=$,%+==,*-=*,,-,,#,,=#*,+=#,+#*#=-,%,+=#,=,+%#=#;-,;+)%%,+)",
"##+*,)#,=,#-,=+=),-=#-##+**%++,=+#%+,,+,=-#,=*%')#-,+=-*=##-,,=,",
"*)*'==,=,*,+,,*#==%-,,;#-+***#+=)#=++,#,=',#;-,*#$,-#*#,#+,-,=#=",
"=+;%=-=)#%==+*-*,*=-==,=#-=#,=-#-#===),),%-=#++*='=+%=#*#=%-;=,#",
",=))+;,=,#==#$==,,$=,,=#==#,*,#,#=)#')*=*=,'#=,=*;##,-+*=;,+#=#=",
"=%*%*,==*,*==,-#;=,=,,-=##,+,#**=-*;=,=*;,)%;,#.##*=$*,*+**=,#=;",
",,;#-,=#,*=#%**+=*##=,,,*+*,--,=+*=,*)#=;+;#**+#+;#=*#+=,,*-@;&*",
",,+**)=+*#*=*#+*,+;-)#+-=+,*-,##,-,,==#**#%,,%==,#,,,,,#,#=%-,$+",
"=-#%+;.,#-==,=%*=,*=#=,,,-##,=.#=-*,,,#+=;=-=###=+#=#=,-+#=+@%-'",
"@=,.*#==##-#,==@#,=**--#,+***-,#*+--,#)+)==#*,###-#,#=-;#,-=-,@%",
";*=*==,=*,,#,====%*-,,=*==*==,%#,#*,,=,%#,-#*##-=-=,,,==,=====#,",
"=##=+##*,#,##));=*#*;,;*$,*-=##-,,+-#,-=-*++#,*,**#;,=',=##=,='*",
"+#*+#=%*#==;#%=+#,,#,=+=,==#**,.=,##,%#%*,*,,*+*=**$#+#);)',)*++",
"#+,*,*=%)='#,=,=*====,#,-+=#=,,=*,==,#==+===,#***#,*=*=-=,$;+%))",
".+=+*#,,)%,-*$*+=,=*=*='##+$#,,==*=-###,*,=,=+==,+,,#===+)+,%,##",
"==,,=#+#*.=%*##=,==,;-)=.*,,=,=,,##.,*=,*+%,==,==*');====,#,=,#$",
"*,=+*.%*,=,,*,#%#;,,=#-*,#=*###=#+*-.*-,=-=+,$=#*=#***=,''#;),,@",
"'=='==#,=.-#=.+,#,*#+#-=#,=#+,%,***,*%,,#*-,###%*+*#=-;@*=;%+,#%",
"@=*+=#.**,=*,*.,-,=*-##*#*,#=*.+,,*,##+#%=,#%,+%%=,'+$,%-#*);,;@",
"#)+%+*,#.,,,,*##-=,*-.-,.--,,=%#*#-+*+==++=-,-=)*#+==*-,+,#+==,>",
"@;**+*%,#,=#*=#,,+,=*+=*=#=#=+,***#==*..#=+,-*+#--%==*,=,@,@)@=+",
"%+'$=#+*+#*#+.#.*#=,+**#+-.,=,-#%*-#,,%,#),=#+,),=*=*,##,=+*,%==",
"-$)#%,$#+.*-=,-,*#=-=,#-=+.#=+#=#+=%+%+,-,=+*+*;),#,#=,#,===='==",
"==$+=,=+-,+.#,,*,,##*=-=#*=,=+,=,,+.#.--%=,=;,%=%';-%,,,#;*'@*')",
"=)#.=,--=**#+,,,-=+=..+#+,###+.,*-=*#=#.==.*==%==-),,='*%,+,+%.%",
"),)==,,=%==+,*+,.*,*%*,.,,%-*=*%,+##+#=,,*=+#,',=,@;,=*;%#=#-=+=",
"=+%*,=#%,+,==*=+*,,##%+#-=++#++#%,,-+#,,,),*$,;,##=,=,+,,*,*,,,*",
"#**#+-,#-=%*%,+=+.,.=%,+#=*-,=##)=+#*,=,=##,=%,%+%#,=#=,=-#=====",
"-+=,##,$*#$*+,++#.,#=#=#,$,=,,#==),=-=*,#*+;#*#+,%;#*+,*,+=),-#*",
"=,=*,##,+=-*+*,#.#,-,+,=+,+,=#=+)*,;*#,***,=#=*,',#,,=)==)#%,*,.",
"*,,++%##,*##==,-#=*=##,,+#=+%=*+%+-*#=,,*+=*,='-=#%,+#*=#==#=*,-",
"=,-,==*=#++*,%,,**##%%*#=,**-==)+**,+',##=,=,,$,,,),=,-#%#,**#,#",
"###-+%%=%+**,*===#.*#,,#=*+;)#%)#+=--,=*=+#+#*+,*#=*.=,#+==#+,.#",
"*#+=+=##,*++=.=+*=+*+%,*#-,++*=*=*=#*,#=,-#*#+#+*=;,#*#*#=,#,+*,",
"*#*+,+,#,#,=*,#=#,**##=+#,#=-'*@==,.#+%#=,#=+*+,,,*=**,+#=-%,--+",
"+*#,),=,%-=*,=-.,*=**.#%*=,===%=-#==,;==%,,*,-,,+=,+%,#-,#==**##",
"%+)#*#,=#=#,#-#,**#*,=*=,,,==,),##*,#,=,),+,*=,-,#=%*#-*%++*#==+",
",++$+#+%=,**-#-#-,,#,=##,),;;-+=#*$==,))*,##,=+=-,=#%#+=#,=+#,$#",
"=,,##)*=#++%,-*.##**,**=+=#%==';=)%,*#*+,'),,.**,),+##%===-#,,-'",
";##%#*-*=#=*-,#=.-.#+#*%,;,%;;=%*=)=;+=',+++,=#%+==,,,,+#;,++,)$",
"=#*==+*#+,=,,=,#,+=,-=,#+-=++)+,=#+#=%,=,#@'-%**,)=%,,,=,,==,#==",
",*#,***+,,*,=#,%,#,*-#,,#%)=;*==##)%#,=;,,=,+,#=*##;+)#)#,;==#;,",
"%=*,=#,,*#+=+*,=-=+-*%@%,=@+%,=#%+#=*==@#=+===#'+)##==##*+*;,.+*",
",#,##*.,=*#,+##$$-+$,,%*,=*=')*,**=*;,=#;,,=-*)=*,%@+;,=++*+%%,,"};
