/* XPM */
static char * grass1_xpm[] = {
"64 64 27 1",
" 	c None",
".	c #3A363C",
"+	c #3E5E3C",
"@	c #3E4A3C",
"#	c #427244",
"$	c #3E6A44",
"%	c #3E563C",
"&	c #3A423C",
"*	c #3E6644",
"=	c #3E523C",
"-	c #427A44",
";	c #3E6E44",
">	c #3E5A3C",
",	c #3A3E3C",
"'	c #3E6244",
")	c #3E463C",
"!	c #3A3A3C",
"~	c #3E5E44",
"{	c #3E4E3C",
"]	c #427644",
"^	c #426A44",
"/	c #3E5644",
"(	c #3E423C",
"_	c #3E5244",
":	c #427E4C",
"<	c #426E44",
"[	c #3E5A44",
")*%)')=%,@%~)=<=_;{!=']<{=_@{{@'@'{%$@~>{]''/<@~%!/{&={<@@[${=)=",
"@){%'/){[%/#$';~{^~{/~/~~@*{{@,>+'{$$_&)__*=){&,_)%~${[)_=%%,;/,",
"{#$%==~@!=&*~~$[#=*'*%;/[{_~;/{[!{)>=){'){~.=/{=@,%[@~>@{{&[.=={",
"'{=&%/%@=/{=&+%;*_==*[@='*+;'[@%*_),)$_+{>'{$=&>&!&'_{/_&)@;)'//",
"@=@*'[&=+*;~')'*![>!'=)=$'{'>$)=*'{_{=[[#=*))>!@+>%=*$=%@@{%+%%&",
"'&{={,@/@=+'>{@)*@/+%{!{@@'#_{%)+&$>@)@%=/+)/@~')/{;{+>~/[.{/%@+",
"[{/>@@%_{@$%/+&>=*//_[/*@=@'[/.=>@#)&>@$%$);/+=*&[=**')%'%'{*{&/",
".~%/{~={~%@&>[>@/)=>=);%/,>{=)%=_+[&~!~/'_@%%['@{=!)[=@;!',>~{_&",
"%$+=)!=,/*![*~@,@'']*,!+;)@$&[@&/{[&[;@.>@&[#{*=%*''{@!%'@@),&%>",
"~>@~_&;&,)'+*=@#''#%'@{/___,)%*&$$)'$+=@,[*%;@{_[)>=&{==>+_%)=,,",
"[/$'&,%=>)&{[[@'%=~+.~++={'+{$)@{>{&'&~{'@*@_=%#),_~&$[/@&{)'{'{",
"$@{@=))=_@@&){&$%&._@*'_)*;_/+>~*{$*;$@>'@.%*~{'%'*~{==*[={{=$=*",
"==[*@'_,)@{>[>*)~@!'>)$;+@{@@'%%~==+%=${[;/#@{{@%%$@_{$+){__&)$~",
"~&%*@>){~;){@&{[;'=%;%#%[&%;@){{!_%$!./$+=@>&,&*)@{$*$>&'$*)=[=%",
"$)>$,'&)~'*'@+*>+*+*/+*,,'[{~_~&>,;{)>+*;%.{~_{;{@{{!%_'*=&_*#{@",
"[_~_*'=%@%+{%_{)&%@{*@&*===[$>=+~&=&/%/**~@{%='~/$>'='@+>{~{'{{~",
">,%>{{/{@/=_%=_~${;{@@%@['{~=~*$>)='=*%+>//{/>@%!;{%{%[[)=&%#;&)",
"{=_,_;.~&{'{{@=>/=''&{!@!,$+~+@@@''{@@,_@{>=';*[$&/=/!%=@)%&#;),",
"['{.>;=$%@%/&'%!@==$*[$&%_/%{_.,=%~&%'@,=_,>~%*~*+@)_@;[_!'~{);=",
"*=~{{>>&{![{&@[&*['%&';{/@&&{%'@~/%&>'*~&{*[;;+~{)*+**[%,~~[&'$#",
"#%_/_*&]$*'='==~>%[/{;~$+%_',=[+@_~[*%+{~{%%/=$~@&_*{&_'%%!_&)@/",
"~[*@@%*_{'*~{&[+&%=%&{%%_'{{,/+/&]]%=*'@$&;)&/{%&[{;>*),%/>{*_/@",
"+)$=~~{'@=%;{@[;_&'~@{*{%%_{+@!+*,~{{'_=&'';=@_*'%$!$'{~{$)'>+='",
"&;=,&@%{={;+*%@[>@'$@~'@/@@;,[*&~=%[~%%&=~**&/&,+[>&',+{'[=@~,~%",
"_[]/.&[;~>~{/=&_;>+_@&&=$~=['>[{{{[![{{/&+@$={>_&#%%$=$>%,'{~))=",
";[;{-%**'&~[&{&%@&@=*~>%*{*@=%&%~&%%[~;{=!&=*['{>[__&~;$)%>,>'&&",
";[*&~%{&{''''%;;~{@{@*~,*%$%{%~%@['+=&'!;/[$%*!['%'%>>=/&.%'=_@/",
"#*%*=@@,&%>>'{'*,@&&%@&'{=&''*'_&${;_*$_@;&'$+%)*'>~@@[';{@{_=_+",
">)./'&==&=&{/={$,&/&[*&,$&,$;>%'&,[;>%{/,{;./='>'%%&'&@')*;*'$@_",
"/=!*$;[,>*[&'${=,'{~{%{%>&{'.!&&+%={_;{%){*=;/+{&!'{,@*=[@#'+~{+",
"&]>&>%_~*%+='~_/*>&~~=/[&={%'>;_&{;%[~~'$=>*{*[)$>[{&>~+&@{~{){_",
"{=;+$'!;%/@;,+%%%/=*$&%=$&@[%!=;{@*''{=&={@=&&{=''{**@*_!{/>~{*=",
"#~[+@{%{&_~$&[&_]&$>'/'%/$&@__*%_>@*,@+;[{*%{)*>@&>[/>;_{;&%$,'~",
"[&&{!,$/,%@*=%~&&=%{.+$'*'*&@$%&+{${&*%*$/&*>$@!{_)%&{%~{;*@~)%)",
"{!,{>+)&~{+&;@{;{&/&&+@%*$@&={'{_{@&='{'=&>$+%%*'*/;/%@{~/{][/*>",
")~%$[[&'=$[*/>$+[/&='&{=%+*=%_%~>@%%@>+)*%%,@!%'+'=&@,',)',=,[%)",
"+)@=%&*!>=',,>{''*@&[$/{~+@!>[{*=@~=_/+&/[[['&==+'>@;=/%$_','['=",
"'~&//)==&>%{>/@%>@*&*@='@&{&*>'{**&&%>>$'){>@[[&@+[[[*%'&!{'=&,_",
"*#&>*{,&'@=_,.=@,{*+&'%[={@{~>~{>'=,;~{&%~{+*=_~*+@*,[!{$&+)*@$;",
"&&>/>@>/=_>$&@&&{>>@>=.*~~{{&{%[{{&&{$==$%@*%#&!%_&%+&={>$~/+=$/",
"]:>&&&>/&!=%+&@&!&@'*=@@[*_''[&~;/*{=${>_/~&&{{[>&['+_+'{~)@[{=#",
"'&[]@@[=;%*@'&,~&/[@,@'+&!&{!%&{>*%[~=*_&{>)~&[=&'+*,{@$,&%,'@;_",
"*)@;@*'>&{=&'&=%*%'%=&~*&%@&{*~$%;'*[&'>%$/%[=*${[**$*{,&[{_~/%'",
"~&@{;;={~{&{%{[$=%+@~=@>*{@{$=;{&%@={>'*~=','''/!>@%',!>$>/)@%{-",
"@@&'%&[{;$_={{%={&&+@,>='%~~$=&/[=%_%==*@+>>+%*%,&[%{/{'{$.@['={",
"[$[~;*==&*%/@*{*/_%/&=$/&{%.>=[,@&&{'*$'[_@&_@';;~;$;@/{[%{@&,)*",
"{{=,{@{,'%+[=['==[,*+&$>;=;_~>'$&@&+{+'&.~{%&'{@!!>&{{&+_;{>/,{[",
"@~{~{@'&@'&%'&>$@'&=*[@&*'>;>!%@@~;[&&#$&=~_]&*%&%.$;=[&+~*,=@/{",
"={['*_';@~'$@/%$&&;%@'@&%_$@=&&&+,=@@@&*+=*=@%;)$%/=/+&{~==@~{>%",
"_{{,!=*>[@+{$'@=+>>$'@/&/=%&;%$'&$@~~~=&~=&!{&_~/{@/{[_=+[*'+'@/",
"'[&>[=~={,>@*{'~&&{=>+$=~&/=@{=&$[{';*%{/''[~!]+_&='=~&&%~=~>'%'",
"!%'&&>&*,@*{{&>&=[!&/$%,+'%/[@/'&{$&.%,%=&'>*@==!@.*@%)_/=='_{'&",
"{+=*[$;&[=.,=*$=>'=&>'=/{{={[*{*{+%$'=&@>=;%*=,{+$=&'&%@&[%&{&%{",
"&*%.'.=~,&&>@&+_%=&{@@_+*[*/@&{;'_;@=%!${=+*$&{!.=~+!'&{[{=*==@[",
"{[=%*+>!_%~/{&%{{{//@=&%%%%&+_&*+[';{'[//_@@{/%*_=*&==',@;,'){%.",
")@{&$@&*+*&%*&![$~{&@@_{_@*&@'_+{,'$&'{@='&![$&!=%)+%$@%=!%=@,@=",
"=~@=;&&_'{~%&={~{+*{&>.=_**&'+~[%;@%'@/&{*$'%&&&[*{&@=={/)~[$_,@",
"[,.)>~=$&%&=,[%{>%>=%/>=;{*&'/&#'+@[&@&'@{&@$==,==[__[@{+/+%'%@'",
"&)*'=>[>{@/&+%%$[@_=%&&>>~';)=~&)@+@'&@>={$,/&{,!@>&=$@&%&~!~%'=",
"{%{=,{+&~/,='@&=%%{@'[//*+&=;~+{[=/@&=,@*=%>%'{$'%&&_[$,#_#=+~=/",
"&'*'&$*{'@={'&&~&~[{!%>=*=#;*@{;/=*%_=[[*'[]'!'/&&=,=*/@'!.;@~>#",
"$=)$'{@{=%*[={[{~;%$;={'>;/'!&/'&&*,;'@!~$@@=!&&${&>[@*{${!;*')[",
"&%,*'/&'~'%_[%%!;%@;//!&$,&$[+~'@=@=>'@={[~!{%&{;;{{=@_,@&,=%/%=",
"_[+%'@@@&>%>'@&;%![+&;)[%%+,>~>{@&&$&!=/'*$@>/~~;/_[.%%&=%*/**=_"};
