/* XPM */
static char *magick[] = {
/* columns rows colors chars-per-pixel */
"64 64 4 1",
"  c #afafaf",
". c Gray73",
"X c #fdfdfd",
"o c Gray100",
/* pixels */
"............................................................XXXX",
"............................................................XXXX",
"............................................................XXXX",
"............................................................XXXX",
"............................................................XXXX",
"............................................................XXXX",
"............................................................XXXX",
"............................................................XXXX",
"............................................................XXXX",
"............................................................XXXX",
"............................................................XXXX",
"............................................................XXXX",
"............................................................XXXX",
"............................................................XXXX",
"............................................................XXXX",
"............................................................XXXX",
"......................................................... ..XXXX",
"............................................................XXXX",
".................. .........................................XXXX",
"............................................................XXXX",
"............................................................XXXX",
"............................................................XXXX",
"............................................................XXXX",
"............................................................XXXX",
"............................................................XXXX",
"............................................................XXXX",
"............................................................XXXX",
"............................................................XXXX",
"............................................................XXXX",
"............................................................XXXX",
"............................................................XXXX",
"............................................................XXXX",
"........................... ................................XXXX",
"............................................................XXXX",
"............................................................XXXX",
"............................................................XXXX",
"............................................................XXXX",
"............................................................XXXX",
"............................................................XXXX",
"............................................................XXXX",
"............................................................XXXX",
"............................................................XXXX",
"............................................................XXXX",
"............................................................XXXX",
"............................................................XXXX",
"............................................................XXXX",
"............... ............................................XXXX",
"............................................................XXXX",
"............................................................XXXX",
"............................................................XXXX",
"................................................... ........XXXX",
"............................................................XXXX",
"............................................................XXXX",
"............................................................XXXX",
"............................................................XXXX",
"............................................................XXXX",
"............................................................XXXX",
"............................................................XXXX",
"............................................................XXXX",
"............................................................XXXX",
"............................................................XXXX",
"............................................................XXXX",
"............................................................XXXX",
"............................................................XXXX"
};
