/* XPM */
static char *magick[] = {
/* columns rows colors chars-per-pixel */
"64 64 42 1",
"  c Gray13",
". c Gray16",
"X c #313131",
"o c #3a3a3a",
"O c Gray26",
"+ c Gray29",
"@ c Gray32",
"# c #5a5a5a",
"$ c #6a6a6a",
"% c Gray42",
"& c #6c6c6c",
"* c #727272",
"= c Gray45",
"- c #747474",
"; c Gray48",
": c #7b7b7b",
"> c #7c7c7c",
", c Gray52",
"< c Gray55",
"1 c #939393",
"2 c Gray58",
"3 c Gray61",
"4 c #9d9d9d",
"5 c #9f9f9f",
"6 c Gray64",
"7 c #a5a5a5",
"8 c #a7a7a7",
"9 c Gray68",
"0 c #afafaf",
"q c Gray71",
"w c #b6b6b6",
"e c #bcbcbc",
"r c #c8c8c8",
"t c #cecece",
"y c #d0d0d0",
"u c #d7d7d7",
"i c #dddddd",
"p c #dfdfdf",
"a c Gray90",
"s c #e9e9e9",
"d c #f6f6f6",
"f c Gray100",
/* pixels */
"1r4%@@@O@+++@+O++++O+@OO+@++@++++@+@@@++++++O++++@O+@O+@@@@++O+@",
"afp9244222422422222224244424222244224222242222222242222242422422",
"dfftww9ww9w9w9w99ww999ww9999w8999ww9wwwww99ww99999www9999999wwww",
"pfu92<222222<2<2<<<2222<2<22<2<<2<22<<<2<22<222<<22<<2<22<<22<<<",
"esw<%****%%%%***;*%%*;***%%*%**%%%*%%%;%**%**%*%%%****%*****%**;",
"6y4%#@##@@@@@@#+@###@@@@#+@@@@@@@+##@+@@+#@#+@@@@@@@@@@@@@@@#@##",
";9,+ooo.XXoXXoXoXXoXXX.oXXXXXXoX.XXXoXXXXoXoXXoXXoXXXoXXXXXXXXXo",
"*8-OX...X.  ..... ...  .X  ........... ....... . .......X..X. ..",
";8-O. .. . X ..... ..X. X  ......X... ..... ........... .XX ....",
"*8>O. ..  .X....  .X X. . ......XXX.X. . ....XX.  ..X... ..... .",
"*8&O ...  .....X .X......... X.. ..   .......... . ... X .X.....",
"*8-O ..X.... . .. X..... . X.......  ..... X ......X  . .... X..",
"*8-O...X......X. ...X...X....  ....   ... ..X.. . .. .  ........",
"*8-O.. .X.X  ... ...X ... X. ..... .. X..X.. . .. . X . .  .... ",
"*4-o..   X .  X..X. . .X .   .. .. ....... ......  ..........  .",
"*8-o..  .....X. . .. . . .... . ...... X  XX....  .........X .X.",
";4-O.X ..XX.... .......... X... ..... ...  ...............X.  ..",
"*8&O.. . X.. .. ... .. X........ ...... ...... . ........ X ...X",
";8-O........ . .  .... ..  ........ . . .X.  . .... ........... ",
"*8-O. .. .  ....X.    ...X . . .... .......  ... .  X....XX   .X",
";8-O ........   . . .X . ... .........  .. ....XX....  ....... .",
"*4&oX.. ..X. ...... .. X.....X ....  . ...  ...... ......X  ... ",
"%8-O........ X. .... ....X..  .X.... . .... X..X  .  .  . ..X...",
"*8&O.........X X ...X. ...  .X.  ..  . ....X. .X.... . .X    . X",
"*8-o. . .... .  .X. . X  ... X..X.... ...X.... .X.. ...  ...... ",
"*8&OX ....  ... .. .. .X. .. ..X... . . ..X. ......  . .........",
"*8-O....    .X... X.  ...XX ..  ... ............. X .... . . ...",
"*9-o....X........ X..... ...X .X.... X..X. ... .. ..X... ......X",
"*8-O .....  .  .... . .. ....  ....... ... ......X....... . ....",
"%4-O .. .. ...X.. ...X .. ........ .. ... .. ..X. . ......  ....",
"%8&o ...... . .. X .X.... ...X.....XX......X.......X  . ........",
"*8&O. ...... .... XX... ..X. .  XX .X .X......... . . ..........",
"*8>o ....   .. ...  ............X. ..X.. ..... ... .  ..........",
"*8>O. .. X...........  ........X ....  ..... . X..........X.....",
"*4-O ..... ...X ...X.... ..  ..X..  ....X.....X ..XX.....X .. ..",
"%8&O.X ... .. ..X..... .. ......X. .X ... . ..... XX X.X.. .. X.",
"%8-O.. .   X ........X............X.... .X....X... ...X  ... .X.",
"%8-O .. ... ........... ... ..... .................. .....X.....",
"*8-O........   .. ..X. . ....... .   .....X....X..... ...... ...",
";8&O  .....XX X .   ....... ..  ..X.. . .. .... XX........... ..",
"*4>o.  .X.X.. .  ...  .... ..X.X. ..... . ... . .... ..X... .. .",
";8&O... .... ... .X ......X.    .  X..... .X ....... ....   ..  ",
"%8-o.... . ..  X..... ..   . X.. XX. .X...X. X........ ....     ",
"*8-O . X ..... ....X.  .X..  ......... ..... . . . X......... . ",
"*8-O .... ..X. . ..  . .............. .... X.X.. ...X.. .X.... .",
"*8-o... . .X X....... . .........X .. .......  X... .  ..X..... ",
"*4-O. X ...X. ..X........ .X...X.  .... ..... .  ...... .  ...  ",
";4-O .. .......X  ... X...X.....  . .  X..........X. .....     .",
"*8-O. . ......XX.   ...... ...... ....... .... .  .X...X.. .. ..",
"*8-O ....X.. ........XX...  ... ...  .............. ............",
"*4-o.. X  . . .. .. ..... X.........X.X.  ......... ...X .......",
"%6&O.. ...   .X ..... .. ....... ...X .. ..  ....X.X   .X  .....",
"*8-O....X. .X. . ... . ...  . .. .... .....  . ......X.   ..XX..",
"%8-O....  ..  .. .....  .... ... .... ......  ....X ... .. .... ",
"*8-+ .. .......X.. .X.X.. ...  ........ ....X..X.  ..... . X...X",
"*8&O... ..X..... . ..    . ..........   X .. ... . ......X..X...",
"*4-O. ... ... .. . . ...X   ...  ..........X. ..X....X.......  .",
"%8-O.  . .. ...X....X.......X ...... X  .X.....X..  .   ...... .",
"*8-O.  ..X.X..   .. ..X... ... .......X.... ... ..X..X. . .X. . ",
"%4-O.  ........ . ..  .. .... X ... .... ............ ....XX .X.",
"%8>O . .X ..X....... .. ..X..... . ..... ......... ...... ...  .",
"*4-O.X...... ..... X.XX. X... ...  .....X  . ....X ......X.. . X",
"%4&+... ...   ...  .X. . .....  ........... ..... ..X..X ...X...",
"%9-O.X.... ... . .......... X....X... ..XX X. ..X........X..  .."
};
