/* XPM */
static char *magick[] = {
/* columns rows colors chars-per-pixel */
"64 64 26 1",
"  c Gray0",
". c #101010",
"X c #111111",
"o c #1d1d1d",
"O c #1e1e1e",
"+ c Gray14",
"@ c Gray15",
"# c Gray16",
"$ c #2a2a2a",
"% c Gray17",
"& c #2c2c2c",
"* c #2f2f2f",
"= c Gray19",
"- c Gray20",
"; c #3f3f3f",
": c #484848",
"> c #494949",
", c Gray33",
"< c Gray35",
"1 c #5a5a5a",
"2 c #5d5d5d",
"3 c Gray37",
"4 c #676767",
"5 c Gray45",
"6 c Magenta",
"7 c None",
/* pixels */
"7777777777777777777777777777777777777777777777777777777777777777",
"7777777777777777777777777777777777777777777777777777777777777777",
"7777777777777777777777777777777777777777777777777777777777777777",
"7777777777777777777777777777777777777777777777777777777777777777",
"7777777777777777777777777777777777777777777777777777777777777777",
"7777777777777777777777777777777777777777777777777777777777777777",
"7777777777777777777777777777777777777777777777777777777777777777",
"7777777777777777777777777777777777777777777777777777777777777777",
"7777777777777777777777777777777777777777777777777777777777777777",
"7777777777777777777777777777777777777777777777777777777777777777",
"7777777777777777777777777777777777777777777777777777777777777777",
"7777777777777777777777777777777777777777777777777777777777777777",
"7777777777777777777777777777777777777777777777777777777777777777",
"775<  .777777777777777777777777777777777777777777777777777  <777",
"7*52..+<7777777777777777777777777777777777777777777777777+..2577",
"7%4,..O:777777777777777777777777777777777777777777777777:O..,4%7",
";%4,..O:+77777777777777777777777777777777777777777777777:O..,4%7",
";%4,..O:*7777777777777777777777777777777777777777777777*:O..,4%;",
";%4,..O:%7777777777777777777777777777777777777777777777%:O..,4%;",
";%4,..O:%7777777777777777777777777777777777777777777777%:O..,4%;",
";%4,..O:%7777777777777777777777777777777777777777777777%:O..,4%;",
";%4,..O:%7777777777777777777777777777777777777777777777%:O..,4%;",
";%4,..O:%7777777777777777777777777777777777777777777777%:O..,4%;",
";%4,..O:%7777777777777777777777777777777777777777777777%:O..,4%;",
";%4,..O:%7777777777777777777777777777777777777777777777%:O..,4%;",
";%4,..O:*7777777777777777777777777777777777777777777777*:O..,4%;",
";%4,..O:%7777777777777777777777777777777777777777777777%:O..,4%;",
";%4,..O:=7777777777777777777777777777777777777777777777=:O..,4%;",
";%4,..O:=7777777777777777777777777777777777777777777777=:O..,4%;",
";%4,..O:=7777777777777777777777777777777777777777777777-:O..,4%;",
";%4,..O:=7777777777777777777777777777777777777777777777=:O..,4%;",
";%4,..O:-7777777777777777777777777777777777777777777777=:O..,4%;",
";%4,..O:=7777777777777777777777777777777777777777777777-:O..,4%;",
";%4,..O:=7777777777777777777777777777777777777777777777-:O..,4%;",
";%4,..O:-7777777777777777777777777777777777777777777777=:O..,4%;",
";%4,..O:-7777777777777777777777777777777777777777777777=:O..,4%;",
";%4,..O:=7777777777777777777777777777777777777777777777=:O..,4%;",
";%4,..O:=7777777777777777777777777777777777777777777777=:O..,4%;",
";%4,..O:=7777777777777777777777777777777777777777777777=:O..,4%;",
";%4,..O:=7777777777777777777777777777777777777777777777=:O..,4%;",
";%4,..O:=7777777777777777777777777777777777777777777777=:O..,4%;",
";%4,..O:=7777777777777777777777777777777777777777777777=:O..,4%;",
";%4,..O:=7777777777777777777777777777777777777777777777=:O..,4%;",
";%4,..O:=7777777777777777777777777777777777777777777777=:O..,4%;",
";%4,..O:=7777777777777777777777777777777777777777777777=:O..,4%;",
";%4,..O:=7777777777777777777777777777777777777777777777=:O..,4%;",
";%4,..O:=7777777777777777777777777777777777777777777777=:O..,4%;",
";%4,..O:=7777777777777777777777777777777777777777777777=:O..,4%;",
";%4,..O:=7777777777777777777777777777777777777777777777=:O..,4%;",
";%4,..O:=7777777777777777777777777777777777777777777777=:O..,4%;",
";%4,..O:=7777777777777777777777777777777777777777777777=:O..,4%;",
";%4,..O:=7777777777777777777777777777777777777777777777=:O..,4%;",
";%4,..O:=7777777777777777777777777777777777777777777777=:O..,4%;",
";%4,..O:=7777777777777777777777777777777777777777777777=:O..,4%;",
";%4,..O:=7777777777777777777777777777777777777777777777=:O..,4%;",
";%4,..O:=7777777777777777777777777777777777777777777777=:O..,4%;",
";%4,..O:=7777777777777777777777777777777777777777777777=:O..,4%;",
";%4,..O:=7777777777777777777777777777777777777777777777=:O..,4%;",
";%4,..O:=7777777777777777777777777777777777777777777777=:O..,4%;",
";%4,..O:=7777777777777777777777777777777777777777777777=:O..,4%;",
";%4,..O:=7777777777777777777777777777777777777777777777=:O..,4%;",
";%4,..O:=7777777777777777777777777777777777777777777777=:O..,4%;",
";%4,..O:=7777777777777777777777777777777777777777777777=:O..,4%;",
";O2:  .;=7777777777777777777777777777777777777777777777=;.  :2O;"
};
