/* XPM */
static char *magick[] = {
/* columns rows colors chars-per-pixel */
"64 64 17 1",
"  c Gray13",
". c Gray16",
"X c #313131",
"o c #3a3a3a",
"O c Gray26",
"+ c Gray29",
"@ c Gray32",
"# c #5a5a5a",
"$ c Gray42",
"% c Gray45",
"& c #7b7b7b",
"* c Gray55",
"= c Gray58",
"- c Gray61",
"; c #a5a5a5",
": c Gray68",
"> c Gray71",
/* pixels */
"++@@@@@O@+++@+O++++O+@OO+@++@++++@+@@@++++++O++++@O+@O+@@@@++O+@",
"-====--===-==-=======-=---=-====--==-====-========-=====-=-==-==",
":;>>>>:>>:>:>:>::>>:::>>::::>;:::>>:>>>>>::>>:::::>>>:::::::>>>>",
"==*==*======*=*=***====*=*==*=**=*==***=*==*===**==**=*==**==***",
"%$$%$%%%%$$$$%%%&%$$%&%%%$$%$%%$$$%$$$&$%%$%%$%$$$%%%%$%%%%%$%%&",
"#@@@#@##@@@@@@#+@###@@@@#+@@@@@@@+##@+@@+#@#+@@@@@@@@@@@@@@@#@##",
"XXoXooo.XXoXXoXoXXoXXX.oXXXXXXoX.XXXoXXXXoXoXXoXXoXXXoXXXXXXXXXo",
"....X...X.  ..... ...  .X  ........... ....... . .......X..X. ..",
"X.... .. . X ..... ..X. X  ......X... ..... ........... .XX ....",
"..X.. ..  .X....  .X X. . ......XXX.X. . ....XX.  ..X... ..... .",
".. . ...  .....X .X......... X.. ..   .......... . ... X .X.....",
".... ..X.... . .. X..... . X.......  ..... X ......X  . .... X..",
".......X......X. ...X...X....  ....   ... ..X.. . .. .  ........",
"...... .X.X  ... ...X ... X. ..... .. X..X.. . .. . X . .  .... ",
". . ..   X .  X..X. . .X .   .. .. ....... ......  ..........  .",
"... ..  .....X. . .. . . .... . ...... X  XX....  .........X .X.",
"X ...X ..XX.... .......... X... ..... ...  ...............X.  ..",
".. ... . X.. .. ... .. X........ ...... ...... . ........ X ...X",
"X........... . .  .... ..  ........ . . .X.  . .... ........... ",
"..... .. .  ....X.    ...X . . .... .......  ... .  X....XX   .X",
"X... ........   . . .X . ... .........  .. ....XX....  ....... .",
".   X.. ..X. ...... .. X.....X ....  . ...  ...... ......X  ... ",
" ........... X. .... ....X..  .X.... . .... X..X  .  .  . ..X...",
".. ..........X X ...X. ...  .X.  ..  . ....X. .X.... . .X    . X",
"... . . .... .  .X. . X  ... X..X.... ...X.... .X.. ...  ...... ",
".. .X ....  ... .. .. .X. .. ..X... . . ..X. ......  . .........",
"........    .X... X.  ...XX ..  ... ............. X .... . . ...",
".X. ....X........ X..... ...X .X.... X..X. ... .. ..X... ......X",
".... .....  .  .... . .. ....  ....... ... ......X....... . ....",
"  .. .. .. ...X.. ...X .. ........ .. ... .. ..X. . ......  ....",
" .   ...... . .. X .X.... ...X.....XX......X.......X  . ........",
".. .. ...... .... XX... ..X. .  XX .X .X......... . . ..........",
"..X  ....   .. ...  ............X. ..X.. ..... ... .  ..........",
"..X.. .. X...........  ........X ....  ..... . X..........X.....",
". .. ..... ...X ...X.... ..  ..X..  ....X.....X ..XX.....X .. ..",
" . ..X ... .. ..X..... .. ......X. .X ... . ..... XX X.X.. .. X.",
" ..... .   X ........X............X.... .X....X... ...X  ... .X.",
" ... .. ... ........... ... ..... .................. .....X.....",
"............   .. ..X. . ....... .   .....X....X..... ...... ...",
"X. .  .....XX X .   ....... ..  ..X.. . .. .... XX........... ..",
". X .  .X.X.. .  ...  .... ..X.X. ..... . ... . .... ..X... .. .",
"X. .... .... ... .X ......X.    .  X..... .X ....... ....   ..  ",
" .. .... . ..  X..... ..   . X.. XX. .X...X. X........ ....     ",
".... . X ..... ....X.  .X..  ......... ..... . . . X......... . ",
".... .... ..X. . ..  . .............. .... X.X.. ...X.. .X.... .",
"... ... . .X X....... . .........X .. .......  X... .  ..X..... ",
". ... X ...X. ..X........ .X...X.  .... ..... .  ...... .  ...  ",
"X .. .. .......X  ... X...X.....  . .  X..........X. .....     .",
"..... . ......XX.   ...... ...... ....... .... .  .X...X.. .. ..",
".... ....X.. ........XX...  ... ...  .............. ............",
". . .. X  . . .. .. ..... X.........X.X.  ......... ...X .......",
"   ... ...   .X ..... .. ....... ...X .. ..  ....X.X   .X  .....",
"........X. .X. . ... . ...  . .. .... .....  . ......X.   ..XX..",
" .......  ..  .. .....  .... ... .... ......  ....X ... .. .... ",
"...X .. .......X.. .X.X.. ...  ........ ....X..X.  ..... . X...X",
".. .... ..X..... . ..    . ..........   X .. ... . ......X..X...",
". ... ... ... .. . . ...X   ...  ..........X. ..X....X.......  .",
" ....  . .. ...X....X.......X ...... X  .X.....X..  .   ...... .",
".....  ..X.X..   .. ..X... ... .......X.... ... ..X..X. . .X. . ",
"  ...  ........ . ..  .. .... X ... .... ............ ....XX .X.",
" .X. . .X ..X....... .. ..X..... . ..... ......... ...... ...  .",
". ...X...... ..... X.XX. X... ...  .....X  . ....X ......X.. . X",
"   X... ...   ...  .X. . .....  ........... ..... ..X..X ...X...",
" X...X.... ... . .......... X....X... ..XX X. ..X........X..  .."
};
