/* XPM */
static char * h2o_xpm[] = {
"64 64 31 1",
" 	c None",
".	c #262684",
"+	c #4646B4",
"@	c #36369C",
"#	c #5656CC",
"$	c #4E4EC4",
"%	c #3E3EAC",
"&	c #2E2E8C",
"*	c #5E5EDC",
"=	c #4A4ABC",
"-	c #4242AC",
";	c #3A3AA4",
">	c #5A5AD4",
",	c #5252CC",
"'	c #323294",
")	c #4646C4",
"!	c #4242BC",
"~	c #2A2A8C",
"{	c #4646BC",
"]	c #3636A4",
"^	c #5656D4",
"/	c #4E4ECC",
"(	c #3E3EB4",
"_	c #2E2E94",
":	c #6262E4",
"<	c #4A4AC4",
"[	c #4242B4",
"}	c #3A3AAC",
"|	c #5A5ADC",
"1	c #5252D4",
"2	c #32329C",
"<=[;2____2;[<$${%%%[<$${[%}%[[[}]@@@]@2@]}%%]_~~_']%[{<<<{[%}%[{",
",<!}@22'2@;[=$<{[%[{=<<{(;]];%}%]]]];]@2;;;}@2__22;([{{{{=!(%(!<",
",,<[;]222]}[)={+[%[!{<{[}@@];%}%;]};};]2]};%;@22]}%[[(%(([[[[[{<",
",,${[;]]];-{=<{(%(%[+[[;2@2]]%-%}%%};]@]];([(};];}([[%;@]%[+[[+<",
"<,,=!%;}}({<<<{(;}%([%}]__2;}((-%%}]]@2@]%!<<[%];}([[]2'';[{{![{",
"=,,<+(%%[+<$$<{%}}([((}2'22]%[-}}};;@2'2][<,,<%]2]%[(;2~_2(<{[-[",
"{/^/=[[([{</$<{%};%[[%%2__@}%[%;;;]]22'@][$^^/[]22}[[;2~2;[<=!([",
"/^^^$+%-([[[{{[[%}([[!%;222]}([[}%}@2222%[</,<[}@];-%}222}=,/={{",
",>>1<[};];;;;}}%%%({={!%;]@;%+{={[};22]]%[=<$$=[%}}};]2'@%<,1$$<",
"<1^#+%;@2__22@];}}[{{<=[%;;;%{,^,$[}]2@]}[{$//<{[%;;]@22](=##,<=",
"+$,,{;]@22_~~'2;%%({{<<{[(}%[<1|^,{}]2@]}[{<$/,<{(;22@2@@%!</<{[",
"%{$${(;22__'__2]}}%[={={!(-([<^||,+%@22@;[<$/,1,<+}]22]2]]%+=+-%",
"%!<$=[[%;]2222];}%([{{<={![[+=/,,<[}@22@;[$,^11/)%;@@;};]@];%};}",
"({==){[[(};]]];}%([([!+{={[[[{=={[%;]@@]%{/1,,$=[}]]}%-}@___2];}",
"+){{[!{{+(%}(([[[%[[[([[+{{{[[((%%};]]]}-{<//<{%;]]]}![(;'___2;%",
")={(%[{$<{[+{={{[![[[-%[!{{[[%%;}];;%%%%([{{+[}]]@;%[[[%]2_~&2][",
")<+(;%{</$<=//<{{[[[(%%%[{{{[%%;;]]}}%}%[(((}]@222]}%[(%]@22_@}[",
"{{[%}({$,/$,/,$<{{{![(}%-[{{{[%}};};;}%};%};;@2@]];}((%}}]]2@];[",
"[!(%%%{<$//,,//<<<=<=+[([[+{{+[%%;}};;};];]]@22];%%%%(%%}%%%}}}%",
"%([[%([[{=<<$,$$$$$$<<{-%%([[[[%;}];};}];]]222@;[(+![%;]%%!!-};%",
"%%%(%}%%([+!{<</$/<<<={(;;]%%%%};@]]}%%%%;}]@];%+{={[};@;%[![%]}",
";%(%%;]]@;}%%[<</$=={![%]222];};@]@;;%%(%(%;]]%!<<$<{%]22;%%}];;",
";%%(%]222@]]%%{=<<{[[%};2'&_2@]]222]}[[[[((};]%[<</${}]22];;;]]]",
"];(%;]@22];;}[+)={[%%};]2~~~_222222]%([[[-%;2@;[<<$)[%@222]]]22@",
";%%%%]@@@]%%%[{=={[}}};]@____@@@''2]%([[(%;]22@}[!{{%;]222]@]@]@",
"];%%;]]]];}%[{={<{[[-[(%]2_2]]]222@@}-![[}]2'_2]%[[(%];;;@@2]22]",
"]}}};;;;;;;%%[{{=<{{{=){[;]%%}}]222;}%!(%}]22_'];%[((%%%%]]@]@2@",
";%%;]@]];];;%[{{{==<</,<[(%([+-;]@]]%(([%};2222@%[[[[[{{(}@22@@]",
"%[(%]];];22@]}[{{)<$<$/${[[{){{-};;;%%((%;}]@@]]%[++[{{=[;2222]}",
"{{{%%]]]@@2_2;%[{={<$<$){++<$/<{[(%}}-[%%}]]]]]}%[!++[{+-}]@2];%",
"=<<[%;;]222'']%!{{{!{[[[([{<$,/<+((%(%[(;;@]];;}%[((%%}(};]]]}%[",
"!{{{%]]]]22__@%[!+[-}};;%([=//,<{[-%%[[}]@2'2@;%%%%;]@;];};;}}([",
"!{{{[;]]]2222]%[![(%;;]];%[{=<$){((}%%%}22___2]}%(%;]2@];}%%%%%[",
"[{{{[%;;;@2__]}[[%%%%}}};%([{=<{[%%%}}%;@2_'2@;%(-%;];};};};%}%(",
"%!{{!(};]22__@}(((%([[[[([[{{{+[%};}%%}]@2_22];%%(%%}%[%(%%;;]]}",
"]%[[[%%}]@__2]%[[-([[{{{{{{[[[[(%}}%%([%]]]]}}%[[[[-[[!{{[%};@2@",
"_]%([%%%]@__2}[{![[[+[[+{={{[[-(%%([[[!(%%%%-![{[![[[{<$<)[%]'&_",
"~']%((}};22_;%!{={[[(%%({{{[(}(-[[[{=)[[%%(!{=<=<=![!{</1,<[}_..",
".2;%%(%%%;]@%+=){{[%;@@](+[%%;}%[+{{{{[(%%[{)<<$<${[[!=,#^${%2~.",
"__]}(%(}};;}({)={[(]2__2;}%}]];%[[!{{[[(}(+{=$<<<){![+)$1#/=%2~_",
"22];%%%};;];(+{{[(%]2_&_@]};]]}}(-([[(%(-[{<=<{{+[[%([!</,$=+}22",
";;;;;;};]2@;%!{[(%};2___2;;;;;;%%}%%[-(-[!=<{+(%%%}}}%[)$/<{!-;]",
"]]]]];}}]22@;%[-(%(%;2222]}}}%%;;];]}%(({{={[%;];;]@;%[!=<=+[[%}",
";]]2]}%;@2_2;(%(%((((%};;;}%[[%}]@2];%%[{{![};]]]@@]]}({)={[(%%%",
";]];%([(;]2];%(%%-+{{[(}%%%(([[;22'2]}%%[[%}]@@]];]]}%[{<<{+[%%%",
"%%%([=<{(;]]}%[[[[!{==+[%%([[[%}@__'2;}}%};]222@}};%[{=$$$$<{{[%",
"[[{<$/,${[;]}%[!!{={{![[[[-[[(%;]22@@;;];};;2222@;%[=<///1/,$<{[",
"=,,#1,,/<[};]}[{={{!%%%};%(%([%};;]}};];]];]]2___2}{/^,#^,^^^,<<",
"#***^1/<){%;;}[{={+(;@@]@]};}(%}}%%((%;;;];;;'~~~_][$^1/,,^^^#,,",
"|*:*^<=<=[(};%+{){(%]22@2@]];}%%%([[[[}}];};2_~..~@()$$$<$,#,/$,",
"^|*>,=+!{{{![!{={{[;]@2];;}}%%%(%}[[[[%%]]]@2_....'%{$$==<<$<{{<",
"{,^,<[([+=$<<<<<<{(;]2]%([[-%%%;];}([[[}}@22__~~~~_][)=<<=<=+%}-",
"%{,${%;}%{$$$$<<={%]]@]%{<){(};@22@}[[[%};@@_2___~']-!+{{={[}@2]",
"}!=$!;]]%[</$$<={[}@2];{$,$+[%]2_&2]}[-%;]]]]@@2222]}-[%[[(}@__'",
"%{<=[]'2]%+))={+[%]2_2][</<[}]2_~__]}(%;;%%%}};};@@@]];;}%;]2__2",
"[<$<%@@2];([[[[((%@'__@(=={%;]]@2_'@;;;}%%[[%%%%%};;]@__'2@2_~_@",
"[$,<(]@];;;;};;;]]2'22;%![%};;}%;]22]];;%[[[[(%%(((%]@'___2'___]",
"[<<=[;%-(%]]@2]]@2'2@}([[};@;%-((}]@2];}([[[%%%}-{={(]2__'____2]",
"%={+[}[=<{;2]2@]2__2}({{[}]@}(+[[%]@2]%[[[(%%;};%[<${(%;2'_&~~_@",
"%[{[%%!//=(;@@22222]%+{{%]2]}[{{%;]2@}[{{+-%}]]2](<$/{!}]_~..~&2",
"}[[%};%=$<[}}]@2'_']}[{{(;@;%[[[}2222}[{){[%}@22@;!</{{[}_~...~2",
";%}]@2]%!+![%%}@_'2]({{![}]}[{!%]2__']%{={![%2_~_2}+)<)!}]~~.~~2",
"%[%@''_]}%[{{{[}22@%(!=[[%%[[{[}@2__22]}[{{[%2&.~_2[{=<{(}2_~_']",
"{[}2_~__2]%+$<{-};;%+<<{[(%({{[}@2222@@]%-[[}'~~._@}[<=<{[;]]]]%"};
