/* XPM */
static char * ice_xpm[] = {
"64 64 7 1",
" 	c None",
".	c #B6C6F4",
"+	c #BACEF4",
"@	c #BECAF4",
"#	c #B6CAF4",
"$	c #BECEF4",
"%	c #BACAF4",
"###.###%%%+$$$$$$$$$$$$$$$+%%##..%%%%%%%%%%####%%%++$$$$++%%%%%%",
"...#..%#++@++$++++%++++$++%%#.....###%%###.....#%%%@++++@%%%###.",
"%#%#%#%%$+$$+@%$%+%%+$+%%++.#.##...###%#...###.##%+$$$@%%%#...#%",
"#.#%#%%+%%+%+%%%+%%%%%%+%%#%.#..#.#..#...##...%%%+%@+++++%%%%%%#",
"%%%%%+%+$%+%+$%%+++%++%%%%#%#####.....##....#..%%%+@@%%%+#%%...%",
"%#%+%%%%%$%%%##%%%%+%@%%%###.#%%##......#.##.###%$%++%%.#%##%%%#",
"%+%+%%+#%%%%%+%%%%@++%+#%%%%%%#%###...........%%#+%%++@%%..#%%%%",
"+%#%#+%%#%%..%#%%$%@%+%+#%#+++++##....#.####.%##%%%%%%#..%%%#+%+",
"+%%+#%#%##%%.%%+%++$@%%%#%#%%@+%####..#....##.#%%%+%#+%%%%%%#+%+",
"%++%%#%####%%%+%%++%+%%%%%%+++%+#......####%#%%%%###%%#####+%%+%",
"%%#..#%%.%##%%$+@$+%++%%#%%%+++%##.#...#%%#%%%%#%%%%#%%#%%#+%%$+",
"%%.#%...%..%%%%$+%++%%#++#%+%%@++##..##.##%%###%#%%#.##.#%%%++%%",
"#%.#....#%##+%%@$$@+%%#%%+#%%%%###.#.#%%%%%+%%%%#%%%%%%.%%%%%%%%",
"%.....##.#%%%$$+$++%%+%#+#%++++%%.#.#.%#%%+%%+#%%##%#%%$%%%%+++#",
"##..#....%%%%@$+$$$+%%%#%%#%%%%%###.##%++%%+@%%%+%%%#%%%+%%%%%%#",
".......##.#%++%$+%%%###%##%%+%+#%..#%%%%%%$@%+##%%+#%%##%++%%%%.",
"........#%%%%$$@++%%%..%#%+%%%%%%#%###%$$%++%++%%#%%%%%%#.%..#%#",
"......##.%++$+%$$%+%#%%#%##%+%%##%.%%+++%+%%$%%%#%%%##%#%%#%#...",
".......##%%+$$++$%%%%###%%%%+$+%%%%+%%%+%$+%@+%%%##%%#%##.#.##..",
"##..#.#%%%%%%+$@%%%..##%#%+++%%%%%%@$++++%%+#%#%%%%%.%##.#.....#",
".#..#..##%$$$+++%%##...%+#%@%%+%%++++@@%++#+%%##%##%#..%.#...#.#",
"#.##.###%+%+%@@%%#%#%###%%%+++%++%+$$$+$%%%%%#%%#%%#.%%.%.%###%.",
"#..###%%%+++++++%#...#.#%+%%%%%%$$@$+%+%%%##%#.###%%####.....#%%",
"+##..##+$+$$$+@#%.#...%%%%+%%@++%%++$+%%...##.%%..##....#%%%%%%#",
"+###%%%%@%++%%%#%.####%+%%+$+%%+$$$+@%%##%..##.%%..%%#%%#%%%++++",
"##%%#%#%+$@@$%%%##...#%%+%@%%%%@++@%++#%..##..###%%%%%+%+#++%%%@",
"%##%#%++%++%+%.%.#%#.#%%++%%%++%@++%%%##....#.#%%%%+%%+%$@%%%%%+",
"%%..%+%%++%%%%%.#..%%%++@%+%@%%%+%%%##..#....%%%+++%+++$++$++%+%",
"#%%#%%+$@++%%##.###%%%@++%+%%%%%%%%%.#....##+%%%%%++%++$$+$++%%%",
"%##%%+%%+@%##..#...#%++%$$%%%#%%%%#.#....##%%%++$++@+$$++$+%%#%%",
".%##%++%+%%%%%...%%%%%++%++%%#.##.#....#.#.%%+$%$$+$@+$$$$$$+###",
".#%+#%%+#%%....#%%%+$$$$$%%%%%%..%.#..#.##$++$$$$+$++$$$$$++%%#.",
"..#%%%%%%#%###.#%%%+++$+$++%%#%%.#..#.##%%+$$+$+$+$$$$$+$$%%#.%.",
".#.#%##%#.....#%#%+%$$+$%%%%.%%.#.##.##%%+@++$+%@@%++++$%$+%.#..",
".#...%.#%.###..%#%$$$$%%%%#%.##%#.###%#+%+$@@@$+++%%+$++%%%%..#.",
"..###.#..#...###%%%%%%+++#%#%.%.####%#%%+%++++%%%%++%+$%#%####.#",
"#.....#...#....%+%$++@@%%#.#%.#%%%%#%+%@$%%+%%+++%%+%%+%+%#%###%",
"%#.....##..###%#%+%%@%#.%%%%.%%%#%+%%%++%$+%#%%#%%+%++%%##%..%%#",
"##.#.....#....%%%+$+++@%%%.%%%#%#%%+%%%#%%%%%#%%+%@%%%+%%##%%%+%",
"#.#.....#.##.###%%#%%%##.#%###%++%%%%%%%#%#%#%%%%@+$@+%%+%%++%%+",
"##....#.#..%%%#%%%##%+%%%#%%+%%@++%+###%#..%#%%%%%++@%+#%+#%++++",
"+.##.#.#.####..##%%%#%###%#+%%++%%+#%%%##%%#%#++++%+%%%%%#%+%%%%",
"#..#...#%%%%%%%%#%%%#.%.#%%%+%%++%%###%.##.%%%@%@$@++%%#%%%++++%",
"%##..#######+%%%%#%%.%#%%%%+%++%#%..#..%..%#%%+$+++%%+%%%#%%%%%+",
"#.##.##%%%%%+%#%%##%#%%.%%%%%%+%%%%....#%#.%+%+$$+$$%#%#%+++%$%%",
"%#..##%#%%$%%+%%+%%%%#%$%%%+%%%%#.........%%@@@%+$+%%%#%+#%%+%++",
"###..#%%$%+%%%##+#%%%#%%+#%+%%###.#.#..##%#%+$$$+%+%%%####%%%%%%",
"%#.#%.%+%%%+%+%%%%+#%%###%%%%#%.........%#%%%%+@$$%%+%%%%%#%+%%%",
"%#%#%#%+++$$%%%#%#%#%%%%+%%%%###....##...##++@+$+$+%##.##%+%+++%",
".%.%++%+@%%%+++%%%%%%#+%##.#..........##%%+%@+$+$%%%%%%%%%%%%%%%",
"%%%%%+@++++%%%%#%#%%%.#%.#.....#.......##%%+$$$%+%##.#####+#%%%%",
"%%+$$+++@@%+%+%%%+##.%%.%%#.##...#....#.%%+++%%$%+%#%##.%%%++%%%",
"%%%+%@%+++%%%%###%%%#.#...#..###.#.##.##%%@@+$++%%%#..##+#%++++%",
"+@+$$+$%%#%%##%%%###.%###....#..#.#..##%#%++$+%%%%#.%#%#%%+%%%%$",
"+$@$$%+%%##%##.#%.%%#...#%##.####.##..#%++++@$$%#.#...%#%%+%+%%%",
"++++++%%..#.#.%..%##.%#%%##%#+##+#.###%+@%$@+%%#%%...#.%+%@+%%++",
"@$$$@+#%%##.##%##.%%#%##%%%%%++%+###%#%%$%+$+%%.######%%+%@%$%@+",
"++$%+%%#...#...%%%.#%#%%%%%+%%%+##..#%%+%$+%%%%%%....#%%%+++%%+@",
"@%+%%%##....####%+%%%+%%++@+%%%@+%%%##%++@+$++#.####%#++%%%%%#%%",
"++%%%#.......%%%+%++++++%++%+%%+%+%#%+++%+@%%%%#...%.%%@++%%%%++",
"%%%#.#....#%#%%%%%+@%+$$$$$+++#%##%%%%%$$++%%#.###.%%%+@@++%%%%%",
"%##.#..####%%%++$$%+$$+$$++@%%%%..##%%+%%%%%..%...#%%+%++$%%%#%%",
"%.#......#.+%$$++$$+$$$+$$++%%#%#..#%%+++%#%%#...%#%+$+$%+$+%#%%",
".%.....###+@+$$$$$%$+$$$$$$+%#...%%++%%%%%%#..##%%++@%@+$%%%%.##"};
