/* XPM */
static char *magick[] = {
/* columns rows colors chars-per-pixel */
"64 64 64 1",
"  c Gray0",
". c #0b0b0b",
"X c #151615",
"o c #161716",
"O c #202120",
"+ c #212221",
"@ c #2b2c2b",
"# c #2c2d2c",
"$ c #2d2e2d",
"% c #363836",
"& c #383a38",
"* c #404340",
"= c #424442",
"- c #444744",
"; c #4c4e4c",
": c #4e514e",
"> c #525552",
", c #565956",
"< c #585b58",
"1 c #595c59",
"2 c #5a5d5a",
"3 c #5d605d",
"4 c #626662",
"5 c #666a66",
"6 c #6f736f",
"7 c #767a76",
"8 c #797d79",
"9 c #7c817c",
"0 c #828682",
"q c #858885",
"w c #868b86",
"e c #898e89",
"r c #8d928d",
"t c #909590",
"y c #959b95",
"u c #9a9e9a",
"i c #9da39d",
"p c #a1a6a1",
"a c #a5aaa5",
"s c #a8aea8",
"d c #a9afa9",
"f c #aab0aa",
"g c #abb1ab",
"h c #abb2ab",
"j c #acb2ac",
"k c #acb3ac",
"l c #aeb3ae",
"z c #aeb4ae",
"x c #afb4af",
"c c #afb5af",
"v c #b0b5b0",
"b c #b0b6b0",
"n c #b1b6b1",
"m c #b1b8b1",
"M c #b2b8b2",
"N c #b2b9b2",
"B c #b3b9b3",
"V c #b3bab3",
"C c #b4bab4",
"Z c #b4bbb4",
"A c #b5bbb5",
"S c #b5bcb5",
"D c #b6bdb6",
"F c #b8beb8",
/* pixels */
"zSFMMMbMfMSMbbMzCzbMbMFCbjjzbbjjMbjCzbjbMbfjSfMMfCSFjMbSfbCSMMCj",
"bSSzbMzMbFMMjzjMCjzCbdbbbjzbfjbjMSfMbMbjzjMzbzfCCMzMMbbbzMMMMCSj",
"CjpqbjCj#z#fzMbzfzzjSbfzFfCC#MjzSfMffzMSzCMbzCSz:ydjSMfjFMjMCSjb",
"MC2 qzbz b dzbjMbjMSMMMzzbSf CbjMbjbMCjCMjMbMSMb#0bbFMMfbbMfbjdC",
"bfo==Mjz M zMq0zy8Fu2&%qj2y2 jd48jz;@#8a28#=Mq%%o0bj<9#-M0%%0CMS",
"Mt+a.jbf b MMq@b:+S2opyoy %< j;+afz7baoi 7d&,oia+qMM 8d&2oiuoiMd",
"C:4M%9Mj b MFM f#=t%<dC,2 jj 6+fMbj0;#.q Md,.:fb#ezz SM< 2zz2<jM",
"bo+@o=fS d Cbf#6;75o<bb22 bS o-bjS9+tb#0 MM3 <Mb#qSf Mj2 2jM22zS",
"y+zjp.jf j fzz4+yj#.#Cz#q bb M#-dM,;Cd+q Cf<+#jS+qzM Mj,#@bb#qSj",
";4zSM%7j M bMzroff=<2++2j MS zp+=bf+#%+0 Mj,<=+*oqMb zz22,++<Mbb",
"bzjMbdjjzdMfMbMjzjMCSCzjMzMSbdCbbSjbSbbfCbjMCzCdzMzzbMCMbjCCbMMS",
"CzMfbffMbfMjzjbCMfzdbjbbzMzbfCdMffMMMCjjjbzzSbMzMbzzbdjfbMfMbMbz",
"bSCdCjMjzzbzbzbCMjjbMSfjfjbjjjjbzbFbMMbjfdbbMMbffdbzzSbFzzdfMMMC",
"zCjjfMSzFCbjzMMdzMzjMMCCbjCCMzjbCSbfCbjCCzMbjdzbMbfzCzbjCzbjCzMj",
"bfCfjzMjfMbfMbMbMfMCbfzfjffzSjMCffbMbbjSdjCbjCbCjMMbbCMfMzjMbCMb",
"MMdqbjSb@j#bdbzjfMbfjMCSbdbM#fCCjbzjbbSjMjzSbbMF;tfbMbzMbCzdMFCb",
"jd2 qMbb b MSjfMffzMMjSbCfMM MfzFjfzMMzMSzMbMbjM#qSMCbbjzzCMzMCM",
"fdo-=MMz S Mzeqzu8by,%%eb,p2 jb59Mz;#@8z,9#-zq&%oeMC27@=Mq%%ejMM",
"Mt+f.fff f Mfe#f:+S,oiioi %, M:+pzb9zzou 8b%2oup+eMb 8f&2oiuouCf",
"f;4M%8fj j bSM S#=r%,Ff2, jf 6+fMfzq:@.0 df,.:Fj#0MM jj2 ,jb22Cb",
"zo+#o=fC b SjC#6;75o2zM,2 bj o*zCb7+yb#w Cz, ,zS#qzz Mf, <ff<,MM",
"t+fMp.Mb S bdS5+tz#.#fM@0 Sb j#*bS2:jj+q bM2+#bz+0jM Mf2@#jf#qCj",
";4jjM%8M C dMjtoCb-2<++<j bj Ca+*Mp+#%+9 Sj<<*+-o0jz bz,2<++2zfj",
"dMfCfFjMzjMMFjbSMjMjMfzjzdzSzMMzMbMfjzMjMSMMMbbjjMzCdfzMjjjzMMbb",
"CMMbbjCjMbSbMbSjbzCbCzMCbfMbfFCjCjMbjbSzjbSbbbCCMCfMbfMbdbjfCjdz",
"zbjbbjzbbSbjbbjSdjbfCzbCMfbSbffbzMSbbMzjMCMzfMfbzMfbzbzjfbbjzzMM",
"CbzCdjMbbjMbfMFzMjjdMCbjMdCCjzzSMzdjjCbMfdbffbfjzfCzfMbSzbbzMzSz",
"fzbjzbCjjjSMjzdfbMjSMzSbMjCzfdbzbMfFjbzfbMjzbbfMzbzjzMfbMjMCzzFb",
"fjp0SMSb#b#fMzCMCjbfjjjSCbbf@MjCbbdjbjbfMfMbMfjz;tCjbSMMfbfCCjSj",
"Sf, qjjb S dMMMbSMjbMdbffbbd MMjdCFzSjCbzbbbbdMM@qfSMzSbjbzzMMMj",
"Mfo**MSj C bMeqSy7ju2&%qC,i, MM49MM:#@9C<8#-Mq%&oqjj29#-bq%&qzCb",
"bt+a.bjb j Mjq#M:+j2oyuoy %< z:+azj7ddoi 8f%2oya+eMb 8j&2oyyoiMb",
"b:4z%8fM b jjC b@=t%2jj<, bj 6+pzfjq;@.q zM<.>MM#qbb zb< <jC<,jM",
"bo+#o-bb S jdM#6:84o2Sf22 dz o*dzb9+tz@q Mb, 2MC#0bM fb2 <Mb<<zb",
"r+jMp.jC f Cff4+tb@.#Mb#q zd M#*Mf,;Cd+w bF2+@fj+0fC Cf,@#Mz#qSd",
";4bbz%7f j MbbtojS-,2++<z bb jp+*bf+#%+q bj2<=+*oqbz Md,,2++2zbz",
"zMbMCMCMjzMSCbCfSzMzSCzzSzjbdjjbMjSSMdMCzMjSbMfjCMbMCFMMfzMfzjMz",
"bMjbCSzzbfzbMMMzjMdzzbCMfSzMzzMjMMCMjbfCMzfdMbFjSbMSfbzCCFbbMfzM",
"MbMMbdbbjMCdbbfFMCMdzbfjbfjbjjCCMFdSfzMMzfCfMbSjMdjMbSzSfjMMzzMf",
"SzjbjzMbbfMMbdfbjMjCSzzMzzbbMMfzCMjSjzMzMffjbjSfjzMzCbMMfMbCCMMj",
"MSzfSjMMjzbbSjjbSMMzfMSbMMSMMbdjbbbbbzzbzjffMfzMzbMjzbzzdSMMMjbC",
"MfaebSdz#f#CbMMbMbMMbMbzbbbz#MfbzfbbFMfzbbCMMjbS:rjMbCbjbSMMbjfj",
"MM, 0Sbj M zbjjzzbMjfzCdCzbj SMSzbzSbCbfjzfzSMfM@eMbbSSCzCjfbjfM",
"jMo==SjM M bCqeSi8Sy,%%qM,i3 bb58jC;@#9f,8@=zq%%oqMz<7@=jq%%qjbf",
"Mt+a.bMf j bfq@f;+j3ouuop &, b:+dMz7Mpoi 8j&2oup+0MS 8b%,opuoyMb",
"z;4b%9zf M zMf M@*y&,Cz22 jM 6+dbSb0:#.q fz2.:jz#qjS bz2 2FM22Mb",
"zo+#o=fb b ffb@6>94o2jb,2 jf o-zzf8+tb#q bb< 2jM#qfS jb2 ,Mj,2bM",
"t+fMp.jC b zMM4+tM@.@Mj@e dS j#*zz,;zi+9 aM2+#zC+0Mz bf2##fC@qMM",
";4zbM%8f M MSjyojd=<2++<f MC Mf+=fd+#%+0 dC<,=+*oqCz zC,<2++2MMf",
"dzbCMCbMbzbMzMbMMzCzfSMfSCzjjjMjCbfffMbbbjjMfMjFfCbbFCzSjMbMjfSM",
"zSFfjfMjfSbbfjzjMbFzCfbbbMzbjzMzMCfMMSzbMMbMCzMbSjzMCjSMbbjbffbM",
"bfCbfCbjMSbjjbbbfjCFfCMzMjfjfddCMbMbCbfjMMMbdjbbjMbSMfbFjjSbbMzz",
"MMbMjjbCCbbMCbbMbjfbMMzzCzjjfMCCMCzdbjbbfMSjCbbbMMMbSzCjbzffzbCF",
"SbMzbbjzfCMfzMMfMMzbzFbbjzMzjbjbjbdzbfCMMzbbfzbzzzbfzzCjfzjMzjjM",
"MzdqzCfb@M#CzbjjMMffMbffzfCC#zfFMjMMdMzzfCMMbzfS:tzbbfzbzjMMzMfM",
"dj2 qMbz f fMbMjMzbjfjMzbzMf CzMbbMbzbbMMMzfMMjf#0bfbjjCdMjfzCbf",
"ffo*-bCM j MCwqjy8Mu2%%0b<i2 Mb48jb;@#9f29#=zq%%o0Cb<7#=je&%qzdM",
"St+p.zFj M SMq#S;+j,opioi &2 j:+aMC9zpoy 8z%2oua+qfS 8C&<oyuopbf",
"M;4z%8df b bjM M@-e&2CM,2 jb 6+afSzq:@.0 jM2.;zM#wfC MC, 2Cf2<Mb",
"bo+#o=fb b Mjz#6:74o2jj<2 fM o*bMM8+rb#0 Cz, <zz#eSM bb, <bz2,fb",
"t+Sfa.MM M bMj5+rM#.@jS#q zS b#-bj,:jf+0 jf,+#bM+qfb Cz2#@SS@efj",
":3Mjb&9M z FMbtozz=2<++2b jM bp+=Mp+#&+q bb2,=+*o0Mb fb,,2++2bjf",
"jbfMCbMSdjffbjjbjbCbMbjbzjMCjbMbfjjCMbMMbSSfjbzbdfMbMbSMzzbMbfzz",
"MjCSCjbbSSzzfCMjbfjzdzjbzbMFjfzjzdzFCbzMfCMzfCfMjbSbbMSMbfCMzzfj"
};
