/* XPM */
static char *magick[] = {
/* columns rows colors chars-per-pixel */
"64 64 63 1",
"  c Gray0",
". c #0b0b0b",
"X c #151615",
"o c #161716",
"O c #1f211f",
"+ c #212221",
"@ c #2b2c2b",
"# c #2c2d2c",
"$ c #2d2e2d",
"% c #353735",
"& c #373937",
"* c #383a38",
"= c #424442",
"- c #4b4e4b",
"; c #4d4f4d",
": c #4e514e",
"> c #565956",
", c #585b58",
"< c #5a5d5a",
"1 c #5d605d",
"2 c #626562",
"3 c #656965",
"4 c #6a6e6a",
"5 c #6e716e",
"6 c #717571",
"7 c #767a76",
"8 c #797e79",
"9 c #7e827e",
"0 c #828682",
"q c #858a85",
"w c #898e89",
"e c #8d928d",
"r c #909590",
"t c #949a94",
"y c #9a9e9a",
"u c #9da29d",
"i c #a1a7a1",
"p c #a6aba6",
"a c #a8aea8",
"s c #a9afa9",
"d c #aab0aa",
"f c #abb1ab",
"g c #abb2ab",
"h c #acb2ac",
"j c #acb3ac",
"k c #aeb3ae",
"l c #aeb4ae",
"z c #afb4af",
"x c #afb5af",
"c c #b0b5b0",
"v c #b0b6b0",
"b c #b1b6b1",
"n c #b1b8b1",
"m c #b2b8b2",
"M c #b2b9b2",
"N c #b3b9b3",
"B c #b3bab3",
"V c #b4bab4",
"C c #b4bbb4",
"Z c #b5bbb5",
"A c #b5bcb5",
"S c #b6bdb6",
"D c #b8beb8",
/* pixels */
"lADmmmvmdmAmvvmlClvmvmDCvjjlvvjjmvjClvjvmvdjAdmmdCADjmvCdvCAmmCj",
"vAAlvmlmvDmmjljmCjlCvsvvvjlvdjvjmAdmvmvjljmlvldCCmlmmvvvjmmmmCAj",
"Cjsvvd#jvlvdlmvldlljAvdlDdCCvmjlA@mddlmAlCmvlCAlCC90umdjDmjmCAjv",
"mCCjCl lCvAslvjmvjmAmmmllvAddCvjm jvmCjCmjmvmAmvms,#1mmdvvCdvjsC",
"v>6#:m l-##88qdj98Dv<9@;p=@w:@@8v ld28r%#5m>#&evCdv>,D:##7jr%#<A",
"m 7l*2 d9vpo3#dv#7Am 9d*%sro8jpoy l-+r+ud@%*jy9vjmm,,v7Csowoym3s",
"C mm0# j0;#.wottollj sC><sj w:#.q 5Op2#,<#oO6rdvCCl>>Aq;#.&;Cvjm",
"v As0# 9+wj#q2=-2dmv vv<,jv +eC#0 o=v,=00quw-o<vvmA>,8Ots#@<mClA",
"D lj-2 >;jiOqpoodjvC Cl<,vv -ms+9 j@=qopjC4lv9@Amml:2<-ssO,omltj",
"l #+&p i+#%+ql=-ddvv Am<>sm +@%+q As+=6+#+=O#+rjm&##pp+#&+q,+#&v",
"v jmvsjjlsmdmvoyljmCACljmlmAvsCvvAjvAvvsCvjmClCslmllvmCmvjCCvmmA",
"C mdvddmvdmjl5&CmdlsvjvvlmlvdCsmddmmmCjjjvllAvmlmvllvsjdvmdmvmvl",
"vACsCjmjllvvvlvCmjjvmAdjdjvjjjjvlvDvmmvjdsvvmmvddsvllAvDllsdmmmC",
"lCjjdmAlDCvjlmmslmljmmCCvjmCmljvCAvdCvjCClmvjslvmvdlClvjClvjClmj",
"vdCdjlmjdmvdmvmvmdmCvdldjddlAjmCddvmvvjAsjCvjCvCjmmvvCmdmljmvCmv",
"mmmlvj#vjjvvsvljdmvdjmCAvsvmmdCCj#ljvvAjmjlAvvmDll0quvlmvClsmDCv",
"jsClvm vvvmmAjdmddlmmjAvCdmmmmdlD djmmlmAlmvmvjmlv<#<vvjllCmlmCm",
"d>5#:m l:##98wmlq8vd>8#:p=#q;@#9C ld27e&@6C<#*rdCAm<<j-##8jr*@,m",
"m 8C*2 d7dso2#vs#7Ad 9v%*uro8msot v:+t+yp#&%vy8jvDm,<l7Cpoqotj3d",
"d jm0@ j0-#.wouiovdd Dd,>jj q:#.q 5+p2#>,@oO5rDjvjm<,j0:#.%;vACv",
"l mC0# 9+rj#03=;2sCA lm>,lv +ej#w o=A,=q0wy9:o,Alll,<8Owm#@>vdmm",
"m dm-2 ,;Ap+9joosllv dm>>vA -jpOq v#=wosmv6Ad9#lddj:2<-mp+>ovmtj",
"s @O*s s+#&Oqd=:CvCm dl,>jv +#&O0 dd+=5O@+=+#+tAj%##sp+@*+0<+#%j",
"s dCdDjmljmmDjoimjmjmdljlslAlmmlmvmdjlmjmAmmmvvjjClCsdlmjjjlmmvv",
"C mvvjCjmvAvm5*jvlCvClmCvdmvdDCjCjmvjvAljvAvvvCCmCdmvdmvsvjdCjsl",
"lvjvvjlvvAvjvvjAsjvdClvCmdvAvddvlmAvvmljmCmldmdvlmdvlvljdvvjllmm",
"CvlCsjmvvjmvdmDlmjjsmCvjmsCCjllAmlsjjCvmdsvddvdjldCldmvAlvvlmlAl",
"dlvjlvCjjjAmjlsdvmjAmlAvmjCldsvlvmdDjvldvmjlvvdmlvljlmdvmjmCllDv",
"djjdAm#vvvvdmlAmCjvdjjjACvvdsmjCv#sjvjvdmdmvmdjldmw0uAmmdvdCCjAj",
"Adsjvj vdAdsmmmvAmjvmsvddvvsvmmjs DlAjCvlvvvvsmmjl>#,lAvjvllmmmj",
"m>5@-m j:##88wlA07jl<9#:d=#0:##8C mA27r*#5A1#*eACvj>,C:##8lt&#<v",
"v 8l*2 v8jio2#Am#8jA 7v*%seo8lpou j-+t+ui@%%my7vmAm,,v7Apo0oim3v",
"v jlq# mq;#.0oyyomvd jj,>mv q:@.q 5+p2#,<#o+5tmCAlv,<lq;#.%:vjjm",
"v mm0# 8Otd@93=:3ljd Ad<,ds +rd@q o=v>=q0qy9;o<Cldv,,7+rd##,vlvv",
"d jm-2 <-du+0ioosvjC mv,,vl :msOq s@=qosjv6mA8@jjjd:3<-li+<omlts",
"s #+&p i+@%+qv=:jADj jj,,Cv +@%+0 Cs+=6+#+=+#+rjm*##dsO@%+q,+#&l",
"l vmCmCmjlmACvotAlmjACllAljvsjjvmjAAmsmClmjAvmdjCmvmCDmmdlmdljml",
"v jvCAllvdlvm6*jjmsvlvCmdAlmljmjmmCmjvdCmldsmvDjCvmAdvlCCDvvmdlm",
"mvmmvsvvjmCsvvdDmCmslvdjvdjvjjCCmDsAdlmmldCdmvAjmsjmvAlAdjmmllmd",
"AljvjlmvvdmmvsdvjmjCAllmllvvmmdlCmjAjlmlmddjvjAdjlmlCvmmdmvCCmmj",
"mAldAjmmjlvvAjjvAmmldmAvmmAmmvslvvvvvllvljddmdlmlvmjlvllsAmmmjvC",
"mdjCvA#jldlCvmmvmvmmvmvlvvvlmmdvl@vvDmdlvvCmmjvAAj0qyCvjvAmmvjdj",
"mmdsjA jCmjlvjjllvmjdlCsClvjmAmAl lAvCvdjldlAmdmsA<#,AAClCjdljdm",
"j,5#;A m-#@89qCAq8Ad>8@:s=#w:##9v Cl28t%@5j,@*rvjmm,,d-@@8dr&@,d",
"m 8l*3 d8jso2#dd#9jD 8v&*sro8vsou l-+e+us#%*my8dCdm<<v8miowoyd3v",
"l vvq# dq:@.qotuodCC Cl<,dj q;#.q 5Os3#,<@o+4tjlmvj<,v0:#.*:mvmv",
"l lAq# 8+rv@03=;4Clm jv><vj +rC#0 o=v,=qqqyq-o>mAmd<>7+tl@#>dCvm",
"v dm-2 <-vp+qsoopmdv mj>1Cs :jpOq j#=9oulp6Cj8#Cllm;2,-ms+>olvrm",
"d #+*i i+#&+wj=;jsmv jj,>jm +#*+q mp+=5+#O=+@+rjl&##pp+@&+q>+#*d",
"s vCmCvmvlvmlmoumlCldAmdACljjjmjCvdddmvvvjjmdmjDdCvvDClAjmvmjdAm",
"l DdjdmjdAvvd5&jmvDlCdvvvmlvjlmlmCdmmAlvmmvmClmvAjlmCjAmvvjvddvm",
"vdCvdCvjmAvjjvlvdjCDdCmlmjdjdssCmvmvCvdjmmmvsjvvjmvAmdvDjjAvvmll",
"mmvmjjvCCvvmCvvmvjdvmmllCljjdmCCmClsvjvvdmAjCvvvmmmvAlCjvlddlvCD",
"AvmlvvjldCmdlmmdmmlvlDvvjlmljvjvjvslvdCmmlvvdlvlllvdllCjdljmljjm",
"mlmmlC@vjmmClvjjmmddmvddldCClldDm@mmsmlldCmmvldAvvqqydlvljmmlmdm",
"sjvvvm lddCdmvmjmlvjdjmlvlmdvClmv mvlvvmmmldmmjdDd,@,jjCsmjdlCvd",
"d>5@:v m-@#89qvj08ml<8@-p=#w-##8l vd28r%#6m,#*wmCjC,,j;##9mr&@>m",
"A 8d*2 j8mpo3#lC#9js 9m%&pro8jdou C:+w+tp#%&mt8llmd<>m9Apo0ouD2d",
"m vl0# d9;#.0oyuoAsA Cm>,jj 0;#.0 5+d2#>,@o+5rlmlmd<,mw-#.*-Avmv",
"v vlq# 8+rd#02=:3svm jj,,vd +rs#q o=d,=0wwy0:o,lCDA<>8+em##,mjdv",
"v Ad;1 <;mp+qpoopmml jA<,ml ;vp+q j#=woiCj4jj8#mvls:2<;vdO<ojCwj",
"m #O&d s+#&+qv=-lllm vl,,sj O#%Oq dp+=5+#+=+@+rjm%##ii+@%+q,+#%d",
"j dmCvmAsjddvjoujvCvmvjvljmCjvmvdjjCmvmmvAAdjvlvsdmvmvAmllvmvdll",
"m CACjvvAAlld6*jvdjlsljvlvmDjdljvslDCvlmdCmldCdmjvAvvmAmvdCmlldj"
};
