/* XPM */
static char *magick[] = {
/* columns rows colors chars-per-pixel */
"64 64 65 1",
"  c #2a2a2a",
". c #2d2d2d",
"X c #2f2f2f",
"o c #35302c",
"O c Gray19",
"+ c Gray20",
"@ c #353535",
"# c Gray21",
"$ c #393939",
"% c Gray23",
"& c Gray24",
"* c #3e3e3e",
"= c #522b08",
"- c #5a3310",
"; c #493829",
": c #663407",
"> c #613a17",
", c #6a3e17",
"< c #743b07",
"1 c #7f3e05",
"2 c #514235",
"3 c #774417",
"4 c #414141",
"5 c Gray26",
"6 c #444444",
"7 c Gray28",
"8 c #4a4542",
"9 c #484848",
"0 c Gray29",
"q c #4c4c4c",
"w c #4f4f4e",
"e c #505050",
"r c Gray32",
"t c Gray33",
"y c #565656",
"u c Gray35",
"i c Gray37",
"p c #626262",
"a c #6a6a6a",
"s c Gray43",
"d c #6f6f6f",
"f c #717171",
"g c Gray46",
"h c #797979",
"j c #854003",
"k c #8a4d17",
"l c #93531b",
"z c #9f5a1c",
"x c #af6726",
"c c Magenta",
"v c #818181",
"b c #868686",
"n c Gray54",
"m c #8e8e8e",
"M c #929292",
"N c Gray59",
"B c Gray61",
"V c Gray68",
"C c Gray74",
"Z c #bebebe",
"A c #ffdb9e",
"S c #c8c8c8",
"D c #ececec",
"F c Gray96",
"G c None",
/* pixels */
"GGGGGGGGGGGGGGGGGGGGGGGGGGGGGGGGGGGGGGGGGGGGGGGGGGGGGGGGGGGGGGGG",
"GGGGGGGGGGGGGGGGGGGGGGGGGGGGGGGGGGGGGGGGGGGGGGGhnGGGGGGGGmMGGGGG",
"GGGGGGGGGGGGGGGGGGGGGGGGGGGGGGGGGGGGGGGGGGGGGGGddnmGGGGmmhgGGGGG",
"GGGGGGGGGGGGGGGGGGGGGGGGGGGGGGGGGGGGGGGGGGGGGGGdddZgkzNMbZhGGGGG",
"GGGGGGGGGGGGGGGGGGGGGGGGGGGGGGGGGGGGGGGGGGGGGGGddugfvmFNbbhGGGGG",
"GGGGGGGGGGGGGGGGGGGGGGGGGGGGGGGGGGGGGGGGGGGGGGGGGumMmnbmNGGGGGGG",
"GGGGGGGGGGGGGGGGGGGGGGGGGGGGGGGGGGGGGGGGGGGGGGGGnmnZrr9dmMGGGGGG",
"GGGGGGGGGGGGGGGGGGGGGGGGGGGGGGGGGGGGGGGGGGGGGGGZnZhw4%4ddbNGGGGG",
"GGGGGGGGGGGGGGGGGGGGGGGGGGGGGGGGGGGGGGGGGGGGGGGd9Zga;Oyuu9ZGGGGG",
"GGGGGGGGGGGGGGGGGGGGGGGGGGGGGGGGGGGGGGGGGGGGGGGydy,1111x26%GGGGG",
"GGGGGGGGGGGGGGGGGGGGGGGGGGGGGGGGGGGGGGGGGGGGGGGGG-3<3lzx<GGGGGGG",
"GGGGGGGGGGGGGGGGGGGGGGGGGGGGGGGGGGGGGGGGGGGGGGGGGG---,,,iGGGrr%O",
"GGGGGGGGGGGGGGGGGGGGGGGGGGVVVVVVVVVVVVVVVVVVV rdbmw--,,8mMNryuyu",
"GGGGGGGGGGGGGGGGGGGGGGGVVVVVVDDDDDDDDDDDDDD6wrydddmmk3bmBZhruyyr",
"GGGGGGGGGGGGGGGGGGGGGGVVVVVVSSSSSSSSSSSSSS469wwdddhg=:NNbZhwybZy",
"GGGGGGGGGGGGGGGGGGGGGGVVVVVVVVVVVVVVVVVVVV449999duZmZnmMbgw%****",
"GGGGGGGGGGGGGGGGGGGGGGVVSVVVVVVVVVVVVVVVVV444XXXXnmNnvZmmeXO%*#4",
"GGGGGGGGGGGGGGGGGGGGGVVVSVVVVppppppppppppp4*XXOgnrZhfddd2mNO##**",
"GGGGGGGGGGGGGGGGGGGGGVVVSDVppppppppppppppX%%XX fbZhdaadudfmV****",
"GGGGGGGGGGGGGGGGGGGGGVVVSDVppppppppppppppX4%OX*dgr21ow1;u4gVGGGG",
"GGGGGGGGGGGGGGGGGGGGGVVVSDVpppppppppppppp%##OOp%r-3,:lAxkr*VGGGG",
"GGGGGGGGGGGGGGGGGGGGGVVVSDVpppppppppppppp%%# %pppj><<lz,<VVVGGGG",
"GGGGGGGGGGGGGGGGGGGGGVVVSDVpppppppppppppp%#OXpp y4>>>,,,p9VVyfry",
"GGGGGGGGGGGGGGGGGGGGGVVVSDVppppppppppppppp#Oqrwy64w=>>:4vpu6iyyi",
"GGGGGGGGGGGGGGGGGGGGGVVVSDVpppppppppppppppp6wwwrr46wr%y6Biyr6yyu",
"GGGGGGGGGGGGGGGGGGGGGVVVSDVppppppppppppppp449w6wr4469rryu4rwuyyy",
"GGGGGGGGGGGGGGGGGGGGGVVVSDVppppppppppppppp446996644469wrre766***",
"GGGGGGGGGGGGGGGGGGGGGVVVSVVppppppppppppppp4464*4*%#44699ww*44***",
"GGGGGGGGGGGGGGGGGGGGGVVVSVVppppppppppppppX*%*OX9X ###O#446O%4#**",
"GGGGGGGGGGGGGGGGGGGGGVVVSDVpVVVVVVVVVVVVV%%4#O#VVVOOOOO*OVVVGGGG",
"GGGGGGGGGGGGGGGGGGGGGVVVSDVpVVVVVVVVVVVVV%%O6 VVVVVVVVpVVVVVGGGG",
"GGGGGGGGGGGGGGGGGGGGGVVVSDVpVVVVVVVVVVVVV%%OXOVVVVVVVVpVVVVVGGGG",
"GGGGGGGGGGGGGGGGGGGGGVVVSDVpVVVVVVVVVVVVV#OXX*VVVVVVVVpVVVVVGGGG",
"GGGGGGGGGGGGGGGGGGGGGVVVSDVpVVVVVVVVVVVVV%XXXVVVVVVVVVpVVVVVGGGG",
"GGGGGGGGGGGGGGGGGGGGGVVVSDVpVVVVVVVVVVVVVVVO*VVVVVVVVVpVVVVVGGGG",
"GGGGGGGGGGGGGGGGGGGGGVVVSDVpVVVVVVVVVVVVVVVVVVVVVVVVVVpVVVVVGGGG",
"GGGGGGGGGGGGGGGGGGGGGVVVSDVVVVVVVVVVVVVVVVVVVVVVVVVVVVVVVVVVGGGG",
"GGGGGGGGGGGGGGGGGGGGGVVVVVVVVVVVVVVVVVVVVVVVVVVVVVVVVVpVVVVVGGGG",
"GGGGGGGGGGGGGGGGGGGGGVVVVVVVVVVVVVVVVVVVVVVVVVVVVVVVVVpVVVVVGGGG",
"GGGGGGGGGGGGGGGGGGGGGVVVVVVVVVVVVVVVVVVVVVVVVVVVVVVVVVVVDVVVGGGG",
"GGGGGGGGGGGGGGGGGGGGGVVVVVVVVVSSSSSSSSSSSSSSSSSSVVVVVVVVVVVVGGGG",
"GGGGGGGGGGGGGGGGGGGGGVVVVVVVVVVVVVVVVVVVVVVVVVVVVVDDDDVVVVVVGGGG",
"GGGGGGGGGGGGGGGGGGGGGpVVVVVVVVVVVVVVVVVVVVVVVVVVSSSSSSVVVVVVGGGG",
"GGGGGGGGGGGGGGGGGGGGGGVVVVVVVVVVVVVVVVVVVVVVVVVVVVVVVVVVVVVVGGGG",
"GGGGGGGGGGGGGGGGGGGGGGppVVVVVVVVVVVVVVVVVVVVVVVVVVVVVVVVVVppGGGG",
"GGGGGGGGGGGGGGGGGGGGGGGGppVVVVVVVVVVVVVVVVVVVVVVVVVVVVVVppGGGGGG",
"GGGGGGGGGGGGGGGGGGGGGGGGGGppppppppppppppppppppppppppppppGGGGGGGG",
"GGGGGGGGGGGGGGGGGGGGGGGGGGGGGGGGGGGGGGGGGGGGGGGGGGGGGGGGGGGGGGGG",
"GGGGGGGGGGGGGGGGGGGGGGGGGGGGGGGGGGGGGGGGGGGGGGGGGGGGGGGGGGGGGGGG",
"GGGGGGGGGGGGGGGGGGGGGGGGGGGGGGGGGGGGGGGGGGGGGGGGGGGGGGGGGGGGGGGG",
"GGGGGGGGGGGGGGGGGGGGGGGGGGGGGGGGGGGGGGGGGGGGGGGGGGGGGGGGGGGGGGGG",
"GGGGGGGGGGGGGGGGGGGGGGGGGGGGGGGGGGGGGGGGGGGGGGGGGGGGGGGGGGGGGGGG",
"GGGGGGGGGGGGGGGGGGGGGGGGGGGGGGGGGGGGGGGGGGGGGGGGGGGGGGGGGGGGGGGG",
"GGGGGGGGGGGGGGGGGGGGGGGGGGGGGGGGGGGGGGGGGGGGGGGGGGGGGGGGGGGGGGGG",
"GGGGGGGGGGGGGGGGGGGGGGGGGGGGGGGGGGGGGGGGGGGGGGGGGGGGGGGGGGGGGGGG",
"GGGGGGGGGGGGGGGGGGGGGGGGGGGGGGGGGGGGGGGGGGGGGGGGGGGGGGGGGGGGGGGG",
"GGGGGGGGGGGGGGGGGGGGGGGGGGGGGGGGGGGGGGGGGGGGGGGGGGGGGGGGGGGGGGGG",
"GGGGGGGGGGGGGGGGGGGGGGGGGGGGGGGGGGGGGGGGGGGGGGGGGGGGGGGGGGGGGGGG",
"GGGGGGGGGGGGGGGGGGGGGGGGGGGGGGGGGGGGGGGGGGGGGGGGGGGGGGGGGGGGGGGG",
"GGGGGGGGGGGGGGGGGGGGGGGGGGGGGGGGGGGGGGGGGGGGGGGGGGGGGGGGGGGGGGGG",
"GGGGGGGGGGGGGGGGGGGGGGGGGGGGGGGGGGGGGGGGGGGGGGGGGGGGGGGGGGGGGGGG",
"GGGGGGGGGGGGGGGGGGGGGGGGGGGGGGGGGGGGGGGGGGGGGGGGGGGGGGGGGGGGGGGG",
"GGGGGGGGGGGGGGGGGGGGGGGGGGGGGGGGGGGGGGGGGGGGGGGGGGGGGGGGGGGGGGGG",
"GGGGGGGGGGGGGGGGGGGGGGGGGGGGGGGGGGGGGGGGGGGGGGGGGGGGGGGGGGGGGGGG"
};
