/* XPM */
static char *magick[] = {
/* columns rows colors chars-per-pixel */
"64 64 15 1",
"  c #414141",
". c Magenta",
"X c Gray62",
"o c #a4a4a4",
"O c #a5a5a5",
"+ c Gray67",
"@ c #b2b2b2",
"# c Gray72",
"$ c Gray75",
"% c #c6c6c6",
"& c Gray79",
"* c #cdcdcd",
"= c #d3d3d3",
"- c Gray93",
"; c None",
/* pixels */
";;;;;;;;;;;;;;;;;;;;;;;;;;;;;;;;;;;;;;;;;;;;;;;;;;;;;;;;;;;;;;;;",
";;;;;;;;;;;;;;;;;;;;;;;;;;;;;;;;;;;;;;;;;;;;;;;;;;;;;;;;;;;;;;;;",
";;;;;;;;;;;;;;;;;;;;;;;;;;;;;;;;;;;;;;;;;;;;;;;;;;;;;;;;;;;;;;;;",
";;;;;;;;;;;;;;;;;;;;;;;;;;;;;;;;;;;;;;;;;;;;;;;;;;;;;;;;;;;;;;;;",
";;;;;;;;;;;;;;;;;;;;;;;;;;;;;;;;;;;;;;;;;;;;;;;;;;;;;;;;;;;;;;;;",
";;;;;;;;;;;;;;;;;;;;;;;;;;;;;;;;;;;;;;;;;;;;;;;;;;;;;;;;;;;;;;;;",
";;;;;;;;;;;;;;;;;;;;;;;;;;;;;;;;;;;;;;;;;;;;;;;;;;;;;;;;;;;;;;;;",
";;;;;;;;;;;;;;;;;;;;;;;;;;;;;;;;;;;;;;;;;;;;;;;;;;;;;;;;;;;;;;;;",
";;;;;;;;;;;;;;;;;;;;;;;;;;;;;;;;;;;;;;;;;;;;;;;;;;;;;;;;;;;;;;;;",
";;;;;;;;;;;;;;;;;;;;;;;;;;;;;;;;;;;;;;;;;;;;;;;;;;;;;;;;;;;;;;;;",
";;;;;;;;;;;;;;;;;;;;;;;;;;;;;;;;;;;;;;;;;;;;;;;;;;;;;;;;;;;;;;; ",
";;;;;;;;;;;;;;;;;;;;;;;;;;;;;;;;;;;;;;;;;;;;;;;;;;;;;;;;;;;;   -",
";;;;;;                                                       o&-",
";;;;  $%*=================================================== o&-",
";;; @#$%*=================================================== o&-",
";; +@#$%*=================================================== o&-",
"  o+@#$%*=================================================== o&-",
" Xo+@#$%*=================================================== o&-",
" Xo+@#$%*=================================================== o&-",
" Xo+@#$%*=================================================== o&-",
" Xo+@#$%*=================================================== o&-",
" Xo+@#$%*=================================================== o&-",
" Xo+@#$%*=================================================== o&-",
" Xo+@#$%*=================================================== o&-",
" Xo+@#$%*=================================================== o&-",
" Xo+@#$%*=================================================== o&-",
" Xo+@#$%*=================================================== o&-",
" Xo+@#$%*=================================================== o&-",
" Xo+@#$%*=================================================== o&-",
" Xo+@#$%*=================================================== o&-",
" Xo+@#$%*=================================================== o&-",
" Xo+@#$%*=================================================== o&-",
" Xo+@#$%*=================================================== o&-",
" Xo+@#$%*=================================================== o&-",
" Xo+@#$%*=================================================== o&-",
" Xo+@#$%*=================================================== o&-",
" Xo+@#$%*=================================================== o&-",
" Xo+@#$%*=================================================== o&-",
" Xo+@#$%*=================================================== o&-",
" Xo+@#$%*=================================================== o&-",
" Xo+@#$%*=================================================== o&-",
" Xo+@#$%*=================================================== o&-",
" Xo+@#$%*=================================================== o&-",
" Xo+@#$%*=================================================== o&-",
" Xo+@#$%*=================================================== o&-",
" Xo+@#$%*=================================================== o&-",
" Xo+@#$%*=================================================== o&-",
" Xo+@#$%*=================================================== o&-",
" Xo+@#$%*=================================================== o&-",
" Xo+@#$%*=================================================== o&-",
" Xo+@#$%*=================================================== o&-",
" Xo+@#$%*=================================================== o&-",
" Xo+@#$%*=================================================== o&-",
" Xo+@#$%*=================================================== o&-",
" Xo+@#$%*=================================================== o&-",
" Xo+@#$%*=================================================== o&-",
" Xo+@#$%*=================================================== o&-",
" Xo+@#$%*=================================================== o&-",
" Xo+@#$%*=================================================== o&-",
" Xo+@#$%*=================================================== o&-",
" Xo+@#$%*=================================================== o&-",
" Xo+@#$%*=================================================== o&-",
" Xo+@#$%*=================================================== o&-",
" Xo+@#$%*=================================================== o&-"
};
