/* XPM */
static char *magick[] = {
/* columns rows colors chars-per-pixel */
"64 64 13 1",
"  c Magenta",
". c #808080",
"X c #818181",
"o c Gray53",
"O c #8b8b8b",
"+ c #8e8e8e",
"@ c #9a9a9a",
"# c #9b9b9b",
"$ c #a4a4a4",
"% c Gray65",
"& c Gray66",
"* c Gray70",
"= c None",
/* pixels */
"================================================================",
"================================================================",
"================================================================",
"================================================================",
"================================================================",
"================================================================",
"================================================================",
"================================================================",
"================================================================",
"================================================================",
"================================================================",
"================================================================",
"================================================================",
"================================================================",
"================================================================",
"================================================================",
"================================================================",
"================================================================",
"================================================================",
"================================================================",
"================================================================",
"================================================================",
"================================================================",
"================================================================",
"================================================================",
"================================================================",
"================================================================",
"================================================================",
"================================================================",
"................................................................",
"&###############################################################",
"*%%%%%$$%%$$%%$$%%$$%%$$%%$$%%$$%%$$$$%%$$$$%%$$$$%%$$$$%%$$$$%%",
"................................................................",
"+ooOOOOOOOOOOOOOOOOOOOOOOOOOOOOOOOOOOOOOOOOOOOOOOOOOOOOOOOOOOOOO",
"================================================================",
"================================================================",
"================================================================",
"================================================================",
"================================================================",
"================================================================",
"================================================================",
"================================================================",
"================================================================",
"================================================================",
"================================================================",
"================================================================",
"================================================================",
"================================================================",
"================================================================",
"================================================================",
"================================================================",
"================================================================",
"================================================================",
"================================================================",
"================================================================",
"================================================================",
"================================================================",
"================================================================",
"================================================================",
"================================================================",
"================================================================",
"================================================================",
"================================================================",
"================================================================"
};
