/* XPM */
static char *magick[] = {
/* columns rows colors chars-per-pixel */
"64 64 4 1",
"  c Magenta",
". c Gray90",
"X c Gray100",
"o c None",
/* pixels */
"ooooooooooooooooooooooooooooo.XXXXXXXXX.oooooooooooooooooooooooo",
"ooooooooooooooooooooooooooooo.XXXXXXXXX.oooooooooooooooooooooooo",
"ooooooooooooooooooooooooooooo.XXXXXXXXX.oooooooooooooooooooooooo",
"ooooooooooooooooooooooooooooo.XXXXXXXXX.oooooooooooooooooooooooo",
"ooooooooooooooooooooooooooooo.XXXXXXXXX.oooooooooooooooooooooooo",
"ooooooooooooooooooooooooooooo.XXXXXXXXX.oooooooooooooooooooooooo",
"ooooooooooooooooooooooooooooo.XXXXXXXXX.oooooooooooooooooooooooo",
"ooooooooooooooooooooooooooooo.XXXXXXXXX.oooooooooooooooooooooooo",
"ooooooooooooooooooooooooooooo.XXXXXXXXX.oooooooooooooooooooooooo",
"ooooooooooooooooooooooooooooo.XXXXXXXXX.oooooooooooooooooooooooo",
"ooooooooooooooooooooooooooooo.XXXXXXXXX.oooooooooooooooooooooooo",
"ooooooooooooooooooooooooooooo.XXXXXXXXX.oooooooooooooooooooooooo",
"ooooooooooooooooooooooooooooo.XXXXXXXXX.oooooooooooooooooooooooo",
"ooooooooooooooooooooooooooooo.XXXXXXXXX.oooooooooooooooooooooooo",
"ooooooooooooooooooooooooooooo.XXXXXXXXX.oooooooooooooooooooooooo",
"ooooooooooooooooooooooooooooo.XXXXXXXXX.oooooooooooooooooooooooo",
"ooooooooooooooooooooooooooooo.XXXXXXXXX.oooooooooooooooooooooooo",
"ooooooooooooooooooooooooooooo.XXXXXXXXX.oooooooooooooooooooooooo",
"ooooooooooooooooooooooooooooo.XXXXXXXXX.oooooooooooooooooooooooo",
"ooooooooooooooooooooooooooooo.XXXXXXXXX.oooooooooooooooooooooooo",
"ooooooooooooooooooooooooooooo.XXXXXXXXX.oooooooooooooooooooooooo",
"ooooooooooooooooooooooooooooo.XXXXXXXXX.oooooooooooooooooooooooo",
"ooooooooooooooooooooooooooooo.XXXXXXXXX.oooooooooooooooooooooooo",
"ooooooooooooooooooooooooooooo.XXXXXXXXX.oooooooooooooooooooooooo",
"ooooooooooooooooooooooooooooo.XXXXXXXXX.oooooooooooooooooooooooo",
"ooooooooooooooooooooooooooooo.XXXXXXXXX.oooooooooooooooooooooooo",
"ooooooooooooooooooooooooooooo.XXXXXXXXX.oooooooooooooooooooooooo",
"ooooooooooooooooooooooooooooo.XXXXXXXXX.oooooooooooooooooooooooo",
"ooooooooooooooooooooooooooooo.XXXXXXXXX.oooooooooooooooooooooooo",
"ooooooooooooooooooooooooooooo.XXXXXXXXX.oooooooooooooooooooooooo",
"ooooooooooooooooooooooooooooo.XXXXXXXXX.oooooooooooooooooooooooo",
"ooooooooooooooooooooooooooooo.XXXXXXXXX.oooooooooooooooooooooooo",
"ooooooooooooooooooooooooooooo.XXXXXXXXX.oooooooooooooooooooooooo",
"ooooooooooooooooooooooooooooo.XXXXXXXXX.oooooooooooooooooooooooo",
"ooooooooooooooooooooooooooooo.XXXXXXXXX.oooooooooooooooooooooooo",
"ooooooooooooooooooooooooooooo.XXXXXXXXX.oooooooooooooooooooooooo",
"ooooooooooooooooooooooooooooo.XXXXXXXXX.oooooooooooooooooooooooo",
"ooooooooooooooooooooooooooooo.XXXXXXXXX.oooooooooooooooooooooooo",
"ooooooooooooooooooooooooooooo.XXXXXXXXX.oooooooooooooooooooooooo",
"ooooooooooooooooooooooooooooo.XXXXXXXXX.oooooooooooooooooooooooo",
"ooooooooooooooooooooooooooooo.XXXXXXXXX.oooooooooooooooooooooooo",
"ooooooooooooooooooooooooooooo.XXXXXXXXX.oooooooooooooooooooooooo",
"ooooooooooooooooooooooooooooo.XXXXXXXXX.oooooooooooooooooooooooo",
"ooooooooooooooooooooooooooooo.XXXXXXXXX.oooooooooooooooooooooooo",
"ooooooooooooooooooooooooooooo.XXXXXXXXX.oooooooooooooooooooooooo",
"ooooooooooooooooooooooooooooo.XXXXXXXXX.oooooooooooooooooooooooo",
"ooooooooooooooooooooooooooooo.XXXXXXXXX.oooooooooooooooooooooooo",
"ooooooooooooooooooooooooooooo.XXXXXXXXX.oooooooooooooooooooooooo",
"ooooooooooooooooooooooooooooo.XXXXXXXXX.oooooooooooooooooooooooo",
"ooooooooooooooooooooooooooooo.XXXXXXXXX.oooooooooooooooooooooooo",
"ooooooooooooooooooooooooooooo.XXXXXXXXX.oooooooooooooooooooooooo",
"ooooooooooooooooooooooooooooo.XXXXXXXXX.oooooooooooooooooooooooo",
"ooooooooooooooooooooooooooooo.XXXXXXXXX.oooooooooooooooooooooooo",
"ooooooooooooooooooooooooooooo.XXXXXXXXX.oooooooooooooooooooooooo",
"ooooooooooooooooooooooooooooo.XXXXXXXXX.oooooooooooooooooooooooo",
"ooooooooooooooooooooooooooooo.XXXXXXXXX.oooooooooooooooooooooooo",
"ooooooooooooooooooooooooooooo.XXXXXXXXX.oooooooooooooooooooooooo",
"ooooooooooooooooooooooooooooo.XXXXXXXXX.oooooooooooooooooooooooo",
"ooooooooooooooooooooooooooooo.XXXXXXXXX.oooooooooooooooooooooooo",
"ooooooooooooooooooooooooooooo.XXXXXXXXX.oooooooooooooooooooooooo",
"ooooooooooooooooooooooooooooo.XXXXXXXXX.oooooooooooooooooooooooo",
"ooooooooooooooooooooooooooooo.XXXXXXXXX.oooooooooooooooooooooooo",
"ooooooooooooooooooooooooooooo.XXXXXXXXX.oooooooooooooooooooooooo",
"ooooooooooooooooooooooooooooo.XXXXXXXXX.oooooooooooooooooooooooo"
};
