/* XPM */
static char *magick[] = {
/* columns rows colors chars-per-pixel */
"64 64 64 1",
"  c #151515",
". c #1b1b1b",
"X c Gray13",
"o c Gray41",
"O c #6a6a6a",
"+ c Gray42",
"@ c #6c6c6c",
"# c #6d6d6d",
"$ c Gray43",
"% c #6f6f6f",
"& c Gray44",
"* c #717171",
"= c #727272",
"- c Gray45",
"; c #747474",
": c Gray46",
"> c Gray47",
", c Gray48",
"< c #7b7b7b",
"1 c Gray49",
"2 c Magenta",
"3 c #808080",
"4 c #818181",
"5 c Gray51",
"6 c Gray52",
"7 c #898989",
"8 c Gray54",
"9 c Gray55",
"0 c #8e8e8e",
"q c Gray56",
"w c #959595",
"e c #979797",
"r c #9a9a9a",
"t c Gray61",
"y c #9d9d9d",
"u c #a0a0a0",
"i c Gray63",
"p c #a4a4a4",
"a c Gray65",
"s c Gray66",
"d c #a9a9a9",
"f c #aaaaaa",
"g c #aeaeae",
"h c #b1b1b1",
"j c Gray70",
"k c #b6b6b6",
"l c #b9b9b9",
"z c #bcbcbc",
"x c #bebebe",
"c c #c3c3c3",
"v c #c5c5c5",
"b c Gray79",
"n c #cacaca",
"m c Gray80",
"M c #cdcdcd",
"N c Gray81",
"B c Gray82",
"V c #d3d3d3",
"C c #d5d5d5",
"Z c Gray84",
"A c #d7d7d7",
"S c #d8d8d8",
"D c Gray85",
"F c None",
/* pixels */
"FFFFFFFFFFFFFFFFFFFFFFFFFFFFFFFFFFFFFFFFFFFFFFFFFFFFFFFFFFFFFFFF",
"FFFFFFFFFFFFFFFFFFFFFFFFFFFFFFFFFFFFFFFFFFFFFFFFFFFFFFFFFFFFFFFF",
"FFFFFFFFFFFFFFFFFFFFFFFFFFFFFFFFFFFFFFFFFFFFFFFFFFFFFFFFFFFFFFFF",
"FFFFFFFFFFFFFFFFFFFFFFFFFFFFFFFFFFFFFFFFFFFFFFFFFFFFFFFFFFFFFFFF",
"FFFFFFFFFFFFFFFFFFFFFFFFFFFFFFFFFFFFFFFFFFFFFFFFFFFFFFFFFFFFFFFF",
"FFFFFFFFFFFFFFFFFFFFFFFFFFFFFFFFFFFFFFFFFFFFFFFFFFFFFFFFFFFFFFFF",
"FFFFFFFFFFFFFFFFFFFFFFFFFFFFFFFFFFFFFFFFFFFFFFFFFFFFFFFFFFFFFFFF",
"FFFFFFFFFFFFFFFFFFFFFFFFFFFFFFFFFFFFFFFFFFFFFFFFFFFFFFFFFFFFFFFF",
"FFFFFFFFFFFFFFFFFFFFFFFFFFFFFFFFFFFFFFFFFFFFFFFFFFFFFFFFFFFFFFFF",
"FFFFFFFFFFFFFFFFFFFFFFFFFFFFFFFFFFFFFFFFFFFFFFFFFFFFFFFFFFFFFFFF",
"FFFFFFFFFFFFFFFFFFFFFFFFFFFFFFFFFFFFFFFFFFFFFFFFFFFFFFFFFFFFFFFF",
"FFFFFFFFFFFFFFFFFFFFFFFFFFFFFFFFFFFFFFFFFFFFFFFFFFFFFFFFFFFFFFFF",
"FFFFFFFFFFFFFFFFFFFFFFFFFFFFFFFFFFFFFFFFFFFFFFFFFFFFFFFFFFFFFFFF",
"FFFFFFFFFFFFFFFFFFFFFFFFFFFFFFFFFFFFFFFFFFFFFFFFFFFFFFFFFFFFFFFF",
"FFFFFFFFFFFFFFFFFFFFFFFFFFFFFFFFFFFFFFFFFFFFFFFFFFFFFFFFFFFFFFFF",
"FFFFFFFFFFFFFFFFFFFFFFFFFFFFFFFFFFFFFFFFFFFFFFFFFFFFFFFFFFFFFFFF",
"FFFFFFFFFFFFFFFFFFFFFFFFFFFFFFFFFFF                          FFF",
"FFFFFFFFFFFFFFFFFFFFFFFFFFFFFFFFFF %&&&&&&&&&&&&&&&&&&&&oo  FFFF",
"FFFFFFFFFFFFFFFFFFFFFFFFFFFFFFFFFF dAAAAAAAAAAAAAAAAAAAA6     FF",
"FFFFFFFFFFFFFFFFFFFFFFFFFFFFFFFFF o&::::::::::::::::::::%%h9 FFF",
"FFFFFFFFFFFFFFFFFFFFFFFFFFFFFFFFF oooooooooooooooooooooooyv% FFF",
"FFFFFFFFFFFFFFFFFFFFFFFFFFFFFFFFFF    ooooooooooooooooooo6% FFFF",
"FFFFFFFFFFFFFFFFFFFFFFFFFFFFFFFFFFFFFF   oooooooo          FFFFF",
"FFFFFFFFFFFFFFFFFFFFFFFFFFFFFFFFFFFFFFFF oooooooo FFFFFFFFFFFFFF",
"FFFFFFFFFFFFFFFFFFFFFFFFFFFFFFFFFFFFFFFF oooo38o FFFFFFFFFFFFFFF",
"FFFFFFFFFFFFFFFFFFFFFFFFFFFFFFFFFFFFFFF oooo%N8o FFFFFFFFFFFFFFF",
"FFFFFFFFFFFFFFFFFFFFFFFFFFFFFFFFFFFFFFF oooo3V& FFFFFFFFFFFFFFFF",
"FFFFFFFF    FFFFFFFFFFFFFFFFFFFFFFFFFFF ooo%hao FFFFFFFFFFFFFFFF",
"FFFFFFF :::o FFFFFFFFFF .XX  FFFFFFFFF oooo&S>o FFFFFFFFFFFFFFFF",
"FFFFFF oNSNo FFFFFFFFF odAA& FFFFFFFFF oooorx% FFFFFFFFFFFFFFFFF",
"FFFFFF o%&%oo FFFFFFFF o&::oo FFFFFFFF ooo%b9o FFFFFFFFFFFFFFFFF",
"FFFFFF ooooooo FFFFFF ooooooo FFFFFFF ooooxA& FFFFFFFFFFFFFFFFFF",
"FFFFFFF oooooo FFFFFF oooooooo FFFFFF ooo%ddo FFFFFFFFFFFFFFFFFF",
"FFFFFFF oooooo FFFFF ooooooooo FFFFFF ooo&A>o FFFFFFFFFFFFFFFFFF",
"FFFFFFF ooooooo FFFF oooooooooo FFFF ooooev% FFFFFFFFFFFFFFFFFFF",
"FFFFFFF ooooooo FFF ooooooooooo FFFF ooo%ceo FFFFFFFFFFFFFFFFFFF",
"FFFFFFFF oooooo FFF oooooooooooo FF oooo>S&o FFFFFFFFFFFFFFFFFFF",
"FFFFFFFF oooooo FF ooo%l> oooooo FF oooodg% FFFFFFFFFFFFFFFFFFFF",
"FFFFFFFF oooooo FF ooo8N% ooooooo F ooo&A3o FFFFFFFFFFFFFFFFFFFF",
"FFFFFFFF ooooooo  ooo%ku F oooooo  oooo9b% FFFFFFFFFFFFFFFFFFFFF",
"FFFFFFFFF oooooo  ooo&S: F ooooooo ooo%xyo FFFFFFFFFFFFFFFFFFFFF",
"FFFFFFFFF oooooo ooooyx% F ooooooooooo>S&o FFFFFFFFFFFFFFFFFFFFF",
"FFFFFFFFF oooooooooo%b9 FFF ooooooooooah% FFFFFFFFFFFFFFFFFFFFFF",
"FFFFFFFFF oooooooooo1A& FFF ooooooooo%V6o FFFFFFFFFFFFFFFFFFFFFF",
"FFFFFFFFFF ooooooooodd% FFF ooooooooo8N% FFFFFFFFFFFFFFFFFFFFFFF",
"FFFFFFFFFF oooooooo&Ax FFFFF ooooooo%kuo FFFFFFFFFFFFFFFFFFFFFFF",
"FFFFFFFFFF oooooooo9b% FFFFF ooooooo:S:o FFFFFFFFFFFFFFFFFFFFFFF",
"FFFFFFFFFF ooooooo%xy FFFFFFF ooooooul% FFFFFFFFFFFFFFFFFFFFFFFF",
"FFFFFFFFFFF oooooo:S: FFFFFFF ooooo%N8o FFFFFFFFFFFFFFFFFFFFFFFF",
"FFFFFFFFFFF oooooouk% FFFFFFF ooooo3V& FFFFFFFFFFFFFFFFFFFFFFFFF",
"FFFFFFFFFFF ooooo%N8 FFFFFFFFF ooo%hao FFFFFFFFFFFFFFFFFFFFFFFFF",
"FFFFFFFFFFF ooooo3V& FFFFFFFFF ooo%e% FFFFFFFFFFFFFFFFFFFFFFFFFF",
"FFFFFFFFFFFF ooo%gdo FFFFFFFFF oooooo FFFFFFFFFFFFFFFFFFFFFFFFFF",
"FFFFFFFFFFFF oooo&o FFFFFFFFFFF oooo FFFFFFFFFFFFFFFFFFFFFFFFFFF",
"FFFFFFFFFFFF        FFFFFFFFFFF     FFFFFFFFFFFFFFFFFFFFFFFFFFFF",
"FFFFFFFFFFFFFFFFFFFFFFFFFFFFFFFFFFFFFFFFFFFFFFFFFFFFFFFFFFFFFFFF",
"FFFFFFFFFFFFFFFFFFFFFFFFFFFFFFFFFFFFFFFFFFFFFFFFFFFFFFFFFFFFFFFF",
"FFFFFFFFFFFFFFFFFFFFFFFFFFFFFFFFFFFFFFFFFFFFFFFFFFFFFFFFFFFFFFFF",
"FFFFFFFFFFFFFFFFFFFFFFFFFFFFFFFFFFFFFFFFFFFFFFFFFFFFFFFFFFFFFFFF",
"FFFFFFFFFFFFFFFFFFFFFFFFFFFFFFFFFFFFFFFFFFFFFFFFFFFFFFFFFFFFFFFF",
"FFFFFFFFFFFFFFFFFFFFFFFFFFFFFFFFFFFFFFFFFFFFFFFFFFFFFFFFFFFFFFFF",
"FFFFFFFFFFFFFFFFFFFFFFFFFFFFFFFFFFFFFFFFFFFFFFFFFFFFFFFFFFFFFFFF",
"FFFFFFFFFFFFFFFFFFFFFFFFFFFFFFFFFFFFFFFFFFFFFFFFFFFFFFFFFFFFFFFF",
"FFFFFFFFFFFFFFFFFFFFFFFFFFFFFFFFFFFFFFFFFFFFFFFFFFFFFFFFFFFFFFFF"
};
