/* XPM */
static char *magick[] = {
/* columns rows colors chars-per-pixel */
"64 64 50 1",
"  c Gray29",
". c #535353",
"X c Gray35",
"o c #626562",
"O c #646564",
"+ c #656765",
"@ c #676967",
"# c #878b87",
"$ c #909690",
"% c #929792",
"& c #949994",
"* c #969a96",
"= c #979c97",
"- c #989d98",
"; c #999f99",
": c #9ba19b",
"> c #a6aca6",
", c #a8aea8",
"< c #a9afa9",
"1 c #a9b0a9",
"2 c #aab0aa",
"3 c #aab1aa",
"4 c #abb1ab",
"5 c #abb2ab",
"6 c #acb1ac",
"7 c #acb2ac",
"8 c #acb3ac",
"9 c #adb2ad",
"0 c #aeb3ae",
"q c #aeb4ae",
"w c #afb4af",
"e c #afb5af",
"r c #b0b5b0",
"t c #b0b6b0",
"y c #b1b6b1",
"u c #b1b7b1",
"i c #b1b8b1",
"p c #b2b8b2",
"a c #b2b9b2",
"s c #b3b9b3",
"d c #b3bab3",
"f c #b4bab4",
"g c #b4bbb4",
"h c #b5bbb5",
"j c #b5bcb5",
"k c #b6bcb6",
"l c #b6bdb6",
"z c #b8bdb8",
"x c #b8beb8",
"c c #b9beb9",
/* pixels */
"OOOOO.XOOO@OOOOO@OOO@OoOOOOoOOOOOo@OOOOooOOO@OOOO@OOOooOOO@OOo@ ",
"%-%=*#%%-%==****%--%=%%*%*%%==****%%=*:*%-=**-%-***%-**-%-**%%*.",
"g<gg3dgee8rg8grgee8r33<r8ee8<888d8rr8d888<err838rxgrdrrd3r3dr8=o",
"ee8red<8kd3383eedgdgd8grrg8383eeddrdrdr3g<r8rkrrg3rdedr8g883d3-O",
"eeddd838drrg38rrdg883d3rr<8kr8gr88eggr8gr8edrr8dd838rerkr3rrk8%O",
"rdek3gdd8gdrg3dederrdd8r8d8geek3ere3r88d8dggk<g8ded8rrrr3egrre*O",
"3rxdr8gekgd3k3d88r3reerr<d3edgdrdg8rddrr8dx838g8geddkedd3drde8*O",
"d<errdg8rr8erg8gd3deddgd3dd83r8errd3kgrr83rgedr88rdgdk88d8ked8=O",
"3rge38d<d88r3r3x38dd3edddrr8rdrrdegr3dered838red8drd3g3g8rk8<>-O",
"d3dedd8ere3rrerrk3erddg3eed<dd8dx3eegg3e33rd33dd88regdde8<krg8%O",
"d88ed8e38gre3reeere3rreddg3re3r8r8r8ede8rrxeredd3dde3dg8dd8k33-@",
"xgre33er8gekrdddrrrg8kd3rr8r<egdggd388eg8eddr38rdrrgdrrrede8r3*@",
"eedrrk88xe3dkrd8rr8<rddd83rgrdrdg<<3838dedg3xg83rer88rk8rr<rdr*O",
"dr33r8rrdk8gde8krdegdrddrekdd3gdede8redrrr3gexrd8e83rrkreekgr8=O",
"dk38rrd8kedxrrg3x8d<d88rrrd333rg8d888egk3dk3egeddrdedre8dgdgd8-O",
"3ddd8rdr3geeegee8rr8rg<dedrred3rrkdrgr83e88drd<8eg8kdrde3<rer8%o",
"rdreg3edd3reedeeger8gd>e<d<8e8ee8e8dk<gx88d8r3drdrdderr3d8e8d3*o",
"drg38d3edr88k3dkd8g3rrreddrrgr3eegee38rg3r8ddegxe8r33rr3rrk8dr:O",
"rdrddxgrkerdk8rde8g3de3drrdd8rkrdrrdd83rkeg3gg38d33de<drd3ere<*O",
"rd3rrx33drrkkd3g388dd8rdde3d3eddddre3ddkrrrgx8kr33r3rd8rr8rke8=O",
"3r8er3r8e83r8dd8rrd8r8883gr3eg8rxrrkxd<dd8d3<k8rkgdgr3dg8kd83<%O",
"d38e38gegkkrrdk<d3dke3r83rgrkerekdkd8reg<ge38dree88re8d3r88r8<%@",
"888rddkr8rgrd88kkr8ddgrre3dxrr3er3dderrrerdrddrdrddrge3erkdk33*o",
"gr8drdk<eere8drede3d338ereerrrrr8<rddkddrkd3eddkr88krre88gre88*O",
"8ddggrd3ddrgede83k8r833ded88k8dge3ddereedeekg8d8r3<rdd3rrd8<g8*O",
"3deedd83gegrd8<d8krd3g3edde3k<xdgg88r83r83re<dgdx3rr<gdere8rr8*O",
"de3drrxgger3kdrg8xrd<3edg3r8dgdd8d8edek3dgree<d88dddre3d8d8rre-O",
"ed8e3de3ddxgdrdg83dek8degd<dkk8dr88<r8ekeegk8dek3grgkdeed8x3g3-O",
"8regerg33<dgerdd8rerr8rrrd8ddgr8r88grrgee88d8xk8derrd88rdrrd8<%o",
"<kededx3e3gdg38888ekdxr8drdg8<3d3ddr<errrrdrg8rde333g<3erd83d<%@",
"reerrdr3dr3rdr3egdre<rd8de8r8gre<3rke<3dd3kd38eddrd<83kxg3rege*O",
"d88rg8ederegrrekgdxeededrd3rr83r33gd8rd3e88g3rd3reg88rr38388d3*O",
"rddx<3grk88redkdr3rd3383dxd<<8errrere3d3gr<8k8rrdkr8d388333kg8*O",
"rgerderekggd88rgk8ddxk8edd3ekddgrddd3g8gdedge333kexdexgredddd8%O",
"8dddeer8rkedk388dd<rrrrerg3kexg<8ddr<rr33r<dr8dkrddd<3krrrdred%O",
"8k8gg3r3ddkr8gd3e83drd3d3e8r8<rrg8d<3rrgk8883r8gdg8d3rr8rk8ree-@",
"rxeegd8dr3de8ered3rre8dr3er8x3drer<3eg8drkedk8dr3<e8dk838de83r%O",
"ekederrekrd3eg3e83r33r<3drg88<edkee8gg<d8rgd<88d8xd3rd8xekd383-O",
"ddee8rr38erer3der3d3edgd8edrrkder33rkr3dgreg3r8<k8rr8rke8d8g3r:O",
"e<8g38r<ed3rd3ggdgrrrkr8ekr8rd8g8gx3rd3rgdegrger8krdrkrrd33r3e*@",
"rrdde888de3<geg88rrdddkd8de83drdeddeke<e8e3d8d8dkr8xdd8e88<rd<*O",
"83erd3rd8erde888kg3rr8k8<r8rg3d83egg8r88re38dgrggd3d<rgd88rdk8*O",
"8grr38r8d3drd833erd3gdrddgx8drkr3r8<rkr38d3dreeddkk<reke38r888*@",
"dd3r33rd33dgeeeeke3d<eg3drrkd8rge88r8rer<degkg<erdd8k8rrk3r3<d=O",
"rgkrr88kd88rdd8r8xrr33<r8d3rde3dkddr3888r3x833rdkddkrg838388d3*O",
"3g83edrrg3edrdxr8rrr3rdrekxedre3rdde8r<d3rg83k3d<rk3dd38333kg8*O",
"dd8gr8rdr38ggdkg3ddedgd8ee3e3edgkr8rdx<rgde33rreedgeddkredddd8%O",
"dgdedgee8rrgdkred8rdrdekd8dd838xe3dddd3grk8dde33d38kddrrrrdred%O",
"rgxd<egrderdr3eexdrrke8d8krr8er8gg3ddr<rkgd83rr38er<rr88rk8ree-@",
"rdgrd8ed3dgrrdd8grg8rg8<g8rrdr33gd8ke338383rgd3drdrd3rd38de83r%O",
"8deg8reg8rege3rdre<8rdegd3rg3rkgr8edgd8rggdd8ede<dd88rgxekd383-O",
"gddd3<eexrkeer<<3rddrr<38rddrxree8888e8383kde88dgrereree8d8g3r:O",
"erdrd3dr38<reerdedrkeer888gddd33d<g3rederr8r<e3dgr8e8d3rd33r3e*@",
"kddrgg8rdgdreede3gegd8rg3rrkr8krrg<rkded8edkgd8e8drd3d<e88<rd<*O",
"rrdrdredreerrdrd8rdr88deeg3gdkrrr8eekd<8ddkdrr3383edr3dd88rdk8*O",
"8kedrr8d<8d8d8ddk8kre3g8eedg<8d<xdd8rrredegkgr8g8ree<38e38r888*@",
"kegdd8d<g8dd3kdrrde8xdde8xrr8dk8rg3kkr8dgrrerd333k3rg8<rk3r3<d=O",
"d8rge8gdrdk88eggr3dx8<rgrrre88rdgdkk88<d8g<r8eer33dxdxr88dd8d8-O",
"3ddr8ggdg<reddr8rgr8d<3gdrrr<r3r3r8eeed8d3xedk3dr3drdrrx3r8de3-@",
"kdg3e83ddgxe8r3grerred8d>rd33e8re<8dg3d8e8dkrxe<83rdedd3e8ddrd%O",
"g<8r<drr3ddxrr<drdkdrd8dg8gdr8rd8rg33kreedddkd8rd8re<krgered8d-O",
"e8kgd8dx83dg83ggekgerdgekde3<d3ke8drgg3xe3rk8ee3erde<rer8g3rr>%O",
"8kgdddd8rrrddedgg3ered8e8rdrd3kd8e83re8rrr<rge8gd8e8ddxrdedred%X",
"8gddkgr3grd8xkg3dd3k83rdr8reg8rd88rre88rgxdrdregedrrdkd3drdrdd#."
};
