/* XPM */
static char *magick[] = {
/* columns rows colors chars-per-pixel */
"64 64 50 1",
"  c Gray29",
". c #535353",
"X c Gray35",
"o c #626562",
"O c #646564",
"+ c #656765",
"@ c #676967",
"# c #878b87",
"$ c #909690",
"% c #929792",
"& c #949994",
"* c #969a96",
"= c #979c97",
"- c #989d98",
"; c #999f99",
": c #9ba19b",
"> c #a6aca6",
", c #a8aea8",
"< c #a9afa9",
"1 c #a9b0a9",
"2 c #aab0aa",
"3 c #aab1aa",
"4 c #abb1ab",
"5 c #abb2ab",
"6 c #acb1ac",
"7 c #acb2ac",
"8 c #acb3ac",
"9 c #adb2ad",
"0 c #aeb3ae",
"q c #aeb4ae",
"w c #afb4af",
"e c #afb5af",
"r c #b0b5b0",
"t c #b0b6b0",
"y c #b1b6b1",
"u c #b1b7b1",
"i c #b1b8b1",
"p c #b2b8b2",
"a c #b2b9b2",
"s c #b3b9b3",
"d c #b3bab3",
"f c #b4bab4",
"g c #b4bbb4",
"h c #b5bbb5",
"j c #b5bcb5",
"k c #b6bcb6",
"l c #b6bdb6",
"z c #b8bdb8",
"x c #b8beb8",
"c c #b9beb9",
/* pixels */
" .o++++++++@+++oo++++@o+++++o@+++++@+++@++@+++++@+++@++@++@+++X.",
"@*=-$**=-$-**=-$*:*=$$****--$$***$$-$--****=**$$-$--****=--$-$$#",
"o$626t66>622t6666t,6,,2662e2,2e266iet2te,66i266iet2te,66ie2ii>ii",
"+$tiltti,f2tititiiee262efttf6ififiee2622il6,ifiee2622il6,iet6tei",
"+*i2ttit6tl6tffe66tl6tle,tt6i2e6litt62ftti626litt62ftti666iiftti",
"@*26tftlll6e,littleti6it66ezi6t62ii6ei62,ttt62fi6ei62,tttf6ie2ii",
"+-t62ei6t,iitef,6t26l6lfiei6ti222itlili26e6222itlili26662it6tftt",
"+$2ft22i66ietti2ftit6tt6tt6iitf62ttt6e6i662l62ett6e6i662le2ee6ii",
"+-i6lii6fe6t6t6e22ttf2e6teietez26tt62zeteiet26tt62zeteiet6z6ftt2",
"o*tttti62iftlltitti6ii2e2i2e62lt6llt66lt6flt62lt6ift2,i6,ttitezi",
"o*iieielfiittttttt,i26etifei6,2t2z2tlitlite6ffiittttii226ztiltil",
"+-iettli2f2i6tiie2ettefti,tlif66ie,2it6ti,tltiiit26t62t2fiie,2ii",
"+$ti66ffieef62eli2i2fttlttfft2,66iii62tizi26l6el,iettiietziiee6t",
"+*ft2iiittitt6i6it2ti6i6,tftt2iftzieeitt66liilf6ttie6tee2iiteiet",
"+*z26ttti6itettft622f6i662ife2teleif,zeltiliiti2eiitti2tl2266t6i",
"+*tfiif6662it6ieiei6lttttz66ieitilti26l6lfitl2ei6t,ffe6622t6feie",
"+-6ti6e6iiit2ii6tz6tteil6i6l6ii2t2lfti,tifieiie22itiie2f2ti,t2ff",
"+$2t2lfteii66te,if2l6ttiiffelteit2i6i66e6te,t2t2i2i626262e2e6e6e",
"+-6lt,6it2e2fzfi6tf6lfii6i,iz66t626te6tfffef2ltetie6eittielzieet",
"@*tttl2e62ttzeettifz26itf,t66f22let2l,2t6itl222f2f6e,ftft6itl6fi",
"+*teif6l2iei2f2i6i2f22t2leelitif6fi6iiffieif666i6tiitlileteliltt",
"+=etefzt6tzif2l6i6ftieiiettf6il6,i26efee222ezfe6i6il6ilft,ziit,i",
"+-,,eii2i2teiti66tet6ftle2fe6t26tet6lttieeii2tilfef2ttietf26i2tz",
"o$6ft666e2teet2e66lti,eti6iettiefi2lt6ff6t62i2ftl2f6t6iff6ieeetf",
"o*62fittte6fitl2zftliftiet2leti22f2fiiite62t6itft6t2ei6tii6eeztt",
"+:6t66tte2ee6if6lt2i,etie2left2ii6tt6222,6te6,22,666ie,t6,iit266",
"+*iit6ififi62eei,66ifttlt6e6te2t2fttfftietlt6tzit2feeiittee2lfe6",
"+-6tftil2fe66t6fl2i2z6eittitt,e6e2,2efltl6t66eiiief6tlltl6ef2fte",
"+$tif6t2te62266tieieliiii6e,ftliiit,26t2ef,ttetiilie2tt6llti2t2t",
"@$ttet6ifeti,e6i6etttlitf6e66itfeiii,e2zif66ii6i26e6f,ei2l66fi6t",
"o*6i6tlte26f,iileftiti2,2fi66i62tii6te2fiet6iit2fi66,f6ifit,t6e6",
"+*ii6eitiztlfe6t6eifzlt6ef6tt2,2tt6felt6e22eltleffteitiztf2e6t66",
"+*6et2teti6iiifteetiteetfiii6iettf,ttiefi6tfi2fz62fe2tt,6ittilii",
"+*6efli6t6tftft2e2li6t2tizi6t2t2eiftiei6tflt2ti6t2lt2ltflt26t2lt",
"+=626eftii2ei22i6ttefett62flf,f66iz,2,lii2t6ete2ettzi6l6ittt6i66",
"+=,6tei2tit,ti2tef62elttllilie6i,le6z6tt2fiiii266i2titi,66,2t2if",
"o$62lfe662ttfi6tetii2tzt626iiftt,elt66te6t6lteeittfiilfftet2i2te",
"+$e6e62iti26tlit,ti2tfieeet,6i62i226tfiteezt2z2itttift2itttifeit",
"+*ef,fiiteft6etiiiteft2eif2iitefzifeetelitftileel62t6tlezttt6it6",
"+$6tt6,2itit6tte,iti22eteifftfitift22i6e6,ii6eei6li662ee6ti>ll6t",
"+*tttttii2i6iitieeii66teieiet66i2teit2i6i6i2tt6li,f26fe6effiieei",
"o$2f26tfifeiii6,>t2tett622eittie66t2i,ftlltf,iie66e,ttifii2e6f6t",
"+$26iieieitlft6fite662f22f266zti2lti6tili6ie2tfiefite662i2,iiif2",
"@=2i2iei2it6tiitftiitei262,lti,t2ztte2ttitl,22itltttei6ez6iette6",
"+$tf6titit2f,f26626i6liitffetletiitit26tit2itttit66ilftt6z6iietl",
"+-6i6t2iieet6eittlf6if626ttieetztf,6ttitt2i2ttfttf2iteileittlfe2",
"+-efftt262ttti6ie666t2ttllz2e2ii26i6222ftftezti6itetift6i2feil2i",
"@$tiiiti2letttz6fie2tfli26e666fitliti6tf6lel662izft2e26ltttttefi",
"+*f6teefztei6l2eelif6,le6iffi6tlif62eeeie62ettfte6i2ieiitf6fiff2",
"+*tetii62teii6feeit2il6te,tii62elteit2iff62e6zlteit,titiifi2,fif",
"+*f2622ftetitttfi26iii6ii6itt2tti62fef22e66tiiil2i2teeieleitt2el",
"+*662flt2t2tliteellleti6eiliefitt6l66etifeititfftteeeeti2ei6t6iz",
"+=f2ft2ettelifzee6ilttteft2ffitftiite2et,itftiffitfettt6i6eezfi6",
"@=t2tii662ee26iet6tt2lfttltzif2eefeliit22tii6e6ttfel,ieiiltziiti",
"+$6itfft6tlfelef2tet6lteieei,2tt6fli2teiet62622teitt6fe66i,fi6tt",
"+-eli6ltit66zil2iilief6eilfi6eielltitl6ei6i2ift6i26z2it,ftli66tl",
"+$e66ie6,e2t6t6tiet26et,22f2222ite62ie2,6i6iltietifettii,iiitz62",
"X$f,2iffi6ee6tiit2f2tflli6zefztefttt6ttt6ttt6ttefeeei6e6iff2tiit",
".#iief6i6i62l6tt2izz26iitititii62te2itt662626i6fe6t,2ftt6ef6i6il",
"+=2ei2tt6ii6tti6f6itt2iifit2eetf,ieffe62ei22tttf,i62ifitft6e2iil",
"+=ftiliteeeet26ie2itettifeiefittztifeiefitttt2feitfitttifft2tfii",
"+$f6iezefi6ti22itft26666ie26eee6iei6eee6iti2l66izftiiiieftif6lfi",
"+-,eeit,t26fetliitiit22tiieitlt6ifilzli,t2fiffiffiiftitle6ii26lf",
"+$feet2i2iizeii2iftt6ief62iet,titt66teiet66it2iitt6felt6li2lft66"
};
