/* XPM */
static char *magick[] = {
/* columns rows colors chars-per-pixel */
"64 64 21 1",
"  c Gray0",
". c #000019",
"X c #000021",
"o c #000031",
"O c #00004a",
"+ c #000084",
"@ c #000094",
"# c #00009c",
"$ c #0000a5",
"% c #0000ad",
"& c #0000b5",
"* c #0000bd",
"= c #0000c5",
"- c #0000ce",
"; c #0000d6",
": c #0000de",
"> c #0000e6",
", c #0000ef",
"< c Blue",
"1 c Magenta",
"2 c None",
/* pixels */
"2222222222222222222222222222222222222222222222222222222222222222",
"2222222222222222222222222222222222222222222222222222222222222222",
"2222222222222222222222222222222222222222222222222222222222222222",
"2222222222222222222222222222222222222222222222222222222222222222",
"2222222222222222222222222222222222222222222222222222222222222222",
"2222222222222222222222222222222222222222222222222222222222222222",
"2222222222222222222222222222222222222222222222222222222222222222",
"2222222222222222222222222222222222222222222222222222222222222222",
"2222222222222222222222222222222222222222222222222222222222222222",
"2222222222222222222222222222222222222222222222222222222222222222",
"22222222222222222  222222222222222222222222222222222222222  2222",
"22222222222222222  222222222222222222222222222222222222222  2222",
"22222222222222222  222222222222222222222222222222222222222  2222",
"22222222222222222  222222222222222222222222222222222222222  2222",
"2222222222      2  2    222  2    22    2222     2222       2222",
"222222222  2222 2   222  22   222   222  22  222  22  2222  2222",
"22222222  2222222  2222  22  2222  2222  2  22222    22222  2222",
"22222222  2222222  2222  22  2222  2222  2  22222    22222  2222",
"22222222  2222222  2222  22  2222  2222  2  22222    22222  2222",
"22222222  2222222  2222  22  2222  2222  2  22222    22222  2222",
"22222222  2222222  2222  22  2222  2222  2  22222    22222  2222",
"222222222  222  2  2222  22  2222  2222  22  222  22  222   2222",
"2222222222     22  2222  22  2222  2222  222     2222    2  2222",
"2222222222222222222222222222222222222222222222222222222222222222",
"2222222222222222222222222222222222222222222222222222222222222222",
"2222222222222222222222222222222222222222222222222222222222222222",
"2222222222222222222222222222222222222222222222222222222222222222",
"2222222222222222222222222222222222222222222222222222222222222222",
"2222222222222222222222222222222222222222222222222222222222222222",
"2222222222222222222222222222222222222222222222222222222222222222",
"2222222222222222222222222222222222222222222222222222222222222222",
"2222222222222222222222222222222222222222222222222222222222222222",
"    .XoOOOOOOOOOOOOOOOOOOOOOOOOOOOOOOOOOOOOOOOOOOOOOOOOOOOOOOOOO",
" +@$&=;>>>>>>>>>>>>>>>>>>>>>>>>>>>>>>>>>>>>>>>>>>>>>>>>>>>>>>>>>",
" #%*-:,<<<<<<<<<<<<<<<<<<<<<<<<<<<<<<<<<<<<<<<<<<<<<<<<<<<<<<<<<",
" #%*-:,<<<<<<<<<<<<<<<<<<<<<<<<<<<<<<<<<<<<<<<<<<<<<<<<<<<<<<<<<",
" #%*-:,<<<<<<<<<<<<<<<<<<<<<<<<<<<<<<<<<<<<<<<<<<<<<<<<<<<<<<<<<",
" #%*-:,<<<<<<<<<<<<<<<<<<<<<<<<<<<<<<<<<<<<<<<<<<<<<<<<<<<<<<<<<",
" #%*-:,<<<<<<<<<<<<<<<<<<<<<<<<<<<<<<<<<<<<<<<<<<<<<<<<<<<<<<<<<",
" #%*-:,<<<<<<<<<<<<<<<<<<<<<<<<<<<<<<<<<<<<<<<<<<<<<<<<<<<<<<<<<",
" #%*-:,<<<<<<<<<<<<<<<<<<<<<<<<  <<<<<<<<    <<<<<<<<<  <<<<<<<<",
" #%*-:,<<<<<<<<<<<<<<<<<<<<  <<  <<<<<<<  <<<<<<<<<<<<  <<<<<<<<",
" #%*-:,<<<<<<<<<<<<<<<<<<<<  <<  <<<<<<<  <<<<<<<<<<<<  <<<<<<<<",
" #%*-:,<<<<<<<<<<<<<<<<<<<<<<<<  <<<<<<<  <<<<<<<<<<<<  <<<<<<<<",
" #%*-:,<<<     <<<  <<<<  <  <<  <<<<<<     <<     <<<  <<<     ",
" #%*-:,<<  <<<  <<<  <<  <<  <<  <<<<<<<  <<<  <<<  <<  <<  <<<<",
" #%*-:,<  <<<<<  <<  <<  <<  <<  <<<<<<<  <<  <<<<<  <  <  <<<<<",
" #%*-:,<  <<<<<  <<  <<  <<  <<  <<<<<<<  <<  <<<<<  <  <  <<<<<",
" #%*-:,<         <<< << <<<  <<  <<<<<<<  <<  <<<<<  <  <  <<<<<",
" #%*-:,<  <<<<<<<<<<    <<<  <<  <<<<<<<  <<  <<<<<  <  <  <<<<<",
" #%*-:,<  <<<<<<<<<<    <<<  <<  <<<<<<<  <<  <<<<<  <  <  <<<<<",
" #%*-:,<<  <<<<< <<<<  <<<<  <<  <<<<<<<  <<<  <<<  <<  <<  <<< ",
" #%*-:,<<<<      <<<<  <<<<  <<  <<<<<<<  <<<<     <<<  <<<    <",
" #%*-:,<<<<<<<<<<<<<<<<<<<<<<<<<<<<<<<<<<<<<<<<<<<<<<<<<<<<<<<<<",
" #%*-:,<<<<<<<<<<<<<<<<<<<<<<<<<<<<<<<<<<<<<<<<<<<<<<<<<<<<<<<<<",
" #%*-:,<<<<<<<<<<<<<<<<<<<<<<<<<<<<<<<<<<<<<<<<<<<<<<<<<<<<<<<<<",
" #%*-:,<<<<<<<<<<<<<<<<<<<<<<<<<<<<<<<<<<<<<<<<<<<<<<<<<<<<<<<<<",
" #%*-:,<<<<<<<<<<<<<<<<<<<<<<<<<<<<<<<<<<<<<<<<<<<<<<<<<<<<<<<<<",
" #%*-:,<<<<<<<<<<<<<<<<<<<<<<<<<<<<<<<<<<<<<<<<<<<<<<<<<<<<<<<<<",
" #%*-:,<<<<<<<<<<<<<<<<<<<<<<<<<<<<<<<<<<<<<<<<<<<<<<<<<<<<<<<<<",
" #%*-:,<<<<<<<<<<<<<<<<<<<<<<<<<<<<<<<<<<<<<<<<<<<<<<<<<<<<<<<<<",
" #%*-:,<<<<<<<<<<<<<<<<<<<<<<<<<<<<<<<<<<<<<<<<<<<<<<<<<<<<<<<<<",
" +@$&=;>>>>>>>>>>>>>>>>>>>>>>>>>>>>>>>>>>>>>>>>>>>>>>>>>>>>>>>>>",
"    .XoOOOOOOOOOOOOOOOOOOOOOOOOOOOOOOOOOOOOOOOOOOOOOOOOOOOOOOOOO"
};
