/* XPM */
static char *magick[] = {
/* columns rows colors chars-per-pixel */
"64 64 3 1",
"  c Gray0",
". c Magenta",
"X c None",
/* pixels */
"XXXXXXXXXXXXXXXXXXXXXXXXXXXXXXXXXXXXXXXXXXXXXXXXXXXXXXXXXXXXXXXX",
"XXXXXXXXXXXXXXXXXXXXXXXXXXXXXXXXXXXXXXXXXXXXXXXXXXXXXXXXXXXXXXXX",
"XXXXXXXXXXXXXXXXXXXXXXXXXXXXXXXXXXXXXXXXXXXXXXXXXXXXXXXXXXXXXXXX",
"XXXXXXXXXXXXXXXXXXXXXXXXXXXXXXXXXXXXXXXXXXXXXXXXXXXXXXXXXXXXXXXX",
"XXXXXXXXXXXXXXXXXXXXXXXXXXXXXXXXXXXXXXXXXXXXXXXXXXXXXXXXXXXXXXXX",
"XXXXXXXXXXXXXXXXXXXXXXXXXXXXXXXXXXXXXXXXXXXXXXXXXXXXXXXXXXXXXXXX",
"XXXXXXXXXXXXXXXXXXXXXXXXXXXXXXXXXXXXXXXXXXXXXXXXXXXXXXXXXXXXXXXX",
"XXXXXXXXXXXXXXXXXXXXXXXXXXXXXXXXXXXXXXXXXXXXXXXXXXXXXXXXXXXXXXXX",
"XXXXXXXXXXXXXXXXXXX XXXXXXXXXXXXXXXXXXXXXXXXXXXXXXXXXXXXXXXXXXXX",
"XXXXXXXXXXXXXXXX XX XX XXXXXXXXXXXXXXX      XXXXXXXXXXXXXXXXXXXX",
"XXXXXXXXXXXXXXXXX X X XXXXXXXXXXXXXXXX  XXX   XXXXXXXXXXXXXXXXXX",
"XXXXXXXXXXXXXXXXXX   XXXXXXXXXXXXXXXXX  XXXX  XXXXXXXXXXXXXXXXXX",
" XX    XXXXXXXXXXX   XXXXXXXXXXXXXXXXX  XXXX  XXXXXXXXXXXXXXXXXX",
"   XXX  XXXXXXXXX X X XXXXXXXXXXXXXXXX  XXXX  XXXXXXXXXXXXXXXXXX",
"  XXXX  XXXXXXXX XX XX XXXXXXXXXXXXXXX  XXX  XXXXXXXXXXXXXXXXXXX",
"  XXXX  XXXXXXXXXXX XXXXXXXXXX     XXX      XXXXXXXXXXXXXXXXXXXX",
"  XXXX  XXXXXXXXXXXXXXXXXXXXXXXXXXXXXX  XX  XXXXXXXXXXXXXXXXXXXX",
"  XXXX  XXXXXXXXXXXXXXXXXXXXXXXXXXXXXX  XXX  XXXXXXXXXXXXXXXXXXX",
"  XXXX  XXXXXXXXXXXXXXXXXXXXXXXXXXXXXX  XXXX  XXXXXXXXXXXXXXXXXX",
"  XXXX  XXXXXXXXXXXXXXXXXXXXXXXXXXXXXX  XXXXX  XXXXXXXXXXXXXXXXX",
"  XXXX  XXXXXXXXXXXXXXXXXXXXXXXXXXXXXX  XXXXX   XXXXXXXXXXXXXXXX",
"XXXXXXXXXXXXXXXXXXXXXXXXXXXXXXXXXXXXXXXXXXXXXXXXXXXXXXXXXXXXXXXX",
"XXXXXXXXXXXXXXXXXXXXXXXXXXXXXXXXXXXXXXXXXXXXXXXXXXXXXXXXXXXXXXXX",
"XXXXXXXXXXXXXXXXXXXXXXXXXXXXXXXXXXXXXXXXXXXXXXXXXXXXXXXXXXXXXXXX",
"XXXXXXXXXXXXXXXXXXXXXXXXXXXXXXXXXXXXXXXXXXXXXXXXXXXXXXXXXXXXXXXX",
"XXXXXXXXXXXXXXXXXXXXXXXXXXXXXXXXXXXXXXXXXXXXXXXXXXXXXXXXXXXXXXXX",
"XXXXXXXXXXXXXXXXXXXXXXXXXXXXXXXXXXXXXXXXXXXXXXXXXXXXXXXXXXXXXXXX",
"XXXXXXXXXXXXXXXXXXXXXXXXXXXXXXXXXXXXXXXXXXXXXXXXXXXXXXXXXXXXXXXX",
"XXXXXXXXXXXXXXXXXXXXXXXXXXXXXXXXXXXXXXXXXXXXXXXXXXXXXXXXXXXXXXXX",
"XXXXXXXXXXXXXXXXXXXXXXXXXXXXXXXXXXXXXXXXXXXXXXXXXXXXXXXXXXXXXXXX",
"XXXXXXXXXXXXXXXXXXXXXXXXXXXXXXXXXXXXXXXXXXXXXXXXXXXXXXXXXXXXXXXX",
"XXXXXXXXXXXXXXXXXXXXXXXXXXXXXXXXXXXXXXXXXXXXXXXXXXXXXXXXXXXXXXXX",
"XXXXXXXXXXXXXXXXXXXXXXXXXXXXXXXXXXXXXXXXXXXXXXXXXXXXXXXXXXXXXXXX",
"XXXXXXXXXXXXXXXXXXXXXXXXXXXXXXXXXXXXXXXXXXXXXXXXXXXXXXXXXXXXXXXX",
"XXXXXXXXXXXXXXXXXXXXXXXXXXXXXXXXXXXXXXXXXXXXXXXXXXXXXXXXXXXXXXXX",
"XXXXXXXXXXXXXXXXXXXXXXXXXXXXXXXXXXXXXXXXXXXXXXXXXXXXXXXXXXXXXXXX",
"XXXXXXXXXXXXXXXXXXXXXXXXXXXXXXXXXXXXXXXXXXXXXXXXXXXXXXXXXXXXXXXX",
"XXXXXXXXXXXXXXXXXXXXXXXXXXXXXXXXXXXXXXXXXXXXXXXXXXXXXXXXXXXXXXXX",
"XXXXXXXXXXXXXXXXXXXXXXXXXXXXXXXXXXXXXXXXXXXXXXXXXXXXXXXXXXXXXXXX",
"XXXXXXXXXXXXXXXXXXXXXXXXXXXXXXXXXXXXXXXXXXXXXXXXXXXXXXXXXXXXXXXX",
"X  XXXXXXXXXXXXX  XXX  XXXXXXXXXXXXXXXXXXXXXXXXXXXXXXXXXXXXXXXXX",
"X  XXXXXXXX  XXX  XXX  XXXXXXXXXXXXXXXXXXX     XXXXXXXXXXXXXXXXX",
"X  XXXXXXXX  XXX  XXX  XXXXXXXXXXXXXXXXXX  XXX  XXXXXXXXXXXXXXXX",
"X  XXXXXXXXXXXXX  XXX  XXXXXXXXXXXXXXXXX  XXXXX  XXXXXXXXXXXXXXX",
"X  XXXX  XX  XXX  XXX  XXXXXXXXXXXXXXXXX  XXXXX  XXXXXXXXXXXXXXX",
"X  XXX  XXX  XXX  XXX  XXXXXXXXXXXXXXXXX  XXXXX  XXXXXXXXXXXXXXX",
"X  XX  XXXX  XXX  XXX  XXXXXXXXXXXXXXXXX  XXXXX  XXXXXXXXXXXXXXX",
"X  X  XXXXX  XXX  XXX  XXXXXXXXX     XXXX  XXX   XXXXXXXXXXXXXXX",
"X     XXXXX  XXX  XXX  XXXXXXXXXXXXXXXXXXX    X  XXXXXXXXXXXXXXX",
"X      XXXX  XXX  XXX  XXXXXXXXXXXXXXXXXXXXXXXX XXXXXXXXXXXXXXXX",
"X  XX   XXX  XXX  XXX  XXXXXXXXXXXXXXXXXXXXXXX  XXXXXXXXXXXXXXXX",
"X  XXX   XX  XXX  XXX  XXXXXXXXXXXXXXXXXXXXXX  XXXXXXXXXXXXXXXXX",
"X  XXXX   X  XXX  XXX  XXXXXXXXXXXXXXXXXX    XXXXXXXXXXXXXXXXXXX",
"XXXXXXXXXXXXXXXXXXXXXXXXXXXXXXXXXXXXXXXXXXXXXXXXXXXXXXXXXXXXXXXX",
"XXXXXXXXXXXXXXXXXXXXXXXXXXXXXXXXXXXXXXXXXXXXXXXXXXXXXXXXXXXXXXXX",
"XXXXXXXXXXXXXXXXXXXXXXXXXXXXXXXXXXXXXXXXXXXXXXXXXXXXXXXXXXXXXXXX",
"XXXXXXXXXXXXXXXXXXXXXXXXXXXXXXXXXXXXXXXXXXXXXXXXXXXXXXXXXXXXXXXX",
"XXXXXXXXXXXXXXXXXXXXXXXXXXXXXXXXXXXXXXXXXXXXXXXXXXXXXXXXXXXXXXXX",
"XXXXXXXXXXXXXXXXXXXXXXXXXXXXXXXXXXXXXXXXXXXXXXXXXXXXXXXXXXXXXXXX",
"XXXXXXXXXXXXXXXXXXXXXXXXXXXXXXXXXXXXXXXXXXXXXXXXXXXXXXXXXXXXXXXX",
"XXXXXXXXXXXXXXXXXXXXXXXXXXXXXXXXXXXXXXXXXXXXXXXXXXXXXXXXXXXXXXXX",
"XXXXXXXXXXXXXXXXXXXXXXXXXXXXXXXXXXXXXXXXXXXXXXXXXXXXXXXXXXXXXXXX",
"XXXXXXXXXXXXXXXXXXXXXXXXXXXXXXXXXXXXXXXXXXXXXXXXXXXXXXXXXXXXXXXX",
"XXXXXXXXXXXXXXXXXXXXXXXXXXXXXXXXXXXXXXXXXXXXXXXXXXXXXXXXXXXXXXXX"
};
