/* XPM */
static char *magick[] = {
/* columns rows colors chars-per-pixel */
"64 64 14 1",
"  c Gray0",
". c #000019",
"X c #000021",
"o c #000042",
"O c #00004a",
"+ c #000063",
"@ c #00006b",
"# c #000084",
"$ c #00008c",
"% c #0000a5",
"& c #0000e6",
"* c Blue",
"= c Magenta",
"- c None",
/* pixels */
"OOOOOOOOOOOOOOOOOOOOOOOOOOOOOOOOOOOOOOOOOOOOOOOOOOOOOOOOOO      ",
"&&&&&&&&&&&&&&&&&&&&&&&&&&&&&&&&&&&&&&&&&&&&&&&&&&&&&&&&&&$@OX  ",
"**********************************************************%#+o. ",
"**********************************************************%#+o. ",
"**********************************************************%#+o. ",
"**********************************************************%#+o. ",
"**********************************************************%#+o. ",
"**********************************************************%#+o. ",
"**********************************************************%#+o. ",
"***********************************  *********************%#+o. ",
"***********************************  *********************%#+o. ",
"***********************************  *********************%#+o. ",
" **    ***     **  ****  *  *    *       ** **************%#+o. ",
"   ***  *  ***  *  ****  *   ***  *  ******   ************%#+o. ",
"  ****    *****    ****  *  ****  *  ******     **********%#+o. ",
"  ****    *****    ****  *  ****  *  ******       ********%#+o. ",
"  ****    *****    ****  *  ****  *  ******        *******%#+o. ",
"  ****    *****    ****  *  ****  *  ******       ********%#+o. ",
"  ****    *****    ****  *  ****  *  ******      *********%#+o. ",
"  ****  *  ***  *  ***   *  ****  *  ******    ***********%#+o. ",
"  ****  **     ***    *  *  ****  **     **  *************%#+o. ",
"**********************************************************%#+o. ",
"**********************************************************%#+o. ",
"**********************************************************%#+o. ",
"**********************************************************%#+o. ",
"**********************************************************%#+o. ",
"**********************************************************%#+o. ",
"**********************************************************%#+o. ",
"**********************************************************%#+o. ",
"**********************************************************%#+o. ",
"&&&&&&&&&&&&&&&&&&&&&&&&&&&&&&&&&&&&&&&&&&&&&&&&&&&&&&&&&&$@OX  ",
"OOOOOOOOOOOOOOOOOOOOOOOOOOOOOOOOOOOOOOOOOOOOOOOOOOOOOOOOOO      ",
"----------------------------------------------------------------",
"----------------------------------------------------------------",
"----------------------------------------------------------------",
"----------------------------------------------------------------",
"----------------------------------------------------------------",
"----------------------------------------------------------------",
"----------------------------------------------------------------",
"----------------------------------------------------------------",
"----------------------------------------------------------------",
"----------------------------------------------------------------",
"----------------------------------------------------------------",
"-  -------------------------------------------------------------",
"-  -------------------------------------------------------------",
"-  -------------------------------------------------------------",
"            --  -        -------     --   --   -     -----------",
"-  --- ----  -   --  ---  -----  ---  --  --  -  ---  ----------",
"-  --------  -  --  -----  ---  -----  --    -  -----  ---------",
"-  ----      -  --  -----  ---  -----  --   --  -----  ---------",
"-  ---  ---  -  --         ---         ---  --         ---------",
"-  --  ----  -  --  ----------  ---------    -  ----------------",
"-  --  ----  -  --  ----------  ---------    -  ----------------",
"-  --  ---   -  ---  ----- -  -  ----- -  --  -  ----- ---------",
"--        -  -  -----      -  ---         --   --      ---------",
"----------------------------------------------------------------",
"----------------------------------------------------------------",
"----------------------------------------------------------------",
"----------------------------------------------------------------",
"----------------------------------------------------------------",
"----------------------------------------------------------------",
"----------------------------------------------------------------",
"----------------------------------------------------------------",
"----------------------------------------------------------------"
};
