/* XPM */
static char *magick[] = {
/* columns rows colors chars-per-pixel */
"64 64 62 1",
"  c #030003",
". c #2a002a",
"X c #454542",
"o c #4e4c41",
"O c #504e43",
"+ c #525145",
"@ c #555447",
"# c #59574b",
"$ c #5d564f",
"% c #5a5a5a",
"& c #605c51",
"* c #6a625a",
"= c #6c645b",
"- c #6e655d",
"; c #70685f",
": c Gray39",
"> c #726961",
", c #756c63",
"< c #786f65",
"1 c #757363",
"2 c #797665",
"3 c #7b7867",
"4 c #7d7b69",
"5 c #7c7c7c",
"6 c #2622e2",
"7 c #2623e3",
"8 c #2723e5",
"9 c #2b28f0",
"0 c #3e38ff",
"q c #3e39ff",
"w c #433dff",
"e c #4842ff",
"r c #817e6c",
"t c #827f6d",
"y c Magenta",
"u c #83806e",
"i c #84816f",
"p c #868370",
"a c #888572",
"s c #898673",
"d c #8d8a76",
"f c #8f8c78",
"g c #918e7a",
"h c #95897e",
"j c #93907b",
"k c #95927d",
"l c #97947f",
"z c Gray54",
"x c #999681",
"c c #9c9983",
"v c #9e9a84",
"b c #939393",
"n c #a09d86",
"m c #a29f88",
"M c #a5a28a",
"N c #b2ae96",
"B c #b6b299",
"V c #b7b49a",
"C c #b9b59b",
"Z c Gray64",
"A c #bcbcbc",
"S c None",
/* pixels */
"SSSSSSSSSSSSSSSSSSSSSSSSSSSSSSSSSSSSSSSSSSSSSSSSSSSSSSSSSSSSSSSS",
"SSSSSSSSSSSSSSSSSSSSSSSSSSSSSSSSSSSSSSSSSSSSSSSSSSSSSSSSSSSSSSSS",
"SSSSSSSSSSSSSSSSSSSSSSSSSSSSSSSSSSSSSSSSSSSSSSSSSSSSSSSSSSSSSSSS",
"SSSSSSSSSSSSSSSSSSSSSSSSSSSSSSSSSSSSSSSSSSSSSSSSSSSSSSSSSSSSSSSS",
"SSSSSSSSSSSSSSSSSSSSSSSSSSSSSSSSSSSSSSSSSSSSSSSSSSSSSSSSSSSSSSSS",
"SSSSSSSSSSSSSSSSSSSSSSSSSSSSSSSSSSSSSSSSSSSSSSSSSSSSSSSSSSSSSSSS",
"SSSSSSSSSSSSSSSSSSSSSSSSSSSSSSSSSSSSSSSSSSSSSSSSSSSSSSSSSSSSSSSS",
"SSSSSSSSSSSSSSSSSSSSSSSSSSSSSSSSSSSSSSSSSSSSSSSSSSSSSSSSSSSSSSSS",
"SSSSSSSSSSSSSSSSSSSSSSSSSSSSSSSSSSSSSSSSSSSSSSSSSSSSSSSSSSSSSSSS",
"SSSSSSSSSSSSSSSSSSSSSSSSSSSSSSSSSSSSSSSSSSSSSSSSSSSSSSSSSSSSSSSS",
"SSSSSSSSSSSSSSSSSSSSSSSSSSSSSSSSSSSSSSSSSSSSSSSSSSSSSSSSSSSSSSSS",
"SSSSSSSSSSSSSSSSSSSSSSSSSSSSSSSSSSSSSSSSSSSSSSSSSSSSSSSSSSSSSSSS",
"SSSSSSSSSSSSSSSSSSSSSSSSSSSSSSSSSSSSSSSSSSSSSSSSSSSSSSSSSSSSSSSS",
"SSSSSSSSSSSSSSSSSSSSSSSSSSSSSSSSSSSSSSSSSSSSSSSSSSSSSSSSSSSSSSSS",
"SSSSSSSSSSSSSSSSSSSSSSSSSSSSSSSSSSSSSSSSSSSSSSSSSSSSSSSSSSSSSSSS",
"SSSSSSSSSSSSSSSSSSSSSSSSSSSSSSSSSSSSSSSSSSSSSSSSSSSSSSSSSSSSSSSS",
"SSSSSSSSSSSSSSSSSSSSSSSSSSSSSSSSSSSSSSSSSSSSSSSSSSSSSSSSSSSSSSSS",
"SSSSSSSSSSSSSSSSSSSSSSSSSSSSSOOOSSSSSSSSSSSSSSSSSSSSSSSSSSSSSSSS",
"SSSSSSSSSSSSSSSSSSSSSSSSSSSSAzb%OSSSSSSSSSSSSSSSSSSSSSSSSSSSSSSS",
"SSSSSSSSSSSSSSSSSSSSSSSSSSSSZz5%oSSSSSSSSSSSSSSSSSSSSSSSSSSSSSSS",
"SSSSSSSSSSSSSSSSSSSSSSSSSSSSA:bXOSSSSSSSSSSSSSSSSSSSSSSSSSSSSSSS",
"SSSSSSSSSSSSSSSSSSSSSSSSSSSSSOOOSSSSSSSSSSSSSSSSSSSSSSSSSSSSSSSS",
"SSSSSSSSSSSSSSSSSSSSSSSSSSSSSoZ5SSSSSSSSSSSSSSSSSSSSSSSSSSSSSSSS",
"SSSSSSSSSSSSSSSSSSSSSSSSSSSSSob:SSSSSSSSSSSSSSSSSSSSSSSSSSSSSSSS",
"SSSSSSSSSSSSSSSSSSSS,SSSSSSSSob:SSSSSSSSSSSSSSSSSSSSSSSSSSSSSSSS",
"SSSSSSSSSSSSSSvvc+<<<,,,SSSo.ob: oOSSSS****ciuurrSSSSSSSSSSSSSSS",
"SSSSSSSSSSSSSnvvcxxl<,,,,>O.ooz:O  OO==***iiiiurrrrSSSSSSSSSSSSS",
"SSSSSSSSSSSSmnvvccxxl,,,,>>>OOb:SOO ===**piiiiurrrrrrSSSSSSSSSSS",
"SSSSSSSSSSMmmnnvvcxxlkkjj,>>>;&+SS-====pppiiiiurrrrrrrrSSSSSSSSS",
"SSSSSSSSSMMmmnnvvcxxlkkjjgg>>;;;---==mspppiiiiurrrrrr@@SSSSSSSSS",
"SSSSSSSSsMMmmnnvvcxxlkkjjggf>;$;---=ssspppiiiiurrrrrr#@SSSSSSSSS",
"SSSSSSSSdsMmmnnvvcxxlkkjjggff1$h---sssspppiiiiurrrr##@@SSSSSSSSS",
"SSSSSSSSddssssvvccxllkkjjggf11$==hCsssspppiiiiurr##97@@SSSSSSSSS",
"SSSSSSSSdd009ssscxxllkkjjg1111$===CVVsspppiiiiur#9777@@SSSSSSSSS",
"SSSSSSSSss0000sssxxllkjjg11111$===CVVBBpppiiiu###7777@@SSSSSSSSS",
"SSSSSSSSss00000essspkkjj111111$---sCVVBBppiiiu#977777@@SSSSSSSSS",
"SSSSSSSSss0000000009pp11112222$---sCCCVBBBN##97777777@@SSSSSSSSS",
"SSSSSSSSss00000000000s11222222&--;ssCCVBBBN+w77777777@@SSSSSSSSS",
"SSSSSSSSss00000000000s22222222&;;;dddCCVBBN+w77777777@@SSSSSSSSS",
"SSSSSSSSss00000000000s22333333&;;;dddddCVVB+w77777777@@SSSSSSSSS",
"SSSSSSSSss00000000000s23333333&;>>fffffCCVB+w87777777@@SSSSSSSSS",
"SSSSSSSSss00000000000s33344444&>>>fffffCCCV+w88877777@@SSSSSSSSS",
"SSSSSSSSss00000000000s34444444&>>>fggggfCCV+w88887777@@SSSSSSSSS",
"SSSSSSSSss00000000000s44rrrrrrSSS,jjjjjjjgC+w8888887&OOSSSSSSSSS",
"SSSSSSSSss&0000000000srrrrrrrrSSSSjjjjjjjjC@e888888OOSSSSSSSSSSS",
"SSSSSSSSSsss&00000000srrrrrrrrSSSSjkkkkkjjC@e8888&OOOSSSSSSSSSSS",
"SSSSSSSSSSSSssss&0000suuiiiiSSSSSSklllllllk@e88&OOSSSSSSSSSSSSSS",
"SSSSSSSSSSSSSSsss&000siiiiiiSSSSSSSllllllll@e8OOOSSSSSSSSSSSSSSS",
"SSSSSSSSSSSSSSSSsssN&sppppSSSSSSSSSSSxxxxxx@e&OOSSSSSSSSSSSSSSSS",
"SSSSSSSSSSSSSSSSSsssssppsSSSSSSSSSSSSSScccx@++SSSSSSSSSSSSSSSSSS",
"SSSSSSSSSSSSSSSSSSSSSsssSSSSSSSSSSSSSSSSSSv+SSSSSSSSSSSSSSSSSSSS",
"SSSSSSSSSSSSSSSSSSSSSSSSSSSSSSSSSSSSSSSSSSSSSSSSSSSSSSSSSSSSSSSS",
"SSSSSSSSSSSSSSSSSSSSSSSSSSSSSSSSSSSSSSSSSSSSSSSSSSSSSSSSSSSSSSSS",
"SSSSSSSSSSSSSSSSSSSSSSSSSSSSSSSSSSSSSSSSSSSSSSSSSSSSSSSSSSSSSSSS",
"SSSSSSSSSSSSSSSSSSSSSSSSSSSSSSSSSSSSSSSSSSSSSSSSSSSSSSSSSSSSSSSS",
"SSSSSSSSSSSSSSSSSSSSSSSSSSSSSSSSSSSSSSSSSSSSSSSSSSSSSSSSSSSSSSSS",
"SSSSSSSSSSSSSSSSSSSSSSSSSSSSSSSSSSSSSSSSSSSSSSSSSSSSSSSSSSSSSSSS",
"SSSSSSSSSSSSSSSSSSSSSSSSSSSSSSSSSSSSSSSSSSSSSSSSSSSSSSSSSSSSSSSS",
"SSSSSSSSSSSSSSSSSSSSSSSSSSSSSSSSSSSSSSSSSSSSSSSSSSSSSSSSSSSSSSSS",
"SSSSSSSSSSSSSSSSSSSSSSSSSSSSSSSSSSSSSSSSSSSSSSSSSSSSSSSSSSSSSSSS",
"SSSSSSSSSSSSSSSSSSSSSSSSSSSSSSSSSSSSSSSSSSSSSSSSSSSSSSSSSSSSSSSS",
"SSSSSSSSSSSSSSSSSSSSSSSSSSSSSSSSSSSSSSSSSSSSSSSSSSSSSSSSSSSSSSSS",
"SSSSSSSSSSSSSSSSSSSSSSSSSSSSSSSSSSSSSSSSSSSSSSSSSSSSSSSSSSSSSSSS",
"SSSSSSSSSSSSSSSSSSSSSSSSSSSSSSSSSSSSSSSSSSSSSSSSSSSSSSSSSSSSSSSS"
};
