/* XPM */
static char *magick[] = {
/* columns rows colors chars-per-pixel */
"64 64 64 1",
"  c #272728",
". c #292931",
"X c #3a293a",
"o c #313131",
"O c #31313e",
"+ c #3a3a3a",
"@ c #22235a",
"# c #352b4a",
"$ c #3a3a42",
"% c #29296b",
"& c #2e3073",
"* c #31317b",
"= c #4a4735",
"- c #5a463e",
"; c #6f4800",
": c #6b5200",
"> c #735200",
", c #7b5200",
"< c #7b5a00",
"1 c Gray26",
"2 c #42424a",
"3 c #4a4242",
"4 c Gray29",
"5 c #484852",
"6 c Gray32",
"7 c #5a5252",
"8 c #5a5a5a",
"9 c Gray39",
"0 c #6b6363",
"q c Gray42",
"w c #736b6b",
"e c Gray45",
"r c #7b7373",
"t c #7b7b7b",
"y c #6b72b6",
"u c #865900",
"i c #8a6500",
"p c #976800",
"a c #a57900",
"s c #af7100",
"d c #b17b00",
"f c #847b7b",
"g c Magenta",
"h c #b28400",
"j c #bd8c00",
"k c #c18000",
"l c #c58c00",
"z c #cf8a00",
"x c #c59400",
"c c #ce9400",
"v c #ce9c00",
"b c #d69400",
"n c #d69c00",
"m c #848484",
"M c #8c8484",
"N c Gray55",
"B c #948c8c",
"V c Gray58",
"C c #9c9494",
"Z c Gray61",
"A c #a59c9c",
"S c #a9a7a7",
"D c #c5c4c4",
"F c None",
/* pixels */
"FFFFFFFFFFFFFFFFFFFFFFFFFF<<FFFFFFFFFFFFFFFFFFFFFFFFFFFFFFFFFFFF",
"FFFFFFFFFFFFFFFFFFFFFFFFF,<<,FFFFFFFFFFFFFFFFFFFFFFFFFFFFFFFFFFF",
"FFFFFFFFFFFFFFFFFFFFFFFFF<,<nFFFFFFFFFFFFFFFFFFFFFFFFFFFFFFFFFFF",
"FFFFFFFFFFFFFFFFFFFFFFFFF<aknnFFFFFFFFFFFFFFFFFFFFFFFFFFFFFFFFFF",
"FFFFFFFFFFFFFFFFFFFFFFFFF;ijvnFFFFFFFFFFFFFFFFFFFFFFFFFFFFFFFFFF",
"FFFFFFFFFFFFFFFFFFFFFFFFFF<sknFFFFFFFFFFFFFFFFFFFFFFFFFFFFFFFFFF",
"FFFFFFFFFFFFFFFFFFFFFFFFFF;ijznFFFFFFFFFFFFFFFFFFFFFFFFFFFFFFFFF",
"FFFFFFFFFFFFFFFFFFFFFFFFFFFuscnFFFFFFFFFFFFFFFFFFFFFFFFFFFFFFFFF",
"FFFFFFFFFFFFFFFFFFFFFFFFFFF>pxznFFFFFFFFFFFFFFFFFFFFFFFFFFFFFFFF",
"FFFFFFFFFFFFFFFFFFFFFFFFFFF:idvnFFFFFFFFFFFFFFFFFFFFFFFFFFFFFFFF",
"FFFFFFFFFFFFFFFFFFFFFFFFFFFF<axnvFFFFFFFFFFFFFFFFFFFFFFFFFFFFFFF",
"FFFFFFFFFFFFFFFFFFFFFFFFFFFF>pjznFFFFFFFFFFFFFFFFFFFFFFFFFFFFFFF",
"FFFFFFFFFFFFFFFFFFFFFFFFFFFFFuhlnFFFFFFFFFFFFFFFFFFFFFFFFFFFFFFF",
"FFFFFFFFFFFFFFFFFFFFFFFFFFFFF;plvzFFFFFFFFFFFFFFFFFFFFFFFFFFFFFF",
"FFFFFFFFFFFFFFFFFFFFFFFFFFFFF:ihkbFFFFFFFFFFFFFFFFFFFFFFFFFFFFFF",
"FFFFFFFFFFFFFFFFFFFFFFFFFFFFFF,axzvFFFFFFFFFFFFFFFFFFFFFFFFFFFFF",
"FFFFFFFFFFFFFFFFFFFFFFFFFFFFFF>idcnFFFFFFFFFFFFFFFFFFFFFFFFFFFFF",
"FFFFFFFFFFFFFFFFFFFFFFFFFFFFFFFuhxnFFFFFFFFFFFFFFFFFFFFFFFFFFFFF",
"FFFFFFFFFFFFFFFFFFFFFFFFFFFFFFF;pkcnFFFFFFFFFFFFFFFFFFFFFFFFFFFF",
"FFFFFFFFFFFFFFFFFFFFFFFFFFFFFFF:ihlnFFFFFFFFFFFFFFFFFFFFFFFFFFFF",
"FFFFFFFFFFFFFFFFFFFFFFFFFFFFFFFF,plccFFFFFFFFFFFFFFFFFFFFFFFFFFF",
"FFFFFFFFFFFFFFFFFFFFFFFFFFFFFFFF>isxnFFFFFFFFFFFFFFFFFFFFFFFFFFF",
"FFFFFFFFFFFFFFFFFFFFFFFFFFFFFFFFF<axvFFFFFFFFFFFFFFFFFFFFFFFFFFF",
"FFFFFFFFFFFFFFFFFFFFFFFFFFFFFFFFF>idxvFFFFFFFFFFFFFFFFFFFFFFFFFF",
"FFFFFFFFFFFFFFFFFFFFFFFFFFFFFFFFFFihkvFFFFFFFFFFFFFFFFFFFFFFFFFF",
"FFFFFFFFFFFFFFFFFFFFFFFFFFFFFFFFFF<pjccFFFFFFFFFFFFFFFFFFFFFFFFF",
"FFFFFFFFFFFFFFFFFFFFFFFFFFFFFFFFFF>udlvFFFFFFFFFFFFFFFFFFFFFFFFF",
"FFFFFFFFFFFFFFFFFFFFFFFFFFFFFFFFFFF<ajzFFFFFFFFFFFFFFFFFFFFFFFFF",
"FFFFFFFFFFFFFFFFFFFFFFFFFFFFFFFFFFF>idxcFFFFFFFFFFFFFFFFFFFFFFFF",
"FFFFFFFFFFFFFFFFFFFFFFFFFFFFFFFFFFFFisjcFFFFFFFFFFFFFFFFFFFFFFFF",
"FFFFFFFFFFFFFFFFFFFFFFFFFFFFFFFFFFFF<pjxxFFFFFFFFFFFFFFFFFFFFFFF",
"FFFFFFFFFFFFFFFFFFFFFFFFFFFFFFFFFFFF>ihlcFFFFFFFFFFFFFFFFFFFFFFF",
"FFFFFFFFFFFFFFFFFFFFFFFFFFFFFFFFFFFFF,pjlFFFFFFFFFFFFFFFFFFFFFFF",
"FFFFFFFFFFFFFFFFFFFFFFFFFFFF88+.1==FF>ihjxFFFFFFFFFFFFFFFFFFFFFF",
"FFFFFFFFFFFFFFFFFFFFFFFFF4o2222$$$$$+ uajlFFFFFFFFFFFFFFFFFFFFFF",
"FFFFFFFFFFFFFFFFFFFFFFFF3222522$$$$$O.9ihjkFFFFFFFFFFFFFFFFFFFFF",
"FFFFFFFFFFFFFFFFFFFFFFF8455552$$$$OOooo9ddkFFFFFFFFFFFFFFFFFFFFF",
"FFFFFFFFFFFFFFFFFFFFFFF6555555@&+2$Ooo.=adljFFFFFFFFFFFFFFFFFFFF",
"FFFFFFFFFFFFFFFFFFFFFFo4554**&&&&%@@$o.=ihjxFFFFFFFFFFFFFFFFFFFF",
"FFFFFFFFFFFFFFFFFFFFFF485****&&&&%@@@o.9<adkF9qrtte0FFFFFFFFFFFF",
"FFFFFFFFFFFFFFFFFFFFFFo48****&yy#%@@@@80>udjletfmNNMtqFFFFFFFFFF",
"FFFFFFFFFFFFFFFFFFFFFFo448yyyyy###--y999:uphkrfMNBVVVMtFFFFFFFFF",
"FFFFFFFFFFFFFFFFFFFFFFF444488oy#X4899999F<psjjmBVVCZZVNtFFFFFFFF",
"FFFFFFFFFFFFFFFFFFFFFFF44444666888888899F>uahlVCCZZZAZVMeFFFFFFF",
"FFFFFFFFFFFFFFFFFFFFFFF44444446668888899Fe<tmCZAAZZAAAZVmeFFFFFF",
"FFFFFFFFFFFFFFFFFFFFFFF44444446668888899F7>;qMCDDSSSSSAVMtFFFFFF",
"FFFFFFFFFFFFFFFFFFFFFFF44444446666888899F7;uaemCSSSDDDSCNtFFFFFF",
"FFFFFFFFFFFFFFFFFFFFFF444444444666888899977<p0fNBCADDDSCNfeFFFFF",
"FFFFFFFFFFFFFFFFFFFFF4444444444666888896967>iqemNBVZAZCBmtrFFFFF",
"FFFFFFFFFFFFFFFFFFFFF44o44444446668888949q690qetmNBVCVVNtteFFFFF",
"FFFFFFFFFFFFFFFFFFFFF44.o4444446668888440q479qwetmMNNNmfteqFFFFF",
"FFFFFFFFFFFFFFFFFFFFF44.o44444466688844qqqF4789qertfftrewqFFFFFF",
"FFFFFFFFFFFFFFFFFFFFF4444oo444466681446qq1FF34889qqqqq999FFFFFFF",
"FFFFFFFFFFFFFFFFFFFFFF461o ooo+++11+q6qq9FFFFF3446787788FFFFFFFF",
"FFFFFFFFFFFFFFFFFFFFFFF4684449o 16686qe8FFFFFFFFF13444FFFFFFFFFF",
"FFFFFFFFFFFFFFFFFFFFFFFF1488944446qqS8FFFFFFFFFFFFFFFFFFFFFFFFFF",
"FFFFFFFFFFFFFFFFFFFFFFFFFFF446688664FFFFFFFFFFFFFFFFFFFFFFFFFFFF",
"FFFFFFFFFFFFFFFFFFFFFFFFFFFFFFFFFFFFFFFFFFFFFFFFFFFFFFFFFFFFFFFF",
"FFFFFFFFFFFFFFFFFFFFFFFFFFFFFFFFFFFFFFFFFFFFFFFFFFFFFFFFFFFFFFFF",
"FFFFFFFFFFFFFFFFFFFFFFFFFFFFFFFFFFFFFFFFFFFFFFFFFFFFFFFFFFFFFFFF",
"FFFFFFFFFFFFFFFFFFFFFFFFFFFFFFFFFFFFFFFFFFFFFFFFFFFFFFFFFFFFFFFF",
"FFFFFFFFFFFFFFFFFFFFFFFFFFFFFFFFFFFFFFFFFFFFFFFFFFFFFFFFFFFFFFFF",
"FFFFFFFFFFFFFFFFFFFFFFFFFFFFFFFFFFFFFFFFFFFFFFFFFFFFFFFFFFFFFFFF",
"FFFFFFFFFFFFFFFFFFFFFFFFFFFFFFFFFFFFFFFFFFFFFFFFFFFFFFFFFFFFFFFF"
};
