/* XPM */
static char *magick[] = {
/* columns rows colors chars-per-pixel */
"64 64 65 1",
"  c #640000",
". c #6c0000",
"X c #720000",
"o c #790000",
"O c #4b004b",
"+ c #4c004c",
"@ c #530053",
"# c #5b005b",
"$ c #5e005e",
"% c #610061",
"& c #6b006b",
"* c #740074",
"= c #7d007d",
"- c #555452",
"; c #595756",
": c #595856",
"> c #5d5c5a",
", c #615f5d",
"< c #61605e",
"1 c #696866",
"2 c #6a6866",
"3 c #706e6c",
"4 c #7d7b79",
"5 c #840000",
"6 c #8d0000",
"7 c #940000",
"8 c #9c0000",
"9 c #a30000",
"0 c #ac0000",
"q c #b40000",
"w c #bb0000",
"e c #807d7b",
"r c #c30000",
"t c #ca0000",
"y c #d30000",
"u c #db0000",
"i c #e30000",
"p c #e90000",
"a c #f50404",
"s c #fd0000",
"d c #ff1010",
"f c #ff5d5d",
"g c #820082",
"h c #8b008b",
"j c #930093",
"k c #9c009c",
"l c #a800a8",
"z c #b400b4",
"x c Magenta",
"c c #e536e5",
"v c #8c8987",
"b c #918e8c",
"n c #9b9896",
"m c #a4a19e",
"M c #a9a6a3",
"N c #b0adaa",
"B c #b4b1ae",
"V c #bab6b3",
"C c #c3bfbc",
"Z c #c5c2be",
"A c #ccc8c5",
"S c #d0cdc9",
"D c #d7d3cf",
"F c #dbd7d3",
"G c None",
/* pixels */
"GGGGGGGGGGGGGGGGGGGGGGGGGGGGGGGGGGGGGGGGGGGGGGGGGGGGGGGGGGGGGGGG",
"GGGGGGGGGGGGGGGGGGGGGGGGGGGGGGGGGGGGGGGGGGGGGGGGGGGGGGGGGGGGGGGG",
"GGGGGGGGGGGGGGGGGGGGGGGGGGGGGGGGGGGGGGGGGGGGGGGGGGGGGGGGGGGGGGGG",
"GGGGGGGGGGGGGGGGGGGGGGGGGGGGGGGGGGGGGGGGGGGGGGGGGGGGGGGGGGGGGGGG",
"GGGGGGGGGGGGGGGGGGGGGGGGGGGGGGGGGGGGGGGGGGGGGGGGGGGGGGGGGGGGGGGG",
"GGGGGGGGGGGGGGGGGGGGGGGGGGGGGGGGGGGGGGGGGGGGGGGGGGGGGGGGGGGGGGGG",
"GGGGGGGGGGGGGGGGGGGGGGGGGGGGGGGGGGGGGGGGGGGGGGGGGGGGGGGGGGGGGGGG",
"GGGGGGGGGGGGGGGGGGGGGGGGGGGGGGGGGGGGGGGGGGGGGGGGGGGGGGGGGGGGGGGG",
"GGGGGGGGGGGGGGGGGGGGGGGGGGGGGGGGGGGGGGGGGGGGGGGGGGGGGGGGGGGGGGGG",
"GGGGGGGGGGGGGGGGGGGGGGGGGGGGGGGGGGGGGGGGGGGGGGGGGGGGGGGGGGGGGGGG",
"GGGGGGGGGGGGGGGGGGGGGGGGGGGGGGGGGGGGGGGGGGGGGGGGGGGGGGGGGGGGGGGG",
"GGGGGGGGGGGGGGGGGGGGGGGGGGGGGGGGGGGGGGGGGGGGGGGGGGGGGGGGGGGGGGGG",
"GGGGGGGGGGGGGGGGGGGGGGGGGGGGGGGGGGGGGGGGGGGGGGGGGGGGGGGGGGGGGGGG",
"GGGGGGGGGGGGGGGGGGGGGGGGGGGGGGGGGGGGGGGGGGGGGGGGGGGGGGGGGGGGGGGG",
"GGGGGGGGGGGGGGGGGGGGGGGGGGGGGGGGGGGGGGGGGGGGGGGGGGGGGGGGGGGGGGGG",
"GGGGGGGGGGGGGGGGGGGGGGGGGGGGGGGGGGGGGGGGGGGGGGGGGGGGGGGGGGGGGGGG",
"GGGGGGGGGGGGGGGGGGGGGGGGGGGGGGGGGGGGGGGGGGGGGGGGGGGGGGGGGGGGGGGG",
"GGGGGGGGGGGGGGGGGGGGGGGGGGGGGGGGGGGGGGGGGGGGGGGGGGGGGGGGGGGGGGGG",
"GGGGGGGGGGGGGGGGGGGGGGGGGGGGGGGGGGGGGGGGGGGGGGGGGGGGGGGGGGGGGGGG",
"GGGGGGGGGGGGGGGGGGGGGGGGGGGGGGGGGGGGGGGGGGevbbbb-GGGGGGGGGGGGGGG",
"GGGGGGGGGGGGGGGGGGGGGGGGGGGGGGGGGGGGGGGGv44vbmNVVMbGGGGGGGGGGGGG",
"GGGGGGGGGGGGGGGGGGGGGGGGGGGGGGGGGGGGGGG1<>>,1bMVZSAnGGGGGGGGGGGG",
"GGGGGGGGGGGGGGGGGGGGGGGGGGGGGGGGGGGGGG1:-;>,,11BZSFSvGGGGGGGGGGG",
"GGGGGGGGGGGGGGGG7qwwq GGGGGGGGGGGGGGGG1:--:>,1113ADFMGGGGGGGGGGG",
"GGGGGGGGGGGGGq00qwtyuiutGGGGGGGGGGGGGA1>;-:><11111DDvGGGGGGGGGGG",
"GGGGGGGGGGGGw6X.58qryiaduXGGGGGGGGGGGSA-;-:>>111133B>1GGGGGGGGGG",
"GGGGGGGGiiiyX  ..70wtupastGGGGGGGGGGGSFA>-:>,11113b>;1GGGGGGGGGG",
"GGGGGGGsddat    .XXwtuiasa.GGGGGGGGGGSDSAVnb<11vv1Cn1<GGGGGGGGGG",
"GGGGGGsir68i..  .XXotyipau GGGGGGGGGG1DAZVNMnb41>>3Vb>GGGGGGGGGG",
"GGGGGGp6GGGsX.  .XXooyipp7.GGGGGGGGGG1DAZVMnb43<>:-AM1-GGGGGGGGG",
"GGGGGXr.GGGpsy  ..Xoooup8 .GGGGGGGGGG13ACVMnb43<>;--C3>GGGGGGGGG",
"GGGGGG9 GGGippfu6.XXow9X  .GGGGGGGGGG13ACVMnv43>>;--;n1GGGGGGGGG",
"GGGGGGq GGGpiuyttwq9oX.   .GGGGGGGGGG133CBMnv43,>:--:B1;GGGGGGGG",
"GGGGGGt96GGiiuttq976X..   .GGGGGGGGGG1313BMnv43<>:--:C1;GGGGGGGG",
"GGGGGG8tttwiiuytq975X..   .GGGGGGG***==gh#Mnv43,>:--:S1;GGGGGGGG",
"GGGGGGG7rupiuytrq975X..   .GGGGG$###$$=hjlk@v41,>;-3>C><GGGGGGGG",
"GGGGGGGGG9tuuytwq975X..   .GGGl#@+@@@#$gjkcl*41,>:3DFN:GGGGGGGGG",
"GGGGGGGGGGGuuytw0975X..   .GGGg++O+@@#$$hklzj11,>:>VM3<GGGGGGGGG",
"GGGGGGGGGGGuuytw097oX..   .GGG$@+O+@@#$$%%lzlO1>>;->GGGGGGGGGGGG",
"GGGGGGGGGGGyytrw0875X..   .GGGk@+O+@@##$$%lz=@<>->1GGGGGGGGGGGGG",
"GGGGGGGGGGGyytrw086oX..   .GGGzj+OO+@@$$$%%g@@:>GGGGGGGGGGGGGGGG",
"GGGGGGGGGGG ttrq086oX..   GGGzllk=+@@##$$%%=+@GGGGGGGGGGGGGGGGGG",
"GGGGGGGGGGGG rwq986oX.. .GGGGzlkjhggg=*&%#%h&OGGGGGGGGGGGGGGGGGG",
"GGGGGGGGGGGGGG 5975o.  XGGGGGzlkhg*&$##@@@+%%$GGGGGGGGGGGGGGGGGG",
"GGGGGGGGGGGGGGGG    ..GGGGGGGzlkhg*%$##@@@OO%%@GGGGGGGGGGGGGGGGG",
"GGGGGGGGGGGGGGGGGGGGGGGGGGGGGllkhg*$$###@+OO#&#GGGGGGGGGGGGGGGGG",
"GGGGGGGGGGGGGGGGGGGGGGGGGGGGGllkh=*$$#@@+@+O+%#OGGGGGGGGGGGGGGGG",
"GGGGGGGGGGGGGGGGGGGGGGGGGGGGGlljh=*$$##@@@+O+j$OGGGGGGGGGGGGGGGG",
"GGGGGGGGGGGGGGGGGGGGGGGGGGGGGlljhg*$$#$@+@OO+##OGGGGGGGGGGGGGGGG",
"GGGGGGGGGGGGGGGGGGGGGGGGGGGGGlljh=&$#$@#@@OO+$#OGGGGGGGGGGGGGGGG",
"GGGGGGGGGGGGGGGGGGGGGGGGGGGGGGkjh=&$$#@@@++%%%@@GGGGGGGGGGGGGGGG",
"GGGGGGGGGGGGGGGGGGGGGGGGGGGGGGkjg=&$####@@%%%$+GGGGGGGGGGGGGGGGG",
"GGGGGGGGGGGGGGGGGGGGGGGGGGGGGGGhg=&$$#@@+@++@+GGGGGGGGGGGGGGGGGG",
"GGGGGGGGGGGGGGGGGGGGGGGGGGGGGGGG%*&$##@@@++#GGGGGGGGGGGGGGGGGGGG",
"GGGGGGGGGGGGGGGGGGGGGGGGGGGGGGGGGO++@@+O+@GGGGGGGGGGGGGGGGGGGGGG",
"GGGGGGGGGGGGGGGGGGGGGGGGGGGGGGGGGGGGGGGGGGGGGGGGGGGGGGGGGGGGGGGG",
"GGGGGGGGGGGGGGGGGGGGGGGGGGGGGGGGGGGGGGGGGGGGGGGGGGGGGGGGGGGGGGGG",
"GGGGGGGGGGGGGGGGGGGGGGGGGGGGGGGGGGGGGGGGGGGGGGGGGGGGGGGGGGGGGGGG",
"GGGGGGGGGGGGGGGGGGGGGGGGGGGGGGGGGGGGGGGGGGGGGGGGGGGGGGGGGGGGGGGG",
"GGGGGGGGGGGGGGGGGGGGGGGGGGGGGGGGGGGGGGGGGGGGGGGGGGGGGGGGGGGGGGGG",
"GGGGGGGGGGGGGGGGGGGGGGGGGGGGGGGGGGGGGGGGGGGGGGGGGGGGGGGGGGGGGGGG",
"GGGGGGGGGGGGGGGGGGGGGGGGGGGGGGGGGGGGGGGGGGGGGGGGGGGGGGGGGGGGGGGG",
"GGGGGGGGGGGGGGGGGGGGGGGGGGGGGGGGGGGGGGGGGGGGGGGGGGGGGGGGGGGGGGGG",
"GGGGGGGGGGGGGGGGGGGGGGGGGGGGGGGGGGGGGGGGGGGGGGGGGGGGGGGGGGGGGGGG"
};
