/* XPM */
static char *magick[] = {
/* columns rows colors chars-per-pixel */
"68 64 65 1",
"  c #190a12",
". c #150a32",
"X c #2e1416",
"o c #2d172b",
"O c #37262d",
"+ c #110a53",
"@ c #0b0778",
"# c #110a6b",
"$ c #281751",
"% c #322b4f",
"& c #34326b",
"* c #49241c",
"= c #4d312e",
"- c #5b3c31",
"; c #4c374f",
": c #6d4e38",
"> c #584851",
", c #50476c",
"< c #6f534c",
"1 c #6a566b",
"2 c #786754",
"3 c #736871",
"4 c #0a0688",
"5 c #060597",
"6 c #16168e",
"7 c #0505a9",
"8 c #0303b5",
"9 c #0506b9",
"0 c #292f98",
"q c #0504c5",
"w c #394da6",
"e c #2d44c8",
"r c #3756cc",
"t c #3c65ce",
"y c #515390",
"u c #4d59ae",
"i c #4b65b9",
"p c #5567af",
"a c #6b6891",
"s c #6770a8",
"d c #495bcb",
"f c #4766c9",
"g c #4768d4",
"h c #536ac6",
"j c #5269d8",
"k c #8d6d55",
"l c #8f746c",
"z c #8b7b8d",
"x c Magenta",
"c c #998874",
"v c #ac926f",
"b c #ccad78",
"n c #97888f",
"m c #ad978e",
"M c #a69cb3",
"N c #b9ab92",
"B c #b8a9a9",
"V c #cab293",
"C c #cbb6aa",
"Z c #d5c794",
"A c #d5c7ae",
"S c #e5d18f",
"D c #e8d4a9",
"F c #e1d3c8",
"G c None",
/* pixels */
"GGGGGGGGGGGGGGGGGGGGGGGGGGGGGGGGGGGGGGGGGGGGGGGGGGGGGGGGGGGGGGGGGGGG",
"GGGGGGGGGGGGGGGGGGGGGGGGGGGGGGGGGGGGGGGGGGGGGGGGGGGGGGGGGGGGGGGGGGGG",
"GGGGGGGGGGGGGGGGGGGGGGGGGGGGGGGGGGGGGGGGGGGGGGGGGGGGGGGGGGGGGGGGGGGG",
"GGGge988888877555557778888875@@@@@45777779q988888888888887540rrrGGGG",
"GGGge988qqq9877755777788898754##6065777899qq99888888888885@@0rrrGGGG",
"GGGje98qqqqqq887777778889q975@$$&u04578qqqqqqq8888888888754@0rddGGGG",
"GGGje789qqqq9877755778889q975$,13y&#479qqqqqqq88888888775540wdddGGGG",
"GGGje778qqq975555445578889874%1mz,$+@578qqqqqq8755555555540djjdrGGGG",
"GGGje778qqq754@@@#@@45777775#1zVv;.+#4789qqq9854@##@@@@@@0rjjggjGGGG",
"GGGje778qq85@@$++.+++@45555@$1mAc= .+@578qq987@#$&&%++#@6wjjgtgjGGGG",
"GGGge778q97@+%,;o ...+#@4@#+$aBFnO .+#@5788854+.;3n3o.+6ufjjgggjGGGG",
"GGGte988q85@.1n3-XX ..+++++.%3BAc*  .+@@57774@$%3NVlO.+0ijjgggggGGGG",
"GGGre988q85@.zFNk*X  .....o o3NBl*  ..+@4554@+;lVSbk*.+&ifjgtttgGGGG",
"GGGde988q97@+,zBmk-X      O:2mCAv2=O;%$++###$,amCNk=X%&yiifgttttGGGG",
"GGGje778qq95@+&nCml=XXX*XX-vZZAAVv2<cl;o...$,MCCBc=XX;spiifgtrttGGGG",
"GGGje789qq995@#&3mml2k2kvvvbDVVZZNNNNml1>;Oo1CCBl:Xo;,spiifftrttGGGG",
"GGGde99qqq9997@+%zmNbbbbbbZZZmvVVmVACVNmnl<>3CBz<OO;aspiiifftrttGGGG",
"GGGje9qqqqqq874+.%3AASSbvvNmmvNVv2lmNVFACCBmmml:oX>3spiifffftttgGGGG",
"GGGjeqqqqqqq874#$;zFFDDbk2k22lNVc:-<klmmNCACNl-XO%1aspufffffttggGGGG",
"GGGde9qqqqqq875#&nAFFFDb:*XoO2NZv-****O=>cVVc:X >3yyuuwgjfffttggGGGG",
"GGGge99qqq998560sCFACZDZl-X X2NAv:XXX*>22kvNv:* >3ywuitttgfddgggGGGG",
"GGGge78qq987750sCFFNccAFB3o O2bSb:XXo;nBm<:bbk-X;1yufggttggddgttGGGG",
"GGGte778q98750psAFCcl<1zCCz=O2VDv:X*1nBc2=-bSb:Xo%yitttttggrdgttGGGG",
"GGGte77888856pMBCCml<Oo%MFC3=2NAv--<nBn2Oo=vZSk=X$yfttttgjgddgttGGGG",
"GGGge7788874#aMCCVl:*o.+&aBmvcNCc<lnnz>Oo%>:kVv2O$yifggggjfiifffGGGG",
"GGGge778774@$3BAVv<*X .++&zBZNNBn3zMz>Oo%,>O:VNc;$yuihhhhhhiiifiGGGG",
"GGGde75554##%lCDN:*XX .++.OcANNCmcnn>XXO>1>O:VNc:=,yuuusssspiiwwGGGG",
"GGGde54@##.%1mCVv2*XXXO%o  2NCAACNmc=X=2ccl<2vvv-O;;,,;,1,yppiwwGGGG",
"GGGjw6&&;;=<cNCNvv<**=--=OO<mDDDDDZc::lmVVVmccvv:*=------;&yppiwGGGG",
"GGGdhszznncccNAZNk2kvvvvlllmADDSSSZbclVDDSZCBNbbvkkcvvvkl3,&ypiiGGGG",
"GGGusMMBAACVmVFFV:kbSSDACCCFFDSSSSZVvvVZZVNNmmVDSbbbSSSVNm3$%yiiGGGG",
"GGGpu,sMBBNBCCFANkcVVVVVVVCDDDSSSZZNkkvv22<>>-lSVbvbVVvmNn3$%yiiGGGG",
"GGGpy+,aa33zCCACNk2kkklvvmCADSSSZZCm:*2<;;;Oo <ZVbkklk213ay&,pifGGGG",
"GGGjw++$%%o,MBCNl=O;;;;><lBVNZSZZCNc<=*=<111; 2DDb:*-=ooO%&yppifGGGG",
"GGGjw###++.;nBCc<Xo$$$oO3mNc2bSZCBMnc<**;11;;=lDZv-XoO;&&&,pppifGGGG",
"GGGgw6554@+&nNVk- .+$$%>nBn<=vDCmnnmNl-*X;>O-kvSNl=Xo;aayypppifdGGGG",
"GGGje77774#&nBZv2X.++$yzMn1OOmAc1>1zllv<*O=>lNVbk-Xo;,yssspppfffGGGG",
"GGGje77885@0amAZv* .$&zMn1O =BA2Oo;1<kmc<O=cVAZv<X O,yuuippiifgjGGGG",
"GGGge778974@&aBZv-X ,MMn1=  OBA>o.;1311zn33NAZNv<o $ypuddfifffggGGGG",
"GGGge7788754#,nZb2-OzBn1;Oo OBA>o.&aa,O1MmmCAVc2>oo&uuddddfffgggGGGG",
"GGGje988777756,NSbvcmm>  O;OOBV- .&a1;o>mNVAVN2XXo,yuuddddggggggGGGG",
"GGGre9q9778774&lNZVVc2O O>1OOmV2OoO;;;X-cVAFAN2XXo,apuddggggggggGGGG",
"GGGreqqq978875@%<VCV<X o>11OOcCm<X X*==<mZAFFVkXXo,ayuifggggggggGGGG",
"GGGgeqqqq98774#$-NDDv:=OO%OoOcAm2X *<2:cZAVvcNl:*X=>apifffttggggGGGG",
"GGGjeqqqqq8756&$-cVACv<=Oo o>NAN2O*:vvkvAZm:<cvl:=XOyspifftttttgGGGG",
"GGGje9qqq875@yazl2kkNANc2>O>zNCml2kcbbvvmck2lvbbv2* O,spiiftttttGGGG",
"GGGge99q9756&zBCm2-*cCVNml<lBAANmNNNZbvkk2<2klmZZv:O ;sspiftttttGGGG",
"GGGfe989975wzBAACv2*:llvNVNNAFFFFFCmvk:--kl;==kbZZv<X;assiifggggGGGG",
"GGGge777760sMBCVVl:XO=-2mNBBAFFCNmck::<-o>1&;;<lmVVc>>,yspifggggGGGG",
"GGGje77756sMMmcml=X    O3nmmNAAv2---=:z1$.&yyy,>2cCCc>X,spifggggGGGG",
"GGGge77746ysMmcl<X*;;%%%;>>3cvck<k-XXo;&&&0uuuy1>2mBn> ,spitggggGGGG",
"GGGte9874@$,zzl:OX;zsaa,$  >cl2:km<X ..&yidddupa,>3nn1.,siftgggjGGGG",
"GGGte9885@+&,;OXX>assppuy$.1mNml<<>>,,&yuidddipsy,;;;,ypiffgggjjGGGG",
"GGGte9875@++$ooo=3spiddiu,%1nCCc>o>aaspiifffdfippy%..ysjdjgggjjjGGGG",
"GGGge7774@+++&y,1aspjjjffuy,1MCm<O>aspifffgggffippyyyujjdggggjjjGGGG",
"GGGge7754@6&&ysssspfjjgfipu&;nBn>O,spuffggtttgffiippuujddggggjjjGGGG",
"GGGge754@6wuuuisspiftttfiip0&zmz>O,spdjjggtrtggtfippuurdgggggjggGGGG",
"GGGgw6@@60iddddiiiittttfiiiwy,,,,,yphjggtttttttttfipuutggggggjggGGGG",
"GGGfw646wdjjdjjdffftttttfffiu&+$&ypijjgtrttttttttfipifggggggjjjgGGGG",
"GGGgiwwwdjjjjjjjjfftgggtgfdfiw0wwpphjjgggttgtttttfipifgggggjjjjjGGGG",
"GGGjfiiijjjjjjjjjfftgjggggdffiiiiuhjjggjgttgfwttffiphjjgggjjjjjjGGGG",
"GGGGGGGGGGGGGGGGGGGGGGGGGGGGGGGGGGGGGGGGGGGGGGGGGGGGGGGGGGGGGGGGGGGG",
"GGGGGGGGGGGGGGGGGGGGGGGGGGGGGGGGGGGGGGGGGGGGGGGGGGGGGGGGGGGGGGGGGGGG",
"GGGGGGGGGGGGGGGGGGGGGGGGGGGGGGGGGGGGGGGGGGGGGGGGGGGGGGGGGGGGGGGGGGGG"
};
