/* XPM */
static char *pc[] = {
/* width height num_colors chars_per_pixel */
"    64    64       63            1",
/* colors */
". c #261b20",
"# c #423037",
"a c #4a443f",
"b c #47463c",
"c c #563e48",
"d c #5a414b",
"e c #5d5b4e",
"f c #58564a",
"g c #5f5d50",
"h c #696159",
"i c #676557",
"j c #6d6b5b",
"k c #7b7268",
"l c #727264",
"m c #7e7f71",
"n c #8d8a76",
"o c #8f8c78",
"p c #878674",
"q c #918e79",
"r c #96937e",
"s c #4c46ff",
"t c #4f48ff",
"u c #534cff",
"v c #5b53ff",
"w c #5750ff",
"x c #645bff",
"y c #6b64ff",
"z c #776fff",
"A c #2b28f0",
"B c None",
"C c #837cff",
"D c #9e9b84",
"E c #9e9b85",
"F c #899186",
"G c #96a093",
"H c #a9a68e",
"I c #adaa92",
"J c #b1ae95",
"K c #b7b49a",
"L c #bdba9f",
"M c #b6b1a2",
"N c #c4b4a5",
"O c #c1bea3",
"P c #bac6b6",
"Q c #c8c5aa",
"R c #dad6b7",
"S c #cfceb3",
"T c #e2ddbe",
"U c #9089ff",
"V c #a59dff",
"W c #afa7ff",
"X c #c4bcff",
"Y c #d1d7c4",
"Z c #d9e6d4",
"0 c #e9e5c5",
"1 c #f2edcb",
"2 c #f6f1cf",
"3 c #f9f5d2",
"4 c #e6efda",
"5 c #fafeea",
"6 c #fffffc",
"7 c #eaf9e5",
"8 c #d1caff",
/* pixels */
"BBBBBBBBBBBBBBBBBBBBBBBBBBBBBBBBBBBBBBBBBBBBBBBBBBBBBBBBBBBBBBBB",
"BBBBBBBBBBBBBBBBBBBkkkBBBBBBDDBBBBBBBBBBBBBBBBBBBBBBBBBBBBBBBBBB",
"BBBBBBBBBBBBBBBBBkkkkkkkBBDDDDDDDBBBBBBBBBBBBBBBBBBBBBBBBBBBBBBB",
"BBBBBBBBBBBBBBBkkkkkkkkkDDDDDDDDDDDBBBBBBBBBBBBBBBBBBBBBBBBBBBBB",
"BBBBBBBBBBBBBkkkkkkkkkDDDDDDDDDDDDDDDBBBBBBBBBBBBBBBBBBBBBBBBBBB",
"BBBBBBBBBBBkkkkkkkkkDDDDDDDDDDDDDDDDDDDBBBBBBBBBBBBBBBBBBBBBBBBB",
"BBBBBBBBBkkkkkkkkkDDDDDDDDDDDDDDDDDDDDDDDBBBBBBBBBBBBBBBBBBBBBBB",
"BBBBBBBkkkkkkkkkDDDDDDDDDDDDDDDDDDDDDDDDDDDBBBBBBBBBBBBBBBBBBBBB",
"BBBBBkkkkkkkkkDDDDDDDDDDDDDDDDDDDDDDDDDDDDDDBBBBBBBBBBBBBBBBBBBB",
"BBBkkkkkkkkkDDDDDDDDDDDDDDDDDDDDDDDDDDDDDDLKBBBBBBBBBBBBBBBBBBBB",
"BBakkkkkkkDDDDDDDDDDDDDDDDDDDDDDDDDDDDDDLLLLBBBBBBBBBBBBBBBBBBBB",
"BBaaakkkDDDDDDDDDDDDDDDDDDDDDDDDDDDDDDLLLOOOBBBBBBBBBBBBBBBBBBBB",
"BBaaaaDDDDDDDDDDDDDDDDDDDDDDDDDDDDDDDOOOOiOOBBBBBBBBBBBBBBBBBBBB",
"BBaaaaggDDDDDDDDDDDDDDDDDDDDDDDDDDD0SQOsviQQBBBBBBBBBBBBBBBBBBBB",
"BBaaaaggggDDDDDDDDDDDDDDDDDDDDDDD652RQsvviQQBBBBBBBBBBBBBBBBBBBB",
"BBaaaagggggDDDDDDDDDDDDDDDDDDDD66663syvvvjSSBBBBBBBBBBBBBBBBBBBB",
"BBaaaagggggggDDDDDDDDDDDDDDDD66666sVCyxvxjSSBBBBBBBBBBBBBBBBBBBB",
"BBBaaagggggggggDDDDDDDDDDDDD5666A8XVCyxxxjRRBBBBBBBBBBBBBBBBBBBB",
"BBBaaagggggggggggDDDDDDDDDT0356s88XVCyxxxjRRBBBBBBBBBBBBBBBBBBBB",
"BBBaaaggggggggggggDDDDDDOQST0sWXXXWUzxxxxjRRBBBBBBBBBBBBBBBBBBBB",
"BBBaaaagggggggggggggDDDKLOQsCUVVWVUCyxxxxTRRBBBBBBBBBBBBBBBBBBBB",
"BBBaaaaggggggggggggggQIJKDyyzCCUUUCyxxxxxTRpBBBBBBBBBBBBBBBBBBBB",
"BBBaaaaggggggggggggggOQQwvxxyyzzzzyxxxxxxTRBBBBBBBBBBBBBBBBBBBBB",
"BBBaaaaggggggggggggggLOOuwvvxxxxxxxxxxxxxRRBBBBBBBBBBBBBBBBBBBBB",
"BBBaaaaggggggggggggggKKLuuwwvvvvvvvvxxxxxRSBBBBBBBBBBBBBBBBBBBBB",
"BBBaaaaggggggggggggggJKKttuuuwwwvvvvxxxxxSSBBBBBBBBBBBBBBBBBBBBB",
"BBBaaaaggggggggggggggJJKtttuuuuwwvvvxxxxxSQBBBBBBBBBBBBBBBBBBBBB",
"BBBaaaaggggggggggggggIJJttttuuuwwvvvxxxxvQQBBBBBBBBBBBBBBBBBBBBB",
"BBBaaaaggggggggggggggIJJttttuuuwwvvvvvvvvQOBBBBBBBBBBBBBBBBBBBBB",
"BBBaaaaggggggggggggggIIJstttuuuwwvvvvvvvvOLBBBBBBBBBBBBBBBBBBBBB",
"BBBBaaaggggggggggggggIIJstttuuuwwwvvvvvviLKBBBBBBBBBBBBBBBBBBBBB",
"BBBBBaaggggggggggggggIIJstttuuuuwwwvvvwwiKKBBBBBBBBBBBBBBBBBBBBB",
"BBBBBBaggggggggggggggIIJsttttuuuwwwwwwww0KJBBBBBBBBBBBBBBBBBBBBB",
"BBBBBBBggggggggggggggIIJsttttuuuuwwwww0OOLLBBBBBBBBBBBBBBBBBBBBB",
"BBBBBBBggggggggggggggIIJsttttuuuuuuuuOOOLBBBBBBBBBBBBBBBBBBBBBBB",
"BBBBBBBgggggggggggggggIJstttttuuuuu0OOLLBBBBBBBBBBBBBBBBBBBBBBBB",
"BBBBBBBfggggggggggggggIJsttttttuuuLLLLBBBBBBBBBBBBBBBBBBBBBBBBBB",
"BBBBBBBBggggggggggggggIJssttttttTLLLLEBBBBBBBBBBBBBBBBBBBBBBBBBB",
"BBBBBBBgggggggggggggggIIssttttEKKKKE111BBBBBBBBBBBBBBBBBBBBBBBBB",
"BBBBBgggggggggggggggggIIsssttRKKKKE111111BBccccccccccccccBBBBBBB",
"BBBBggggggfgggggggggggIIsssSJJJKE0111O12222ccccccccccccccBBBBBBB",
"BBBggggggggegggggggggHIIssSJJJJE00111L222233ccccGYZ74cccccBBBBBB",
"BBBggggggggeggggggggggIISIIJJE000011KL22333333#lGMY777ZcccBBBBBB",
"BBBggggggggeggggggggggHIIIIIET00001HJ22333333q#iFGMY4754ccBBBBBB",
"BBBggggggggeggggggggggHHHIETTTT00rDHJ233333qqq##mFGGP656PcBBBBBB",
"BBBgggggggggggggeeggggHHHETTTTkporDH223333qqqqd##mFFGMPZZcBBBBBB",
"BBBgggggggggggggeeeeggHfiijjllmporDE22333qqqNNddd##pFFGMP#cBBBBB",
"BBBggggggggggggggeeeegffiijjllmpnrE2223qqqqNNNNdddd##mmFFccBBBBB",
"BBBggggggggggggggeeeeeffiijjllmpEE1222qqqqNNNhhdddddddddddcBBBBB",
"BBBBBgggggggggggggggeeffiijjEgEE1112qqqqNNNNhhhdddddddddddcBBBBB",
"BBBBBBgggggggggggggggggggggEEE01111qqqqNNNNhhhdddddddddddddBBBBB",
"BBBBBBBggggggggggEEEEEEEEE00000111qqqNNNNhhhh..............BBBBB",
"BBBBBBBBBgggggggggEEETTTTT000000qqqoNNNNhhhh...............BBBBB",
"BBBBBBBBBBggggggggggTTTTTTT0000ooooNNNNhhhBBBBBBBBBBBBBBBBBBBBBB",
"BBBBBBBBBBBggggggggggTTTTTT00ooooMNNNhhhhBBBBBBBBBBBBBBBBBBBBBBB",
"BBBBBBBBBBBBBgggggggggTTTTTTooooaMMNhhhhBBBBBBBBBBBBBBBBBBBBBBBB",
"BBBBBBBBBBBBBBggggggggggTTnnnnnnaaMhhhBBBBBBBBBBBBBBBBBBBBBBBBBB",
"BBBBBBBBBBBBBBBggggggggggnnnnnnfaahhhBBBBBBBBBBBBBBBBBBBBBBBBBBB",
"BBBBBBBBBBBBBBBBBggggggggnnnnnnbbaahBBBBBBBBBBBBBBBBBBBBBBBBBBBB",
"BBBBBBBBBBBBBBBBBBgggggggnnnnnnbBBBBBBBBBBBBBBBBBBBBBBBBBBBBBBBB",
"BBBBBBBBBBBBBBBBBBBggggggnnnnnmBBBBBBBBBBBBBBBBBBBBBBBBBBBBBBBBB",
"BBBBBBBBBBBBBBBBBBBBBggggnnnnnBBBBBBBBBBBBBBBBBBBBBBBBBBBBBBBBBB",
"BBBBBBBBBBBBBBBBBBBBBBgggnnnBBBBBBBBBBBBBBBBBBBBBBBBBBBBBBBBBBBB",
"BBBBBBBBBBBBBBBBBBBBBBBggnnBBBBBBBBBBBBBBBBBBBBBBBBBBBBBBBBBBBBB"
};
