/* XPM */
static char * pipe_h_xpm[] = {
"64 64 293 2",
"  	c None",
". 	c #6C3938",
"+ 	c #7A3C3B",
"@ 	c #7E3F3A",
"# 	c #783C3F",
"$ 	c #7F3C41",
"% 	c #74443B",
"& 	c #483C26",
"* 	c #383C1B",
"= 	c #614038",
"- 	c #763D38",
"; 	c #85403B",
"> 	c #63342D",
", 	c #6B3938",
"' 	c #6F403B",
") 	c #783C3B",
"! 	c #823B3B",
"~ 	c #733B3A",
"{ 	c #582F2C",
"] 	c #71403C",
"^ 	c #4E3E2C",
"/ 	c #4B3C25",
"( 	c #703F3E",
"_ 	c #6C403B",
": 	c #503D2B",
"< 	c #623F36",
"[ 	c #763C3C",
"} 	c #703B37",
"| 	c #6D3C39",
"1 	c #553729",
"2 	c #71443C",
"3 	c #723D36",
"4 	c #7D433F",
"5 	c #874742",
"6 	c #924C44",
"7 	c #8F494B",
"8 	c #8B4447",
"9 	c #894E43",
"0 	c #624831",
"a 	c #4D4C24",
"b 	c #7E5147",
"c 	c #9C4E48",
"d 	c #A04B4E",
"e 	c #994C48",
"f 	c #783E39",
"g 	c #8B4544",
"h 	c #7E4441",
"i 	c #73473B",
"j 	c #70463A",
"k 	c #804340",
"l 	c #8A4542",
"m 	c #844342",
"n 	c #944646",
"o 	c #A9504B",
"p 	c #AE534B",
"q 	c #9A4D49",
"r 	c #864140",
"s 	c #954846",
"t 	c #7F4340",
"u 	c #8C4745",
"v 	c #914C44",
"w 	c #8F494A",
"x 	c #964B43",
"y 	c #925249",
"z 	c #6C4F3C",
"A 	c #6B4F38",
"B 	c #914E4C",
"C 	c #824342",
"D 	c #884443",
"E 	c #70473C",
"F 	c #4E4627",
"G 	c #694737",
"H 	c #854641",
"I 	c #A7504B",
"J 	c #A8554B",
"K 	c #974A49",
"L 	c #964A47",
"M 	c #904444",
"N 	c #79403F",
"O 	c #844644",
"P 	c #6A4334",
"Q 	c #55452D",
"R 	c #804B42",
"S 	c #8A4943",
"T 	c #9B4D49",
"U 	c #6D3E33",
"V 	c #6B4235",
"W 	c #81483E",
"X 	c #8C4947",
"Y 	c #773E3C",
"Z 	c #7E433B",
"` 	c #6D4336",
" .	c #534828",
"..	c #7B4C44",
"+.	c #9B4C46",
"@.	c #984646",
"#.	c #854545",
"$.	c #783E3D",
"%.	c #7D403F",
"&.	c #723E38",
"*.	c #553D28",
"=.	c #513C28",
"-.	c #663A35",
";.	c #7B3E3E",
">.	c #793E39",
",.	c #703B3C",
"'.	c #814243",
").	c #9E4A49",
"!.	c #A54F48",
"~.	c #964A45",
"{.	c #954545",
"].	c #7E4140",
"^.	c #773F39",
"/.	c #7A423F",
"(.	c #7D473D",
"_.	c #894A46",
":.	c #81433C",
"<.	c #824441",
"[.	c #8A4D42",
"}.	c #734B3F",
"|.	c #775041",
"1.	c #8F4947",
"2.	c #783D3C",
"3.	c #723B3A",
"4.	c #583B2B",
"5.	c #353E16",
"6.	c #583F2A",
"7.	c #753F38",
"8.	c #994A48",
"9.	c #965445",
"0.	c #8F4644",
"a.	c #944545",
"b.	c #793E3C",
"c.	c #6B3937",
"d.	c #7A3F3C",
"e.	c #7E4241",
"f.	c #714538",
"g.	c #503D26",
"h.	c #804341",
"i.	c #8F4943",
"j.	c #5F402A",
"k.	c #4C4325",
"l.	c #734139",
"m.	c #9B4D48",
"n.	c #864941",
"o.	c #783C3C",
"p.	c #763D3C",
"q.	c #4E332B",
"r.	c #573232",
"s.	c #693737",
"t.	c #6C3936",
"u.	c #7B3D3D",
"v.	c #8B4944",
"w.	c #864745",
"x.	c #6A3A34",
"y.	c #523C27",
"z.	c #533C28",
"A.	c #653934",
"B.	c #80423D",
"C.	c #824648",
"D.	c #7C4043",
"E.	c #67393A",
"F.	c #5E3533",
"G.	c #563231",
"H.	c #6D3936",
"I.	c #794139",
"J.	c #684438",
"K.	c #674133",
"L.	c #915047",
"M.	c #553230",
"N.	c #573231",
"O.	c #673734",
"P.	c #6C3A36",
"Q.	c #703B38",
"R.	c #6D3A37",
"S.	c #603B2E",
"T.	c #3F3D1D",
"U.	c #643D31",
"V.	c #7D423C",
"W.	c #5E3833",
"X.	c #413921",
"Y.	c #4F322C",
"Z.	c #593434",
"`.	c #713D35",
" +	c #793D3D",
".+	c #834649",
"++	c #804141",
"@+	c #925047",
"#+	c #78423D",
"$+	c #753C37",
"%+	c #723939",
"&+	c #53312C",
"*+	c #4C1B11",
"=+	c #412E1E",
"-+	c #773B33",
";+	c #713638",
">+	c #79383A",
",+	c #4C2221",
"'+	c #4A2121",
")+	c #451E1E",
"!+	c #421B19",
"~+	c #803B3B",
"{+	c #7E3A37",
"]+	c #703633",
"^+	c #86423F",
"/+	c #502C26",
"(+	c #5D312C",
"_+	c #5E2F2F",
":+	c #471F1E",
"<+	c #8A4343",
"[+	c #542929",
"}+	c #542825",
"|+	c #502725",
"1+	c #4E2525",
"2+	c #573128",
"3+	c #3A3219",
"4+	c #533D22",
"5+	c #6A3733",
"6+	c #88433F",
"7+	c #552A29",
"8+	c #60302D",
"9+	c #55322A",
"0+	c #461F1D",
"a+	c #472D1E",
"b+	c #2C3710",
"c+	c #442A1F",
"d+	c #5F312C",
"e+	c #833F3C",
"f+	c #793934",
"g+	c #4F2426",
"h+	c #452624",
"i+	c #3B1C19",
"j+	c #38211A",
"k+	c #44221F",
"l+	c #432120",
"m+	c #442221",
"n+	c #3B1D1C",
"o+	c #3A1D1B",
"p+	c #502C2C",
"q+	c #4B2929",
"r+	c #663738",
"s+	c #793D38",
"t+	c #80423F",
"u+	c #6E3B3C",
"v+	c #502D2A",
"w+	c #583230",
"x+	c #3F201E",
"y+	c #482422",
"z+	c #43211F",
"A+	c #3D1F1D",
"B+	c #3D1F1C",
"C+	c #3C1E1C",
"D+	c #4B2826",
"E+	c #452424",
"F+	c #452523",
"G+	c #3E201D",
"H+	c #352318",
"I+	c #3A2519",
"J+	c #41221F",
"K+	c #6F3B3C",
"L+	c #512D2B",
"M+	c #583231",
"N+	c #3D211E",
"O+	c #3A201A",
"P+	c #302715",
"Q+	c #39201A",
"R+	c #462523",
"S+	c #703A39",
"T+	c #84463F",
"U+	c #834343",
"V+	c #432425",
"W+	c #4A2827",
"X+	c #3A1E1C",
"Y+	c #1E0F0E",
"Z+	c #1E110E",
"`+	c #2E1A1A",
" @	c #2A1818",
".@	c #341E1E",
"+@	c #482624",
"@@	c #391F20",
"#@	c #2C1918",
"$@	c #2F1C1B",
"%@	c #291715",
"&@	c #241313",
"*@	c #251413",
"=@	c #1D110D",
"-@	c #1E100E",
";@	c #1B130C",
">@	c #3B1F1F",
",@	c #4A2824",
"'@	c #472424",
")@	c #231314",
"!@	c #281615",
"                                                                                                                                ",
"                                                                                                                                ",
"                                                                                                                                ",
"                                                                                                                                ",
"                                                                                                                                ",
"                                                                                                                                ",
"                                                                                                                                ",
"                                                                                                                                ",
"                                                                                                                                ",
"                                                                                                                                ",
"                                                                                                                                ",
"                                                                                                                                ",
"                                                                                                                                ",
"                                                                                                                                ",
"                                                                                                                                ",
"                                                                                                                                ",
"                                                                                                                                ",
"                                                                                                                                ",
"                                                                                                                                ",
"                                                                                                                                ",
"                                                                                                                                ",
"                                                                                                                                ",
"                                                                                                                                ",
"                                                                                                                                ",
"                                                                                                                                ",
"                                                                                                                                ",
"                                                                                                                                ",
"                                                                                                                                ",
"                                                                                                                                ",
"                                                                                                                                ",
". + @ # $ % & * = - $ ; > + , ' ' ) + + + ! ; ; ~ { ! ! . + @ # $ ; ! ] ^ / ( ; > + . + _ : < [ + ! ; ; ~ } ! ! . . | 1 ^ 2 3 + ",
"4 5 6 7 8 9 0 a b c d e f g h i j k g l m n o p q r n s t u v w 8 x s y z A B e f g C D E F G H m n I J K L M M N k O P Q R S T ",
"U V W X Y Z `  ...+.@.#.$.%.&.*.=.-.;.>.,.'.).!.~.{.].t ^./.(._.Y :.<.[.}.|.1.#.$.%.2.3.4.5.6.7.,.'.8.9.0.a.b.2.c.d.e.f.g.&.h.i.",
"j.k.l.m.n.o.p.q.r.s.t.u.v.w.x.y.z.A.o.B.C.D.E.F.G.F.H.t.I.J.K.L.n.o.o.M.N.O.P.u.v.w.Q.R.S.T.U.V.C.D.W.X.Y.Z.`.t. +.+++@+#+$+%+&+",
"*+=+-+;+>+,+'+'+)+!+!+~+{+]+^+/+(+_+:+<+]+[+}+|+,+1+'+)+2+3+4+5+>+,+'+'+)+!+!+~+{+]+6+7+8+9+0+<+]+[+a+b+c+|+,+:+d+e+{+f+<+[+g+h+",
"i+j+k+l+m+n+n+n+o+p+q+r+s+t+u+v+w+x+o+y+z+A+B+C+D+E+F+o+G+H+I+J+m+n+n+n+o+p+q+r+s+t+K+L+M+N+o+y+z+A+O+P+Q+C+R+o+w+S+s+T+U+V+W+X+",
"Y+Z+Y+Y+Y+Y+Y+Y+Y+`+ @.@J++@@@#@$@Y+Y+Y+Y+Y+Y+Y+%@&@*@Y+Y+=@=@Y+Y+Y+Y+Y+Y+`+ @.@J++@@@#@$@Y+Y+Y+Y+Y+-@;@-@Y+*@Y+$@>@J+,@'@)@!@Y+",
"                                                                                                                                ",
"                                                                                                                                ",
"                                                                                                                                ",
"                                                                                                                                ",
"                                                                                                                                ",
"                                                                                                                                ",
"                                                                                                                                ",
"                                                                                                                                ",
"                                                                                                                                ",
"                                                                                                                                ",
"                                                                                                                                ",
"                                                                                                                                ",
"                                                                                                                                ",
"                                                                                                                                ",
"                                                                                                                                ",
"                                                                                                                                ",
"                                                                                                                                ",
"                                                                                                                                ",
"                                                                                                                                ",
"                                                                                                                                ",
"                                                                                                                                ",
"                                                                                                                                ",
"                                                                                                                                ",
"                                                                                                                                ",
"                                                                                                                                ",
"                                                                                                                                ",
"                                                                                                                                "};
