/* XPM */
static char *magick[] = {
/* columns rows colors chars-per-pixel */
"64 64 65 1",
"  c #110900",
". c #150b00",
"X c #1b0d00",
"o c #1e1000",
"O c #231300",
"+ c #2b1601",
"@ c #331200",
"# c #3c1500",
"$ c #3f2f00",
"% c #2b3937",
"& c #2c3b38",
"* c #2e3d3a",
"= c #2f3f3c",
"- c #3b3120",
"; c #31413e",
": c #344542",
"> c #394c48",
", c #3f5450",
"< c #491a00",
"1 c #443300",
"2 c #4c3900",
"3 c #533d00",
"4 c #473b26",
"5 c #6c2d01",
"6 c #5c4000",
"7 c #54472e",
"8 c #594b31",
"9 c #5b4c32",
"0 c #5c4d32",
"q c #624400",
"w c #654b00",
"e c #6a4b00",
"r c #6d5100",
"t c #734d00",
"y c #725200",
"u c #7b5100",
"i c #7b5a00",
"p c #7d5c00",
"a c #665638",
"s c #5c7b75",
"d c #5e7d77",
"f c #60817a",
"g c #678a83",
"h c #885c00",
"j c #8a6700",
"k c #976900",
"l c #9a7301",
"z c #9e790e",
"x c #a36b00",
"c c #a47b01",
"v c #a87701",
"b c #b57901",
"n c Magenta",
"m c #ad830d",
"M c #b78504",
"N c #93836e",
"B c #c68b03",
"V c #d49001",
"C c #d79803",
"Z c #d59c00",
"A c #dca408",
"S c #e89a01",
"D c #edac08",
"F c #f2b302",
"G c None",
/* pixels */
"GGGGGGGGGGGGGGGGGGGGGGGGGGGGGGGGGGGGGGGGGGGGGGGGGGGGGGGGGGGGGGGG",
"GGGGGGGGGGGGGGGGGGGGGGGGGGGGGGGGGGGGGGGGGGGGGGGGGGGGGGGGGGGGGGGG",
"GGGGGGGGGGGGGGGGGGGGGGGGGGGGGGGGGGGGGGGGGGGGGGGGGGGGGGGGGGGGGGGG",
"GGGGGGGGGGGGGGGGGGGGGGGGGGGGGGGGGGGGGGGGGGGGGGGGGGGGGGGGGGGGGGGG",
"GGGGGGGGGGGGGGGGGGGGGGGGGGGGGGGGGGGGGGGGGGGGGGGGGGGGGGGGGGGGGGGG",
"GGGGGGGGGGGGGGGGGGGGGGGGGGGGGGGGGGGGGGGGGGGGGGGGGGGGGGGGGGGGGGGG",
"GGGGGGGGGGGGGGGGGGGGGGGGGGGGGGGGGGGGGGGGGGGGGGGGGGGGGGGGGGGGGGGG",
"GGGGGGGGGGGGGGGGGGGGGGGGGGGGGGGGGGGGGGGGGGGGGGGGGGGGGGGGGGGGGGGG",
"GGGGGGGGGGGGGGGGGGGGGGGGGGGGGGGGGGGGGGGGGGGGGGGGGGGGGGGGGGGGGGGG",
"GGGGGGGGGGGGGGGGGGGGGGGGGGGGGGGGGGGGGGGGGGGGGGGGGGGGGGGGGGGGGGGG",
"GGGGGGGGGGGGGGGGGGGGGGGGGGGGGGGGGGGGGGGGGGGGGGGGGGGGGGGGGGGGGGGG",
"GGGGGGGGGGGGGGGGGGGGGGGGGGGGGGGGGGGGGGGGGGGGGGGGGGGGGGGGGGGGGGGG",
"GGGGGGGGGGGGGGGGGGGGGGGGGGG#GGGGGGGGGGGGGGGGGGGGGGGGGGGGGGGGGGGG",
"GGGGGGGGGGGGGGGGGGGGGGGGGG+@ G GGGGXGGGGGGGGGGGGGGGGGGGGGGGGGGGG",
"GGGGGGGGGGGGGGGGGGGGGGGGGG+# NXGGGG# GGGGGGGGGGGGGGGGGGGGGGGGGGG",
"GGGGGGGGGGGGGGGGGGGGGGGGGGOX O.XGG5X GGGGGGGGGGGGGGGGGGGGGGGGGGG",
"GGGGGGGGGGGGGGGGGGGGGGGGGGO@+o. GG5# GGGGGGGGGGGGGGGGGGGGGGGGGGG",
"GGGGGGGGGGGGGGGGGGGGGGGGGG<o5oX GGOO XGGGGGGGGGGGGGGGGGGGGGGGGGG",
"GGGGGGGGGGGGGGGGGGGGGGGGGG+o+o+ GGOX  GGGGGGGGGGGGGGGGGGGGGGGGGG",
"GGGGGGGGGGGGGGGGGGGGGGGGGGGX+O@ GGO. @GGGGGGGGGGGGGGGGGGGGGGGGGG",
"GGGGGGGGGGGGGGGGGGGGGGGGGGGv@O  GGo. GGG@GGGGGGGGGGGGGGGGGGGGGGG",
"GGGGGGGGGGGGGGGGGGGGGGGGGGGVyGwGGG3 GGG4. GGGGGGGGGGGGGGGGGGGGGG",
"GGGGGGGGGGGGGGGGGGGGGGGGGGGGjGxGGG32GGGX. GGGGGGGGGGGGGGGGGGGGGG",
"GGGGGGGGGGGGGGGGGGGGGGGGGGGGByAtGG62qGGO.XGGGGGGGGGGGGGGGGGGGGGG",
"GGGGGGGGGGGGGGGGGGGGGGGGGGGGVpGxGGtt1GGo# GGGGGGGGGGGGGGGGGGGGGG",
"GGGGGGGGGGGGGGGGGGGGGGGGGGGGFuwMGGl31GG+. GGGGGGGGGGGGGGGGGGGGGG",
"GGGGGGGGGGGGGGGGGGGGGGGGGGGGFcqvGGl31GG<.@GGGGGGGGGGGGGGGGGGGGGG",
"GGGGGGGGGGGGGGGGGGGGGGGGGGGGSbtlGGut3GG. XGGGGGGGGGGGGGGGGGGGGGG",
"GGGGGGGGGGGGGGGGGGGGGGGGGGGGFMilGG331GGl6GGGGGGGGGGGGGGGGGGGGGGG",
"GGGGGGGGGGGGGGGGGGGGGGGGGGGGSBpcG3361GGl2GGGGGGGGGGGGGGGGGGGGGGG",
"GGGGGGGGGGGGGGGGGGGGGGGGGGGGFAFvG3i31GGcqGGGGGGGGGGGGGGGGGGGGGGG",
"GGGGGGGGGGGGGGGGGGGGGGGGGGGGFDVtGmw2$GGl3GGGGGGGGGGGGGGGGGGGGGGG",
"GGGGGGGGGGGGGGGGGGGGGGGGGGGGFDbr3zh23GGl62GGGGGGGGGGGGGGGGGGGGGG",
"GGGGGGGGGGGGGGGGGGGGGGGGGGGGBbkrmpw22GGVw$GGGGGGGGGGGGGGGGGGGGGG",
"GGGGGGGGGGGGGGGGGGGGGGGGGGGGGBvymku2GGSjh3GGGGGGGGGGGGGGGGGGGGGG",
"GGGGGGGGGGGGGGGGGGGGGGGGGGGGGBbVzj33Gcje1GGGGGGGGGGGGGGGGGGGGGGG",
"GGGGGGGGGGGGGGGGGGGGGGGGGGGGGGbVvr31cxe$GGGGGGGGGGGGGGGGGGGGGGGG",
"GGGGGGGGGGGGGGGGGGGGGGGGGGGssscMbrechw3fGGGGGGGGGGGGGGGGGGGGGGGG",
"GGGGGGGGGGGGGGGGGGGGGGGGGsssssczbrckr1fffGGGGGGGGGGGGGGGGGGGGGGG",
"GGGGGGGGGGGGGGGGGGGGGGGGssss::cBkejp6dffffGGGGGGGGGGGGGGGGGGGGGG",
"GGGGGGGGGGGGGGGGGGGGGGGsss;;::bkiy2esdgfffGGGGGGGGGGGGGGGGGGGGGG",
"GGGGGGGGGGGGGGGGGGGGGGsss=;;-9jvk218sdggffGGGGGGGGGGGGGGGGGGGGGG",
"GGGGGGGGGGGGGGGGGGGGGsss*--099jih2$888ggf>>GGGGGGGGGGGGGGGGGGGGG",
"GGGGGGGGGGGGGGGGGGGGGss&-00099jiw2$8888g>>>GGGGGGGGGGGGGGGGGGGGG",
"GGGGGGGGGGGGGGGGGGGGsss%000099jkre388888>>:GGGGGGGGGGGGGGGGGGGGG",
"GGGGGGGGGGGGGGGGGGGGsss%a000999bh218---->>:GGGGGGGGGGGGGGGGGGGGG",
"GGGGGGGGGGGGGGGGGGGGsss%-000999be1----->>;GGGGGGGGGGGGGGGGGGGGGG",
"GGGGGGGGGGGGGGGGGGGGsss&%a009998h1----fff;GGGGGGGGGGGGGGGGGGGGGG",
"GGGGGGGGGGGGGGGGGGGGGss*&%08999888888fff;;GGGGGGGGGGGGGGGGGGGGGG",
"GGGGGGGGGGGGGGGGGGGGGsss*&%87748888fff*=;GGGGGGGGGGGGGGGGGGGGGGG",
"GGGGGGGGGGGGGGGGGGGGGGssss%%&744-ffff&*=GGGGGGGGGGGGGGGGGGGGGGGG",
"GGGGGGGGGGGGGGGZZZZVGG,ddddddddffff%%&*;GGGGGGGGGpippGGGGGGGGGGG",
"GGGGGGGGGGGGGZVVZVZeGGG,:=dddddf&&%%%&=;GGGGGGGppupppGGGGGGGGGGG",
"GGGGGGGGGGGGVVZZZZweGGGG>:====**&&%%&*=;GGGGGppuppupqGGGGGGGGGGG",
"GGGGGGGGGGGVZZZZZ6qGGGGGGG====**&&%%&*=:GGGGpippppqqwGGGGGGGGGGG",
"GGGGGGGGGGCCZZVq6qGGGGGGGGG,===*&&%%&*=GGGGGpupuqq66GGGGGGGGGGGG",
"GGGGGGGGGGMyewwq6GGGGGGGGGGG>==**&%%&*=GGGGGuyew6qGGGGGGGGGGGGGG",
"GGGGGGGGGGMtreqGGGGGGGGGGGGGG:==*&&%&*GGGGGGiyewGGGGGGGGGGGGGGGG",
"GGGGGGGGGGGGGGGGGGGGGGGGGGGGGG;=*&&%GGGGGGGGGGGGGGGGGGGGGGGGGGGG",
"GGGGGGGGGGGGGGGGGGGGGGGGGGGGGGGGGGGGGGGGGGGGGGGGGGGGGGGGGGGGGGGG",
"GGGGGGGGGGGGGGGGGGGGGGGGGGGGGGGGGGGGGGGGGGGGGGGGGGGGGGGGGGGGGGGG",
"GGGGGGGGGGGGGGGGGGGGGGGGGGGGGGGGGGGGGGGGGGGGGGGGGGGGGGGGGGGGGGGG",
"GGGGGGGGGGGGGGGGGGGGGGGGGGGGGGGGGGGGGGGGGGGGGGGGGGGGGGGGGGGGGGGG",
"GGGGGGGGGGGGGGGGGGGGGGGGGGGGGGGGGGGGGGGGGGGGGGGGGGGGGGGGGGGGGGGG"
};
