/* XPM */
static char * pooltable_b_xpm[] = {
"64 64 63 1",
" 	c None",
".	c #964814",
"+	c #873813",
"@	c #77360F",
"#	c #772706",
"$	c #954709",
"%	c #771C02",
"&	c #923908",
"*	c #852904",
"=	c #883706",
"-	c #9A5617",
";	c #852D12",
">	c #69260D",
",	c #A15D1C",
"'	c #8F4911",
")	c #772B13",
"!	c #56270E",
"~	c #391B13",
"{	c #4C2313",
"]	c #472607",
"^	c #452304",
"/	c #4C2B0D",
"(	c #38180B",
"_	c #531404",
":	c #681B05",
"<	c #4C2B13",
"[	c #341002",
"}	c #3C1401",
"|	c #270803",
"1	c #3D1B02",
"2	c #441C02",
"3	c #4B1D01",
"4	c #3A0D00",
"5	c #533517",
"6	c #2C0C03",
"7	c #180501",
"8	c #421401",
"9	c #000000",
"0	c #025301",
"a	c #009D00",
"b	c #059402",
"c	c #029A00",
"d	c #14A514",
"e	c #12A412",
"f	c #0DA20D",
"g	c #029E02",
"h	c #9B0601",
"i	c #F8EDED",
"j	c #059F05",
"k	c #09A109",
"l	c #7F827F",
"m	c #AFAFAF",
"n	c #146314",
"o	c #095B08",
"p	c #27008F",
"q	c #351651",
"r	c #F10202",
"s	c #6D0806",
"t	c #461A0B",
"u	c #522C14",
"v	c #421F11",
"w	c #4A240B",
"x	c #442414",
"                                                                ",
"                                                                ",
"..+@@@@@#$%#&&*=$-;>,.++');++-.&@>!))''''!~{'                   ",
"]^]]]/^==>=#(#$&&$&$@-.'.--,,+-.;_&'=&>>>!_:#.$                 ",
"<[}}|12[&)>!-,;+$-----)++-+>+))#$$=*$&![}}}3=_:                 ",
"11]/]^^21111}44}1^^111^^^]]^^11^]/5/]!!6|678]&$                 ",
"99999999}6797|6}8888}1111111[[1111111}}299^22$#$                ",
"99999999000000000000000000000000000aa9999999$=;@                ",
"bbbbbbbbbccaaaaaaacbbbbccaaaaaaaaaaaa99999#=$-.;                ",
"ddddeefccaaaaaaaaaaccbbbbbbcccccccccc99999##;))+                ",
"ggggaaaaaaccccccccaaaccbbhiibbbbbbbbbe9999+!;>);                ",
"jjjjjkkkkffffeeeffkjgaagjlmhffeeddddddnnn0'+@++;                ",
"ddddddddddddddddddefkj000l_aaagjjkfeddnnn0..+)'-.               ",
"ddddddddddddddddddddeefoo0aaaaaaagjkfennn0^;;&&&$               ",
"dddddddddddddddddddddddecbccjjjgaaagjkfnn0^%*&&$-               ",
"dddeeeeeeeeeefffeeddddddpppfffkkjgaaagjooo}*&*=-$               ",
"ee0offffkkkkkjjjkkfeddddqppdeeeefkjgaaa000}***#'=               ",
"fl0olkkjjjghraaaagjjknnnllmddddddefkjjg000[__:*:==              ",
"oolmmjjggalhrraaaaaajoon0bdddddddddeffkoo00:::=$&=              ",
"oo0cjggaaaalmmjjjgaaagjgbbbdddddddddddenoo0)))+.>+              ",
"0aaaaaaa00ossffffkjjaaaaggkeeeeddddddddnnn0^;++-+,              ",
"0iaaaaagjoobbbdddefkjgaaaajkkkkffeeddddnnn06;))-.+              ",
"00aaggjkffjbbfdddddefkjgaaagggjjjjkffeednnn6->.,.''             ",
"9gggjjkkfeekfddddddeffkjgaaaaaaaaaaggjjkooo8=%%$&>)             ",
"aajjjjkkkffeeeeeeeefffkkjjjggggggaaaaaaa000^__%%*=&             ",
"cajjjjjjjjkkkkkkkkkkkkppkkkkkkkkkkkkkkkkooo0)#*%%%*             ",
"aajjjjjgggggggaaagggjlqppfeeddddddddddddnnn0|4t#:%&             ",
"jjjjjjggaaaaaaaaaaaa0llmmdddddddddddddddnnn02888&&*             ",
"kkkjjjgaaaaaggjjjga000qqdddddddddddeeffkooo0}88^),$[            ",
"fffkkjgga-#:&$-$&*_!+..+=$==:>'==*##*:__a9999948...,            ",
"eeeefkjjg*$$-=_|4#'+>>+..$-=:|3***__#=:_:>99999+--,.            ",
"9999999*&,,.:@@!>@@@>)=--,$&&%__%%:%__:___%=**#!)-,-            ",
".-';;;;+.&;+>@!++'.;;_%*&$*%_**%*%::%#____%==*#*#-'             ",
"555u<u5555uu/{{<v~~~([[[[[}88822222^2228888822^^wu{             ",
"<xx<<<xxxw///wwxxv~~~~(1}[[}88}[[4[8822222[[6|((~5>             ",
"/5u/ww]]^^^^]///555555uw1[1^^228}[(}((((tvw/{u<<x5!             ",
"//ww]w//]]^1467776(~vxuuuu///wvv~vvvv~vvv<u5u{{{{u              ",
"55555uuu<{xv~vsss1s8{{{{{{{{{{{{{{{{{{{xv~~~~~~v[               ",
"5uuuuuuu{{v~v{///u55555u<////wwt^^^^22}}}}8}}7[|                ",
"((~((((v//ww^^221ttv{u<{([[[4}}222}[6||66666[}tv                ",
"u</wt([6|777|7|[1v<xxv~~~66|6666666666((v~vvxx~3                ",
"2^^}[[444448448882^]w/uuu{{t([6|||6(~vvvv{<<<<!                 ",
"/]//]^2}4[[[1882^^2^]/55555u/www{{uuuuuuuuu{(3_                 ",
"[66}2112]wttw/<<<x]]]]/55uu5555555<<<<<w(t84|[                  ",
"^^ww<<555uuu<<uuuux([[[[(~~~~vxv~<5u<v1[6[462>                  ",
"{</uu55555555<x{{{{{t1}}(vxx{xvvvvv(6|776[[[{                   ",
"{uuu{{{{{{{{{{{{{xvv~6||[(tvxxxv~((66|666[4'                    ",
"                                      244383                    ",
"                                     [443/3/                    ",
"                                     [2|4[83                    ",
"                                     }}38[33                    ",
"                                     22331/3                    ",
"                                     ]3/8}/                     ",
"                                     ^^42[3                     ",
"                                     23]}(|                     ",
"                                     ^338^6                     ",
"                                     4|3}[2                     ",
"                                     ]33|6/                     ",
"                                     //388w                     ",
"                                     5]334v                     ",
"                                     /43u}}                     ",
"                                     /2]232                     ",
"                                                                ",
"                                                                "};
