/* XPM */
static char *magick[] = {
/* columns rows colors chars-per-pixel */
"64 64 63 1",
"  c Gray0",
". c #080000",
"X c #0a0808",
"o c #100000",
"O c #190000",
"+ c #101010",
"@ c #1d1d1d",
"# c #210000",
"$ c #290000",
"% c #2d1919",
"& c #310000",
"* c #3a0000",
"= c #380a0a",
"- c Gray18",
"; c #470000",
": c #520000",
"> c #5a0000",
", c #630000",
"< c #6e0808",
"1 c #7b0808",
"2 c #722727",
"3 c Gray31",
"4 c #797979",
"5 c #8e0808",
"6 c #a00808",
"7 c #ad0808",
"8 c #a21313",
"9 c #b50c0c",
"0 c #bd0808",
"q c #c50808",
"w c #c11515",
"e c #ce1010",
"r c #d61010",
"t c #d61919",
"y c #de1010",
"u c #cd2424",
"i c #dc3a3a",
"p c #e61010",
"a c #ef1010",
"s c #eb1919",
"d c #f71010",
"f c #f71919",
"g c #ff1010",
"h c #ff1919",
"j c #ef2424",
"k c #f72121",
"l c #f72929",
"z c #ff2121",
"x c #ff2929",
"c c #ff3131",
"v c #ff3a3a",
"b c #e45353",
"n c #ff4242",
"m c Magenta",
"M c Gray58",
"N c #da8080",
"B c #c0a7a7",
"V c #f7bcbc",
"C c #ded7d7",
"Z c #fae6e6",
"A c Gray97",
"S c Gray100",
"D c None",
/* pixels */
"DDDDDDDDDDDDDDDDDDDDDDDDDDDDDDDDDDDDDDDDDDDDDDDDDDDDDDDDDDDDDDDD",
"DDDDDDDDDDDDDDDDDDDDDDDDDDDDDDDDDDDDDDDDDDDDDDDDDDDDDDDDDDDDDDDD",
"DDDDDDDDDDDDDDDDDDDDDDDDDDDDDDDDDDDDDDDDDDDDDDDDDDDDDDDDDDDDDDDD",
"DDDDDDDDDDDDDDDDDDDDDDDDDDDDDDDDDDDDDDDDDDDDDDDDDDDDDDDDDDDDDDDD",
"DDDDDDDDDDDDDDDDDDDDDDDDDDDDDDDDDDDDDDDDDDDDDDDDDDDDDDDDDDDDDDDD",
"DDDDDDDDDDDDDDDDDDDDDDDDDDDDDDDDDDDDDDDDDDDDDDDDDDDDDDDDDDDDDDDD",
"DDDDDDDDDDDDDDDDDDDDDDDDDDDDDDDDDDDDDDDDDDDDDDDDDDDDDDDDDDDDDDDD",
"DDDDDDDDDDDDDDDDDDDDDDDDDDDDDDDDDDDDDDDDDDDDDDDDDDDDDDDDDDDDDDDD",
"DDDDDDDDDDDDDDDDDDDDDDDDDDDDDDDDDDDDDDDDDDDDDDDDDDDDDDDDDDDDDDDD",
"DDDDDDDDDDDDDDDDDDDDDDDDDDDDDDDDDDDDDDDDDDDDDDDDDDDDDDDDDDDDDDDD",
"DDDDDDDDDDDDDDDDDDDDDDDDDDDDDDDDDDDDDDDDDDDDDDDDDDDDDDDDDDDDDDDD",
"DDDDDDDDDDDDDDDDDDDDDDDDDDDDDDDDDDDDDDDDDDDDDDDDDDDDDDDDDDDDDDDD",
"DDDDDDDDDDDDDDDDDDDDDDDDDDDDDDDDDDDDDDDDDDDDDDDDDDDDDDDDDDDDDDDD",
"DDDDDDDDDDDDDDDDDDDDDDDDDDDDDDDDDDDDDDDDDDDDDDDDDDDDDDDDDDDDDDDD",
"DDDDDDDDDDDDDDDDDDDDDDDDDDDDDDDDDDDDDDDDDDDDDDDDDDDDDDDDDDDDDDDD",
"DDDDDDDDDDDDDDDDDDDDDDDDDDDDDDDDDDDDDDDDDDDDDDDDDDDDDDDDDDDDDDDD",
"DDDDDDMMMMMMMMMMMMMMMMMMMMMMMMMMMMMMMMMMMMMMMMMMMMMMMMMMMMDDDDDD",
"DDDDDDM                                                  MDDDDDD",
"DDDDDDM                            M M M          +343+  MDDDDDD",
"DDDDDDM     M  M MM  M  M   M  M  M  M M          @4M4@  MDDDDDD",
"DDDDDDM     M  MM  M M  M   M MM  MM M M          +343+  MDDDDDD",
"DDDDDDM      MM M  M M  M    MM MM M M M           +@+   MDDDDDD",
"DDDDDDM      M  M  M M  M    MM MM M M M                 MDDDDDD",
"DDDDDDM      M   MM   MM #:# M   M M&M M                 MDDDDDD",
"DDDDDDM      M         O:8;        #55$                  MDDDDDD",
"DDDDDDM              .&8t;.         $wu<.                MDDDDDD",
"DDDDDDM             .>tl<            ;jj1o               MDDDDDD",
"DDDDDDM             :tcw#            .8cj,.              MDDDDDD",
"DDDDDDM            *tcj1.     oo.    .<jvt$              MDDDDDD",
"DDDDDDM            <kvs1.  .&;11<;#  #6kvs,              MDDDDDD",
"DDDDDDM            5kvle1:*<7qere96>19pzcs,              MDDDDDD",
"DDDDDDM            1kvvzsy0eypaaapr9efzxxy&              MDDDDDD",
"DDDDDDM            :pcnvxkyyadgggdpr0txxf7O              MDDDDDD",
"DDDDDDM            o5sxvnjpflvchhhkbbusfe*               MDDDDDD",
"DDDDDDM             &9fzlsanVZVbzxNZZNwe>.               MDDDDDD",
"DDDDDDM              &7yypkVSSSCnNZSSZb1o                MDDDDDD",
"DDDDDDM              .>9ydbSSSSSVVSSSAN5.                MDDDDDD",
"DDDDDDM              .<0pfNSSSSSZZSSSSB8o                MDDDDDD",
"DDDDDDM              .1epjVACBBAASZ43BB8o                MDDDDDD",
"DDDDDDM              .<eplVC3--MAAM@X-B8o                MDDDDDD",
"DDDDDDM              .>0pjVM@@@-CB3+X+4w:.               MDDDDDD",
"DDDDDDM               $6rsN4X+++NN-X @iy7*               MDDDDDD",
"DDDDDDM               $7pdbM+XX%ii%. 2lfe<.              MDDDDDD",
"DDDDDDM               :rdhzb2+%8lk9=<jxzp1o              MDDDDDD",
"DDDDDDM               >ydzvniuujvxsilxzhp<.              MDDDDDD",
"DDDDDDM               &0ahxxxzksffsffapr6$               MDDDDDD",
"DDDDDDM               o>9eyyyyre099665,:O                MDDDDDD",
"DDDDDDM M              .$&*>,,>$&$$#OO.               M  MDDDDDD",
"DDDDDDM M                           M  MM             M  MDDDDDD",
"DDDDDDM MMM   MM     MM  MMM  MM MM    M   MM  MM   MMM  MDDDDDD",
"DDDDDDM M  M M  M   MM  M  M M   M  M  M  M   M  M M  M  MDDDDDD",
"DDDDDDM M  M MMMM    MM M  M M   M  M MMM M   MMMM M  M  MDDDDDD",
"DDDDDDM M  M M      M M M  M M   M  M  MM M   M    M  M  MDDDDDD",
"DDDDDDM MMM   MMM    MM  MMM  MM M  M  MM  MM  MMM  MMM  MDDDDDD",
"DDDDDDM                                                  MDDDDDD",
"DDDDDDMMMMMMMMMMMMMMMMMMMMMMMMMMMMMMMMMMMMMMMMMMMMMMMMMMMMDDDDDD",
"DDDDDDDDDDDDDDDDDDDDDDDDDDDDDDDDDDDDDDDDDDDDDDDDDDDDDDDDDDDDDDDD",
"DDDDDDDDDDDDDDDDDDDDDDDDDDDDDDDDDDDDDDDDDDDDDDDDDDDDDDDDDDDDDDDD",
"DDDDDDDDDDDDDDDDDDDDDDDDDDDDDDDDDDDDDDDDDDDDDDDDDDDDDDDDDDDDDDDD",
"DDDDDDDDDDDDDDDDDDDDDDDDDDDDDDDDDDDDDDDDDDDDDDDDDDDDDDDDDDDDDDDD",
"DDDDDDDDDDDDDDDDDDDDDDDDDDDDDDDDDDDDDDDDDDDDDDDDDDDDDDDDDDDDDDDD",
"DDDDDDDDDDDDDDDDDDDDDDDDDDDDDDDDDDDDDDDDDDDDDDDDDDDDDDDDDDDDDDDD",
"DDDDDDDDDDDDDDDDDDDDDDDDDDDDDDDDDDDDDDDDDDDDDDDDDDDDDDDDDDDDDDDD",
"DDDDDDDDDDDDDDDDDDDDDDDDDDDDDDDDDDDDDDDDDDDDDDDDDDDDDDDDDDDDDDDD"
};
