/* XPM */
static char * poster_gates_felon_xpm[] = {
"64 64 65 1",
" 	c None",
".	c #131616",
"+	c #7F7C75",
"@	c #334980",
"#	c #BDB29F",
"$	c #AA996F",
"%	c #784E29",
"&	c #4C2E19",
"*	c #A47C46",
"=	c #60645F",
"-	c #30302C",
";	c #826533",
">	c #C29A60",
",	c #594931",
"'	c #D2CCC7",
")	c #A88D50",
"!	c #9C6534",
"~	c #5A574B",
"{	c #C0A46A",
"]	c #293260",
"^	c #908F8B",
"/	c #7D7368",
"(	c #2E1A0C",
"_	c #D7D5D0",
":	c #D1B184",
"<	c #BA9052",
"[	c #23241F",
"}	c #453F31",
"|	c #977C41",
"1	c #B88247",
"2	c #A9A69F",
"3	c #6D4D25",
"4	c #CBA874",
"5	c #3B3D34",
"6	c #7D5B2F",
"7	c #654020",
"8	c #585A5D",
"9	c #707066",
"0	c #CBBEAD",
"a	c #9E713D",
"b	c #494741",
"c	c #2F3E7B",
"d	c #91723C",
"e	c #A19C94",
"f	c #908373",
"g	c #8F6635",
"h	c #BABCB2",
"i	c #2C2822",
"j	c #8E5C2C",
"k	c #573B1B",
"l	c #6D6860",
"m	c #92522C",
"n	c #6F5A39",
"o	c #4C4F4D",
"p	c #A68449",
"q	c #565049",
"r	c #A48F74",
"s	c #AD743A",
"t	c #665C54",
"u	c #808484",
"v	c #171B1C",
"w	c #7D6A57",
"x	c #BAA786",
"y	c #1F2847",
"z	c #38332C",
"                                                                ",
"                                                                ",
"                                                                ",
"                                                                ",
"                                                                ",
"                                                                ",
"                                                                ",
"                                                                ",
"                                                                ",
"                                                                ",
"                                                                ",
"                                                                ",
"                                                                ",
"                                                                ",
"                                                                ",
"                                                                ",
"                  '''''''''hh$|;;n633f0''''''''                 ",
"                  ________04$);7kkk,&6)_______'                 ",
"                  '_____''$)p);3&&kkz,d$_______                 ",
"                  ______'$|p)d|3kkkz&3n|h_____'                 ",
"                  '_____h)|)))|3|n3kk3;;)______                 ",
"                  _____'2|;))ddjp;n733|||0___''                 ",
"                  '____h)n6|)dppp*ag;gd|)$_____                 ",
"                  _____h|766ng14p>pppg|gda'__''                 ",
"                  '___'$w,%7&%<<{>>jjjd;6a0____                 ",
"                  ____'f;;,&&6>):44a*j7&%6g__''                 ",
"                  '___'fd|&k%jp0d:|<r!7&7n6____                 ",
"                  ____'$6;k3m!g<*)a1*sm7%7d'_''                 ",
"                  '___'$d3%jj*<<s4>s11sj77r____                 ",
"                  ____'$d3%d<11<<{>1111g&k4'_''                 ",
"                  '____e66!p<:::>4:>:4<>j6''___                 ",
"                  ____'xn3:<<4:4>>>>44<<gp'__'0                 ",
"                  '_'__'$zn;<>4>444>44<&,#'____                 ",
"                  '_'_''0f&&<4:s>:41141ir'__'_0                 ",
"                  '___''_#q(g<>414>1><6d0'_____                 ",
"                  ''_''_'_f}6s>4>><>>s6#'_'__'0                 ",
"                  ''__'_''$n6a!>:::41*r''_'____                 ",
"                  _'_'''_hr~n>s!4:4<s>%f'_'__'0                 ",
"                  ''__''_#$q%{>s!a!a<>f3$'_'__'                 ",
"                  _'_'_''#rw!>4<>>><>>*t4'_'_'0                 ",
"                  h_'''2^++fa>4>4:4>>>gr00'_'__                 ",
"                  _'h^8@coo~l>4>{{{>4>*#:qx'''0                 ",
"                  2u@@cccobffxx444x4{rrrfic8e''                 ",
"                  @@cccc@z[q+er4x44:$nqd~vccc8u                 ",
"                  c@@ccc=]..}/efx4:rw~t[}]]cccc                 ",
"                  @@ccyyov..v[d+e:r+d+}.zc]ccc]                 ",
"                  vvv..]y......i}qbz[...(zyy]cc                 ",
"                  vv..v5.................z.....                 ",
"                  .vvv-v.................ii..v.                 ",
"                  ...v-v..................z....                 ",
"                  ..vy-.v.................-....                 ",
"                  .v[====9=+9l8==q+uufu++l/qi..                 ",
"                  .v5e5bbo5b5b555zbz5}b}q55f8v.                 ",
"                  v[82^^^heh^2h22^2iq2u^2r5q~..                 ",
"                  .[^0bb}5555555b}o[-}-zqbibq..                 ",
"                  v-$0,9o^8=[[58^~^}iuq=qlvqq..                 ",
"                  .-e'}t8o~=v[o^/u2z[eb2+2.qq..                 ",
"                  v-f#}i[[v[[[z9e=2o[^8+/^[bo..                 ",
"                  .[l^zii[[[[[[i[[[[i[[v[v[bb..                 ",
"                  vv=+ii[i[[bo[zoi[bo[[vv[vqq..                 ",
"                  .v8/iii--i^e[~e=[9/[[v[v(qo..                 ",
"                  vv~9}q=fw~~8bbqbqb5z--ii-ob..                 ",
"                  ..-89+^#2ee2^bbleeee^u+=l8v..                 ",
"                                                                "};
