/* XPM */
static char *magick[] = {
/* columns rows colors chars-per-pixel */
"64 64 10 1",
"  c #5a5a5a",
". c Gray42",
"X c #7b7b7b",
"o c Gray58",
"O c #a5a5a5",
"+ c Gray71",
"@ c #cecece",
"# c Gray87",
"$ c #efefef",
"% c Gray100",
/* pixels */
"                                                                ",
"............................................................... ",
".XXXXXXXXXXXXXXXXXXXXXXXXXXXXXXXXXXXXXXXXXXXXXXXXXXXXXXXXXXXXX. ",
".XoooooooooooooooooooooooooooooooooooooooooooooooooooooooooooX. ",
".XoOOOOOOOOOOOOOOOOOOOOOOOOOOOOOOOOOOOOOOOOOOOOOOOOOOOOOOOOOoX. ",
".XoO+++++++++++++++++++++++++++++++++++++++++++++++++++++++OoX. ",
".XoO+@@@@@@@@@@@@@@@@@@@@@@@@@@@@@@@@@@@@@@@@@@@@@@@@@@@@@+OoX. ",
".XoO+@###################################################@+OoX. ",
".XoO+@#$$$$$$$$$$$$$$$$$$$$$$$$$$$$$$$$$$$$$$$$$$$$$$$$$#@+OoX. ",
".XoO+@#$                                               $#@+OoX. ",
".XoO+@#$ %%%%%%%%%%%%%%%%%%%%%%%%%%%%%%%%%%%%%%%%%%%%% $#@+OoX. ",
".XoO+@#$ %%%%%%%%%%%%%%%%%%%%%%%%%%%%%%%%%%%%%%%%%%%%% $#@+OoX. ",
".XoO+@#$ %%%%%%%%%%%%%%%%%%%%%%%%%%%%%%%%%%%%%%%%%%%%% $#@+OoX. ",
".XoO+@#$ %%%%%%%%%%%%%%%%%%%%%%%%%%%%%%%%%%%%%%%%%%%%% $#@+OoX. ",
".XoO+@#$ %%%%%%%%%%%%%%%%%%%%%%%%%%%%               %% $#@+OoX. ",
".XoO+@#$ %%%%%%%%%%%%%%%%%%%%%%%%%%%% ############# %% $#@+OoX. ",
".XoO+@#$ %%%%%%%%%%%%%%%%%%%%%%%%%%%% ############# %% $#@+OoX. ",
".XoO+@#$ %%%%%%%%%%%%%%%%%%%%%%%%%%%% ############# %% $#@+OoX. ",
".XoO+@#$ %%%%%%%%%%%%%%%%%%%%%%%%%%%% ############# %% $#@+OoX. ",
".XoO+@#$ %%%%%%%%%%%%%%%%%%%%%%%%%%%% ############# %% $#@+OoX. ",
".XoO+@#$ %%%%%%%%%%%%%%%%%%%%%%%%%%%% ############# %% $#@+OoX. ",
".XoO+@#$ %%%%%%%%%%%%%%%%%%%%%%%%%%%% ############# %% $#@+OoX. ",
".XoO+@#$ %%%%%%%%%%%%%%%%%%%%%%%%%%%% ############# %% $#@+OoX. ",
".XoO+@#$ %%%%%%%%%%%%%%%%%%%%%%%%%%%% ############# %% $#@+OoX. ",
".XoO+@#$ %%%%%%%%%%%%%%%%%%%%%%%%%%%% ############# %% $#@+OoX. ",
".XoO+@#$ %%%%%%%%%%%%%%%%%%%%%%%%%%%% ############# %% $#@+OoX. ",
".XoO+@#$ %%%%%%%%%%%%%%%%%%%%%%%%%%%% ############# %% $#@+OoX. ",
".XoO+@#$ %%%%%%%%%%%%%%%%%%%%%%%%%%%% ############# %% $#@+OoX. ",
".XoO+@#$ %%%%%%%%%%%%%%%%%%%%%%%%%%%% ############# %% $#@+OoX. ",
".XoO+@#$ %%%%%%%               %%%%%% ############# %% $#@+OoX. ",
".XoO+@#$ %%%%%%% ############# %%%%%% ############# %% $#@+OoX. ",
".XoO+@#$ %%%%%%% ############# %%%%%% ############# %% $#@+OoX. ",
".XoO+@#$ %%%%%%% ############# %%%%%% ############# %% $#@+OoX. ",
".XoO+@#$ %%%%%%% ############# %%%%%% ############# %% $#@+OoX. ",
".XoO+@#$ %%%%%%% ############# %%%%%% ############# %% $#@+OoX. ",
".XoO+@#$         ############# %%%%%% ############# %% $#@+OoX. ",
".XoO+@#$ ####### ############# %%%%%% ############# %% $#@+OoX. ",
".XoO+@#$ ####### ############# %%%%%% ############# %% $#@+OoX. ",
".XoO+@#$ ####### ############# %%%%%% ############# %% $#@+OoX. ",
".XoO+@#$ ####### ############# %%%%%% ############# %% $#@+OoX. ",
".XoO+@#$ ####### ############# %%%%%%               %% $#@+OoX. ",
".XoO+@#$ #######               %%%%%%%%%%%%%%%%%%%%%%% $#@+OoX. ",
".XoO+@#$ ############# %%%%%%%%%%%%%%%%%%%%%%%%%%%%%%% $#@+OoX. ",
".XoO+@#$ ############# %%%%%%%%%%%%%%%%%%%%%%%%%%%%%%% $#@+OoX. ",
".XoO+@#$ ############# %%%%%%%%%%%%%%%%%%%%%%%%%%%%%%% $#@+OoX. ",
".XoO+@#$ ############# %%%%%%%%%%%%%%%%%%%%%%%%%%%%%%% $#@+OoX. ",
".XoO+@#$ ############# %%%%%%%%%%%%%%%%%%%%%%%%%%%%%%% $#@+OoX. ",
".XoO+@#$ ############# %%%%%%%%%%%%%%%%%%%%%%%%%%%%%%% $#@+OoX. ",
".XoO+@#$ ############# %%%%%%%%%%%%%%%%%%%%%%%%%%%%%%% $#@+OoX. ",
".XoO+@#$ ############# %%%%%%%%%%%%%%%%%%%%%%%%%%%%%%% $#@+OoX. ",
".XoO+@#$ ############# %%%%%%%%%%%%%%%%%%%%%%%%%%%%%%% $#@+OoX. ",
".XoO+@#$ ############# %%%%%%%%%%%%%%%%%%%%%%%%%%%%%%% $#@+OoX. ",
".XoO+@#$ ############# %%%%%%%%%%%%%%%%%%%%%%%%%%%%%%% $#@+OoX. ",
".XoO+@#$                                               $#@+OoX. ",
".XoO+@#$ ############################################# $#@+OoX. ",
".XoO+@#$                                               $#@+OoX. ",
".XoO+@#$$$$$$$$$$$$$$$$$$$$$$$$$$$$$$$$$$$$$$$$$$$$$$$$$#@+OoX. ",
".XoO+@###################################################@+OoX. ",
".XoO+@@@@@@@@@@@@@@@@@@@@@@@@@@@@@@@@@@@@@@@@@@@@@@@@@@@@@+OoX. ",
".XoO+++++++++++++++++++++++++++++++++++++++++++++++++++++++OoX. ",
".XoOOOOOOOOOOOOOOOOOOOOOOOOOOOOOOOOOOOOOOOOOOOOOOOOOOOOOOOOOoX. ",
".XoooooooooooooooooooooooooooooooooooooooooooooooooooooooooooX. ",
".XXXXXXXXXXXXXXXXXXXXXXXXXXXXXXXXXXXXXXXXXXXXXXXXXXXXXXXXXXXXX. ",
"............................................................... "
};
