/* XPM */
static char *magick[] = {
/* columns rows colors chars-per-pixel */
"64 64 56 1",
"  c Gray0",
". c #101010",
"X c #111111",
"o c Gray11",
"O c #1d1d1d",
"+ c #1e1e1e",
"@ c Gray13",
"# c Gray14",
"$ c Gray15",
"% c #282828",
"& c Gray16",
"* c #2a2a2a",
"= c Gray17",
"- c #2c2c2c",
"; c Gray18",
": c #2f2f2f",
"> c Gray19",
", c #323232",
"< c Gray20",
"1 c #3f3f3f",
"2 c Gray25",
"3 c Gray26",
"4 c #484848",
"5 c #494949",
"6 c Gray29",
"7 c Gray33",
"8 c #555555",
"9 c Gray35",
"0 c #5a5a5a",
"q c #5d5d5d",
"w c Gray37",
"e c #5f5f5f",
"r c Gray38",
"t c #626262",
"y c Gray40",
"u c #676767",
"i c #636e6e",
"p c Gray41",
"a c Gray45",
"s c Gray49",
"d c #209c9c",
"f c #2edede",
"g c #68b7b7",
"h c #7ba9a9",
"j c #42d1d1",
"k c #56c3c3",
"l c Magenta",
"z c #818181",
"x c #848484",
"c c Gray53",
"v c #8b8b8b",
"b c #8e8e8e",
"n c #8d9d9d",
"m c Gray57",
"M c #959595",
"N c None",
/* pixels */
"o@a0  .3,NNNNNNNNNNNNNNNNNNNNNNNNNNNNNNNNNNNNNNNNNNNNNN,3.  0a@o",
"5:aq..#03NNNNNNNNNNNNNNNNNNNNNNNNNNNNNNNNNNNNNNNNNNNNNN30#..qa:5",
"5*u7..o5*NNNNNNNNNNNNNNNNNNNNNNNNNNNNNNNNNNNNNNNNNNNNNN*5o..7u*5",
"1*u7..o5#uNNNNNNNNNNNNNNNNNNNNNNNNNNNNNNNNNNNNNNNNNNNNN#5o..7u*1",
"1*u7..o5: NNNNNNNNNNNNNNNNNNNNNNNNNNNNNNNNNNNNNNNNNNNN :5o..7u*1",
"1*u7..o5* NNNNNNNNNNNNNNNNNNNNNNNNNNNNNNNNNNNNNNNNNNNN *5o..7u*1",
"1*u7..o5*       NNNNNNNNNNNNNNNNNNNNNNNNNNNNNNNN       *5o..7u*1",
"1*u7..o5* djkghi            NNNNNNNN            ihgkjd *5o..7u*1",
"1*u7..o5* fjkghnMmb 3313133 NNNNNNNN 3313131 bmMnhgkjf *5o..7u*1",
"1*u7..o5*       pmbt  33313 NNNNNNNN 31313  tbmp       *5o..7u*1",
"1*u7..o5*          vct   33 NNNNNNNN 33   tcv          *5o..7u*1",
"1*u7..o5* 33313333  qc      NNNNNNNN      cq  33333133 *5o..7u*1",
"1*u7..o5*1313131131  qzs7   NNNNNNNN   7szq  3311313131*5o..7u*1",
"1*u7..o5*3131313313         NNNNNNNN         3133131313*5o..7u*1",
"1*u7..o4:3313131133       3 NNNNNNNN 3       1311313133:5o..7u*1",
"1*u7..o4*313131331313331333 NNNNNNNN 331333333133131313*5o..7u*1",
"1*u7..o5*133133313331331331 NNNNNNNN 333333333331331331*4o..7u*1",
"1*u7..o5:                   NNNNNNNN                   :5o..7u*1",
"1*u7..o5,iiiiiiiiiiiiiiiiiiiNNNNNNNNiiiiiiiiiiiiiiiiiii:5o..7u*1",
"1*u7..o5:NNNNNNNNNNNNNNNNNNNNNNNNNNNNNNNNNNNNNNNNNNNNNN,5o..7u*1",
"1*u7..o5,NNNNNNNNNNNNNNNNNNNNNNNNNNNNNNNNNNNNNNNNNNNNNN,5o..7u*1",
"1*u7..o5:NNNNNNNNNNNNNNNNNNNNNNNNNNNNNNNNNNNNNNNNNNNNNN:5o..7u*1",
"1*u7..o5,NNNNNNNNNNNNNNNNNNNNNNNNNNNNNNNNNNNNNNNNNNNNNN,5o..7u*1",
"1*u7..o5,NNNNNNNNNNNNNNNNNNNNNNNNNNNNNNNNNNNNNNNNNNNNNN,5o..7u*1",
"1*u7..o5,NNNNNNNNNNNNNNNNNNNNNNNNNNNNNNNNNNNNNNNNNNNNNN:5o..7u*1",
"1*u7..o5,NNNNNNNNNNNNNNNNNNNNNNNNNNNNNNNNNNNNNNNNNNNNNN,5o..7u*1",
"1*u7..o5,NNNNNNNNNNNNNNNNNNNNNNNNNNNNNNNNNNNNNNNNNNNNNN,5o..7u*1",
"1*u7..o5,NNNNNNNNNNNNNNNNNNNNNNNNNNNNNNNNNNNNNNNNNNNNNN,5o..7u*1",
"1*u7..o5:NNNNNNNNNNNNNNNNNNNNNNNNNNNNNNNNNNNNNNNNNNNNNN,5o..7u*1",
"1*u7..o5,NNNNNNNNNNNNNNNNNNNNNNNNNNNNNNNNNNNNNNNNNNNNNN,5o..7u*1",
"1*u7..o5,NNNNNNNNNNNNNNNNNNNNNNNNNNNNNNNNNNNNNNNNNNNNNN,5o..7u*1",
"1*u7..o5,NNNNNNNNNNNNNNNNNNNNNNNNNNNNNNNNNNNNNNNNNNNNNN,5o..7u*1",
"1*u7..o5,NNNNNNNNNNNNNNNNNNNNNNNNNNNNNNNNNNNNNNNNNNNNNN,5o..7u*1",
"1*u7..o5,NNNNNNNNNNNNNNNNNNNNNNNNNNNNNNNNNNNNNNNNNNNNNN,5o..7u*1",
"1*u7..o5,NNNNNNNNNNNNNNNNNNNNNNNNNNNNNNNNNNNNNNNNNNNNNN,5o..7u*1",
"1*u7..o5,NNNNNNNNNNNNNNNNNNNNNNNNNNNNNNNNNNNNNNNNNNNNNN,5o..7u*1",
"1*u7..o5,uNNNNNNNNNNNNNNNNNNNNNNNNNNNNNNNNNNNNNNNNNNNNN,5o..7u*1",
"1*u7..o5, NNNNNNNNNNNNNNNNNNNNNNNNNNNNNNNNNNNNNNNNNNNN :5o..7u*1",
"1*u7..o4, NNNNNNNNNNNNNNNNNNNNNNNNNNNNNNNNNNNNNNNNNNNN ,5o..7u*1",
"1*u7..o4,       NNNNNNNNNNNNNNNNNNNNNNNNNNNNNNNN       ,5o..7u*1",
"1*u7..o5, djkghi            NNNNNNNN            ihgkjd :5o..7u*1",
"1*u7..o5, fjkghnMmb 3333313 NNNNNNNN 3333133 bmMnhgkjf ,5o..7u*1",
"1*u7..o5,       pmbt  13333 NNNNNNNN 33333  tbmp       ,5o..7u*1",
"1*u7..o5,          vct   13 NNNNNNNN 31   tcv          :5o..7u*1",
"1*u7..o5, 31313131  qc      NNNNNNNN      cq  13331331 ,5o..7u*1",
"1*u7..o5:3131313133  qzs7   NNNNNNNN   7szq  3313131133:5o..7u*1",
"1*u7..o5,1313131313         NNNNNNNN         3131313313,5o..7u*1",
"1*u7..o5:3131313133       3 NNNNNNNN 3       3313131131,5o..7u*1",
"1*u7..o5,313131313131313131 NNNNNNNN 313131313131313131,4o..7u*1",
"1*u7..o5:333313133313133313 NNNNNNNN 133313331333131333:5o..7u*1",
"1*u7..o5,                   NNNNNNNN                   :5o..7u*1",
"1*u7..o5:iiiiiiiiiiiiiiiiiiiNNNNNNNNiiiiiiiiiiiiiiiiiii,5o..7u*1",
"1*u7..o5,NNNNNNNNNNNNNNNNNNNNNNNNNNNNNNNNNNNNNNNNNNNNNN,5o..7u*1",
"1*u7..o5,NNNNNNNNNNNNNNNNNNNNNNNNNNNNNNNNNNNNNNNNNNNNNN:5o..7u*1",
"1*u7..o5:NNNNNNNNNNNNNNNNNNNNNNNNNNNNNNNNNNNNNNNNNNNNNN,5o..7u*1",
"1*u7..o5,NNNNNNNNNNNNNNNNNNNNNNNNNNNNNNNNNNNNNNNNNNNNNN,5o..7u*1",
"1*u7..o5,NNNNNNNNNNNNNNNNNNNNNNNNNNNNNNNNNNNNNNNNNNNNNN:5o..7u*1",
"1*u7..o5:NNNNNNNNNNNNNNNNNNNNNNNNNNNNNNNNNNNNNNNNNNNNNN,5o..7u*1",
"1*u7..o5,NNNNNNNNNNNNNNNNNNNNNNNNNNNNNNNNNNNNNNNNNNNNNN,5o..7u*1",
"1*u7..o5:NNNNNNNNNNNNNNNNNNNNNNNNNNNNNNNNNNNNNNNNNNNNNN:5o..7u*1",
"1*u7..o5,NNNNNNNNNNNNNNNNNNNNNNNNNNNNNNNNNNNNNNNNNNNNNN,5o..7u*1",
"1*u7..o5,NNNNNNNNNNNNNNNNNNNNNNNNNNNNNNNNNNNNNNNNNNNNNN,5o..7u*1",
"1*u7..o5:NNNNNNNNNNNNNNNNNNNNNNNNNNNNNNNNNNNNNNNNNNNNNN,5o..7u*1",
"1oq5  .1,NNNNNNNNNNNNNNNNNNNNNNNNNNNNNNNNNNNNNNNNNNNNNN,1.  5qo1"
};
