/* XPM */
static char * rockice_xpm[] = {
"64 64 65 1",
" 	c None",
".	c #1E2334",
"+	c #8692BA",
"@	c #4E5A7B",
"#	c #BECBF8",
"$	c #9EAEDA",
"%	c #6E769A",
"&	c #363E58",
"*	c #96A3CD",
"=	c #5E6A8C",
"-	c #D6E6FC",
";	c #AEBEEA",
">	c #7E86AB",
",	c #464E6C",
"'	c #8E9AC4",
")	c #A6B6E3",
"!	c #7680A5",
"~	c #566283",
"{	c #2E344C",
"]	c #CEDBFC",
"^	c #3E4763",
"/	c #E6F6FC",
"(	c #6E7296",
"_	c #BEC6F4",
":	c #858EB6",
"<	c #8E95BE",
"[	c #9EAAD5",
"}	c #B6C6F4",
"|	c #262B3E",
"1	c #C6D3FC",
"2	c #A6B0DC",
"3	c #767AA1",
"4	c #667294",
"5	c #4E5674",
"6	c #DEEEFC",
"7	c #F6FEFC",
"8	c #363A54",
"9	c #D6E2FC",
"0	c #EEFEFC",
"a	c #565D7D",
"b	c #666C8F",
"c	c #B6C0ED",
"d	c #868AB3",
"e	c #4E5271",
"f	c #969EC8",
"g	c #AEB8E5",
"h	c #7E82A8",
"i	c #5E6587",
"j	c #464A67",
"k	c #262639",
"l	c #C6CEFC",
"m	c #3E415A",
"n	c #9EA6D1",
"o	c #363654",
"p	c #2E2E44",
"q	c #DEE9FC",
"r	c #D6DEFC",
"s	c #EEF8FC",
"t	c #CED6FC",
"u	c #E6F1FC",
"v	c #8696BE",
"w	c #6E7A9E",
"x	c #7E8AB1",
"y	c #465270",
"z	c #8E9EC8",
">x:ab(xxd+:+<2g{&!!!!!!!<'c_44_c8xd:+[2'b(:22gg;c++<++>b^2c_|p!>",
">::++4x>x:>!z);8=b%i%!:vvf[#%c}#f>xxf*$+>xx:zf$));:+bxa^^2;;}#,j",
"y5a~vvx!>!>:v*2e=%=@iiba+v'#0;c}}>+zzn[2>x++z[n$$n:@~~a^j*2;c}_#",
"#l~ib:!z!!x>wv[=%%~=~@@x:+vn#1+_}>~~**[$x+=4w++<:xv%b4=j5y)2;;c_",
"l111=:4wvn**4(**[4~i,,xx:+v+}#1vvjwi++v'zbv'**fn2;:4i4@jy@@22;;_",
"w!x++if:v+z$w^'z*[*,^www!hxx;}}:^5%1!!x>;v:+f'*[}]x~~,,^^55@~=b4",
"!>:+@==iivn$r^,v+''[ww!!>++v'v'&@~!w!w]-q;':+f))#rxy,@^^jyy5ai4!",
":+++@ai==4x-9]mx:+*vfn%!+v:<vv@jy~%ww]9q6qc;$$2;};&y,@^^^,eya=%>",
"vxvj@@~%b4x-96&=xx+:*'[#++:'v=^@e^,%w]-quu/1)$]]#;&e~@,j^,yj@iwx",
"x>*yyai!w4w//6:w*>x**vc}cxxv4&y^^,^4w-q6u//rgv;}21~5ia^y&,,^@4>+",
"xx^5i~=!+ww//6++=(4f*}}$2225j&,,&^^b:zu/ss00*'gc*]=,=@,y^,^,@=!+",
"!8,@=i%+!!!qqu/+>4v'[***$)1=8{^8&&&y@fu/00/u9++;c}q@=a^,,ey,a4!!",
"!o^~wxw%ww:q-6qv!!'v*+z2$h+=8{^888&ye!v]6s6/1xx;g;6@=a^,&@55~4=%",
"8&^~!vzwwww9-69!!![$}_$;vxl1~@^^8&i4@=:1s/u611'v+'g~b~,&^55@bai4",
"&&,bd***w!w$;#1'vf!hv*'$3!!1-^^^^===~ivv//uq1#x>w')~b~^^5@a@5@~=",
"&y5=w:$*www[$2;xz%w!>2tqwx!]6z^^,=ii=~x'1699u#}!:'[=~@^^~~@y,5~m",
"55~bwxv*f%*n[[%b=w%!$);1ww>4-z)j=i~~=~>'z-]9/_}#w+[~b~aa=i^^y@j^",
"@~=4w>:':!*z**%a4wwf2[2==4>b92)2=@~~bb>:+]1}]$;#d$c%4%%~ibj5e5,a",
"ibbw!>x+'!)}#*~@5xvv[[$y=4xi+-);**b44~>x:'#}]])}}i;!w==*v^^,eyii",
"44ww!!vxv#)#2^ba~!x+'*nya~+~+t[2**z4%=!xzz#;)1:_*[5+;_t#'x:y5=bb",
"%w!!>!!!+#)};@4ia!xv+**b4!x%4vf>:*fz4+!xzv'$l1:11ib4x:';$x>$,444",
"xx!x4wwx;_#;}:=!i%>>f'==b44x4wv$w%z'z:!+v++3wi[)g~~~>x;gg!!]96=b",
"++++>>>x;}11g!i$~w>v>+i~=%>!(x>$$%x>v$!x:!w!wi*;@~h5>$));!!]9/0%",
"0+x+!>xx}}11zx8@{!>vx+@==%x!!x[vvvbw>$:w+v!!x+~;@5i=4f))g;z]9/07",
"7#xv!>v+!!'1>@^=+w+w!x~~i%w4>xn9$''!>':wdv==i:+ey5~==::zn)9]9s07",
"#;;;v+v:!zv*/;xv+>@%w%a~=4!'x*nr['+v:'vwa>'4@==,,~=bx4@'[)#>9/07",
"#;)gc1v:!*n6/+vc#-i4@~~~=@!!z**]9''$v+!@=vz:,yl]yiw!>4@+[g#]v$0x",
"*)$$;]-!2)$s6x:]}}~~>[~i=w%wf)[]]$$''z!4=v=%yy+-4!!!b4!a*)1]9w!!",
"<$;<)#$55f**2>x1$;5@=n[ib4%w*)n[rc'':>:=b4%w!!z]xw>!4%wa~$#1#ww'",
"':**zfzy5zfz*5@e#+v~~!*;;44!**[zgg;':@!i@%ww>)+vrv!x4ww@!bw$;,nf",
"v++fz'z^b''zzy,,:!24=~b+:*!x++*[#)g'g^=~~aw!cc+v*+'ww!!!!bw**%wv",
"<++z*'ji=v'''^^,i!:4*iw%x+$):zz*2}*x4^~==i%wz1t+'vv!3!!w!4w'y2v<",
"++++*'^i=b'::^jy=!x+***lv+zg;vvv[)*x8y5=wd%v*[1znf!ww!!x44wvx[$+",
"v+v++'~=a~xx@,^ji,>vc1;1#11*;gvvv*1:=4i~w4!x*n$]z*:!!!x=b4%,!*[2",
"2<+++y@a@:@@{,^^a^x'#}}$n*$##f*['>$=*ib%>x!x+[[#}:1]1$)4%!d5@;}_",
"1xxx<*~~~:~{{&&m,^:*[2$;**c)11)n*&i+-$=!>=:vz*[2;yv1ll$i=w:@a###",
"11dzvwa~a@a{{&^^~e:+n$c$*2)2$$2}!@i;9-)6>~=+'*)$1!!#]2ga=!~i~11t",
"]1]'<www)i{{&,^i=%!:v*[z*z'**!%[w%';r9;6s!44+f**!xv#1;$~ax==gc;t",
";]11'w%@%,^{^==4%w!>:zzv*zz'f(wv+~3fq9-}7c==4'+'}*'@}l$$:~i4)c;g",
")))11w4@{^^^$4=%w!v!+v+'''fzb%iww@~~19u/v$[=4bzg#':!~~$n:~=%g)g;",
")g))):%z8,,+[$$w!>x'+v++'zv'4!%i4:w=$;us[v22i%w;;'f%~i>2!~=$2)))",
"2):g2xb={{^vz**$$!>xf*++v>v@4i~@!!!+$)/s*g)))4!x11ff!a4++^y,$222",
"2xx)):v=~~a++<*[**$:*$#ch:+(==@a!!x+n#16r*nf))!:xzww@~+z*#1i!$22",
")xx:::84(~=+'vv'f*[2)[;#$+>i~@@i!!:+!;c/#$*lg)]>:[w!ia+f>]u/0>$)",
">xxx>w8%,i%w'++v**$[$1q+$$=a^@@=%v:vxn));+$$#:v=z;c+z*z[*9///00:",
"+=w4~w-5e&=%fx+:vz*[c1]1$[;^^5=4b'nn>*)g}+v*h:a=c;}**$zvz26/0/7s",
">&+xb#--~x%!=h>xvz*$c1;2}**~,=4%x+z[+)2;[x:'!yb=g);nnf2+z}'*$))n",
">&5^=6tq-x>y&%!:+v'*4*;_f/*[:>x!x+fv!+*][z++5@i~)g;;[$$v2$>n[g)n",
"8&y^(1--q/x:mw!:i=i%+$2'-/0$xx!>xvvx!++)))+y:@=a+2;_v2[[22v:[$1)",
"&mj^4%[6u/76w55~~~=!*[$]6/70)+!!x+vx!+v*))~>x,~@:v)c[[$[))'v11]a",
"8&&+++!v/0qs@5yya~4:+4_lu7770!!!!!>+!+++3!!!x^@a>'*;g$[2;#'911#@",
"{8&:+:(x+7su6@,eye3!>z;l/70070x!>!v+v:+w%v9-x:ix>vf;g$c}ll$]]#e{",
"{&8xx%!xv*009a@@~,4%z<)1-070//9>xvvv::35y+*9-6!x+xx22)g;c}#1##y{",
"{{w:4%!>fzs77b4b%y=b:z2;]6////#1)gg})!@@'+'1quzn*v>vn2)g};};}}^p",
"|{!x=4!x:$9000%4ib~4zv[$;1]---};1)[g$^^jx++1]q/+*n!z$[))cggg)^p|",
"{=%~=wwx+[]70/b4=i8y'vvn)g#1]c;)cl2;[m^^x:v;]--:*$z+ff[2)g$2$8.|",
"&5{@=w>xvz]1004w~i&y5h>:2g;#])n*$gv;#&&^x:2g_1t:*nf$v'z$2$$$8&.k",
",ye@=w>vf1;2-9>xwb&&5>x:++v'nnf[)':v_)==i$);c}1:[zf$vv*[$$$$&..&",
"^|y5i4!v'}}**99!b8&^ww::+vvv!!!z)+:'*[=%i$)c;##1v*$*2+'$[$2$%&m^",
"k.^^a=%**$);z]0xb8^m%::++++v!!>'fn$vf$%3=2)g}}#l'[$n2['*$[2w.%&^",
"&^^5~b%'v*$2vx1w4&&^w:+++++!!w!''*nn$v^~b2);c}#}v'$$2[v[[$[.,^w^",
"&^,e~=:+v'[$$+6/8&mw:x:+++vwi=vm^i4w>)-yb%)g;}}##'f[[v++*[yy,,k3",
"!^^@=4x:++v'$$z-&&4'zff**2xxxvv#^i=w[$]=w!$g);cc_:++v++<[$,^|.w!",
"hxe@=4xx>++vv)_)>h!!!w!!!h;==ig;8=4:+'2=4w2)gg;;c++<++:=i=||||!!"};
