/* XPM */
static char *magick[] = {
/* columns rows colors chars-per-pixel */
"64 64 5 1",
"  c Gray16",
". c #8c0000",
"X c #d60000",
"o c Magenta",
"O c None",
/* pixels */
"OOOOOOOOOOOOOOOOOOOOOOOOOOOOOOOOOOOOOOOOOOOOOOOOOOOOOOOOOOOOOOOO",
"OOOOOOOOOOOOOOOOOOOOOOOOOOOOOOOOOOOOOOOOOOOOOOOOOOOOOOOOOOOOOOOO",
"OOOOOOOOOOOOOOOOOOOOOOOOOOOOOOOOOOOOOOOOOOOOOOOOOOOOOOOOOOOOOOOO",
"OOOOOOOOOOOOOOOOOOOOOOOOOOOOOOOOOOOOOOOOOOOOOOOOOOOOOOOOOOOOOOOO",
"OOOOOOOOOOOOOOOOOOOOOOOOOOOOOOOOOOOOOOOOOOOOOOOOOOOOOOOOOOOOOOOO",
"OOOOOOOOOOOOOOOOOOOOOOOOOOOOOOOOOOOOOOOOOOOOOOOOOOOOOOOOOOOOOOOO",
"OOOOOOOOOOOOOOOOOOOOOOOOOOOOOOOOOOOOOOOOOOOOOOOOOOOOOOOOOOOOOOOO",
"OOOOOOOOOOOOOOOOOOOOOOOOOOOOOOOOOOOOOOOOOOOOOOOOOOOOOOOOOOOOOOOO",
"OOOOOOOOOOOOOOOOOOOOOOOOOOOOOOOOOOOOOOOOOOOOOOOOOOOOOOOOOOOOOOOO",
"OOOOOOOOOOOOOOOOOOOOOOOOOOOOOOOOOOOOOOOOOOOOOOOOOOOOOOOOOOOOOOOO",
"OOOOOOOOOOOOOOOOOOOOOOOOOOOOOOOOOOOOOOOOOOOOOOOOOOOOOOOOOOOOOOOO",
"OOOOOOOOOOOOOOOOOOOOOOOOOOOOOOOOOOOOOOOOOOOOOOOOOOOOOOOOOOOOOOOO",
"OOOOOOOOOOOOOOOOOOOOOOOOOOOOOOOOOOOOOOOOOOOOOOOOOOOOOOOOOOOOOOOO",
"   OOOOOOOOOOOOOOOOOOOOOOOOOOOOOOOOOOOOOOOOOOOOOOOOOOOOOOOOO    ",
"...   OOOOOOOOOOOOOOOOOOOOOOOOOOOOOOOOOOOOOOOOOOOOOOOOOO    ....",
"XXX...       OOOOOOOOOOOOOOOOOOOOOOOOOOOOOOOOOOOOO      ....XXXX",
"XXXXXX.......    OOOOOOOOOOOOOOOOOOOOOOOOOOOO     ......XXXXXXXX",
"...XXXXXXXXXX....    OOOOOOOOOOOOOOOOOOO     .....XXXXXXXXXX....",
"   ...XXXXXXXXXXX....     OOOOOOOOO     .....XXXXXXXXXXX....    ",
"OOO   .......XXXXXXXX.....         .....XXXXXXXXXX......    OOOO",
"OOOOOO       ....XXXXXXXXX.........XXXXXXXXXX.....      OOOOOOOO",
"OOOOOOOOOOOOO    ....XXXXXXXXXXXXXXXXXXX.....     OOOOOOOOOOOOOO",
"OOOOOOOOOOOOOOOOO    .....XXXXXXXXX.....     OOOOOOOOOOOOOOOOOOO",
"OOOOOOOOOOOOOOOOOOOOO     .........     OOOOOOOOOOOOOOOOOOOOOOOO",
"OOOOOOOOOOOOOOOOOOOOOOOOOO         OOOOOOOOOOOOOOOOOOOOOOOOOOOOO",
"OOOOOOOOOOOOOOOOOOOOOOOOOOOOOOOOOOOOOOOOOOOOOOOOOOOOOOOOOOOOOOOO",
"   OOOOOOOOOOOOOOOOOOOOOOOOOOOOOOOOOOOOOOOOOOOOOOOOOOOOOOOOO    ",
"...   OOOOOOOOOOOOOOOOOOOOOOOOOOOOOOOOOOOOOOOOOOOOOOOOOO    ....",
"XXX...       OOOOOOOOOOOOOOOOOOOOOOOOOOOOOOOOOOOOO      ....XXXX",
"XXXXXX.......    OOOOOOOOOOOOOOOOOOOOOOOOOOOO     ......XXXXXXXX",
"...XXXXXXXXXX....    OOOOOOOOOOOOOOOOOOO     .....XXXXXXXXXX....",
"   ...XXXXXXXXXXX....     OOOOOOOOO     .....XXXXXXXXXXX....    ",
"OOO   .......XXXXXXXX.....         .....XXXXXXXXXX......    OOOO",
"OOOOOO       ....XXXXXXXXX.........XXXXXXXXXX.....      OOOOOOOO",
"OOOOOOOOOOOOO    ....XXXXXXXXXXXXXXXXXXX.....     OOOOOOOOOOOOOO",
"OOOOOOOOOOOOOOOOO    .....XXXXXXXXX.....     OOOOOOOOOOOOOOOOOOO",
"OOOOOOOOOOOOOOOOOOOOO     .........     OOOOOOOOOOOOOOOOOOOOOOOO",
"OOOOOOOOOOOOOOOOOOOOOOOOOO         OOOOOOOOOOOOOOOOOOOOOOOOOOOOO",
"OOOOOOOOOOOOOOOOOOOOOOOOOOOOOOOOOOOOOOOOOOOOOOOOOOOOOOOOOOOOOOOO",
"   OOOOOOOOOOOOOOOOOOOOOOOOOOOOOOOOOOOOOOOOOOOOOOOOOOOOOOOOO    ",
"...   OOOOOOOOOOOOOOOOOOOOOOOOOOOOOOOOOOOOOOOOOOOOOOOOOO    ....",
"XXX...       OOOOOOOOOOOOOOOOOOOOOOOOOOOOOOOOOOOOO      ....XXXX",
"XXXXXX.......    OOOOOOOOOOOOOOOOOOOOOOOOOOOO     ......XXXXXXXX",
"...XXXXXXXXXX....    OOOOOOOOOOOOOOOOOOO     .....XXXXXXXXXX....",
"   ...XXXXXXXXXXX....     OOOOOOOOO     .....XXXXXXXXXXX....    ",
"OOOOOO.......XXXXXXXX.....         .....XXXXXXXXXX......OOOOOOOO",
"OOOOOOOOOOOOO....XXXXXXXXX.........XXXXXXXXXX.....OOOOOOOOOOOOOO",
"OOOOOOOOOOOOOOOOO....XXXXXXXXXXXXXXXXXXX.....OOOOOOOOOOOOOOOOOOO",
"OOOOOOOOOOOOOOOOOOOOO.....XXXXXXXXX.....OOOOOOOOOOOOOOOOOOOOOOOO",
"OOOOOOOOOOOOOOOOOOOOOOOOOO.........OOOOOOOOOOOOOOOOOOOOOOOOOOOOO",
"OOOOOOOOOOOOOOOOOOOOOOOOOOOOOOOOOOOOOOOOOOOOOOOOOOOOOOOOOOOOOOOO",
"OOOOOOOOOOOOOOOOOOOOOOOOOOOOOOOOOOOOOOOOOOOOOOOOOOOOOOOOOOOOOOOO",
"OOOOOOOOOOOOOOOOOOOOOOOOOOOOOOOOOOOOOOOOOOOOOOOOOOOOOOOOOOOOOOOO",
"OOOOOOOOOOOOOOOOOOOOOOOOOOOOOOOOOOOOOOOOOOOOOOOOOOOOOOOOOOOOOOOO",
"OOOOOOOOOOOOOOOOOOOOOOOOOOOOOOOOOOOOOOOOOOOOOOOOOOOOOOOOOOOOOOOO",
"OOOOOOOOOOOOOOOOOOOOOOOOOOOOOOOOOOOOOOOOOOOOOOOOOOOOOOOOOOOOOOOO",
"OOOOOOOOOOOOOOOOOOOOOOOOOOOOOOOOOOOOOOOOOOOOOOOOOOOOOOOOOOOOOOOO",
"OOOOOOOOOOOOOOOOOOOOOOOOOOOOOOOOOOOOOOOOOOOOOOOOOOOOOOOOOOOOOOOO",
"OOOOOOOOOOOOOOOOOOOOOOOOOOOOOOOOOOOOOOOOOOOOOOOOOOOOOOOOOOOOOOOO",
"OOOOOOOOOOOOOOOOOOOOOOOOOOOOOOOOOOOOOOOOOOOOOOOOOOOOOOOOOOOOOOOO",
"OOOOOOOOOOOOOOOOOOOOOOOOOOOOOOOOOOOOOOOOOOOOOOOOOOOOOOOOOOOOOOOO",
"OOOOOOOOOOOOOOOOOOOOOOOOOOOOOOOOOOOOOOOOOOOOOOOOOOOOOOOOOOOOOOOO",
"OOOOOOOOOOOOOOOOOOOOOOOOOOOOOOOOOOOOOOOOOOOOOOOOOOOOOOOOOOOOOOOO",
"OOOOOOOOOOOOOOOOOOOOOOOOOOOOOOOOOOOOOOOOOOOOOOOOOOOOOOOOOOOOOOOO"
};
