/* XPM */
static char * rum_xpm[] = {
"64 64 2 1",
" 	c None",
".	c #911D1D",
"                                                                ",
"                                                                ",
"                                                                ",
"                                                                ",
"                                                                ",
"                                                                ",
"                                                                ",
"                                                                ",
"                                                                ",
"                                                                ",
"                                                                ",
"                                                                ",
"                                                                ",
"                                                                ",
"                                                                ",
"            ....                                                ",
"        ..........                                              ",
"      .............                                      ..     ",
"    ...............                                    ......   ",
"   .................                                   ......   ",
"  ..................                                  ........  ",
" ...................                         ...      ........  ",
" ...................                       .......    ........  ",
" .........   .......                       .......   .........  ",
"........      ......                       ........  .......... ",
"........      .......                     ..................... ",
"........      .......                     ..................... ",
" ........    ........                     ..................... ",
" ....................                     ..................... ",
"  ...................   ....              ..................... ",
"  ...................  ......        .... ..................... ",
"   ..........................       ........................... ",
"    .........................       ........................... ",
"     ........................       ............................",
"      .......................       ............................",
"      .......................       ............................",
"      ........................      ...................  .......",
"     .........................      ..................   .......",
"     ................. .......      ..............       .......",
"    .................  .......      ..............       .......",
"   .........  .......  .......      ..............       .......",
"  .........   .......  .......      ..............        ......",
" .........    .......  .......      ..............        ......",
".........     .......  .......     ...............        ......",
"........      .......  .......     ...............        ......",
"........      .......  .......    ................        ......",
".......       .......  ...........................        ......",
"......        .......  ...........................        ......",
".....         ......    ................. ........        ......",
"....          ......    ................   .......        ......",
"....           ....      .............     ......          .... ",
"                         ............       .....               ",
"                          .........                             ",
"                           ......                               ",
"                                                                ",
"                                                                ",
"                                                                ",
"                                                                ",
"                                                                ",
"                                                                ",
"                                                                ",
"                                                                ",
"                                                                ",
"                                                                "};
