/* XPM */
static char *sd_corner[] = {
/* width height num_colors chars_per_pixel */
"    64    64        2            1",
/* colors */
". c #000000",
"# c #026664",
/* pixels */
"................................................................",
".......................................................#########",
".................................................###############",
".............................................###################",
"..........................................######################",
".......................................#########################",
".....................................###########################",
"...................................#############################",
".................................###############################",
"...............................#################################",
"..............................##################################",
"............................####################################",
"...........................#####################################",
".........................#######################################",
"........................########################################",
".......................#########################################",
".....................###########################################",
"....................############################################",
"...................#############################################",
"..................##############################################",
".................###############################################",
"................################################################",
"................################################################",
"...............#################################################",
"..............##################################################",
".............###################################################",
".............###################################################",
"............####################################################",
"...........#####################################################",
"...........#####################################################",
"..........######################################################",
".........#######################################################",
".........#######################################################",
"........########################################################",
"........########################################################",
".......#########################################################",
".......#########################################################",
"......##########################################################",
"......##########################################################",
".....###########################################################",
".....###########################################################",
".....###########################################################",
"....############################################################",
"....############################################################",
"....############################################################",
"...#############################################################",
"...#############################################################",
"...#############################################################",
"...#############################################################",
"..##############################################################",
"..##############################################################",
"..##############################################################",
"..##############################################################",
"..##############################################################",
"..##############################################################",
".###############################################################",
".###############################################################",
".###############################################################",
".###############################################################",
".###############################################################",
".###############################################################",
".###############################################################",
".###############################################################",
".###############################################################"
};
