/* XPM */
static char *magick[] = {
/* columns rows colors chars-per-pixel */
"64 64 15 1",
"  c #323232",
". c Gray27",
"X c Gray34",
"o c #676767",
"O c Gray53",
"+ c #979797",
"@ c #a5a5a5",
"# c #afafaf",
"$ c #bebebe",
"% c Gray78",
"& c #d2d2d2",
"* c #e1e1e1",
"= c #efefef",
"- c Gray98",
"; c Gray100",
/* pixels */
";;;;;;;;;;;;;;;;;;;;;;;;;;;;;;;;;;;;;;;;;;;;;;;;;;;;;;;;;;;;;;;;",
";;;;;;;;;;;;;;;;;;;;;;;;;;;;;;;;;;;;;;;;;;;;;;;;;;;;;;;;;;;;;;;;",
";;;;;;;;;;;;;;;;;;;;;;;;;;;;;;;;;;;;;;;;;;;;;;;;;;;;;;;;;;;;;;;;",
";;;;;;;;;;;;$$;;;;$$;;;;;;;;;;;;;;;;;;;;;;;;;;;;;;;;;;;;;;;;;;;;",
";;=*%*;$$$;;$oOO;;$$;;+$$;;;;;=%OO;;;O$$;;;%$@*;;%$@;;;;;;;;;;;;",
";;$ $%%.%.%;$ $O$;;=;OO%+;;;;;$ $O$;;@%.&;* %O$;* %o$;;;;;;;;;;;",
";;$$;;$$;$$;$$;;.;;;;#.$&;;;;;$$;;.;;O. $;$$;$$;$X$X$;;;;;;;;;;;",
";;$$;;+#;#+;$$;=X;;;;-=$ ;;;;;$$;=X;OO;$$;O#;$$;+O%%*;;;;;;;;;;;",
";;$$;;* o *;$ o.%;;;;+Xo.;;;;;$ o.%;$.$ $;*.o $;=.oo+;;;;;;;;;;;",
";;*&===*$*==*&$&======%$======#$$&===%%&*==&$@O===$%==;;;;;;;;;;",
";;++++++++++++++++++++++++++++$X+++++++++++  X++++++++;;;;;;;;;;",
";;;;;;;;;;;;;;;;;;;;;;;;;;;;;;;;;;;;;;;;;;;;;;;;;;;;;;;;;;;;;;;;",
";;;;;;;;;;;;;;;;;;;==-;;;;;;;;;;;;;;;;;;;;;;;;;;;;;;;;;;;;;;;;;;",
";;;;;;;;;;;;;;;;;;=.X&;;;;;;;;;;;;;;;;;;;;;;;;;;;;;;;;;;;;;;;;;;",
";;=#$$-;=&#&;#o+;;+X@;;#o+;;=&#&;#o+;;=#$$-;;@oO;;#o+;;-Oo#;;;;;",
";;$.%+o;$ O&&.*$#;OX+;&.*$#;$ O&&.*$#;$.%$+;&.*+;&.*$#;O+*@;;;;;",
";;$$;;.;$$;;$.o.$;$$;;$.o.$;$$;;$.o.$;$$;$$;$$;;;$.o.$;$.o%;;;;;",
";;$$;*X;$$;;++***;$$;;++***;$$;;++***;$$;$$;+@;-;++***;--& ;;;;;",
";;$ X.&;$$;;-XXX+;$$;;-XXX+;$$;;-XXX+;$$;$$;= X.;-XXX+;+.XX;;;;;",
";;@o$%&&&%&&&&$%&&&%&&&&$%&&&%&&&&$%&&&%&&%&&&$&&&&$%&&&%$&&;;;;",
";;Oo@@@@@@@@@@@@@@@@@@@@@@@@@@@@@@@@@@@@@@@@@@@@@@@@@@@@@@@@;;;;",
";;;;;;;;;;;;;;;;;;;;;;;;;;;;;;;;;;;;;;;;;;;;;;;;;;;;;;;;;;;;;;;;",
";;;;;;;;;;;;;;;;;==;;;;;;;;;;;;;;;;;;;;;;;;;;;;;;;;;;;;;;;;;;;;;",
";;;;;;;;;;;;;;;;;$$;;;;;;;;;;;;;;;;;;;;;;;;;;;;;;;;;;;;;;;&@;;;;",
";;;oX+;;*@oo=;;@XX$;;+X+;;$=;=$;;@X$;;*%@%;;;;*@oo=;;@X$;;O.+;;;",
";;;&=X%;$.*O+;%X=@$;$o=o$;++;++;%X=O@;$ @&;;;;$.*O+;%X=O@;+X#;;;",
";;=X. $;$$;$$;$$;$$;$$;$$;-.;.-;$ . $;$$;;;;;;$$;$$;$ . $;$$;;;;",
";;O@;$$;$$;$$;O@;#$;+@;@+;;$$$;;++--=;$$;;;%;;$$;$$;++--=;$$;;;;",
";;% X $;$$;$$;=...$;=...=;;* *;;;X..@;$$;;; ;;$$;$$;;X..@;=  ;;;",
";;%$$$$%$$%$$%%$$$$%%$$$%%%%$%%%%%$$%%$$%%%$%%$$%$$%%%$$%%%$$%;;",
";;$$$$$$$$$$$$$$$$$$$$$$$$$$$$$$$$$$$$$$$$$$$$$$$$$$$$$$$$$$$$;;",
";;;;;;;;;;;;;;;;;;;;;;;;;;;;;;;;;;;;;;;;;;;;;;;;;;;;;;;;;;;;;;;;",
";;;;;;;;;;;;;=*;;;;;;;;;;;;;;;;;;;;;;;;;;;;;;;;;;;;;;;;;;;;;;;;;",
";;;;;;;;;;;;;$$;;;;;;;;;;;;;&@;&@;;;;;;;;;;;&@;;;;;;;;;;;;;;;;;;",
";;=X.O;*$;*$;$.XX=;*@oX%XX=;*$;$.$;;;;;=X.O;$.$;;$.$;;*$O$#=;=#;",
";;$#;%;$$;$$;$X=%X;$X=@X=@O;$$;@o%;;;;;$#;%;@o%;#$;$#;$ #*@$;$#;",
";;&..@;$$;$$;$$;;.;$$;$$;$$;$$;$$;;;;;;&..@;$$;;$$;$$;$$;;;.-.;;",
";;=-= ;$o;@$;$$;%o;$$;$$;$$;$$;$$-;;;;;=-= ;$$-;@+;+@;$$;;;O +;;",
";;@ .$;=...O;%...*;%O;%O;%O;%O;=. ;;;;;@ .$;=. ;=...=;%O;;;= =;;",
";;#########################################################+.###",
";;&&&&&&&&&&&&&&&&&&&&&&&&&&&&&&&&&&&&&&&&&&&&&&&&&&&&&&&&&$$&&&",
";;;;;;;;;;;;;;;;;;;;;;;;;;;;;;;;;;;;;;;;;;;;;;;;;;;;;;;;;;;;;;;;",
";;;;;;;;;;;=&;;;;;;;;;;;;;;;;;;;;;-=;;;;;;-=;;;;;;;;;;;;;;;;;;;;",
";;;;;;;;;;;$$;;;;;;;;;;;;;;;;;%+;;&#;;;;;;&#;;;;;;;;;;;;;;;;;;;;",
";;;..o-;;$..$;@=;=@;;$.X-;*@$#$ o;*#;*X.$;*#;*$..=;;$.o#;;;;;;;;",
";;;=*X$;#$;$$;#$;$#;#$;++;$.%=#o*;$$;$@;&;$$;$X-+O;#$;$$;;;;;;;;",
";;*.X $;$$;$$;;.-.;;$ . +;$$;;$$;;$$;*X +;$$;$$;$$;$$;$$;;;;;;;;",
";;$#;o$;++;+$;;+X+;;#O;-*;$$;;$$-;$$;*=- ;$$;$$;$$;++;+$;;;;;;;;",
";;*.XX%;-X.o+;;= =;;;O..#;%+;;-..;%+;#..+;%+;%+;%+;-X.X$;;;;;;;;",
";;++++++++++++++++++++++++++++++++++++++++++++++++++++oX+;;;;;;;",
";;**************************************************$o@**;;;;;;;",
";;;;;;;;;;;;;;;;;;;;;;;;;;;;;;;;;;;;;;;;;;;;;;;;;;;;;;;;;;;;;;;;",
";;;;;;;;;;;;;;;;;;;;;;;;;;;;;;;;;;;;;;;;;;;;;;;;;;;;;;;;;;;;;;;;",
";;;;;;;;;;;;;;;;;;;;;;;;;;;;;;;;;;;%O;;;;;;;;;;;;;;;;;;;;;;;;;;;",
";;&..o;&@;&@;&o. &;&o. &;=X.X=;&+o@o X;;o.X=;&+o@&..o;;;;;;;;;;;",
";;$@;*;$$;$$;$o-&X;$o-&X;@+;+@;$.*-$$=;@O;@+;$.*-$@;*;;;;;;;;;;;",
";;=o $;$$;$$;$$;;.;$$;;.;$$;$$;$$;;$$;;$ ..+;$$;;=o $;;;;;;;;;;;",
";;&*; ;$o;O$;$$;@$;$$;@$;#$;$#;$$;;$$=;$$;=&;$$;;&*; ;;;;;;;;;;;",
";;$..@;;o.$+;$..o=;$..o=;;$.$;;&+;;;X.;;+.X$;&+;;$..@;;;;;;;;;;;",
";;OOOOOOOOOOOo.OOOOo.OOOOOOOOOOOOOOOOOOOOOOOOOOOOOOOOO;;;;;;;;;;",
";;-----------*$----*$---------------------------------;;;;;;;;;;",
";;;;;;;;;;;;;;;;;;;;;;;;;;;;;;;;;;;;;;;;;;;;;;;;;;;;;;;;;;;;;;;;",
";;;;;;;;;;;;;;;;;;;;;;;;;;;;;;;;;;;;;;;;;;;;;;;;;;;;;;;;;;;;;;;;",
";;;;;;;;;;;;;;;;;;;;;;;;;;;;;;;;;;;;;;;;;;;;;;;;;;;;;;;;;;;;;;;;"
};
