/* XPM */
static char *magick[] = {
/* columns rows colors chars-per-pixel */
"64 64 15 1",
"  c #323232",
". c Gray27",
"X c Gray34",
"o c #676767",
"O c Gray53",
"+ c #979797",
"@ c #a5a5a5",
"# c #afafaf",
"$ c #bebebe",
"% c Gray78",
"& c #d2d2d2",
"* c #e1e1e1",
"= c #efefef",
"- c Gray98",
"; c Gray100",
/* pixels */
";;;;;;;;;;;;;;;;;;;;*$;;;;;;;;;;;;;;;;;;$$;;;;;;;;;;;;;;;;;;;;;;",
";;;=%OO;;;O$$;;;+$$;+X$;;;;;=%OO;;;$$$;;$$;;%$@;;;+$$;;;;;;;;;;;",
";;;$ $O$;;@%.&;OO%+;O.O;;;;;$ $O$;%.%.%;$$;* %o$;OO%+;;;;;;;;;;;",
";;;$$;;.;-O. $;#.$&;$$;;;;;;$$;;.;$$;$$;$$;$X$X$;#.$&;;;;;;;;;;;",
";;;$$;=X;OO;$$;-=$ ;$$;;;;;;$$;=X;+#;#+;$$;+O&&*;-=$ ;;;;;;;;;;;",
";;;$ o.%;$.$ $;+XoX;* o;;;;;$ o.%;* o *;$$;=.oo+;+XoX;;;;;;;;;;;",
";;;#$$&===%%&*==%$===&$=====#$$&===*$*==*&===$%===%$==;;;;;;;;;;",
";;;$X+++++++++++++++++++++++$X++++++++++++++++++++++++;;;;;;;;;;",
";;;;;;;;;;;;;;;;;;;;;;;;;;;;;;;;;;;;;;;;;;;;;;;;;;;;;;;;;;;;;;;;",
";;;;;;;;;;;;;;;;;;;;;;;;;;;;;;;;;;;;;;;;;;;;;;;;;;;;;;;;;;;;;;;;",
";;;&#;;;;;;;;;;;;;;&@;;;;;;;;;;;;;;;;;;;;;;;;;;;;;;;;;;;;;;;;;;;",
";;;+X@;;@o@;;=#oo-;=&;;@o$;-$o@;;;;;;;;;;;;;;;;;;;;;;;;;;;;;;;;;",
";;;+X@;$X*X$;$.&@o;$$;&.*@;O+*#;;;;;;;;;;;;;;;;;;;;;;;;;;;;;;;;;",
";;;$$;;$$;$$;$$;;.;$$;$$;;;%.X%;;;;;;;;;;;;;;;;;;;;;;;;;;;;;;;;;",
";;;$$;;+@;@+;$$;*X;$$;++;-;--& ;;;;;;;;;;;;;;;;;;;;;;;;;;;;;;;;;",
";;;= .;=.X.=;$ X.&;$$;= X.;+.Xo;;;;;;;;;;;;;;;;;;;;;;;;;;;;;;;;;",
";;;&%$&&%$%&&+o$%&&%%&&%$%&&$$&&;;;;;;;;;;;;;;;;;;;;;;;;;;;;;;;;",
";;;##########+o#################;;;;;;;;;;;;;;;;;;;;;;;;;;;;;;;;",
";;;;;;;;;;;;;;;;;;;;;;;;;;;;;;;;;;;;;;;;;;;;;;;;;;;;;;;;;;;;;;;;",
";;;;;;;;;=*;;;;;;;;;;;;;;;;;;;;;;;;;;;;;;;;;;;;;;;;;;;;;;;;;;;;;",
";;;;;;;;;$$;;;;;;;;;;;;;;;;&@;;;;;;;;;;;;;;;;;;;;;;;;;;;;;;;;;;;",
";;;;X.O;;$XXX=;;O.O;;*%;*%;O.O;;;;;;;;;;;;;;;;;;;;;;;;;;;;;;;;;;",
";;;;*-X$;$X=$o;#o-o#;$$;$$;+X$;;;;;;;;;;;;;;;;;;;;;;;;;;;;;;;;;;",
";;;=X. $;$$;;.;$$;$$;$$;$$;$$;;;;;;;;;;;;;;;;;;;;;;;;;;;;;;;;;;;",
";;;$#;$$;$$;&o;@@;@@;$o;#$;$$;;;;;;;;;;;;;;;;;;;;;;;;;;;;;;;;;;;",
";;;& X $;$ ..*;=...=;=...O;=  ;;;;;;;;;;;;;;;;;;;;;;;;;;;;;;;;;;",
";;;$$$$$$$$$$$$$$$$$$$$$$$$$$$$;;;;;;;;;;;;;;;;;;;;;;;;;;;;;;;;;",
";;;%%%%%%%%%%%%%%%%%%%%%%%%%%%%;;;;;;;;;;;;;;;;;;;;;;;;;;;;;;;;;",
";;;;;;;;;;;;;;;;;;;;;;;;;;;;;;;;;;;;;;;;;;;;;;;;;;;;;;;;;;;;;;;;",
";;;;=;;;;;;;;=&;;;;;;;;;;;;;;;;;;;;;;;;;;;;;;;;;;;;;;;;;;;;;;;;;",
";;;;$;;;;;;;;$$;;;;;;;;;;;;;;;;;;;;;;;;;;;;;;;;;;;;;;;;;;;;;;;;;",
";;;+o;;-o.o-;$...*;*X.$;;;;;;;;;;;;;;;;;;;;;;;;;;;;;;;;;;;;;;;;;",
";;;* ;;#$;$#;$X-%X;$@;&;;;;;;;;;;;;;;;;;;;;;;;;;;;;;;;;;;;;;;;;;",
";;;;.;;$$;$$;$$;;.;*X.+;;;;;;;;;;;;;;;;;;;;;;;;;;;;;;;;;;;;;;;;;",
";;;;.;;@O;O@;$$;$o;*=- ;;;;;;;;;;;;;;;;;;;;;;;;;;;;;;;;;;;;;;;;;",
";;;;.;;-X.X-;%..X*;#..O;;;;;;;;;;;;;;;;;;;;;;;;;;;;;;;;;;;;;;;;;",
";;;@ @@@@@@@@@@@@@@@@@@@;;;;;;;;;;;;;;;;;;;;;;;;;;;;;;;;;;;;;;;;",
";;;o#*******************;;;;;;;;;;;;;;;;;;;;;;;;;;;;;;;;;;;;;;;;",
";;;;;;;;;;;;;;;;;;;;;;;;;;;;;;;;;;;;;;;;;;;;;;;;;;;;;;;;;;;;;;;;",
";;;*%;;;;;;;;;;;$+*;;;;;;;;;;;;;;;;;;;;;;;;;;;;;;;;;;;;;;;;;;;;;",
";;;$$;;;;;;;;;;&.@=;;;;;;;;;;;;;;;;;;;;;;;;;;;;;;;;;;;;;;;;;;;;;",
";;;$ . *;=X.X=;o X;;;;;;;;;;;;;;;;;;;;;;;;;;;;;;;;;;;;;;;;;;;;;;",
";;;$o-@O;@+;+@;$$=;;;;;;;;;;;;;;;;;;;;;;;;;;;;;;;;;;;;;;;;;;;;;;",
";;;$$;$$;$$;$$;$$;;;;;;;;;;;;;;;;;;;;;;;;;;;;;;;;;;;;;;;;;;;;;;;",
";;;$$;$$;#$;$#;$$;;;;;;;;;;;;;;;;;;;;;;;;;;;;;;;;;;;;;;;;;;;;;;;",
";;;&+;&+;;$.$;;&+;;;;;;;;;;;;;;;;;;;;;;;;;;;;;;;;;;;;;;;;;;;;;;;",
";;;OOOOOOOOOOOOOOOO;;;;;;;;;;;;;;;;;;;;;;;;;;;;;;;;;;;;;;;;;;;;;",
";;;----------------;;;;;;;;;;;;;;;;;;;;;;;;;;;;;;;;;;;;;;;;;;;;;",
";;;;;;;;;;;;;;;;;;;;;;;;;;;;;;;;;;;;;;;;;;;;;;;;;;;;;;;;;;;;;;;;",
";;;;;;;;;;;;;;;;;;;;;;;;;;;;;;;;;;;;;;;;;;;;;;;;;;;;;;;;;;;;;;;;",
";;;;;;;;;;;;;;;;;;;;;;;;;;;;;;;;;;;;;;;;;;;;;;;;;;;;;;;;;;;;;;;;",
";;;;;;;;;;;;;;;;;;;;;;;;;;;;;;;;;;;;;;;;;;;;;;;;;;;;;;;;;;;;;;;;",
";;;;;;;;;;;;;;;;;;;;;;;;;;;;;;;;;;;;;;;;;;;;;;;;;;;;;;;;;;;;;;;;",
";;;;;;;;;;;;;;;;;;;;;;;;;;;;;;;;;;;;;;;;;;;;;;;;;;;;;;;;;;;;;;;;",
";;;;;;;;;;;;;;;;;;;;;;;;;;;;;;;;;;;;;;;;;;;;;;;;;;;;;;;;;;;;;;;;",
";;;;;;;;;;;;;;;;;;;;;;;;;;;;;;;;;;;;;;;;;;;;;;;;;;;;;;;;;;;;;;;;",
";;;;;;;;;;;;;;;;;;;;;;;;;;;;;;;;;;;;;;;;;;;;;;;;;;;;;;;;;;;;;;;;",
";;;;;;;;;;;;;;;;;;;;;;;;;;;;;;;;;;;;;;;;;;;;;;;;;;;;;;;;;;;;;;;;",
";;;;;;;;;;;;;;;;;;;;;;;;;;;;;;;;;;;;;;;;;;;;;;;;;;;;;;;;;;;;;;;;",
";;;;;;;;;;;;;;;;;;;;;;;;;;;;;;;;;;;;;;;;;;;;;;;;;;;;;;;;;;;;;;;;",
";;;;;;;;;;;;;;;;;;;;;;;;;;;;;;;;;;;;;;;;;;;;;;;;;;;;;;;;;;;;;;;;",
";;;;;;;;;;;;;;;;;;;;;;;;;;;;;;;;;;;;;;;;;;;;;;;;;;;;;;;;;;;;;;;;",
";;;;;;;;;;;;;;;;;;;;;;;;;;;;;;;;;;;;;;;;;;;;;;;;;;;;;;;;;;;;;;;;",
";;;;;;;;;;;;;;;;;;;;;;;;;;;;;;;;;;;;;;;;;;;;;;;;;;;;;;;;;;;;;;;;"
};
