/* XPM */
static char *magick[] = {
/* columns rows colors chars-per-pixel */
"64 64 15 1",
"  c #323232",
". c Gray27",
"X c Gray34",
"o c #676767",
"O c Gray53",
"+ c #979797",
"@ c #a5a5a5",
"# c #afafaf",
"$ c #bebebe",
"% c Gray78",
"& c #d2d2d2",
"* c #e1e1e1",
"= c #efefef",
"- c Gray98",
"; c Gray100",
/* pixels */
";;;;;;;;;;;;;;;;;;;;;;;;;;;;;;;;;;;;;;;;;;;;;;;;;;;;;;;;;;;;;;;;",
";;;;;;;;;;;;;;;;;;;;;;;;;;;;;;;;;;;;;;;;;;;;;;;;;;;;;;;;;;;;;;;;",
";;;;;;;;;;;;;;;;;;;;;;;;;;;;;;;;;;;;;;;;;;;;;;;;;;;;;;;;;;;;;;;;",
";;;;;;;;;;;;;;;;;;;;;;;;;;;;;;;;;;;;;;;;;;;;;;;;;;;;;;;;;;;;;;;;",
";;;;;;;;;;;;;;;;;;;;;;;;;;;;;;;;;;;;;;;;;;;;;;;;;;;;;;;;;;;;;;;;",
";;;;;;;;;;;;;;;;;;;;;;;;;;;;;;;;;;;;;;;;;;;;;;;;;;;;;;;;;;;;;;;;",
";;;;;-;;;;;;;;;;;;;;;;;;;;;;;;;;;;;;;;;;;;;;;;;;;;;;;;;;;;;;;;;;",
";;;=..&;;;;;;;;;;;;;;;;;;;;;;;;;;;;;;;;;;;;;;;;;;;;;;;;;;;;;;;;;",
";;;+X$;;O$$;;;%$@*;;;;;;;;;;;;;;;;;;;;;;;;;;;;;;;;;;;;;;;;;;;;;;",
";;;O.O;;@%.&;* %O$;;;;;;;;;;;;;;;;;;;;;;;;;;;;;;;;;;;;;;;;;;;;;;",
";;;$$;;;O. $;$$;$$;;;;;;;;;;;;;;;;;;;;;;;;;;;;;;;;;;;;;;;;;;;;;;",
";;;$$;;OO;$$;O#;$$;;;;;;;;;;;;;;;;;;;;;;;;;;;;;;;;;;;;;;;;;;;;;;",
";;;$$;;$.$ $;*.o $;;;;;;;;;;;;;;;;;;;;;;;;;;;;;;;;;;;;;;;;;;;;;;",
";;;*&===%%&*==&$#$=;;;;;;;;;;;;;;;;;;;;;;;;;;;;;;;;;;;;;;;;;;;;;",
";;;+++++++++++++$X+;;;;;;;;;;;;;;;;;;;;;;;;;;;;;;;;;;;;;;;;;;;;;",
";;;;;;;;;;;;;;;;;;;;;;;;;;;;;;;;;;;;;;;;;;;;;;;;;;;;;;;;;;;;;;;;",
";;;;;;;;;;;;;;;;;-=;;;;;;;;;;;;;;;;;;;;;;;;;;;;;;;;;;;;;;;;;;;;;",
";;;;;;;;;;;;;;;;;$$;;;;;;;;;;;;;;;;;;;;;;;;;;;;;;;;;;;;;;;;;;;;;",
";;;;@oO;;@o@;;;#oo$;;#o+;;;;;;;;;;;;;;;;;;;;;;;;;;;;;;;;;;;;;;;;",
";;;&.*+;$X*X$;&.*+$;&.*$#;;;;;;;;;;;;;;;;;;;;;;;;;;;;;;;;;;;;;;;",
";;;$$;;;$$;$$;$$;$$;$.o.$;;;;;;;;;;;;;;;;;;;;;;;;;;;;;;;;;;;;;;;",
";;;+@;-;+@;@+;O@;$$;++***;;;;;;;;;;;;;;;;;;;;;;;;;;;;;;;;;;;;;;;",
";;;= X.;= X =;=.X $;-XXX+;;;;;;;;;;;;;;;;;;;;;;;;;;;;;;;;;;;;;;;",
";;;&&$&&&&$&&&&%$&%&&&$%&&;;;;;;;;;;;;;;;;;;;;;;;;;;;;;;;;;;;;;;",
";;;@@@@@@@@@@@@@@@@@@@@@@@;;;;;;;;;;;;;;;;;;;;;;;;;;;;;;;;;;;;;;",
";;;;;;;;;;;;;;;;;;;;;;;;;;;;;;;;;;;;;;;;;;;;;;;;;;;;;;;;;;;;;;;;",
";;;;;;;;;;;;;;;;;;;;;;;;;;;;;;==;;;;;;;;;;;;;;;;;;;;;;;;;;;;;;;;",
";;;;;;;;;;;;;;;;;;;;;;;;;;;;;;$$;;;;;;;;;;;;;;;;;;;;;;;;;;;;;;;;",
";;;;oX+;;#;;#;*%;;oX+;;*%@%;@XX$;=oX+;;;;;;;;;;;;;;;;;;;;;;;;;;;",
";;;;&=X%;$$$ =O$;;&=X%;$ @&%X=@$;O@=#;;;;;;;;;;;;;;;;;;;;;;;;;;;",
";;;=X. $;%$o+@X-;=X. $;$$;;$$;$$;%..$;;;;;;;;;;;;;;;;;;;;;;;;;;;",
";;;O@;$$;;.X;oX;;O@;$$;$$;;O@;#$;=;* ;;;;;;;;;;;;;;;;;;;;;;;;;;;",
";;;% X $;;X@;oO;;% X $;$$;;=...$;@ .o;;;;;;;;;;;;;;;;;;;;;;;;;;;",
";;;%$$$$%%$$%$$%%%$$$$%$$%%%$$$$%%$$%%;;;;;;;;;;;;;;;;;;;;;;;;;;",
";;;$$$$$$$$$$$$$$$$$$$$$$$$$$$$$$$$$$$;;;;;;;;;;;;;;;;;;;;;;;;;;",
";;;;;;;;;;;;;;;;;;;;;;;;;;;;;;;;;;;;;;;;;;;;;;;;;;;;;;;;;;;;;;;;",
";;;;;;;;;;;;;;;;;;;;;;;;;;;;;;;;;;;;;;;;;;;;;;;;;;;;;;;;;;;;;;;;",
";;;;;;;;;;;;;&@;;;;;;;;;;;;;;;;;;;;;;;;;;;;;;;;;;;;;;;;;;;;;;;;;",
";;;*OXX=;*$O$*$;#=;=#;;X.$;;;$.X;#=;=#;;;;;;;;;;;;;;;;;;;;;;;;;;",
";;;$X=%X;$ #*$$;@O;O@;;*-X$;$o;%;@$;$#;;;;;;;;;;;;;;;;;;;;;;;;;;",
";;;$$;;.;$$;;$$;;.;.;;=.. $;$$;;;;.-.;;;;;;;;;;;;;;;;;;;;;;;;;;;",
";;;$$;%o;$$;;$$;;OoO;;$#;$$;@O;*;;O +;;;;;;;;;;;;;;;;;;;;;;;;;;;",
";;;$ ..*;%O;;%O;;* *;;& X.%;=...;;= =;;;;;;;;;;;;;;;;;;;;;;;;;;;",
";;;OX#############################+.###;;;;;;;;;;;;;;;;;;;;;;;;;",
";;;#+&&&&&&&&&&&&&&&&&&&&&&&&&&&&&$$&&&;;;;;;;;;;;;;;;;;;;;;;;;;",
";;;;;;;;;;;;;;;;;;;;;;;;;;;;;;;;;;;;;;;;;;;;;;;;;;;;;;;;;;;;;;;;",
";;;;;;;;=&;;;;;;;;;;;;=&;;;;-=;;-=;-====;=====-;;;;;;;;;;;;;;;;;",
";;;;;;;;$$;;;;;;;;;;;;$$;;;;$ #;$$;$ XXO;XX XX&;;;;;;;;;;;;;;;;;",
";;;*X.$;$$;;..o-;*X.$;$...=;$$ -$$;$$;;;;;;.;;;;;;;;;;;;;;;;;;;;",
";;;$@;&;$$;;=*X$;$@;&;$X-+O;$$++$$;$ ..o;;;.;;;;;;;;;;;;;;;;;;;;",
";;;*X +;$$;*.X $;*X +;$$;$$;$$; @$;$$;;;;;;.;;;;;;;;;;;;;;;;;;;;",
";;;*=- ;$$;$#;o$;*=- ;$$;$$;$$;# $;$$;;;;;;.;;;;;;;;;;;;;;;;;;;;",
";;;#..+;%+;*.XX%;#..+;%+;%+;%+;;o+;% ..o;;;X;;;;;;;;;;;;;;;;;;;;",
";;;++++++++++++++++++++++++++++++++++++++++++++;;;;;;;;;;;;;;;;;",
";;;********************************************;;;;;;;;;;;;;;;;;",
";;;;;;;;;;;;;;;;;;;;;;;;;;;;;;;;;;;;;;;;;;;;;;;;;;;;;;;;;;;;;;;;",
";;;;;;;;;*%;;;;*%;;;;;;;;;;;;;;;;;;;;;;;;;;;;;;;$+*;$+*;;;;;;;;;",
";;;;;;;;;$$;;;;$$;;;;;;;;;;;;;;;;;;;;%O;;;;;;;;&.#=&.#=;;;;;;;;;",
";;;=X.X=;$$;;o..$;;o.X=;&+o@;;;;&..o;o X;&@;&@;o X;o X;;;;;;;;;;",
";;;@+;+@;$$;@O;$$;@O;@+;$.*-;;;;$@;*;$$=;$$;$$;$$=;$$=;;;;;;;;;;",
";;;$$;$$;$$;$$;$$;$ ..+;$$;;;;;;=o $;$$;;$$;$$;$$;;$$;;;;;;;;;;;",
";;;#$;$#;$$;+O;O$;$$;=&;$$;;;;;;&*; ;$$=;$o;O$;$$;;$$;;;;;;;;;;;",
";;;;$.$;;&+;;o.$+;;+.X$;&+;;;;;;$..@;;X.;;o.$+;&+;;&+;;;;;;;;;;;",
";;;OOOOOOOOOOOOOOOOOOOOOOOOOOOOOOOOOOOOOOOOOOOOOOOOOOOO;;;;;;;;;"
};
