/* XPM */
static char * sd_titlebar_green_w_xpm[] = {
"64 64 38 1",
" 	c None",
".	c #FFFFFF",
"+	c #FEFEFE",
"@	c #F4F8F8",
"#	c #9EC4C4",
"$	c #5B9C9A",
"%	c #267C7A",
"&	c #056866",
"*	c #026664",
"=	c #EAF2F2",
"-	c #70A8A7",
";	c #046765",
">	c #96C0BF",
",	c #086A68",
"'	c #619F9E",
")	c #468F8D",
"!	c #47908E",
"~	c #64A1A0",
"{	c #97C0BF",
"]	c #E1EDEC",
"^	c #549796",
"/	c #BCD6D6",
"(	c #448E8C",
"_	c #C8DEDD",
":	c #62A09E",
"<	c #ABCCCB",
"[	c #5F9E9D",
"}	c #1B7573",
"|	c #F3F8F8",
"1	c #D4E5E5",
"2	c #ADCDCC",
"3	c #80B2B1",
"4	c #559896",
"5	c #318280",
"6	c #13716F",
"7	c #036765",
"8	c #0D6D6B",
"9	c #157270",
"................................................................",
"................................................................",
"................................................................",
"................................................................",
"................................................................",
"................................................................",
"................................................................",
"................................................................",
"................................................................",
"................................................................",
"................................................................",
"................................................................",
"................................................................",
"................................................................",
"................................................................",
"................................................................",
"................................................................",
"................................................................",
"................................................................",
"................................................................",
"................................................................",
"................................................................",
"................................................................",
"................................................................",
"................................................................",
"................................................................",
"................................................................",
"................................................................",
"................................................................",
"................................................................",
"................................................................",
"................................................................",
"................................................................",
"++.++..+..++.@#$%&**********************************************",
".+++..+++++=-;**************************************************",
".++..++++.>,****************************************************",
"..+.++.+.'******************************************************",
"...++...)*******************************************************",
"...++..!********************************************************",
"...+..~*********************************************************",
".....{**********************************************************",
"+...]***********************************************************",
".++.^***********************************************************",
"..+/************************************************************",
"...(************************************************************",
".._*************************************************************",
"..:*************************************************************",
"..&*************************************************************",
"+<**************************************************************",
".[**************************************************************",
".}**************************************************************",
"|***************************************************************",
"1***************************************************************",
"2***************************************************************",
"3***************************************************************",
"4***************************************************************",
"5***************************************************************",
"6***************************************************************",
"****************************************************************",
"****************************************************************",
"7***************************************************************",
"&***************************************************************",
"8***************************************************************",
"9***************************************************************"};
