/* XPM */
static char *sd_topicnet[] = {
/* width height num_colors chars_per_pixel */
"    64    64       64            1",
/* colors */
". c #ffffff",
"# c #fffef7",
"a c #f7f8ff",
"b c #f6f8f6",
"c c #efeeee",
"d c #e4e4e7",
"e c #dfe0dd",
"f c #d4d4d7",
"g c #cecfcc",
"h c #c6c5c6",
"i c #bcbfca",
"j c #bdbdbc",
"k c #b6b5bd",
"l c #b5b5b5",
"m c #adaeb6",
"n c #9db3b3",
"o c #adacac",
"p c #a5a4ae",
"q c #a1a89b",
"r c #a5a4a5",
"s c #a59c9c",
"t c #9b9c9b",
"u c #959ba6",
"v c #96949c",
"w c #949393",
"x c #879895",
"y c #8c8c95",
"z c #8c8c8c",
"A c #828690",
"B c #858583",
"C c #708f7f",
"D c #7b7b7e",
"E c #6e8273",
"F c #737373",
"G c #65786b",
"H c #537592",
"I c #62707e",
"J c #6b6b6b",
"K c #606b73",
"L c #606663",
"M c #5f656b",
"N c #5b5978",
"O c #4c6b3c",
"P c #5c5a6b",
"Q c #5b5a5f",
"R c #52526e",
"S c #525451",
"T c #52515f",
"U c #4a545a",
"V c #3c546b",
"W c #4a4c65",
"X c #4a485a",
"Y c #4a494a",
"Z c #4b4752",
"0 c #3d4f4b",
"1 c #3d4c5a",
"2 c #42414a",
"3 c #33451e",
"4 c #333c47",
"5 c #353e31",
"6 c #353b3a",
"7 c #202428",
"8 c #1a2215",
"9 c #14120c",
/* pixels */
"..................###bhhjjkmmopuvvyyyzldc.......................",
"..................###bhflttvvvyyAAAvmvyhdb#.....................",
"..................###cjjBY2ZXXXXXZ2PryJrgcb.....................",
"...................#bcllD2ZXXWTTWXXPpvQzhcb.....................",
".....................bkmFZXWRRNNRTXPpyYDgcb.....................",
"....................admmDXXWRNNNNRTPmyZFjdb.....................",
"................b.#cfhmmDXXWRNNNNRRPprDBwgdbb#b.#...............",
"..............a..cfghmppDXWWRNNNRRXPppwrorjfdcb...bb............",
"..........bb..acefglwFJuD2ZXXRRRTWXPmzSFzooorfecb..b............",
"........#b##.behhlBLSSSvBZTTTTTTXXTPmB76SFvrswlecbb.#...........",
"........b#..behhoFQSSJJojoruvvyyyyvthz5SJFFzrstrfcbb..b.........",
"...........bdfjwJSSJDwzrlkklmprtvvvwvJ6FqorBDrottgcbb...........",
"......#b#.bdfkAQQLFtlghozDBzBFLS267775SzjffjtDtrwwjccb..........",
"..######bbghlDQSLBlgecdfyLJJLS2667787YFmfcccflBtowzjdb####......",
"bb##.#b#bfhjBSSJBjedeefhvBzzDFJLQLQ6YLzofc.#celztowzhdbbb##.#...",
"#..#b###dghzSQJzlecbfgfhlottwzzDJFLQLJwwhdbbbbdozvrDrgdbb#b.....",
"bcdefeffgjtQ2TFwjfcbhgcejlrrtttBJJJJJFrBthdb.cbelwvrFpfcb.cbbb..",
"#ehgjjlmmmyDDFDzwzeeoheehottwwyDLLLJJFrFJrefhjjlowroBJztrrmhcbb.",
"bfjjvzABDADDDFDtlKtxGzqqzBBzADFLQLMMQKALYzghhfjlmoopvvyyytrzhdc#",
"bfotT22ZXXXX22YBiUKL0OOOOOGBGUGL0UUUMMU46GrmkrLQQQQTPTTXQylLrgc#",
"bfrvU2XXWTRTXZYAgIxxGOOOOOLCELCCGLUKIIK100DxmyY2ZZXTTXXZZyjSBjd#",
"bfrvT2XWRNNPRTTAgAnnCGOOOOOOExEGECIHHHHKV4QKuyZZXTTPPRTTTyk2Fldb",
"bgrvTXWRRNNNRTTAfAknnCOO3OOOECOOLGIHHHHHV1UMuyXXXTPNNNRTTvk2Fleb",
"bgtwTXWRNNNNRTTyfHnnnCOO3O35LGO35UKHHHHHHVUUxyXXWRNNNNRWTvk6Fleb",
"bgtyUXWRRNNNRWXyfHnnCOOOO3335OOOOUIHHHHHHV11AAXXWRNNNNRWTvk6Jleb",
"bgtyX2XWWRRRWXXAiHuCOOOOOO333333OGHHHHHHHV11AAXXWRRNNNRXTvk6Jleb",
"afpvQTXTTTTTTTTviIuCOOOOOO333330KHHHHHHHV141AAX2ZXTTWWTZSyl6Jleb",
"aekgikmppuvvuupiiIxCOOOOO333335UKHHHHHHNV142AmADFFFIIIFFDol6Fleb",
"aepmollmrtwyABAAAIxCO33OO333330KIHHHHHNVV444Affghijkmppoolt2Fleb",
".chvDwzDJQZ2674TIHxCG0333333330IHHHHHVVV14472DzvvyADFMQSYSY6Djdb",
"bbdrDzDJQS2666TIAAAAEL5333O5550VIHHVVVV116467662FJQY6777985Swhdb",
"ddgozwzBDFJLJJJFAAAACG053OOLLU01MVVV1114446776ZJBDJLSSYY662Frgdb",
"hefhlottwzBFFJJJIxuHIEL535OOUU00UU11444674AuurrtwBzDFJFFJLJwtlfc",
"jcdglotwwwzLLLQJKunIIIK0553500000004666774kcegkrrttzBJJJLLFwtzle",
"hdehlrrtwtwQJJJJMunKVKMLU05500057555557787zcdgjrttttwLLJJJFtrLzh",
"lltwDFzFLLQYSSQQQDCVVVVVU00006588888888888JfglpywzBBDSLJJJJzBYDl",
"jvJS6SzS77662242UU1VVVVVV111258888988888785LS2Z2Y22Y6QDY566YSYDl",
"cfmwDDlB6ZFDBAIUUUVVVVVVVV114788899999988888986TQQQQYBwY72SSLDrh",
"bdefhtrvLFvjghkDU1111VVV1144678899999999887872JtrpoozlzYSFtollge",
".bbccfwoBDrfccdiM2424444444467888999999887786JrffedfomJSFrgeddcc",
".a.bbdorwFtgcccfvZ66774667777799999999887575QtgdbbchgyLLzhcbbbb.",
".....bhwrDDtkijlrJQTX111U67778999985562YSY62MzolkgegjJQFreb.....",
"...###dlotrfffgihmmpuuvyuU88779999QjjlkmmpvvuvrrtwrjBQLBjdb.....",
"....##bgorrkFTTTTXXXX2ZJmM88777999QjzJKMMPPMPTQFppjoQYJrfcb.....",
".....b#djrmpP22XXTXXTZZJjF87777789JlM222XXWXXX2MkkoF2Qzjdbb.....",
".....##cgttrP2XWWNNRRTXKiJ97777778LmMXXXWRNRWWXKmpD6YFofb.#.....",
".......bdmtrMXWRRNNNRWXIiM87777778QmMXXWRNNNRWXKmzZ7Qwhdb.......",
".......#bhttPXWRNNNNNRWIkJ7SMJJJJJFoJXWRNNNNNRWKmJ72zjeb........",
".......#bfrtPXWRNNNNRRXFkF2DtlllllBoJXXRNNNNNRTKmM7Joec.........",
"........bfrtP2XWRRNPRWXJkFSwiddddewrJZXTRNNNPWXKmJ6Bhcb.........",
"........bettP211XWRTTZZFlFSvgbaabcttJ2XXWRRWWXXKmJ2zgc..........",
".........drmDMMMPPPQQQQBjFSvgb..#btrDQTTTRRTTTTFmMYwfc.....#....",
".......a.erhfgghjlooproomLYBjecddftgfghjlmprrroklQYvfba.........",
".........drtzwzwzDJLQYQQJFDtorlljjzoorrrtzBDFJLLQ2Stfb..........",
".......a.bfoJQSLQY667887YDttvztrorzDLYSLJQY6779976Jpeb..........",
"........bcehzBzzBFLSYYY2666YSLFDFLTSSQJDDLSY22662SBmdb..........",
".......djlopvtwwzzBDDDFFFLSSSFBADzBDzvtvzzBDDFFFJJDyldbb........",
".......drolkmjlorrrtwwzzBBBMZBopwoiljjlloorrtwzzzzBFDhdb........",
".......ezDtoooorrsttvwzzzBFS2AjkBDrmkmmmorrttwzzzBDQQtfc#.......",
".......eDQDtporrttwzBDDDDFL22AhhBQDrkkmmprrtvwzzBBJY2Djdb.......",
".......etLS266666666666666662BhgvLYY22222666657566662Bjdb#......",
".......bemBJLQQQQQQQQSQQQQLJDrfdhrDQYYZYYYYYYYYYYYSSJthcb.......",
".......bcfkorrrrrrrrrrrrrrrolgdcdfmtwtwwwwwwwwwvwwwvoheb........",
".......abcddefeeeffffffeeeeedc#bbceefgggfffgggggffggfdc#........"
};
