/* XPM */
static char *sd_topiclinux[] = {
/* width height num_colors chars_per_pixel */
"    64    64       62            1",
/* colors */
". c #ffffff",
"# c #efefef",
"a c #dedede",
"b c #cecece",
"c c #e6ce52",
"d c #efce19",
"e c #bdbdbd",
"f c #efc508",
"g c #f7bd10",
"h c #bdb5ce",
"i c #debd08",
"j c #adadde",
"k c #b5ad94",
"l c #e6ad08",
"m c #a5a5ad",
"n c #d6a510",
"o c #c5a519",
"p c #ad94a5",
"q c #d69c08",
"r c #9c9ca5",
"s c #b3996b",
"t c #d69408",
"u c #949494",
"v c #bd8c42",
"w c #bd9410",
"x c #a58c63",
"y c #c58c08",
"z c #8c8c8c",
"A c #bd8408",
"B c #848484",
"C c #7b7bb5",
"D c #b57b00",
"E c #a57b10",
"F c #7b7b7b",
"G c #a56b00",
"H c #846b4a",
"I c #736b6b",
"J c #6b6b73",
"K c #946308",
"L c #846300",
"M c #6b5a52",
"N c #845a08",
"O c #5a5a73",
"P c #52526b",
"Q c #524a7b",
"R c #734a08",
"S c #4a4a6b",
"T c #5a4208",
"U c #42423a",
"V c #4a3a4a",
"W c #3a3a73",
"X c #5a3a08",
"Y c #4a3100",
"Z c #313131",
"0 c #3a293a",
"1 c #312908",
"2 c #21214a",
"3 c #212121",
"4 c #211900",
"5 c #10103a",
"6 c #191019",
"7 c #000000",
/* pixels */
"......................bC26772SCa................................",
"....................hS7777777777Cb#####.........................",
"...................r37777777773375ra####........................",
"..................e37777777776PJ075maa####......................",
"..................O67777777777VV667Qmbaa###.....................",
".................#377777777777677776Bebaa###....................",
".................b377777777777777777Vuebba##....................",
".................j3776677777633677775Fmebaaa#...................",
".................j37UPV6777ZJzBU67776Jrmebaa##..................",
".................j3ZuemV77Zueebm67777Murmeba##..................",
".................h3JJBbB36MbrJrbM7777VBumeeaa##.................",
".................a3J3ZzB06MeZ60eu6777VFzrmeba##.................",
".................a3PU3MHHNEx376mm6777VFBumebaa#.................",
".................a3ZFHEniinnERHbP7777VJBurmbaa##................",
".................#Z4HolffddddnncX77772JBzrmeba##................",
"..................ZXDqggddcdfdioN77772OFzrmeba#.................",
"..................ZXAlgddddfioqqR77776VFzrmeba##................",
"..................V1NylfdiwAwnqvU7ZVZ70JBumebb###...............",
"..................QPzHDywywtyvkeu67MJ36SBurmeaa#................",
"..................VPmkvEAADAsea#aP64367ZJurmbb###...............",
".................B6Mebekxxskba#..e377776Szrmeba##...............",
"................j27u##beeeba#.#.#.M677775Oumebb##...............",
"...............b37Ia#.abba#.#.....bZ77777ZFrmbba##..............",
"..............aW7Zb....###...#.#.##P777776Vzmeba##..............",
".............aF77u##.##..#.#.......u3777776Vumeba##.............",
"............#z773e#...##.....######bU7777776Pmebba##............",
"...........#r677Vra#..####.#.#aabbbaJ67777776Cmeba###...........",
"...........bV777ze##....#.....###aabeV66677772uebba###..........",
"...........m6760b#.#.#..##.#.....##aaB37667777Smeeba##..........",
"..........aF766r......#..#..#.#....#abP66667775umebaa##.........",
"..........e276Va.#.##.....#....#.#...#u03367777Jrmeba###........",
".........#z666m#.............##.#.....eV66667772urmeba##........",
".........hS66V##..#..###.#....#.#....#aM77767776Frmeba###.......",
"........#u663u.##....###....##.#.#.#..#I77767777Szreeba##.......",
"........hV76Zb#..#...###.........#..#..F777677772Fumeba###......",
".......aJ676U#.#...#.###..##.#.#.....#.B677677777Furebaa##......",
".......z6763V#..#...##..#......#.#.#...B677677777Izrmeba###.....",
".......F776VP#.#..#..##....#.#......#.#z376777777IBureba###.....",
".......F7760F#..#..#.###.#....#.#.#....B666766775JFzrmbaa##.....",
".......rHwATO#...#...##..##.#.......#.aI677777375JBzumebaa#.....",
"......aslfgwRMa...#.##.##....#.#.#..ccdE47777761SIFzumebaa##....",
"......kolgggqTZe#....#..##.#..#...#.cffE1777773wiIFBumeba##.....",
".....evqlffgfq43za.#.#......#...#..#cflE177774EdfJFBurebba##....",
".aepvylggggfgiE77Ib#...##.#...#...#bcllyKY64YGnggIFBzrebba##....",
"jnlllggggggggglT77Vm###....#...#.#abclnqyADDyqlggvFBzrebba##....",
"slggggggggggfgfl1776r##..#...#....#bsnlqqttqnggfggHFzrebba##....",
"sggggggffgggggggG477Ja....#..#.#..#bvyqllllllgggggixBumeba###...",
"pnggggggggfgfggfgR3Zua..#..#....#.aFKylggggggggfggggvxuebba##...",
"pnggggggggggggggfnHe#....#...#..#bO6Rylggggggggggggggnsmeba##...",
"pngggggggfggfgggggnb#.##...#..#arV74Nylggggggggggfgglvsmebaa##..",
"sngggggggggggggggiqvea#..###abmM6774LylggggggggfggiovBurmeba###.",
"oqlgggggggggfgggglqGUJurruzFIU677771KylggggggfgglovHFBzrmebaa#..",
"vyqqllllggggggggglqGY776677777777771KylgggggglloHMOIFBzumebba##.",
"bsxvAAyyqqqllllllqAKY777777777777771NAtnllllqyHMOJJFFBzrmebba##.",
"#abekxHHEGDAyqqtyDGR132ZZ000UUUUU00ZRGAyttyAEMOIIJIFFBzrmebaa##.",
".##aberzFHHHKGDGKKRUVPOOOJJJJJIFFJJSTNGDDDGNMOJIIFFFBuumeeba###.",
".##aabemrzFFIMRRRUVPJJJJIFFFFFFBBBBFMURRRRMMJIJFFFFzurmeebaa##..",
".###abemmruuzFIIMIJFFFFFFBBBzBzzzzzzBFIIIIJJFFFBBBzurmeebaa##.#.",
"..##aabeemmrruzzBBBBBBBBBzzurrrrrrrrrrruzzzBBBBzzurmmebbaa###...",
"...##aabbeemmmrrruuuuuuuurrmmekeeeeeemmmrrruuuurrreeebaa###.....",
"..#.###abbbbeeeekmmmrrmmmmeeebbbbbbbbbeeemmmmmmmeeebaaa###.#....",
"....#####aaaabbbbeeeeeeeebbbbaabaaaababbbeeeeeeeebaaa#####......",
"......#####a#aababbbbbbbbbaaaa####a###aaabbbbbbbaaa#####........",
"........##.#####aaaaaaaaa#a###############aaaaaaa###............"
};
