/* XPM */
static char *sd_topicgnu[] = {
/* width height num_colors chars_per_pixel */
"    64    64       63            1",
/* colors */
". c #343035",
"# c #72132a",
"a c #5f2024",
"b c #544633",
"c c #6a4d36",
"d c #383947",
"e c #563851",
"f c #39485b",
"g c #4a4956",
"h c #55545c",
"i c #4d494c",
"j c #6d594b",
"k c #585767",
"l c #4e546c",
"m c #6e6c6e",
"n c #605d72",
"o c #b20e2e",
"p c #94122b",
"q c #e11139",
"r c #a12b49",
"s c #e4224a",
"t c #8c6f56",
"u c #8d786b",
"v c #9e6363",
"w c #e54d6c",
"x c #766756",
"y c #938575",
"z c #b79679",
"A c #ab8c71",
"B c #c8a478",
"C c #6e778e",
"D c #5b7191",
"E c #987988",
"F c #c49677",
"G c #738694",
"H c #6f8baf",
"I c #91908c",
"J c #b79b85",
"K c #ac968f",
"L c #b2a593",
"M c #8b97ad",
"N c #b8b8b7",
"O c #adadac",
"P c #98a3ac",
"Q c #c8a48b",
"R c #8cabd2",
"S c #b2bbc9",
"T c #91b9ee",
"U c #7ba1cf",
"V c #95c5f9",
"W c #b3c6dd",
"X c #c7c8c7",
"Y c #d7d7d7",
"Z c #d1d2cf",
"0 c #e9ded7",
"1 c #e8e8e7",
"2 c #ffffff",
"3 c #fefdfe",
"4 c #fcfcfc",
"5 c #f7f7f7",
"6 c #f2f0ed",
"7 c #dadfe3",
"8 c #c6bdb7",
/* pixels */
"2222222223322224534444335YNXX8Z155644544222333222222222222222222",
"2222222233322224434555658CghgdknS1766144322343322222222222222222",
"22222222332222242543657OmhhghkggnPZ71165432343322222222222222222",
"2222222233222234266561SikkigginkggIZ7766542333322222222222222222",
"22222222332234541OMN17OuOOIIndhhkghy8116653222222222222222222222",
"2222222233334556PkgggmNOONNOImihhmg.mXZ1164333322222222222222222",
"222222243344456uhhhnndgmINOOOGhhhkhigIZY165434322222222222222222",
"22222225233445XigkhhkhhdgIOOOOnghkkhdnNX716524322222222222222222",
"22222223243451NdgGmdghhg.guOOKkdhhkkghCXZ76643322222222222222222",
"22222223253451NdIOPnddggd.dngi.dhkhkkggNXY6652422222222222222222",
"22222224243556XM8XPPI.i.dddhghg.hkkkkgdOXZ1662522222222222222222",
"2222222424356577X8ZNIudhkggkhkg.gkkknkdyXX7663522222222222222222",
"22222223232554177YXZPihghhknhnhdgnkkkkgiNXY664322222222222222222",
"222222222334546117YZubgdihhkgkkhknklkhg.OXZ115433333333222222222",
"22222222233344544760I.dbjibddggkgnnlhdddI8Z065533344334222222222",
"22222222333334416560L.juuxjuxj.idhlfflklmOZ066533344334222222222",
"222222223322223365ZOmbxxytuLLyt..dddDMRMCPXY11433322234222222222",
"222222223322223541XyyuyuuxtAJQzxcignUTRSCMXZ16433322234222222222",
"222222223322234661yyIyxjjjttuBzzuhhHRUGUCGSZ76633322234222222222",
"222222223332244560xutcxKujjjtBzBJtdCRUHHHMSZY5633323334222222222",
"22222223333424561IuKAcxO0KjcatzzJKnhMWTUUHSXY6643333344222222222",
"2222222343244460XyKJJAtN4OxycbtzJLukDHWRHDSSZ1644333343222222222",
"2222222243245561yyQQzAA8YymLyjjuyyyuhhMSHDPSZ7154433333222222222",
"222222224324446XyLzzQztxxuILLyj.ib.d..CMGGMSX7155433333222222222",
"222222234224457LuyuAAuAAAQLKKmgkCkijxjjGHMMOXZ065432333222222222",
"22222223325447LyuujjtAFBFBzNKhkMGkmIKKxglCnP8Z165433222222222222",
"22222223345558uyuAAtzQFFFBJKmdCMCmKLJQIklmmO8X065433233222222222",
"2222222445316uKtbtAAFFFFzzJKknGMhyJQzJKmCmmINZ166532234222222222",
"2222222334566xyjbuzFFFFAzzAmknGCmIzFBQyjImmOXX766432234222222222",
"2222222356660KxutJAAzBJJAuudkCMlmKJzBJuuIKKN8Z165432233222222222",
"2222222545310ZjAAyxtAQQLuuudDHUDnyJQQAtyIONNX7155422233222222222",
"2222222445006QxtxxjAJL8KyIIlCHRHlhuzFtxxKOOX77154322233222222222",
"22222224446ZOtabjbbyK80OIICfHUVTGhbcAuAjIONY11554222233222222222",
"2222222556YKuzyuAtbxyLNPIIkfHUTTRCxjAAJxmLXZ76544222234222222222",
"2222222567IAzzzJJybuuyyIPCglHUTVRmjtzJJmjO8Z16643222234222222222",
"222222256OKzAQzJJzxyIIIPImklURVVTDhuzQAxnOXZ16443222234222222222",
"222222251xKJJQzzzJtyIIOIuxmlUTVVVCmxtztuyNXZ16443222234222222222",
"222222251yyKQJAxyAxyLKIxxxjgMVVTTDkjbjbIKNXZ16543222234222222222",
"222222210YxuzzAccxuKKuxyyKxhMTVVVHCuuytILOXZ66543222234222222222",
"2222222510yyAtuttttxuyKJJJugGRTVTHntKJzyOOXY66543322334222222222",
"2222222510ZNOuutzzxxAJQQFJydCHVVVUkuQFzuLNZ015443322444332222222",
"2222222551YZ8OKxyycuzQBBFJEiCHTTVTDnKQFtL8Z014443322444332222222",
"22222224561YZ8OxxjbAQzzFBzKiDHUVVTHfEJAxK8Z714533333333332222222",
"2222222445117X8LIyjzQBBFBzKxhGUVTVUnnuuINXX715544333333222222222",
"22222224456617YZNKjyyzBBBBzuiCHTVVTHfhGMPSS766544443333232222222",
"222222244455667YXOctuzFBFQzKenGRVTTRDDHCHMPX61665554444332222222",
"2222222444444561YNcyAQFBzQQKjkCHVTVTRUUHUUDMZ0066665555442222222",
"2222222454436556YXAxLzJQFQJLudGHUVVTVTTTTWMCOY0000O0615552222222",
"22222224444434671ZIbtzKzAQQQEikURVVVVVVTURRGMXZZXLxu861652222222",
"22222225454656511X8ubxttjtttj.dCUVVVVVVRHUUCGOPyKyyxO7Y662222222",
"222222255560Z888QKLAbjcba####aaenUTTVVVRHUUCMPmmmyAuLX0652222222",
"2222222451OAvvvvrrrraa#proooooppakHRTVVRHHRHHClddgjINX1542222222",
"22222224XArwwwqsqsqopprwwssqqqqso#hGRTVUHHUHDlkngiiIOX1542222222",
"22222226Krwwwssqssqqoswwssqqqqqqsr#eMTTRHHHUUHMGlfCGGNY542222222",
"22222221Arwwssqqqqsqqswsssqqqqqqqsp#ERTTUUUURRRHDDHGlNZ642222222",
"22222220Arwsqqqqqqqqoqwsqoppooqqqsr#kURTTTTTTTVRUURMGOZ152222222",
"22222221Krproppppoooopoop#aa#ppoqqo#eHUTVVVVVVVVVVTUHMW142222222",
"22222221XErpp####ppopppop###ppooosr#hGRTVVVVTVVVVVVRMCW752222222",
"2222222Y1XEr#aaaa##pp##pp##ppppp#p#jmCMRTTTRURRRRRRRMDMX72222222",
"2222222ZYZ8Lvxj..a###aa###pppppp#axEEEGCGGGGCDDGGCCCGmGX72222222",
"22222227ZX88LLIuuuyyyyyKIEAvjjjjuyILLOLMMGIMIGGGMGGMONX752222222",
"22222227YZ8NOOPPPLLLLLOPOOOOOOOOONN88XXNNNOOONNNNNSXY16542222222",
"222222211YZXXX888888888XZZZZZYYYY111117777ZZY7711166554442222222",
"22222226107YYYYYYYZZZZY11666655554444555556655444444334332222222"
};
