/* XPM */
static char *sd_topicenc[] = {
/* width height num_colors chars_per_pixel */
"    64    64       33            1",
/* colors */
". c #e7e7e6",
"# c #b0b0ae",
"a c #90908e",
"b c #878885",
"c c #767573",
"d c #646462",
"e c #7c7c79",
"f c #979895",
"g c #c9c8c8",
"h c #cfcfce",
"i c #6d6d6b",
"j c #464442",
"k c #242222",
"l c #160e04",
"m c #1b140c",
"n c #312c29",
"o c #4d4c4b",
"p c #b7b7b5",
"q c #9fa09e",
"r c #555453",
"s c #3e3c3b",
"t c #383430",
"u c #fefefc",
"v c #5d5c5a",
"w c #bfc0bd",
"x c #221c15",
"y c #a8a8a6",
"z c #d9d9d9",
"A c #e0e0e0",
"B c #82817e",
"C c #7e827c",
"D c #f0f0f1",
"E c #ffffff",
/* pixels */
"EEEEEEEEEEEEEEEEEEEEEEEEEEEEEEEEEEEEEEEEEEEEEEEEEEEEEEEEEEEEEEEE",
"EEEEEEEEEEEEEEEEEEEEEEEEEEEEEEEEEEEEEEEEEuD...DDEEEEEEEEEEEEEEEE",
"EEEEEEEEEEEEEEEEEEEEEEEEEEEEEEEEEEEEEEEDzyeirrcfzDEEEEEEEEEEEEEE",
"EEuAAA.uuzzuuAzAAuEzgEE.zAAuuAhD.h.EEEDyvjxllmkkr#DEEuAAAAuEzhDE",
"EEgfggqzDbbDzfwg#gEfvEAfwhywu#dAgdgEEEgodrklxnnktrpuEzqwhyguqiAE",
"E.ipuuqeuqeDBauuwc.wouabuugd.wdAAdgEEEfvisndfyyrsseDDafDuwc.gvAE",
"Egvzuugj.ye.owuuzvwgo.vpuuDopgiAAigEEDBirnBAEEEajsoAAdpuuzvwhvAE",
"E#rAuuhsgyewshuuArygogjhuuuoagiAAigEEzccstwEEEE#ojswzowuuAvqhvAE",
"E#rAuuhsAyegshuuAvpgohjhuuuoygiAAigEEgicssgEEEEhjjtyzowuuAvphvAE",
"Ehdzuu#ruye.vpuuhrhgoDi#uuzjAgiAAigEEwvitsgEEEEAjjsf.c#uugvzhvAE",
"EuyhuDbwufeDgyuufqu#ouhyuuqqupdAzvwEEpjrntgEEEE.orjbuwpDDyquwvAE",
"EEEgwphu.bb.uzwwpEDabzEzwpwDDyeh#ewuEytjntwEEEEEdiobEEzwpwDEabhE",
"Eu.AuDAuED.D.uEDADEu.DDuEDzuEu.DDDEEEytjntwEEEEEiBvbEEEEEEEEEEEE",
"EDfiu#iADyygywuwvhDpfw#pEgozuwqw#pDEE#sonnpEEEEEibvbEEEEEEEEEEEE",
"EEqiEwdApc.uzczDshgvDu.vzzrhzihu.bpuE#tjnk#EEEEEiadbEEEEEEEEEEEE",
"EEyiEgiAcauu.iqushbCuuucBAvhyiDuufcDEytjnxyEEEEEcfdbEEEEEEEEEEEE",
"EEyiEgiAjyuuDeBDswdfuuubrAvhieuuuyrAEytjnmfuEEEEcavCpp#yph.uEEEE",
"EEyiEgiAsyuuDeaDswdfuuubdAvhieuuuyd.E#tsnmbDEEDhiavdeiddiebqzEEE",
"EEyiEgiAcauu.i#ushbbuuuvqAvhyiDuDbaDE#tsnmcD.wqbdbrdeiiddvrriyzu",
"EEfiEwdAhfDuge.DshABuuhiDzrh.qzuAehuEpttnmrqfaBcdbrdeiiddvrojoiA",
"E.biAqihuzww#AuyipuAwwyAupi#uAww#zuEEwstnmtBbbBodBooiciddvoooorA",
"EuDDuuDuuuuuuuuDDuEuDuuEEuuuEEuuuEuuDyttnmnebbbjntnnvciidvrroodA",
"EDfiE.yypyAu.qy##AEadEEEEEEEEEEEuDApavknnmmoBaqadceeeciiddvoooi.",
"EEqiuqaDupbDqbDupBDpoEEEEEEEEuD.wqbbbdkknmmkiffy##yfeciidrrrrrbD",
"EEyi.d#uuhvgopuuzvggoEEEEuDDAhybbbaaffrsttjvbqqqqaBBecivvvvvvvfD",
"EEyizrwuuAvBshuuAr#goEEEE.w#aeeBbaaafyfbbafqyqqqfbbBcivvvvvvvvfD",
"EEyizjwuuAveshuuAr#goEEEE.fcceBbbaaaffy####yyyyyabBcddddddddddqD",
"EEyiAdpuuhvwrwuuzvggoEEEE.fceeBbaaffqqyyyyy###yqbeiiiiiiiiiiiiyD",
"EEqiuy#uu#bDy#uuybDpoEEEE.fccBbbaaffqqy#y####pybccccccccccccccwu",
"E.aiDDggwpAuDgggy.DaiAEEEDqeeBbaaffqqy#y##pppfBcceeeeeeeeeeeeegE",
"Eu..uEuDDDuEEuDDDEu..uEEE.feeeeaaffqy###ppp#bCeeeeeeeeeCeeBBBBgE",
"EEEEEEEEEEEEEEEEEEEEEEEEEAfeeCCBCbaqy#y###aBBBbbbbBBbbbbbbbbbBhE",
"EEEEEEuuuuuuuuuuEEEEEEEEE.qbbbBBbbBCeeeccBbbbbbbbbbbbbaaaaabbazE",
"EEEEuDAAAzzzzzA.uuuEEEEEE.qbbbbbbbbbbbCCebaaaaaaaaaaaffffaaaffzE",
"EEEuAzhgggwwwgghhzADuuuuuAqaaaaaaabbbbbbbaffffffffffqqfffffqqyAE",
"EEuAhwwpppp#####pwghzzzzzgqaafaaaaaaabbaaffffqqqqqqyyqqqqqqqq#.E",
"Eu.zp#yy###yyqqfqqy#ppppp#faaffffffffaaaafqqqqyyyyyyyyyyyyyyy#.E",
"EDzwyqqy#pppyqfabBBbaaaaaafafffffffffffffq##################yyAE",
"EDzpqafypwgwpyfbeiddiidddcafffffffqqqqqqqypppwppppppwwwwpp#qfyAE",
"EDzpqafypghhwpqbcdoojjjssvaqqfffqqqqqqqqy#wwwwwwwwgggggww#qqf#.E",
"EDzpqafqpgggw#qbirstnnnkkjbqqqqqqqqqqqqqqpggwgggghhhggwpyqqqq#DE",
"EDAwyfafq####qbcrsnkxxxmmsbffqqyyyqqqyyyypgghhhhhhhhhw#yyyqqf#DE",
"EE.h#qaaaafabeirjtkxmmmmmsaqqqqqyyyyyyyyywhzzzzzzzzhw####yqqq#DE",
"EEDzg#fbeccivrjsnxxmmmmlltaqqqqqqqy####yygAAAAAAAzwp#p##yqqqayDE",
"EEE.g#fBdvrjstnnxmmmllllltaqqyyyyyyyy####h.....zhwppw##yyyfaByDE",
"EEuAwyacrjsnnkxxmmmlllllltbqqyyyy###y###ph..D.zgwwww####qfbBc#EE",
"EEDzpfCdjtnkxxmmmmllllllltCafyyyy#######ph..zhgggwwp##yqabBec#EE",
"EEDh#fcvjtkxxmmmlllllllllncBbafqy####pppphzhggggwwwp#yfabCecc#EE",
"EEDzpfedotnkxmmmlllllllllniBBbbafqy##ppppgggggwwwppyqfabeeecc#EE",
"EEuAwyacvosnkxxmmmmllllllnieeBbbbafq##pppwggwwwwp#yfabbBeeeecpEE",
"EEE.zw#fBivjsnnkmmmmlllllndcceeBbbaafq##pwgwpwp#yqfabBBBBeccewEE",
"EEEuDzhwyaCivjstkxxmmmlllkrdiceeCBbaaaff#ppww#yffbbBBBBBeecepDEE",
"EEEEEuDzgpyfCirotnkxxmmmmkovvdieeeCbbaaff#wpyqabbbBBBBeeccahuEEE",
"EEEEEEEu.zgpyaBivosnkxmmmkjorvvdiceeBBbafyyqfabBBBBBCeccC#DuEEEE",
"EEEEEEEEED.zgwyfBcvostnxxkjooorvdddcCbbbaffabBBBBBBeeceaAEEEEEEE",
"EEEEEEEEEEED.zgwyfBivostktjjjooorvvdiceBbabbBBBBBeeccbpDEEEEEEEE",
"EEEEEEEEEEEEEu.zhpyfBivojsjjjoooorrrvddieBBBBBBCecceqhuEEEEEEEEE",
"EEEEEEEEEEEEEEED.zhwyfbcdvosjjooooorrvvddcBBCeeeccapDEEEEEEEEEEE",
"EEEEEEEEEEEEEEEEuDDAgp#fbBrsssjjjooorrrrvcBeccccByzuEEEEEEEEEEEE",
"EEEEEEEEEEEEEEEEEEEDDzhw#ybjsssjjjjoorrrvieccccbwDEEEEEEEEEEEEEE",
"EEEEEEEEEEEEEEEEEEEEuD.AhhgfjssssjjjjoorrdccceyzuEEEEEEEEEEEEEEE",
"EEEEEEEEEEEEEEEEEEEEEEuuDDDDpcjsssjjjjooodccbgDuEEEEEEEEEEEEEEEE",
"EEEEEEEEEEEEEEEEEEEEEEEEEEEEu.hqvosjjjjoodcq.uEEEEEEEEEEEEEEEEEE",
"EEEEEEEEEEEEEEEEEEEEEEEEEEEEEEuuDAgqbcrooiwDEEEEEEEEEEEEEEEEEEEE"
};
