/* XPM */
static char *sd_topicscience[] = {
/* width height num_colors chars_per_pixel */
"    64    64        8            1",
/* colors */
". c #5d4f4d",
"# c #b7ada1",
"a c #dfd8cd",
"b c #877d77",
"c c #cec5b8",
"d c #9e948b",
"e c #716560",
"f c #fdfdfb",
/* pixels */
"ffffffffffffffffffffffffffaaaacaaaffffffffffffffffffffffffffffff",
"fffffffffffffffffffffffffacccc##caaaffffffffffffffffffffffffffff",
"fffffffffffffffffffffaaacc##cc##caccafffffffffffffffffffffffffff",
"ffffffffffffffffffaaacccc##cccaccaccaaafffffffffffffffffffffffff",
"fffffffffffffffacccc###cccccaaaaaacaaaaaffffffffffffffffffffffff",
"ffffffffffffffaccc####cccccaaacaacaaaaaaafffffffffffffffffffffff",
"ffffffffffffffacc####ccaaaaaaacccccacaaaaaaaaaafffffffffffffffff",
"ffffffffffffffac####ccaaaaaaaaccacccaaaaaaaacaaaafffffffffffffff",
"ffffffffffffaacc#####caaaaaaacccaccaaaaaaaccccccaaafffffffffffff",
"ffffffffffffac#####c#caaaaaaacccaaaaaaaaaaaccaccccaaffffffffffff",
"fffffffffffac######cccaaaaaaaccaacaaaaaaaaaaaaaacccaafffffffffff",
"ffffffffffac######ccccaaaacccccaccaaaaaaaccaaaaaaacccaffffffffff",
"fffffffffac########ccaaaaaaccccccccaaaacaaaaaaaaaaccaaafffffffff",
"fffffffacc#########ccccaaaaccccccccccccccccaaaaaaaaaaaafffffffff",
"ffffffaccc#dddddd##ccccccccccc###ccccccccccccaaaaaaaaaafffffffff",
"fffffffac##ddddddd##cc###ccc###cccccccccccccccaaaaaaaaaaffffffff",
"ffffffac###ddddbdd########cc#cccccccccccccccccaaaaaaaaaaafffffff",
"ffffffacc##dbbbbbd######ccccccccccaaaaaaaaaaaaaaaaaaaaaaaaffffff",
"fffffacc###dddbbd#######cccccccccccaaaaaaaaaaaaaaacaaaaaaaafffff",
"ffffac######ddddd#######ccccccccccccacaaaaaaaaaaaacaaaaaaaafffff",
"fffffa#######ddddd######c#cccccccccccccccaaaaaaaaaccaaaaaaafffff",
"fffffac##cc###dbdd#dd####ccccccccccccccccaaaaaaaaaccaaaaaaafffff",
"ffffaacccc####dddddd####c##########cccccccaaaaaaccccaaaaaaafffff",
"ffffaccccccc##ddddddddd##cccccccccccccccccaaacccccc#caaccaafffff",
"ffffacccccc###dbdddddddd#cc##########cccccaaacaccc##ccaccaafffff",
"ffffaccccc###ddddddddddd######c#c#######cccccccccccccccaaaaaffff",
"ffffacccccc##ddddddddddd##cc#dd###cc#cccccaaaccccc#cccccaaaaafff",
"ffffaacc#c##ddbbdddbbdbbddd##ddd#########ccaccccc###ccccaaaaffff",
"ffffaacccc#dddbbbbbdddd##cccc#ddddd##cccc#cccccc###cccccaaaaafff",
"ffffacc#cc##dbbbbbdbbbbbbbdcccc#dddd##cccaaacccc###cccccccccafff",
"ffffaccccc##dbbbbdde..eeebd#ccac#########caaacc####cccccccc##aff",
"ffffaa###c#dbbbbbdbe.....ebd##cc####ddbbdd##ccc#dd#ccccccccccaff",
"fffffacbdddbbdbbbbbbe.....eebbdddddbbee.eebbdccc#d#ccccc####caff",
"fffffacdbbdbbddbbeee.ee......ebbddbe.......ebd#c##d#c#####dd#aff",
"fffffac#bebbbddbbbeeee........ebddb..........bdc##d##dd##ddddaff",
"ffffaaacb.ebbdbbbbe..........ebbdde......eee.ed#####c#dddddbdaff",
"ffffaaacdebddbbbbbeeebe..beeebb#cce...e....e.bdd###cc####dbb#aff",
"ffffaaca#d##dbbbbbebebdbbbbbbbb#ccdebebe.ebe.ebd########ddbb#aff",
"ffffaacacd##ddbbbbbbbe.ee.eebbdcaac#bbbbbbdbbbd###ddd#c##dbb#aff",
"fffaacccc###ddbbbbbbbbeeeeebdbdcacccde.eeebdddd###bebd####dd#cff",
"fffaccccc###ddbbbbbbbbbeebbdbbdcaccccbeebdd#######dbbd#####dcaff",
"ffaa##cc##ddddbbbbbbbbbbbbbbbbb#aaccc#beebd########bbd##cc#dcaff",
"ffacc#cc#ddd#dbbbbbbbbbbbbbbbbb#aaaac#dbbbd#######dbbd##ccc#cfff",
"fffacccc#ddd#dbbbbbbbbbbddbbbbd#caaaac##dbbbdd####dbdd###cccafff",
"fffaac#c####c#dbbbbbbbbbdbbeebdccaac#ca##dbbbd##c#dbdd###cccafff",
"fffac##c#ccfa#dbbbbbbbbbdbeeeb#ccaacd#aac#bbbd####ddd##d#caaafff",
"fffa###ccaffa#dbbbbbddddbe.beb#ccaaadb#aac#dbd#c#d##d##ddcaaffff",
"fffc#ccaffffa#dbbbdbdddbeeebeb###cac#bb#cac#dd#aac###ddd##caffff",
"fffaaaafffffacddddbdddbeebbeebbd##cccdeb#cac###affac#dbd##aaffff",
"fffffffffffffadddbbddbebbbbe.eebbdd##dbbd#cc##cafffac#ddd#aaffff",
"fffffffffffffa#bbbbdbbbbbbbb.....bd####dbd#c##afffffa#dd#cafffff",
"ffffffffffffffcdbbbbbbdbbbbbbeeeeb#c####db####afffffacdd#cafffff",
"ffffffffffffffa#bbbbbbbbbbbbbbbbb##ccccccdd###affffffc###cafffff",
"fffffffffffffff#beeebbeebeebbbddddd##ccaadd##caffffffaaaaaffffff",
"fffffffffffffffabe.eebe.ee.bbdbbdbbd##cccdd##affffffffffffffffff",
"ffffffffffffffffd...e......eebeebbebdd##dbdd#affffffffffffffffff",
"ffffffffffffffffad......e...ee....eebbbb.ebdcfffffffffffffffffff",
"fffffffffffffffffab...eeee.........ebbde.eb#afffffffffffffffffff",
"ffffffffffffffffffcb..eeeeee......eebddbeedaffffffffffffffffffff",
"fffffffffffffffffffce.eebbbbbbbbbddddddbedafffffffffffffffffffff",
"ffffffffffffffffffffcb.eeebbddddd#cc#dbedaffffffffffffffffffffff",
"fffffffffffffffffffffa#b.eeebbbbbdd#dbb#afffffffffffffffffffffff",
"fffffffffffffffffffffffa#e.......eb#caafffffffffffffffffffffffff",
"fffffffffffffffffffffffffac#ddbbdcffffffffffffffffffffffffffffff"
};
