/* XPM */
static char * shop_window_1_xpm[] = {
"64 64 34 1",
" 	c None",
".	c #202020",
"+	c #212121",
"@	c #222222",
"#	c #232323",
"$	c #242424",
"%	c #252525",
"&	c #262626",
"*	c #272727",
"=	c #282828",
"-	c #292929",
";	c #2A2A2A",
">	c #79B0CE",
",	c #2B2B2B",
"'	c #2C2C2C",
")	c #2D2D2D",
"!	c #2E2E2E",
"~	c #2F2F2F",
"{	c #303030",
"]	c #313131",
"^	c #323232",
"/	c #333333",
"(	c #343434",
"_	c #353535",
":	c #363636",
"<	c #373737",
"[	c #383838",
"}	c #393939",
"|	c #3A3A3A",
"1	c #3B3B3B",
"2	c #3C3C3C",
"3	c #3D3D3D",
"4	c #3E3E3E",
"5	c #3F3F3F",
"....+++++++@@@@@@@#######$$$$$$%%%%%%%&&&&&&&*******=======-----",
"....+++++++@@@@@@#######$$$$$$$%%%%%%%&&&&&&&*******======------",
"....++++++@@@@@@@#######$$$$$$$%%%%%%%&&&&&&*******=======------",
"...+++++++@@@@@@@#######$$$$$$%%%%%%%&&&&&&&*******=======------",
"...+++++++@@@@@@#######$$$$$$$%%%%%%%&&&&&&&*******======-------",
"...++++++@@@@@@@#######$$$$$$$%%%%%%%&&&&&&*******=======-------",
"..+++++++@@@@@@@#######$$$$$$%%%%%%%&&&&&&&*******=======-------",
"..+++++++@@@@@@@######$$$$$$$%%%%%%%&&&&&&&*******======-------;",
"..++++++             >>                                         ",
".+++++++           >>>>>                                        ",
".+++++++         >>>>>>             >>>                         ",
".++++++@      >>>>>>>>>            >>>>>                        ",
"+++++++@    >>>>>>>>>>        >>>>>>>>>                         ",
"+++++++@   >>>>>>>>>>>       >>>>>>>>>                          ",
"++++++@@   >>>>   >>>    >>>>>>>>>>>>                           ",
"++++++@@         >>>    >>>>>>>>>>>>                            ",
"++++++@@        >>>>   >>>>>>>>>>>>>                            ",
"+++++@@@        >>>  >>>>>>>>>>>>>>                             ",
"+++++@@@        >>> >>>>>>>>>>>>>>                              ",
"+++++@@@       >>>>>>>>>>>>>>>>>>                               ",
"++++@@@@      >>>>>>>>>>>>>>>>>>                                ",
"++++@@@@      >>>>>>>>>>>>>>>>>>                                ",
"++++@@@@      >>>>>>>>>>>>>>>>>                                 ",
"++++@@@@     >>>>>> >>>>>>>>>>                                  ",
"+++@@@@@     >>>>> >>>>>>>>>>                                   ",
"+++@@@@@     >>>> >>>>>>>>>>>                                   ",
"+++@@@@@     >>>  >>>>>>>>>>                                    ",
"++@@@@@@         >>>>>>>>>>                                     ",
"++@@@@@@        >>>>>>>>>>>                                     ",
"++@@@@@@        >>>>>>>>>>                                      ",
"+@@@@@@@       >>>>>>>>>>                                       ",
"+@@@@@@@       >>>>>>>>>>                                       ",
"+@@@@@@#       >>>>>>>>>                                        ",
"@@@@@@@#      >>>>>>>>>                                         ",
"@@@@@@@#     >>>>>>>>>                                          ",
"@@@@@@##     >>>>>>>>>                                          ",
"@@@@@@##     >>>>>>>>                                           ",
"@@@@@@##      > >>>>                                            ",
"@@@@@###        >>>                                             ",
"@@@@@###       >>>>                                             ",
"@@@@@###       >>>                                              ",
"@@@@####       >>>                                              ",
"@@@@####      >>>                                               ",
"@@@@####      >>>                                               ",
"@@@@####      >>>                                               ",
"@@@#####     >>>>                                               ",
"@@@#####     >>>                                                ",
"@@@#####     >>>                                                ",
"@@######     >>                                                 ",
"@@######                                                        ",
"@@######                                                        ",
"@#######                                                        ",
"@#######                                                        ",
"@######$                                                        ",
"#######$                                                        ",
"#######$                                                        ",
"######$$$$$$$%%%%%%%&&&&&&&*******=======------;;;;;;;,,,,,,,'''",
"######$$$$$$$%%%%%%%&&&&&&&******=======-------;;;;;;;,,,,,,,'''",
"######$$$$$$$%%%%%%&&&&&&&*******=======-------;;;;;;,,,,,,,''''",
"#####$$$$$$$%%%%%%%&&&&&&&*******=======------;;;;;;;,,,,,,,''''",
"#####$$$$$$$%%%%%%%&&&&&&&******=======-------;;;;;;;,,,,,,,''''",
"#####$$$$$$$%%%%%%&&&&&&&*******=======-------;;;;;;;,,,,,,'''''",
"####$$$$$$$%%%%%%%&&&&&&&*******=======------;;;;;;;,,,,,,,'''''",
"####$$$$$$$%%%%%%%&&&&&&&******=======-------;;;;;;;,,,,,,,'''''"};
