/* XPM */
static char * sidewalk_xpm[] = {
"64 64 39 1",
" 	c None",
".	c #6A6A6A",
"+	c #BEBEBE",
"@	c #747474",
"#	c #6F6F6F",
"$	c #626262",
"%	c #555555",
"&	c #9A9A9A",
"*	c #979797",
"=	c #8D8D8D",
"-	c #868686",
";	c #828282",
">	c #676767",
",	c #5C5C5C",
"'	c #D4D4D4",
")	c #C7C7C7",
"!	c #BBBBBB",
"~	c #B7B7B7",
"{	c #B3B3B3",
"]	c #AEAEAE",
"^	c #AAAAAA",
"/	c #8A8A8A",
"(	c #E0E0E0",
"_	c #C0C0C0",
":	c #DEDEDE",
"<	c #C4C4C4",
"[	c #B0B0B0",
"}	c #AFAFAF",
"|	c #B5B5B5",
"1	c #B8B8B8",
"2	c #6D6D6D",
"3	c #858585",
"4	c #696969",
"5	c #D8D8D8",
"6	c #BCBCBC",
"7	c #656565",
"8	c #CACACA",
"9	c #E4E4E4",
"0	c #717171",
".++@@@@@@@@@@@@@@@+@@@@@@@@@@@@@@@@#@@@@@@@@@@@@@@@+@@@@@@@@@@$%",
"&*=-------;;---;-------------------;;------------------------;>,",
"'')!~{~~{{~~{~~{{{~{{]{{{!~{{{~~!!~~{{{{{]]]^{{!!!~~~!~~~]]{{~/$",
"(')~{]{~~!~{{{{]{~{~~~~~{{{]]{~~{{{{]{~{{{{{~{!~{~~~~~]^{~{{~~-.",
"('_~~~{{{{{~{]{{~{]{~{~!~{~{{{{{{{~~~{{{~~]{~~{{{~~~~!~{!!~~~!->",
"''+!!~{]{{{~~~~~~{{{{{{~{{~~{{{{~~~{{{{{~{{{~~~{]~~{{~~~!~~~~{-.",
":'<[}[|1|||[[[[||[[|[[[[|||[[|||[[|1|[[[[[[|1[[[[}}[||[[11|||[/2",
"''_|||||||[[||[11||||[[[[[[|11|[||[[[[[[[}[11[[[}[||1|[|||[[1134",
"5'611111|[[||1|[|||[}}||1||||[[[|||11||[[[}[|1|||[[[||||||||||37",
":'_11|[[[[[[[||||[[[[[111|||||11|[[[||[|||[[1||[|||||||||[[|[[/7",
":'_|[||||[|1|[[|[}[[|||||[||[|11|[[[[11|[|[[|1||||||||[}[||[[[=$",
"5'611111|[[||1|[|||[}}||1||||[[[|||11||[[[}[|1|||[[[||||||||||37",
":'_11|[[[[[[[||||[[[[[111|||||11|[[[||[|||[[1||[|||||||||[[|[[/7",
":'_|[||||[|1|[[|[}[[|||||[||[|11|[[[[11|[|[[|1||||||||[}[||[[[=$",
":'61|[[|||[[}}[|||11|[[||[[[}[1|||[[[|[[||[[||[}[[|||[|[|[}}}[;2",
":'6[[||[|1611|||[[|1||||1[}[|||[[|||[[[[|1[}|[[[[|||[}[|1|[[[[;2",
"5'_|[[[|||111[[|[[||[||||[}[[|[[[[|1|[[[[[[[|[[[|[[|[[[||||[||;7",
"('861|||}[[[||||||||||[[|[[|[[[|111|[[[[|||11|[|||[[|||[[[}}||;7",
"('86|[||||[[[111|[[[}}[|[|1|[||1|[|[|[^}[1111|||1||[[|1|[}[[||62",
":'8||||[|||||[[[[||[||||||||1|[[}}[||[||||[[[|||||1||||[[[^[|[64",
"''61|[||1111|[[||||[||1|}[[||1|[[||||||[[[}[|}}[|1|||1||}}^|||34",
":'61[|[[||11|[|||||||161[}}}[[|[}[|||[[[||11||1[[|[}}[[[|||||[;4",
"5'8|||||[|||||111||[|11|}}}|||[[|[|11|1|||||[|||||||||||[||[[[64",
":'<1|[[[[[}^}[1||11111||[||[||||[[|||[[[[||||||11111|[1|||[[[|34",
"5'<1||||||||[[[[[[|||1|[||[}[|1|[|||[[|[|||||||[[[[|||11|}|[[|37",
"5'8|[[[[[}[|||1[||[[[||[[[[[||||[[[}}[1||[[|1[[[[1|||||||[[|1};4",
":'8[[||[[||[[||||[[[[[[[|[[|||[||[|||||||[[|1|[}[[[||[[[[[||||62",
"5'8[||||[[|||[[[}}|||[||||[[[[|[[|[}||[[|1|||}[[||}}[|[[[[||[|34",
":'<1|[[[[|[}}[|||[[[||161|[||}[|||}[}|1111||1||[}[|||1||||[|[[/4",
"('611[|[[[|[[[[[||[[[|11|||[[[|||[[[|[[[[[|||||[}[[[|111[}}[[|;2",
"('<||1|[[||[||||||||[[[|||[||[[[|||||[[|||||||[[[||[||[}[|[1[}34",
":'<|||[|1||||||[[||[|11[^}[||[[[|[[[[1|[|[[|[[[[|1[[[[[[[|[|113$",
"9'6||||||||||[[|||[|111|[}}[[[|[[|[[||||[[[111[[}[|1|[|1[[}[|[37",
":'81[|[[[|[[[|||[[[|11|||||[||[[[|||1|||}}|[[[[[||[||||||[|[||;2",
"''<1}}}}[|[[[[[1[[[[||||[||||||[[[[||[[1|[|[[}[|[[[|[[||[[[}||;4",
"''<1[[|||111|||||1[[|||1||[|[[[}}}[[[[[|1|}[||[|||[[[[[|[[[}}};0",
"5'_||11[[[[}}[}[|||[|1||111[[[||||[[[[[[[[[[[||[|[[|[[||1|[[[}6$",
":'6}[1|[||[}[[[|[[|[1|[16611[[[11|[[[|||[||[[||[[||[[[[||[[[[[;7",
"('<1|[}}||[[|||[[[|||[||1611|}[|||[|||[[}[|[|||[|[[[[}}}[}[}}[64",
":'_|[[[[[}}[161[[||[||[|11|[[[[||||[|||[}}||1|[}[||||[}^}[1[}|64",
"5'61[}}[|[||[|[|11|[[|||||}}[||11||||[}[[|||[||[}}[|||[}[||||[;$",
"('<||[[[[[|[[[|166[[[[[|||[|||1||[|11||[||[[[[||[[[||[[||||||[62",
"9'<1||[[||11111||1[[[[[||[[|||[[[[[[[[|[[|[||[[|[[|1|||[[[[1[[32",
"9'_[[[||11|||11|[[||[[[[[[|11[[||11[}[|111|111|11|[|||||[[}[1134",
"5'<1|[[|1||||||1|[||[|[|||||[|||||11|[[||||||[|||111|[}[1|}}|[;7",
"5'8[|1||||||[1|[[|||[[}|11[[[|[[||||1|||[}[||[|[|1||||[[66[[[};0",
"5'_11||[[[|||1|[}||[||1|[1|[|1|[[[||||||1116|[[[[|||||[[||[|[^32",
":'_[}[||[[[[||[|||[[||}}[[|||[|[[[|[[[||||[11||||[|[|||[[}||[[=0",
":'<1[|||[[}}[|1|}|[[|[}}||1||[[[[||[[[[}|[||||||||[[|1|[[[|[[[=2",
":'<11|[[[[[||[[|[[|||[[[|||[|111|[[[[[[||[|11|[[|[|||1|[||[[}}6$",
":'8|}[|11||||[[[[}}}|||[|1||||[||1|}}[|||[[|1|[[[|1|[}[|[||[[[30",
"5'8|}}1611||[[|11||11||[[[|||||||||||[[[|||||||||[[11|[||||||[34",
":'<1[[|11|[[|||||||1||[[|1|||[[[[[[[[}}[[||[|[|[|[[|11|[[|[1[[34",
"5'<|[[[|11[}}||[[[}^[||||1||[||||||[}[|[[|11|[||[[[|[[[[[|||6|3$",
":'<1111||[}[||||||[}[[|[|||||||[[}[[[|||||||[[[[[|[}[||[|[[||^;4",
":'<11||[[|||1[[[[||1|||[[[|||[|[[[[|[}[[[[[[|||611|[[1|[[||[|}37",
"5'<||}[[|||||||||111|[}}}[|[[||[[[[[[[[[|||[[[|1|[}}[|||1||[|[32",
":'_||[}[[[||||||[|||}^}[||||[[}[||[[||[||1||}}[[||||1||1|[}}1137",
"''_11|[[[[[||||||[[|||||[[||||||1||[[[[|||[||||[[|||||||11|||[34",
"('_|||[[||||[[[|||[[|||1||||[[[[[[|1||[[||}[1||[[||||1|[161||637",
"('<1[[[||1|||[[[[|||||||||[[[[||[||[[|||[|[[||1|[|111|[^[||[1|34",
"''81||||||||[||[[||[|[[[|1|[[||1111|[[|[[}}[}[|1111||1|||[}[||/$",
"&&=3333333;;33/33333333333333333333;3333333333333333333333333;4,",
"466@@@@@@@@@@@@0@@6@@@@@@@@@@@@@@@000@@@@@@@@@@@@@@6@@@@@@@@@0$%"};
