/* XPM */
static char *magick[] = {
/* columns rows colors chars-per-pixel */
"64 64 63 1",
"  c Gray0",
". c #010101",
"X c #020202",
"o c Gray1",
"O c #040404",
"+ c Gray2",
"@ c #060606",
"# c #070707",
"$ c Gray3",
"% c #090909",
"& c Gray4",
"* c #0b0b0b",
"= c #0c0c0c",
"- c Gray5",
"; c #0e0e0e",
": c Gray6",
"> c #101010",
", c #111111",
"< c Gray7",
"1 c #131313",
"2 c Gray8",
"3 c #151515",
"4 c #161616",
"5 c Gray9",
"6 c #181818",
"7 c #191919",
"8 c Gray10",
"9 c #1b1b1b",
"0 c Gray11",
"q c #1d1d1d",
"w c #1e1e1e",
"e c Gray12",
"r c #202020",
"t c Gray13",
"y c #222222",
"u c #232323",
"i c Gray14",
"p c #252525",
"a c Gray15",
"s c #272727",
"d c #282828",
"f c Gray16",
"g c #2a2a2a",
"h c Gray17",
"j c #2c2c2c",
"k c #2d2d2d",
"l c Gray18",
"z c #2f2f2f",
"x c Gray19",
"c c #313131",
"v c #323232",
"b c Gray20",
"n c #343434",
"m c #353535",
"M c Gray21",
"N c #373737",
"B c Gray22",
"V c #393939",
"C c #3a3a3a",
"Z c Gray23",
"A c #3c3c3c",
"S c Gray24",
"D c #3e3e3e",
/* pixels */
"nbg;$$8q;;;quqkuqu;ugq,kqq5gggugp,qk8;qbu5pu,qq8;5$;,kku8ubZgug$",
"8;5#588u8;;58q58ug5$5;5pgq#$,5;#$pbk5888$$;$5ppu5q5u8,kkpg5Zpkn5",
"q5q$q8qppuu8,q8,qZg;8k,kpp#o5;p;$;8u;8q8,58qq8pq885g;,;p88;kgkZb",
"u;8$qq88qq8,8;,8,u85;p5gpk;$p8npgp55q8,u5;,;q5,q5qqu55$5uq,5ugqb",
",$5,qu5$pk,ppuupp$$;;$;pu,5qq8ukbkq855pggg,u,,5u8,k58q5,g$;;p85n",
";kqpq$#$gp,u5uq88$;55qqpbp88qk5kZkq8,5,8kZu58q8u,$8;8u;,u;p;qggn",
"q8858558;q8u5,;;p5#$qbkqpp,,5p8;u8,85ppg8p,8qkpq;q;q,g$5quq85nu8",
"g5pgq;uq;q,,8gq5$#;$$5558uq;$5p,q5#588g,8;5ggpgg8qq;ug5qgpkg8gkp",
"858g8,uZbbup8u;8#5qb,85gqpk;#5u,up#;8,gub55pkk,u8g88k5$5,ugg8qkg",
"5555kg;8b58uqg5u;guk;$$$8qpkqppnub$,,8p5kubbqk;8uq5qq88u;,8npguu",
"q8,qkn8;gp5p88uq8,,pq$p$8;5Zu5;pqq#,u8uqpuq5#585up$,qk8kgq;8885$",
"uqp5pbk55bkugu;qkp,5$;p,up,knpp8,8#8u;p8$,$;;qq;;b;$;u;5,$$qbgp;",
"gug88u88;kkZnu88qq8q58kggpguqug5;5#;kq55$8,ukp55#,$qq,;$,quu58u$",
"gqqu;q#$ugnpuu$q,pp;5gp5q5u,585g;$5p8gpg,,5kkq8p55qqpqq5q,bb;588",
"k;5q88$;,bgug,;gkuqquq;;5uu$q8,quugu5pqu,85ggq;q$$5g55uu,8gquk;p",
"8,88up#o$,u8k,qun55k85885pq,$$k;$$gppqgk8,,8up8$#$qu88u;$;58qq,k",
"ppgqgq;#qup8uq,5p,8g,;p8,;gup5gp5$uk858bnu,u8pq8uu5;8;g55$qggbu5",
";$;bbkg88$8p,p8uqu$$8qk;pukuugpu,qguq5$,ukku;8upbq5qbqq8p5,b8,gq",
"p85pgZg8p$$uup,8qu;;5gq,qngnkq5u8kq5q,,8q5b888,5g5gqpbnq5;,88kgu",
"up55pngq5885$5upnuq,$$u,58uqp5pp;bkkg5;g5bb;$,pqqup85pu,pg;8ub8$",
"5p8,qnbuugkqubbugq;q;$kbu;8;q8,5,,58qg8;8ung8qubq,gp$,qp5k8u8qq;",
"p5;uu8ppqpggZuq,$q,gk;8q5u,$58u,,kbuquuqpukq8pu,qugk8k8upupgb;58",
"qqpugupu5;8gppp5;p,guunnp88;8qu;8q,8qq58;q5k85q;5q88;pbqqkZ5$;qg",
"pgnkbpb8##$8kknb,gp8qpkDkugkp,;g8q5pnqup8pbkp5,;5u5;5upgu,uq$8up",
"u8upkuu;,q8qu85;qgu,85gppu;5,qupbu$$$$,qkun8g;$$uu88;,;$8gu;5bgu",
"555$,88ub,8g8$;;ngu5gnn8;q5#$8;q,8,;$,;uu8kbn8ppggkp;;#$pq585q,p",
",5p8,pb,5k;,85p8u58pqgnggp$$gb5p;5,;bkk5855uk,,bqkg58p5u58qq8p8q",
"58gp,ug$5p8$58q;;q;qpq5;;5;$pq,u$gkgkqgquu;q8uppqu;gqu558q8,$gpb",
"ugk88p,$8uq,5q,5$,8quu;$85;qk;;q;uq5g;;ug,,58pqggp$,gugqpkk,$pun",
"pb,gg5p8kunp8;,q55pu8pg5;,88q8;,5q5#,gqpq,,$5g;85$5qu;8pkZZg5pnb",
",u58nqp;q,q5;,;58;,;5,5,,5$$bunnqq8,5,8k5upu5,,,u,pupg88u5;5,,kg",
"gbu;u8q$#8pg,5$,8nk8pqug5,,$5quukg;u,55kuuqbq;gb5$qngubbb$,85$8,",
",u;qq;u8#;5p85;#;5npbb;;8,b8qq55qq5u5gupkuu8##gbu5,5u,gZb,5gq,gp",
"u;585;888qungkq5pkkqb,#5gnZnkqubu8q;;,guq$##5#5pg8p5pq,kq,5;p888",
"uuuqu;ug8ubnbu5;8qbng;;,ppkb,qukpnnp58nu588;q$5qkp,q8u;qp;55gZkp",
";;gnb8unnq5u,5,58unp58pp5;;,5u85,;,q$qkgq,88q$uqkk555;8,,qqugbu5",
"q,5bp5$;8qguubb;,8uupu;;q,;q5,;;pg8$;;uqq$qq5;5;bp$558qug,p5858u",
"88ub55;;$qgkgkg,5gg8,gpk8;pu5g5$q8;,88,8;,kppgg;qq55$8,,q5;5qgu,",
"8,kuq8,$;55,,pq#$pu$55p8;8,uq;8q$8;88qg,q;q;$8k;u55q5q58u;55ukq5",
"5pkkngpu8qpqgpp$5k5,8,55ubp8$qpk$#;k8,;u85$85$,upk$$ug#;nuquuu;8",
";n5q8qub;$pu5$#;$58u;qu,8png;;,8,;bkp,;pg;,8$;5pq,qq,k$$kkqq5,,5",
"gkku5qkgp88p;5$$$$;nq,qgubZpbggqpp8q$$gkp;8,$#5pu,k;,u,;5g8qnpq,",
"q,5u8$u,pZkuuq$q;kqpqp55$qbqbDkuug88;8u,k8uqq,uDn5kq8u8ggu8$q;$8",
"5uuqu$88;k;;u;;b,gp8buqu$8bqpbn58q5,8uuq5gbuu8;ubu5kpg8;,$$;gquk",
"pku,58gk,k$qunbDpkgqq8,,gpk;qukuq$$p55;8$;upkuqgu$8g8,gkkbu888uu",
"$,up,55kgb,kpp,pu8pu88pgg;k8g55qq,,5#o$gppqu888,5$;;85kZpkb8,ppp",
"8#qbuuup8u8,8$8kpp,,,pgpg;qq;8,gg,qp8$uDkk85bkb5,,$8uu85$5qqkgkq",
"5$5pZgq8,q;5q;8pqkbgu8kpq;,u$ugkb8kb5u,kp;5$8,u$,b8bp$;8##;kp,5u",
";u;pbbb,85pupg8u5bbpkbnb;$;p;,gu;5p5;$;u8$,,pbq;8kkpn;q;,8uqqgpq",
"qq;,q8$$uu8qbbu,8qg8nbq8,qgup8q;$$,5u,uukpp;kp$8qg8un5$qqqpg,,$,",
"p5,,qk5qg;558unpqgq$;8u,#8bu5$ukq5$$qqkqugbqgq$ub8u8g8$p8,,kpu;8",
"q58uqpkbu;p;;gg;;puqqpu8$8p5,$8qu,;5uqu8$5qqq8ugb;8q8q8p$$q;;bu8",
",qu;pqqq588p5,$,uk8q8855kn8gu5;#,,bn8;#;##$5kqguq5q;,pug,q,,#5$u",
"pg;,uqup5$#$,$8kg55p;pnnb85pu$u;88pk;p$;u88;;5ukn5$5u5upq;q858$g",
"b8,,85gb5$,,ququu5u88p,bpgqkq#,#;#5$;58,kqb8uu5ug8,k,5bkg;8,;q,p",
"g$$;;pnZg;8,,,qgu5qq8,$p,5,q$####;55uq8p8pkgpg,888gkpZbup8$8uqq;",
"588gpub5pu5p5;u5$$,;q888pq$8uq5,qbqp,88;5bgq8q,;$5gkk8pgkg;gbp;$",
",5kk5qnp5n8$$uq$;;58q5qp5p$quug58kZZu8;o;Zn5ugq;$;u;58u,,p8ug8qq",
",kp5nggb5g;#,g5$;,$gg;#$;b,q,8g;5q8n,bg$qgk8u5u8;$g8gb855g,8k5kg",
"up;5np,8qggq;gpqpu,5n,,;$u55;$gb5pug8ng;5qpp;8p88q8pgpqq;u8;p8un",
"oooo#ooooooooooooooooooooooooooooooooooooooooooooooooooooooooooo",
"oooooooooooooooooooooooooooooooooooooooooooooooooooooooooooooooo",
"oooooooooooooooooooooooooooooooooooooooooooooooooooooooooooooooo",
"oooooooooooooooooooooooooooooooooooooooooooooooooooooooooooooooo"
};
