/* XPM */
static char *magick[] = {
/* columns rows colors chars-per-pixel */
"64 64 64 1",
"  c #373737",
". c #414141",
"X c Gray30",
"o c #565656",
"O c #606060",
"+ c #676767",
"@ c #6c6c6c",
"# c #717171",
"$ c #727272",
"% c #747474",
"& c Gray46",
"* c #777777",
"= c Gray47",
"- c #797979",
"; c #7b7b7b",
": c #7c7c7c",
"> c Gray50",
", c #808080",
"< c #818181",
"1 c Gray51",
"2 c #838383",
"3 c #848484",
"4 c Gray52",
"5 c #868686",
"6 c #898989",
"7 c Gray55",
"8 c #8e8e8e",
"9 c Gray56",
"0 c Gray57",
"q c #929292",
"w c #939393",
"e c Gray58",
"r c #959595",
"t c #979797",
"y c #989898",
"u c #9b9b9b",
"i c #a0a0a0",
"p c #a4a4a4",
"a c #a5a5a5",
"s c Gray65",
"d c #a7a7a7",
"f c Gray66",
"g c #a9a9a9",
"h c Gray67",
"j c #acacac",
"k c Gray68",
"l c #aeaeae",
"z c #afafaf",
"x c Gray69",
"c c #b1b1b1",
"v c #b2b2b2",
"b c Gray70",
"n c #b4b4b4",
"m c Gray71",
"M c #b6b6b6",
"N c #b7b7b7",
"B c Gray72",
"V c #b9b9b9",
"C c Gray73",
"Z c #bbbbbb",
"A c #bcbcbc",
"S c Gray74",
"D c #bebebe",
"F c Gray92",
/* pixels */
"O@%=%=%=%=%2==%====%==%%%%%%===%%======%%=:=%%%%==%=%===:=$FFFFF",
"O$244444444444444444444244244444444444444444444442444444. OFFFFF",
"+8khhskkkkkkkbbbhhhhhhhhhhkbbkkkhhkkhhhhhhhhhkkhkkkkkkkb@+kFFFFF",
"$0nbbbbkkbnnnbbnnbkkbbbbbkkbbbbbkbbbbbbbbbbbkkkbbbnnbkbb$@nFFFFF",
"%yAZZZAnZZZZZZnnnZnbnZnnnZZnnnnnnnZnnZZnnnnZnnbnZnZnnnZn4%nFFFFF",
"=rnZnZZZnnZnnnnnZZnnnZZnbnnnZZnnZnZnnZZnnnnZZZZZnnnnnZZA0AkFFFFF",
"%yZZnbnZZZZZZnnnbbnZZZZnZnnnnnnbnnnZnbbbnZZnnnZZnnnnbbnZ0:bFFFFF",
"=rnnnZZZZnbbbnZZnnnnnZnnbbnnnnnZnnnnbbbbZZZZnnnZZZnnnbnZ02kFFFFF",
"%ynnnZnnnZnnnZAZnZnnnnnnbnnnbnnnnZnnnnZnZZZnnnnZZnnnnnZZ02nFFFFF",
"%rbnnnZnnZnbnZnnnnnnnZnnnnnnbnZZZnZnnnZnnbnZZnZnnnnZZZZA02bFFFFF",
"$yAAZnZnnnnnnnnnnnnZZnnnnbnnnZZnnnZZnnZnbbbnnZnbbnZZnnbnr2kFFFFF",
"%rnnZnnnnZZZnnZnZnnnZnnbbbnnnnnnZnZZZnnnZZnnZZZnnnZAAnnZr2nFFFFF",
"=ynZZnZnnnZZnnnZZZZZnZnnnnnZZnZZZnnnbnnZZZZZZZnnnnZAAnbnr2bFFFFF",
":ynnZZnnnkbZZZnnnZZnnZZnnbnZZnnnZnZZZnZZnbbnnbnZZZZZZnbnr2nFFFFF",
"$0bbnnnnnZZZnnnnnZZZnZnnnnnnnZAZZnnZnnnnZnnnnnnnnnnbnZnZ02nFFFFF",
":ynnZnnnnZZZnnZnnnZZnnbbnnnZnnnnnZZnnbbnnnnnnZZnnbnnnnnZr2nFFFFF",
":unnnbbnZZZnnnnnZZZnnZZnnnnnnnnnZnnnbbbZZnnZZnnZnnnnZnbb82bFFFFF",
"=rbnnZZnnnnZZnnnnnZZAZZZZnnnnnnZZnnZnnZZnnZbbnZnnnnnnnZZ02kFFFFF",
":rbnnZAZnnnZZZnnnnnnbnnnZZnnZnnnnnnZZnbbnZZnnZZnnZZZZZZn02kFFFFF",
"%rnnbnZnbbZZAZZZZnZZZZnnnZAZZnnZnnnZZZnnnnnnZZZnnnZZnnnZ02bFFFFF",
"=yZZnbnnnZZnZnZZZZZZZZZnbbnZZnnnZZZbnnnnnZnbnZZZnZZZnnnn8AZFFFFF",
"=rnnnnnnnZZZnnnZnZZnnbnnnnnnnnnnZZnnZnnnnnZnZAAZZZZnnnnZ02ZFFFFF",
":0nZZnZnnnZZnnnnnnbnZnZZZZZnnZZZnnnZZnbbbnZAZZnnnnnnnbnZr2nFFFFF",
"$rnnZZnnnnnnbbbnZnnnZnbbnZnnZAZZZbbnnZZnnnZZZnnnZZnnnbbZ82bFFFFF",
"=0nnnZnkbnnnZnbbnZZnnbnnZnnnnZnnnnnZZnnZnZnnnZZZnbbnnnbZ82bFFFFF",
"%0nbbbbbbbbbnnnnnZnnnnnnnZZnnnnnnZZAZZnnnZnnnnZnnnZnnbnZ02nFFFFF",
"%rnnnnZnnnnnZnnnnnnnnnZnnnnnZZZnnZZAAZnZZnnbnnnbbnnnnZnb82bFFFFF",
"$0bnnnZZZnnnnnnnZZnnnnnnnnnnnZZnbnZZZZnZnnZZZbbbbnnnZZZZ02kFFFFF",
":rbbbbnnnnbnnZZnnZnnnZnnnnnbbbbnnnnnZZnnnnZZZZZZZAZnnnnZr2kFFFFF",
"%rZnbnnnnbbbnnnnnbnnnnZnnZnnnnZZZnZnnZnZZnnnnnnnnnnnnbnZ0:kFFFFF",
"=rZnnnnZZnZZnnnnnnnnnnZZZZZZnnnnnnnZZZZZZnnnnZZnnnnnnnnZr:nFFFFF",
"%rnnnbnZZnZZZnnnnZZnnnnZZnnnnnnnnnbbnZZZZnnnnnnnnZZZZnZZ82ZFFFFF",
"$yAAnnnnnnbbnZZnnnnnnnnZZnnnnnnnnnnbknZZZnZnnZZZZZZZnnZn02nFFFFF",
"=rnnZnnbnnnZZnnnnZZnZZnnnnnnnZnnZZnnnZnbnZZnZnnnbnnbnAZZ02nFFFFF",
"=rnnnbnZZZnnnbbnnZnZnnnbnZnnnZnnnnnZZAZnnnnZnnnnnnnnnnnZ82nFFFFF",
"=unnnnnZZZZnnnbnZZZZZZZZnnnnnZnbnnnZZAZnnnnnZnnbnnnnnnnZ02bFFFFF",
"=yZnnnnnnnnbbnZnbnZnZZnnnnnnZnnnnnnnZnnnZZbbnnnnZnnnZnZn02bFFFFF",
"=0ZnZnnnbnZnnnnnnZZnnnZnZZZZnnZnnZnnnnnnnbbnnZnnnZnnnZnnr:bFFFFF",
"%rbZZnnZZZnZZZnnnZZnnZZZnbbnnZZnZnnnnnnnnnnnZZZZZnnnnnnny2bFFFFF",
"%ynnnnnnZZZnnnnnnZZnZnnnnnnnnnZZnbnZnnZAZZZnnbnnnnZZnZnZ0:kFFFFF",
"%ynnbnnZZnnZZAZZZZnnZnnnbnZnnZZZZnnZnZZAAZZZZZnbbbnnbnnZ02bFFFFF",
"%0nnnnnnZnnZnZZZnnnZZnZZZZZnnnnnZnbbbnZZnnZZZZnnnZnnnZnZr2bFFFFF",
"=rnZnZZnbbbnnnnnZZZZZnbbnZZnnnnnnnbbnZAZZZZnnnnZZZZnnnnZ82bFFFFF",
"=yZZnbbnZZZZZZnnbnnnnnnZZZZZnnnZZZnnbnZZnnnZZnnZZAZZnZnZ82kFFFFF",
"%0nnbbnnZZnnZZnnZnnnnnZnnZnnbbnnZZZZnZZnnZZnnnnnnZnnnZZZr2nFFFFF",
"=0ZZnnnnZZnnnZZZnnZAZnbbnnnnnZZZnnZZnnnnbnnnZZZnbnnZZnnArAnFFFFF",
"%rnnbnnnnZnZnnnnnZZZZZnbnnZZZZnnnnnnnnnnZZZZZnZnnnbnnZZAr2nFFFFF",
"%rnZnZnZnnnnnnZnnnnnnnnnnZZnnnnnnnnnnZZnnnnnnnnZZZZnnnnn82kFFFFF",
"=rnnbnZZnnbnZnnnnnnnZZnnZnnnnnnnZnbnZZZZZZnnnZZZAAAnnZnn82nFFFFF",
"=rbbbbnnZnnnZnbbnZnnnZnnnnnnZZZnbbnnZnnnnZZnnbbbnnZnnnnZ0AbFFFFF",
"$unnZZnnnnnZZnnnZZnnnnnAZnnnnZZZnnnnnZZnnnbnnnnZAnnnZnnn0AnFFFFF",
"%ynZnnnZnZZZZZZnnnZnnZnnnZnnnZZZnZZZZZnnnnnnZZnnnnnnnnZA8:bFFFFF",
"%yZZZnnZZZZnnnnZZZbbnnnnZZZnZnnnnnZZZZnbbnnZnnZZZnnZZZAA8AkFFFFF",
"=yAnnnnZnnZZZnbnnZZnbnnnnnnnZnnZZZnnnnnnnZZZZnnnnnZnZnnZ82kFFFFF",
":ynnZZZnnnnnbbnnnnZnnbbbnnZnnnZZnnnnnnnnnnnnZnnbnnZZZnbb84nFFFFF",
"=rZZZZnnZZnnnnnnnnnnnnnnZZZZnnnnZZZnnnbbZZZZnnZnnZZZZZnZrrnFFFFF",
"@6hshsshhsssshssssshhsssshhsssssssssshsssssssssshhsisssh6$8FFFFF",
"o$A:2:22222222222A:2222222A::222222AA222242A%%%$$$$$$$$%X .FFFFF",
":ZZZZZZZZZZZZZZZZZZZZZZZZZZZZZZZZZZZZZZZZZZZZZZZZZZZZZZZ8oOiiiii",
"=FFFFFFFFFFFFFFFFFFFFFFFFFFFFFFFFFFFFFFFFFFFFFFFFFFFFFFFFF=FFFFF",
"iFFFFFFFFFFFFFFFFFFFFFFFFFFFFFFFFFFFFFFFFFFFFFFFFFFFFFFFFFiFFFFF",
"iFFFFFFFFFFFFFFFFFFFFFFFFFFFFFFFFFFFFFFFFFFFFFFFFFFFFFFFFFiFFFFF",
"iFFFFFFFFFFFFFFFFFFFFFFFFFFFFFFFFFFFFFFFFFFFFFFFFFFFFFFFFFiFFFFF",
"iFFFFFFFFFFFFFFFFFFFFFFFFFFFFFFFFFFFFFFFFFFFFFFFFFFFFFFFFFiFFFFF"
};
