/* XPM */
static char *magick[] = {
/* columns rows colors chars-per-pixel */
"64 64 63 1",
"  c Gray25",
". c #555555",
"X c Gray36",
"o c #626262",
"O c #656565",
"+ c #676767",
"@ c #686868",
"# c Gray41",
"$ c #6a6a6a",
"% c #6c6c6c",
"& c #6d6d6d",
"* c #6f6f6f",
"= c #717171",
"- c #747474",
"; c Gray51",
": c Gray52",
"> c #868686",
", c Gray54",
"< c #8d8d8d",
"1 c Gray57",
"2 c #939393",
"3 c #979797",
"4 c #9a9a9a",
"5 c #9d9d9d",
"6 c Gray62",
"7 c #a0a0a0",
"8 c Gray64",
"9 c Gray65",
"0 c #aaaaaa",
"q c #acacac",
"w c Gray68",
"e c #aeaeae",
"r c #afafaf",
"t c Gray69",
"y c #b1b1b1",
"u c #b2b2b2",
"i c Gray70",
"p c #b4b4b4",
"a c Gray71",
"s c #b6b6b6",
"d c #b7b7b7",
"f c Gray72",
"g c #b9b9b9",
"h c Gray73",
"j c #bbbbbb",
"k c #bcbcbc",
"l c Gray74",
"z c #bebebe",
"x c #c0c0c0",
"c c Gray77",
"v c Gray78",
"b c #cacaca",
"n c Gray83",
"m c #d7d7d7",
"M c #d8d8d8",
"N c Gray86",
"B c gainsboro",
"V c #dddddd",
"C c Gray87",
"Z c #dfdfdf",
"A c Gray88",
"S c #e4e4e4",
"D c Gray92",
/* pixels */
"DDDDD<.rAZnMZZZZMAAZnMZZMMZMZAAZSZnnMZAZZASSMnMZZZZMZMZZMZnAAMA0",
"DDDDD0>abcxzxxgzxbbbzzcccbbcczcczcccxzczzccxcbxxccbbccccczxxccc7",
"DDDDDt,9graggagtazzaggaggtatgaaaggggargaaagtgtgtagaagaggaagaaga1",
"DDDDDt>7araggtattgaaataaattgaaaaatrtgtattaataagrtgrrtrgaaazataa1",
"DDDDDtz4atagaaratatgtggtaaaattzaaataggttrttatgataaarttgartaataa1",
"DDDDDt*6gaagtgtatagagtataragtaatgtragatttttaaaaaatagaagatrttaaa1",
"DDDDDt*6agagtaatatatattttatatttaatttttttattaaaaaatazgaatttttaag3",
"DDDDDt$4aaaataaaaraagaatatatattgatagtaattaaggattttggggaaattagaa1",
"DDDDDt*6aaatttazgtaazattaratataaaaagaaarttagaattttagagtaaatagaa1",
"DDDDDt$7aatttatzgttaggaraaaataaaatagtttraagaaaatraaattraaataagt1",
"DDDDDt$7tttatgrggtragga0aatarttaattgrrtaatgaaaaaraattrtgaaaaaar1",
"DDDDDt=6ttggaarggattaaartattrtaaattartagataaatagtaatatagaagtata3",
"DDDDDt*4atagatratagattaatgattaaatatattgztaggaggaaattaaatagattaz4",
"DDDDDt*6atraaatattgttgggtagtataataaaraagaagggaaagttgaaatatataag3",
"DDDDDt$6aagtaaaagagtaagattatgtataaaaaartagaagttatatggtaaataattt<",
"DDDDDt$6gtgaatattaataaggtaaraaaaaataarttgzartttatrtgttataaaaata1",
"DDDDDt-6atgat0atrargaaagtatrtaaaattggttggggataaaaaraaraggtttgaz6",
"DDDDDt=6aaatttgaaataaaaaartgtrgatttttagatttaagattaragrtaagttaat6",
"DDDDDt=6ggataaggaatttgtgtataatttagtattgttttaaatatargg0rggaaaata4",
"DDDDDt*6tttrtttataraagaggataattggggaggtaatrttragaagaattaaraaaat1",
"DDDDDt*6rttraaaagatagzaggattagtgggatgaaaarttargataaatatar0aaara4",
"DDDDDt*6ttaagataattazzgatttazztagtagttatattatrg00raatagartagaat<",
"DDDDDr*9tatazaaaataatataattaggaraggggzggggatgatrtattatttragggtg3",
"DDDDDr$6aatgaaagaatatt0tatagaaa0tatagzggtaatagataagtgggrtatttaa4",
"DDDDDt*6aataatatttagtrraatttagatraaagzzaaattaagaggaaggattgaaaga3",
"DDDDDt*6ataaaattrtggartatttttattrtaaaagarttggtaagtaataaaataataa4",
"DDDDDt*6atagaatttaaaargaraaagtaatttatgatrtgzttatataaaaaattaatrg6",
"DDDDDt=6aagtttraaatagtaatgatttaataatrtttaaaaaagataaagtattaattta3",
"DDDDDt*6aaaaaaaattaagttggtttttttaagtatrtaaataagttgtataaaattaaat1",
"DDDDDt-6tattgggaatgttatagaaaaattttataattagttataaaztatgaaaraaaat4",
"DDDDDt=7taaagaattgartttataataaattttrggagggtaattttgtaaattttataaa3",
"DDDDDt$7ttgataaatgtrarattttaaaaaattragaagttgaattttgatarrtggttga1",
"DDDDDt$6aataraaaagaraaaaatattttaaatttttaattzgaaaatgaagtttaaaaga1",
"DDDDDt*7ggtatttaggaaaggaatarttattatataaaagtagtaaaatttatatttaagt<",
"DDDDDt=9ggtzatttataaaagaarattaatagatttatagtrgatatarat0tttaagttt<",
"DDDDDt*7gttaaaatatataagtrraatttaaaattaagagtragattttttttttatatta1",
"DDDDDt=6attatgtatt0taratagatgrtzgatttttgratatagtttat0aartattgaa1",
"DDDDDt=6atttaaatarragtaatggtgtttagattaatraagaaaattatttatttttata3",
"DDDDDt-6tttatatttarartartaatgtagttagatttrtraaaaaaggattatgagaatt3",
"DDDDDt=7arttaagztagaaaaaaaazgrattrtgtarrgatzarzatttagataagazttg6",
"DDDDDt*9aarrtatatagtrgaaatttgaattttttggaaataaratattaagataatrtra4",
"DDDDDt*6rtgrrttrtggttgaaataaaaaaaatrttrtgtagagzaagtatgaragatrag3",
"DDDDDt$6azgtaaatazgtaaaagggaaagagttaatagttagaaaggggaaatartaga0t3",
"DDDDDt*6ttagaaaataaaraaaaaargaatgtrgttaattagtraaaagaattatraatta4",
"DDDDDt*6tttataatttaargtaatataattattagaaaaaraattaaataaataatgagta1",
"DDDDDt=7attaaartttaataagattttratttattrtraaagaatatttgtaazattagga1",
"DDDDDt*7ttraaartgagaatggtttarrrarataatatrttgtataaataattgaatttgg1",
"DDDDDt*7trttaataaaaaaaagtgttttaatatataaarttaggataaatatagtaaaagg3",
"DDDDDt*7trataaaattaggaagtattatgaaataaatattatggattagtttaataagggg4",
"DDDDDt=6trataggatttgaragaaaratttgaatattaaagagaaataggaartratagag6",
"DDDDDt=6tagaaaataataaraaaaataaataatttttaaagagaaaaatggattrgaagag4",
"DDDDDt*6aaaaaaartaaggtataaaaggattattttrtaaaataagggragtggaaagaga3",
"DDDDDt=7attaatattagaatgggataggttaaatatrrttaarttaaartataaaaaatgt4",
"DDDDDt=7atagattaatgaataaggttagragggaaar0ttaattttttaattttazaa0aa3",
"DDDDDt*7agaaatagttttrataaattattttatagatrtatagzattatatattaaggtag3",
"DDDDDt*6agagtaaaaarttaaartttataattttatrtaattazartagagaagatggata1",
"DDDDDt*7agaatartatt00aatttattrtatatttttgattttaaaataatataatagtrt3",
"DDDDDt*7aaraatrttrtaaatraagaatgaatrrttraaggtrttaataagaartraaata3",
"DDDDDt*7atgaatrtaaaaaatttgattttgaaartarraatgattttraatzaaaggaatt3",
"DDDDDt$7aazgatttaaaaaaaggtagtgtgtgarttaaaaagar0atrttagrtaztzggr<",
"DDDDDt.->,>>,<;;;;zz>;z>>;z>,;>>>;;;z;zz;z>>;;><<z>>>>;>>>>>>,z*",
"DDDDDt X*O$O$*Ooo$$Oo*OO*oXO*$O*$$$*$$$$$O$=O**$$$*$*O$$O***$OO.",
"ZZDDDr X*$$*$**$O$OO$OO**O$*oO$$O$$$O$OOOO**O*$O$OoO$$**o$$O$$*.",
",,z,,O X**$OOo$*OO*$$$OOO$$$$*$oO*$=oOO$o$*$O**=*o*$$oOO$O$O$o$."
};
