/* XPM */
static char * sign_food_xpm[] = {
"64 64 65 1",
" 	c None",
".	c #020204",
"+	c #80807F",
"@	c #CABE8C",
"#	c #C5A03E",
"$	c #AA7E6C",
"%	c #9F9F9F",
"&	c #E1E1E3",
"*	c #444444",
"=	c #D0D0D8",
"-	c #AA968C",
";	c #D2A08E",
">	c #A67A6C",
",	c #D4C1AA",
"'	c #8F8F8D",
")	c #646464",
"!	c #DCD0CD",
"~	c #C59046",
"{	c #CAAF63",
"]	c #B0B1D0",
"^	c #CD9075",
"/	c #CA9E6C",
"(	c #CB8066",
"_	c #CAB6A4",
":	c #C98867",
"<	c #242424",
"[	c #6569EC",
"}	c #CD9975",
"|	c #7D80E7",
"1	c #C6A84B",
"2	c #D4C7BA",
"3	c #BFC0CC",
"4	c #D6D6DA",
"5	c #CA7659",
"6	c #464EEC",
"7	c #141414",
"8	c #535354",
"9	c #343434",
"0	c #F6F6F4",
"a	c #767676",
"b	c #7276EC",
"c	c #8D90E4",
"d	c #9E9FE4",
"e	c #5A5EEC",
"f	c #B7B8D1",
"g	c #C8C8D4",
"h	c #888888",
"i	c #C69844",
"j	c #8487E4",
"k	c #9598E4",
"l	c #A6A8E4",
"m	c #D6B7AA",
"n	c #D3A898",
"o	c #DBD9DB",
"p	c #CAAA70",
"q	c #A9A9AA",
"r	c #979797",
"s	c #CABA7C",
"t	c #0C0C0C",
"u	c #4C4C4C",
"v	c #6C6C6C",
"w	c #2C2C2C",
"x	c #1C1C1C",
"y	c #5C5C5C",
"z	c #3B3B3C",
"                                                                ",
"                                                                ",
"                                                                ",
"                                               ..               ",
"                                     .............              ",
"                         ...............t<*8yy* ..              ",
"            ...........7w9w<t..twyahrqqf_3gg=44ft.              ",
"          ......t...<yhrrqq]ff3gg===&&&&&&&&&&&&v.              ",
"          .... a%]f3gg=44&&&&&&&&&&&&&&&&o&&&&&&%.              ",
"          .... 0&&&&&&&&&&&&&&&&&&&&o&&&&&&&o&&&ft.             ",
"          .w7. &&&&&&&o=4&&&&&&&&&&&&&o&&o4o&&&&3<.             ",
"          w)*t &&=33gfldl=&&&&o&&&&&&&&og]ll]go&=u.             ",
"          wv87 &&l[b|bbbjgog4&&&oogf=o&g|[b[bjg&4a.             ",
"          za)xy&ok6[jjkfg4fbd]=o&3j[cl43bclljbd=&r.             ",
"          zvvx<&&][cgg4&&gj[b[k=3|[jb[]f|k=&l[k=&f..            ",
"          zav77=&gjcg&4=ofbjd|bkkbkgdbl3|c=&fbk4&37.            ",
"          *aaxtg&gjj]flkfk[d4]|b[jg&fbcfjjgol[k=&=w.            ",
"          z+a<t3&g|bbbbbc||3&gbeel4&gjj]jjg3bb]&&=9.            ",
"         .z++ztf&g|[bkf]kbk4&][[[l4=dbcfj|lc[k4&&&u.            ",
"         tu++87]&=c[d4&4kbl=fc[j[jdjbb]3|bbbc=&&&&a.            ",
"         tuhhyx%&=kbf&&&d[|c|b|3kbb[jfo=kb|k3=gg=o%..           ",
"         tuhhvw+&4c[f&&&gcbbbkg4=3]]=44=fkkckcjjk=3t.           ",
"         tuh'v99&4ljg&o&4=33f444444=fldk|[[bb|jjk==t.           ",
"         t8h'a9.4&43gff]ll]gglkkcckcbbb||kl]33gg=oow.           ",
"         tyh'+*.g&=lk|bbbbbb|[bbbbbbc]ff34&&&&&&&&&h.           ",
"         t)''+u.g4dbbjd]]]djck]ffff3g&&&&&&&&&&&&&&ft.          ",
"         <v''+8.3o=f3g4&&&4ggo&&&&&&&&&&&&&&&&&&&&&g7.          ",
"        *9v''hy7f&&&&&&&&&&&&&434o&&&&&&&o&&o&&o&&&=<.          ",
"        *za''hv<]&&&&&o&o&&&&4]hqo&o&o&&&&&&&&&&o&&&u.          ",
"        99a'''vwq&&o&&&&&&&&4]hh3&&&&&&&&&&&oo4o&&&&+.          ",
"        <9a'''az'4&&&&&&&422_h+-_o&&o44====4=gg=o&&o%..         ",
"        7za'''a*a=&&o&&o&,:^:>>(:,o==g3f3333f33=o&&&3t.         ",
"        .za'''+8y3&&&&&oon(nn;;^:ng3f33ggg3g2=4o&&&&=9.         ",
"        .z+h''+8*3&&&&&&&m:nm,mn(p!g=44ooooo&&&&o&&&&).         ",
"        .z+'''hywq&o4m,o4,^:^n,m(n4o&&&&o&&&o&&&o&&&&+.         ",
"        .z+h''h)<+&&n5(n{1}::}n;5}o&o444ggg======4&&&r.         ",
"        .zh''''vwwo&2^55^##i}:^(5}4o=33333f3]ffq3=&&&]..        ",
"        .*+''''aw.4&om^55:###}:55;oo333gg==g====4o&&&=t.        ",
"        .uh'h''+*.g&4{#~55:/##i(5;4&oooo&o&o&&&&&&&o&ox.        ",
"        .*h''''+uxq&4s##~(55~i#i:;!o&&&&&&&&&&&&o&&&&&w.        ",
"        .uh''''+y<a&4@1###^55(~~5}4&&&&&&o&ooo4o4=4&&&u.        ",
"        .y'''h'hyw9&o2@1##p/(55~:moo&oo4444=gg333f34&& ..       ",
"        .)'''''')<t&&o2@111pp^55}!&&&4g33ff333332g4o&& ..       ",
"        .)'''h'ha<.o&&o=@{##11^(:,&&o=33ggg===44oo&&&&3..       ",
"       ..u'''+av*..4&&&&=2s{{{m;^2&&&o4oooo&&&&o&&&&o&o .       ",
"        .t*977.....g&&o&&4=@@,o!!&&&&&&&&&&&&&&&&o&&&&& .       ",
"        ........ ..g&&&&&ooooo&&&o&o&&&&&&&&&&&&&&o&&&& .       ",
"        ..        .3&&o&&&&&&&&&&&&&&&o&&&&o&&&&&&&&&&& ..      ",
"                  .f&&&o&&&&&&&o&&&&&&&&o&&&&&&&o&&&o&& ..      ",
"                  .f&&&&&o&&&&&&&o&&&&&&&&&o&o&&&o===33 ..      ",
"                  .q&o&&&&&o&&&&&&o&&&&&o44g3qr''r'haux..       ",
"                  .h4&&&&&&&&&&o44ggf     xx77.tt.......        ",
"                  .9g&o4=gg3]qr+y*9wxt..........                ",
"                  ..y%ra87tttt.ttt......                        ",
"                   .............                                ",
"                    ....                                        ",
"                                                                ",
"                                                                ",
"                                                                ",
"                                                                ",
"                                                                ",
"                                                                ",
"                                                                ",
"                                                                "};
