/* XPM */
static char * sign_shootin_gallery_xpm[] = {
"64 64 49 1",
" 	c None",
".	c #4E360C",
"+	c #7E6214",
"@	c #664E0C",
"#	c #927A1C",
"$	c #866E14",
"%	c #765A0C",
"&	c #5A420C",
"*	c #72520C",
"=	c #8E7614",
"-	c #8E7214",
";	c #66460C",
">	c #826A14",
",	c #72560C",
"'	c #6E4E0C",
")	c #9E861C",
"!	c #8A7214",
"~	c #7E5E14",
"{	c #563E0C",
"]	c #7E6614",
"^	c #7A5E14",
"/	c #62460C",
"(	c #76560C",
"_	c #9A821C",
":	c #8A6E14",
"<	c #7A5A14",
"[	c #5E460C",
"}	c #92761C",
"|	c #664A0C",
"1	c #6E520C",
"2	c #523A0C",
"3	c #826214",
"4	c #6A4E0C",
"5	c #967E1C",
"6	c #9E8A1C",
"7	c #5E420C",
"8	c #866A14",
"9	c #5A3E0C",
"0	c #826614",
"a	c #6A4A0C",
"b	c #765A14",
"c	c #725214",
"d	c #8E761C",
"e	c #8E721C",
"f	c #725614",
"g	c #8A721C",
"h	c #765614",
"i	c #8A6E1C",
"j	c #6E5214",
"                                                                ",
"                                                                ",
"                                                                ",
"                                                                ",
"                                                                ",
"                                                                ",
"                                                                ",
"          ..          ..                                        ",
"         .......................................................",
"         2.&///[[[[7////7[[////////////[|///////////////////|//7",
"         .;,(%~<%(,11****,1,,,,,,,,,,,,,0%%^,,,,,,,,,,,,,,,,,(,f",
"        7/1,+8:!8><*,%<,'*,j11j11j11j*c+=>$8%ffffffffffhhhhhhff*",
"       .24c^$!888!:+b]0b'**cc*cc*cc*j**+5}g0(*********,,b,f,h*h,",
"      9/a*%$:]fc,+$:<0:%1jc*****111*,,^d)d]bj*c*ffffffc~>^(h,h,h",
"      .[41h$8%1'1c^+,]8^*11jjjjc*c1cc^$}_8(*f1f******,f+i],f,f*f",
"     &/4cc%:ib'j'111,+ib1ff,,,,*j1c1,+:$-0c*'*1*,hfhhc,<$8^(h(j*",
"    .2a11jf>:]^^^bb1,]-0<(c*cc,**1hb,f^^!],f,*jc,(,,,c,h0e^,c,ff",
"    /;1*'''<$!-!!!$3h85#!0(c*%+fch08b**^i0%++c(+0^^++^f,h+,c,h(*",
"   .24j111'1hb~++0$!]d_-$g]f^i!+,+d-0^,<:]%>$b%$dei--:<,*f*c,cf,",
"   /''''''j',c1c*c+e0!}+^>!+8!e!^+-gi$0^$0h+:^b-_-:>$e]fj*1,c,(c",
"  .21j'jj1*f+f*c,c3}8$$b*+!8g00e>8-8i!>~i]b0$^b8d]<b^:8%cf1*cc,f",
" 9/'j'j''1f0:+1**^!$^88%c~}!:+0=00g+~i:+$8<>:<<:8<f(b88<,*cf,,c*",
"..a'''41'f*^:$^f%0e+bi0(1+#$$>g:+0!0+g>^$8^8:^^$$<c*b$$bj*1jf,ff",
".{4*11j'h,f,]e$]>!0,^$0fj+68:ee8,^i!$-~<8>^88%^e8%,,^}d^*fc**h*(",
".7|'''j1c(hh,+8$i>(1*+^*1<}^+:$^*,+8d!%b0^f^~(+d]fc,,88b*,ff*fff",
" //@j**c(ff,ffbb%,j'j,1*c1b**hh*ff1<0bc*f**f,f,^c*,cfh(,fc**fh**",
"  ./j1,c,(f(*,'4f^^^b(j1*1c1,1j,30,%:^**1j1j11*,c***,hh*,ff,,hh,",
"  /;acc,hfhfh*f^8!::8>^*j*1f*c*h>:^~e^f1c****cj*1cf,h,*fc**hh,,h",
"   .|4j*(,hfh(+:i+^+>!8(j**f(,,h0$^+!^**1jjj1*j*11c*cf*,ff*,ff*f",
"   //4*ffh,(,<:>^1'1h30f*1j11cc,0:^+=+jfc****c*j,c,f,*fc**fc**f(",
"    .|',fhfff+!+11f,f,(jc*cc,,ff8:^+-+*1cfcc1*(h(h%h,**c11,f*,cf",
"     /@f(,h(,+e^cc*h*ff*,^^%~+(<8!^+g^j^]8+%hf+$0>>+^+f1hhc*fc,(",
"     ./'h,fh%>!+,1%^<%*f0:g$i!+^i:^+=+%:-!g>%<i5#e:8>!^^80f1*fcf",
"      ||chhf<8-^*^i!$i^<$>0-!e]^g8(+-~3g>8:-~^!5:0^<0:^+d:<*f*,(",
"       .4,(f<$:^*h38:!]~g+b$!-:]d8h+!+0dgeg$b<$e^ffb0:^+=!b**fc,",
"       ||cf(^8g+h,bb>e>]:^1~ied:g>%0g^]e:0~<,^i$<((b8-+>g:^jf*,h",
"        .4chb0g$0^~0::~+!8+0!8i-}>b0:<%$g$+3<^!8bf(f0d:ed8(1cf*f",
"         |1f(<8dd-!gg0,%$i!!i^8dd0%>g^c<$ddd$3e8bhb<^0i:!>fc,*f(",
"         .;c,f(+]000+hcc%30+<%^3+b*%^(f*b+++^(^<,(]>0+0i-+,cf,c,",
"          |1h(ffh<<bf,**ffff,h,%fhhc(f,h(,,h,fh,hb0:e-ge>(c,*c1j",
"         ..2/||||||||||||;|||a|aa44@aa4|a44a44'14'c%^+]^f44'44//",
"         ..9/|;|/||;|||//|||/||||||;|||||/|||||/|||/|@||||/|;/99",
"          ..             .||||||/;|||/|||/|/|||||||/;||/||/|[/||",
"                                                                ",
"                                                                ",
"                                                                ",
"                                                                ",
"                                                                ",
"                                                                ",
"                                                                ",
"                                                                ",
"                                                                ",
"                                                                ",
"                                                                ",
"                                                                ",
"                                                                ",
"                                                                ",
"                                                                ",
"                                                                ",
"                                                                ",
"                                                                ",
"                                                                ",
"                                                                ",
"                                                                "};
