/* XPM */
static char *magick[] = {
/* columns rows colors chars-per-pixel */
"64 64 64 1",
"  c Gray0",
". c #070b0b",
"X c #0b1514",
"o c #121313",
"O c #092826",
"+ c #083734",
"@ c #16302e",
"# c #273230",
"$ c #313534",
"% c #3c3c3c",
"& c #12413d",
"* c #094843",
"= c #07534d",
"- c #025953",
"; c #065c55",
": c #184e48",
"> c #165a54",
", c #03645d",
"< c #17645d",
"1 c #006760",
"2 c #0a6a64",
"3 c #166c65",
"4 c #1a726c",
"5 c #274b4a",
"6 c #2e5654",
"7 c #29635d",
"8 c #2e716c",
"9 c #297a74",
"0 c #505858",
"q c #56605e",
"w c #4d7573",
"e c #5c6569",
"r c #687374",
"t c #3a837f",
"y c #48827e",
"u c #66827f",
"i c #4c918c",
"p c #528e8a",
"a c #679996",
"s c #72908e",
"d c #6fa19d",
"f c #7aa9a6",
"g c #8b9495",
"h c #88a8a6",
"j c #8ab6b3",
"k c #96a9a8",
"l c #98b9b7",
"z c #a4aaaa",
"x c #a6b9b8",
"c c #b5b6b6",
"v c #abc7c5",
"b c #b8c8c8",
"n c #bdd2d1",
"m c #c8cccc",
"M c #c9d7d6",
"N c #d5dbdb",
"B c #d4e0df",
"V c #dbe4e4",
"C c #e6ebeb",
"Z c #edf1f1",
"A c #f3f5f5",
"S c #f9fafa",
"D c #fdfdfd",
"F c Gray100",
/* pixels */
"                       oO+=,111111111111111111111111111111111111",
"                    .O**,111111111111111111111111111111111111111",
"                  .O,1111111111111111111111111111111111111111111",
"                .O;111111111111111111111111111111111111111111111",
"               .*11111111111111111111111111111111111111111111111",
"              O-111111111111111111111111111111111111111111111111",
"             X;1111111111111111111111111111111111111111111111111",
"            O-11112349994331111111111111111111111111111111111111",
"           O,1114taflvvvlhdy91119iiiiiiiiiii41111111111111111111",
"          O,1124fbCFFFFFFFZMv911dVVVVVVVVVVNp1111111111111111111",
"         O-1114jCFFFFFFFFFFFZy11jFFFFFFFFFFAp,111111111111111111",
"        .=1111aZFFFFFFFFFFFFC711jFFFFFFFFFFZe-111111111111111111",
"       .+11112vFFFFFFFFFFFFVz:11jFFFFFFFFFFZe=111111111111111111",
"       +,11112mFFFFFFFFFFFNr$+11jFFFFFFFFFFZe=111111111111111111",
"      .-111112mFFFFFFFFFFZsooO11jFFFFFFFFFFZe=111111111111111111",
"      +1111112mFFFFFFFFFFV0&=-11jFFFFFFFFFFZe=111111111444444431",
"     X;1111112mFFFFFFFFFFCe=1111jFFFFFFFFFFZe=1111249idlnBBBBMka",
"     *11111112mFFFFFFFFFFFg>1111jFFFFFFFFFFZe=1119axNCZASFFFFFAC",
"    X,11111112vFFFFFFFFFFFm81111jFFFFFFFFFFZe=111dCAFFFFFFFFFFFF",
"    *111111112lFFFFFFFFFFFSp1111jFFFFFFFFFFZe=111lFFFFFFFFFFFFFF",
"   X-11111111,yCFFFFFFFFFFFx1111jFFFFFFFFFFZe=111fbkgeeesNFFFFFF",
"   +1111111111wVFFFFFFFFFFFC9111jFFFFFFFFFFZe=111:$@ooooorCFFFFF",
"  .=1111111111,hFFFFFFFFFFFAd111jFFFFFFFFFFZe=111;XXXO=>>7mFFFFF",
"  O111111111111aFFFFFFFFFFFFM411jFFFFFFFFFFZe=111111224ttaCFFFFF",
"  +1111111111114AFFFFFFFFFFFFa11jFFFFFFFFFFZe=11129ydlnMMBFFFFFF",
"  =1111111111111cFFFFFFFFFFFFx11jFFFFFFFFFFZe=129avCFFFFFFFFFFFF",
" X,1111111111111sSFFFFFFFFFFFN91jFFFFFFFFFFZe=1tlZFFFFFFFFFFFFFF",
" +,11111111111118BFFFFFFFFFFFSa1jFFFFFFFFFFZe=4lFFFFFFFFFFFFFFFF",
" *11111111111111<xFFFFFFFFFFFSx4jFFFFFFFFFFZe=iCFFFFFFFFCbZFFFFF",
".*11111111111111,uAFFFFFFFFFFFVtjFFFFFFFFFFZe=lFFFFFFFFAg%mFFFFF",
"X;1111111111111117VFFFFFFFFFFFCajFFFFFFFFFFZe>bFFFFFFFFM$$mFFFFF",
"O,1111111111111112xFFFFFFFFFFFAfjFFFFFFFFFFZe7mFFFFFFFFb#6MFFFFF",
"O,1111111111111111hFFFFFFFFFFFFhfFFFFFFFFFFZe7mFFFFFFFFb&9NFFFFF",
"+11111111111111111pZFFFFFFFFFFFgdFFFFFFFFFFZe7mFFFFFFFFb&9NFFFFF",
"*11111111111111111aAFFFFFFFFFFFgdFFFFFFFFFFZe7mFFFFFFFFb&9NFFFFF",
"=11111111111111113vFFFFFFFFFFFCedFFFFFFFFFFZe>vFFFFFFFFN69NFFFFF",
",111111111111129ivZFFFFFFFFFFFm$dFFFFFFFFFFZe=fAFFFFFFFAxdVFFFFF",
"11111111111111tnVSFFFFFFFFFFFAqOfFFFFFFFFFFZe=yCFFFFFFFFACSFFFFF",
"11111111111111iZFFFFFFFFFFFFCso+jFFFFFFFFFFZe=3hFFFFFFFFFFFFFFFF",
"11111111111111iZFFFFFFFFFFFMs#O=jFFFFFFFFFFZe=,<cZFFFFFFFFFFFFFF",
"111111111111119kMCFFFFFFVnzeoo*1dCFFFFFFFFFZe=1,&qxbNFFFFFFFFFFF",
"11111111111111;@%erggggse$ooX+,18eeeeeeeeeee$=11=+@%qeeeeeeeeeee",
"111111111111111=OoooooooooO+*111;Oooooooooooo=111,++Xooooooooooo",
"1111111111111111;*********=,11111=***********,11111;************",
"1111111111111111111111111111111111111111111111111111111111111111",
"----------------------------------------------------------------",
"%%%%%%%%%%%%%%%%%%%%%%%%%%%%%%%%%%%%%%%%%%%%%%%%%%%%%%%%%%%%%%%%",
"FFFFFFFFFFFFFFFFFFFFFFFFFFFFFFFFFFFFFFFFFFFFFFFFFFFFFFFFFFFFFFFF",
"FFFFFFFFFFFFFFFFFFFFFFFFFFFFFFFFFFFFFFFFFFFFFFFFFFFFFFFFFFFFFFFF",
"FFFFFFFFFFFZCSFFCAFFFFFFFFFFFFFFFFFFFFFFFCVSFFFFFFFFFFFFACAFFFCS",
"FFFFFFFFFFFlfBFFjlCFFFFFFFFFFFFFFFFFFFFFFhpbFFFFFFFFFFFFMdbSFCdn",
"FFFFFFFFFFFp3kFFi<nFFFFFFFFFFFFFFFFFFFFFFy*uFFFFFFFFFFFFm2pZFn2s",
"FFFFFFFFFFFp,wCFi:mFCMAFBCFVVFABFVnVSFFFM8>zFCMAFFMCCZFFm23nFn;r",
"FFFFFFFFFFFp=<vFi:bnayfVfhClaNBsjiyaMFFFj3>gMdpdVFiadxSFm;=aZn;r",
"FFFFFFFFFFFp*<sZi:xa*>2hd8mp<kl><-:4pVFFb3*ua=63sZ4=>sZFm>>8nn;r",
"FFFFFFFFFFFp:y8bi:h8+ut8g7k8=rd&8:8swMFFZt5x9+gd7m4:wbSFm>88dv;r",
"FFFFFFFFFFFp:hpyt:h8:pt:s8w<*7y5h77akZFFFy6n35Cv;h35bAFFm>uh8h;r",
"FFFFFFFFFFFp:ll39:h8:<<:gy<=:<<evsw3aBFFFy6n36Fb-s36VFFFm>uM9t;r",
"FFFFFFFFFFFp:lVy2:h86s8wMd,:u3=shpzy7kAFFy6Ny7Zh+s36VFFFm>uZj3;r",
"FFFFFFFFFFFp:lSx1:xa3d97xl45v95kj4at:uZFFy6Cj3d9&x36VFFFm>uAB9;r",
"FFFFFFFFFFFh6xFA<&bb77>#bB7eAp6MN8<7@gFFFy5CB7>*0Ny5VFFFN7uASk*r",
"FFFFFFFFFFFVsVFFmsMSNr0bASxgFbrVSnq0sZFFFxgZSVurCSmrCFFFShzAFZgg",
"FFFFFFFFFFFFAFFFSASFFZZFFFSAFSZFFFZZAFFFFSAFFFAAFFSZFFFFFASFFFAA",
"FFFFFFFFFFFFFFFFFFFFFFFFFFFFFFFFFFFFFFFFFFFFFFFFFFFFFFFFFFFFFFFF"
};
