/* XPM */
static char * snow_xpm[] = {
"64 64 3 1",
" 	c None",
".	c #FEFEFC",
"+	c #FFFFFF",
"..............................++++++++++++++++++++++++++++++++++",
"..............................++++++++++++++++++++++++++++++++++",
"..............................++++++++++++++++++++++++++++++++++",
"..............................++++++++++++++++++++++++++++++++++",
"..............................++++++++++++++++++++++++++++++++++",
"..............................++++++++++++++++++++++++++++++++++",
"..............................++++++++++++++++++++++++++++++++++",
"..............................++++++++++++++++++++++++++++++++++",
"..............................++++++++++++++++++++++++++++++++++",
"..............................++++++++++++++++++++++++++++++++++",
"..............................++++++++++++++++++++++++++++++++++",
"..............................++++++++++++++++++++++++++++++++++",
"..............................++++++++++++++++++++++++++++++++++",
"..............................++++++++++++++++++++++++++++++++++",
"..............................++++++++++++++++++++++++++++++++++",
"..............................++++++++++++++++++++++++++++++++++",
"..............................++++++++++++++++++++++++++++++++++",
"..............................++++++++++++++++++++++++++++++++++",
"..............................++++++++++++++++++++++++++++++++++",
"..............................++++++++++++++++++++++++++++++++++",
"..............................++++++++++++++++++++++++++++++++++",
"..............................++++++++++++++++++++++++++++++++++",
"..............................++++++++++++++++++++++++++++++++++",
"..............................++++++++++++++++++++++++++++++++++",
"..............................++++++++++++++++++++++++++++++++++",
"..............................++++++++++++++++++++++++++++++++++",
"++++++++++++++++++++++++++++++++++++++++++++++++++++++++++++++++",
"++++++++++++++++++++++++++++++++++++++++++++++++++++++++++++++++",
"++++++++++++++++++++++++++++++++++++++++++++++++++++++++++++++++",
"++++++++++++++++++++++++++++++++++++++++++++++++++++++++++++++++",
"++++++++++++++++++++++++++++++++++++++++++++++++++++++++++++++++",
"++++++++++++++++++++++++++++++++++++++++++++++++++++++++++++++++",
"++++++++++++++++++++++++++++++++++++++++++++++++++++++++++++++++",
"++++++++++++++++++++++++++++++++++++++++++++++++++++++++++++++++",
"++++++++++++++++++++++++++++++++++++++++++++++++++++++++++++++++",
"++++++++++++++++++++++++++++++++++++++++++++++++++++++++++++++++",
"++++++++++++++++++++++++++++++++++++++++++++++++++++++++++++++++",
"++++++++++++++++++++++++++++++++++++++++++++++++++++++++++++++++",
"++++++++++++++++++++++++++++++++++++++++++++++++++++++++++++++++",
"++++++++++++++++++++++++++++++++++++++++++++++++++++++++++++++++",
"++++++++++++++++++++++++++++++++++++++++++++++++++++++++++++++++",
"++++++++++++++++++++++++++++++++++++++++++++++++++++++++++++++++",
"++++++++++++++++++++++++++++++++++++++++++++++++++++++++++++++++",
"++++++++++++++++++++++++++++++++++++++++++++++++++++++++++++++++",
"++++++++++++++++++++++++++++++++++++++++++++++++++++++++++++++++",
"++++++++++++++++++++++++++++++++++++++++++++++++++++++++++++++++",
"++++++++++++++++++++++++++++++++++++++++++++++++++++++++++++++++",
"++++++++++++++++++++++++++++++++++++++++++++++++++++++++++++++++",
"++++++++++++++++++++++++++++++++++++++++++++++++++++++++++++++++",
"++++++++++++++++++++++++++++++++++++++++++++++++++++++++++++++++",
"++++++++++++++++++++++++++++++++++++++++++++++++++++++++++++++++",
"++++++++++++++++++++++++++++++++++++++++++++++++++++++++++++++++",
"++++++++++++++++++++++++++++++++++++++++++++++++++++++++++++++++",
"++++++++++++++++++++++++++++++++++++++++++++++++++++++++++++++++",
"++++++++++++++++++++++++++++++++++++++++++++++++++++++++++++++++",
"++++++++++++++++++++++++++++++++++++++++++++++++++++++++++++++++",
"++++++++++++++++++++++++++++++++++++++++++++++++++++++++++++++++",
"++++++++++++++++++++++++++++++++++++++++++++++++++++++++++++++++",
"++++++++++++++++++++++++++++++++++++++++++++++++++++++++++++++++",
"++++++++++++++++++++++++++++++++++++++++++++++++++++++++++++++++",
"++++++++++++++++++++++++++++++++++++++++++++++++++++++++++++++++",
"++++++++++++++++++++++++++++++++++++++++++++++++++++++++++++++++",
"++++++++++++++++++++++++++++++++++++++++++++++++++++++++++++++++",
"++++++++++++++++++++++++++++++++++++++++++++++++++++++++++++++++"};
