/* XPM */
static char * icefrindge_xpm[] = {
"64 64 30 1",
" 	c None",
".	c #B6C6F4",
"+	c #DEE6FC",
"@	c #C6D6F4",
"#	c #D6DEFC",
"$	c #F2F6FC",
"%	c #BECEF4",
"&	c #E6EEFC",
"*	c #D2DEFC",
"=	c #CED6F4",
"-	c #BECAF4",
";	c #E6EAFC",
">	c #DEE2FC",
",	c #C6D2F4",
"'	c #EEF2FC",
")	c #CEDAF4",
"!	c #BACAF4",
"~	c #E2EAFC",
"{	c #D6E2FC",
"]	c #C2D2F4",
"^	c #D2DAF4",
"/	c #BAC6F4",
"(	c #E2E6FC",
"_	c #CAD6F4",
":	c #FEFEFC",
"<	c #C2CEF4",
"[	c #EAEEFC",
"}	c #F2F2FC",
"|	c #DAE2FC",
"1	c #D2DAFC",
":::::::::::::::::::::::::::::::::::::::::::::::::::::::::::::::*",
"::::::::::::::::::::::::::::::::::::::::::::::::::::::::::::::*^",
":::::::::::::::::::::::::::::::::::::::::::::::::::::::::::::^1^",
"::::::::::::::::::::::::::::::::::::::::::::::::::::::::::::#*))",
":::::::::::::::::::::::::::::::::::::::::::::::::::::::::::*^1))",
"::::::::::::::::::::::::::::::::::::::::::::::::::::::::::#^1)=_",
":::::::::::::::::::::::::::::::::::::::::::::::::::::::::***))=_",
":::::::::::::::::::::::::::::::::::::::::::::::::::::::::^^))___",
"::::::::::::::::::::::::::::::::::::::::::::::::::::::::#11=)___",
":::::::::::::::::::::::::::::::::::::::::::::::::::::::#*)=)==,,",
"::::::::::::::::::::::::::::::::::::::::::::::::::::::*^*)=___,,",
":::::::::::::::::::::::::::::::::::::::::::::::::::::#^1)))__,,,",
"::::::::::::::::::::::::::::::::::::::::::::::::::::***))_=__,,]",
":::::::::::::::::::::::::::::::::::::::::::::::::::##^)===_,,,]<",
"::::::::::::::::::::::::::::::::::::::::::::::::::#**^1))@_,,<<<",
":::::::::::::::::::::::::::::::::::::::::::::::::#*^1))___,,],]%",
"::::::::::::::::::::::::::::::::::::::::::::::::[#*^)=__,__,<<<%",
":::::::::::::::::::::::::::::::::::::::::::::::[*^1)=)=,_,]<]<%-",
"::::::::::::::::::::::::::::::::::::::::::::::&#*^1)__=,,,,<%-%-",
"::::::::::::::::::::::::::::::::::::::::::::::#**))))_@_,<]<<%!!",
":::::::::::::::::::::::::::::::::::::::::::::##^*)=__,,,,<<---!!",
"::::::::::::::::::::::::::::::::::::::::::::{*^^1)_=__,,]<%%%!!/",
"::::::::::::::::::::::::::::::::::::::::::|##**)=)__,_,<]<<--!!.",
":::::::::::::::::::::::::::::::::::::::::[##^^)=)=_,_]]<<%-!!/..",
"::::::::::::::::::::::::::::::::::::::::[###*^1=___,,<,<%%%!!...",
"::::::::::::::::::::::::::::::::::::::::{#**1)))=,_,<,<%-!!!./..",
":::::::::::::::::::::::::::::::::::::::#{^^^)=___,,,<<<%-!/!!...",
"::::::::::::::::::::::::::::::::::::::|###^)))___,,,]%---/!.....",
":::::::::::::::::::::::::::::::::::::[{***^=_=_,_,<<<%%%!/......",
"::::::::::::::::::::::::::::::::::::|##^^1)))__,,],<%%!!!!......",
":::::::::::::::::::::::::::::::::::|###*))=__@_,,<<<--!/........",
"::::::::::::::::::::::::::::::::::[#{#*^1))=_,,<<]%%--/!........",
"::::::::::::::::::::::::::::::::::{#*^^)==___,,,<<%%!!.!........",
":::::::::::::::::::::::::::::::::|##^#)1)__,,,,<<%-!!!!.........",
"::::::::::::::::::::::::::::::::[###^*)=)__,,]]%%%--............",
":::::::::::::::::::::::::::::::[#|***)=)__,,,<<<--!!!/..........",
":::::::::::::::::::::::::::::[|{##^)^)____,,,<%<--!.............",
"::::::::::::::::::::::::::::'|{#*^^^_)=,,,,]<%%%!!.!............",
":::::::::::::::::::::::::::[|###**)1_)__,,<]<<--!!..............",
"::::::::::::::::::::::::::'|||##*^1)=__,,,,<<-!!!/..............",
":::::::::::::::::::::::::[|{#{^^^)=)__,,,<%%%%!!................",
"::::::::::::::::::::::::+|{###*^)=)_,,_,<]<%!-!.!...............",
"::::::::::::::::::::::+||#|{*#*^)__=_,,]<<--!!!.................",
":::::::::::::::::::::+++>|##^^))))_@,,,]<%<%!/..................",
"::::::::::::::::::::(>|||###*^)=__,,,]<<%-!-!/..................",
":::::::::::::::::::++||{#|^*)))_=___,<<%-%!!!...................",
"::::::::::::::::::(++||{##^^^))_,,,],,<%!-/.....................",
"::::::::::::::::'(+|||##**^1)=____,<<%%--!!/....................",
":::::::::::::::'~++|||##*#)=)__,,,,]<%%%!.!.....................",
"::::::::::::::'~+|||{###^)))_=,_,]]<---!/!......................",
":::::::::::::~(++>|#|{^#^^)=__,,<<<<%-!!........................",
"::::::::::::~(+>+|||##*)1)=____,,<%%-!/!........................",
":::::::::::;~++|||##*#*)))__,,,],<<%%!.!........................",
"::::::::::;++++>|||#^^^)=___,,,<%%--!!/.........................",
":::::::::~~((>+|{###*^^)==,_,],<<%!!/!..........................",
"::::::::;((+||||##**)))__@_,,<<<%!-/!...........................",
":::::::$~(+++|{|{#^^^))__,,],<%-%!!.............................",
"::::::;(~+++||###*#1)_==,_,<<<%%-!!!............................",
":::::~~(~+>|||###^)))___,,,<%--!-/..............................",
"::::&;~++>||{{#^)*1==_@_,,]]<<%!!!..............................",
":::}~(~+++|#####)))_=_,,,<<%%--!................................",
":$&~~(+>>|||##*)^)==_,,,<<%<--!.................................",
":;;~~+++||#|#*^))))@__,,,<%%!!!!................................",
"&;~(+>+||||**^*1=___,,]]%<-!!//................................."};
