/* XPM */
static char * streetlight_top_right_xpm[] = {
"64 64 50 1",
" 	c None",
".	c #3E3E44",
"+	c #8E8E9C",
"@	c #BEB69C",
"#	c #66666C",
"$	c #AAA294",
"%	c #7A7A84",
"&	c #52525C",
"*	c #CACAD4",
"=	c #72727C",
"-	c #AEAEBC",
";	c #5E5E64",
">	c #9A9AAC",
",	c #C2BAA4",
"'	c #6E6E74",
")	c #AAAABC",
"!	c #868694",
"~	c #D6D6DC",
"{	c #4A4A54",
"]	c #96928C",
"^	c #A2A2AC",
"/	c #62626C",
"(	c #BEBEC4",
"_	c #6A6A74",
":	c #82828C",
"<	c #5A5A64",
"[	c #767684",
"}	c #B2B2BC",
"|	c #625E6C",
"1	c #C6BEA4",
"2	c #E2D6B4",
"3	c #A6A6B4",
"4	c #46464C",
"5	c #92929C",
"6	c #DACEAC",
"7	c #A69E94",
"8	c #B6B6C4",
"9	c #7E7E8C",
"0	c #56565C",
"a	c #8A8A94",
"b	c #4E4E54",
"c	c #E6DAB4",
"d	c #C6BAA4",
"e	c #9A928C",
"f	c #666674",
"g	c #727284",
"h	c #5E5E6C",
"i	c #6E6E7C",
"j	c #A2A2B4",
"k	c #B2B2C4",
"                                                                ",
"                                                                ",
"                                                                ",
"                                                                ",
"                                                                ",
"                                                                ",
"                                                                ",
"                                                                ",
"                                                                ",
"                                                                ",
"                                                                ",
"                                                                ",
"                                                                ",
"                                                                ",
"                                                                ",
"                                                                ",
"                                                                ",
"                                                                ",
"                                                                ",
"                                                                ",
"                                                                ",
"                                                                ",
"                                                                ",
"                                                                ",
"                                                                ",
"                                                                ",
"                                                                ",
"                                                                ",
"                                                                ",
"                                                                ",
"                                                                ",
"                                                                ",
"                                                                ",
"                                                                ",
"                                                                ",
"                                                                ",
"                                                                ",
"                                                                ",
"                                   ...........                  ",
"                                 ..&&&&&&&&b4..                 ",
"                                .{_'i''i;h[i9'..                ",
"                               .<'=[/      //h&/{4              ",
"                              .&['[      4{>3j>+:%/b.           ",
"                              |i_<        }k)^>5!9=<..          ",
"                              0/<4       +(~8>+a9[_/0{          ",
"                              ib..       j-(^!g___/<{..         ",
"                              0h..       h[#'7@d,$]/#/'         ",
"                              =#..         iec2261eb            ",
"                              0fb.                              ",
"                              =/..                              ",
"                              0fb.                              ",
"                              =/..                              ",
"                              0fb.                              ",
"                              =/..                              ",
"                              0fb.                              ",
"                              =/..                              ",
"                              0/b.                              ",
"                              gf..                              ",
"                              &/b.                              ",
"                              i/..                              ",
"                              &/{.                              ",
"                              ih..                              ",
"                              4|{.                              ",
"                              |h..                              "};
