/* XPM */
static char *magick[] = {
/* columns rows colors chars-per-pixel */
"64 64 65 1",
"  c #1c040d",
". c #22040f",
"X c #2a0612",
"o c #2e0712",
"O c #2d0614",
"+ c #2f0715",
"@ c #310714",
"# c #310716",
"$ c #330716",
"% c #340814",
"& c #350817",
"* c #380815",
"= c #3a0916",
"- c #390818",
"; c #3c0919",
": c #3e0918",
"> c #3f091a",
", c #420a1a",
"< c #470a1b",
"1 c #450a1c",
"2 c #490b1d",
"3 c #4c0b1e",
"4 c #4f0c1e",
"5 c #4f0c1f",
"6 c #490b22",
"7 c #4a0b22",
"8 c #4b0b22",
"9 c #4c0b23",
"0 c #4f0c23",
"q c #520c20",
"w c #500c24",
"e c #520c24",
"r c #550d21",
"t c #550d25",
"y c #580d23",
"u c #5a0d22",
"i c #590d26",
"p c #5b0e27",
"a c #5e0e24",
"s c #5e0e28",
"d c #600e24",
"f c #600e25",
"g c #610e25",
"h c #630e27",
"j c #610e29",
"k c #640f2a",
"l c #670f2b",
"z c #69102a",
"x c #6b102c",
"c c #6e102d",
"v c #72112b",
"b c #71112e",
"n c #75122f",
"m c #77112d",
"M c #7a1230",
"N c #7d1332",
"B c #811333",
"V c #831433",
"C c #851434",
"Z c #8a1535",
"A c #8d1537",
"S c #911638",
"D c #931638",
"F c Magenta",
"G c None",
/* pixels */
"GGGGGGGGGGGGGGGGGGGGGGGGGGGGGGGGGGGGGGGGGGGGGGGGGGGGGGGGGGGGGGGG",
"GzDDDDDDDDDDDDDDDwDDDDDDDDDDDDDDDDDDDDDDDDDDDDDDDDDDDDDDDDDDDDDD",
"Gm8DZDD8DDVDDDDDDDDDDDDDs9DDDDDDDDDDDDDNM8DV9DDDDDDDDDDDDDDDDDDD",
"GhDDtxDDD0DDmCtbDDDDDDDDDDDDDDDDDDDjsDDDDDDDD8iDD998iDDBB9wN8xDl",
"GmDDDDDDDDDDDDDDDDDDDDDDDDDDDDDDDDDDDDDDDDDDDDDDDDDDDDDDDDDDDDDD",
"G0DDDDDDDDDDDDDDDDDDDDDDDDwlwDZDDDjDDDDDDiDDDDDmADDDDsDDDDDDDMbD",
"GmMicZDDD8sZ88BDD8ww9DDDDDDDDDD89DD9ctDDDDDDCDDDDbiDDDDDDDDiMDDD",
"GmDDDDDDDDDDDDDDDDDDDDDDDDDDDDDDDDDDDDDDDwDDDDDDDDDDDDAADDDDDDDD",
"GmDDiDDDDDDDDtBsDDDDD8DDDD8jiDDDDDD8DD8DDwDDDs8ADDlcN0l8VDADDDwD",
"GmDDDDDDDDDDDDDDDDDbDDDVtDDDDDDDDDDDDDDDDDDDDDDDDDDDDZwDZN8mMDDD",
"GmDDDDDDDDDDDDDDDDDDDDDDDDADl9VDDDDDADDDDDDDDDDDDDDDDDDDDDDDDDDD",
"GmDDDDDD8DDDDDw8tcADzDD8DDDDDDDBDDDDDMx8DDtz0DDDDDDDDD0N8D0wjDD8",
"GyDD8jjcD8DDDDwzDDDDDDDDDDDDbDDDDD9DDDDDDDDDDVDDbDDDDDDDDDDDDDDD",
"GmDDDDDDDDDDDDDDDDDDDDDDDD8mDDDDDDDDDDDDDDDDDDDDDDDDMDDDD8zwbDDD",
"GvDDwDDA0DDDxD8sDDDbDlDDDDzbDDDDDB0DDDDDDDjDDDD8DDCDDDDDDD8DiDDD",
"GmDDDDDDDDDDDDDDDDDDDDDDDDDDDxDDDDDDDDDDMwDiDDDDDDlDDDDDDBZ8DDDD",
"GmDDDDDDtlDDDDDDDDDDDDDDDDDDDDDDiDDbwcmDm8jtDDDDDDDDDDDsDDDDiZmD",
"GmDDDNDlDDDDDDDDBDDlMmD8DDDDM8DDDbDDiDDDw8DDmDD8ZDDDDDDDDCNDwDDi",
"GmDDDDDDDDDDDDDDDDDDDDDDDDDDDDDDDDDDDDDDDDDDDDNDDDDDDDDDDDDDDDDD",
"GyCDDDzDlDDDDwZjDDDDC9bDx9DDDDjD8DDDVDDtDDDDDDDDDDDDDDDDDD0DzDDD",
"GmDDiDDDDDb8DDMDCDDDDAmDDD8lDDDDDDDDiDDDDl8wDDwDDwwDCD98DDDDDDDD",
"GmDDDDDDDDDDDDDDDDDDDDDDDDDDDDDDDDDDDDDDDDDDDDDDDDDDDDDDDDDDDDDD",
"GhwD8twDDDw888DD8DZltlD00xDDDDttDDDDDDDDDDDtitDlAMw9ttDDDDD8lDDi",
"GmDxim8DDDDD0wDDDDDDDDDDDtZDDDDcDDDtDDDDDDDDDDDDDDDDDDDDDDDDD8tD",
"GzDDDDDDDDDDDDDDDDDDDDDDDDDDDDDDDDDDDDDDDDDDDDDDDDDDDDDDDDDZDDDD",
"GhD888C8DDiDA8DDDDDDD9DmiAlDDDDDDDt8bVDDNDZmMZMcDDDtDDDDb8DDDDiD",
"GqlDDDADDDDDDDDDDDDDDDDDDDDDDwD8DDDDDDDDDDDDDDDD8DZDDDDDDDDDDDDD",
"Gyy++;$yyyyy$r*yyyyyy;y5yyyyy+yyyy;yqyyyy-+y+yy$;3r$yy&&yyy$$y+y",
"G1yr,y+$$yuuruyyyuyyuuy5yuyyuu3yyy&r;yyyr$1yy3q$yy,+yyy-uryyyyy5",
"Gq$uuy&+yyuyy,y$2uy+ruy3uuyyuuy5&+q+,5y<yyy3$yyyyyy;&+y,uy$yy,yy",
"Gyyuu$3&,2&y*uyy,3yy2-&+1&+1uyyyyyy5yy$y;$yyyr-yy;;yr+,yryy;+&,u",
"G***=X**&@X@X&GGGGGGGGGGGGGGGGGGGGGGGGGGGGGGGGGGGGGGGGGGGGGGGGGG",
"G*==* *y% X@X%GGGGGGGGGGGGGGGGGGGGGGGGGGGGGGGGGGGGGGGGGGGGGGGGGG",
"G*==*.ryu@@XX%GGGGGGGGGGGGGGGGGGGGGGGGGGGGGGGGGGGGGGGGGGGGGGGGGG",
"G***<5ryd&hXX&GGGGGGGGGGGGGGGGGGGGGGGGGGGGGGGGGGGGGGGGGGGGGGGGGG",
"G**,<5-+u&hdX%GGGGGGGGGGGGGGGGGGGGGGGGGGGGGGGGGGGGGGGGGGGGGGGGGG",
"G**;<5r$5hddX%GGGGGGGGGGGGGGGGGGGGGGGGGGGGGGGGGGGGGGGGGGGGGGGGGG",
"G**;<5ryhhhdh%GGGGGGGGGGGGGGGGGGGGGGGGGGGGGGGGGGGGGGGGGGGGGGGGGG",
"G*=,<1ry,$huh%GGGGGGGGGGGGGGGGGGGGGGGGGGGGGGGGGGGGGGGGGGGGGGGGGG",
"G**;<3ryaah$h&GGGGGGGGGGGGGGGGGGGGGGGGGGGGGGGGGGGGGGGGGGGGGGGGGG",
"G**;.5+y+hhdh.GGGGGGGGGGGGGGGGGGGGGGGGGGGGGGGGGGGGGGGGGGGGGGGGGG",
"G**,<5&yuhddh+GGGGGGGGGGGGGGGGGGGGGGGGGGGGGGGGGGGGGGGGGGGGGGGGGG",
"G**;<$ru2hhhh;GGGGGGGGGGGGGGGGGGGGGGGGGGGGGGGGGGGGGGGGGGGGGGGGGG",
"G**;<55u;h-aduGGGGGGGGGGGGGGGGGGGGGGGGGGGGGGGGGGGGGGGGGGGGGGGGGG",
"G**;<52y+hhuhaGGGGGGGGGGGGGGGGGGGGGGGGGGGGGGGGGGGGGGGGGGGGGGGGGG",
"G**;<5r1uhh2haGGGGGGGGGGGGGGGGGGGGGGGGGGGGGGGGGGGGGGGGGGGGGGGGGG",
"G**,<5ry&hhdhuGGGGGGGGGGGGGGGGGGGGGGGGGGGGGGGGGGGGGGGGGGGGGGGGGG",
"G**$<5$yuuhdhaGGGGGGGGGGGGGGGGGGGGGGGGGGGGGGGGGGGGGGGGGGGGGGGGGG",
"G**;<5;yhhhdduGGGGGGGGGGGGGGGGGGGGGGGGGGGGGGGGGGGGGGGGGGGGGGGGGG",
"G**;<5ry2hhdhuGGGGGGGGGGGGGGGGGGGGGGGGGGGGGGGGGGGGGGGGGGGGGGGGGG",
"G$.,<5+y$5hdh&GGGGGGGGGGGGGGGGGGGGGGGGGGGGGGGGGGGGGGGGGGGGGGGGGG",
"G**;,5r&uhuhhaGGGGGGGGGGGGGGGGGGGGGGGGGGGGGGGGGGGGGGGGGGGGGGGGGG",
"G *,,5r$uhhdhuGGGGGGGGGGGGGGGGGGGGGGGGGGGGGGGGGGGGGGGGGGGGGGGGGG",
"GX*$<5ru$5hdhuGGGGGGGGGGGGGGGGGGGGGGGGGGGGGGGGGGGGGGGGGGGGGGGGGG",
"G**;<5ruuhhuhaGGGGGGGGGGGGGGGGGGGGGGGGGGGGGGGGGGGGGGGGGGGGGGGGGG",
"G**;<XXu2hhh2aGGGGGGGGGGGGGGGGGGGGGGGGGGGGGGGGGGGGGGGGGGGGGGGGGG",
"G**;<5&y+;h;haGGGGGGGGGGGGGGGGGGGGGGGGGGGGGGGGGGGGGGGGGGGGGGGGGG",
"G**;<5,;a$hdduGGGGGGGGGGGGGGGGGGGGGGGGGGGGGGGGGGGGGGGGGGGGGGGGGG",
"G*=,<XryahhhhaGGGGGGGGGGGGGGGGGGGGGGGGGGGGGGGGGGGGGGGGGGGGGGGGGG",
"G.*;,<r$a32uhaGGGGGGGGGGGGGGGGGGGGGGGGGGGGGGGGGGGGGGGGGGGGGGGGGG",
"G**;<5,y,hh5huGGGGGGGGGGGGGGGGGGGGGGGGGGGGGGGGGGGGGGGGGGGGGGGGGG",
"GG*;<5ry;uhdhGGGGGGGGGGGGGGGGGGGGGGGGGGGGGGGGGGGGGGGGGGGGGGGGGGG",
"GG=,<Xry1hhdhGGGGGGGGGGGGGGGGGGGGGGGGGGGGGGGGGGGGGGGGGGGGGGGGGGG",
"GGGG,5rya$DGGGGGGGGGGGGGGGGGGGGGGGGGGGGGGGGGGGGGGGGGGGGGGGGGGGGG"
};
