/* XPM */
static char *magick[] = {
/* columns rows colors chars-per-pixel */
"64 64 11 1",
"  c Gray0",
". c Gray32",
"X c #5a5a5a",
"o c Gray45",
"O c #7b7b7b",
"+ c #848484",
"@ c Gray58",
"# c Gray61",
"$ c #a5a5a5",
"% c Gray68",
"& c Gray71",
/* pixels */
"                                                                ",
" .o+OOOOOO+++O++OO+++++O+++O+O+OO+OO+O+O++++++++O+OOOO+++++++o. ",
" .#%%$$%%%%$$$%%$$%%%$#%%%$%$%%$%$$$&&%%%%%%&%%&%%%&$%%%%&$%%#X ",
" .#$$%$%%%%$$%%%$$$%$$$$$$#$$%%%$$%%%&%%%%%%$$%&%%&&&%&%&&%$%#X ",
" .#$&%&$%%%$%%%$%%$#$$$$%%$$%%%%%%%%%%%$$$%%%%%%$%$$&%%%%&%$%#. ",
" .@%%%$%$$$$%&$%%$#$$$%%%$$%%%%$%%$%&$$$$%$$$$%%$$%$%%$%%%$%%#. ",
" .#%$$$$%%&&&%$$%$%$%%&%%%%%%$%$%&&%%%%%$$$%%$$$$$%$%$%%$$$%%#X ",
" .@%%$%%%%&%$$$%$$$%%%%$%$%%$%%%%%$%$$$$%%%$$$%$$$$$$$$%$$$%%@. ",
" .@$$%%%%$$$$$&%%%%$%%%%$#$$%%$$$$$$$#%$$%$%$$$$$$%%%%$$$%%%$@. ",
" .@%%%&%%$$$$%%$%%%%$$$$%$%%%$%$$$%%%$%%$%%%#$%%%%%%%%%%%%%$%@. ",
" X$%%%%#%$%%%%$%$$%%%%$%$%%$$$$$$$%$%$$$%%$%%%%%$&%%%&%%$%$$$@X ",
" X#%&&%%%%%$%%%%$$%%%$$&%%$%$%%%%%%$%%$%%$%%%$#%$%&%%%%%&%%%%#X ",
" .#%%$$%$%%%$%%%%%$%%%%%%$$%$%%%%&%%%$%%%%%$$$&%%%$$$%%$$%%%%#X ",
" .#&%$$%$$%%%%$%$$%%$%%$%$%&%%%%%%%%&%$%$$%%$&%$$%$%%%%$$$%&%#X ",
" .#$$%%$#$$$%%$%#%&%%$%%%%%$$%%%$%%%$$&&%%%%%&%$%%$%%%$%$$%%%#X ",
" .#$$%%%$%%%$$$$%%%%%$%%%%%%%%&%%%%$%%%%%%%&%%%&%%%&$$%$$&%%$#. ",
" .#%%%%&%%$%%%%%%%%%%%%%%%%$%%%%%$%$$$%$%$$%%%$$$$$%$$$$%%&%&#. ",
" .#%%%%$%$%%$%%%$%$%%%%%%$%%%%$%%$#&%$%%%%$%$$$%%%%$%$%$%%%%%#X ",
" .#$$%$$%&$%$$%%%&%$$$$%$$$$$%%$$$$%%$$$$$$%%%%%%$$%%%%%%%%%$@. ",
" X#%%%$$%%%%$&%%%$%$$$$%$%%$%$$$%%%%%$%&%%&%%%%%$%%%%%%$$%%%$#X ",
" .#%$%$$$$%$%%%$%%%%%%%%$%%&%%%$%%%%$$%%%$$%%%%%%%&%%%%$%$%$$@. ",
" X@$%%$%$%%%%$%%%%$$%$%&%%%%%%%%$%%%%%%$%%%&%%$%%%$$$%$$%$%$%#. ",
" X#%%$%%$$%%$&%%$$$$%%%%&%%%%%%%%$$$$$%$%%%$#%$%%$$$%%%%%$%$%#X ",
" .#%%$$$$&%%%%$$$%$%%%%&%&$%%%$$$%%$%%%%%$%$%$%%$%$$%$%%$%%$%@X ",
" .#%$$$%%%%%%$$$%$%$%%%%$%%%$$$$%$$%$$$$%%$%$%%%%$$%%$$$$$%%%#. ",
" .#$%%$%%%&&%%%%%%$$$%$%%%%$%%$%%$$$$%$%%%$$$$%%%$$$$$$%%%%%%#X ",
" .#$$$%%%%%%$%$$%$%%%%%$$%%%$$%%%%%%$%$$%%$$%%%&$$%$$%%$$$%&&#. ",
" .@$%&%%%%%$$%$%$$%%&%%%%%$$$%$$$$$$$$$$%%$%%%%%%$%%%%$%%%$$$#. ",
" .@%&%%%$$%%$%$%%%$%%$&$$%$$$%$%%$%%%$$$$%$$%%$%%%$$$$%%$%$%$@X ",
" X@%&$$%$%#$%%%$$%$$$$%%%$%%$%$%$%%%%$%$$%&%$%$%%%%%%&$%%$%%$@. ",
" X#%$$%%$$$$$&%$%$%$$$%%$%%$$%$$%%%%%%%%%%%&$$$%%$%%%%%$$%%%%#. ",
" X#%%%%%&&%&%%%%$$%%$$$%$%%%&%$%%%%%$%%%&%$%%%$$$$$%%%%%$$%%%#X ",
" .#$$%%%%%%$%$$$$$$$$$%%$%%$$$$%%%%%$%$%%%$%$%%%%%$%$$$%%$%$%#. ",
" .@$$%%%%%$%$%%%%$%%$%$%&$$%%%%%%%$$$$%%%%%%$$$%%$%%%%%%%%$%%#X ",
" .@$$$%%%$$%$$%%$%$%%%$%%$$%%%%%%$%%&%%$$$$%%$$%$$$%$$$$%%$%%#. ",
" X@$$$%%%%%%%%%&%$%%%&&%%$%%$%%$%%%%%$$%%%%$%%%%%$%$$$$%%&&%%#X ",
" X$$%%%%%%%%$%$%%%%$%%%%$%%%%%$%%%$%%%$$$%$%%%$$%%$%$%%%%%%%%#X ",
" X#%%%&%%&%%%%%%$$%%%$%&%%%%%%%%$%%%%$$%%%%&%%$&$%%%%%%%%%&%%#X ",
" .@$$%%%&%%%%%&$%%%&%%%%%$%%$%$%%%$$%$%%&%%%$$%$$%%%%%$%%%$$%#. ",
" X@%$%$%$%$%%$$%%%%%%%$&%%%%%$$%%$$%&$%%%$%$%%$%%%&&%%%%$$$%%@X ",
" .@%%%$$$$$$$$%%$%%$$%%%$$$$$$%%%$%%$$$$$%%%%%%%$$#%%%&$$%%%$#X ",
" .#%%%$$$$$#%%$%$%$%$$$$$$%$$$%$%$%%$$$%%%%%%$%%$%%%%%%%%%%$%#. ",
" .@%$$%%%$$$$$$%%$&%%$$%$%%%%%%%$%$$$$%%%%%%$%%%%$%%%$%$$%$$$#. ",
" .@$$%%%%%%&%$%$%$$$$%%$%$%%$%$$%%%$$$%%%%%%%%$$&&$%%%%$%%%&%#X ",
" .#$%$#%&%&%%$$$#$$%$$$%%$%%%%$&%$%$%%%%%%%$$$$$%$$%$%$%%%$$%#. ",
" .@%%$%$%$%%$%%$$%%$%$%%$%%%$$$%%$%%$%%%%%%%$$%%%%$%$$$%$$$$$#. ",
" .@$$$%%$%$$%$$%$%%%%$%%$$$%$%%%%%%$%%%$%$%%$%%%%$$%$%$$%$$$$#X ",
" .#%%&$%$$$%%%$%%%%%$$%$%%%$$%%%%%%$$%%%%%%%$%$%$$%&%%%%%%%%%@. ",
" X#%%%%%%$%%%%$%$%%$$%$%$$%%%%%%%%%%%%$%%%$%%%%%$$%%&%$$%%%$$#. ",
" X#$$%%$$$%&%%%%$%%%%%%$%%%%%$%%%%$%%$%%%$%$%%$%$%%%%$$%$%$$%$X ",
" .@%%$%$%%%%$$%%%%%$%%%%%$%&$%&&%$$$$$%$%%%%%$%$$%%%%%%$%$%%%#. ",
" .#%$$%$%$%%%&%&%$%%$$%%%$%%%%%%$$%$&$$%%%%%%%%%%%&%$$%%$%%%$@. ",
" .#%%%%%%%%%&&%%%$$$%%$%%$$%%%$%%$$%%$%%%$$$$%$%%$%%$$&%%%$%$@. ",
" X$&%&$%%&&%%%%%&%$%%%%%$$%%%%$$%$%%$%%%%$%%%%%%%%%$$%%%%$%%$@. ",
" .@$%%%%$$%%%$%%$%%$%%%%$%&%%%$%%$%%%%&%$$$%%%%$$%$%%%&&$$$%$@X ",
" .@%%%$%%$#$$%&$%%%%%$%%%%%&%%%%$$%$%%$$$%%%$%%$$%%&$%$%%$%$$@. ",
" X$%&%%%%%$$%%$$$$%%$%$%$$%$$$$%$%%%%$$%%%$$$%$%%%%$$%$$$$$%%#X ",
" X#%$%%%$$%&$$$$$%$%$%$$%%%%$%%%$%%&%$%%$$%%%%%%%%&%%$$$$$$%&#X ",
" .#%$%$$$$%%%%$%%%$%%%%%$$%%%$$$$%&%$%%$%%%%%%$%%%$%$%%%$%%%%@. ",
" .#%$$%$$$&$%%%%$%$$$$##$%$%%$%%%%%%%$$$%$%%%%$%$%$%%%%%%&%%%@X ",
" .#$&%%%%$%$$$%$$$$$$$$%&%$$%$%$$$%%$$%$%$%%$$%%%%$%&%%%%%%$$@. ",
" X#%%$$%$%$$$$$&%%%%%%&&%%%%%$%%%&$$$%$$%&$%%%%%&%$%%$$$%%%$%$X ",
" X#%$%$%%&%%%%$$%%%$%%&%%%$%$%%%$$$$%$%$%$%%%%%%%%%%%%$%%$$%$@X ",
" .@&%%$&%%%%&&%%%$%%$$&&$%$%%$%$$%%$$%%%$%$%%%%$$$%%$$$&&%%&$#X "
};
