/* XPM */
static char *magick[] = {
/* columns rows colors chars-per-pixel */
"64 64 26 1",
"  c Gray0",
". c Gray18",
"X c #393939",
"o c #3a3a3a",
"O c #414141",
"+ c Gray26",
"@ c #494949",
"# c Gray29",
"$ c #4c4c4c",
"% c Gray32",
"& c #555555",
"* c #585858",
"= c #5a5a5a",
"- c #5d5d5d",
"; c Gray38",
": c #656565",
"> c #939393",
", c Gray61",
"< c #a0a0a0",
"1 c Gray63",
"2 c #a4a4a4",
"3 c #a5a5a5",
"4 c #a9a9a9",
"5 c Gray68",
"6 c #b1b1b1",
"7 c Gray71",
/* pixels */
"-&&-&--&&----&----&&:&-&&&-&&&&&:&-&&--&---&&-&--&&----&----&&=.",
"664411641444111114464644141411411414146414664411641444111111411;",
"35553355333555533557555555773335355353555,35553355333555533535,-",
"3353335553355553553355555575553355533,333333533355533555535533>&",
"33,35535553555375555553335555555555533553333,35535553555375553,-",
"333,35537533335355333353333753553555533555333,3553753333535555,&",
"553535335777553333355333555557753535555557553535335777553333553-",
"555333533357555535333555333353555553553535555333533357555535353&",
"55355557333335555333535335,33333335533,35555355557333335555553,$",
"3355553553333557553,5553553555333535553533335555355333355753553&",
"55553353555535,55555535533353533333335535355553353555535,553333-",
"35553355553555557,35553553553555555353557335553355553555557535,-",
"55535555535553533733355555355575555353355555535555535553533535,&",
"535533535555335335735533535755555555753535535533535555335335573&",
"35575,5355333,355575555577335553555335555535575,5355333,3555333-",
"355555333355535555557555555535555755555555355555333355535555553-",
"555555555553557553555335353335355555355555555555555553557555533-",
"55535355535535355333535555357,355355553555555353555355353555553&",
"33357555335375335555533333355333355333335333357555335375335533,&",
"333535557355553355555755753555553335355353333535557355553353533-",
"555555355535333355555335553355553555755355555555355535333355573-",
"353355553555535353557555355555535555555575353355553555535355553-",
"5533335573553355335,3555353333355555555755553333557355335535553-",
" =============================================================# ",
"                                                                ",
"                                                                ",
"####%#+++##++#++%###++##++#+######++###++#####+#++#+###++#+###+ ",
"####++###+####+######+##++++++++++#+++#####%##++#+#++###+#++##+ ",
"++###+#+##++++###+##++#++++###+##+#+++#++%+##+###+#+##+#+#+##+o ",
"#+#+##+##+%######+#+#%#++#+####+#+#+##+###++++#++###+o#+###+o#o ",
"++#####++#####+##+++%###########++#++##+##+++#+#+#%+++++#%++++o ",
"%%####++#####+++++###+#%###+#####+#%###+#+++##++####%#%####%#%# ",
"####+#+##+++#+#####+#+###+#+#####++++##+##+++++++++#+##+++#+##+ ",
"#####+########+##+++######++++#######++%#+#+##+####+#+####+#+#+ ",
"+####+##++++#+++#++##++++##%##+######++##+###+#+##++#++##++#+++ ",
"#####%%##++++#+#####+####++#####+##+##+##%%###+#%######%######+ ",
"###########+#+##++###+#+++###+###+#####+####+####+#+####+#+###+ ",
"%##%#%#########+%+##%####++####+########%#+###++######%######%+ ",
"#%##++###+#####++#++###%##+#++###+#+##+#####%###+%#####+%###### ",
"#+#+#+++####%%###+##+#+###+%#++##++#####%+#######++##+##++##+#o ",
"++++###++%###o++#######+++++##+###++++++###++##+##+++++##+++++o ",
"+++++##########+##+######+++##+#+#+++#++++++#+#+#+##o++#+##o++o ",
"+###++#++#+###+####+######++++#+#######+#++##%+##++++++#+++++++ ",
"####%###+####+%%++########+++###++#+##+#+##++++#+#+#%##+#+#%##+ ",
"#%#o++###+#+#++#+++++#######+#+#%+####+##+++#++o+++##%#+++##%## ",
"+#+#++++#+++#+####++#######+##+##+++###+##+#+##++##+##++##+##++ ",
"#+##+++#++#+#++####+##+#+###+######+#+++##+####+#++#++##++#++#o ",
"++#+########%#++#+#+#######++######++###+#++#####+###++#+###++o ",
"+###+###++#%##++#####+###+############++#+#++##+#+####+#+####++ ",
"+++#++#+#++####+#+##+#+###+##+####+#####+######+####%#+####%#+o ",
"##+###+#+######++#+#####+#+++++#%%#+%#+#####+#####++#####++###+ ",
"+#+####+##++#%###########++%+#++######+###++##+#%#%###+%#%###++ ",
"#####+###%++##+##+#++++###+##++##+###++##+##+++###%%#####%%###+ ",
"%##+##+####++#########+####+##+#++####++#####+#%#####%%#####%%+ ",
"++###+++%%###+#++####+++#%####+##+###%#+####+##+##+###+##+###+o ",
"+##++#+##+#+%##++##+###+++##+#++####%#####+#####+%#++o++%#++o++ ",
"#####+++++#++####+#+++###++####+#++++#++#+#+##++++##++#++##++#+ ",
"++###++++++##%########++##+#%##+###+####++#+#+#+++++%#+++++%#+o ",
"++++###+###+#+###+######+##+#%#++++###++#####+###+####+#+####+o ",
"+++###%######+#+#+####+#+++#######+##+#+oo++++#+####+%+####+%+o ",
"+###+######%#+####++##+#+#++##+++#+#++#%#++++++++#+++#++#+++#++ ",
"#+#++###+++##+#%#####+%#++#+++%###+#####%%######%+++++#%+++++#o ",
"%##+#++##+############+#+#+#++++###+#+###%##+###++####%++####%+ ",
"                                                                "
};
