/* XPM */
static char * tech_box_xpm[] = {
"64 64 36 1",
" 	c None",
".	c #323234",
"+	c #6A6A6C",
"@	c #4E4E4C",
"#	c #5E5E5C",
"$	c #9A9A9C",
"%	c #424244",
"&	c #727274",
"*	c #565654",
"=	c #626664",
"-	c #727684",
";	c #3A3A3C",
">	c #4A4A4C",
",	c #5E5A5C",
"'	c #6A6A7C",
")	c #666264",
"!	c #565A5C",
"~	c #626264",
"{	c #4A4644",
"]	c #767674",
"^	c #666664",
"/	c #767684",
"(	c #423E3C",
"_	c #5A5A5C",
":	c #363634",
"<	c #726E6C",
"[	c #525254",
"}	c #5E5E64",
"|	c #464644",
"1	c #62666C",
"2	c #72768C",
"3	c #3E3E3C",
"4	c #4E4A4C",
"5	c #6A6E84",
"6	c #76767C",
"7	c #5A5A64",
"               3#({%;%:;:3>>|%%,_>|,|%%%3|>>>>33^               ",
"               _&66]]]6^^^^^)^^&]]]]6]]]6]]]]]6<*               ",
"               :&]]]]]]66]]]]]]]]6]]]6]]6]]]]]]6&               ",
"               4<]]6]]6]]]6]6]]6]]6]]]]]]]]6]]6<*               ",
"               %]6]6]]]]]]]]6]]]]]]6]6]]6]]]6]]6&               ",
"               ~]]]]6]6]6]6]]6]]6]6]]]6]]]6]]]]<*               ",
"               4]]]]]]]]]]]]]6]]]]]6]]6]6]]]6]]6&               ",
"               )]6]]6]6]6]]6]]6]6]]]]]]]]]6]]]]<*               ",
"               @+^)))))#))))#)))))))))))#)))),_,*               ",
"               *%(:::.:::::::::::::::..:::.......               ",
"               %]]]]]]6]]]]6]]]]]]]]]]]6]]]]]&<+3               ",
"               ,6]]]6]]]]]]]]]]]6]]6]6]]]]]]]]]<.               ",
"               %]6$$$$$$$$$$$$$$$$$$$$$$$$$$$$]]>               ",
"               ,]]$$$$$$$$$$$$$$$$$$$$$$$$$$$$]+.               ",
"               %]]$$$$$$$$$$$$$$$$$$$$$$$$$$$$]]>               ",
"               ,]]$$$$$$$$$$$$$$$$$$$$$$$$$$$$6+.               ",
"               %]]$$$$$$$$$$$$$$$$$$$$$$$$$$$$6]>               ",
"               ,6]$$$$$$$$$$$$$$$$$$$$$$$$$$$$6+.               ",
"               %]]$$$$$$$$$$$$$$$$$$$$$$$$$$$$66>               ",
"               #]]$$$$$$$$$$$$$$$$$$$$$$$$$$$$6+.               ",
"               %]]$$$$$$$$$$$$$$$$$$$$$$$$$$$$66>               ",
"               #]]$$$$$$$$$$$$$$$$$$$$$$$$$$$$6+.               ",
"               %]]$$$$$$$$$$$$$$$$$$$$$$$$$$$$66>               ",
"               #]]$$$$$$$$$$$$$$$$$$$$$$$$$$$$/+.               ",
"               %]]$$$$$$$$$$$$$$$$$$$$$$$$$$$$6->               ",
"               #]]$$$$$$$$$$$$$$$$$$$$$$$$$$$$-+.               ",
"               |]6$$$$$$$$$$$$$$$$$$$$$$$$$$$$6->               ",
"               #]]$$$$$$$$$$$$$$$$$$$$$$$$$$$$/+.               ",
"               %6]$$$$$$$$$$$$$$$$$$$$$$$$$$$$6->               ",
"               ~6]$$$$$$$$$$$$$$$$$$$$$$$$$$$$2+.               ",
"               %]6$$$$$$$$$$$$$$$$$$$$$$$$$$$$/->               ",
"               ~6]$$$$$$$$$$$$$$$$$$$$$$$$$$$$-'.               ",
"               %66$$$$$$$$$$$$$$$$$$$$$$$$$$$$6->               ",
"               ~6]$$$$$$$$$$$$$$$$$$$$$$$$$$$$-'.               ",
"               %66$$$$$$$$$$$$$$$$$$$$$$$$$$$$-->               ",
"               ~6]$$$$$$$$$$$$$$$$$$$$$$$$$$$$-'.               ",
"               %/6$$$$$$$$$$$$$$$$$$$$$$$$$$$$-->               ",
"              [+66$$$$$$$$$$$$$$$$$$$$$$$$$$$$2'.               ",
"              %=6/$$$$$$$$$$$$$$$$$$$$$$$$$$$$2->               ",
"              *+/]$$$$$$$$$$$$$$$$$$$$$$$$$$$$2'.               ",
"              %=//$$$$$$$$$$$$$$$$$$$$$$$$$$$$22>               ",
"              *+/6$$$$$$$$$$$$$$$$$$$$$$$$$$$$2'.               ",
"              %=-/$$$$$$$$$$$$$$$$$$$$$$$$$$$$25@               ",
"              *=/6$$$$$$$$$$$$$$$$$$$$$$$$$$$$25;               ",
"              %^//$$$$$$$$$$$$$$$$$$$$$$$$$$$$22[               ",
"              !1/6$$$$$$$$$$$$$$$$$$$$$$$$$$$$5';               ",
"              %=2/$$$$$$$$$$$$$$$$$$$$$$$$$$$$22[               ",
"              !1//$$$$$$$$$$$$$$$$$$$$$$$$$$$$2';               ",
"              %=2/$$$$$$$$$$$$$$$$$$$$$$$$$$$$22[               ",
"              !1//$$$$$$$$$$$$$$$$$$$$$$$$$$$$5';               ",
"              %=2/$$$$$$$$$$$$$$$$$$$$$$$$$$$$22[               ",
"              *12//////////////////////////2222';               ",
"              %=222////////////////////222222252[               ",
"              *~5555555555555555555522222222252';               ",
"               @}}}}}}}}}}}}}}}}}}}!!!!!!!!!7!!!@               ",
"                                                                ",
"                                                                ",
"                                                                ",
"                                                                ",
"                                                                ",
"                                                                ",
"                                                                ",
"                                                                ",
"                                                                "};
