/* XPM */
static char *toaster[] = {
/* width height num_colors chars_per_pixel */
"    64    64       64            1",
/* colors */
". c #000000",
"# c None",
"a c #969696",
"b c #999999",
"c c #9d9d9d",
"d c #9f9f9f",
"e c #a1a1a1",
"f c #a2a2a2",
"g c #a5a5a5",
"h c #a6a6a6",
"i c #a7a7a7",
"j c #a8a8a8",
"k c #aaaaaa",
"l c #adadad",
"m c #acacac",
"n c #aeaeae",
"o c #afafaf",
"p c #b0b0b0",
"q c #b1b1b1",
"r c #b5b5b5",
"s c #b3b3b3",
"t c #b7b7b7",
"u c #b8b8b8",
"v c #bababa",
"w c #bbbbbb",
"x c #bcbcbc",
"y c #bebebe",
"z c #bfbfbf",
"A c #c0c0c0",
"B c #c3c3c3",
"C c #c1c1c1",
"D c #c4c4c4",
"E c #c5c5c5",
"F c #c7c7c7",
"G c #c8c8c8",
"H c #c9c9c9",
"I c #cbcbcb",
"J c #cccccc",
"K c #cdcdcd",
"L c #cecece",
"M c #d0d0d0",
"N c #d1d1d1",
"O c #d2d2d2",
"P c #d5d5d5",
"Q c #d3d3d3",
"R c #d6d6d6",
"S c #d7d7d7",
"T c #d9d9d9",
"U c #dadada",
"V c #dcdcdc",
"W c #dfdfdf",
"X c #e0e0e0",
"Y c #e2e2e2",
"Z c #e4e4e4",
"0 c #e5e5e5",
"1 c #e7e7e7",
"2 c #e8e8e8",
"3 c #ebebeb",
"4 c #e9e9e9",
"5 c #ededed",
"6 c #efefef",
"7 c #f1f1f1",
"8 c #f5f5f5",
"9 c #f7f7f7",
/* pixels */
"################################################################",
"################################################################",
"################################################################",
"################################################################",
"################################################################",
"################################################################",
"################################################################",
"################################################################",
"################################################################",
"################################################################",
"################################################################",
"################################################################",
"################################################################",
"################################################################",
"################################################################",
"################################################################",
"################################################################",
"###############################.Z4.#############################",
"############################.OPUX025.###########################",
"########################..yBH..SVYZ3689.########################",
"#######################.ruxC.JLP.WY25...#######################e",
"####################.fgkp.uxB.INR..3689.#######################e",
"####################..ehmq.vzEG.UXY1578.####eeeee############ee#",
"####################.MP.jnp..HKOSVWZ457.##ee####e############e##",
"####################.KNTh..yBGIMPUVY136.#e#######e##########e###",
"####################.GJQUsrvAEFKOSTWZ43.e########e##########e###",
"####################.B.LRoqtxCDHLQRUX02.##########e#######ee####",
"####################.A.IQlprvzBFJNPTWY0.###########ee#####e#####",
"####################.w.ELjmqrwyBGLMPUXY.#############eeeee######",
"####################.r.CGhjnsuwAEHKOS..#########################",
"####################...wBfgkortxCEH.ee##########################",
"####################....AefjlsrvAEee############################",
"####################.jkswcdgkoq.ee##############################",
"#####################.hnrbceh.ee################################",
"#######################.pab.ee##################################",
"########################n..e####################################",
"################################################################",
"################################################################",
"################################################################",
"################################################################",
"##############################eeeeeeeeee########################",
"###########################eeeDLSYYYYYSLeee#####################",
"##########################eipwDLSY333YSLDwpe####################",
"#########################ecipwDLSY383YSLDwpie###################",
"#########################ecipwDLSY333YSLDwpie###################",
"##########################eipwDLSYYYYYSLDwpe####################",
"###########################eeeDDLSSSSSLDeee#####################",
"#############################heeeeeeeeeeh#######################",
"##############################hhhhhhhhhh########################",
"################################hhhhhh##########################",
"################################################################",
"################################################################",
"################################################################",
"################################################################",
"################################################################",
"################################################################",
"################################################################",
"################################################################",
"################################################################",
"################################################################",
"################################################################",
"################################################################",
"################################################################",
"################################################################"
};
