/* XPM */
static char *magick[] = {
/* columns rows colors chars-per-pixel */
"64 64 65 1",
"  c #3b3d3b",
". c #3f5252",
"X c #474947",
"o c #4d574d",
"O c #485b59",
"+ c #525c52",
"@ c #575857",
"# c #566156",
"$ c #5a655a",
"% c #5e6a5e",
"& c #4f6563",
"* c #556a66",
"= c #5c6d65",
"- c #626e62",
"; c #6c6c6c",
": c #647165",
"> c #667266",
", c #6b786b",
"< c #647e7a",
"1 c #737973",
"2 c #768576",
"3 c #7c8b7c",
"4 c #718f8b",
"5 c #76948f",
"6 c #7b968f",
"7 c #7e988f",
"8 c #7a9a97",
"9 c Magenta",
"0 c #829282",
"q c #859686",
"w c #849a8e",
"e c #8a9a8a",
"r c #8a9e8f",
"t c #8d9f8e",
"y c #8fa18f",
"u c #92a593",
"i c #96a996",
"p c #92a99b",
"a c #99ac99",
"s c #9eb19e",
"d c #86aaa7",
"f c #99b4a8",
"g c #97bbb5",
"h c #a0b3a0",
"j c #a2b5a2",
"k c #a4b9a4",
"l c #a6baa6",
"z c #a6bba7",
"x c #a9bea9",
"c c #9ec1b8",
"v c #adc2ad",
"b c #a7c5b8",
"n c #b1c6b1",
"m c #b4c9b4",
"M c #b6cdb6",
"N c #b3cdba",
"B c #b8ceb8",
"V c #bad1ba",
"C c #bcd3bc",
"Z c #bed5be",
"A c #b7d3c2",
"S c #c0d7c0",
"D c #c2d9c2",
"F c #c5dcc5",
"G c None",
/* pixels */
"GGGGGGGGGGGGGGGGGGGGGGGGGGGGGGGGGGGGGGGGGGGGGGGGGGGGGGGGGGGGGGGG",
"GGGGGGGGGGGGGGGGGGGGGGGGGGGGGGGGGGGGGGGGGGGGGGGGGGGGGGGGGGGGGGGG",
"GGGGGGGGGGGGGGGGGGGGGGGGGGGGGGGGGGGGGGGGGGGGGGGGGGGGGGGGGGGGGGGG",
"GGGGGGGGGGGGGGGGGGGGGGGGGllllllGGGGGGGGGGGGGGGGGGGGGGGGGGGGGGGGG",
"GGGGGGGGGGGGGGGGGGGGGGGllllllllllGGGGGGGGGGGGGGGGGGGGGGGGGGGGGGG",
"GGGGGGGGGGGGGGGGGGGGG1;1llllllllllyGGGGGGGGGGGGGGGGGGGGGGGGGGGGG",
"GGGGGGGGGGGGGGGGGGllo11;1lldlfflyyyGGGGGGGGGGGGGGGGGGGGGGGGGGGGG",
"GGGGGGGGGGGGGGGGll>>  @X$lldlyyyyyyGGGGGGGGGGGGGGGGGGGGGGGGGGGGG",
"GGGGGGGGGGGGGlllfll>>XX@lllfyyyyyyyGGGGGGGGGGGGGGGGGGGGGGGGGGGGG",
"GGGGGGGGGGGldllldllllllllyyyyyyyyyyGGGGGGGGGGGGGGGGGGGGGGGGGGGGG",
"GGGGGGGGG>lllllldllllllyyyyyyyyyyyyGGGGGGGGGGGGGGGGGGGGGGGGGGGGG",
"GGGGGGGGG>>lllllfflllyyyyyyyyyyyyyyGGGGGGGGGGGGGGGGGGGGGGGGGGGGG",
"GGGGGGGGG>>>>lllllyyyyyyyyyyyyyywryGGGGGGGGGGGGGGGGGGGGGGGGGGGGG",
"GGGGGGGGG>>>>>>lyyyyyyyyyyyyyyryyyyGGGGGGGGGGGGGGGGGGGGGGGGGGGGG",
"GGGGGGGGG>>>>>>>yyyyyyyyyyyyyy6y5tyGGGGGGGGGGGGGGGGGGGGGGGGGGGGG",
"GGGGGGGGGG>>>>>>yyyyyyyywyyy7y5yyryGGGGGGGGGGGGGGGGGGGGGGGGGGGGG",
"GGGGGGGGGG>>>>>>yyyyyyyyy6y66yyyyyyGGGGGGGGGGGGGGGGGGGGGGGGGGGGG",
"GGGGGGGGGG=>>>>>yyyyyyyyryyywyyyyyyGGGGGGGGGGGGGGGGGGGGGGGGGGGGG",
"GGGGGGGGGG>>*>>>yyryyy6ywyyyyyyyyyyGGGGGGGGGGGGGGGGGGGGGGGGGGGGG",
"GGGGGGGGGG>=&>>>yyryyr5yywyyyyyyyyyGGGGGGGGGGGGGGGGGGGGGGGGGGGGG",
"GGGGGGGGGG=>=>>>yyy4yyyy7yyyyyyyyyyGGGGGGGGGGGGGGGGGGGGGGGGGGGGG",
"GGGGGGGGGG>>*>>=yyyy6yyyyyyyyyyyyyyGGGGGGGGGGGGGGGGGGGGGGGGGGGGG",
"GGGGGGGGGG>>>>>>yyyyyyyyyyyyyyyyyyGGGGGGGGGGGGGGGGGGGGGGGGGGGGGG",
"GGGGGGGGGG>>>>>>5yyyyyyyyyyyyyyyy4GGGGGGGGGGGGGGGGGGGGGGGGGGGGGG",
"GGGGGGGGGG>>>>>>yyyyyyyyyyyyyyyyywGGGGGGGGGGGGGGGGGGGGGGGGGGGGGG",
"GGGGGGGGGG>>>>>>yyyyyyyyyyyyyy6yyyGGGGGGGGGGGGGGGGGGGGGGGGGGGGGG",
"GGGGGGGGGG>>>>>>yyyyyyyyyyyyyywyryGGGGGGGGGGGGGGGGGGGGGGGGGGGGGG",
"GGGGGGGGGGG>>>>>yyyyyyyyyyr7yyllllllklhGGGGGGGGGGGGGGGGGGGGGGGGG",
"GGGGGGGGGGG>>>>>yyyyyyyyy7y7yvxxlsspsjjlllGGGGGGGGGGGGGGGGGGGGGG",
"GGGGGGGGGGG>>>>>>yyyyyyyyyyCZbjuq00qtyisjxxGGGGGGGGGGGGGGGGGGGGG",
"GGGGGGGGGGG>>>>>>yyyyy7rryFxq+lxx>o$>>0e8hxvGGGGGGGGGGGGGGGGGGGG",
"GGGGGGGGGGG>>>>>>yy5yytVSm3vMcmvljs>>>>,0ujdnGGGGGGGGGGGGGGGGGGG",
"GGGGGGGGGGG>*>>>>yyr6xmZxxVDABxsue0q>>>>>qaxn#GGGGGGGGGGGGGGGGGG",
"GGGGGGGGGGG>*>>>>6yyjvMNvVDZBvjae3>>>>>>>2ulgBGGGGGGGGGGGGGGGGGG",
"GGGGGGGGGGG>>>>>>5yesxmcgZVMvjit02>>>>>>>3almV%GGGGGGGGGGGGGGGGG",
"GGGGGGGGGGGG>>>>>y>qaxvnMMnvj8yq3>:>>>>>%qsxMVGGGGGGGGGGGGGGGGGG",
"GGGGGGGGGGGGG>>>>o>0ujxfxnnlsie3->>>>>>=eslnVVGGGGGGGGGGGGGGGGGG",
"GGGGGGGGGGGGGGG>>o>>eujxxlmlijl>>>>$>>>tslnBZcGGGGGGGGGGGGGGGGGG",
"GGGGGGGGGGGGGGGGGoG>3tajllljlll>*>>>3iskxnVSClGGGGGGGGGGGGGGGGGG",
"GGGGGGGGGGGGGGGGGGGo>3tisjlllljsapsfjlxgMCDDlGGGGGGGGGGGGGGGGGGG",
"GGGGGGGGGGGGGGGGGGGG#><quasdlllllxxffnMVSFSsGGGGGGGGGGGGGGGGGGGG",
"GGGGGGGGGGGGGGGGGGGGGG>>2qyashllxxvnmBZcvs3GGGGGGGGGGGGGGGGGGGGG",
"GGGGGGGGGGGGGGGGGGGGGGG$->,20tu8shjfhsit,GGGGGGGGGGGGGGGGGGGGGGG",
"GGGGGGGGGGGGGGGGGGGGGGGGO-o+#%>222,%ooqeGGGGGGGGGGGGGGGGGGGGGGGG",
"GGGGGGGGGGGGGGGGGGGGGGGGG%%%-%&%%$##.23GGGGGGGGGGGGGGGGGGGGGGGGG",
"GGGGGGGGGGGGGGGGGGGGGGGGGG$$&%$$$#+,*1sGGGGGGGGGGGGGGGGGGGGGGGGG",
"GGGGGGGGGGGGGGGGGGGGGGGG->>+####++#o-dvxGGGGGGGGGGGGGGGGGGGGGGGG",
"GGGGGGGGGGGGGGGGGGGGGGG&=>*>++oooo+OixnmvGGGGGGGGGGGGGGGGGGGGGGG",
"GGGGGGGGGGGGGGGGGGGGGG>>>>>->#+oo+$VulmBMnGGGGGGGGGGGGGGGGGGGGGG",
"GGGGGGGGGGGGGGGGGGGGGG>>>>>>%>%#+&vxavBVVBnGGGGGGGGGGGGGGGGGGGGG",
"GGGGGGGGGGGGGGGGGGGGG>>>>>>>>-lvvxisxMCgCVMGGGGGGGGGGGGGGGGGGGGG",
"GGGGGGGGGGGGGGGGGGGGG>>=>>*uajdjljlvBZSDScBGGGGGGGGGGGGGGGGGGGGG",
"GGGGGGGGGGGGGGGGGGGGG>>&><qtuahllvmBZDFFDAVGGGGGGGGGGGGGGGGGGGGG",
"GGGGGGGGGGGGGGGGGGGGG>>*130euasjxvmcSFFFFSNGGGGGGGGGGGGGGGGGGGGG",
"GGGGGGGGGGGGGGGGGGGGGG>>120q6wphlvmVSFFFFSGGGGGGGGGGGGGGGGGGGGGG",
"GGGGGGGGGGGGGGGGGGGGGGG>123qtrasjxnBZDFFFlGGGGGGGGGGGGGGGGGGGGGG",
"GGGGGGGGGGGGGGGGGGGGGGGG1230e5iajlvnNZDFFGGGGGGGGGGGGGGGGGGGGGGG",
"GGGGGGGGGGGGGGGGGGGGGGGGGG30etuaslxnMgSGGGGGGGGGGGGGGGGGGGGGGGGG",
"GGGGGGGGGGGGGGGGGGGGGGGGGGGGGtuaslxnGGGGGGGGGGGGGGGGGGGGGGGGGGGG",
"GGGGGGGGGGGGGGGGGGGGGGGGGGGGGGGGGGGGGGGGGGGGGGGGGGGGGGGGGGGGGGGG",
"GGGGGGGGGGGGGGGGGGGGGGGGGGGGGGGGGGGGGGGGGGGGGGGGGGGGGGGGGGGGGGGG",
"GGGGGGGGGGGGGGGGGGGGGGGGGGGGGGGGGGGGGGGGGGGGGGGGGGGGGGGGGGGGGGGG",
"GGGGGGGGGGGGGGGGGGGGGGGGGGGGGGGGGGGGGGGGGGGGGGGGGGGGGGGGGGGGGGGG",
"GGGGGGGGGGGGGGGGGGGGGGGGGGGGGGGGGGGGGGGGGGGGGGGGGGGGGGGGGGGGGGGG"
};
