/* XPM */
static char *magick[] = {
/* columns rows colors chars-per-pixel */
"64 64 64 1",
"  c #383c38",
". c #3b4946",
"X c #600000",
"o c #434143",
"O c #434943",
"+ c #4a544b",
"@ c #4c564c",
"# c #495955",
"$ c #525c52",
"% c #5a5d5b",
"& c #566056",
"* c #55625a",
"= c #5a655a",
"- c #5e6a5e",
"; c #586b65",
": c #57716f",
"> c #676767",
", c #606c61",
"< c #626e62",
"1 c #647165",
"2 c #667266",
"3 c #64746a",
"4 c #697669",
"5 c #6d7a6d",
"6 c #6d7b6e",
"7 c #647b75",
"8 c #717e71",
"9 c #717f78",
"0 c #748274",
"q c #768576",
"w c #788778",
"e c #7a897a",
"r c #7b8b7c",
"t c #7e8d7e",
"y c #6e8c8a",
"u c #77938d",
"i c #b30000",
"p c Magenta",
"a c #809081",
"s c #829282",
"d c #859585",
"f c #869888",
"g c #899a89",
"h c #8b9c8b",
"j c #8d9e8d",
"k c #8fa18f",
"l c #82a19c",
"z c #87a49a",
"x c #93a593",
"c c #96a996",
"v c #95ab9c",
"b c #9aad9a",
"n c #9db19e",
"m c #9fb39f",
"M c #90b3ac",
"N c #a2b5a2",
"B c #a5baa5",
"V c #a9bda9",
"C c #adc3ae",
"Z c #adc7b4",
"A c #b5cbb5",
"S c #bbd3bd",
"D c #c2d9c3",
"F c None",
/* pixels */
"FFFFFFFFFFFFFFFFFFFFFFFFFFFFFFFFFFFFFFFFFFFFFFFFFFFFFFFFFFFFFFFF",
"FFFFFFFFFFFFFFFFFFFFFFFFFFFFFFFFFFFFFFFFFFFFFFFFFFFFFFFFFFFFFFFF",
"FFFFFFFFFFFFFFFFFFFFFFFFFFFFFFFFFFFFFFFFFFFFFFFFFFFFFFFFFFFFFFFF",
"FFFFFFFFFFFFFFFFFFFFFFFFFFFFFFFFFFFFFFFFFFFFFFFFFFFFFFFFFFFFFFFF",
"FFFFFFFFFFFFFFFFFFFFFFFFFFFFFFFFFFFFFFFFFFFFFFFFFFFFFFFFFFFFFFFF",
"FFFFFFFFFFFFFFFFFFFFFFFFFFFFFFFFFFFFFFFFFFFFFFFFFFFFFFFFFFFFFFFF",
"FFFFFFFFFFFFFFFFFFFFFFFFFFFFFFFFFFFFFFFFFFFFFFFFFFFFFFFFFFFFFFFF",
"FFFFFFFFFFFFFFFFFFFFFFFFFFFFFFFFFFFFFFFFFFFFFFFFFFFFFFFFFFFFFFFF",
"FFFFFFFFFFFFFFFFFFFFFFFFFFFFFFFFFFFFFFFFFFFFFFFFFFFFFFFFFFFFFFFF",
"FFFFFFFFFFFFFFFFFFFFFFFFFFFFFFFFFFFFFFFFFFFFFFFFFFFFFFFFFFFFFFFF",
"FFFFFFFFFFFFFFFFFFFFFFFFFFFFFFFFFFFFFFFFFFFFFFFFFFFFFFFFFFFFFFFF",
"FFFFFFFFFFFFFFFFFFFFFFFFFFnFFFFFFFFFFFFFFFFFFFFFFFFFFFFFFFFFFFFF",
"FFFFFFFFFFFFFFFFFFFFFFFFnmmmmFFFFFFFFFFFFFFFFFFFFFFFFFFFFFFFFFFF",
"FFFFFFFFFFFFFFFFFFFFFFmmnmmmmmmFFFFFFFFFFFFFFFFFFFFFFFFFFFFFFFFF",
"FFFFFFFFFFFFFFFFFFFFFmnvmmmmmmnnkFFFFFFFFFFFFFFFFFFFFFFFFFFFFFFF",
"FFFFFFFFFFFFFFFFFFFmmmmlmmmmmnmkkFFFFFFFFFFFFFFFFFFFFFFFFFFFFFFF",
"FFFFFFFFFFFFFFFFFcbnlnnnnnnvnkkkkFFFFFFFFFFFFFFFFFFFFFFFFFFFFFFF",
"FFFFFFFFFFFFFFFFc>>8>kuxcbnkkkkjkFFFFFFFFFFFFFFFFFFFFFFFFFFFFFFF",
"FFFFFFFFFFFFFFcb-%%>%khdkkfjjkkgkFFFFFFFFFFFFFFFFFFFFFFFFFFFFFFF",
"FFFFFFFFFFFFFb-== o%$fat0tajjtkdfFFFFFFFFFFFFFFFFFFFFFFFFFFFFFFF",
"FFFFFFFFFFFmnn<*$ oodeq8wrwgrkjkkFFFFFFFFFFFFFFFFFFFFFFFFFFFFFFF",
"FFFFFFFFFmnnlnzxddtta88q=w0twkdukFFFFFFFFFFFFFFFFFFFFFFFFFFFFFFF",
"FFFFFFFFmmmnccuhytqw541<0e00rykuhFFFFFFFFFFFFFFFFFFFFFFFFFFFFFFF",
"FFFFFFFF<nbncnbdrw5<5-5-445qqafgfhFFFFFFFFFFFFFFFFFFFFFFFFFFFFFF",
"FFFFFFFF<-=cgkgrq14415*515q58rfjhaFFFFFFFFFFFFFFFFFFFFFFFFFFFFFF",
"FFFFFFFFF===&kfq1555=45545:7qdgdjhFFFFFFFFFFFFFFFFFFFFFFFFFFFFFF",
"FFFFFFFFF<--==855-058<143w:r5gdjjjFFFFFFFFFFFFFFFFFFFFFFFFFFFFFF",
"FFFFFFFFF<<<-=f40<5848015550rejjjgFFFFFFFFFFFFFFFFFFFFFFFFFFFFFF",
"FFFFFFFFF<<-=-&w58115-4<315;ewdjjkFFFFFFFFFFFFFFFFFFFFFFFFFFFFFF",
"FFFFFFFFF<<--=&q85451115-5<85dhggjFFFFFFFFFFFFFFFFFFFFFFFFFFFFFF",
"FFFFFFFFFF<<*$&ew5-047-854557rxNNNBvFFFFFFFFFFFFFFFFFFFFFFFFFFFF",
"FFFFFFFFFF;--=&taw7<7155q0dkNzbbgkbbnVBFFFFFFFFFFFFFFFFFFFFFFFFF",
"FFFFFFFFFF<====*f5t:0w0e0xnCVxjaqqwafgbCFFFFFFFFFFFFFFFFFFFFFFFF",
"FFFFFFFFFF<--<<&dawt5a81kBCVbhtq43&=15akCFFFFFFFFFFFFFFFFFFFFFFF",
"FFFFFFFFFFF<<<<-dwrrahOrlCBbaa061-&=121aBAFFFFFFFFFFFFFFFFFFFFFF",
"FFFFFFFFFFF<<<<<kfwaa+<cAANmd:04<$*-2116nAFFFFFFFFFFFFFFFFFFFFFF",
"FFFFFFFFFFF<<<<<gdaa+O1gCVCnfq51$$&=1220VSFFFFFFFFFFFFFFFFFFFFFF",
"FFFFFFFFFFF<<<<<<kjf@+-anVCjtfd$&==$221lASFFFFFFFFFFFFFFFFFFFFFF",
"FFFFFFFFFFF<<<<<<fh@+@=1acxxgaqd#=<11-NADBFFFFFFFFFFFFFFFFFFFFFF",
"FFFFFFFFFFFF<<<<<k+@+@+=1afaaaeh=<1=NCSDbVFFFFFFFFFFFFFFFFFFFFFF",
"FFFFFFFFFFFF<<<<<@@@+@+1@<-4qq0ggxVASZnjnMFFFFFFFFFFFFFFFFFFFFFF",
"FFFFFFFFFFFF<;<<<@@@+++*-=@@$#18tdcxgwjbnFFFFFFFFFFFFFFFFFFFFFFF",
"FFFFFFFFFFFF<<<<<<@@.@@*<<&$$$.+$=8dgxxkcFFFFFFFFFFFFFFFFFFFFFFF",
"FFFFFFFFFFFFF<<<<<@@@@@@#-=$$$$-18adgudhFnBB1FFFFFFFFFFFFFFFFFFF",
"FFFFFFFFFFFFFF<<<<@@@@@1<&&$$@+$<5qe7qtBdjzBVCFFFFFFFFFFFFFFFFFF",
"FFFFFFFFFFFFFFF<<<@@@<<-$F&&#$$$-<14;5nF1egcBC1FFFFFFFFFFFFFFFFF",
"FFFFFFFFFFFFFFFFF<@@1;-@<11$@&$$$@$+-MCV@10ynCAVFFFFFFFFFFFFFFFF",
"FFFFFFFFFFFFFFFFF@<1<-$;;1;<@$++OO+.aVAACF1abVA1FFFFFFFFFFFFFFFF",
"FFFFFFFFFFFFFFFF<$221==2222<1&@O  Ot5cCAA$<tbVA1AFFFFFFFFFFFFFFF",
"FFFFFFFFFFFFFFFF1&2;;-$22211-1=+ .545anSS$<gnCA4AFFFFFFFFFFFFFFF",
"FFFFFFFFFFFFFFFF<1211<=22222<=jd54=<8txMS&rcBCS0CFFFFFFFFFFFFFFF",
"FFFFFFFFFFFFFFFFF1F1;1<=21;xccy81115qfnD=tlBCSFSFFFFFFFFFFFFFFFF",
"FFFFFFFFFFFFFFFFF11;xnB;27fjxcke555qtgN-@*BCA;DZFFFFFFFFFFFFFFFF",
"FFFFFFFFFFFFFFFFF14afc1;8eNgkxgaq809fj<--<S<DDDBFFFFFFFFFFFFFFFF",
"FFFFFFFFFFFFFFFFFF18CnkkNBVBbudgdtad<acBCS111DBFFFFFFFFFFFFFFFFF",
"FFFFFFFFFFFFFFFFFFF1Fi@jcmNBBNbzfthagNCASS11F;FFFFFFFFFFFFFFFFFF",
"FFFFFFFFFFFFFFFFFFFFFX@g1xbmNBBBnkBNMCAS-DFFFFFFFFFFFFFFFFFFFFFF",
"FFFFFFFFFFFFFFFFFFFFFX18rj11bmNBBNCZA1ADDDNFFFFFFFFFFFFFFFFFFFFF",
"FFFFFFFFFFFFFFFFFFFFFFF117ajcbn1;1CCZASZNqFFFFFFFFFFFFFFFFFFFFFF",
"FFFFFFFFFFFFFFFFFFFFFFFFF-F18rfuzxcxxkf0FFFFFFFFFFFFFFFFFFFFFFFF",
"FFFFFFFFFFFFFFFFFFFFFFFFFFFFF$@=F5$FFFFFFFFFFFFFFFFFFFFFFFFFFFFF",
"FFFFFFFFFFFFFFFFFFFFFFFFFFFFFFFFFFFFFFFFFFFFFFFFFFFFFFFFFFFFFFFF",
"FFFFFFFFFFFFFFFFFFFFFFFFFFFFFFFFFFFFFFFFFFFFFFFFFFFFFFFFFFFFFFFF",
"FFFFFFFFFFFFFFFFFFFFFFFFFFFFFFFFFFFFFFFFFFFFFFFFFFFFFFFFFFFFFFFF"
};
