/* XPM */
static char *magick[] = {
/* columns rows colors chars-per-pixel */
"64 64 65 1",
"  c #2d2d2d",
". c #393939",
"X c #581b16",
"o c #591b17",
"O c #5a1b17",
"+ c #5b1b17",
"@ c #5b1c17",
"# c #5c1c17",
"$ c #5d1c18",
"% c #5e1c18",
"& c #5e1d18",
"* c #5f1d18",
"= c #601d18",
"- c #611d19",
"; c #621e19",
": c #631e19",
"> c #641e19",
", c #651e1a",
"< c #661f1a",
"1 c #68201b",
"2 c #6a201b",
"3 c #6e211c",
"4 c #72231d",
"5 c #7a251f",
"6 c Gray25",
"7 c #434343",
"8 c Gray28",
"9 c Gray29",
"0 c Gray32",
"q c #565656",
"w c #585858",
"e c #5d5d5d",
"r c #626262",
"t c #656565",
"y c Gray40",
"u c #686868",
"i c Gray42",
"p c Gray43",
"a c #717171",
"s c #727272",
"d c #747474",
"f c #7b7b7b",
"g c Gray",
"h c #812721",
"j c #822721",
"k c #8e2b24",
"l c Magenta",
"z c #818181",
"x c #898989",
"c c Gray55",
"v c Gray56",
"b c Gray57",
"n c #939393",
"m c #959595",
"M c Gray60",
"N c Gray62",
"B c #a2a2a2",
"V c #aaaaaa",
"C c Gray67",
"Z c Gray68",
"A c #b2b2b2",
"S c #b4b4b4",
"D c #cecece",
"F c #d8d8d8",
"G c None",
/* pixels */
"GGGGGGGGGGGGGGGGGGGGGGGGGGGGGGGGGGGGGGGGGGGGGGGGGGGGGGGGGGGGGGGG",
"GGGGGGGGGGGGGGGGGGGGGGGGGGGGGGGGGGGGGGGGGGGGGGGGGGGGGGGGGGGGGGGG",
"GGGGGGGGGGGGGGGGGGGGGGGGGGGGGGGGGGGGGGGGGGGGGGGGGGGGGGGGGGGGGGGG",
"GGGGGGGGGGGGGGGGGGGGGGGGGGGGGGGGGGGGGGGGGGGGGGGGGGGGGGGGGGGGGGGG",
"GGGGGGGGGGGGGGGGGGGGGGGGGGGGGGGGGGGGGGGGGGGGGGGGGGGGGGGGGGGGGGGG",
"GGGGGGGGGGGGGGGGGGGGGGGGGGGGGGGGGGGGGGGGGGGGGGGGGGGGGGGGGGGGGGGG",
"GGGGGGGGGGGGGGGGGGGGGGGGGGGGGGGGGGGGGGGGGGGGGGGGGGGGGGGGGGGGGGGG",
"GGGGGGGGGGGGGGGGGGGGGGGGGGGGGGGGGGGGGGGGGGGGGGGGGGGGGGGGGGGGGGGG",
"GGGGGGGGGGGGGGGGGGGGGGGGGGGGGGGGGGGGGGGGGGGGGGGGGGGGGGGGGGGGGGGG",
"GGGGGGGGGGGGGGGGGGGGGGGGGGGGGGGGGGGGGGGGGGGGGGGGGGGGGGGGGGGGGGGG",
"GGGGGGGGGGGGGGGGGGGGGGGGGGGGGGGGGGGGGGGGGGGGGGGGGGGGGGGGGGGGGGGG",
"GGGGGGGGGGGGGGGGGGGGGGGGGGGGGGGGGGGGGGGGGGGGGGGGGGGGGGGGGGGGGGGG",
"GGGGGGGGGGGGGGGGGGGGGGGGGGGGGGGGGGGGGGGGGGGGGGGGGGGGGGGGGGGGGGGG",
"GGGGGGGGGGGGGGGGGGGGGGGGGGGGGGGGGGGGGGGGGGGGGGGGGGGGGGGGGGGGGGGG",
"GGGGGGGGGGGGGGGGGGGGGGGGGGGGGGGGGGGGGGGGGGGGGGGGGGGGGGGGGGGGGGGG",
"GGGGGGGGGGGGGGGGGGGGGGGGGGGGGGGGGGGGGGGGGGGGGGGGGGGGGGGGGGGGGGGG",
"GGGGGGGGGGGGGG8zcGGGGGGGGGGGGGGGGGGGGGGGGGGGGGGGGGGygcGGGGGGGGGG",
"GGGGGGGGGGGGG8C.cnnGGGGGGGGGGGGGGGGGGGGGGGGGGGGGGyysgwcpGGGGGGGG",
"GGGGGGGGGGGG77DgncnGGGGGGGGGGGGGGGGGGGGGGGGGGGGGGyysfcBnGGGGGGGG",
"GGGGGGGGGGGGyy78BNgGGGGGGGGGGGGGGGGGGGGGGGGGGGGGG8ypdcB.GGGGGGGG",
"GGGGGGGGGGGGy9dcnnnkkkkkkkkkkkkkkkkkkkkkkkkkkkGGG9uwFfmnGGGGGGGG",
"GGGGGGGGGGGG7ugxnMchhhhhhhhhhhhhhhhhhhhhhhhhhhGGG7yus0nMGGGGGGGG",
"GGGGGGGGGGGG7ug0uwy555555555555555555555555555AAA0qrdzBMGGGGGGGG",
"GGGGGGGGGGGGrpCCCCC444444444444444444444444444SSSSSSSzDcGGGGGGGG",
"GGGGGGGGGGGG7rCCCCC333333333333333333333333333AAAAAAAAqxGGGGGGGG",
"GGGGGGGGGGGGGuCCCCC222222222222222222222222222ZZZZZZZZsGGGGGGGGG",
"GGGGGGGGGGGGGGw sss211121122111222211112112221ssssss eGGGGGGGGGG",
"GGGGGGGGGGGGGGGGGGG<<<<<<<<<<<<<<<<<<<<<<<<<<<GGGGGGGGGGGGGGGGGG",
"GGGGGGGGGGGGGGGGGGGG<<<<<<<<<<<<<<<<<<<<<<<<<<GGGGGGGGGGGGGGGGGG",
"GGGGGGGGGGGGGGGGGGGG<<<<<;<<;<<<<;<<;<<;<<<;<<GGGGGGGGGGGGGGGGGG",
"GGGGGGGGGGGGGGGGGGGG;;;;;;;;;;;;;;;;;;;;;;;;;;GGGGGGGGGGGGGGGGGG",
"GGGGGGGGGGGGGGGGGGGG;;;;;;;;;;;;;;;;;;;;;;;;;;GGGGGGGGGGGGGGGGGG",
"GGGGGGGGGGGGGGGGGGGG;;;;;;;;;;;;;;;;;;;;;;;;;;GGGGGGGGGGGGGGGGGG",
"GGGGGGGGGGGGGGGGGGGG;*;*;*;*;*;**;*;;**;;***;GGGGGGGGGGGGGGGGGGG",
"GGGGGGGGGGGGGGGGGGGG*;*;*;*;*;*;;*;*;;;**;;**GGGGGGGGGGGGGGGGGGG",
"GGGGGGGGGGGGGGGGGGGG*************************GGGGGGGGGGGGGGGGGGG",
"GGGGGGGGGGGGGGGGGGGG*************************GGGGGGGGGGGGGGGGGGG",
"GGGGGGGGGGGGGGGGGGGG*************************GGGGGGGGGGGGGGGGGGG",
"GGGGGGGGGGGGGGGGGGGG*************************GGGGGGGGGGGGGGGGGGG",
"GGGGGGGGGGGGGGGGGGGG*@*@**@**@*@*@*@**@**@***GGGGGGGGGGGGGGGGGGG",
"GGGGGGGGGGGGGGGGGGGG**@***@@*@**@**@**@@**@**GGGGGGGGGGGGGGGGGGG",
"GGGGGGGGGGGGGGGGGGGG**@**********@******@*@**GGGGGGGGGGGGGGGGGGG",
"GGGGGGGGGGGGGGGGGGGG##@@####@#####@@######@@#GGGGGGGGGGGGGGGGGGG",
"GGGGGGGGGGGGGGGGGGGG########@@#####@#########GGGGGGGGGGGGGGGGGGG",
"GGGGGGGGGGGGGGGGGGGG#########################GGGGGGGGGGGGGGGGGGG",
"GGGGGGGGGGGGGGGGGGGG#########################GGGGGGGGGGGGGGGGGGG",
"GGGGGGGGGGGGGGGGGGGG@@@@@@@@@@@@@@@@@@@@@@@@@GGGGGGGGGGGGGGGGGGG",
"GGGGGGGGGGGGGGGGGGGGG@@@@@@@@@@#@@@@@@@@@@@@@GGGGGGGGGGGGGGGGGGG",
"GGGGGGGGGGGGGGGGGGGGGXX##X####XX###X###XX###XGGGGGGGGGGGGGGGGGGG",
"GGGGGGGGGGGGGGGGGGGGGX##X##XX###XX##XX####X#GGGGGGGGGGGGGGGGGGGG",
"GGGGGGGGGGGGGGGGGGGGGXXXX#XXX##XXXX#XXX#XXXXGGGGGGGGGGGGGGGGGGGG",
"GGGGGGGGGGGGGGGGGGGGGXX#XXX##XXXX##XX##X#XXXGGGGGGGGGGGGGGGGGGGG",
"GGGGGGGGGGGGGGGGGGGGGXXX#XX#XXX#X#XXX#XXXX#XGGGGGGGGGGGGGGGGGGGG",
"GGGGGGGGGGGGGGGGGGGGGX#XX##XX##X#XX##XX#X##XGGGGGGGGGGGGGGGGGGGG",
"GGGGGGGGGGGGGGGGGGGGGXXXXXXXXXXXXXXXXXXXXXXXGGGGGGGGGGGGGGGGGGGG",
"GGGGGGGGGGGGGGGGGGGGGXXXXXXXXXXXXXXXXXXXXXXXGGGGGGGGGGGGGGGGGGGG",
"GGGGGGGGGGGGGGGGGGGGGXXXXXXXXXXXXXXXXXXXXXXXGGGGGGGGGGGGGGGGGGGG",
"GGGGGGGGGGGGGGGGGGGGGXXXXXXXXXXXXXXXXXXXXXXXGGGGGGGGGGGGGGGGGGGG",
"GGGGGGGGGGGGGGGGGGGGGXXXXXXXXXXXXXXXXXXXXXXXGGGGGGGGGGGGGGGGGGGG",
"GGGGGGGGGGGGGGGGGGGGGGGGGGGGGGGGGGGGGGGGGGGGGGGGGGGGGGGGGGGGGGGG",
"GGGGGGGGGGGGGGGGGGGGGGGGGGGGGGGGGGGGGGGGGGGGGGGGGGGGGGGGGGGGGGGG",
"GGGGGGGGGGGGGGGGGGGGGGGGGGGGGGGGGGGGGGGGGGGGGGGGGGGGGGGGGGGGGGGG",
"GGGGGGGGGGGGGGGGGGGGGGGGGGGGGGGGGGGGGGGGGGGGGGGGGGGGGGGGGGGGGGGG",
"GGGGGGGGGGGGGGGGGGGGGGGGGGGGGGGGGGGGGGGGGGGGGGGGGGGGGGGGGGGGGGGG"
};
