/* XPM */
static char *magick[] = {
/* columns rows colors chars-per-pixel */
"64 64 65 1",
"  c #2f2f2f",
". c Gray20",
"X c #353535",
"o c Gray21",
"O c #373737",
"+ c Gray22",
"@ c #393939",
"# c #3a3a3a",
"$ c Gray23",
"% c #3c3c3c",
"& c Gray24",
"* c #3e3e3e",
"= c #3f3f3f",
"- c Gray25",
"; c #414141",
": c Gray26",
"> c #434343",
", c #444444",
"< c Gray27",
"1 c #464646",
"2 c Gray28",
"3 c #484848",
"4 c #494949",
"5 c Gray29",
"6 c #4b4b4b",
"7 c #4c4c4c",
"8 c Gray30",
"9 c #4e4e4e",
"0 c Gray31",
"q c #515151",
"w c Gray32",
"e c #555555",
"r c #565656",
"t c Gray35",
"y c #5b5b5b",
"u c #5d5d5d",
"i c #5f5f5f",
"p c Gray38",
"a c Gray39",
"s c #646464",
"d c #656565",
"f c #676767",
"g c #686868",
"h c #6a6a6a",
"j c #6c6c6c",
"k c #6f6f6f",
"l c #717171",
"z c Gray45",
"x c #767676",
"c c #797979",
"v c #7b7b7b",
"b c Magenta",
"n c #818181",
"m c Gray52",
"M c Gray54",
"N c #8d8d8d",
"B c Gray57",
"V c #959595",
"C c #9a9a9a",
"Z c Gray64",
"A c Gray72",
"S c #bebebe",
"D c #cacaca",
"F c Gray87",
"G c None",
/* pixels */
"GGGGGGGGGGGGGGGGGGGGGGGGGGGGGGGGGGGGGGGGGGGGGGGGGGGGGGGGGGGGGGGG",
"GGGGGGGGGGGGGGGGGGGGGGGGGGGGGGGGGGGGGGGGGGGGGGGGGGGGGGGGGGGGGGGG",
"GGGGGGGGGGGGGGGGGGGGGGGGGGGGGGGGGGGGGGGGGGGGGGGGGGGGGGGGGGGGGGGG",
"GGGGGGGGGGGGGGGGGGGGGGGGGGGGGGGGGGGGGGGGGGGGGGGGGGGGGGGGGGGGGGGG",
"GGGGGGGGGGGGGGGGGGGGGGGGGGGGGGGGGGGGGGGGGGGGGGGGGGGGGGGGGGGGGGGG",
"GGGGGGGGGGGGGGGGGGGGGGGGGGGGGGGGGGGGGGGGGGGGGGGGGGGGGGGGGGGGGGGG",
"GGGGGGGGGGGGGGGGGGGGGGGGGGGGGGGGGGGGGGGGGGGGGGGGGGGGGGGGGGGGGGGG",
"GGGGGGGGGGGGGGGGGGGGGGGGGGGGGGGGG662GGGGGGGGGGGGGGGGGGGGGGGGGGGG",
"GGGGGGGGGGGGGGGGGGGGGGGGGGGGGG2i77222 GGGGGGGGGGGGGGGGGGGGGGGGGG",
"GGGGGGGGGGGGGGGGGGGGGGGGGGGGGdee22q6--GGGGGGGGGGGGGGGGGGGGGGGGGG",
"GGGGGGGGGGGGGGGGGGGGGGGGGGGze7662O.. .-GGGGGGGGGGGGGGGGGGGGGGGGG",
"GGGGGGGGGGGGGGGGGGGGGGGGnMSz7722Bxdq=OOikpGGGGGGGGGGGGGGGGGGGGGG",
"GGGGGGGGGGGGGGGGGGGGGqdkzSSp72 $nzqki$.dd6yGGGGGGGGGGGGGGGGGGGGG",
"GGGGGGGGGGGGGGGGGGGGc-.OcFyk-$hiMnhdpeO-6kikdGGGGGGGGGGGGGGGGGGG",
"GGGGGGGGGGGGGGGGGkScczBZDFqq$cphhxhnA2O66q6-22qGGGGGGGGGGGGGGGGG",
"GGGGGGGGGGGGGGGGGxkccckkAZq2zkhhkhpFBy$6-22226pGGGGGGGGGGGGGGGGG",
"GGGGGGGGGGGGGGGGcxzhyicSxC77pddhhhpdn66dpiipddpiGGGGGGGGGGGGGGGG",
"GGGGGGGGGGGGGGGcSxkckxkkppq zzhddzdhizihiqipd6ydpGGGGGGGGGGGGGGG",
"GGGGGGGGGGGGGGGnczSzzdyid6- kcdzkkdpzpphhdhk77772GGGGGGGGGGGGGGG",
"GGGGGGGGGGGGGGGnikzhcdqxy7OO67q626272277q676q7q7GGGGGGGGGGGGGGGG",
"GGGGGGGGGGGGGGGzSk77qzzzS7OO$7q6626q2667$.677667GGGGGGGGGGGGGGGG",
"GGGGGGGGGGGGGGGcycmnknNNd2zzcd67xq2666q2777277=$GGGGGGGGGGGGGGGG",
"GGGGGGGGGGGGGGGGSkcnkCkk$kkpdy2$kdm==kpdppMSki==GGGGGGGGGGGGGGGG",
"GGGGGGGGGGGGGGGGchxVmxSyiczkNi6=pkhp-=$hhhddM=-GGGGGGGGGGGGGGGGG",
"GGGGGGGGGGGGGGGGGzhixd==hdkNhd=2hhdChhy$$$OOO-GGGGGGGGGGGGGGGGGG",
"GGGGGGGGGGGGGGGGGGxiyy7=zpcVpd-=kddMVhi===OOO-GGGGGGGGGGGGGGGGGG",
"GGGGGGGGGGGGGGGGGGyei7y----6-6$O2226=-6-=$=O$-GGGGGGGGGGGGGGGGGG",
"GGGGGGGGGGGGGGGGGGhpqyqq7222-2=-O---=-2$=$-$=-GGGGGGGGGGGGGGGGGG",
"GGGGGGGGGGGGGGGGGGkek2772-2-7---2-2$$====$2$=-GGGGGGGGGGGGGGGGGG",
"GGGGGGGGGGGGGGGGGG2ihz2626266-2=2--2--O$O$.$==GGGGGGGGGGGGGGGGGG",
"GGGGGGGGGGGGGGGGGGkqxkpy=-72722=62-2==$$$=$=$-GGGGGGGGGGGGGGGGGG",
"GGGGGGGGGGGGGGGGGGGdhdhy=-662=-2--2-2-$-O$.=$$GGGGGGGGGGGGGGGGGG",
"GGGGGGGGGGGGGGGGGGGyiiz7-722222-$-2-2==$OO.$$OGGGGGGGGGGGGGGGGGG",
"GGGGGGGGGGGGGGGGGGG6qydd=26q2226=22=6==$O$O$==GGGGGGGGGGGGGGGGGG",
"GGGGGGGGGGGGGGGGGGGzqphy-2626--2.=---=O=O..$O$GGGGGGGGGGGGGGGGGG",
"GGGGGGGGGGGGGGGGGGGh6iiiq--66672O2-6$6$=$$O$2=GGGGGGGGGGGGGGGGGG",
"GGGGGGGGGGGGGGGGGGGk2yii-$2-26=-$-=$==62=OO$=-GGGGGGGGGGGGGGGGGG",
"GGGGGGGGGGGGGGGGGGGGyiype=62-2--$=-O-=-=O.$=O2GGGGGGGGGGGGGGGGGG",
"GGGGGGGGGGGGGGGGGGGGdiee-O626626$-2=$$2=O$=O=-GGGGGGGGGGGGGGGGGG",
"GGGGGGGGGGGGGGGGGGGGikiy7=622--6$$-=$-$$$$.$$-GGGGGGGGGGGGGGGGGG",
"GGGGGGGGGGGGGGGGGGGGiiye6--6222-$=--$=$$O.O$==GGGGGGGGGGGGGGGGGG",
"GGGGGGGGGGGGGGGGGGGGhyyyq226-2-2$=-=-==-$$.O$qGGGGGGGGGGGGGGGGGG",
"GGGGGGGGGGGGGGGGGGGG2iieq7722-6-2---===O-O$==6GGGGGGGGGGGGGGGGGG",
"GGGGGGGGGGGGGGGGGGGGNdideq762--2-6-=-=$$$$O==-GGGGGGGGGGGGGGGGGG",
"GGGGGGGGGGGGGGGGGGGNBdyeqq66267272-===$$O$=$$=GGGGGGGGGGGGGGGGGG",
"GGGGGGGGGGGGGGGGGGGCmiyie7q27272=2--=-$=O$$O$6GGGGGGGGGGGGGGGGGG",
"GGGGGGGGGGGGGGGGGGGCCyyhqq762-2=2=-$-===..O=$2GGGGGGGGGGGGGGGGGG",
"GGGGGGGGGGGGGGGGGGGMMpyhe726-2-22-2--==O=.$=66GGGGGGGGGGGGGGGGGG",
"GGGGGGGGGGGGGGGGGGGmCpzkqy222==2--6-===$$=$=qqGGGGGGGGGGGGGGGGGG",
"GGGGGGGGGGGGGGGGGGGG6Bkkqq7266---=2-$-$=$-267=GGGGGGGGGGGGGGGGGG",
"GGGGGGGGGGGGGGGGGGGGiZCcyeq762622-62$=-==--6=-GGGGGGGGGGGGGGGGGG",
"GGGGGGGGGGGGGGGGGGGGGCNmyq672-=722-6O=$O2q-$=GGGGGGGGGGGGGGGGGGG",
"GGGGGGGGGGGGGGGGGGGGGpVVNq676-$-2-==$=O727.-GGGGGGGGGGGGGGGGGGGG",
"GGGGGGGGGGGGGGGGGGGGGGey66CZmM2q-667667==$GGGGGGGGGGGGGGGGGGGGGG",
"GGGGGGGGGGGGGGGGGGGGGGGGq2--BZBM7M66q-=$$-GGGGGGGGGGGGGGGGGGGGGG",
"GGGGGGGGGGGGGGGGGGGGGGGG7q27-222$.2-=2-$GGGGGGGGGGGGGGGGGGGGGGGG",
"GGGGGGGGGGGGGGGGGGGGGGGGGGG67622-=6-6O$GGGGGGGGGGGGGGGGGGGGGGGGG",
"GGGGGGGGGGGGGGGGGGGGGGGGGGGGGGGGGGGGGGGGGGGGGGGGGGGGGGGGGGGGGGGG",
"GGGGGGGGGGGGGGGGGGGGGGGGGGGGGGGGGGGGGGGGGGGGGGGGGGGGGGGGGGGGGGGG",
"GGGGGGGGGGGGGGGGGGGGGGGGGGGGGGGGGGGGGGGGGGGGGGGGGGGGGGGGGGGGGGGG",
"GGGGGGGGGGGGGGGGGGGGGGGGGGGGGGGGGGGGGGGGGGGGGGGGGGGGGGGGGGGGGGGG",
"GGGGGGGGGGGGGGGGGGGGGGGGGGGGGGGGGGGGGGGGGGGGGGGGGGGGGGGGGGGGGGGG",
"GGGGGGGGGGGGGGGGGGGGGGGGGGGGGGGGGGGGGGGGGGGGGGGGGGGGGGGGGGGGGGGG",
"GGGGGGGGGGGGGGGGGGGGGGGGGGGGGGGGGGGGGGGGGGGGGGGGGGGGGGGGGGGGGGGG"
};
