/* XPM */
static char * brick_wall_v_xpm[] = {
"64 64 294 2",
"  	c None",
". 	c #776259",
"+ 	c #736058",
"@ 	c #705E54",
"# 	c #75615A",
"$ 	c #715E55",
"% 	c #6F5D53",
"& 	c #695951",
"* 	c #725F58",
"= 	c #76635B",
"- 	c #76655B",
"; 	c #5B4B42",
"> 	c #5E4F46",
", 	c #5F514B",
"' 	c #5D4D43",
") 	c #645049",
"! 	c #66534B",
"~ 	c #66554B",
"{ 	c #61524B",
"] 	c #65554E",
"^ 	c #67564D",
"/ 	c #6A5950",
"( 	c #706158",
"_ 	c #54443C",
": 	c #53453C",
"< 	c #4E453B",
"[ 	c #4E413B",
"} 	c #4E443B",
"| 	c #51443B",
"1 	c #56423C",
"2 	c #574943",
"3 	c #51463D",
"4 	c #51453C",
"5 	c #55453C",
"6 	c #4E3E36",
"7 	c #4E4037",
"8 	c #5D473D",
"9 	c #5E4941",
"0 	c #6A574E",
"a 	c #6E5B51",
"b 	c #6E5C53",
"c 	c #63544D",
"d 	c #6A5A52",
"e 	c #755D53",
"f 	c #715D53",
"g 	c #756157",
"h 	c #7F695F",
"i 	c #5B4C43",
"j 	c #51433C",
"k 	c #614B42",
"l 	c #50423C",
"m 	c #654D43",
"n 	c #5A4D48",
"o 	c #594F4A",
"p 	c #5C4C43",
"q 	c #645349",
"r 	c #67574D",
"s 	c #65544B",
"t 	c #67564C",
"u 	c #6D594F",
"v 	c #68564C",
"w 	c #69584E",
"x 	c #504037",
"y 	c #56463D",
"z 	c #5B4941",
"A 	c #544741",
"B 	c #4F423D",
"C 	c #564D49",
"D 	c #624D45",
"E 	c #6B554B",
"F 	c #594B45",
"G 	c #594B43",
"H 	c #5E4E44",
"I 	c #66514B",
"J 	c #66544B",
"K 	c #64544B",
"L 	c #6B584E",
"M 	c #705E55",
"N 	c #6C5D55",
"O 	c #665D59",
"P 	c #56463E",
"Q 	c #56473F",
"R 	c #5C463D",
"S 	c #604941",
"T 	c #65504A",
"U 	c #625148",
"V 	c #6B5B53",
"W 	c #4E423B",
"X 	c #51443E",
"Y 	c #594A44",
"Z 	c #605550",
"` 	c #61554F",
" .	c #65554B",
"..	c #5D504B",
"+.	c #62534B",
"@.	c #50413B",
"#.	c #60514B",
"$.	c #61514B",
"%.	c #75594B",
"&.	c #755F57",
"*.	c #5D4B41",
"=.	c #605046",
"-.	c #67534D",
";.	c #6A5750",
">.	c #51433D",
",.	c #514540",
"'.	c #584E4A",
").	c #6C584E",
"!.	c #68554B",
"~.	c #705D53",
"{.	c #544B46",
"].	c #5C504A",
"^.	c #615046",
"/.	c #5E5048",
"(.	c #605651",
"_.	c #69574E",
":.	c #61524C",
"<.	c #705F56",
"[.	c #6D6059",
"}.	c #604F46",
"|.	c #66524B",
"1.	c #664F45",
"2.	c #675148",
"3.	c #65544D",
"4.	c #6D5B51",
"5.	c #736157",
"6.	c #79695F",
"7.	c #574A45",
"8.	c #5C4B43",
"9.	c #664E44",
"0.	c #6A5951",
"a.	c #68584F",
"b.	c #69574D",
"c.	c #6D5950",
"d.	c #6E5D55",
"e.	c #56453E",
"f.	c #67554B",
"g.	c #6D554B",
"h.	c #63524B",
"i.	c #6F5C52",
"j.	c #715F56",
"k.	c #60524C",
"l.	c #634F49",
"m.	c #64514B",
"n.	c #68564E",
"o.	c #66554C",
"p.	c #5E5551",
"q.	c #5F524D",
"r.	c #6E5A50",
"s.	c #715F55",
"t.	c #594941",
"u.	c #6D5C53",
"v.	c #6C5C54",
"w.	c #574842",
"x.	c #5A4C46",
"y.	c #60524B",
"z.	c #69544D",
"A.	c #6C594F",
"B.	c #726056",
"C.	c #4E433A",
"D.	c #53483E",
"E.	c #5F4E44",
"F.	c #6C5950",
"G.	c #665851",
"H.	c #695850",
"I.	c #5F4D43",
"J.	c #635147",
"K.	c #726057",
"L.	c #76655C",
"M.	c #816D63",
"N.	c #584D48",
"O.	c #594D47",
"P.	c #5E4E45",
"Q.	c #6C564D",
"R.	c #6D574D",
"S.	c #604E45",
"T.	c #635349",
"U.	c #5F5049",
"V.	c #615049",
"W.	c #72594D",
"X.	c #795F52",
"Y.	c #62514B",
"Z.	c #67524C",
"`.	c #615651",
" +	c #5F5551",
".+	c #695D58",
"++	c #6F635D",
"@+	c #54413B",
"#+	c #564540",
"$+	c #665349",
"%+	c #665850",
"&+	c #5F4F47",
"*+	c #644F47",
"=+	c #685147",
"-+	c #6B584F",
";+	c #6D564C",
">+	c #735F55",
",+	c #5C4C46",
"'+	c #725C53",
")+	c #735D53",
"!+	c #6B5A51",
"~+	c #6C544B",
"{+	c #57473E",
"]+	c #58483F",
"^+	c #60534B",
"/+	c #665D58",
"(+	c #655750",
"_+	c #746059",
":+	c #79645C",
"<+	c #5E534E",
"[+	c #625751",
"}+	c #705F55",
"|+	c #706057",
"1+	c #756358",
"2+	c #7E6657",
"3+	c #79665C",
"4+	c #7A685E",
"5+	c #76625B",
"6+	c #77645C",
"7+	c #74645A",
"8+	c #50453C",
"9+	c #56483E",
"0+	c #66564E",
"a+	c #6B5B52",
"b+	c #6E5C52",
"c+	c #6C5B51",
"d+	c #5D514C",
"e+	c #5C4F4A",
"f+	c #5B4E47",
"g+	c #5B483F",
"h+	c #654E44",
"i+	c #6B5951",
"j+	c #5B4840",
"k+	c #574E4A",
"l+	c #64554D",
"m+	c #62534D",
"n+	c #605450",
"o+	c #756359",
"p+	c #544941",
"q+	c #6C5951",
"r+	c #554741",
"s+	c #5D4E48",
"t+	c #67524B",
"u+	c #554841",
"v+	c #6B5A52",
"w+	c #745D53",
"x+	c #745F55",
"y+	c #65514B",
"z+	c #6B5850",
"A+	c #665C58",
"B+	c #6C574E",
"C+	c #7E6A61",
"D+	c #7F6B61",
"E+	c #7B685E",
"F+	c #79685E",
"G+	c #76675D",
"H+	c #6E5B52",
"I+	c #716259",
"J+	c #665B55",
"K+	c #53433A",
"L+	c #4E3E35",
"M+	c #4F3F36",
"N+	c #4D3D34",
"O+	c #50443F",
"P+	c #4E4039",
"Q+	c #5E504A",
"R+	c #56443E",
"S+	c #574A44",
"T+	c #5C4D45",
"U+	c #564740",
"V+	c #4E433B",
"W+	c #50463C",
"X+	c #53483F",
"Y+	c #675851",
"Z+	c #72574B",
"`+	c #6D5549",
" @	c #5D4F49",
".@	c #594841",
"+@	c #685B54",
"@@	c #644E45",
"#@	c #66574F",
"$@	c #6E5E55",
"%@	c #634F46",
"&@	c #695750",
"*@	c #6F5F56",
"=@	c #624C43",
"-@	c #5F4F45",
";@	c #72584B",
">@	c #71594D",
",@	c #67544D",
"'@	c #50443B",
")@	c #63534C",
"!@	c #746056",
"~@	c #564841",
". + @ # $ % % % % % % & * = - - ; > , ' ) ! ~ ~ { ] % & ^ / ( ( . + @ # $ % % % % % % & * = - - ; > , ' ) ! ~ ~ { ] % & ^ / ( ( ",
"_ : < [ } | 1 2 3 4 5 [ 6 7 < < 8 9 , , 0 a b , , c d e f g h h _ : < [ } | 1 2 3 4 5 [ 6 7 < < 8 9 , , 0 a b , , c d e f g h h ",
"' i 2 [ [ j 5 5 k 9 l m n o , , p ' ' ' q r & , s ~ t u v w % % ' i 2 [ [ j 5 5 k 9 l m n o , , p ' ' ' q r & , s ~ t u v w % % ",
"6 x y 2 p z 1 2 2 A B C D E - - F G H I J K , , 0 L ^ ( M N O O 6 x y 2 p z 1 2 2 A B C D E - - F G H I J K , , 0 L ^ ( M N O O ",
"P Q 2 2 R S T 5 U K , , 0 V O O W X Y ~ Z `  .C ..+.t % % g h h P Q 2 2 R S T 5 U K , , 0 V O O W X Y ~ Z `  .C ..+.t % % g h h ",
"@.A #.I $., , C .., { %.&.+ % % *.=.~ ~ ~ K #.I $.+.t & -.;.( ( @.A #.I $., , C .., { %.&.+ % % *.=.~ ~ ~ K #.I $.+.t & -.;.( ( ",
">.,.'.~ ).!.H , , +.~ ~ ).~.- - {.].t u ^./.(.u u _.:.u <.[.O O >.,.'.~ ).!.H , , +.~ ~ ).~.- - {.].t u ^./.(.u u _.:.u <.[.O O ",
"p }.|.~ 1.2.d e 3.+.~ ~ 4.5.6.6.7.8.9.u 0.a.~ ' q b.c.& & d.- - p }.|.~ 1.2.d e 3.+.~ ~ 4.5.6.6.7.8.9.u 0.a.~ ' q b.c.& & d.- - ",
">.e.9.~ { +.f.g.h.c 0.u i.j.# # p ' H ~ ~ w % % b.K k.& b 5.6.6.>.e.9.~ { +.f.g.h.c 0.u i.j.# # p ' H ~ ~ w % % b.K k.& b 5.6.6.",
"l.m., C n.L o.p.q.+.t % r.s.6.6.P t.k.& b u.& I I m.k.& & v.( ( l.m., C n.L o.p.q.+.t % r.s.6.6.P t.k.& b u.& I I m.k.& & v.( ( ",
"w.x.y.~ |.z.A., s ~ t & b B.- - C.D.E.%.F.G.(.u u _.y.~ H.v.( ( w.x.y.~ |.z.A., s ~ t & b B.- - C.D.E.%.F.G.(.u u _.y.~ H.v.( ( ",
"I.J.u u v ~ t % r.F.d e K.L.M.M.N.O.P.& Q.R.u I S.T.% % b.w % % I.J.u u v ~ t % r.F.d e K.L.M.M.N.O.P.& Q.R.u I S.T.% % b.w % % ",
"U.V.m ' q ~ t % b.K k.& W.X.h h V.Y.Z.& `.p. +, , +.t % .+++M.M.U.V.m ' q ~ t % b.K k.& W.X.h h V.Y.Z.& `.p. +, , +.t % .+++M.M.",
"@+#+'.u u F.H.m $+~ t & ^ %+O O w.&+F.p.*+=+u u 0.-+;+u u >+h h @+#+'.u u F.H.m $+~ t & ^ %+O O w.&+F.p.*+=+u u 0.-+;+u u >+h h ",
"2 ,+Z.& '+)+% ~ ~ ~ ~ , !+j.# # ~+E o.p.V i.A., s w @ ( V d.- - 2 ,+Z.& '+)+% ~ ~ ~ ~ , !+j.# # ~+E o.p.V i.A., s w @ ( V d.- - ",
"{+]+' ' ' ^+/+~ { (+( % _+:+h h <+[+& & ^ r d % % j.# % % % % % {+]+' ' ' ^+/+~ { (+( % _+:+h h <+[+& & ^ r d % % j.# % % % % % ",
"I.=.t u v w % u 0.a.v e f }+( ( |+1+2+h 3+4+M.- 5+6+6.- - 7+( ( I.=.t u v w % u 0.a.v e f }+( ( |+1+2+h 3+4+M.- 5+6+6.- - 7+( ( ",
"8+9+m ' 0+a+b+' U.] % u v c+- - . + @ # $ % % % % % % & * = - - 8+9+m ' 0+a+b+' U.] % u v c+- - . + @ # $ % % % % % % & * = - - ",
"5 p & ~ { Y.Z.% d+e+Z.& & v.( ( _ : < [ } | 1 2 3 4 5 [ 6 7 < < 5 p & ~ { Y.Z.% d+e+Z.& & v.( ( _ : < [ } | 1 2 3 4 5 [ 6 7 < < ",
"f+, , ' ' > , , s ~ t % % }+( ( ' i 2 [ [ j 5 5 k 9 l m n o , , f+, , ' ' > , , s ~ t % % }+( ( ' i 2 [ [ j 5 5 k 9 l m n o , , ",
"P g+h+, s K y.~ H.i+r.% % % % % 6 x y 2 p z 1 2 2 A B C D E - - P g+h+, s K y.~ H.i+r.% % % % % 6 x y 2 p z 1 2 2 A B C D E - - ",
"8 j+k+p.l+J Z.& m+U.P.& F.V O O P Q 2 2 R S T 5 U K , , 0 V O O 8 j+k+p.l+J Z.& m+U.P.& F.V O O P Q 2 2 R S T 5 U K , , 0 V O O ",
"P Q Y I n+` t u u L t u i.o+M.M.@.A #.I $., , C .., { %.&.+ % % P Q Y I n+` t u u L t u i.o+M.M.@.A #.I $., , C .., { %.&.+ % % ",
"8+p+y.~ 4.q+|.~ ~ l+(.u i.o+M.M.>.,.'.~ ).!.H , , +.~ ~ ).~.- - 8+p+y.~ 4.q+|.~ ~ l+(.u i.o+M.M.>.,.'.~ ).!.H , , +.~ ~ ).~.- - ",
"r+G P.& -.I Z.& ^ K y.~ ~ w % % p }.|.~ 1.2.d e 3.+.~ ~ 4.5.6.6.r+G P.& -.I Z.& ^ K y.~ ~ w % % p }.|.~ 1.2.d e 3.+.~ ~ 4.5.6.6.",
"s++.~ ~ ).L t u u L t & b 5.6.6.>.e.9.~ { +.f.g.h.c 0.u i.j.# # s++.~ ~ ).L t u u L t & b 5.6.6.>.e.9.~ { +.f.g.h.c 0.u i.j.# # ",
"r+,+t+g.!.~ t % b.b.u ~ 4.% % % l.m., C n.L o.p.q.+.t % r.s.6.6.r+,+t+g.!.~ t % b.b.u ~ 4.% % % l.m., C n.L o.p.q.+.t % r.s.6.6.",
"; }.|.~ 4.c+~ ~ )._.y.~ 4.j.# # w.x.y.~ |.z.A., s ~ t & b B.- - ; }.|.~ 4.c+~ ~ )._.y.~ 4.j.# # w.x.y.~ |.z.A., s ~ t & b B.- - ",
"u+x.:.% v+i+r.% % % % u u ~.- - I.J.u u v ~ t % r.F.d e K.L.M.M.u+x.:.% v+i+r.% % % % u u ~.- - I.J.u u v ~ t % r.F.d e K.L.M.M.",
"2 8.9.~ ).a % & & a+% % w+x+( ( U.V.m ' q ~ t % b.K k.& W.X.h h 2 8.9.~ ).a % & & a+% % w+x+( ( U.V.m ' q ~ t % b.K k.& W.X.h h ",
"y+! t u v w % & Q.z+A+I B+V O O @+#+'.u u F.H.m $+~ t & ^ %+O O y+! t u v w % & Q.z+A+I B+V O O @+#+'.u u F.H.m $+~ t & ^ %+O O ",
"% j.# # C+M.M.- D+E+@ - F+G+( ( 2 ,+Z.& '+)+% ~ ~ ~ ~ , !+j.# # % j.# # C+M.M.- D+E+@ - F+G+( ( 2 ,+Z.& '+)+% ~ ~ ~ ~ , !+j.# # ",
"H+b+I+- s.i.r.% w+)+% & `.J+- - {+]+' ' ' ^+/+~ { (+( % _+:+h h H+b+I+- s.i.r.% w+)+% & `.J+- - {+]+' ' ' ^+/+~ { (+( % _+:+h h ",
"5 K+L+5 M+x 5 5 w.A [ N+N+N+N+N+I.=.t u v w % u 0.a.v e f }+( ( 5 K+L+5 M+x 5 5 w.A [ N+N+N+N+N+I.=.t u v w % u 0.a.v e f }+( ( ",
"O+P+L+5 w.x.Q+[ @+R+S+C T+> , , 8+9+m ' 0+a+b+' U.] % u v c+- - O+P+L+5 w.x.Q+[ @+R+S+C T+> , , 8+9+m ' 0+a+b+' U.] % u v c+- - ",
"P 5 P C U+Q 2 5 8+p+, ' q w % % 5 p & ~ { Y.Z.% d+e+Z.& & v.( ( P 5 P C U+Q 2 5 8+p+, ' q w % % 5 p & ~ { Y.Z.% d+e+Z.& & v.( ( ",
">.V+W+' U.U.H , X+9+9.g.h.Y+- - f+, , ' ' > , , s ~ t % % }+( ( >.V+W+' U.U.H , X+9+9.g.h.Y+- - f+, , ' ' > , , s ~ t % % }+( ( ",
"_ t.#.I Z+`+' 2  @V.9.~ 4.g h h P g+h+, s K y.~ H.i+r.% % % % % _ t.#.I Z+`+' 2  @V.9.~ 4.g h h P g+h+, s K y.~ H.i+r.% % % % % ",
".@G H ~ Z ` ~ ~ 4.i.u u 0.+@O O 8 j+k+p.l+J Z.& m+U.P.& F.V O O .@G H ~ Z ` ~ ~ 4.i.u u 0.+@O O 8 j+k+p.l+J Z.& m+U.P.& F.V O O ",
"r+x., , @@2.d % v+#@y.~ $@L.M.M.P Q Y I n+` t u u L t u i.o+M.M.r+x., , @@2.d % v+#@y.~ $@L.M.M.P Q Y I n+` t u u L t u i.o+M.M.",
">.,.k+, s K :.% =+%@#.I &@j.h h 8+p+y.~ 4.q+|.~ ~ l+(.u i.o+M.M.>.,.k+, s K :.% =+%@#.I &@j.h h 8+p+y.~ 4.q+|.~ ~ l+(.u i.o+M.M.",
"w.x.k.& F.u u ~ 4.u.d % v+*@6.6.r+G P.& -.I Z.& ^ K y.~ ~ w % % w.x.k.& F.u u ~ 4.u.d % v+*@6.6.r+G P.& -.I Z.& ^ K y.~ ~ w % % ",
"=@%@k.& F._., , 0 L t u i.g h h s++.~ ~ ).L t u u L t & b 5.6.6.=@%@k.& F._., , 0 L t u i.g h h s++.~ ~ ).L t u u L t & b 5.6.6.",
"p ' -@% r.L t & ^ ~ t % r.F.& & r+,+t+g.!.~ t % b.b.u ~ 4.% % % p ' -@% r.L t & ^ ~ t % r.F.& & r+,+t+g.!.~ t % b.b.u ~ 4.% % % ",
"w.G H ~ ;@>@& I I ,@d # $ 5.6.6.; }.|.~ 4.c+~ ~ )._.y.~ 4.j.# # w.G H ~ ;@>@& I I ,@d # $ 5.6.6.; }.|.~ 4.c+~ ~ )._.y.~ 4.j.# # ",
"'@D.P.& b u.0.u )@, k.& F.!@M.M.u+x.:.% v+i+r.% % % % u u ~.- - '@D.P.& b u.0.u )@, k.& F.!@M.M.u+x.:.% v+i+r.% % % % u u ~.- - ",
"_ ~@k+, !+u.& ~ ~ K :.u i.% % % 2 8.9.~ ).a % & & a+% % w+x+( ( _ ~@k+, !+u.& ~ ~ K :.u i.% % % 2 8.9.~ ).a % & & a+% % w+x+( ( ",
"; > , ' ) ! ~ ~ { ] % & ^ / ( ( y+! t u v w % & Q.z+A+I B+V O O ; > , ' ) ! ~ ~ { ] % & ^ / ( ( y+! t u v w % & Q.z+A+I B+V O O ",
"8 9 , , 0 a b , , c d e f g h h % j.# # C+M.M.- D+E+@ - F+G+( ( 8 9 , , 0 a b , , c d e f g h h % j.# # C+M.M.- D+E+@ - F+G+( ( ",
"p ' ' ' q r & , s ~ t u v w % % H+b+I+- s.i.r.% w+)+% & `.J+- - p ' ' ' q r & , s ~ t u v w % % H+b+I+- s.i.r.% w+)+% & `.J+- - ",
"F G H I J K , , 0 L ^ ( M N O O 5 K+L+5 M+x 5 5 w.A [ N+N+N+N+N+F G H I J K , , 0 L ^ ( M N O O 5 K+L+5 M+x 5 5 w.A [ N+N+N+N+N+",
"W X Y ~ Z `  .C ..+.t % % g h h O+P+L+5 w.x.Q+[ @+R+S+C T+> , , W X Y ~ Z `  .C ..+.t % % g h h O+P+L+5 w.x.Q+[ @+R+S+C T+> , , ",
"*.=.~ ~ ~ K #.I $.+.t & -.;.( ( P 5 P C U+Q 2 5 8+p+, ' q w % % *.=.~ ~ ~ K #.I $.+.t & -.;.( ( P 5 P C U+Q 2 5 8+p+, ' q w % % ",
"{.].t u ^./.(.u u _.:.u <.[.O O >.V+W+' U.U.H , X+9+9.g.h.Y+- - {.].t u ^./.(.u u _.:.u <.[.O O >.V+W+' U.U.H , X+9+9.g.h.Y+- - ",
"7.8.9.u 0.a.~ ' q b.c.& & d.- - _ t.#.I Z+`+' 2  @V.9.~ 4.g h h 7.8.9.u 0.a.~ ' q b.c.& & d.- - _ t.#.I Z+`+' 2  @V.9.~ 4.g h h ",
"p ' H ~ ~ w % % b.K k.& b 5.6.6..@G H ~ Z ` ~ ~ 4.i.u u 0.+@O O p ' H ~ ~ w % % b.K k.& b 5.6.6..@G H ~ Z ` ~ ~ 4.i.u u 0.+@O O ",
"P t.k.& b u.& I I m.k.& & v.( ( r+x., , @@2.d % v+#@y.~ $@L.M.M.P t.k.& b u.& I I m.k.& & v.( ( r+x., , @@2.d % v+#@y.~ $@L.M.M.",
"C.D.E.%.F.G.(.u u _.y.~ H.v.( ( >.,.k+, s K :.% =+%@#.I &@j.h h C.D.E.%.F.G.(.u u _.y.~ H.v.( ( >.,.k+, s K :.% =+%@#.I &@j.h h ",
"N.O.P.& Q.R.u I S.T.% % b.w % % w.x.k.& F.u u ~ 4.u.d % v+*@6.6.N.O.P.& Q.R.u I S.T.% % b.w % % w.x.k.& F.u u ~ 4.u.d % v+*@6.6.",
"V.Y.Z.& `.p. +, , +.t % .+++M.M.=@%@k.& F._., , 0 L t u i.g h h V.Y.Z.& `.p. +, , +.t % .+++M.M.=@%@k.& F._., , 0 L t u i.g h h ",
"w.&+F.p.*+=+u u 0.-+;+u u >+h h p ' -@% r.L t & ^ ~ t % r.F.& & w.&+F.p.*+=+u u 0.-+;+u u >+h h p ' -@% r.L t & ^ ~ t % r.F.& & ",
"~+E o.p.V i.A., s w @ ( V d.- - w.G H ~ ;@>@& I I ,@d # $ 5.6.6.~+E o.p.V i.A., s w @ ( V d.- - w.G H ~ ;@>@& I I ,@d # $ 5.6.6.",
"<+[+& & ^ r d % % j.# % % % % % '@D.P.& b u.0.u )@, k.& F.!@M.M.<+[+& & ^ r d % % j.# % % % % % '@D.P.& b u.0.u )@, k.& F.!@M.M.",
"|+1+2+h 3+4+M.- 5+6+6.- - 7+( ( _ ~@k+, !+u.& ~ ~ K :.u i.% % % |+1+2+h 3+4+M.- 5+6+6.- - 7+( ( _ ~@k+, !+u.& ~ ~ K :.u i.% % % "};
