/* XPM */
static char *magick[] = {
/* columns rows colors chars-per-pixel */
"64 64 63 1",
"  c #868686",
". c #9a9a9a",
"X c #9f9f9f",
"o c #b5b5b6",
"O c #b6b6b8",
"+ c Gray72",
"@ c #b9b9ba",
"# c #bbbbbb",
"$ c #bbbbbd",
"% c #c6c6cb",
"& c #c9c9cb",
"* c #cacacb",
"= c #c9c9cd",
"- c #cacacc",
"; c #cacacd",
": c #cbcbcc",
"> c #cbcbcd",
", c #cbcbce",
"< c #cbcbcf",
"1 c #cccccd",
"2 c #ccccce",
"3 c #cccccf",
"4 c #cdcdce",
"5 c #cdcdcf",
"6 c #cececf",
"7 c #ccccd0",
"8 c #cdcdd0",
"9 c #cdcdd1",
"0 c #ceced0",
"q c #ceced1",
"w c #cfcfd0",
"e c #cfcfd1",
"r c #ceced2",
"t c #cfcfd2",
"y c #cfcfd3",
"u c #cfcfd4",
"i c Gray82",
"p c #d0d0d2",
"a c #d0d0d3",
"s c #d1d1d2",
"d c #d1d1d3",
"f c #d2d2d3",
"g c #d0d0d4",
"h c #d1d1d6",
"j c #d2d2d4",
"k c #d3d3d4",
"l c #d4d4d5",
"z c #d5d5d5",
"x c #d4d4d6",
"c c #d5d5d6",
"v c Gray84",
"b c #d6d6d7",
"n c #d7d7d8",
"m c #e2e2e3",
"M c #e2e3e4",
"N c #e3e3e5",
"B c #e4e4e5",
"V c #e4e5e7",
"C c #e5e5e6",
"Z c #e6e6e7",
"A c #e5e5e8",
"S c #e7e6e8",
"D c Gray91",
/* pixels */
"                                                                ",
"o##########################$$$$$$$$$$$$##########@@@##########X ",
"%6wwwwwwww666---,66wwwwwwwwwwwwwwwwwwwwwwwwwwww66,---666wwwwwwX ",
"CCCCCCCCCCNmmmmmNVSVSSVSSCSSSSSSSSSSSSSSCSSSSSSSCNmmmmmNCCCCCCX ",
"CCCCCCCCCCNmmmmmNVSSVSSSSSSSSCCCCCCCCSSSSSSSSVSVCNmmmmmNCCCCCCX ",
"SSSSCCCCCCmmmmmmNVSVSSCSCCSSSCCCCCCCCSSSCCSCVSVSCNmmmmmmCCCCCCX ",
"SSSSSCCCCNmmmmNNNCSSVVCCCCCCCCCCCCCCCCCCCCCCCVSSCNNNmmmmNCCCCSX ",
"SSSSSCCCNNNNNNNNNVVVVVCCCCCCCCCCCCCCCCCCCCCCVVCCCNNNNNNNNNCCCSX ",
"SSSSSCCNNNNCCCNNNCCCCCCCCCCCCCCCCCCCCCCCCCCCCCCCCNNNCCCNNNNCCSX ",
"DDDSCCCCNNNCCCCCNNNCCCCCCCCCCNNmmmmNNCCCCCCCCCCNNNCCCCCNNNCCCCX ",
"DDDSCCCCCCNNCCCCCNCCCCSSCCCCCNmmmmmmNCCCCCSSCCCCNCCCCCNNCCCCCCX ",
"SSSCCCCCCCCNCCCCCCCCCCSSCCCCCNmmmmmmNCCCCCSSCCCCCCCCCCNCCCCCCCX ",
"SSCCCNNNCCCCCCCCCCCCCCCCCCCNmmmmmmmmmmmCCCCCCCCCCCCCCCCCCNNNNCX ",
"CCCCNNNNNCCCCSCCCCCCCCCCCCmmmmmmmmmmmmmmCCCCCCCCCCCCSCCCCNNNNCX ",
"..............................................................X ",
"o###O#######$$$$######$###+#o#o###o#o#++###$######$$$$########X ",
"o#OOO##OOOO#o###O#O##O###o#oooooooooooo##O##O#O####O#OO#oOO##OX ",
"&----------666ww66wwwww7w66&&&&&&&&&&&&667wwwwww66ww666-------X ",
"---777--6666wwwwwwrrrrwwddw66-66666-666wdwwwwrwwwwwwww666---7-X ",
"&&-------66wwwwwwwrhrwwwddw666666666-66wddhwwrhwrwwwww6666----X ",
"%%&--&---66wwwwrwwdhrrhdddw6-66666666-6wddddwrhhrrwwwww766--&-X ",
"&&&&&---66-wwrrrddhdrhdhhdw66-wwwwww-66wdhhddrhhhhrwrw77-6---&X ",
"&&&&----6-7wwrrrhhdhdddhxdw-6-wwddww-666dxddddhhhhwwrww766----X ",
"&&-------77wrrrrwhhdhdhxxhwwwwwdhhwww66ddxxhdhdhhrrrrrww6-----X ",
"&&&----76w7wrrrrrrrhddhxxdddddddxxxddwwddxxdhdhrrrrwrrw7w-7---X ",
"------7w7ww7wrrrwrwhdzdxddddddxxxxxxddddzxzdxddwrrwwrr7wwww---X ",
"--------77w7wwhdddhdzxxxxxdhxxxxxxnxxxhhxxxxxddhhhdhrr7ww7----X ",
"-------7wwwwwwhddhhxxxxxxxxxxxnnxxxnxxxxxxxxxxxdhhhhrw7ww7w---X ",
"------6wwwwwwrdhxxxxxxxxxxxxnnnxnnxnxxxxxxxxxxnxxxxdrwwwrww---X ",
"-------wwwrwwrdxxxnxxxxxxxxnnxxxxxxxxnnnnxxxxxxxxxxdrwwrrww--7X ",
"---66-www7wwwwhxxxxnxxxxxxnnnnxxxxxxnnnxxxxxxxxnxxxdwwwwwwww-6X ",
"----66www7wwwwhxxxnxnxxxnnxnnnxxddxnnnnxnnxxxnnxxxxdwwwwwwww66X ",
"-----6wwwwwwwwdxxnxnxxxxnxxnnnxxddxxnnnxnxxxxnnxnxxzwwwwwwww--X ",
"---66-7wwwwwwwdxxxnxxxxxxnxnnnxxxxxnnnnxnxxxxxxnxxxdwwww7ww7-wX ",
"------wwrrwwwwdxxxnnxxxxxxnnnxnxxxxxxnnxxxxxxxnxxxzdrwwrrrw7--X ",
"-------wwrwwwwdhxxxxxxxxxxxxxnxnxnxnnnxxxxxxxxnxxxddrw7wrw77--X ",
"-------w7wwwrrhdzddxxxxxxxxxxxxxnxxxxxxxxxxxxxxhzddhwwwww7w---X ",
"-------ww7w7rrhhdddddxxxxxzxxxxxxnxxxxdxxxxxxhdhddhhrw7wwww7--X ",
"-------777w7rrrrrwwddxdzhddddhxxxxxxhdddddzhdddwwrwrrrww77w---X ",
"&&&----77w7wrrrrrrrhdhdxxddwwddhxxhddwwddxxdhdhrrrrrrwwww-7---X ",
"&&&------6wwwwrrrhhdhdhxxdww6wwdxddww6wwhxxhdhhdhrrrwwww7-----X ",
"&&&&----6--wwrrrhhdhdddhxdw66-wwddww6--wdxdddhdhhrrrww7666----X ",
"&&&&&---66-wwrrrdhhdrdddhdw6-6wwwwww666wddhddrhhhhrrrww--6----X ",
"%%&--&---66wwwwwwwhhrwddddw66--w6666-66wddddwrhhrww7www66---&-X ",
"---------666wwwwrrrhrwwhddw6-666666-6-6wddhwwrhrrrwwwww66-----X ",
"---7-7--6666wwwwrrrrrwwwddw666-66666666wddwwwrrrwrrwww66ww7--7X ",
"w77-77w76666wwdwwwwrwdrrwdw6-666--66-666dwwwhwwwwwrhww6w-w-776X ",
"www-7ww7--66wdhhwwwwwhhrww66----------666wwhhwwwwwddww6w---wwwX ",
"wwwww77-7-wwddhddwwwwddww6----&&&&&&---66wwddwwwwddhdd66---wwwX ",
"wrrww----6wdhhdddwwwwdddw6-&&&&&&&&&&&&-6wdddwwwwddhhhdw6-7-7wX ",
"ddhww7---wwwdhddrhwwwdddw6---&&&&&&&&---6wdddwwwddddhddw6----wX ",
"hhhwww-6wwwwwdddrwwwddddww66--&&&&&&---6wwddddwwwwdddwwwwww--7X ",
"hhhdwwwwww6wwwddwwwwddhhdw666--&&&&--666wdhhhdwwwwwrww-wwwwwwwX ",
"xxxdwwwwww--6wwww77wddhhddw6-6-&&&&-6-6wwddhhrww-wwwwww-7wwwwwX ",
"xxxxdwww7776wwww-77wwwhhddw666-----6666wddddrrwww7wwww777-wwwdX ",
"zdhdhdw6---7ww7-7w7wwwrrdddw6666666666wdddwwr7wrw--7ww-77-6wdhX ",
"dzxdhdwww---w-7-7rrrrrrrdddwwww666wwwwwrddwwwwrrw77-66---wwwdhX ",
"hhdhhddwww-&&---wrrrrrrrddhhrwww66wwwrhhddwwrrhrrw---&&-7wwddhX ",
"dhhdddddw7--%%%-wwrrrrrrhhhhhrwwwwwwhhhhhhrwrrhhww-%%%&-7wwdddX ",
"dddddw66ww--%%%%7wrwrrhrhhhhhhdddddhhhhhhhrwrrrrw7%%%%&&wwwwwdX ",
"diiiidiidddddddiddiiiididdddddiiiiddddddddiiiiddddddddiiiiidddX ",
"++++++++++++##+o++++++++#o++++++++++#o++++++++++O##o+++++++##+X ",
"XXXXXXXXXXXXXXXXXXXXXXXXXXXXXXXXXXXXXXXXXXXXXXXXXXXXXXXXXXXXXXX ",
"                                                                "
};
