/* XPM */
static char *magick[] = {
/* columns rows colors chars-per-pixel */
"64 64 56 1",
"  c #868686",
". c #9f9f9f",
"X c #a0a0a0",
"o c #d8d8d8",
"O c #d8d8d9",
"+ c #d9d8d9",
"@ c Gray85",
"# c #dfdfe0",
"$ c #dfdfe1",
"% c #dfdfe2",
"& c Gray88",
"* c #e0e0e1",
"= c #e1e0e1",
"- c #e1e1e1",
"; c #e0e0e2",
": c #e1e1e2",
"> c #e1e1e3",
", c #e2e1e3",
"< c #e2e2e2",
"1 c #e2e2e3",
"2 c #e3e2e3",
"3 c Gray89",
"4 c #e1e1e4",
"5 c #e2e2e4",
"6 c #e2e2e5",
"7 c #e2e3e5",
"8 c #e3e3e4",
"9 c #e3e3e5",
"0 c #e3e3e6",
"q c #e3e4e5",
"w c #e3e4e6",
"e c #e3e4e7",
"r c #e4e3e4",
"t c #e4e3e5",
"y c #e4e4e4",
"u c #e4e4e5",
"i c Gray90",
"p c #e4e4e6",
"a c #e4e4e7",
"s c #e4e5e6",
"d c #e5e4e6",
"f c #e5e5e6",
"g c #e5e5e7",
"h c #e6e5e6",
"j c #e6e5e7",
"k c #e6e6e6",
"l c #e6e6e7",
"z c #e7e7e7",
"x c #e5e5e8",
"c c #e6e6e8",
"v c #e7e7e8",
"b c #e8e7e8",
"n c Gray91",
"m c #e8e8e9",
"M c #e9e9e9",
"N c #e9e9ea",
/* pixels */
" .@1lvlllllllll8l8l888888811111111111888888888111111111118888#X ",
" .@1lvllllllllll8l8l88888811111111111881111188111111111118888#X ",
" .@1lvvvvvvvvllllllll8888811111111111881111188111111111118888#X ",
" .@1lvvvvvvvvllllllll8888111111111111111111181111111111111188#X ",
" .@1lvllllllll8lll8l88888111111111111111111181111111111111188#X ",
" .@1lllllllll888888888888111111111111888888888111111111111188#X ",
" .@1llllllllll88888888888111111111888888888888888811111111188#X ",
" .@1l888l888888888888888888888888888888l8l8ll8888888888888888#X ",
" .o1888888888ll88888888888888888888888lllllll8888888888888888#X ",
" .o$8888888888l88888888888888888888lll8l888llltl8888888888888#X ",
" .o#188888888888l8888888l88888888lllllltltl8tll8v8l8888888888#X ",
" .o#18888888888lll8lll8lll88888ll8l88ltltltll8ll8l8ll8888ll881X ",
" .o#188e888l8888llllyllll88ll8l88l88l8ltltltltl8l88l88l888l881. ",
" .@#18eeelee8l8lllllllllllll888vlllllllllllllllllllvll8llllll1X ",
" .@#1888l888l8lllllllllll888lllllllllllllllllllllllllll8l8l8l1X ",
" .@#8888e8888lllllllllllll8lllllllllvlllvvvlllllllllllll8l8l81X ",
" .O#8888888888llllllllllllllllllllllvvvnnnnnnvvvlllllllllll881. ",
" .O18888888888eelllllllllllll8avllllvnnnnnnnnnvvllllevlllllll1. ",
" .@1ee88888888ellllllllllll8vvvallllvnnnnnnnnnvvllllevvll8l8l1X ",
" .@1v8888888eellllllllllv8vvvvevlllvvnnnnnnnnnvvvlllvvvvvvl881X ",
" .o18eee8ee888lllllllllllllvvvvvlllvnnnnnnnnnnnvvlllvvvvvllll1X ",
" .o1eelllllllllllllllllllllllllllllvnnnnnnnnnnnvvlllllll8ll881X ",
" .o1elelllllllllllllllllllllllllvvvnnnnnnnnnnnnnvvvllllllllll1X ",
" .o1lelllllllllllllllllllllllllvvvvnnnnnnnnnnnnnnvvvvllllll8l1X ",
" .o18lllllllllllllllllllllllllvnvvvnnnnnnnnnnnnnnvvvnvlllll881. ",
" .@1llllllllllll8888llllllllllllllvnnnnnnnnnnnnnnvlllllllllll1. ",
" .@1llllllllllll811111lllllllllllllvnnnnnnnnnnnvvllllllllllly1X ",
" .@1lll88l88ll181111111l1lyl888llllvnnnnnnnnnnnvvllll888l8l111X ",
" .@1ltll8ttltt811111111811888888lllvnnnnnnnnnnnvvllll888888111X ",
" .@1tl8888888811111111188888888llllnnnnnnnnnnnnnnllll88888811@X ",
" .@1l88811881111111111188888888lllvnnnnnnnnnnnnnnlll888888881#X ",
" .@18l8111111111111111188888ll8lllnnnnnbbbbbnnnnnllllll888881#X ",
" .@#tt8111111111111111188l8lllllvvnnnnnlllllnnnnnnvllll8l8881#X ",
" .@1tt811111111111111118l8l8lllvnnnnnnnlllllnnnnnnnvvlll8l881#X ",
" .O#tt8111111111111111188lllllllvvnnnnnlllvvnnnnnnvllllll8881#X ",
" .O1ll811111111111111118888888llllnnnnnbbbbbnnnnnnlll8l888881#X ",
" .@1l88811881111111111188888888lllvnnnnnnnnnnnnnnvlll88888881#X ",
" .@18l88888888111111111888888888lllnnnnnnnnnnnnnnll8888888811#X ",
" .@1ltltt8tl8t81111111188888888llllvnnnnnnnnnnnvvllll88888811#X ",
" .@1ll8ltl8lll881111118ll8l8888llllvnnnnnnnnnnnvvlll8888lll811X ",
" .@1llllllllll88811111lllllllllllllvnnnnnnnnnnnvvlllllllllll11X ",
" .@1lllllllllllll888llllllllllllllvnnnnnnnnnnnnnnvlllllllllll1X ",
" .@1llllllllllllllllllllllllllvnvvvnnnnnnnnnnnnnnvvvnvlllll8l1X ",
" .@1eelllllllllllllllllllllllllvvvvnnnnnnnnnnnnnnvvvvllllllll1X ",
" .@1llellllvlllllllllllltlllllllvvvnnnnnnnnnnnnnnvvlllllllll81. ",
" .@18eellv8elllllllllllllllllllllllvnnnnnnnnnnnvvlllll8llll8l1. ",
" .@1eeeeveee88lllllllllllltevvvvlllvnnnnnnnnnnnvvlllvvaev8l8l1X ",
" .@1le88888888llllllllllllvvvvavlllvvnnnnnnnnnvvvlllvvvvvvll81X ",
" .@1ee88888888elllllllllllllvvvallllvnnnnnnnnnvlllllvvv8vlll81. ",
" .@18888888888elllllllllllllllevllllvnnnnnnnnnvlllllev8vlll8l1. ",
" .@#4888888888elllllllllllllllllllllvvvnnnnnnvvllllllllllllll1X ",
" .@#8888e888elllllllllllll88llllllllvlllvvvlllllllllllll88l881X ",
" .@#1888e888ellllllllllll8l8llvlllllllllllllllllllllllv88l8ll1X ",
" .@#18elllelleeellllllllllll8l8lllllllllllllllllllllll8lllll81X ",
" .@#188l888l881llllllyllll8ll8lll8l8l8ltltltltl8l8l88ll8l8l111X ",
" .@#18888888881llll8l8ll888888888l8ltltltltltl8l8l8l88888ll881X ",
" .@#18888888888lll888888l8888888l8llll88l8l8lll8lll8888888888#. ",
" .@#88888888888l8888888888888888888l8l8l888l8ll88888888888888#X ",
" .@1888888888ll8888888888888888888888lllllllll888888888888888#X ",
" .@18888e8888888888888888888888888888888l8ll88888888888888888#X ",
" .@1lllllllll888888888888111111111888888888888888811111111188#X ",
" .@1llllllllll88888888888111111111111888888888111111111111188#X ",
" .@1lvlllllllllll88l88888811111111111881111188111111111118888#X ",
" .@1lvvvvvvvvllllllll8888811111111111881111188111111111118888#X "
};
