/* XPM */
static char *magick[] = {
/* columns rows colors chars-per-pixel */
"64 64 50 1",
"  c #868686",
". c #9f9f9f",
"X c Gray72",
"o c #bbbbbb",
"O c Gray81",
"+ c Gray86",
"@ c #dbdbdc",
"# c #dcdbdc",
"$ c gainsboro",
"% c #e0e0e1",
"& c #e0e0e2",
"* c #e1e1e2",
"= c #e1e1e3",
"- c #e2e2e2",
"; c #e2e2e3",
": c #e3e2e3",
"> c Gray89",
", c #e2e2e4",
"< c #e2e2e5",
"1 c #e3e3e4",
"2 c #e3e3e5",
"3 c #e3e3e6",
"4 c #e3e4e6",
"5 c #e4e3e4",
"6 c #e4e3e5",
"7 c #e4e4e4",
"8 c #e4e4e5",
"9 c #e5e4e5",
"0 c Gray90",
"q c #e4e4e6",
"w c #e4e4e7",
"e c #e4e5e6",
"r c #e4e5e7",
"t c #e5e4e6",
"y c #e5e5e6",
"u c #e5e5e7",
"i c #e6e5e6",
"p c #e6e5e7",
"a c #e6e6e6",
"s c #e6e6e7",
"d c #e7e6e7",
"f c #e7e7e7",
"g c #e5e5e8",
"h c #e6e6e8",
"j c #e7e7e8",
"k c #e8e7e8",
"l c Gray91",
"z c #e8e8e9",
"x c #e9e9e9",
"c c #e9e9ea",
/* pixels */
"o.,,,,,,,,,,,,wwwwwwwwwwwwwwww,,,,,,,,,,,,,,,,,wwww,www7;,ww;.  ",
" o,,,,,,,,,,,,,,,wwwwwwwwwww,,,,,,,,,,,,,,,,,,,,wwwwwwwww,ww;ooo",
" .,,,,,,,,,,,,,,,,,,wwwww,,,,,,,,,,,,,,,,,w,,,,,,wwwwwwwwwww;$OO",
" .,,,,;;;;;;;,,,,,,,,,,,,,,,,,,;;;;;;;,,,,www,,,,wwwwwwwwwwl;$,,",
" .,,,,,,;;;;;;;;;,,,,,,,,,,,;;;;;;;;;,,,,,,wwwwwwwwwwlwwwjjj,$,,",
" .,,,,,,;;;;;;;;;;,,,;;;,,;;;;;;;;;;;,,,,,,wwwwwwwlllllljjjj,,,,",
" .,,,,,,;;;;;;;;;,,,,,,,,,,,;;;;;;;;;,,,,,,wwwwwwwwwwwwlwjll,,,,",
" .,,,,;;;;;;;,,,,,,,,,,,,,,,,,,;;;;;;;,,,,www,,,wwwwwwwwwwww;,,,",
" .,,,,,,,,,,,,,,,,,,wwwww,,,,,,,,,,,,,,,,,w,,,,,,wwwwwwwwwww;,,,",
" .,,,,,,,,,,,,,,,wwwwwwwwwww,,,,,,,,,,,,,,,,,,,,wwwww,wwwwww;w,,",
" .,,,,;,,,,,,,wwwwwwwwwwwwwwww,,,,,,,,,;,,,,,,7wwww,,,w,w,,w;,,,",
" .,,ww,;,,,,wwwwwwwwwwwwwwwwwwwww,,,,,www,,,7w7wwww,,,w,,,,,;,,,",
" .,,w7w7,,wwwwwwwwwwwwwwwwwwwwwwww,,,ww7www7wwwwww,,,,,,,,,,;,,,",
" .,,wwwwwwwwwwwwwwwwwwwwwwwwwwwwwwwwwwwwww7wwlwww,,w7w,www,;;,,,",
" .wwwwwwwwwwwwwwwwwwwwwwwwwwwwwwwwwwwwwwwwwwwlwwwwwwwwwwww,;;+. ",
" .wwwwwwwwwwwwwwwwwwwwwwwwwwwwwwwwwwwwwwwwwwlllwwwwwwwwwww,;;+..",
" .wwwwwwwwjjwwjjjjwdddddwdjjjjwwwjwwwwwwwlwlllllwwwww,www,,,;+.o",
" .wwwwwwwwjjwwwljjlllllllljjjwwwwjwwwwwwwwwlwwwwwlww4,w44,,,;@. ",
" .7wwwwwwjjjjwwwjllllllllllljwwjjjjwwwwwwwwwwddwwwww,,w,,,,,;@. ",
" .w7wwwwjjjjjwwwjllllllllllljwwjjjjjjwwwwwwwwwdwww,,,4,,,4jw,@. ",
" .wwwwwjjjjjjwjjkllllllllllljjwjjjjjjjjwwwwwwwwwwwww4ww4,wwj,@. ",
" .wwwwjjjjjjjwjjllllllllllllljwjjjjjjjjwwwwwwwwwwwww44ww44wj,@. ",
" .wwwwjjjjjjjwjjllllllllllllljwjjjjjwjwwwwwwwwwwwwwwwwwwwwww,@. ",
" .wwwwwwwwwwjjlllllllllllllllljjjwwwwwwwwlwdlwdlwjlwwwwwwwww;@. ",
" .wwwwlwlwljjjlllllllllllllllljjjjwwwlwwwwlwlwdwjjjwlwlwwwww;@. ",
" .wwwwwlljllljlllllllllllllllljllljllwwwwwwwwlwdwjllwwwwwwww;$. ",
" .wwlwwllllllllllllllllllllllllllllljllwwwwwwwwwwwwwlwwlllww;$. ",
" .wwwwlwwwlwwjlllllllllllllllljlwwlwwllwwwwww7wwwwlwlwwwwwjj,$. ",
" .w7wwwwwwwwwwllllllllllllllljwwwwwwwwwwwww;;;;ww7wwwwwwwwwj,$. ",
" .;;7wwwwwwwwwwlllllllccllllljwwww,www7www;;;;;,ww7www77wwwj;$. ",
" .;;;,,,w,wwwwlllllllccclllllljwww,,,,w;,,;;;;;;;55www5wwwww,$. ",
" .;;,,,,;,wwlllllllllccccllllljjww,,,,,,,,;;;;;;;,;5,w;,7www;#. ",
" .;;,,,,wwwwwllllllllllllllllllwwwwwwww7,,;;;;;;;;;,,w;,,www;@. ",
" .;;,ww7wwwwjllllllllkklllllllllllwwww7ww,;;;;;;;;;;;5;;;w7w;+. ",
" .;;,wwwwwjjllllllllldjwlllllllllwwww7w7w;;;;;;;;;;;;5;;;5ww;@. ",
" .;;,wwwwljjllllllllldjkllllllllllwwww7ww,;;;;;;;;;;;5;;;5ww;@. ",
" .;;,wwwwwwwjlllllllllkklllllllllwwwwww7w,;;;;;;;;;;;5;;;www;@. ",
" .;;,,,,wwwwwllllllllllllllllllwwwwww,,,,,;;;;;;;;;,,w;,;www;@. ",
" .;;,,,,w7wwwlllllllccclllllllllww,,,,,,,,;;;;;>;,,,,w;,,www;#. ",
" .;;,,,,;wwwwwlllllllcclllllllwwww,,,,,,,;;;;;>>;55www5wwwww,$. ",
" .;;ww7ww,wwwwjjllllllllllllljwwwwwwwww77777>;>>7777wwww7wwj>$. ",
" .77wwwwwwwwwwjjllllllllllllljwwwwwwwwwwwww;>7>wwwwwwwwwwwwl5$. ",
" .wwlwwlwllwlllllllllllllllllljwwllllwlwwww7w7wwwwlwwlwlwlww,$. ",
" .wwwwlwjllllllllllllllllllllljllllwllwwwwwwwwwwwwwlwwwlwwwl;$. ",
" .wwwwlwllllljlllllllllllllllljllljwlwwwwwwwwwlwdllwwwlwwwww;@. ",
" .wwwwwlwwjjjjlllllllllllllllljjwllwwwwwwwdwwlwdwlwwlwjwwwww;@. ",
" .wwwwwwwwwjjjlllllllllllllllljjlwwwlwwwwllddwdwwjlwwwwwwwww;@. ",
" .wwwwwwjjjjjjjjllllllllllllljwjjjjjjjwwwwwwwdwdwlwwwwwwwwww,@. ",
" .wwwwjjjjjjjwjjllllllllllllljwjjjjjjjlwwwwwwwwwwwww44w444wj,@. ",
" .wwwwjjjjjjj,jjjllllllllllljjwjjjjjjlwwwwwwwwwwwwww,w4,,wwj,@. ",
" .w7wwwwjjjjjwwwjllllllllllljwwjjjjjjwwwwwwwwwwwwww4,4,,,4wj,@. ",
" .7wwwwwwjjjjwwwkllllllllllljwwjwjjwwwwwwwwwlllwwww4,,w;,,,,;@. ",
" .wwwwwwwwjjwwwwjjlllllllljjjwwwwjwwwwwwwwwlwwwwwwwww>w44,,,;@. ",
" .wwwwwwwwjjwwjjjjwwlwlwdwjjjjwwwjwwwwwwwlwljllwlwwww4www,,,;+. ",
" .wwwwwwwwwwwwwwwwwwwwwwwwwwwwwwwwwwwwwwwwwllllwwwwwwwwwww,,%+. ",
" .w7wwwwwwwwwwwwwwwwwwwwwwwwwwwwwwwwwwwwwwwwwlwwwwwwww7www,;%+. ",
" .,,7wwwwwwwwwwwwwwwwwwwwwwwwwwwwwwwwwwwwwwwwwwww,,www,www,;;+. ",
" .,,wwww,,wwwwwwwwwwwwwwwwwwwwwwww,,,w7wwww7wwwwww,,,,,;,,,,;+. ",
" .,,7w,,,,,,wwwwwwwwwwwwwwwwwwwww,,,,,w7w,,,7,wwwww,,,w7,,,,;+. ",
" .,;,;,,,,,,,,wwwwwwwwwwwwwwww,,,,,,,,,,,,,,,,,wwww,,,w7,,,w;@. ",
" .,,,,,,,,,,,,,,,wwwwwwwwwww,,,,,,,,,,,,,,,,,,,,wwwwwwwwwwww;@. ",
" .,,,,,,,,,,,,,,,,,,wwwww,,,,,,,,,,,,,,,,,w,,,,,,wwwwwwwwwww;$. ",
" .,,,,;;;;;;;,,,,,,,,,,,,,,,,,,;;;;;;;,,,,www,,,wwwwwwwwwwww;$. ",
" .,,,,,,;;;;;;;;;,,,,,,,,,,,;;;;;;;;;,,,,,,wwwwwwwwwlwwlwljj,$. "
};
