/* XPM */
static char *magick[] = {
/* columns rows colors chars-per-pixel */
"64 64 63 1",
"  c #868686",
". c #9a9a9a",
"X c #9f9f9f",
"o c #b5b5b6",
"O c #b6b6b8",
"+ c Gray72",
"@ c #b9b9ba",
"# c #bbbbbb",
"$ c #bbbbbd",
"% c #c6c6cb",
"& c #c9c9cb",
"* c #cacacb",
"= c #c9c9cd",
"- c #cacacc",
"; c #cacacd",
": c #cbcbcc",
"> c #cbcbcd",
", c #cbcbce",
"< c #cbcbcf",
"1 c #cccccd",
"2 c #ccccce",
"3 c #cccccf",
"4 c #cdcdce",
"5 c #cdcdcf",
"6 c #cececf",
"7 c #ccccd0",
"8 c #cdcdd0",
"9 c #cdcdd1",
"0 c #ceced0",
"q c #ceced1",
"w c #cfcfd0",
"e c #cfcfd1",
"r c #ceced2",
"t c #cfcfd2",
"y c #cfcfd3",
"u c #cfcfd4",
"i c Gray82",
"p c #d0d0d2",
"a c #d0d0d3",
"s c #d1d1d2",
"d c #d1d1d3",
"f c #d2d2d3",
"g c #d0d0d4",
"h c #d1d1d6",
"j c #d2d2d4",
"k c #d3d3d4",
"l c #d4d4d5",
"z c #d5d5d5",
"x c #d4d4d6",
"c c #d5d5d6",
"v c Gray84",
"b c #d6d6d7",
"n c #d7d7d8",
"m c #e2e2e3",
"M c #e2e3e4",
"N c #e3e3e5",
"B c #e4e4e5",
"V c #e4e5e7",
"C c #e5e5e6",
"Z c #e6e6e7",
"A c #e5e5e8",
"S c #e7e6e8",
"D c Gray91",
/* pixels */
"                                                                ",
" X#######################$$$$$$$$$$$$#############+############o",
" Xwwwwww666::::66wwwwwwwwwwwwwwwwwwwwwwwwwwww66,:::,66wwwwwwww6%",
" XCCCCCCNmmmmmNVVSSVSSSCSSSSSSSSSSSSSSCSVSVSSSVNmmmmmNCCCCCCCCCC",
" XCCCCCCNmmmmmNVVSVSSSSSSSSCCCCCCCCSSSSSSVSVSSCNmmmmmNCCCCCCCCCC",
" XCCCCCCmmmmmmNVSVSVCSCCSSSCCCCCCCCSSSCCSCVSVSCNmmmmmmCCCCCCSSSS",
" XSCCCCNmmmmNNNCSSVCCCCCCCCCCCCCCCCCCCCCCCCVSVCNNNmmmmNCCCCSSSSS",
" XSCCCNNNNNNNNNVCVVVCCCCCCCCCCCCCCCCCCCCCCVVVCCNNNNNNNNNCCCSSSSS",
" XSCCNNNNCCCNNNCCCCCCCCCCCCCCCCNCCCCCCCCCCCCCCCNNNCCCNNNNCCSSSSS",
" XCCCCNNNCCCCCNNNCCCCCCCCCCNNmmmmNNCCCCCCCCCCNNNCCCCCNNNCCCCSDDD",
" XCCCCCCNNCCCCCNCCCCSSCCCCCNmmmmmmNCCCCCSSCCCCNCCCCCNNCCCCCCSDDD",
" XCCCCCCCNCCCCCCCCCCSSCCCCCNmmmmmmNCCCCCSSCCCCCCCCCCNCCCCCCCCSSS",
" XCNNNNCCCCCCCCCCCCCCCCCCNmmmmmmmmmmmVCCCCCCCCCCCCCCCCCCNNNCCCSS",
" XCNNNNCCCCSCCCCCCCCCCCNmmmmmmmmmmmmmmCCCCCCCCCCCCSCCNCNNNNNCCCC",
" X..............................................................",
" X##O#####$$$$######$####o###O#O##o#++###$######$$$$###########o",
" XOO#OOO#O##O#OO#O$##OO#Oooooooooooooo#O#O###OO####O#OOOO#OOOOOo",
" X::::::::66www7wwww7ww66:**********:66wwwwwww6www66::::::::::::",
" X:::::766wwwwwwwwuwwwwfw6:w66666::66wffwwwuwwwuwwww6666::777:::",
" X:::::66wwwwwwuuuwwwwffw66:666666666wffwwwuuuuwwwww666:::::::::",
" X%::::w:wwwwwwuujuwwfffww::66666:::6wfffwwujuuwwwww77:6::%:%*%%",
" X:::::77wwwwwjujuuffjjfw::wwwwwww:66wfjjfuuujjwwwwww76::::*:***",
" X::::6:77wwuwjjujjwfjxfw7:7wwffw7w76wfxjffujujjwuw777:6::::****",
" X:::::ww7uwuuujjujfjxxfwwwwwwjffww6wwfxxjfjujuuuuwuw77::::::***",
" X:::7:7w7wuwuuuujujkxxffwwffxxxjffwwffxxkkfjuuuwuuu7ww77:::::::",
" X:::77w7wwuuwuwuwjjkkkkfffjxxxxxjjfffjjkkkffwwwwwuww7w77:::::::",
" X::777wwwwujwffjfjxxxxxjjxxxnnxxxxxjjxxxxxkfjffuuuw7w77::::::::",
" X:::7wwwwwujfjxjxxxxxxxxxxxxnxnxxxxxxxxxxxxxjjjjuwwwww7w:::::::",
" X::6wwww7wwujxxxxxxxxxxxxnxnxxxnxnxxxxxxxxxxxxxjfwwwwuww:::::::",
" X::7wwwwwwujjxxxxxxxxxnxxxxnxxxxnxxxxxxxxxxnnxxxfwwwwwuw7::::::",
" X6:www7wwwwjxxxxnxxxxxxxnnnxxxxxxnnnnnxxxxxxnxxxfwwwwwwww:66:::",
" X:6www7wwwwfxxxnxxxxxnnnnnnnxffxnnnnxnxxxxxnxxxxfwwww7ww76:::::",
" X6:www7wwwwjxxxxnxxxxnxnnnnxxffxxnnnxnxxxxxxxnxxff6ww7www::::::",
" X:77wwwwwwwfxxxnnxxxxxxxnnnxxxxxxnnnnnxxxxxxnnxxfw6ww7ww7:76:::",
" X7:7wuwwwwwfxxxxnxxxxxxnxnxxxxxxxnxnnxxxxxxnnxxxfwwwwuww7::::::",
" X:::wwwwwwwfjxxxxxxxxxxxxxnxnnxxnxnxxxxxxxxxxxxjfww7wwww7::::::",
" X:::7www7wuujjjkxxxxxxxxxxxxxxnxxxxxxxxxxxxxjjjfjuwwwwww:::::::",
" X::::w7wwwujjfwffxxxxxxxxxxxxnxxxxxxkxxxxxjfjffwjuuww7ww:::::::",
" X:::77w7wwuuwwuwfffjjjjffffxxxxxxjfffkkjjjffwwuwuuwww77::::::::",
" X:::777wwwuwuuuujjjjxxffwwffjxjxffwwffxxjjjuuuuuwwww7w:7::::**:",
" X:::::w7wwwuuujujjfjxxfww6wwfjjfww6wwfxxjfjujuuuuwwww6::::::***",
" X::::::7w7wwuuujuujfjxfw6:7wwwwww:66wfjjfwjjujuuwuw76:6:::::%**",
" X::::6::wwwwuuuujuwfjjfw66:wwwwww6:6wfjjffuujjjwwwww:6:::::****",
" X:*:::66wwwwwwujuuwffffw6:6:w:w66:66wfffwwujuuww7ww7w:6:::%:*%%",
" X::::w666wwwwwuujuwwfffw66::6666:6:6wfffwwuuuuwwwww666::::::%::",
" X7::::w66wwwuwuwuuwwwffw6:6:666w::66wffwwwwwuuwuwww666:7:7:::::",
" X77w:7:66wwfwwwwwuwuwwww6666::::66:6wwwwujuwuwwwwww66:777777:77",
" X7ww77:6wwwjfwwwwwfjwww6:::::::::::66wwwjfwwwwwujwww6::7ww7:7w7",
" X7w7:77wwjfjffwwwwfwww6::::******::::6wwfwwwwwfjjffw6::77ww7www",
" X77::::wwjjjfwwwwwfjjw::************::wwufwwwwwjjjjww:::::7wuuu",
" Xw::::7wwjjfffwwwwwfww6:::********:::6wjjfwwwwfffjfww777:7wwfff",
" Xw77wwwwwwwffwwwwwfffww6:::******::66wwffjuwwuwfffwwwwww:7wffjj",
" Xwwwwwww77wfwwwwwufjjww66:::****::666wfjjfwwwwwwfw7:wwwwwwwfjjj",
" Xwwwwww::wwwww:wwujjjjfw66::****::66wwfjjffw777wwww7:wwwwwwjxxx",
" Xfwww7776ww7w7:77wujfjww6666:::::666wwfuuwww7:7w7www7:7wwwfjxxx",
" Xjww7:::6ww7:7ww7wwwwwffw6666666666wffuwuww7ww7:77w6::::wfjjjjj",
" Xjfww:::::77:7wwwwuwwjfuwwww6666wwwwjjuwwuwwuw77:7::::6wwfjjjjj",
" Xjjwww6::::::7uuuwwwujjjjuuw666wwuujjjwwwwuuuu7:::::::wwwfjjjjj",
" Xjfwjww:%%%%:7wuuuuwujhjhhuww66wuujhhjjuwuuuuw7:%%%::wwwjffjjjj",
" Xwwwww6::%%%%7wuuuwuuhhhhjjuuffwujjhhjjuuuwuuw7%%%%::66wwwfwfff",
" Xffffiiiiffffffffiiiiffffffifiiffffffffifiiffffwfffffiiiiffffff",
" X++++++++++O#+o++++++++#O+++++++++oO##o+++++++oO##o++++++++#o++",
" XXXXXXXXXXXXXXXXXXXXXXXXXXXXXXXXXXXXXXXXXXXXXXXXXXXXXXXXXXXXXXX",
"                                                                "
};
