/* XPM */
static char * brick_wall_xpm[] = {
"64 64 65 1",
" 	c None",
".	c #020204",
"+	c #46423C",
"@	c #716259",
"#	c #664E44",
"$	c #26221C",
"%	c #7E726C",
"&	c #574E4A",
"*	c #7E6657",
"=	c #67564C",
"-	c #36322C",
";	c #765A4C",
">	c #56423C",
",	c #675E5A",
"'	c #4E3A34",
")	c #16120C",
"!	c #7A6A60",
"~	c #5F5652",
"{	c #826E64",
"]	c #6E564C",
"^	c #76625B",
"/	c #5E4E44",
"(	c #443631",
"_	c #584A44",
":	c #362624",
"<	c #866654",
"[	c #4E4A44",
"}	c #967A6C",
"|	c #806A60",
"1	c #6A5A52",
"2	c #563E34",
"3	c #261A14",
"4	c #60524C",
"5	c #0E0A0C",
"6	c #8E786C",
"7	c #67524C",
"8	c #2E2A24",
"9	c #3E3A34",
"0	c #1E1A14",
"a	c #392E2C",
"b	c #0E0604",
"c	c #4F423C",
"d	c #705E54",
"e	c #2E261C",
"f	c #3E322C",
"g	c #7E5E54",
"h	c #5E463C",
"i	c #1E1614",
"j	c #9E7E74",
"k	c #2E1E1C",
"l	c #160E0C",
"m	c #56463D",
"n	c #4E3E35",
"o	c #766E64",
"p	c #6E5A50",
"q	c #77665C",
"r	c #463A34",
"s	c #060604",
"t	c #4F463C",
"u	c #262624",
"v	c #363634",
"w	c #765E54",
"x	c #261E1C",
"y	c #3E3634",
"z	c #86726C",
"((((((((((((((((((((((((((((((((((((((((((((((((((((((((((((((((",
"qt4q,dq!^!q{|,^|@q@@d,{{d!d^q@,@qn4dq|,{|!|1!{d@|d,|@,q!@@d{|qd@",
"^n&#p^pddpd@;=d^d=1ddpdd=dddpwp!~n/=4d1@11dpdpd=d=dd7@1d11=,p1dq",
"1c#&4;==pd1w114dwp1dd1pp=1==pd7q1n&/]=p=7dpd^1p1wp@d1p111=ddp@dq",
"dmcc44==1==14==@=d7=p/=~4=p4dd,ddc_4##p441==144d1====4p444d=]d^!",
"dt#_=44444=p===414&=14p==p=pd1]{w_>tt4d1#dp=74=44=p44p==7p/41=d^",
"d_m_m&4w]~4dd#==p/d4=1p=1pd=d11qdmcm4_=dd=417p==444&7p/d7p74p4dq",
"d>m>74/1==p==1d,dd7447=77===pdd{pm4_//=14p4=111=d14=4~=d1~p~pp1{",
"dtc/h4p#4p7==pw/=14/==~d7p=d1p={dn_m4;~#=ppp;dd7p==~=/1=d1]~#d=q",
"^cc__7===&=p/p1/p/=/4~7=1=]=d=p^qmm&/7=4411d=14/4/7==pp=1;11~~1|",
"dt_m_4&7#44p#&7/=#14#&_4/=774#=^@nnmt4/4&44///&44//_==#/4//7p=1*",
"^m/nmcc/c7_/4>_m/tm4mhmt_4_/__7dpmcmcm__c_#/_tm/h/_c/&_/mt&4_]~@",
"*c/c_>____m#/c_/#mmt_/_mcmcmt_4d@m&__chc_m__m>cm/_4tht&__n/#m7/d",
"((((((((((yy((y(y(((y(((((((((((((((yy(((((((((y(((((((((((y(((.",
"1_p_^=dw7^wm</1z/=m7=7cmw77+[#_dc#c7<dg#/]mw^;w=1c;/t~n&7]w&#t_g",
"d$9{&4g!dz{66/d{1{dd/~z}4{&]|~_&%5f#zz/z666_{}4@|][6,_o%,@=}6o#~",
"wbuacpp47h447r7;>n9&hmq_n4p4hp#^r.fhf7_wcr7n=&nm#9#tn//mt+t_#[md",
"h.('2]927t~7hrt=p_/;=72wt_>nm_r%+le$'2m&t]/11h;97_~=9=t4tnm/n#=d",
"+3$)e'cr'/'=+_:__m9nmf_vf&yn>=n=t.ef>nhff_rn;ny=7c7h4'&'ny]=#~4{",
"gel)n8(r_(r>fyt1(=((_a-2:n79=_&4#3ea$$2f-mnyvyft'2'fvfhvf:+anh=q",
"&l(:'(9yf:n_c>r:_-8m>f7cccrh4>n}p:l)3'1_a=_hnac8-v_nvhnc+]af[n/=",
"/kiuiuf7h+:_/ar+>84ar+mn>m=(7>&1/3)0fef#7r82'>nhvauer[a/(mn(>r&@",
"7i0l'y8_n9#n+m7/#79rf(mfr2nrm/7z/3f$88rca_fntmc(#_yr89(7n9m94cm%",
"me)a38_a:=fn_m78'#va2rr7a_n#+m>6tsa3a#tft__c#17n#mr+t:t>7t'9:7m=",
"].5:x2hm_8nna#&ah8f--+r(_(m'7+>]^xia:nteecm#'_r:-8mmv>7n'#&+f+c{",
"di)efff-(:n4x+'$#fh8naa_fc'n>ynq^llx:r8++>n_f9uva(ea#_8'/n(__y_{",
"_$85):3'u2f('iafa8'ni$e3$fnfx:(_m.s$5a9(i$80:a8'(efif(a8$k8e2h[p",
"^ka.3.lk5a38a):58llfeil0efl8ax(~&:i05)5i5af-:b5$la$i$3ia)):y0'f&",
";)fiak8$ak)f:l0(ax3)kffil)iil$(/;ie:el:lai33ik)3fk-i30:xa5a:x'a_",
"#)k)b)35ilx)):))bx).s:).)k)lxei3#:s5l)$)l..))5.kk3)k$3e5).0il.k0",
";]mt]~;4#7_w;w7/n9#~>wh;mmw__=]~+7p;c;]1#^#&]q=;+#7t7#_;;~7~7h]@",
"^]{{~|64_{gz}6,{%$7_@,^=%pg}/6o!z^/^|}#|qjq4dp{zz)9|{qz%~q/~~d%{",
"~7^qh/9]#_7r_9h,/l888+=4t=4##/+r/m/#=4#4_m;/+cn6;)(fh#g+[+9+v~[_",
"#=]h4#47>+1;m]t^13x8:r497#+n/_ty=_w47;w#2#>]2];7m)$$2=4#y[[r_rcn",
"7_74h#;t]>=t#]+q;00$8n>yrh>1t>m_4y1=7>r#y/m>m/wz7lia:f>7-[[+c279",
"/f#r4/n(++/f'_n6,)a3(y889-/a7a>hfym#f1yn99n:y7c=*3axefc9+&[r&>97",
"+m9y4amc##_>~=c=#.)x0yy_'v#_a79h8:9r'-1(r4+>n/_=m3l:ea82mva8f/ay",
"(4r>>hrnfy'r>;;6#)aa(8:t8hf(~#c-a[r9[:faa94&+~7q2ex0:8uy8ma[t4ta",
"y7--ann7rfyr]=p~#5ak'u_:9yh824f&_~y#t9=f~(4_rn=6]l8xa98vtv8an4+f",
"cm_'+9am_:ta2pp{=l:5axer(y'rm-m8v9_r-_(n8-_tr79,>5)$)+899+9#a_rf",
"nf_:;#_'[#f'97h%7xa30y='7_cfh8r9:[ra#ff'>_c_+_[{&$5)yvraya=a>_nv",
"8nmmf(f(fr+'_rn6^3))ff82'arafn9(e__n$mu9aeua8-9%&ie)i9a+nnn$eah>",
"fi:n)nmexexf>h#~;)i5:$$$xai8ka$$ie$(ifffirxu0:-@~b5)ai)u)i':$9:)",
")5n)f0)laixf3radr.e5)l8553$xe$i:f:335(3$f:luaxvg])00$5$)$5lu)))x",
")i03fe5ki0f3):(&h3303)ak)35lafi:8:3e$3f$$)il5$89ml$5ll$xulek)x0a",
").ixl.5)):.).3)fv5xs)llx)5k..b.)s3$x:xk5i5ill3i-nix0)53x.i.x553l",
"hv_+&;]g7#_+;]=6#__g^r/w#~7c__7*hy__7pp&^t==~_;qw#+&[&w;=^7t_m]~",
"~a_96q1!q4|dj|46|o~~d166=^6p&{1@^fg~_%=!d|{_/}pz/~![=oz#j6|6zz~7",
"#)e$yn7mh~w#;>mm7##+/_p&[m7n2[>6=3:rm&9&[7pnyt7~+m9=>~4wmm_1h9np",
"~b0ae+9t=>9;m+mnrr>2>cvch/rhp]cd]i)399;pn#t&ccymr1n[__1#n>79[9+@",
"]x)8'mfr(rn>>9m;rmfv(>_m/m'v]'p{gs03>(:9=f[:9y9c:a297r;f-#>>h4to",
"&l)x$n2=f(c9't_y7/m>-#+&8+>hm_;@;s:$'98#_:_[a-9a&--_7+nfam9>(9_|",
"^be:)h9fa#_h+((-7(#'r#7_rf_'>+/~=sal0m_+9uv[[n899+:vayyrr:m+yn~p",
"m3ai8'2a+r#4ac9-v8mv+(9_-2ynn#c~;s8xfnnnvy8:t:-t:a8r-mat8tmcc7t=",
"_5-i8arf#/8m_':(ma#_-cf9a4#8n=4^_3):x9(>ny+t[tu8&tvm:n2_m+en_c9^",
"].-e:#ma8>'c7am(8_fh_8a4&aa/nr]~#ex$afr#c-v9v8-8[8vt4c+fym/r_nn{",
"&k3:9h-m#9_n_f87_#+ahn9-a:_n_#7dc5lf8$ncyy[:aa+a[-$9nt2uc8t9(='{",
"ci-i:(r9fa/#>>'ya#n88:_af(amh___/0iix$:'(8u+0+-au$9$nf2>9(t-a/[~",
"+)08f(ek:aef8i88'>e_efa30a8':f__73a)0fxaf'i$x)$i-8)xr20$kxa8x2+p",
"_l)50.x:u0:lf$:i$f3y):)f)x8((3(|mll5x)(l5a8x80008305uu5)f:a$f)'|",
"#):xlxe:l)0)fiae5)f)5$i0)fl3a($m9)$aauiaa$li0aix)u505)fx)x5a3-:m",
"()x0.5ei)u$li))55x5:5b.ii53i3)3$r555be55b:i555b5..i)xix)5xlss.lu",
"gw&&+/*7/w#=pmm==#7_^_m=+==_+4n{+>h_+hm_[=t_&=]~++mc#pc7/+&&~r7z",
"o7z&&6z66zj{6/6c}$/{7q_|]=_q^,_@wqpgq@/&g_p//{4q~sttdq,o,@!,o4/~"};
