/* XPM */
static char *magick[] = {
/* columns rows colors chars-per-pixel */
"64 64 65 1",
"  c #6565b3",
". c #6666b6",
"X c #6666ba",
"o c #6565bd",
"O c #6767bf",
"+ c #6969b6",
"@ c #6a6aba",
"# c #6a6abe",
"$ c #6d6dba",
"% c #6d6dbe",
"& c #6666c2",
"* c #6666c5",
"= c #6666c9",
"- c #6666ce",
"; c #6969c1",
": c #6868c3",
"> c #6a6ac3",
", c #6868c6",
"< c #6a6ac6",
"1 c #6d6dc2",
"2 c #6e6ec5",
"3 c #6969c9",
"4 c #6b6bc8",
"5 c #6a6aca",
"6 c #6a6acd",
"7 c #6c6cc8",
"8 c #6d6dcb",
"9 c #6e6ec9",
"0 c #6c6ccd",
"q c #6f6fcd",
"w c #6f6fcf",
"e c #6666d1",
"r c #6a6ad1",
"t c #6a6ad5",
"y c #6d6dd1",
"u c #6e6ed3",
"i c #6e6ed5",
"p c #6e6ed9",
"a c #7171c1",
"s c #7171c6",
"d c #7575c6",
"f c #7070ca",
"g c #7272c9",
"h c #7070cc",
"j c #7070ce",
"k c #7272ce",
"l c #7575c9",
"z c #7575ce",
"x c #7979cc",
"c c #7070d0",
"v c #7070d3",
"b c #7373d2",
"n c #7272d5",
"m c #7575d2",
"M c #7676d5",
"N c #7272d9",
"B c #7272dd",
"V c #7575d9",
"C c #7676dd",
"Z c #7979d3",
"A c #7979db",
"S c #7575e2",
"D c #7979e3",
"F c Magenta",
"G c None",
/* pixels */
"GGGGGGGGGGGGGGGGGGGGGGGGGGGGGGGGGGGGZxVCzlVvnafyp9p5<<6>5t6$9ypf",
"GGGGGGGGGGGGGGGGGGGGGGGGGGGGGGGGGGGGSVCVSfkva%2%1#t<56<t>>y%9ypn",
"GGGGGGGGGGGGGGGGGGGGGGGGGGGGGGGGGGMSmddnNvsfp2y05@<<555<>@y9200v",
"GGGGGGGGGGGGGGGGGGGGGGGGGGGGGmmmlMddVfnfNfy1p%>5#>5<<>>##t99pfas",
"GGGGGGGGGGGGGGGGGGGGGGGGGGGzVSzzzBdvnkvfkp29y><>#r>5><#5@>99p1vn",
"GGGGGGGGGGGGGGGGGGGGGGGGGBVzzlbblkBfsnk209%$>5565<t66>>+<>0ykfss",
"GGGGGGGGGGGGGGGGGGGGGGGGNvvndanfsanfkkp02y96#*>5O>*O>5#<>5yyi0fv",
"GGGGGGGGGGGGGGGGGGGGGnNsknmvkNSknNsvp90%10<5<+-O>5O<*5>56#9%2y2v",
"GGGGGGGGGGGGGGGGGGvkkNvknaNmfknsNfip022095>><>X=O.=6<*5r<r99$y00",
"GGGGGGGGGGGGGGGGGk0kayvNfkfnnvanvvva1i995@@+Ot=O=X=&.5<5#6>12%kf",
"GGGGGGGGGGGGGGG11ffyapssBsakavkffap2y2056>56O.-&O=OX&56&<<>yy99y",
"GGGGGGGGGGGG%9%0yy02asasvNafvvafpp0112#55#<OX O=OO.*-t<>#6@5$iy$",
"GGGGGGGGGGGr01$2902k0vyBsNkvvkv$fky900>>r6&-&*=-XO*-&*5><6r>50yy",
"GGGGGGGGG#55>>99%1y122kaNaafvfBfvyy9$>r55OO<&XeO&&.==&e5#+@r<t90",
"GGGGGGG5>+>6t51y1yy90ykkfpkNsvv0f29y%@r<6<Oe==OO*Oe*..OO>>6><t#@",
"GGGGGGG+6<#r6<p9%2211faBkBvfffk229yt556>5>O>X--e* X&==*=+<5@+5#<",
"GGGGGG><#<5#r+5$p1%920kfvfkvk0f220i6<><56OO*.=-OO&=O*&O=O<O@5<5<",
"GGGGG>t655<@@>#099yp2pvkvsvksak09y115>r+*e- -*&O&=OOO.&=*>Xr#<#6",
"GGGGGrr#5>t>>#9y09yyy0fvvkkvvyf0v9%#t>5>5=OO-X*=*.*O.*=-=6e<>>6@",
"GGGG>656>>r6r22yi$90k0fkvkipky219$$>t<#5O*O= =O.oX&OO-.&XO-&@65#",
"GGGG>6<<<>@#@y1%9$102svpvkvvpy2$9yyr<6>6O&OO*==&== &&OOXO><+>>6@",
"GGGG>r6+r56y0y2y0yif0fksasf12piy91#5rt<+.*&&O&.-XOO*&O-=&O>##5@r",
"GGG66<<<r%9%99909yffksafakffiy09$9r@r65e=X*& O..=o.=O*e5<5656#<5",
"GGGp$0919%99y20$iiyfvvkkkv%1i9y0t@5t*<5tO<=O&&XO*&=O-*5X5@665r60",
"GGG912%9p%91k92p2yvkkvfsf0vy2091%##>#><O-*-=X-O*-O-*<O5>5#<>@19i",
"GGyi$%y202929yvypsv$fkav2ff29yy1#>>rrO>=>=OeX-=--<&66<#5665%9y2i",
"GG%9$011$0fffvk0aspvav0ki09%0y1<#<>>>>O-OO>*<&&>5<>>><6562y%y090",
"GGfpa02pyf0pp202ffvsfva0%y1$y0#<<5#>->.=*=.*--e5>5&6>6r9%922y99f",
"GGvkk0afvkk1fkk$fsafk90y9v1%9555##5<-.&>&=->5Oe6*555ty99y0yy9vvv",
"Gkskkkavavvffvvv2$20099p1p09>>5>6>O+&O.=*=>eO+r#<r<11%90kfivvfNf",
"GNfsvvffvBvvks9f0p$i$21%00y>@5t<X<OXO<-=OO5<><trr01y0p2pkvvNfkak",
"GknsfNvfviaaayy0y09k90%9pr5<5#5OO=--O&&e>6e6656>919%i9vvkfsmvmzd",
"GVkmfvfNkpsaf10yy992y0y566@@&>5-*X=. -*<-556r>ty9yy0fvnaBfnvzmvd",
"Gvnnmfvkkffk099y90$09555<<5<>*&>eOe=OX*5O6#@6>yy9p0kkfvmNVlvCzzz",
"GVdvBnnvsa0i9991%995@6@r656.&*.O- &*O- >5>55t2y0askkkNvdnmVzVCMC",
"mmnsfnsf20%9y09y1@>>6+#<>X.-&&= O*&X=O>556>r1iyfsfnkkvlCmVzClMdm",
"CVzbkvsa0k10%t$#65<@5O6O=.-**e&&&=e=&>OX>65902ipNNkmdvVMzVCCCzMC",
"MSnsfvii0y299>>@<665+&OOe&=*X=*&X-.O*5X<>6t9y$fvvkkvmzlmVMmMCmlz",
"mVNNfsyy199<5<65+5<.Oe=O  O.&e X*&OeX&>#+2%90fvffkzdVMMSmCmzzMlV",
"MkNkkf09%%##<>5>5X*** .&=.O&.*oo**&.5O@r5y99ykkvfmVllMMMlzVCmMdl",
"dank2099t#<&X>.-&..*X&o=o**&&.* .=OXX5t#0yiavNNNVzmmlzzVMzVMlMCz",
"vfk229%5>>5+5..*.X& OOo&oo**O-&*OXX<>5590%affNNzvMmVVMCzCCzzSmCz",
"faa99y<#<5O<O*.-=*O.-& o* OO=X-=-O<5>509y2kkkBNndSdzmmCVmmzCVlnv",
"fpy296@>>&=&&=O**=OXXooo &oX X&..>55>6%90af0fNzVdMSMlVVMVMlzmvNk",
"k009<6rO&&OOO&*Xo**O*.O&.**O*.e-5+@#01y1vvNBkldlzmCSmCVMzMlVBNNk",
"a292@@>5O.**&O&o&Xo oX =OO.*.&=<#@509902vvsnzzCCVMCdMMzVMzanfkvp",
"99%@<6>eOoO=& o*& oX*= oO***XXO++r120yksvfnznCVCVmmmMllzdnaNskap",
"2%#5*>>OX===.&o.o-*&=o=oO...O>@<t5992kNaknmSVSdzdMlzmdzsBskknky0",
"29rt@5O.X.&.X  -*=-XX& -&*>O<<512901sBnsmvvmSVMCzmVVzmNvknvfp099",
"966>5OXO*XO&.X=O.OX*=-=e>O+@@59990asfNkfBMzmdMVVmVlVdvNkavff929%",
"#><#5X=O.>=XX.OO.XXO<O><><<#9999vaknnBnvlCzCMCzMmmvnfkkva2k%9y9$",
"665>r+>XOO*&XX-OOO>Xerrr>5$1y91vfNsNmzlVMMSMCMMzldknknfs2999%9%y",
"@t6r6<X>OO><><5O<6r55@55t99i0fpkNkfVVmzCMmzlCMzVvvkvvsk02p099#t5",
"6+@<>5><*t#<<*5r5>r5r0191iyyknnafvzzmVDVlMmlMlVzmnmvkkp22y9##>r5",
">r<t565><66>>66@<#19199kyfvsfkklzVCzmzMzVCMldMVVSkNnfi2yp90+5t5t",
"656@<>@@65@@<9%90269i1yyvBNvkvSCVlMVMAZxDZMMMdVzNvNsay0yp5@5>>@r",
"5#>#55y%09912992yi9fyavfkffvSdzMMCxAxADCCZMxlzlmfksf99$p>5>@rt55",
"991911y%y099011vy9kkavfnBnmVmCMMZZDZxZDDZZdmVCzNNvk0090@>>r<r##<",
"00%9y0y902pf0yvffsvkNssvdCmzMCdAZZZAZZAZCAlMmmfBak92y99<r55>r5t0",
"2299i9a0ivfsfskvafkmknlmmzlzCAZZAAAZAZDZDDCSmlvkfa29$%5>r6@5>>%2",
"0ky$0fkkvvfvkmkfvNfVvzmMzzCZZMAxZADAAAAAACmSzVkkff9y9%#r6@>#<999",
"0iikfkffnnBffvvkvzzzmzmlVMAAAxADADAADDxxxxMVvkkks01925#>55>#009i",
"vknnvkakkBkSvsVnVdVMSCVMZAxZZDZZxDADAZZxMmdzvfvfv9yi00t556ry1yi2",
"NnvnBnBBvVzzmmSdCCmlCMMDAAZDZAAxxDZxADZZMCCzNfaf20%%16rtt%y90y0k"
};
