/* XPM */
static char *window[] = {
/* width height num_colors chars_per_pixel */
"    64    64       64            1",
/* colors */
". c #3d3d3d",
"# c #2a3a50",
"a c #334355",
"b c #3a5370",
"c c #454545",
"d c #424242",
"e c #4d4d4d",
"f c #494949",
"g c #454c56",
"h c #545454",
"i c #5c5c5c",
"j c #4b5462",
"k c #585e67",
"l c #4a5c77",
"m c #596374",
"n c #626263",
"o c #616161",
"p c #646464",
"q c #666666",
"r c #69696a",
"s c #6d6d6d",
"t c #65676c",
"u c #696c74",
"v c #777777",
"w c #757575",
"x c #797a7a",
"y c #7e7e7e",
"z c #7c7c7d",
"A c #717172",
"B c #757a87",
"C c #6b728d",
"D c #5479a3",
"E c #5a7090",
"F c None",
"G c #798492",
"H c #6c83ae",
"I c #828282",
"J c #858585",
"K c #898989",
"L c #8c8c8d",
"M c #848489",
"N c #8a8d96",
"O c #939393",
"P c #9c9c9d",
"Q c #818aa7",
"R c #8c93a5",
"S c #989aa4",
"T c #9597b1",
"U c #a1a3a4",
"V c #aaaaac",
"W c #b4b4b4",
"X c #abadcd",
"Y c #c3c3c3",
"Z c #dadada",
"0 c #e5e5e8",
"1 c #e4e4e7",
"2 c #e9e9ec",
"3 c #eaeaed",
"4 c #efeff2",
"5 c #f3f3f7",
"6 c #f1f1f4",
"7 c #f5f5f9",
"8 c #ffffff",
"9 c #fafafe",
/* pixels */
"FFFFFFFFFFFFFFFFFFFFFFFFFFFFFFFFFFFFFFFFFFFFFFFFFFFFFFFFFFFFFFFF",
"FFFFFFFFFFFFFFFFFFFFFFFFFFFFFFFFFFFFFFFFFFFFFFFFFFFFFFFFFFFFFFFF",
"FFFFFFFFFFFFFFFFFFFFFFFFFFFFFFFFFFFFFFFFFFFFFFFFFFFFFFFFFFFFFFFF",
"FFFFFFFFFFFFFFFFFFFFFFFFFFFFFFFFFFFFFFFFFFFFFFFFFFFFFFFFFFFFFFFF",
"FFFFFFFFFFFFFFFFFFFFFFFFFFFFFFFFFFFFFFFFFFFFFFFFFFFFFFFFFFFFFFFF",
"FFFFFFFFFFFFFFFFFFFFFFFFFFFFFFFFFFFFFFFFFFFFFFFFFFFFFFFFFFFFFFFF",
"FFFFFFFFFFFFFFFFFFFFFFFFFFFFFFFFFFFFFFFFFFFFFFFFFFFFFFFFFFFFFFFF",
"FFFFFFFFFFFFFFFFFFFFFFFFFFFFFFFFFFFFFFFFFFFFFFFFFFFFFFFFFFFFFFFF",
"FFFFFFFFFFFFFFFFFFFFFFFFFFFFFFFFFFFFFFFFFFFFFFFFFFFFFFFFFFFFFFFF",
"FFFFFFFFFFFFFFFFFFFFFFFFFFFFFFFFFFFFFFFFFFFFFFFFFFFFFFFFFFFFFFFF",
"FFFFFFFFFFFFFFFFFFFFFFFFFFFFFFFFFFFFFFFFFFFFFFFFFFFFFFFFFFFFFFFF",
"FFFFFFFFFFFFFFFFFFFFFFFFFFFFFFFFFFFFFFFFFFFFFFFFFFFFFFFFFFFFFFFF",
"FFFFFFFFFFFFFFFFFFFFFFFFFFFFFFFFFFFFFFFFFFFFFFFFFFFFFFFFFFFFFFFF",
"FFFFFFFFFFFFFFFFFFFFFFFFFFFFFFFFFFFFFFFFFFFFFFFFFFFFFFFFFFFFFFFF",
"FFFFFFFFFFFFFFFFFFFFFFFFFFFFFFFFFFFFFFFFFFFFFFFFFFFFFFFFFFFFFFFF",
"FFFFFFFFFFFFFFFFFFFFFFFFFFFFFFFFFFFFFFFFFFFFFFFFFFFFFFFFFFFFFFFF",
"FFFFFFFFFFFFFFFFFFFFFFFFFFFFFFFFFFFFFFFFFFFFFFFFFFFFFFFFFFFFFFFF",
"FFFFFFFFFFFFFFFFFFFFFFFFFFFFFFFFFFFFFFFFFFFFFFFFFFFFFFFFFFFFFFFF",
"FFFFFFFFFFFFFFFFFFFFFFFFFFFFFFFFFFFFFFFFFFFFFFFFFFFFFFFFFFFFFFFF",
"FFFFFFFFFFFFFFFFFFFinppnnqnnpoppqnnpnpnnpppqnpnqFFFFFFFFFFFFFFFF",
"FFFFFFFFFFFFFFFFFFFqicihr..q.oiio.r.oiqipi.oi.odFFFFFFFFFFFFFFFF",
"FFFFFFFFFFFFFFFFFFFoqnocnocppndqocnopopniqpooopnFFFFFFFFFFFFFFFF",
"FFFFFFFFFFFFFFFFFFFyJyLIyUcPxUfUVfPnOfJIhxixxxvvFFFFFFFFFFFFFFFF",
"FFFFFFFFFFFFFFFFFFFzIIJKL.YUcJYWVUP.rOKnzIiyxxvAFFFFFFFFFFFFFFFF",
"FFFFFFFFFFFFFFFFFFFwffLOM698888888955664444YcvfxFFFFFFFFFFFFFFFF",
"FFFFFFFFFFFFFFFFFFFcxKOJK598888888955664444IeLqvFFFFFFFFFFFFFFFF",
"FFFFFFFFFFFFFFFFFFFvIpcLr578888888955566444svwxcFFFFFFFFFFFFFFFF",
"FFFFFFFFFFFFFFFFFFFiKiOKv579888888755556444PzvwcFFFFFFFFFFFFFFFF",
"FFFFFFFFFFFFFFFFFFFAIIJJq577988887755556443zyzvnFFFFFFFFFFFFFFFF",
"FFFFFFFFFFFFFFFFFFFJJJhPK57779997777555664OIhAiAFFFFFFFFFFFFFFFF",
"FFFFFFFFFFFFFFFFFFFJiLOoL57777777777555664LIhIevFFFFFFFFFFFFFFFF",
"FFFFFFFFFFFFFFFFFFFxJLJLJ57777777775555644LyzxxAFFFFFFFFFFFFFFFF",
"FFFFFFFFFFFFFFFFFFFFJzLOw55777777755556644zIyxyrFFFFFFFFFFFFFFFF",
"FFFFFFFFFFFFFFFFFFFFzoOOp55557775555566444LyvyyzFFFFFFFFFFFFFFFF",
"FFFFFFFFFFFFFFFFFFFFIrnKP65555555555566444sxJJYFFFFFFFFFFFFFFFFF",
"FFFFFFFFFFFFFFFFFFFFyrcJI65555555556666444dynwrFFFFFFFFFFFFFFFFF",
"FFFFFFFFFFFFFFFFFFFFJOfKJ66665556666664444dyyxvFFFFFFFFFFFFFFFFF",
"FFFFFFFFFFFFFFFFFFFFyvzIc46666666664444444zyczoFFFFFFFFFFFFFFFFF",
"FFFFFFFFFFFFFFFFFFFFyfyKckENNNMMkBLNMQQBGuxycceFFFFFFFFFFFFFFFFF",
"FFFFFFFFFFFFFFFFFFFFxIJIzQQRDXSUGATXPzRBNLxyvzvFFFFFFFFFFFFFFFFF",
"FFFFFFFFFFFFFFFFFFFFIzxKxgyubxIIIIKByygrxvwxLvMFFFFFFFFFFFFFFFFF",
"FFFFFFFFFFFFFFFFFFFFIxzWImxyb#hyGxBztgBlvvswAwhFFFFFFFFFFFFFFFFF",
"FFFFFFFFFFFFFFFFFFFF.OvyL00000000000010110AAsv.FFFFFFFFFFFFFFFFF",
"FFFFFFFFFFFFFFFFFFFFIxycv11000000011111111AvOAfFFFFFFFFFFFFFFFFF",
"FFFFFFFFFFFFFFFFFFFFwpZvx33333333333332222vOyAcFFFFFFFFFFFFFFFFF",
"FFFFFFFFFFFFFFFFFFFFwsevf33333333333333333fssAiFFFFFFFFFFFFFFFFF",
"FFFFFFFFFFFFFFFFFFFFxvcvv33333333333333332vvwwAFFFFFFFFFFFFFFFFF",
"FFFFFFFFFFFFFFFFFFFFwssyv33333333333333222AwsxAFFFFFFFFFFFFFFFFF",
"FFFFFFFFFFFFFFFFFFFFsKAsZ22222222222222222wOAyrFFFFFFFFFFFFFFFFF",
"FFFFFFFFFFFFFFFFFFFFsAwJp01001100010000010sOs.wFFFFFFFFFFFFFFFFF",
"FFFFFFFFFFFFFFFFFFFFpAAOcOBQPUIRPlBREHHTPRwsscvFFFFFFFFFFFFFFFFF",
"FFFFFFFFFFFFFFFFFFFFecwscVSSbWVCPUbXDVVVVGPfAAKFFFFFFFFFFFFFFFFF",
"FFFFFFFFFFFFFFFFFFFFresAnupkrotarpACarltSrUdwsnFFFFFFFFFFFFFFFFF",
"FFFFFFFFFFFFFFFFFFFFAcAcrrAtlrirCi#kmArltknswsdFFFFFFFFFFFFFFFFF",
"FFFFFFFFFFFFFFFFFFFFFajjjtrsrkarirCggurujroyEtFFFFFFFFFFFFFFFFFF",
"FFFFFFFFFFFFFFFFFFFFFFFFFFFFFFFFFFFFFFFFFFFFFFFFFFFFFFFFFFFFFFFF",
"FFFFFFFFFFFFFFFFFFFFFFFFFFFFFFFFFFFFFFFFFFFFFFFFFFFFFFFFFFFFFFFF",
"FFFFFFFFFFFFFFFFFFFFFFFFFFFFFFFFFFFFFFFFFFFFFFFFFFFFFFFFFFFFFFFF",
"FFFFFFFFFFFFFFFFFFFFFFFFFFFFFFFFFFFFFFFFFFFFFFFFFFFFFFFFFFFFFFFF",
"FFFFFFFFFFFFFFFFFFFFFFFFFFFFFFFFFFFFFFFFFFFFFFFFFFFFFFFFFFFFFFFF",
"FFFFFFFFFFFFFFFFFFFFFFFFFFFFFFFFFFFFFFFFFFFFFFFFFFFFFFFFFFFFFFFF",
"FFFFFFFFFFFFFFFFFFFFFFFFFFFFFFFFFFFFFFFFFFFFFFFFFFFFFFFFFFFFFFFF",
"FFFFFFFFFFFFFFFFFFFFFFFFFFFFFFFFFFFFFFFFFFFFFFFFFFFFFFFFFFFFFFFF",
"FFFFFFFFFFFFFFFFFFFFFFFFFFFFFFFFFFFFFFFFFFFFFFFFFFFFFFFFFFFFFFFF"
};
