/* XPM */
static char * wood_post_right_xpm[] = {
"64 64 8 1",
" 	c None",
".	c #8D5C00",
"+	c #754B00",
"@	c #7D5100",
"#	c #855700",
"$	c #895B00",
"%	c #322100",
"&	c #000000",
"                                                        .++@#$  ",
"                                                        .++@#$  ",
"                                                        .++@#$  ",
"                                                        .++@#$  ",
"                                                        .++@#$  ",
"                                                        .++@#$  ",
"                                                        .++@#$  ",
"                                                        .++@#$  ",
"                                                        .++@#$  ",
"                                                        .++@#$  ",
"                                                        .++@#$  ",
"                                                        .++@#$  ",
"                                                        .++@#$  ",
"                                                        .++@#$  ",
"                                                        .++@#$  ",
"                                                        .++@#$  ",
"                                                        .++@#$  ",
"                                                        .++@#$  ",
"                                                        .++@#$  ",
"                                                        .++@#$  ",
"                                                        .++@#$  ",
"                                                        .++@#$  ",
"                                                        .++@#$  ",
"                                                        .++@#$  ",
"                                                        .++@#$  ",
"                                                        .++@#$  ",
"                                                        .++@#$  ",
"                                                        .++@#$  ",
"                                                        .++@#$  ",
"                                                        .++@#$  ",
"                                                        .++@#$  ",
"                                                        .++@#$  ",
"                                                        .++@#$  ",
"                                                        .++@#$  ",
"                                                        .++@#$  ",
"                                                        .++@#$  ",
"                                                        .++@#$  ",
"                                                        .++@#$  ",
"                                                        .++@#$  ",
"                                                        .++@#$  ",
"                                                        .++@#$  ",
"                                                        .++@#$  ",
"                                                        .++@#$  ",
"                                                        .++@#$  ",
"                                                        .++@#$  ",
"                                                        .++@#$  ",
"                                                        .++@#$  ",
"                                                        .++@#$  ",
"                                                        .++@#$  ",
"                                                        .++@#$  ",
"                                                        .++@#$  ",
"                                                        .++@#$  ",
"                                                        .++@#$  ",
"                                                        .++@#$  ",
"                                                        .++@#$  ",
"                                                        %@@@$%  ",
"                                                         &&&&   ",
"                                                                ",
"                                                                ",
"                                                                ",
"                                                                ",
"                                                                ",
"                                                                ",
"                                                                "};
