/* XPM */
static char * wood_railing_v_right_xpm[] = {
"64 64 46 1",
" 	c None",
".	c #7B5200",
"+	c #785000",
"@	c #734D00",
"#	c #6F4900",
"$	c #6D4700",
"%	c #644000",
"&	c #5C3B00",
"*	c #644100",
"=	c #6E4800",
"-	c #785100",
";	c #7C5300",
">	c #7D5400",
",	c #795000",
"'	c #724C00",
")	c #704900",
"!	c #664200",
"~	c #613F00",
"{	c #664400",
"]	c #6D4800",
"^	c #7E5500",
"/	c #774F00",
"(	c #744D00",
"_	c #714C00",
":	c #6E4900",
"<	c #694500",
"[	c #684300",
"}	c #6F4A00",
"|	c #744E00",
"1	c #795100",
"2	c #7B5300",
"3	c #754F00",
"4	c #734C00",
"5	c #714A00",
"6	c #6C4700",
"7	c #714B00",
"8	c #764E00",
"9	c #764F00",
"0	c #704A00",
"a	c #6B4700",
"b	c #795200",
"c	c #6D4900",
"d	c #7A5200",
"e	c #6B4600",
"f	c #765000",
"g	c #754E00",
"                                                   .+@#$%&*=@-;>",
"                                                   .,')$!~{]@-;^",
"                                                   ;/(_:<[<}|12>",
"                                                   ;134566$781;>",
"                                                   ;13@5$$]'91;>",
"                                                   ;13(066]_/1;>",
"                                                   ;13@0$$]'91;>",
"                                                   ;13(5$a]_91;>",
"                                                   ;b3@5$$]'91;>",
"                                                   ;b3@5$$]_91;>",
"                                                   ;b3@5$6]'/1;>",
"                                                   ;b3@5$$]'91;>",
"                                                   ;b3(066]_/1;>",
"                                                   ;b3@0=$c'91;>",
"                                                   ;b3(5=6c'91;>",
"                                                   ;b3@5=$c'912>",
"                                                   ;b3@5=$c'912>",
"                                                   ;b3@5=6c'91;>",
"                                                   ;d3@0=6c'91;>",
"                                                   ;d3(0]ec'912>",
"                                                   ;d3@0=6c'912>",
"                                                   ;d3(0=6c'9-2>",
"                                                   ;d3@0=6c'912>",
"                                                   ;d3@0=6c'912>",
"                                                   ;d3@0=6c'91;>",
"                                                   ;d3@0=6c'91;>",
"                                                   ;d3(0]ec'912>",
"                                                   ;d3@0=6c'912>",
"                                                   ;d3(0]6c'9-2>",
"                                                   ;d9@0]6c'912>",
"                                                   >d9@0]6c'912>",
"                                                   >d9@0]6c'91;>",
"                                                   >d9@0]6c'91;>",
"                                                   >d9(0]ec'912>",
"                                                   >d9@0]6c'912>",
"                                                   >d9(0]6c'9-2>",
"                                                   >d9@0]6c'912>",
"                                                   >d9@0]6c'912>",
"                                                   >d9@0]6c'912>",
"                                                   >d9@0]6c'9-2>",
"                                                   >d9(0$e:'9+2>",
"                                                   >d9@0]6:'3+2>",
"                                                   >d9(0]6:'9+.>",
"                                                   >d9@0]6:'3+2>",
"                                                   >d9@0]6:'3+2>",
"                                                   >d9@0]6:'9+2>",
"                                                   >d9@0]6:'3+2>",
"                                                   >d9(0$e:'9+2>",
"                                                   >d9@0]6:'3+2>",
"                                                   >d9(0]6:'9+.>",
"                                                   >d9@0]6:'3+2>",
"                                                   >d9@0]6:'3+2>",
"                                                   >d9@0]6:'9+2>",
"                                                   >df@0]6:'3+2>",
"                                                   >df(0$e:'9+2>",
"                                                   >df@0]6:'3+2>",
"                                                   >df(0]6:'9+.>",
"                                                   >df@0]6:'3+2>",
"                                                   >df@0]6:'3+2>",
"                                                   >d9@0]6:'9+2>",
"                                                   >df@0]6:'3+2>",
"                                                   >df(0$e:'9+2>",
"                                                   >df@0]6=49+2>",
"                                                   >.+g'}60(9-2>"};
