/* XPM */
static char * wood_sign_right_xpm[] = {
"64 64 50 1",
" 	c None",
".	c #6A5204",
"+	c #866A1C",
"@	c #9E720C",
"#	c #6E5E34",
"$	c #A67A04",
"%	c #926E14",
"&	c #7E6224",
"*	c #A67204",
"=	c #765604",
"-	c #665A34",
";	c #8E6A1C",
">	c #9E760C",
",	c #76622C",
"'	c #AE7A04",
")	c #9A720C",
"!	c #86661C",
"~	c #725204",
"{	c #967214",
"]	c #7E6624",
"^	c #A67604",
"/	c #9E7614",
"(	c #8A6A1C",
"_	c #725E2C",
":	c #AA7A04",
"<	c #966E14",
"[	c #7E5604",
"}	c #8E6E14",
"|	c #A27604",
"1	c #7A6224",
"2	c #AE7E04",
"3	c #82661C",
"4	c #AA7604",
"5	c #6E5204",
"6	c #725604",
"7	c #A27204",
"8	c #7A5604",
"9	c #6A5A34",
"0	c #B27E04",
"a	c #866A24",
"b	c #A67A0C",
"c	c #926E1C",
"d	c #9A7214",
"e	c #866624",
"f	c #A6760C",
"g	c #725E34",
"h	c #8E6E1C",
"i	c #A2760C",
"j	c #7A622C",
"k	c #826624",
"===============================================888[[[[8=======~5",
"~~~~~~==================================~~~~~~~=8[8[888======~=6",
"6666655~~~~~~~~~~~~~~~~~~~~~~~~~~~~~~~~=======~=6==8==~~~~~~[888",
"5.....5..5~555..55~~~6~~55..........5~~~55555~~5~5566~~555~=8[88",
"000000002222200000000000000:))20000002$'':^^^::4::^4^$:22002=[88",
"000'$|>{}%<<)$0002200000000$h{:000000$($::^@|:::$::$::::':''~=8[",
"002dh(k__+h+;>22222:2222000|({2000000>e>':)+>'2'''::::4$::'25888",
"00:>{d)(]<ii>@@@)|4:$|$|>20i+;>$20000i+%:|%!@'2022'::::::$2'.688",
"000:22'd+i0:{+++!}|^%;)+!>$;11k+>2200b((%]3}|^$22|00'2'>:^:'5688",
"0000000>ai2{+(%;+3%}++)<%|<]91;{$20002>(19k))%!)>a>:>|)k}%>2.===",
"0000000i+i:(h<>);3<}e(})@^^<]+>:2222002>+]<<!3];<3>d+}&_]+%'5~8=",
"0000000>a>b((+333(>i}h++(}^$((|'''22'22f(}>((<!3}k)h({+]di:25===",
"2022200@+>2%(hh{%)::<;d{;+@$;;^22:':''2i(<{+{:<k;khkcd!{2000~~~=",
"022222'{e@'i(e+a3;^^}3;%+ab|}<$''2'2'::{]{)]({}!}]!a%%(i00026=8=",
"2':::2:>%$22b@@d{|2:|{((+)2ihd2222'22':<+>4%+e+}7%!()i@2000'==~=",
"02':::':$:':'222'0''2^|>^'02>$20002222':7::$@>>^::|>2020000'~=8~",
"02::4::''22:'::$^$2'2:':22222000000002'2'2'2:'':::'220000024~88=",
"00':22'22':2:|<(};<|^{^:):'00:2022$0000::'2'''2'|>:''000000^8==~",
"002:::''2022|+!((++}<+{%]>''$%{22d($002)}^022'2:)(|222000027888=",
"22'':2:20000@3+<>7>7<3;!(^:2|(<:'<+i00'd(b0002':<!@:2000000*=8=~",
"022::2'22000b(+(%^2|!13!)::')+)22<(b002{($000022{+|22000002*88=6",
"20''::2'00000$d(+(^|&99!|:^^%k>0:ha$002{+i00000:<(i2000000'7=88~",
"222'':2200000:2b{kd>+]&!%$$^}!i0:};$00'dhb200002{(^00000002*=886",
"02'220000000$}ii%+{i(%{+3;^|(($2b(h>2::{+)i$$002{hb0000000'*8==~",
"000000000000>!h(a(i|(d2i}k@|+($2i+hh}{$d+(ah}220^>20000000278[8=",
"000000000000:h;%{$0:{i20:i2fh)'02dh}h+i$d{(hh$0:>}20000000:*[8[~",
"00000000000002b:'0002'000000$20022:::i2222^2:00|,-{0000000:788[=",
"0022$22$22::$^^^^$44:200000002':444^^444^4:4^:02>{2222000047[[88",
".556~~=6~=~~====~=6~~6...6.5..56~6=~=~6=666~~55...5666.6.6.688==",
"..5~6==~===8~===8===656......6~~8~=8==8~~~~=6655.5.........66=~~",
"555~6=8=~===~~=66~~~55.....5..6~=~=6===8==~~~~55...6.......55~65",
"..5~~~6~=~~===~~~==~65.......5.6~=~~~~66~566665...5..6......55..",
"                                                                ",
"                                                                ",
"                                                                ",
"                                                                ",
"                                                                ",
"                                                                ",
"                                                                ",
"                                                                ",
"                                                                ",
"                                                                ",
"                                                                ",
"                                                                ",
"                                                                ",
"                                                                ",
"                                                                ",
"                                                                ",
"                                                                ",
"                                                                ",
"                                                                ",
"                                                                ",
"                                                                ",
"                                                                ",
"                                                                ",
"                                                                ",
"                                                                ",
"                                                                ",
"                                                                ",
"                                                                ",
"                                                                ",
"                                                                ",
"                                                                ",
"                                                                "};
