/* XPM */
static char * wood_sign_left_xpm[] = {
"64 64 46 1",
" 	c None",
".	c #6A5204",
"+	c #866A1C",
"@	c #9E720C",
"#	c #6E5E34",
"$	c #A67A04",
"%	c #926E14",
"&	c #A67204",
"*	c #765604",
"=	c #7E6624",
"-	c #8E6A14",
";	c #9A720C",
">	c #AE7A04",
",	c #665A34",
"'	c #9E760C",
")	c #96720C",
"!	c #725204",
"~	c #766224",
"{	c #A67604",
"]	c #86661C",
"^	c #8E6E14",
"/	c #8A6A1C",
"(	c #AA7A04",
"_	c #966E14",
":	c #7E5604",
"<	c #AE7E04",
"[	c #A27604",
"}	c #7A6224",
"|	c #AA7604",
"1	c #6E5204",
"2	c #866A24",
"3	c #A27204",
"4	c #A67A0C",
"5	c #926E1C",
"6	c #725604",
"7	c #7A5604",
"8	c #826624",
"9	c #B27E04",
"0	c #8E6A1C",
"a	c #9A7214",
"b	c #967214",
"c	c #A6760C",
"d	c #866624",
"e	c #8E6E1C",
"f	c #A2760C",
"g	c #7A622C",
"1!*******7::::777***********************************************",
"6*!******777:7:7*!!!!!!!**********************************!!!!!!",
"7::7!!!!6***7**!*******!!!!!!!!!!!!!!!!!!!!!!!!!!!!!!!!!!666666!",
"7777*!!111!6611!!!!1111!!!!1.........111!!6!!!111111111.........",
"7777<<9><({{|{((($({{{(<9999999999999999999999999999999999999999",
"::71><((((([[$(((>({{{((<999999999999999999<<<<<<999999999999999",
"777.>((($[_%-%%{>><$($(<<999999999999999<<<<((><<999999999999999",
"77!1<<([_-=+0]8)<9>>$(>999999999999<<<<<((((<>(((<99999999999999",
"776.><('=}%$$;//[<({@[<<<<<<<<<<<<<<<<[%%;;@(<((<<$4'4<999999999",
"*7!1<<9(-][99(e/[(;^]^[%b$'b)b)b)'<<([^=+]8+'(|$;%^+=+$999999999",
"*7!!999<b2[99'/e3-8+/2;^5'^/+++++]3>{%+-;@^]@<|%]2/ba'<999999999",
"!**69999'8'$'/2_%#}_@^f5^$4ff'@%]/[(']]ebb/+[([/+%'(999999999999",
"!*!!<999'}/2+]%$-,+<>$$%][<(>>f/+b(>%++22]2%(<$^+ebb4<99999<<<99",
"*!*69999f880_'$(_~;<99(%+f(>>[%+_(9<b2e;b';[{(>{_e+++4<<<<<<<<<<",
"***!<999'8)4(>>{0]3<<>>a8@>{;/+b<999f+8]]0e^-[><>(f%+b<<<<(((<<9",
"!7!*(<99@8f<<<>[/e$>(>(;8@$b+80a'$<99c;ae/]++f$_$([b8%$<<<((((><",
"!777(<9<b23>>((;8%$><<>'+'$e+++]2/$999<({[@f[(b8e%/+8@(((<$((>>9",
"*77!&99(b+4<<(('-[><(><()(9(f'''@'(<<${[$$(><>{^]+8-;(><<(><><99",
"6*7*[<9>'-{(<<(({(>(((|4[ff'fff'@a%%^/0/-%%;''[[3f[((<>9<<><(<99",
"!777&999>(<<>({['@;ab%e-e/]2dd282++]]///++8]8]^b$><<9999>((((><<",
"!77*399999>>[)e/++++ee5ebb@'''';'f''''[3@';;;0]8b(999999<<(><<99",
"6**7{<99<<fb/8+%'f''f$$((<9999999><>(((<>>><($;/^(99999<>((((>><",
"677*3<9<'b++eaf(<9999999999999999>(>(((<><>994%d%(9999999>((((><",
"!!77&><<_0%'{<9999999999999999999<<((>>><<99(%+e4999999999<><<<9",
"*7773999<4><99999999999999999999999<><<<9999<(f$<999999999999999",
"*777&(9999999999999999999999999999<><999999999999999999999999999",
"!::73(9999999999999999999999999999999999999999999999999999999999",
"7::73(99999<<<999<<<(<<$$<$<($$((<9999999<<>$$(($<<$<<<(<(((<<99",
"**77*..6..6.6.6..6166!*6!*!6**!6!66..6..6.6!!***66*66!6!*6*!66..",
"6**!1......1.6..61!!!66******!7!611.......16*!**!*7!!**7!***!161",
"11!16......1.1...666!!!*6******!616...6.1.1!*!**!**7*!*7!!!*61..",
".1.1....611.1.....116!!1!!!!6!6611.......111!6!**!66!*!6***!11.1",
"                                                                ",
"                                                                ",
"                                                                ",
"                                                                ",
"                                                                ",
"                                                                ",
"                                                                ",
"                                                                ",
"                                                                ",
"                                                                ",
"                                                                ",
"                                                                ",
"                                                                ",
"                                                                ",
"                                                                ",
"                                                                ",
"                                                                ",
"                                                                ",
"                                                                ",
"                                                                ",
"                                                                ",
"                                                                ",
"                                                                ",
"                                                                ",
"                                                                ",
"                                                                ",
"                                                                ",
"                                                                ",
"                                                                ",
"                                                                ",
"                                                                ",
"                                                                "};
