/* XPM */
static char * x11amp_4_xpm[] = {
"64 64 65 1",
" 	c None",
".	c #02020C",
"+	c #424A5C",
"@	c #222238",
"#	c #141221",
"$	c #43434A",
"%	c #1A1A2D",
"&	c #323A4C",
"*	c #025284",
"=	c #36BA14",
"-	c #DEA61C",
";	c #BEDE2C",
">	c #D67204",
",	c #2ACE14",
"'	c #C67A0C",
")	c #96DE24",
"!	c #D66604",
"~	c #D65A04",
"{	c #EE3214",
"]	c #CE2A14",
"^	c #0E0A15",
"/	c #5286D4",
"(	c #02629C",
"_	c #629EF3",
":	c #026AB4",
"<	c #3A3A4A",
"[	c #677583",
"}	c #767A82",
"|	c #6A8694",
"1	c #808C98",
"2	c #869EAC",
"3	c #919EAE",
"4	c #2A2A44",
"5	c #313242",
"6	c #32324C",
"7	c #485365",
"8	c #4A5A74",
"9	c #221A24",
"0	c #5A6676",
"a	c #636980",
"b	c #6A7A94",
"c	c #768488",
"d	c #AEAEB4",
"e	c #B1B6B6",
"f	c #A4A6AA",
"g	c #9E9EA4",
"h	c #93969B",
"i	c #EEFEFC",
"j	c #E7F6F5",
"k	c #DCEAE8",
"l	c #D6DEDC",
"m	c #CEDEDC",
"n	c #C9D6D4",
"o	c #C6CDCB",
"p	c #8E8E91",
"q	c #F6F6FC",
"r	c #EEEEEC",
"s	c #BDC6C4",
"t	c #B9BEBC",
"u	c #A7ADAC",
"v	c #54555E",
"w	c #BECECC",
"x	c #EAE8EC",
"y	c #96AEC4",
"z	c #96A6BC",
".+@#..$####.%..%&%.%.*.==-=;>;;=,'=;)!!;>~-!~@!!~{{~.]@!@]{~{]!!",
".+@^..&^#^^.....&...............................................",
".&@^..$^##^.#.&&&#.#./.*./../.(._.:._.:._:._.:._.:._.:_.:._.:._.",
".<@#..&####...&&................................................",
".+@^..&###^.#..#.#.#.#.#.#..#.#.#.#.#.#.##.#.#.#.#.#.##.#.#.#.#.",
".&@#..&#%#%.....................................................",
".+@%..&#%#^.#[}|||1112222223232323232323223232323232323223232323",
".+@^..+##%%%%%##%#%%@@@%@445444444444454444444555555555655554455",
".+@%..+%#%#%#%%#%%#%%@@@@55554@4@4@4@65544@4@4@54554654646@54655",
".+@%..+%%%%%%%%%%#@@@@@%@544554444444546556556666465455546555544",
".+@#..$%#%#%#%%#%%#@%@@%5455@4@5544@6554546454545555545@44545@65",
".+@%..7%%%%%%%#%%%@@@%@@@544444@56544455555555554454554455564544",
".+@#..7#%%#%%%%#@%@@@@@@455@4@444@445545454544445454@5@4@4556464",
".74%..7%%#%%#%%%@@@%@@445454444@4444@544564@444@4@44464664644644",
".75#..7%%%#%#%#^................................................",
".75%..8#%%%%%%@^................................................",
".75#..8#%%%@@@@...%%%%%%%#%%%%%%%@@@@9@@9@@@@@@@@@@@@@@@@@@@@@@@",
".75%..7%%%%@%@@^..#%#%##%%%#%#%#@9@9@@9@@9@99@99@99@9@%@%@%@%@@%",
".75#..0#@@@@@@@...%%#%%#%#%%%#%@@9@@9@@9@@@@9@@@9@@@%@9@@@%@9@9@",
".05@..0@@@@@%@@^..#%%%%%%%#%%%9@@9@@@9@@99@9@@9@@9@9@9@@%@@9@@@@",
".0&@..a@%@%@@@4^..%%#%#%#%%%#%@@@@9@@9@@@9@@9@9@@@@@@%@@9@@%@@9@",
".a&@..[@@@@@@%5^..%#%%%%%%#%%@@9@9@9@@@@@@@@%@@@@%9@@@9@@9@@@%@@",
".[5@..[@@%@@554^..&55466444646666665555<5<5&<&<<<<&<<<<<<<<&<<&<",
".[6@..[@@544445^^0000000000000000aaaaaaaaaa[[a[[[aba[[[[b[[[ab[[",
".|&@..b@45455445@4444@444444444444444@64546464646646664646466466",
".b<4..[45455554444@444444@4@4@444@4@6544565666664666466666646666",
".b+4..|54554544@444@44@4444444@44444@5@6454645666466646464666466",
".|+5..|4555@44444444@44@4@4@4@44@4454655566666646664666666646666",
".|+4..1554444@@44@444@44444444@444446454646464664666464646664646",
".c+5..|44@44444@444@44444@4@444@64555555666666466646666666466666",
".1+@..14444@444deeedfgggggggghhhhhh}4deeefggggggggghhhhha6deeedf",
".1+4..144444@46eiijkklmmlmmmlnnnoop$5eqjrllnnnnnnnnnoosp$6eqqrkk",
".1+4..14@444445dqoottetedeedeeedup[$6erosttteeeeeeeeeepv<4eqostt",
".1+4..144@4@446dksssswtswtswtsetdhv$4dksssstsststststepv<6drsoss",
".1+4..244@44555fkttss^^9osss9@ssdpv<6fltts^#sswsossssspv66fkets^",
".1+4..244455456flesso^gjooo@gjssehv<6glesw^1^#oooooosspv56gltss#",
".2+4..2@6556545gmetso#ginonpuissepv<6gmdso^hpp^^nonosspv55gmeto^",
".174..2554545553metso^gioo@gfiwsdpv<6gnetw^hhhp1^^oowspv56hlets^",
".174..255555464fndtso^git5hgfiosepv55goeto^h2phph1^^otp$56gndts#",
".276..264545555gnetoo#giwjfgfissdpv<53ndtw^12h2hggjkospv56gmets#",
".274..265554555gmdewo^giowigfintdpv55hnetw^hp1ggjjnowtpv45hmdts^",
".276..254655465hnetso^gionoffissepv<5gwetw#hggjjoooostpv54hnets#",
".275..255455545hnetss@fjsssjdjstucv<5hwets^3jjwsnswsotpv553ndts9",
".276..355554565hnudtsxjrsosojjstupv<5hwyeskksssssssstepv55hnudsk",
".274..245555455hwuudetedeededeuuf1v<5hsufeueeueeeeeeeucv<5hwueee",
".276..h55545555hwhphppp1p1p1pp1p11v$5hsh2p1pp1ppcppcpp1v<6hwhppp",
".274..264556465hh[0vvvv7vvvv7vvvvvv$5hhvvvv7$v$vv$vvvv+v<53pa0vv",
".274..354545455}$$$<<<<<555<<<<<<$$$5}$$<<555555555455<<<5}v$$$<",
".27@..2545555465555555455555455556566555555555546455455455555566",
".274..3555545554645555565646566666464655546464665645646564666656",
".274..2445555455664545646664646466666464666666466664666466464646",
".274..3555545545456554666466664664646666646466646666466646666666",
".2+4..49@9@@@@@@@9@9@@9@@@9@9@@@@@@@9@9@@@@@9@@@9@9@@@9@@@9@9@@@",
".274............................................................",
".2+4422222322233333333z3zzzzzzyzzyyyyyyyyyyyyyyyyzzyzyzzyzzzzzzz",
".274@77777777777777777777788888888888888888888888888888888888878",
".2+444@44@646464646464646646464646464646464646464664664646464666",
"................................................................",
"                                                                ",
"                                                                ",
"                                                                ",
"                                                                ",
"                                                                ",
"                                                                "};
